<!-- This Source Code Form is subject to the terms of the Mozilla Public
   - License, v. 2.0. If a copy of the MPL was not distributed with this
   - file, You can obtain one at http://mozilla.org/MPL/2.0/. -->
<svg xmlns="http://www.w3.org/2000/svg" xmlns:xlink="http://www.w3.org/1999/xlink" preserveAspectRatio="xMidYMid meet" width="300" height="172" viewBox="0 0 300 172" style="width:100%;height:100%"><defs><animateMotion repeatCount="indefinite" dur="5.5722389s" begin="0s" xlink:href="#_R_G_L_7_G" fill="freeze" keyTimes="0;0.5592814;0.598801;1" path="M332.25 58.5 C332.25,58.5 332.25,58.5 332.25,58.5 C332.25,58.5 354.5,58.5 354.5,58.5 C354.5,58.5 354.5,58.5 354.5,58.5 " keyPoints="0;0;1;1" keySplines="0.167 0.167 0.667 1;0.167 0.167 0.667 1;0 0 0 0" calcMode="spline"/><animateTransform repeatCount="indefinite" dur="5.5722389s" begin="0s" xlink:href="#_R_G_L_7_G" fill="freeze" attributeName="transform" from="-53.5 -12" to="-53.5 -12" type="translate" additive="sum" keyTimes="0;1" values="-53.5 -12;-53.5 -12" keySplines="0 0 1 1" calcMode="spline"/><animate repeatCount="indefinite" dur="5.5722389s" begin="0s" xlink:href="#_R_G_L_6_G_D_0_P_0" fill="freeze" attributeName="fill" from="#ffffff" to="#ffffff" keyTimes="0;0.1197605;0.3760419;0.4616706;0.5275449;0.5999987;1" values="#ffffff;#ffffff;#ffffff;#fbf6ff;#fbf6ff;#ffffff;#ffffff" keySplines="0 0 0.667 1;0 0 0.667 1;0.167 0 0.667 1;0.167 0 0.667 1;0.167 0.41 0.667 1;0 0 0 0" calcMode="spline"/><animate repeatCount="indefinite" dur="5.5722389s" begin="0s" xlink:href="#_R_G_L_6_G_D_0_P_0" fill="freeze" attributeName="d" attributeType="XML" from="M4 0.5 C4,0.5 103,0.5 103,0.5 C104.93,0.5 106.5,2.07 106.5,4 C106.5,4 106.5,20 106.5,20 C106.5,21.93 104.93,23.5 103,23.5 C103,23.5 4,23.5 4,23.5 C2.07,23.5 0.5,21.93 0.5,20 C0.5,20 0.5,4 0.5,4 C0.5,2.07 2.07,0.5 4,0.5z " to="M4 0.5 C4,0.5 96.75,0.5 96.75,0.5 C98.68,0.5 100.25,2.07 100.25,4 C100.25,4 100.25,20 100.25,20 C100.25,21.93 98.68,23.5 96.75,23.5 C96.75,23.5 4,23.5 4,23.5 C2.07,23.5 0.5,21.93 0.5,20 C0.5,20 0.5,4 0.5,4 C0.5,2.07 2.07,0.5 4,0.5z " keyTimes="0;0.5275449;0.5999987;1" values="M4 0.5 C4,0.5 103,0.5 103,0.5 C104.93,0.5 106.5,2.07 106.5,4 C106.5,4 106.5,20 106.5,20 C106.5,21.93 104.93,23.5 103,23.5 C103,23.5 4,23.5 4,23.5 C2.07,23.5 0.5,21.93 0.5,20 C0.5,20 0.5,4 0.5,4 C0.5,2.07 2.07,0.5 4,0.5z ;M4 0.5 C4,0.5 103,0.5 103,0.5 C104.93,0.5 106.5,2.07 106.5,4 C106.5,4 106.5,20 106.5,20 C106.5,21.93 104.93,23.5 103,23.5 C103,23.5 4,23.5 4,23.5 C2.07,23.5 0.5,21.93 0.5,20 C0.5,20 0.5,4 0.5,4 C0.5,2.07 2.07,0.5 4,0.5z ;M4 0.5 C4,0.5 96.75,0.5 96.75,0.5 C98.68,0.5 100.25,2.07 100.25,4 C100.25,4 100.25,20 100.25,20 C100.25,21.93 98.68,23.5 96.75,23.5 C96.75,23.5 4,23.5 4,23.5 C2.07,23.5 0.5,21.93 0.5,20 C0.5,20 0.5,4 0.5,4 C0.5,2.07 2.07,0.5 4,0.5z ;M4 0.5 C4,0.5 96.75,0.5 96.75,0.5 C98.68,0.5 100.25,2.07 100.25,4 C100.25,4 100.25,20 100.25,20 C100.25,21.93 98.68,23.5 96.75,23.5 C96.75,23.5 4,23.5 4,23.5 C2.07,23.5 0.5,21.93 0.5,20 C0.5,20 0.5,4 0.5,4 C0.5,2.07 2.07,0.5 4,0.5z " keySplines="0.167 0.167 0.667 1;0.167 0.167 0.667 1;0 0 0 0" calcMode="spline"/><animate repeatCount="indefinite" dur="5.5722389s" begin="0s" xlink:href="#_R_G_L_6_G_D_1_P_0" fill="freeze" attributeName="stroke" from="#80808e" to="#80808e" keyTimes="0;0.1197605;0.3760419;0.4616722;1" values="#80808e;#80808e;#80808e;#8c39bc;#8c39bc" keySplines="0.167 0 0.667 1;0.167 0 0.667 1;0.167 1 0.667 1;0 0 0 0" calcMode="spline"/><animate repeatCount="indefinite" dur="5.5722389s" begin="0s" xlink:href="#_R_G_L_6_G_D_1_P_0" fill="freeze" attributeName="stroke-width" from="1" to="1.5" keyTimes="0;0.1197605;0.3760419;0.4616706;0.5275449;0.5999987;1" values="1;1;1;1;1;1.5;1.5" keySplines="0.167 0 0.667 1;0.167 0 0.667 1;0.167 0 0.667 1;0.167 0.167 0.833 0.833;0.167 0.167 0.833 0.833;0 0 0 0" calcMode="spline"/><animate repeatCount="indefinite" dur="5.5722389s" begin="0s" xlink:href="#_R_G_L_6_G_D_1_P_0" fill="freeze" attributeName="d" attributeType="XML" from="M4 0.5 C4,0.5 103,0.5 103,0.5 C104.93,0.5 106.5,2.07 106.5,4 C106.5,4 106.5,20 106.5,20 C106.5,21.93 104.93,23.5 103,23.5 C103,23.5 4,23.5 4,23.5 C2.07,23.5 0.5,21.93 0.5,20 C0.5,20 0.5,4 0.5,4 C0.5,2.07 2.07,0.5 4,0.5z " to="M4 0.5 C4,0.5 96.75,0.5 96.75,0.5 C98.68,0.5 100.25,2.07 100.25,4 C100.25,4 100.25,20 100.25,20 C100.25,21.93 98.68,23.5 96.75,23.5 C96.75,23.5 4,23.5 4,23.5 C2.07,23.5 0.5,21.93 0.5,20 C0.5,20 0.5,4 0.5,4 C0.5,2.07 2.07,0.5 4,0.5z " keyTimes="0;0.5275449;0.5999987;1" values="M4 0.5 C4,0.5 103,0.5 103,0.5 C104.93,0.5 106.5,2.07 106.5,4 C106.5,4 106.5,20 106.5,20 C106.5,21.93 104.93,23.5 103,23.5 C103,23.5 4,23.5 4,23.5 C2.07,23.5 0.5,21.93 0.5,20 C0.5,20 0.5,4 0.5,4 C0.5,2.07 2.07,0.5 4,0.5z ;M4 0.5 C4,0.5 103,0.5 103,0.5 C104.93,0.5 106.5,2.07 106.5,4 C106.5,4 106.5,20 106.5,20 C106.5,21.93 104.93,23.5 103,23.5 C103,23.5 4,23.5 4,23.5 C2.07,23.5 0.5,21.93 0.5,20 C0.5,20 0.5,4 0.5,4 C0.5,2.07 2.07,0.5 4,0.5z ;M4 0.5 C4,0.5 96.75,0.5 96.75,0.5 C98.68,0.5 100.25,2.07 100.25,4 C100.25,4 100.25,20 100.25,20 C100.25,21.93 98.68,23.5 96.75,23.5 C96.75,23.5 4,23.5 4,23.5 C2.07,23.5 0.5,21.93 0.5,20 C0.5,20 0.5,4 0.5,4 C0.5,2.07 2.07,0.5 4,0.5z ;M4 0.5 C4,0.5 96.75,0.5 96.75,0.5 C98.68,0.5 100.25,2.07 100.25,4 C100.25,4 100.25,20 100.25,20 C100.25,21.93 98.68,23.5 96.75,23.5 C96.75,23.5 4,23.5 4,23.5 C2.07,23.5 0.5,21.93 0.5,20 C0.5,20 0.5,4 0.5,4 C0.5,2.07 2.07,0.5 4,0.5z " keySplines="0.167 0.167 0.667 1;0.167 0.167 0.667 1;0 0 0 0" calcMode="spline"/><animate repeatCount="indefinite" dur="5.5722389s" begin="0s" xlink:href="#_R_G_L_6_G_D_2_P_0" fill="freeze" attributeName="fill" from="#80808e" to="#80808e" keyTimes="0;0.1197605;0.3760419;0.4616722;1" values="#80808e;#80808e;#80808e;#8c39bc;#8c39bc" keySplines="0.167 0 0.667 1;0.167 0 0.667 1;0.167 1 0.667 1;0 0 0 0" calcMode="spline"/><animate repeatCount="indefinite" dur="5.5722389s" begin="0s" xlink:href="#_R_G_L_6_G_D_3_P_0" fill="freeze" attributeName="fill" from="#80808e" to="#80808e" keyTimes="0;0.1197605;0.3760419;0.4616722;1" values="#80808e;#80808e;#80808e;#8c39bc;#8c39bc" keySplines="0.167 0 0.667 1;0.167 0 0.667 1;0.167 1 0.667 1;0 0 0 0" calcMode="spline"/><animate repeatCount="indefinite" dur="5.5722389s" begin="0s" xlink:href="#_R_G_L_6_G_D_3_P_0" fill="freeze" attributeName="d" attributeType="XML" from="M30 10 C30,10 97,10 97,10 C98.1,10 99,10.9 99,12 C99,13.11 98.1,14 97,14 C97,14 30,14 30,14 C28.9,14 28,13.11 28,12 C28,10.9 28.9,10 30,10z " to="M30 10 C30,10 90.75,10 90.75,10 C91.86,10 92.75,10.9 92.75,12 C92.75,13.11 91.86,14 90.75,14 C90.75,14 30,14 30,14 C28.9,14 28,13.11 28,12 C28,10.9 28.9,10 30,10z " keyTimes="0;0.5275449;0.5999987;1" values="M30 10 C30,10 97,10 97,10 C98.1,10 99,10.9 99,12 C99,13.11 98.1,14 97,14 C97,14 30,14 30,14 C28.9,14 28,13.11 28,12 C28,10.9 28.9,10 30,10z ;M30 10 C30,10 97,10 97,10 C98.1,10 99,10.9 99,12 C99,13.11 98.1,14 97,14 C97,14 30,14 30,14 C28.9,14 28,13.11 28,12 C28,10.9 28.9,10 30,10z ;M30 10 C30,10 90.75,10 90.75,10 C91.86,10 92.75,10.9 92.75,12 C92.75,13.11 91.86,14 90.75,14 C90.75,14 30,14 30,14 C28.9,14 28,13.11 28,12 C28,10.9 28.9,10 30,10z ;M30 10 C30,10 90.75,10 90.75,10 C91.86,10 92.75,10.9 92.75,12 C92.75,13.11 91.86,14 90.75,14 C90.75,14 30,14 30,14 C28.9,14 28,13.11 28,12 C28,10.9 28.9,10 30,10z " keySplines="0.167 0.167 0.667 1;0.167 0.167 0.667 1;0 0 0 0" calcMode="spline"/><animateMotion repeatCount="indefinite" dur="5.5722389s" begin="0s" xlink:href="#_R_G_L_6_G" fill="freeze" keyTimes="0;0.5275449;0.5999987;1" path="M110 58 C110,58 110,58 110,58 C110,58 142.5,58 142.5,58 C142.5,58 142.5,58 142.5,58 " keyPoints="0;0;1;1" keySplines="0.167 0.167 0.667 1;0.167 0.167 0.667 1;0 0 0 0" calcMode="spline"/><animateTransform repeatCount="indefinite" dur="5.5722389s" begin="0s" xlink:href="#_R_G_L_6_G" fill="freeze" attributeName="transform" from="-53.5 -12" to="-53.5 -12" type="translate" additive="sum" keyTimes="0;1" values="-53.5 -12;-53.5 -12" keySplines="0 0 1 1" calcMode="spline"/><animate repeatCount="indefinite" dur="5.5722389s" begin="0s" xlink:href="#_R_G_L_5_G_D_0_P_0" fill="freeze" attributeName="d" attributeType="XML" from="M4 0.5 C4,0.5 103,0.5 103,0.5 C104.93,0.5 106.5,2.07 106.5,4 C106.5,4 106.5,20 106.5,20 C106.5,21.93 104.93,23.5 103,23.5 C103,23.5 4,23.5 4,23.5 C2.07,23.5 0.5,21.93 0.5,20 C0.5,20 0.5,4 0.5,4 C0.5,2.07 2.07,0.5 4,0.5z " to="M4 0.5 C4,0.5 96.75,0.5 96.75,0.5 C98.68,0.5 100.25,2.07 100.25,4 C100.25,4 100.25,20 100.25,20 C100.25,21.93 98.68,23.5 96.75,23.5 C96.75,23.5 4,23.5 4,23.5 C2.07,23.5 0.5,21.93 0.5,20 C0.5,20 0.5,4 0.5,4 C0.5,2.07 2.07,0.5 4,0.5z " keyTimes="0;0.5275449;0.5999987;1" values="M4 0.5 C4,0.5 103,0.5 103,0.5 C104.93,0.5 106.5,2.07 106.5,4 C106.5,4 106.5,20 106.5,20 C106.5,21.93 104.93,23.5 103,23.5 C103,23.5 4,23.5 4,23.5 C2.07,23.5 0.5,21.93 0.5,20 C0.5,20 0.5,4 0.5,4 C0.5,2.07 2.07,0.5 4,0.5z ;M4 0.5 C4,0.5 103,0.5 103,0.5 C104.93,0.5 106.5,2.07 106.5,4 C106.5,4 106.5,20 106.5,20 C106.5,21.93 104.93,23.5 103,23.5 C103,23.5 4,23.5 4,23.5 C2.07,23.5 0.5,21.93 0.5,20 C0.5,20 0.5,4 0.5,4 C0.5,2.07 2.07,0.5 4,0.5z ;M4 0.5 C4,0.5 96.75,0.5 96.75,0.5 C98.68,0.5 100.25,2.07 100.25,4 C100.25,4 100.25,20 100.25,20 C100.25,21.93 98.68,23.5 96.75,23.5 C96.75,23.5 4,23.5 4,23.5 C2.07,23.5 0.5,21.93 0.5,20 C0.5,20 0.5,4 0.5,4 C0.5,2.07 2.07,0.5 4,0.5z ;M4 0.5 C4,0.5 96.75,0.5 96.75,0.5 C98.68,0.5 100.25,2.07 100.25,4 C100.25,4 100.25,20 100.25,20 C100.25,21.93 98.68,23.5 96.75,23.5 C96.75,23.5 4,23.5 4,23.5 C2.07,23.5 0.5,21.93 0.5,20 C0.5,20 0.5,4 0.5,4 C0.5,2.07 2.07,0.5 4,0.5z " keySplines="0.167 0.167 0.667 1;0.167 0.167 0.667 1;0 0 0 0" calcMode="spline"/><animate repeatCount="indefinite" dur="5.5722389s" begin="0s" xlink:href="#_R_G_L_5_G_D_1_P_0" fill="freeze" attributeName="stroke" from="#80808e" to="#80808e" keyTimes="0;0.3760419;0.4616722;1" values="#80808e;#80808e;#8c39bc;#8c39bc" keySplines="0.167 1 0.667 1;0.167 1 0.667 1;0 0 0 0" calcMode="spline"/><animate repeatCount="indefinite" dur="5.5722389s" begin="0s" xlink:href="#_R_G_L_5_G_D_1_P_0" fill="freeze" attributeName="stroke-width" from="1" to="1.5" keyTimes="0;0.1197605;0.3760419;0.4616706;0.5275449;0.5999987;1" values="1;1;1;1.5;1.5;1.5;1.5" keySplines="0.167 0 0.667 1;0.167 0 0.667 1;0.167 0.167 0.667 1;0.167 0 0.667 1;0.167 0 0.667 1;0 0 0 0" calcMode="spline"/><animate repeatCount="indefinite" dur="5.5722389s" begin="0s" xlink:href="#_R_G_L_5_G_D_1_P_0" fill="freeze" attributeName="d" attributeType="XML" from="M4 0.5 C4,0.5 103,0.5 103,0.5 C104.93,0.5 106.5,2.07 106.5,4 C106.5,4 106.5,20 106.5,20 C106.5,21.93 104.93,23.5 103,23.5 C103,23.5 4,23.5 4,23.5 C2.07,23.5 0.5,21.93 0.5,20 C0.5,20 0.5,4 0.5,4 C0.5,2.07 2.07,0.5 4,0.5z " to="M4 0.5 C4,0.5 96.75,0.5 96.75,0.5 C98.68,0.5 100.25,2.07 100.25,4 C100.25,4 100.25,20 100.25,20 C100.25,21.93 98.68,23.5 96.75,23.5 C96.75,23.5 4,23.5 4,23.5 C2.07,23.5 0.5,21.93 0.5,20 C0.5,20 0.5,4 0.5,4 C0.5,2.07 2.07,0.5 4,0.5z " keyTimes="0;0.5275449;0.5999987;1" values="M4 0.5 C4,0.5 103,0.5 103,0.5 C104.93,0.5 106.5,2.07 106.5,4 C106.5,4 106.5,20 106.5,20 C106.5,21.93 104.93,23.5 103,23.5 C103,23.5 4,23.5 4,23.5 C2.07,23.5 0.5,21.93 0.5,20 C0.5,20 0.5,4 0.5,4 C0.5,2.07 2.07,0.5 4,0.5z ;M4 0.5 C4,0.5 103,0.5 103,0.5 C104.93,0.5 106.5,2.07 106.5,4 C106.5,4 106.5,20 106.5,20 C106.5,21.93 104.93,23.5 103,23.5 C103,23.5 4,23.5 4,23.5 C2.07,23.5 0.5,21.93 0.5,20 C0.5,20 0.5,4 0.5,4 C0.5,2.07 2.07,0.5 4,0.5z ;M4 0.5 C4,0.5 96.75,0.5 96.75,0.5 C98.68,0.5 100.25,2.07 100.25,4 C100.25,4 100.25,20 100.25,20 C100.25,21.93 98.68,23.5 96.75,23.5 C96.75,23.5 4,23.5 4,23.5 C2.07,23.5 0.5,21.93 0.5,20 C0.5,20 0.5,4 0.5,4 C0.5,2.07 2.07,0.5 4,0.5z ;M4 0.5 C4,0.5 96.75,0.5 96.75,0.5 C98.68,0.5 100.25,2.07 100.25,4 C100.25,4 100.25,20 100.25,20 C100.25,21.93 98.68,23.5 96.75,23.5 C96.75,23.5 4,23.5 4,23.5 C2.07,23.5 0.5,21.93 0.5,20 C0.5,20 0.5,4 0.5,4 C0.5,2.07 2.07,0.5 4,0.5z " keySplines="0.167 0.167 0.667 1;0.167 0.167 0.667 1;0 0 0 0" calcMode="spline"/><animate repeatCount="indefinite" dur="5.5722389s" begin="0s" xlink:href="#_R_G_L_5_G_D_2_P_0" fill="freeze" attributeName="fill" from="#80808e" to="#80808e" keyTimes="0;0.3760419;0.4616722;1" values="#80808e;#80808e;#8c39bc;#8c39bc" keySplines="0.167 1 0.667 1;0.167 1 0.667 1;0 0 0 0" calcMode="spline"/><animate repeatCount="indefinite" dur="5.5722389s" begin="0s" xlink:href="#_R_G_L_5_G_D_3_P_0" fill="freeze" attributeName="fill" from="#80808e" to="#80808e" keyTimes="0;0.1556946;0.3760419;0.4616722;1" values="#80808e;#80808e;#80808e;#8c39bc;#8c39bc" keySplines="0 0 0.833 1;0 0 0.833 1;0.167 1 0.667 1;0 0 0 0" calcMode="spline"/><animate repeatCount="indefinite" dur="5.5722389s" begin="0s" xlink:href="#_R_G_L_5_G_D_3_P_0" fill="freeze" attributeName="d" attributeType="XML" from="M30 10 C30,10 97,10 97,10 C98.1,10 99,10.9 99,12 C99,13.11 98.1,14 97,14 C97,14 30,14 30,14 C28.9,14 28,13.11 28,12 C28,10.9 28.9,10 30,10z " to="M30 10 C30,10 90.75,10 90.75,10 C91.86,10 92.75,10.9 92.75,12 C92.75,13.11 91.86,14 90.75,14 C90.75,14 30,14 30,14 C28.9,14 28,13.11 28,12 C28,10.9 28.9,10 30,10z " keyTimes="0;0.5275449;0.5999987;1" values="M30 10 C30,10 97,10 97,10 C98.1,10 99,10.9 99,12 C99,13.11 98.1,14 97,14 C97,14 30,14 30,14 C28.9,14 28,13.11 28,12 C28,10.9 28.9,10 30,10z ;M30 10 C30,10 97,10 97,10 C98.1,10 99,10.9 99,12 C99,13.11 98.1,14 97,14 C97,14 30,14 30,14 C28.9,14 28,13.11 28,12 C28,10.9 28.9,10 30,10z ;M30 10 C30,10 90.75,10 90.75,10 C91.86,10 92.75,10.9 92.75,12 C92.75,13.11 91.86,14 90.75,14 C90.75,14 30,14 30,14 C28.9,14 28,13.11 28,12 C28,10.9 28.9,10 30,10z ;M30 10 C30,10 90.75,10 90.75,10 C91.86,10 92.75,10.9 92.75,12 C92.75,13.11 91.86,14 90.75,14 C90.75,14 30,14 30,14 C28.9,14 28,13.11 28,12 C28,10.9 28.9,10 30,10z " keySplines="0.167 0.167 0.667 1;0.167 0.167 0.667 1;0 0 0 0" calcMode="spline"/><animateMotion repeatCount="indefinite" dur="5.5722389s" begin="0s" xlink:href="#_R_G_L_5_G" fill="freeze" keyTimes="0;0.3365209;0.4616706;0.5275449;0.5999987;1" path="M221 58 C221,58 221,58 221,58 C221,58 191,58 191,58 C191,58 191,58 191,58 C191,58 247.5,58 247.5,58 C247.5,58 247.5,58 247.5,58 " keyPoints="0;0;0.35;0.35;1;1" keySplines="0.333 0 0.667 1;0.333 0 0.667 1;0.167 0.167 0.667 0.667;0.167 0.167 0.667 1;0 0 0 0" calcMode="spline"/><animateTransform repeatCount="indefinite" dur="5.5722389s" begin="0s" xlink:href="#_R_G_L_5_G" fill="freeze" attributeName="transform" from="-53.5 -12" to="-53.5 -12" type="translate" additive="sum" keyTimes="0;1" values="-53.5 -12;-53.5 -12" keySplines="0 0 1 1" calcMode="spline"/><animate repeatCount="indefinite" dur="5.5722389s" begin="0s" xlink:href="#_R_G_L_3_G_D_0_P_0" fill="freeze" attributeName="d" attributeType="XML" from="M4 0.05 C4,0.05 7.44,0.05 7.44,0.05 C9.65,0.05 11.44,1.84 11.44,4.05 C11.44,4.05 11.44,14.05 11.44,14.05 C11.44,16.26 9.65,18.05 7.44,18.05 C7.44,18.05 4,18.05 4,18.05 C1.79,18.05 0,16.26 0,14.05 C0,14.05 0,4.05 0,4.05 C0,1.84 1.79,0.05 4,0.05z " to="M4 0.05 C4,0.05 24,0.05 24,0.05 C26.21,0.05 28,1.84 28,4.05 C28,4.05 28,14.05 28,14.05 C28,16.26 26.21,18.05 24,18.05 C24,18.05 4,18.05 4,18.05 C1.79,18.05 0,16.26 0,14.05 C0,14.05 0,4.05 0,4.05 C0,1.84 1.79,0.05 4,0.05z " keyTimes="0;0.5209521;0.5999987;1" values="M4 0.05 C4,0.05 7.44,0.05 7.44,0.05 C9.65,0.05 11.44,1.84 11.44,4.05 C11.44,4.05 11.44,14.05 11.44,14.05 C11.44,16.26 9.65,18.05 7.44,18.05 C7.44,18.05 4,18.05 4,18.05 C1.79,18.05 0,16.26 0,14.05 C0,14.05 0,4.05 0,4.05 C0,1.84 1.79,0.05 4,0.05z ;M4 0.05 C4,0.05 7.44,0.05 7.44,0.05 C9.65,0.05 11.44,1.84 11.44,4.05 C11.44,4.05 11.44,14.05 11.44,14.05 C11.44,16.26 9.65,18.05 7.44,18.05 C7.44,18.05 4,18.05 4,18.05 C1.79,18.05 0,16.26 0,14.05 C0,14.05 0,4.05 0,4.05 C0,1.84 1.79,0.05 4,0.05z ;M4 0.05 C4,0.05 24,0.05 24,0.05 C26.21,0.05 28,1.84 28,4.05 C28,4.05 28,14.05 28,14.05 C28,16.26 26.21,18.05 24,18.05 C24,18.05 4,18.05 4,18.05 C1.79,18.05 0,16.26 0,14.05 C0,14.05 0,4.05 0,4.05 C0,1.84 1.79,0.05 4,0.05z ;M4 0.05 C4,0.05 24,0.05 24,0.05 C26.21,0.05 28,1.84 28,4.05 C28,4.05 28,14.05 28,14.05 C28,16.26 26.21,18.05 24,18.05 C24,18.05 4,18.05 4,18.05 C1.79,18.05 0,16.26 0,14.05 C0,14.05 0,4.05 0,4.05 C0,1.84 1.79,0.05 4,0.05z " keySplines="0.167 0.167 0.667 1;0.167 0.167 0.667 1;0 0 0 0" calcMode="spline"/><animate repeatCount="indefinite" dur="5.5722389s" begin="0s" xlink:href="#_R_G_L_3_G" fill="freeze" attributeName="opacity" from="0" to="1" keyTimes="0;0.5748503;0.5999987;1" values="0;0;1;1" keySplines="0.167 0.167 0.667 1;0.167 0.167 0.667 1;0 0 0 0" calcMode="spline"/><animate repeatCount="indefinite" dur="5.5722389s" begin="0s" xlink:href="#_R_G_L_2_G" fill="freeze" attributeName="opacity" from="0" to="1" keyTimes="0;0.5688623;0.598801;1" values="0;0;1;1" keySplines="0.167 0.167 0.667 1;0.167 0.167 0.667 1;0 0 0 0" calcMode="spline"/><animateTransform repeatCount="indefinite" dur="5.5722389s" begin="0s" xlink:href="#_R_G_L_2_G" fill="freeze" attributeName="transform" from="0.31 1" to="1 1" type="scale" additive="sum" keyTimes="0;0.5329341;0.598801;1" values="0.31 1;0.31 1;1 1;1 1" keySplines="0.167 0.167 0.667 1;0.167 0.167 0.667 1;0 0 0 0" calcMode="spline"/><animateTransform repeatCount="indefinite" dur="5.5722389s" begin="0s" xlink:href="#_R_G_L_2_G" fill="freeze" attributeName="transform" from="80 9.75" to="80 9.75" type="translate" additive="sum" keyTimes="0;1" values="80 9.75;80 9.75" keySplines="0 0 1 1" calcMode="spline"/><animateMotion repeatCount="indefinite" dur="5.5722389s" begin="0s" xlink:href="#_R_G_L_1_G" fill="freeze" keyTimes="0;0.1197605;0.2580898;0.3365209;0.4616706;0.5275449;0.6263466;1" path="M255 91.5 C255,91.5 255,91.5 255,91.5 C239.75,90 237.5,73 237.5,73 C237.5,73 237.5,73 237.5,73 C237.5,73 207.5,73 207.5,73 C207.5,73 207.5,73 207.5,73 C207.5,73 221.25,90 255,91.5 C255,91.5 255,91.5 255,91.5 " keyPoints="0;0;0.25;0.25;0.52;0.52;1;1" keySplines="0.333 0 0.667 1;0.333 0 0.667 1;0.333 0.333 0.667 0.667;0.333 0 0.667 1;0.167 0.167 0.667 0.667;0.167 0.167 0.667 1;0 0 0 0" calcMode="spline"/><animateTransform repeatCount="indefinite" dur="5.5722389s" begin="0s" xlink:href="#_R_G_L_1_G" fill="freeze" attributeName="transform" from="-10.5 -10.5" to="-10.5 -10.5" type="translate" additive="sum" keyTimes="0;1" values="-10.5 -10.5;-10.5 -10.5" keySplines="0 0 1 1" calcMode="spline"/><animate attributeType="XML" attributeName="opacity" dur="6s" from="0" to="1" xlink:href="#time_group"/></defs><g id="_R_G"><g id="_R_G_L_9_G"><rect id="_R_G_L_9_G_S" fill="#eae1ff" width="300" height="172"/></g><g id="_R_G_L_8_G"><path id="_R_G_L_8_G_D_0_P_0" fill="#f9f9fb" fill-opacity="1" fill-rule="nonzero" d=" M26.54 41 C26.54,41 415.46,41 415.46,41 C419.62,41 423,44.38 423,48.54 C423,48.54 423,202.46 423,202.46 C423,206.62 419.62,210 415.46,210 C415.46,210 26.54,210 26.54,210 C22.38,210 19,206.62 19,202.46 C19,202.46 19,48.54 19,48.54 C19,44.38 22.38,41 26.54,41z "/><path id="_R_G_L_8_G_D_1_P_0" fill="#f0f0f4" fill-opacity="1" fill-rule="nonzero" d=" M415.62 41.08 C415.62,41.08 26.79,41.08 26.79,41.08 C22.39,41.08 18.79,44.68 18.79,49.08 C18.79,49.08 18.79,77.41 18.79,77.41 C18.79,77.41 423.62,77.41 423.62,77.41 C423.62,77.41 423.62,49.08 423.62,49.08 C423.62,44.68 420.02,41.08 415.62,41.08z "/><path id="_R_G_L_8_G_D_2_P_0" fill="#fbfbfe" fill-opacity="1" fill-rule="nonzero" d=" M18.75 113.76 C18.75,113.76 423.17,113.76 423.17,113.76 C423.17,113.76 423.17,184.76 423.17,184.76 C423.17,184.76 18.75,184.76 18.75,184.76 C18.75,184.76 18.75,113.76 18.75,113.76z "/><path id="_R_G_L_8_G_D_3_P_0" stroke="#e0e0e6" stroke-linecap="round" stroke-linejoin="round" fill="none" stroke-width="0.994" stroke-opacity="1" d=" M18.75 113.76 C18.75,113.76 423.17,113.76 423.17,113.76 C423.17,113.76 423.17,184.76 423.17,184.76 C423.17,184.76 18.75,184.76 18.75,184.76 C18.75,184.76 18.75,113.76 18.75,113.76z "/><path id="_R_G_L_8_G_D_4_P_0" fill="#f0f0f4" fill-opacity="1" fill-rule="nonzero" d=" M131.16 84.31 C131.16,84.31 415.48,84.31 415.48,84.31 C417.03,84.31 418.28,85.77 418.28,87.57 C418.28,87.57 418.28,102.17 418.28,102.17 C418.28,103.97 417.03,105.43 415.48,105.43 C415.48,105.43 131.16,105.43 131.16,105.43 C129.61,105.43 128.36,103.97 128.36,102.17 C128.36,102.17 128.36,87.57 128.36,87.57 C128.36,85.77 129.61,84.31 131.16,84.31z "/><path id="_R_G_L_8_G_D_5_P_0" stroke="#e0e0e6" stroke-linecap="round" stroke-linejoin="round" fill="none" stroke-width="0.895" stroke-opacity="1" d=" M18.65 77.58 C18.65,77.58 423.55,77.58 423.55,77.58 "/><path id="_R_G_L_8_G_D_6_P_0" stroke="#e0e0e6" stroke-linecap="round" stroke-linejoin="round" fill="none" stroke-width="0.956" stroke-opacity="1" d=" M26.54 40.52 C26.54,40.52 415.46,40.52 415.46,40.52 C419.89,40.52 423.48,44.11 423.48,48.54 C423.48,48.54 423.48,202.46 423.48,202.46 C423.48,206.89 419.89,210.48 415.46,210.48 C415.46,210.48 26.54,210.48 26.54,210.48 C22.11,210.48 18.52,206.89 18.52,202.46 C18.52,202.46 18.52,48.54 18.52,48.54 C18.52,44.11 22.11,40.52 26.54,40.52z "/><path id="_R_G_L_8_G_D_7_P_0" fill="#cfcfd8" fill-opacity="1" fill-rule="nonzero" d=" M45.05 95.04 C45.05,95.04 35.33,95.04 35.33,95.04 C35.33,95.04 39.02,91.34 39.02,91.34 C39.12,91.24 39.17,91.1 39.17,90.96 C39.17,90.82 39.11,90.69 39.01,90.59 C38.92,90.49 38.78,90.44 38.64,90.43 C38.5,90.43 38.37,90.49 38.26,90.58 C38.26,90.58 33.57,95.28 33.57,95.28 C33.57,95.28 33.57,95.87 33.57,95.87 C33.57,95.87 38.26,100.57 38.26,100.57 C38.31,100.62 38.37,100.66 38.44,100.69 C38.5,100.71 38.57,100.73 38.64,100.73 C38.72,100.73 38.78,100.71 38.85,100.69 C38.91,100.66 38.97,100.62 39.02,100.57 C39.12,100.47 39.18,100.33 39.18,100.19 C39.18,100.05 39.12,99.91 39.02,99.81 C39.02,99.81 35.33,96.11 35.33,96.11 C35.33,96.11 45.05,96.11 45.05,96.11 C45.19,96.11 45.33,96.06 45.43,95.96 C45.53,95.85 45.58,95.72 45.58,95.58 C45.58,95.43 45.53,95.3 45.43,95.2 C45.33,95.1 45.19,95.04 45.05,95.04z "/><path id="_R_G_L_8_G_D_8_P_0" fill="#cfcfd8" fill-opacity="1" fill-rule="nonzero" d=" M63.17 95.04 C63.17,95.04 72.89,95.04 72.89,95.04 C72.89,95.04 69.19,91.34 69.19,91.34 C69.1,91.24 69.05,91.11 69.05,90.97 C69.05,90.83 69.1,90.69 69.2,90.59 C69.3,90.49 69.44,90.44 69.58,90.44 C69.72,90.43 69.85,90.49 69.95,90.58 C69.95,90.58 74.65,95.28 74.65,95.28 C74.65,95.28 74.65,95.87 74.65,95.87 C74.65,95.87 69.95,100.57 69.95,100.57 C69.9,100.62 69.84,100.66 69.78,100.69 C69.71,100.72 69.64,100.73 69.57,100.73 C69.5,100.73 69.43,100.72 69.37,100.69 C69.3,100.66 69.24,100.62 69.19,100.57 C69.09,100.47 69.04,100.33 69.04,100.19 C69.04,100.05 69.09,99.91 69.19,99.81 C69.19,99.81 72.89,96.11 72.89,96.11 C72.89,96.11 63.17,96.11 63.17,96.11 C63.03,96.11 62.89,96.06 62.79,95.96 C62.69,95.86 62.63,95.72 62.63,95.58 C62.63,95.43 62.69,95.3 62.79,95.2 C62.89,95.1 63.03,95.04 63.17,95.04z "/><path id="_R_G_L_8_G_D_9_P_0" fill="#cfcfd8" fill-opacity="1" fill-rule="nonzero" d=" M103.43 93.16 C103.43,93.16 107.19,93.16 107.19,93.16 C107.19,93.16 107.47,92.88 107.47,92.88 C107.47,92.88 107.47,89.12 107.47,89.12 C107.47,89.03 107.44,88.94 107.39,88.86 C107.34,88.78 107.26,88.72 107.18,88.68 C107.09,88.65 107,88.64 106.91,88.66 C106.81,88.68 106.73,88.72 106.66,88.79 C106.66,88.79 105.29,90.16 105.29,90.16 C104.08,89.06 102.51,88.45 100.88,88.46 C97.24,88.46 94.29,91.41 94.29,95.05 C94.29,98.68 97.24,101.64 100.88,101.64 C102.52,101.64 104.1,101.03 105.31,99.93 C106.53,98.83 107.29,97.32 107.44,95.68 C107.45,95.53 107.4,95.37 107.3,95.25 C107.21,95.13 107.06,95.06 106.91,95.04 C106.75,95.03 106.6,95.08 106.48,95.18 C106.36,95.27 106.28,95.42 106.27,95.57 C106.14,96.91 105.52,98.16 104.52,99.06 C103.52,99.96 102.22,100.46 100.88,100.46 C97.89,100.46 95.46,98.03 95.46,95.05 C95.46,92.06 97.89,89.63 100.88,89.63 C102.2,89.63 103.47,90.11 104.46,90.99 C104.46,90.99 103.09,92.36 103.09,92.36 C103.03,92.42 102.98,92.51 102.96,92.6 C102.95,92.69 102.96,92.79 102.99,92.87 C103.03,92.96 103.09,93.03 103.16,93.08 C103.24,93.13 103.33,93.16 103.43,93.16z "/></g><g id="_R_G_L_7_G"><path id="_R_G_L_7_G_D_0_P_0" fill="#fbfbfe" fill-opacity="1" fill-rule="nonzero" d=" M4 0.5 C4,0.5 103,0.5 103,0.5 C104.93,0.5 106.5,2.07 106.5,4 C106.5,4 106.5,20 106.5,20 C106.5,21.93 104.93,23.5 103,23.5 C103,23.5 4,23.5 4,23.5 C2.07,23.5 0.5,21.93 0.5,20 C0.5,20 0.5,4 0.5,4 C0.5,2.07 2.07,0.5 4,0.5z "/><path id="_R_G_L_7_G_D_1_P_0" stroke="#cfcfd8" stroke-linecap="round" stroke-linejoin="round" fill="none" stroke-width="1" stroke-opacity="1" d=" M4 0.5 C4,0.5 103,0.5 103,0.5 C104.93,0.5 106.5,2.07 106.5,4 C106.5,4 106.5,20 106.5,20 C106.5,21.93 104.93,23.5 103,23.5 C103,23.5 4,23.5 4,23.5 C2.07,23.5 0.5,21.93 0.5,20 C0.5,20 0.5,4 0.5,4 C0.5,2.07 2.07,0.5 4,0.5z "/><path id="_R_G_L_7_G_D_2_P_0" fill="#cfcfd8" fill-opacity="1" fill-rule="nonzero" d=" M14 6 C17.31,6 20,8.69 20,12 C20,15.31 17.31,18 14,18 C10.69,18 8,15.31 8,12 C8,8.69 10.69,6 14,6z "/><path id="_R_G_L_7_G_D_3_P_0" fill="#cfcfd8" fill-opacity="1" fill-rule="nonzero" d=" M30 10 C30,10 97,10 97,10 C98.1,10 99,10.9 99,12 C99,13.11 98.1,14 97,14 C97,14 30,14 30,14 C28.9,14 28,13.11 28,12 C28,10.9 28.9,10 30,10z "/></g><g id="_R_G_L_6_G"><path id="_R_G_L_6_G_D_0_P_0" fill="#ffffff" fill-opacity="1" fill-rule="nonzero" d=" M4 0.5 C4,0.5 103,0.5 103,0.5 C104.93,0.5 106.5,2.07 106.5,4 C106.5,4 106.5,20 106.5,20 C106.5,21.93 104.93,23.5 103,23.5 C103,23.5 4,23.5 4,23.5 C2.07,23.5 0.5,21.93 0.5,20 C0.5,20 0.5,4 0.5,4 C0.5,2.07 2.07,0.5 4,0.5z "/><path id="_R_G_L_6_G_D_1_P_0" stroke="#80808e" stroke-linecap="round" stroke-linejoin="round" fill="none" stroke-width="1" stroke-opacity="1" d=" M4 0.5 C4,0.5 103,0.5 103,0.5 C104.93,0.5 106.5,2.07 106.5,4 C106.5,4 106.5,20 106.5,20 C106.5,21.93 104.93,23.5 103,23.5 C103,23.5 4,23.5 4,23.5 C2.07,23.5 0.5,21.93 0.5,20 C0.5,20 0.5,4 0.5,4 C0.5,2.07 2.07,0.5 4,0.5z "/><path id="_R_G_L_6_G_D_2_P_0" fill="#80808e" fill-opacity="1" fill-rule="nonzero" d=" M14 6 C17.31,6 20,8.69 20,12 C20,15.31 17.31,18 14,18 C10.69,18 8,15.31 8,12 C8,8.69 10.69,6 14,6z "/><path id="_R_G_L_6_G_D_3_P_0" fill="#80808e" fill-opacity="1" fill-rule="nonzero" d=" M30 10 C30,10 97,10 97,10 C98.1,10 99,10.9 99,12 C99,13.11 98.1,14 97,14 C97,14 30,14 30,14 C28.9,14 28,13.11 28,12 C28,10.9 28.9,10 30,10z "/></g><g id="_R_G_L_5_G"><path id="_R_G_L_5_G_D_0_P_0" fill="#ffffff" fill-opacity="1" fill-rule="nonzero" d=" M4 0.5 C4,0.5 103,0.5 103,0.5 C104.93,0.5 106.5,2.07 106.5,4 C106.5,4 106.5,20 106.5,20 C106.5,21.93 104.93,23.5 103,23.5 C103,23.5 4,23.5 4,23.5 C2.07,23.5 0.5,21.93 0.5,20 C0.5,20 0.5,4 0.5,4 C0.5,2.07 2.07,0.5 4,0.5z "/><path id="_R_G_L_5_G_D_1_P_0" stroke="#80808e" stroke-linecap="round" stroke-linejoin="round" fill="none" stroke-width="1" stroke-opacity="1" d=" M4 0.5 C4,0.5 103,0.5 103,0.5 C104.93,0.5 106.5,2.07 106.5,4 C106.5,4 106.5,20 106.5,20 C106.5,21.93 104.93,23.5 103,23.5 C103,23.5 4,23.5 4,23.5 C2.07,23.5 0.5,21.93 0.5,20 C0.5,20 0.5,4 0.5,4 C0.5,2.07 2.07,0.5 4,0.5z "/><path id="_R_G_L_5_G_D_2_P_0" fill="#80808e" fill-opacity="1" fill-rule="nonzero" d=" M14 6 C17.31,6 20,8.69 20,12 C20,15.31 17.31,18 14,18 C10.69,18 8,15.31 8,12 C8,8.69 10.69,6 14,6z "/><path id="_R_G_L_5_G_D_3_P_0" fill="#80808e" fill-opacity="1" fill-rule="nonzero" d=" M30 10 C30,10 97,10 97,10 C98.1,10 99,10.9 99,12 C99,13.11 98.1,14 97,14 C97,14 30,14 30,14 C28.9,14 28,13.11 28,12 C28,10.9 28.9,10 30,10z "/></g><g id="_R_G_L_4_G" transform=" translate(147.5, 86) translate(0, 0)"><path id="_R_G_L_4_G_D_0_P_0" fill="#302f39" fill-opacity="1" fill-rule="nonzero" d="  "/><path id="_R_G_L_4_G_D_1_P_0" stroke="#ffffff" stroke-linecap="round" stroke-linejoin="round" fill="none" stroke-width="0" stroke-opacity="1" d="  "/></g><g id="_R_G_L_3_G" transform=" translate(70.75, 58.5) translate(-14, -9.5)"><path id="_R_G_L_3_G_D_0_P_0" fill="#8c39bc" fill-opacity="1" fill-rule="nonzero" d=" M4 0.05 C4,0.05 7.44,0.05 7.44,0.05 C9.65,0.05 11.44,1.84 11.44,4.05 C11.44,4.05 11.44,14.05 11.44,14.05 C11.44,16.26 9.65,18.05 7.44,18.05 C7.44,18.05 4,18.05 4,18.05 C1.79,18.05 0,16.26 0,14.05 C0,14.05 0,4.05 0,4.05 C0,1.84 1.79,0.05 4,0.05z "/></g><g id="_R_G_L_2_G" transform=" translate(56.828, 75.938)"><path id="_R_G_L_2_G_D_0_P_0" fill="#8c39bc" fill-opacity="1" fill-rule="nonzero" d=" M157.92 -9.75 C157.92,-9.75 157.92,-9.75 157.92,-9.75 C157.92,-9.19 157.47,-8.75 156.92,-8.75 C156.92,-8.75 -79.08,-8.75 -79.08,-8.75 C-79.63,-8.75 -80.08,-9.19 -80.08,-9.75 C-80.08,-9.75 -80.08,-9.75 -80.08,-9.75 C-80.08,-10.3 -79.63,-10.75 -79.08,-10.75 C-79.08,-10.75 156.92,-10.75 156.92,-10.75 C157.47,-10.75 157.92,-10.3 157.92,-9.75z "/><path id="_R_G_L_2_G_D_1_P_0" stroke="#ffffff" stroke-linecap="round" stroke-linejoin="round" fill="none" stroke-width="0" stroke-opacity="1" d=" M157.92 -9.75 C157.92,-9.75 157.92,-9.75 157.92,-9.75 C157.92,-9.19 157.47,-8.75 156.92,-8.75 C156.92,-8.75 -79.08,-8.75 -79.08,-8.75 C-79.63,-8.75 -80.08,-9.19 -80.08,-9.75 C-80.08,-9.75 -80.08,-9.75 -80.08,-9.75 C-80.08,-10.3 -79.63,-10.75 -79.08,-10.75 C-79.08,-10.75 156.92,-10.75 156.92,-10.75 C157.47,-10.75 157.92,-10.3 157.92,-9.75z "/></g><g id="_R_G_L_1_G"><path id="_R_G_L_1_G_D_0_P_0" fill="#ffffff" fill-opacity="1" fill-rule="nonzero" d=" M4.88 17.19 C4.88,17.19 8.18,13.98 8.18,13.98 C8.18,13.98 10.49,19.45 10.49,19.45 C10.49,19.45 14.19,17.88 14.19,17.88 C14.19,17.88 12.04,12.69 12.04,12.69 C12.04,12.69 16.76,12.69 16.76,12.69 C16.76,12.69 4.88,0.78 4.88,0.78 C4.88,0.78 4.88,17.19 4.88,17.19z "/><path id="_R_G_L_1_G_D_1_P_0" fill="#000000" fill-opacity="1" fill-rule="nonzero" d=" M5.9 14.71 C5.9,14.71 5.9,3.24 5.9,3.24 C5.9,3.24 14.27,11.63 14.27,11.63 C14.27,11.63 10.48,11.63 10.48,11.63 C10.48,11.63 12.82,17.18 12.82,17.18 C12.82,17.18 10.93,17.98 10.93,17.98 C10.93,17.98 8.5,12.2 8.5,12.2 C8.5,12.2 5.9,14.71 5.9,14.71z "/></g><g id="_R_G_L_0_G" transform=" translate(300.621, 149.372) translate(0, 0)"><path id="_R_G_L_0_G_D_0_P_0" stroke="#cfcfd8" stroke-linecap="round" stroke-linejoin="round" fill="none" stroke-width="1" stroke-opacity="1" d=" M-0.62 -149.37 C-0.62,-149.37 -0.62,22.63 -0.62,22.63 C-0.62,22.63 -300.62,22.63 -300.62,22.63 C-300.62,22.63 -300.62,-149.37 -300.62,-149.37 C-300.62,-149.37 -0.62,-149.37 -0.62,-149.37z "/></g></g><g id="time_group"/></svg>
