<!-- This Source Code Form is subject to the terms of the Mozilla Public
   - License, v. 2.0. If a copy of the MPL was not distributed with this
   - file, You can obtain one at http://mozilla.org/MPL/2.0/. -->
<svg xmlns="http://www.w3.org/2000/svg" xmlns:xlink="http://www.w3.org/1999/xlink" preserveAspectRatio="xMidYMid meet" width="300" height="172" viewBox="0 0 300 172" style="width:100%;height:100%"><defs><animateMotion repeatCount="indefinite" dur="5.5722389s" begin="0s" xlink:href="#_R_G_L_7_G" fill="freeze" keyTimes="0;0.4910179;0.5508982;1" path="M138.5 168 C138.5,168 138.5,168 138.5,168 C138.5,168 138.5,193 138.5,193 C138.5,193 138.5,193 138.5,193 " keyPoints="0;0;1;1" keySplines="0.167 0.167 0.667 1;0.167 0.167 0.667 1;0 0 0 0" calcMode="spline"/><animateTransform repeatCount="indefinite" dur="5.5722389s" begin="0s" xlink:href="#_R_G_L_7_G" fill="freeze" attributeName="transform" from="-77.5 -12.5" to="-77.5 -12.5" type="translate" additive="sum" keyTimes="0;1" values="-77.5 -12.5;-77.5 -12.5" keySplines="0 0 1 1" calcMode="spline"/><animateMotion repeatCount="indefinite" dur="5.5722389s" begin="0s" xlink:href="#_R_G_L_6_G" fill="freeze" keyTimes="0;0.4910179;0.5508982;1" path="M138.5 140 C138.5,140 138.5,140 138.5,140 C138.5,140 138.5,165 138.5,165 C138.5,165 138.5,165 138.5,165 " keyPoints="0;0;1;1" keySplines="0.167 0.167 0.667 1;0.167 0.167 0.667 1;0 0 0 0" calcMode="spline"/><animateTransform repeatCount="indefinite" dur="5.5722389s" begin="0s" xlink:href="#_R_G_L_6_G" fill="freeze" attributeName="transform" from="-77.5 -12.5" to="-77.5 -12.5" type="translate" additive="sum" keyTimes="0;1" values="-77.5 -12.5;-77.5 -12.5" keySplines="0 0 1 1" calcMode="spline"/><animate repeatCount="indefinite" dur="5.5722389s" begin="0s" xlink:href="#_R_G_L_5_G_D_0_P_0" fill="freeze" attributeName="fill" from="#42414d" to="#42414d" keyTimes="0;0.3772455;0.4071856;0.4910179;0.5508982;1" values="#42414d;#42414d;#8c39bc;#8c39bc;#42414d;#42414d" keySplines="0.167 0.167 0.833 0.833;0.167 0.167 0.833 0.833;0.167 0.167 0.833 0.833;0.167 0.167 0.833 0.833;0 0 0 0" calcMode="spline"/><animate repeatCount="indefinite" dur="5.5722389s" begin="0s" xlink:href="#_R_G_L_5_G_D_1_P_0" fill="freeze" attributeName="stroke" from="#80808e" to="#80808e" keyTimes="0;0.3772455;0.4071856;1" values="#80808e;#80808e;#c188ea;#c188ea" keySplines="0.167 0.167 0.833 0.833;0.167 0.167 0.833 0.833;0 0 0 0" calcMode="spline"/><animate repeatCount="indefinite" dur="5.5722389s" begin="0s" xlink:href="#_R_G_L_5_G_D_1_P_0" fill="freeze" attributeName="stroke-width" from="1" to="1.5" keyTimes="0;0.4071856;0.5508982;1" values="1;1;1.5;1.5" keySplines="0.167 0.167 0.833 0.833;0.167 0.167 0.833 0.833;0 0 0 0" calcMode="spline"/><animate repeatCount="indefinite" dur="5.5722389s" begin="0s" xlink:href="#_R_G_L_5_G_D_2_P_0" fill="freeze" attributeName="fill" from="#80808e" to="#80808e" keyTimes="0;0.3772455;0.4071856;1" values="#80808e;#80808e;#c188ea;#c188ea" keySplines="0.167 0.167 0.833 0.833;0.167 0.167 0.833 0.833;0 0 0 0" calcMode="spline"/><animate repeatCount="indefinite" dur="5.5722389s" begin="0s" xlink:href="#_R_G_L_5_G_D_3_P_0" fill="freeze" attributeName="fill" from="#80808e" to="#80808e" keyTimes="0;0.3772455;0.4071856;1" values="#80808e;#80808e;#c188ea;#c188ea" keySplines="0.167 0.167 0.833 0.833;0.167 0.167 0.833 0.833;0 0 0 0" calcMode="spline"/><animateMotion repeatCount="indefinite" dur="5.5722389s" begin="0s" xlink:href="#_R_G_L_5_G" fill="freeze" keyTimes="0;0.3413174;0.4910179;0.5508982;1" path="M138.5 84 C138.5,84 138.5,84 138.5,84 C138.5,84 138.5,84 138.5,84 C138.5,84 138.5,109 138.5,109 C138.5,109 138.5,109 138.5,109 " keyPoints="0;0;0;1;1" keySplines="0.167 0.167 0.667 0.667;0.167 0.167 0.667 0.667;0.167 0.167 0.667 1;0 0 0 0" calcMode="spline"/><animateTransform repeatCount="indefinite" dur="5.5722389s" begin="0s" xlink:href="#_R_G_L_5_G" fill="freeze" attributeName="transform" from="-77.5 -12" to="-77.5 -12" type="translate" additive="sum" keyTimes="0;1" values="-77.5 -12;-77.5 -12" keySplines="0 0 1 1" calcMode="spline"/><animate repeatCount="indefinite" dur="5.5722389s" begin="0s" xlink:href="#_R_G_L_4_G_D_1_P_0" fill="freeze" attributeName="stroke" from="#80808e" to="#80808e" keyTimes="0;0.3772455;0.4071856;1" values="#80808e;#80808e;#c188ea;#c188ea" keySplines="0.167 0.167 0.833 0.833;0.167 0.167 0.833 0.833;0 0 0 0" calcMode="spline"/><animate repeatCount="indefinite" dur="5.5722389s" begin="0s" xlink:href="#_R_G_L_4_G_D_1_P_0" fill="freeze" attributeName="stroke-width" from="1" to="1.5" keyTimes="0;0.3772455;0.4071856;1" values="1;1;1.5;1.5" keySplines="0.167 0.167 0.833 0.833;0.167 0.167 0.833 0.833;0 0 0 0" calcMode="spline"/><animate repeatCount="indefinite" dur="5.5722389s" begin="0s" xlink:href="#_R_G_L_4_G_D_2_P_0" fill="freeze" attributeName="fill" from="#80808e" to="#80808e" keyTimes="0;0.3772455;0.4071856;1" values="#80808e;#80808e;#c188ea;#c188ea" keySplines="0.167 0.167 0.833 0.833;0.167 0.167 0.833 0.833;0 0 0 0" calcMode="spline"/><animate repeatCount="indefinite" dur="5.5722389s" begin="0s" xlink:href="#_R_G_L_4_G_D_3_P_0" fill="freeze" attributeName="fill" from="#80808e" to="#80808e" keyTimes="0;0.3772455;0.4071856;1" values="#80808e;#80808e;#c188ea;#c188ea" keySplines="0.167 0.167 0.833 0.833;0.167 0.167 0.833 0.833;0 0 0 0" calcMode="spline"/><animateMotion repeatCount="indefinite" dur="5.5722389s" begin="0s" xlink:href="#_R_G_L_4_G" fill="freeze" keyTimes="0;0.3413174;0.4251497;0.4910179;0.5508982;1" path="M138.5 112 C138.5,112 138.5,112 138.5,112 C138.5,112 138.5,97 138.5,97 C138.5,97 138.5,97 138.5,97 C138.5,97 138.5,137 138.5,137 C138.5,137 138.5,137 138.5,137 " keyPoints="0;0;0.27;0.27;1;1" keySplines="0.333 0 0.667 1;0.333 0 0.667 1;0.167 0.167 0.667 0.667;0.167 0.167 0.667 1;0 0 0 0" calcMode="spline"/><animateTransform repeatCount="indefinite" dur="5.5722389s" begin="0s" xlink:href="#_R_G_L_4_G" fill="freeze" attributeName="transform" from="-77.5 -12" to="-77.5 -12" type="translate" additive="sum" keyTimes="0;1" values="-77.5 -12;-77.5 -12" keySplines="0 0 1 1" calcMode="spline"/><animateMotion repeatCount="indefinite" dur="5.5722389s" begin="0s" xlink:href="#_R_G_L_3_G" fill="freeze" keyTimes="0;0.1197605;0.257485;0.3413174;0.4251497;0.491012;0.5628721;1" path="M177.5 159.25 C177.5,159.25 177.5,159.25 177.5,159.25 C152.13,158.5 152.5,124.5 152.5,124.5 C152.5,124.5 152.5,124.5 152.5,124.5 C152.5,124.5 152.5,109.5 152.5,109.5 C152.5,109.5 152.5,109.5 152.5,109.5 C152.5,109.5 147.38,157.88 177.5,159.25 C177.5,159.25 177.5,159.25 177.5,159.25 " keyPoints="0;0;0.38;0.38;0.5;0.5;1;1" keySplines="0.167 0.167 0.667 1;0.167 0.167 0.667 1;0.333 0.333 0.667 0.667;0.333 0 0.667 1;0.167 0.167 0.667 0.667;0.167 0.167 0.667 1;0 0 0 0" calcMode="spline"/><animateTransform repeatCount="indefinite" dur="5.5722389s" begin="0s" xlink:href="#_R_G_L_3_G" fill="freeze" attributeName="transform" from="-10.5 -10.5" to="-10.5 -10.5" type="translate" additive="sum" keyTimes="0;1" values="-10.5 -10.5;-10.5 -10.5" keySplines="0 0 1 1" calcMode="spline"/><animate repeatCount="indefinite" dur="5.5722389s" begin="0s" xlink:href="#_R_G_L_2_G" fill="freeze" attributeName="opacity" from="0" to="1" keyTimes="0;0.4910179;0.5508982;1" values="0;0;1;1" keySplines="0.167 0.167 0.667 1;0.167 0.167 0.667 1;0 0 0 0" calcMode="spline"/><animateTransform repeatCount="indefinite" dur="5.5722389s" begin="0s" xlink:href="#_R_G_L_2_G" fill="freeze" attributeName="transform" from="1 0.28" to="1 1.26" type="scale" additive="sum" keyTimes="0;0.4910179;0.5508982;1" values="1 0.28;1 0.28;1 1.26;1 1.26" keySplines="0.167 0 0.667 1;0.167 0 0.667 1;0 0 0 0" calcMode="spline"/><animateTransform repeatCount="indefinite" dur="5.5722389s" begin="0s" xlink:href="#_R_G_L_2_G" fill="freeze" attributeName="transform" from="-1.5 -0.163" to="-1.5 -0.163" type="translate" additive="sum" keyTimes="0;1" values="-1.5 -0.163;-1.5 -0.163" keySplines="0 0 1 1" calcMode="spline"/><animate repeatCount="indefinite" dur="5.5722389s" begin="0s" xlink:href="#_R_G_L_1_G" fill="freeze" attributeName="opacity" from="0" to="1" keyTimes="0;0.4910179;0.5508982;1" values="0;0;1;1" keySplines="0.167 0.167 0.667 1;0.167 0.167 0.667 1;0 0 0 0" calcMode="spline"/><animateTransform repeatCount="indefinite" dur="5.5722389s" begin="0s" xlink:href="#_R_G_L_1_G" fill="freeze" attributeName="transform" from="1 0.1" to="1 1" type="scale" additive="sum" keyTimes="0;0.4910179;0.5508982;1" values="1 0.1;1 0.1;1 1;1 1" keySplines="0.167 0 0.667 1;0.167 0 0.667 1;0 0 0 0" calcMode="spline"/><animateTransform repeatCount="indefinite" dur="5.5722389s" begin="0s" xlink:href="#_R_G_L_1_G" fill="freeze" attributeName="transform" from="-14.125 -0.125" to="-14.125 -0.125" type="translate" additive="sum" keyTimes="0;1" values="-14.125 -0.125;-14.125 -0.125" keySplines="0 0 1 1" calcMode="spline"/><animate attributeType="XML" attributeName="opacity" dur="6s" from="0" to="1" xlink:href="#time_group"/></defs><g id="_R_G"><g id="_R_G_L_9_G"><rect id="_R_G_L_9_G_S" fill="#726795" width="300" height="172"/></g><g id="_R_G_L_8_G" transform=" translate(173.5, 104.5) translate(-126.5, -67.5)"><path id="_R_G_L_8_G_D_0_P_0" fill="#32313c" fill-opacity="1" fill-rule="nonzero" d=" M0 6.33 C0,2.84 2.83,0 6.33,0 C6.33,0 277.28,0 277.28,0 C277.28,0 277.28,383 277.28,383 C277.28,383 0,383 0,383 C0,383 0,6.33 0,6.33z "/><path id="_R_G_L_8_G_D_1_P_0" fill="#52525e" fill-opacity="1" fill-rule="nonzero" d=" M20.88 17.33 C20.88,17.33 11.91,17.33 11.91,17.33 C11.91,17.33 15.32,13.92 15.32,13.92 C15.41,13.83 15.46,13.7 15.46,13.57 C15.46,13.44 15.4,13.32 15.31,13.23 C15.22,13.14 15.1,13.09 14.97,13.08 C14.84,13.08 14.72,13.13 14.62,13.22 C14.62,13.22 10.29,17.55 10.29,17.55 C10.29,17.55 10.29,18.1 10.29,18.1 C10.29,18.1 14.62,22.43 14.62,22.43 C14.67,22.48 14.72,22.51 14.78,22.54 C14.84,22.56 14.91,22.58 14.97,22.58 C15.04,22.58 15.1,22.56 15.16,22.54 C15.22,22.51 15.28,22.48 15.32,22.43 C15.41,22.34 15.47,22.21 15.47,22.08 C15.47,21.95 15.41,21.82 15.32,21.73 C15.32,21.73 11.91,18.32 11.91,18.32 C11.91,18.32 20.88,18.32 20.88,18.32 C21.01,18.32 21.14,18.27 21.23,18.18 C21.32,18.08 21.37,17.96 21.37,17.83 C21.37,17.69 21.32,17.57 21.23,17.48 C21.14,17.38 21.01,17.33 20.88,17.33z "/><path id="_R_G_L_8_G_D_2_P_0" fill="#52525e" fill-opacity="1" fill-rule="nonzero" d=" M39.28 17.33 C39.28,17.33 48.25,17.33 48.25,17.33 C48.25,17.33 44.84,13.92 44.84,13.92 C44.75,13.83 44.7,13.7 44.7,13.57 C44.7,13.44 44.76,13.32 44.85,13.23 C44.94,13.14 45.06,13.09 45.19,13.08 C45.32,13.08 45.45,13.13 45.54,13.22 C45.54,13.22 49.87,17.55 49.87,17.55 C49.87,17.55 49.87,18.1 49.87,18.1 C49.87,18.1 45.54,22.43 45.54,22.43 C45.49,22.48 45.44,22.51 45.38,22.54 C45.32,22.56 45.25,22.58 45.19,22.58 C45.12,22.58 45.06,22.56 45,22.54 C44.94,22.51 44.88,22.48 44.84,22.43 C44.75,22.34 44.69,22.21 44.69,22.08 C44.69,21.95 44.75,21.82 44.84,21.73 C44.84,21.73 48.25,18.32 48.25,18.32 C48.25,18.32 39.28,18.32 39.28,18.32 C39.15,18.32 39.03,18.27 38.93,18.18 C38.84,18.08 38.79,17.96 38.79,17.83 C38.79,17.69 38.84,17.57 38.93,17.48 C39.03,17.38 39.15,17.33 39.28,17.33z "/><path id="_R_G_L_8_G_D_3_P_0" fill="#52525e" fill-opacity="1" fill-rule="nonzero" d=" M74.97 15.75 C74.97,15.75 78.13,15.75 78.13,15.75 C78.13,15.75 78.37,15.51 78.37,15.51 C78.37,15.51 78.37,12.35 78.37,12.35 C78.37,12.27 78.34,12.19 78.3,12.13 C78.26,12.06 78.2,12.01 78.12,11.98 C78.05,11.95 77.97,11.95 77.89,11.96 C77.82,11.98 77.75,12.01 77.69,12.07 C77.69,12.07 76.54,13.22 76.54,13.22 C75.52,12.3 74.2,11.79 72.83,11.79 C69.77,11.79 67.28,14.28 67.28,17.33 C67.28,20.38 69.77,22.87 72.83,22.87 C74.2,22.88 75.53,22.37 76.56,21.44 C77.58,20.51 78.21,19.24 78.34,17.87 C78.35,17.74 78.31,17.61 78.23,17.51 C78.15,17.4 78.03,17.34 77.9,17.33 C77.77,17.32 77.64,17.36 77.54,17.44 C77.44,17.52 77.37,17.64 77.36,17.77 C77.25,18.9 76.73,19.95 75.89,20.71 C75.05,21.47 73.96,21.89 72.83,21.88 C70.32,21.88 68.27,19.84 68.27,17.33 C68.27,14.82 70.32,12.78 72.83,12.78 C73.94,12.78 75.01,13.18 75.84,13.92 C75.84,13.92 74.69,15.07 74.69,15.07 C74.63,15.13 74.6,15.2 74.58,15.27 C74.57,15.35 74.57,15.43 74.6,15.5 C74.63,15.58 74.68,15.64 74.75,15.68 C74.81,15.72 74.89,15.75 74.97,15.75z "/><path id="_R_G_L_8_G_D_4_P_0" fill="#42414d" fill-opacity="1" fill-rule="nonzero" d=" M178.32 8.33 C178.32,6.12 180.11,4.33 182.32,4.33 C182.32,4.33 275.37,4.33 275.37,4.33 C275.37,4.33 275.37,30.33 275.37,30.33 C275.37,30.33 182.32,30.33 182.32,30.33 C180.11,30.33 178.32,28.54 178.32,26.33 C178.32,26.33 178.32,8.33 178.32,8.33z "/><path id="_R_G_L_8_G_D_5_P_0" fill="#484753" fill-opacity="1" fill-rule="nonzero" d=" M182 34.32 C182,34.32 272.78,34.32 272.78,34.32 C274.99,34.32 276.78,36.11 276.78,38.32 C276.78,38.32 276.78,378.66 276.78,378.66 C276.78,380.87 274.99,382.66 272.78,382.66 C272.78,382.66 182,382.66 182,382.66 C179.79,382.66 178,380.87 178,378.66 C178,378.66 178,38.32 178,38.32 C178,36.11 179.79,34.32 182,34.32z "/><path id="_R_G_L_8_G_D_6_P_0" fill="#42414d" fill-opacity="1" fill-rule="nonzero" d=" M178 38.32 C178,36.11 179.79,34.32 182,34.32 C182,34.32 276.78,34.32 276.78,34.32 C276.78,34.32 276.78,382.66 276.78,382.66 C276.78,382.66 178,382.66 178,382.66 C178,382.66 178,38.32 178,38.32z "/></g><g id="_R_G_L_7_G"><path id="_R_G_L_7_G_D_0_P_0" fill="#42414d" fill-opacity="1" fill-rule="nonzero" d=" M4 1.16 C4,1.16 151,1.16 151,1.16 C152.93,1.16 154.5,2.73 154.5,4.66 C154.5,4.66 154.5,20.66 154.5,20.66 C154.5,22.59 152.93,24.16 151,24.16 C151,24.16 4,24.16 4,24.16 C2.07,24.16 0.5,22.59 0.5,20.66 C0.5,20.66 0.5,4.66 0.5,4.66 C0.5,2.73 2.07,1.16 4,1.16z "/><path id="_R_G_L_7_G_D_1_P_0" stroke="#5b5b66" stroke-linecap="round" stroke-linejoin="round" fill="none" stroke-width="1" stroke-opacity="1" d=" M4 1.16 C4,1.16 151,1.16 151,1.16 C152.93,1.16 154.5,2.73 154.5,4.66 C154.5,4.66 154.5,20.66 154.5,20.66 C154.5,22.59 152.93,24.16 151,24.16 C151,24.16 4,24.16 4,24.16 C2.07,24.16 0.5,22.59 0.5,20.66 C0.5,20.66 0.5,4.66 0.5,4.66 C0.5,2.73 2.07,1.16 4,1.16z "/><path id="_R_G_L_7_G_D_2_P_0" fill="#5b5b66" fill-opacity="1" fill-rule="nonzero" d=" M14 6.66 C17.31,6.66 20,9.35 20,12.66 C20,15.98 17.31,18.66 14,18.66 C10.69,18.66 8,15.98 8,12.66 C8,9.35 10.69,6.66 14,6.66z "/><path id="_R_G_L_7_G_D_3_P_0" fill="#5b5b66" fill-opacity="1" fill-rule="nonzero" d=" M30 10.66 C30,10.66 145,10.66 145,10.66 C146.1,10.66 147,11.56 147,12.66 C147,13.77 146.1,14.66 145,14.66 C145,14.66 30,14.66 30,14.66 C28.9,14.66 28,13.77 28,12.66 C28,11.56 28.9,10.66 30,10.66z "/></g><g id="_R_G_L_6_G"><path id="_R_G_L_6_G_D_0_P_0" fill="#42414d" fill-opacity="1" fill-rule="nonzero" d=" M4 1.16 C4,1.16 151,1.16 151,1.16 C152.93,1.16 154.5,2.73 154.5,4.66 C154.5,4.66 154.5,20.66 154.5,20.66 C154.5,22.59 152.93,24.16 151,24.16 C151,24.16 4,24.16 4,24.16 C2.07,24.16 0.5,22.59 0.5,20.66 C0.5,20.66 0.5,4.66 0.5,4.66 C0.5,2.73 2.07,1.16 4,1.16z "/><path id="_R_G_L_6_G_D_1_P_0" stroke="#5b5b66" stroke-linecap="round" stroke-linejoin="round" fill="none" stroke-width="1" stroke-opacity="1" d=" M4 1.16 C4,1.16 151,1.16 151,1.16 C152.93,1.16 154.5,2.73 154.5,4.66 C154.5,4.66 154.5,20.66 154.5,20.66 C154.5,22.59 152.93,24.16 151,24.16 C151,24.16 4,24.16 4,24.16 C2.07,24.16 0.5,22.59 0.5,20.66 C0.5,20.66 0.5,4.66 0.5,4.66 C0.5,2.73 2.07,1.16 4,1.16z "/><path id="_R_G_L_6_G_D_2_P_0" fill="#5b5b66" fill-opacity="1" fill-rule="nonzero" d=" M14 6.66 C17.31,6.66 20,9.35 20,12.66 C20,15.98 17.31,18.66 14,18.66 C10.69,18.66 8,15.98 8,12.66 C8,9.35 10.69,6.66 14,6.66z "/><path id="_R_G_L_6_G_D_3_P_0" fill="#5b5b66" fill-opacity="1" fill-rule="nonzero" d=" M30 10.66 C30,10.66 145,10.66 145,10.66 C146.1,10.66 147,11.56 147,12.66 C147,13.77 146.1,14.66 145,14.66 C145,14.66 30,14.66 30,14.66 C28.9,14.66 28,13.77 28,12.66 C28,11.56 28.9,10.66 30,10.66z "/></g><g id="_R_G_L_5_G"><path id="_R_G_L_5_G_D_0_P_0" fill="#42414d" fill-opacity="1" fill-rule="nonzero" d=" M4 0.5 C4,0.5 151,0.5 151,0.5 C152.93,0.5 154.5,2.07 154.5,4 C154.5,4 154.5,20 154.5,20 C154.5,21.93 152.93,23.5 151,23.5 C151,23.5 4,23.5 4,23.5 C2.07,23.5 0.5,21.93 0.5,20 C0.5,20 0.5,4 0.5,4 C0.5,2.07 2.07,0.5 4,0.5z "/><path id="_R_G_L_5_G_D_1_P_0" stroke="#80808e" stroke-linecap="round" stroke-linejoin="round" fill="none" stroke-width="1" stroke-opacity="1" d=" M4 0.5 C4,0.5 151,0.5 151,0.5 C152.93,0.5 154.5,2.07 154.5,4 C154.5,4 154.5,20 154.5,20 C154.5,21.93 152.93,23.5 151,23.5 C151,23.5 4,23.5 4,23.5 C2.07,23.5 0.5,21.93 0.5,20 C0.5,20 0.5,4 0.5,4 C0.5,2.07 2.07,0.5 4,0.5z "/><path id="_R_G_L_5_G_D_2_P_0" fill="#80808e" fill-opacity="1" fill-rule="nonzero" d=" M14 6 C17.31,6 20,8.69 20,12 C20,15.31 17.31,18 14,18 C10.69,18 8,15.31 8,12 C8,8.69 10.69,6 14,6z "/><path id="_R_G_L_5_G_D_3_P_0" fill="#80808e" fill-opacity="1" fill-rule="nonzero" d=" M30 10 C30,10 145,10 145,10 C146.1,10 147,10.9 147,12 C147,13.11 146.1,14 145,14 C145,14 30,14 30,14 C28.9,14 28,13.11 28,12 C28,10.9 28.9,10 30,10z "/></g><g id="_R_G_L_4_G"><path id="_R_G_L_4_G_D_0_P_0" fill="#42414d" fill-opacity="1" fill-rule="nonzero" d=" M4 0.5 C4,0.5 151,0.5 151,0.5 C152.93,0.5 154.5,2.07 154.5,4 C154.5,4 154.5,20 154.5,20 C154.5,21.93 152.93,23.5 151,23.5 C151,23.5 4,23.5 4,23.5 C2.07,23.5 0.5,21.93 0.5,20 C0.5,20 0.5,4 0.5,4 C0.5,2.07 2.07,0.5 4,0.5z "/><path id="_R_G_L_4_G_D_1_P_0" stroke="#80808e" stroke-linecap="round" stroke-linejoin="round" fill="none" stroke-width="1" stroke-opacity="1" d=" M4 0.5 C4,0.5 151,0.5 151,0.5 C152.93,0.5 154.5,2.07 154.5,4 C154.5,4 154.5,20 154.5,20 C154.5,21.93 152.93,23.5 151,23.5 C151,23.5 4,23.5 4,23.5 C2.07,23.5 0.5,21.93 0.5,20 C0.5,20 0.5,4 0.5,4 C0.5,2.07 2.07,0.5 4,0.5z "/><path id="_R_G_L_4_G_D_2_P_0" fill="#80808e" fill-opacity="1" fill-rule="nonzero" d=" M14 6 C17.31,6 20,8.69 20,12 C20,15.31 17.31,18 14,18 C10.69,18 8,15.31 8,12 C8,8.69 10.69,6 14,6z "/><path id="_R_G_L_4_G_D_3_P_0" fill="#80808e" fill-opacity="1" fill-rule="nonzero" d=" M30 10 C30,10 145,10 145,10 C146.1,10 147,10.9 147,12 C147,13.11 146.1,14 145,14 C145,14 30,14 30,14 C28.9,14 28,13.11 28,12 C28,10.9 28.9,10 30,10z "/></g><g id="_R_G_L_3_G"><path id="_R_G_L_3_G_D_0_P_0" fill="#ffffff" fill-opacity="1" fill-rule="nonzero" d=" M4.88 17.19 C4.88,17.19 8.18,13.98 8.18,13.98 C8.18,13.98 10.49,19.45 10.49,19.45 C10.49,19.45 14.19,17.88 14.19,17.88 C14.19,17.88 12.04,12.69 12.04,12.69 C12.04,12.69 16.76,12.69 16.76,12.69 C16.76,12.69 4.88,0.78 4.88,0.78 C4.88,0.78 4.88,17.19 4.88,17.19z "/><path id="_R_G_L_3_G_D_1_P_0" fill="#000000" fill-opacity="1" fill-rule="nonzero" d=" M5.9 14.71 C5.9,14.71 5.9,3.24 5.9,3.24 C5.9,3.24 14.27,11.63 14.27,11.63 C14.27,11.63 10.48,11.63 10.48,11.63 C10.48,11.63 12.82,17.18 12.82,17.18 C12.82,17.18 10.93,17.98 10.93,17.98 C10.93,17.98 8.5,12.2 8.5,12.2 C8.5,12.2 5.9,14.71 5.9,14.71z "/></g><g id="_R_G_L_2_G" transform=" translate(56.5, 97.375)"><path id="_R_G_L_2_G_D_0_P_0" stroke="#c188ea" stroke-linecap="round" stroke-linejoin="round" fill="none" stroke-width="2" stroke-opacity="1" d=" M1 40 C1,40 1,1 1,1 "/></g><g id="_R_G_L_1_G" transform=" translate(69.125, 72.125)"><path id="_R_G_L_1_G_D_0_P_0" fill="#c188ea" fill-opacity="1" fill-rule="nonzero" d=" M4 0 C4,0 24,0 24,0 C26.21,0 28,1.79 28,4 C28,4 28,14 28,14 C28,16.21 26.21,18 24,18 C24,18 4,18 4,18 C1.79,18 0,16.21 0,14 C0,14 0,4 0,4 C0,1.79 1.79,0 4,0z "/></g><g id="_R_G_L_0_G" transform=" translate(300.621, 149.372) translate(0, 0)"><path id="_R_G_L_0_G_D_0_P_0" stroke="#52525e" stroke-linecap="round" stroke-linejoin="round" fill="none" stroke-width="1" stroke-opacity="1" d=" M-0.62 -149.37 C-0.62,-149.37 -0.62,22.63 -0.62,22.63 C-0.62,22.63 -300.62,22.63 -300.62,22.63 C-300.62,22.63 -300.62,-149.37 -300.62,-149.37 C-300.62,-149.37 -0.62,-149.37 -0.62,-149.37z "/></g></g><g id="time_group"/></svg>
