<!-- This Source Code Form is subject to the terms of the Mozilla Public
   - License, v. 2.0. If a copy of the MPL was not distributed with this
   - file, You can obtain one at http://mozilla.org/MPL/2.0/. -->
<svg xmlns="http://www.w3.org/2000/svg" width="300" height="172" fill="none"><g clip-path="url(#a)"><path fill="#fff" d="M0 0h300v172H0z"/><path fill="#fff" d="M0 0h300v514.13H0z"/><path fill="#EAE1FF" d="M0 0h300v514.13H0z"/><g filter="url(#b)"><g clip-path="url(#c)"><path fill="#F0F0F4" d="M47 43.333A6.333 6.333 0 0 1 53.333 37h270.952v383H47z"/><g clip-path="url(#d)"><path fill="#CFCFD8" d="M67.877 54.33h-8.966l3.41-3.41a.495.495 0 0 0-.7-.7l-4.331 4.333v.545l4.332 4.333a.49.49 0 0 0 .7 0 .497.497 0 0 0 0-.701l-3.41-3.41h8.965a.494.494 0 1 0 0-.99M86.282 54.33h8.966l-3.41-3.41a.496.496 0 0 1 .7-.7l4.331 4.333v.545l-4.331 4.333a.49.49 0 0 1-.7 0 .497.497 0 0 1 0-.701l3.41-3.41h-8.966a.495.495 0 1 1 0-.99M121.968 52.747h3.161l.237-.237v-3.161a.4.4 0 0 0-.066-.22.4.4 0 0 0-.407-.169.4.4 0 0 0-.203.109l-1.155 1.155a5.5 5.5 0 0 0-3.71-1.435 5.55 5.55 0 0 0-5.541 5.541 5.55 5.55 0 0 0 5.541 5.541 5.517 5.517 0 0 0 5.516-5.004.5.5 0 0 0-.445-.54.503.503 0 0 0-.54.445 4.53 4.53 0 0 1-4.531 4.11 4.556 4.556 0 0 1-4.551-4.552 4.556 4.556 0 0 1 4.551-4.551 4.52 4.52 0 0 1 3.012 1.144l-1.148 1.148a.398.398 0 0 0 .059.61.4.4 0 0 0 .22.066"/><path fill="#FBFBFE" d="M225.32 45.333a4 4 0 0 1 4-4h93.05v25.995h-93.05a4 4 0 0 1-4-4z"/></g><path fill="#FBFBFE" d="M225 75.321a4 4 0 0 1 4-4h94.783v348.34H225z"/><rect width="154" height="23" x="62.5" y="143.161" fill="#FBFBFE" stroke="#CFCFD8" rx="3.5"/><circle cx="76" cy="154.661" r="6" fill="#CFCFD8"/><rect width="119" height="4" x="90" y="152.661" fill="#CFCFD8" rx="2"/></g></g><rect width="28" height="18" x="55" y="72" fill="#8C39BC" rx="4"/><path stroke="#5B5B66" stroke-linecap="round" stroke-linejoin="round" stroke-width="2" d="m25.792 104.959-7.175 3.95m7.175-3.95 3.332 8.211m-3.332-8.211c-3.097 7.767-5.215 18.585-5.006 29.333.11 5.672.868 11.325 2.473 16.5"/><rect width="154" height="23" x="62.5" y="97.5" fill="#FBF6FF" stroke="#8C39BC" rx="3.5"/><circle cx="76" cy="109" r="6" fill="#8C39BC"/><rect width="119" height="4" x="90" y="107" fill="#8C39BC" rx="2"/><g filter="url(#e)"><rect width="153.5" height="22.5" x="66.75" y="114.75" fill="#fff" stroke="#8C39BC" stroke-width="1.5" rx="3.25"/><circle cx="80" cy="126" r="6" fill="#8C39BC"/><rect width="119" height="4" x="94" y="124" fill="#8C39BC" rx="2"/></g><path stroke="#8C39BC" stroke-linecap="round" stroke-width="2" d="M56 137V98"/><g fill-rule="evenodd" clip-rule="evenodd" filter="url(#f)"><path fill="#fff" d="M158.472 129.99v14.224l2.864-2.781 2.003 4.744 3.202-1.364-1.866-4.503h4.092z"/><path fill="#000" d="M159.359 142.065v-9.937l7.252 7.268h-3.28l2.025 4.813-1.638.687-2.105-5.007z"/></g></g><path stroke="#CFCFD8" d="M.5.5h299v171H.5z"/><defs><clipPath id="a"><path fill="#fff" d="M0 0h300v172H0z"/></clipPath><clipPath id="c"><path fill="#fff" d="M47 43.333A6.333 6.333 0 0 1 53.333 37h270.952v383H47z"/></clipPath><clipPath id="d"><path fill="#fff" d="M47 37h277.285v34.661H47z"/></clipPath><filter id="b" width="319.259" height="424.974" x="26.013" y="22.304" color-interpolation-filters="sRGB" filterUnits="userSpaceOnUse"><feFlood flood-opacity="0" result="BackgroundImageFix"/><feColorMatrix in="SourceAlpha" result="hardAlpha" values="0 0 0 0 0 0 0 0 0 0 0 0 0 0 0 0 0 0 127 0"/><feOffset dy="6.291"/><feGaussianBlur stdDeviation="10.493"/><feComposite in2="hardAlpha" operator="out"/><feColorMatrix values="0 0 0 0 0 0 0 0 0 0 0 0 0 0 0 0 0 0 0.25 0"/><feBlend in2="BackgroundImageFix" result="effect1_dropShadow_16236_14544"/><feBlend in="SourceGraphic" in2="effect1_dropShadow_16236_14544" result="shape"/></filter><filter id="e" width="160.08" height="29.08" x="63.46" y="111.46" color-interpolation-filters="sRGB" filterUnits="userSpaceOnUse"><feFlood flood-opacity="0" result="BackgroundImageFix"/><feColorMatrix in="SourceAlpha" result="hardAlpha" values="0 0 0 0 0 0 0 0 0 0 0 0 0 0 0 0 0 0 127 0"/><feOffset/><feGaussianBlur stdDeviation="1.27"/><feComposite in2="hardAlpha" operator="out"/><feColorMatrix values="0 0 0 0 0 0 0 0 0 0 0 0 0 0 0 0 0 0 0.25 0"/><feBlend in2="BackgroundImageFix" result="effect1_dropShadow_16236_14544"/><feBlend in="SourceGraphic" in2="effect1_dropShadow_16236_14544" result="shape"/></filter><filter id="f" width="28.422" height="28.422" x="148.583" y="125.431" color-interpolation-filters="sRGB" filterUnits="userSpaceOnUse"><feFlood flood-opacity="0" result="BackgroundImageFix"/><feColorMatrix in="SourceAlpha" result="hardAlpha" values="0 0 0 0 0 0 0 0 0 0 0 0 0 0 0 0 0 0 127 0"/><feOffset dy="1.776"/><feGaussianBlur stdDeviation="2.665"/><feColorMatrix values="0 0 0 0 0.227451 0 0 0 0 0.223529 0 0 0 0 0.266667 0 0 0 0.2 0"/><feBlend in2="BackgroundImageFix" result="effect1_dropShadow_16236_14544"/><feBlend in="SourceGraphic" in2="effect1_dropShadow_16236_14544" result="shape"/></filter></defs></svg>
