<!-- This Source Code Form is subject to the terms of the Mozilla Public
   - License, v. 2.0. If a copy of the MPL was not distributed with this
   - file, You can obtain one at http://mozilla.org/MPL/2.0/. -->
<svg xmlns="http://www.w3.org/2000/svg" fill="none" stroke-linecap="square" stroke-miterlimit="10" viewBox="0.0 0.0 710.8398950131234 235.89501312335958" width="50em"><clipPath id="a"><path d="M0 0h710.8v235.9H0V0z"/></clipPath><g clip-path="url(#a)"><path fill="#000" fill-opacity="0.0" fill-rule="evenodd" d="M0 0h710.8v235.9H0z"/><path fill="#0942a1" fill-rule="evenodd" d="M274.6 23.2A23.2 23.2 0 0 1 297.8 0h115a23.2 23.2 0 0 1 23.3 23.2 23.2 23.2 0 0 1-23.3 23.3h-115a23.2 23.2 0 0 1-23.2-23.3z"/><path fill="#fff" d="m314.2 18.6 3 7.7 3.2-7.7h1.6V28h-1.3v-3.7l.1-4-3 7.7h-1l-3.1-7.6.1 4V28h-1.2v-9.4h1.6zm14.2 8.7q-.7.9-2.1.9-1.1 0-1.7-.7-.6-.6-.6-2V21h1.2v4.5q0 1.6 1.3 1.6 1.4 0 1.8-1V21h1.2v7h-1.1v-.7zm4.3.7h-1.2V18h1.2v10zm3.5-8.7V21h1.3v1h-1.3v4.3q0 .4.2.6.2.2.6.2h.6v1h-1q-.8 0-1.2-.4-.4-.5-.4-1.4v-4.4h-1.3v-1h1.3v-1.6h1.2zm4 8.7H339v-7h1.2v7zm-1.2-8.9.1-.5q.2-.2.6-.2.3 0 .5.2t.2.5q0 .3-.2.5t-.5.2q-.4 0-.6-.2l-.1-.5zm5.7 5.4h-3.2v-1h3.2v1zM347 21v.8q.8-1 2.1-1 1.5 0 2 1.2.4-.5 1-.8.5-.3 1.3-.3 2.3 0 2.3 2.4V28h-1.2v-4.6q0-.8-.3-1.2-.4-.3-1.2-.3-.7 0-1.1.4-.4.4-.5 1V28h-1.2v-4.6q0-1.5-1.5-1.5-1.2 0-1.6 1V28h-1.3v-7h1.2zm13.5 7.2q-1.5 0-2.4-1-.9-1-.9-2.5v-.2q0-1 .4-1.9.4-.8 1.1-1.3.8-.4 1.6-.4 1.4 0 2.1.9.8.9.8 2.6v.5h-4.8q0 1 .6 1.6.6.7 1.5.7.7 0 1-.3.5-.2.9-.7l.7.6q-.9 1.4-2.6 1.4zm-.2-6.4q-.7 0-1.2.6-.5.5-.6 1.5h3.5v-.1q0-1-.5-1.4-.4-.6-1.2-.6zm8.4 4.4q0-.5-.4-.8-.3-.3-1.3-.4l-1.4-.5q-.5-.3-.8-.7-.3-.4-.3-.9 0-.8.8-1.4.7-.6 1.9-.6 1.1 0 1.9.6.7.6.7 1.6h-1.2q0-.5-.4-.9t-1-.4q-.7 0-1 .3-.5.3-.5.8 0 .4.4.6.3.3 1.2.5 1 .2 1.5.5.6.2.8.6.3.4.3 1 0 1-.8 1.5-.7.6-2 .6-.8 0-1.4-.3-.7-.3-1-.9-.4-.5-.4-1.1h1.2q0 .6.5 1 .4.3 1.2.3.7 0 1-.3.5-.3.5-.7zm6.9 0q0-.5-.4-.8-.4-.3-1.3-.4l-1.4-.5q-.6-.3-.8-.7-.3-.4-.3-.9 0-.8.8-1.4.7-.6 1.8-.6 1.2 0 2 .6.7.6.7 1.6h-1.2q0-.5-.4-.9t-1-.4q-.7 0-1.1.3-.4.3-.4.8 0 .4.4.6.3.3 1.2.5 1 .2 1.5.5.5.2.8.6.3.4.3 1 0 1-.8 1.5-.7.6-2 .6-.8 0-1.4-.3-.7-.3-1-.9-.4-.5-.4-1.1h1.2q0 .6.5 1 .4.3 1.2.3.6 0 1-.3.5-.3.5-.7zm7 1.8v-.7q-1 .9-2 .9-1.1 0-1.8-.6t-.7-1.5q0-1.1.9-1.7.8-.6 2.3-.6h1.2v-.6q0-.6-.4-1t-1-.4q-.7 0-1.2.4-.4.3-.4.7h-1.2q0-.5.3-1 .4-.5 1-.7.7-.3 1.5-.3 1.2 0 1.9.6t.7 1.6v3.3q0 1 .2 1.5v.1h-1.2zm-2-.9q.7 0 1.2-.3t.7-.7v-1.5h-1q-2.2 0-2.2 1.3 0 .6.4.9.4.3 1 .3zm4.7-2.6q0-1.7.8-2.7.7-1 2-1t2 1V21h1.2v6.9q0 1.3-.9 2.1-.8.8-2.1.8-.8 0-1.5-.3-.8-.3-1.1-1l.6-.6q.8 1 1.9 1 .9 0 1.3-.6.5-.5.5-1.4v-.6q-.7.9-2 .9-1.2 0-2-1-.7-1-.7-2.7zm1.2 0q0 1.3.5 2 .5.6 1.4.6 1.1 0 1.6-1V23q-.5-1-1.6-1-.9 0-1.4.7-.5.6-.5 2zm9.5 3.7q-1.4 0-2.3-1-1-1-1-2.5v-.2q0-1 .5-1.9.4-.8 1-1.3.8-.4 1.6-.4 1.4 0 2.2.9.7.9.7 2.6v.5H394q0 1 .6 1.6.6.7 1.4.7.7 0 1.1-.3.5-.2.8-.7l.7.6q-.8 1.4-2.6 1.4zm-.2-6.4q-.7 0-1.2.6-.5.5-.6 1.5h3.5v-.1q0-1-.5-1.4-.4-.6-1.2-.6z"/><path fill="#0d5cdf" fill-rule="evenodd" d="M460.5 117.7a23.2 23.2 0 0 1 23.2-23.2h115a23.2 23.2 0 0 1 23.2 23.2 23.2 23.2 0 0 1-23.2 23.2h-115a23.2 23.2 0 0 1-23.2-23.2z"/><path fill="#fff" d="m511.4 113 3.1 7.7 3.1-7.7h1.6v9.5H518v-7.7l-3 7.7h-1l-3-7.7v7.7h-1.2V113h1.6zm12.8 9.6q-1.5 0-2.4-1-.9-.9-.9-2.4v-.3q0-1 .4-1.8t1.1-1.3q.8-.5 1.6-.5 1.4 0 2.1 1 .8.8.8 2.5v.5h-4.8q0 1 .6 1.7.6.6 1.5.6.7 0 1-.2l.9-.7.7.6q-.9 1.3-2.6 1.3zm-.2-6.3q-.7 0-1.2.5-.5.6-.6 1.5h3.5q0-1-.5-1.5-.4-.5-1.2-.5zm8.4 4.3q0-.5-.4-.7-.3-.3-1.3-.5-.9-.2-1.4-.5-.5-.2-.8-.6-.3-.4-.3-1 0-.8.8-1.4.7-.6 1.9-.6 1.1 0 1.9.6.7.6.7 1.6h-1.2q0-.5-.4-.8-.4-.4-1-.4-.7 0-1 .3-.5.3-.5.7 0 .5.4.7l1.2.4q1 .2 1.5.5.6.3.8.7.3.4.3 1 0 .9-.8 1.4-.7.6-2 .6-.8 0-1.4-.3-.7-.3-1-.8-.4-.6-.4-1.2h1.2q0 .6.5 1 .5.3 1.2.3t1-.2q.5-.3.5-.8zm6.9 0q0-.5-.4-.7-.4-.3-1.3-.5t-1.4-.5q-.6-.2-.8-.6-.3-.4-.3-1 0-.8.8-1.4.7-.6 1.8-.6 1.2 0 2 .6.7.6.7 1.6h-1.2q0-.5-.4-.8-.4-.4-1-.4-.7 0-1.1.3-.4.3-.4.7 0 .5.4.7l1.2.4q1 .2 1.5.5t.8.7q.3.4.3 1 0 .9-.8 1.4-.7.6-2 .6-.8 0-1.4-.3-.7-.3-1-.8-.4-.6-.4-1.2h1.2q0 .6.5 1 .4.3 1.2.3.6 0 1-.2.5-.3.5-.8zm7.1 1.9-.2-.7q-.8.8-2 .8-1 0-1.7-.6t-.7-1.5q0-1 .9-1.7.8-.6 2.3-.6h1.2v-.5q0-.7-.4-1-.4-.4-1-.4-.7 0-1.2.3-.4.3-.4.8H542q0-.5.3-1 .4-.5 1-.8.7-.3 1.5-.3 1.2 0 1.9.6t.7 1.7v3.2q0 1 .2 1.6h-1.2zm-2-1q.6 0 1-.2.6-.3.8-.8v-1.4h-1q-2.2 0-2.2 1.3 0 .5.4.9.4.3 1 .3zm4.6-2.6q0-1.6.8-2.6.7-1 2-1t2 1v-.9h1.2v7q0 1.3-.9 2-.8.9-2.1.9-.8 0-1.5-.4-.8-.3-1.1-.9l.6-.7q.8 1 1.9 1 .9 0 1.3-.5.5-.5.5-1.4v-.6q-.7.8-2 .8-1.2 0-2-1-.7-1-.7-2.7zm1.2.1q0 1.2.5 2 .5.6 1.4.6 1.1 0 1.6-1v-3.3q-.5-1-1.6-1-.9 0-1.4.7-.5.7-.5 2zm9.5 3.6q-1.4 0-2.3-1-1-.9-1-2.4v-.3q0-1 .5-1.8.4-.8 1-1.3.8-.5 1.6-.5 1.4 0 2.2 1 .7.8.7 2.5v.5h-4.7q0 1 .6 1.7.6.6 1.4.6.7 0 1.1-.2.5-.3.8-.7l.7.6q-.8 1.3-2.6 1.3zm-.2-6.3q-.7 0-1.2.5-.5.6-.6 1.5h3.5q0-1-.5-1.5-.4-.5-1.2-.5zm13.7 6.2H567v-.9l3.3-3.6 1-1.4q.3-.5.3-1 0-.8-.5-1.3-.4-.4-1.2-.4-.9 0-1.4.5-.5.5-.5 1.4h-1.2q0-1.3.9-2.1.8-.8 2.2-.8 1.3 0 2.1.7t.8 1.8q0 1.4-1.8 3.4l-2.5 2.7h4.7v1z"/><path fill="#0d5cdf" fill-rule="evenodd" d="M88.7 117.7A23.2 23.2 0 0 1 112 94.5h115a23.2 23.2 0 0 1 23.2 23.2 23.2 23.2 0 0 1-23.2 23.2H112a23.2 23.2 0 0 1-23.3-23.2z"/><path fill="#fff" d="m139.7 113 3 7.7 3.2-7.7h1.6v9.5h-1.2v-7.7l-3 7.7h-1l-3.1-7.7.1 4v3.7h-1.2V113h1.6zm12.7 9.6q-1.4 0-2.3-1-.9-.9-.9-2.4v-.3q0-1 .4-1.8t1.1-1.3q.8-.5 1.6-.5 1.4 0 2.1 1 .8.8.8 2.5v.5h-4.8q0 1 .6 1.7.6.6 1.5.6.6 0 1-.2l.9-.7.7.6q-.9 1.3-2.7 1.3zm-.1-6.3q-.7 0-1.2.5-.5.6-.6 1.5h3.5q0-1-.5-1.5t-1.2-.5zm8.4 4.3q0-.5-.4-.7-.3-.3-1.3-.5-.9-.2-1.4-.5-.6-.2-.8-.6-.3-.4-.3-1 0-.8.8-1.4.7-.6 1.8-.6 1.2 0 2 .6.7.6.7 1.6h-1.2q0-.5-.4-.8-.4-.4-1-.4-.7 0-1 .3-.5.3-.5.7 0 .5.4.7l1.2.4q1 .2 1.5.5t.8.7q.3.4.3 1 0 .9-.8 1.4-.7.6-2 .6-.8 0-1.4-.3-.7-.3-1-.8-.4-.6-.4-1.2h1.2q0 .6.5 1 .4.3 1.2.3.7 0 1-.2.5-.3.5-.8zm6.9 0q0-.5-.4-.7-.4-.3-1.3-.5l-1.5-.5q-.5-.2-.7-.6-.3-.4-.3-1 0-.8.7-1.4.8-.6 2-.6 1.1 0 1.8.6.8.6.8 1.6h-1.2q0-.5-.4-.8-.5-.4-1-.4-.7 0-1.1.3-.4.3-.4.7 0 .5.3.7l1.3.4q1 .2 1.5.5t.8.7q.3.4.3 1 0 .9-.8 1.4-.8.6-2 .6-.8 0-1.5-.3-.6-.3-1-.8-.3-.6-.3-1.2h1.2q0 .6.5 1 .4.3 1.1.3.7 0 1.1-.2.5-.3.5-.8zm7 1.9v-.7q-1 .8-2.1.8-1 0-1.7-.6t-.7-1.5q0-1 .8-1.7.9-.6 2.4-.6h1.2v-.5q0-.7-.4-1-.4-.4-1.1-.4-.6 0-1 .3-.5.3-.5.8h-1.2q0-.5.3-1 .4-.5 1-.8.7-.3 1.5-.3 1.2 0 1.9.6t.7 1.7v3.2q0 1 .2 1.6h-1.2zm-2-1q.6 0 1.1-.2.6-.3.8-.8v-1.4h-1q-2.2 0-2.2 1.3 0 .5.4.9.4.3 1 .3zm4.7-2.6q0-1.6.7-2.6.8-1 2-1 1.4 0 2 1l.1-.9h1.1v7q0 1.3-.8 2-.8.9-2.2.9-.7 0-1.4-.4-.8-.3-1.2-.9l.7-.7q.7 1 1.9 1 .8 0 1.3-.5t.5-1.4v-.6q-.7.8-2 .8-1.2 0-2-1-.7-1-.7-2.7zm1.2.1q0 1.2.5 2 .5.6 1.4.6 1 0 1.6-1v-3.3q-.5-1-1.6-1-1 0-1.4.7-.5.7-.5 2zm9.5 3.6q-1.5 0-2.4-1-.8-.9-.8-2.4v-.3q0-1 .3-1.8.4-.8 1.2-1.3.7-.5 1.5-.5 1.4 0 2.2 1 .7.8.7 2.5v.5H186q0 1 .5 1.7.6.6 1.5.6.7 0 1.1-.2.5-.3.8-.7l.7.6q-.8 1.3-2.6 1.3zm-.2-6.3q-.7 0-1.2.5-.5.6-.6 1.5h3.5q0-1-.5-1.5-.4-.5-1.2-.5zm11.5 6.2H198v-8l-2.4.9v-1.1l3.5-1.3h.2v9.5z"/><path fill="#307af3" fill-rule="evenodd" d="M0 212.1A23.2 23.2 0 0 1 23.2 189h115a23.2 23.2 0 0 1 23.3 23.2 23.2 23.2 0 0 1-23.2 23.3h-115A23.2 23.2 0 0 1 0 212z"/><path fill="#fff" d="M58.9 212.7q-1.6-.4-2.4-1.1-.7-.7-.7-1.7 0-1.1.9-1.8.9-.8 2.3-.8 1 0 1.8.4.7.4 1.1 1 .5.7.5 1.5H61q0-.9-.5-1.3-.6-.5-1.6-.5-.9 0-1.4.4-.5.4-.5 1.1 0 .6.4 1 .5.4 1.7.7 1.2.3 1.9.7.6.4 1 1 .3.5.3 1.2 0 1.2-1 1.9-.8.7-2.3.7-1 0-1.8-.4-.9-.4-1.4-1-.4-.7-.4-1.5h1.3q0 .9.6 1.4.6.5 1.7.5 1 0 1.5-.5.5-.4.5-1 0-.8-.5-1.1-.5-.4-1.7-.8zm7.7 3.4q.7 0 1.1-.4.5-.4.6-1h1.1q0 .6-.4 1.2-.4.5-1 .9-.7.3-1.4.3-1.4 0-2.3-1-.8-1-.8-2.6v-.2q0-1 .4-1.8.3-.8 1-1.3.7-.4 1.7-.4 1.2 0 2 .7t.8 1.8h-1.1q0-.7-.5-1-.5-.5-1.2-.5-.9 0-1.4.6-.5.7-.5 2v.2q0 1.2.5 1.8.5.7 1.4.7zm7.6-5.1h-.6q-1.2 0-1.6 1v5h-1.2v-7.1h1.1v.8q.6-1 1.7-1 .4 0 .6.2v1zm3.9 6q-1.4 0-2.4-.9-.8-1-.8-2.5v-.2q0-1 .3-1.9.5-.8 1.2-1.3.7-.4 1.5-.4 1.4 0 2.2.9.7.9.7 2.6v.5h-4.7q0 1 .6 1.6.5.7 1.4.7.7 0 1.1-.3.5-.2.8-.7l.7.6q-.8 1.4-2.6 1.4zm-.2-6.2q-.7 0-1.2.5t-.6 1.5h3.5v-.1q0-1-.5-1.4-.4-.5-1.2-.5zm7.2 6.3q-1.4 0-2.3-1-.9-1-.9-2.5v-.2q0-1 .4-1.9.4-.8 1.1-1.3.8-.4 1.6-.4 1.4 0 2.1.9.8.9.8 2.6v.5H83q0 1 .6 1.6.6.7 1.5.7.6 0 1-.3.5-.2.9-.7l.7.6q-.9 1.4-2.7 1.4zm-.1-6.3q-.7 0-1.2.5t-.6 1.5h3.5v-.1q0-1-.5-1.4-.5-.5-1.2-.5zm5.4-.9v.9q.9-1 2.2-1 2.2 0 2.2 2.5v4.6h-1.2v-4.6q0-.8-.3-1.1-.4-.4-1.1-.4-.6 0-1 .3-.5.3-.7.8v5h-1.2v-7h1.1zm13.4 7h-1.2v-8l-2.5 1v-1.2l3.5-1.3h.2v9.5z"/><path fill="#307af3" fill-rule="evenodd" d="M177.5 212.1a23.2 23.2 0 0 1 23.2-23.2h115a23.2 23.2 0 0 1 23.3 23.2 23.2 23.2 0 0 1-23.3 23.3h-115a23.2 23.2 0 0 1-23.2-23.3z"/><path fill="#fff" d="M236.3 212.7q-1.6-.4-2.3-1.1-.7-.7-.7-1.7 0-1.1.9-1.8.9-.8 2.3-.8 1 0 1.7.4.8.4 1.2 1 .4.7.4 1.5h-1.2q0-.9-.6-1.3-.5-.5-1.5-.5t-1.5.4q-.5.4-.5 1.1 0 .6.5 1t1.7.7q1.2.3 1.8.7.7.4 1 1 .4.5.4 1.2 0 1.2-1 1.9-.8.7-2.3.7-1 0-1.9-.4-.8-.4-1.3-1-.4-.7-.4-1.5h1.2q0 .9.7 1.4.6.5 1.7.5 1 0 1.5-.5.5-.4.5-1 0-.8-.5-1.1-.5-.4-1.8-.8zm7.8 3.4q.6 0 1.1-.4.5-.4.6-1h1q0 .6-.3 1.2-.4.5-1 .9-.7.3-1.4.3-1.4 0-2.3-1-.8-1-.8-2.6v-.2q0-1 .3-1.8.4-.8 1.1-1.3.7-.4 1.7-.4 1.2 0 2 .7.7.7.8 1.8h-1.1q0-.7-.6-1-.4-.5-1.1-.5-1 0-1.4.6-.5.7-.5 2v.2q0 1.2.5 1.8.5.7 1.4.7zm7.6-5.1h-.6q-1.2 0-1.7 1v5h-1.2v-7.1h1.2v.8q.6-1 1.7-1 .4 0 .6.2v1zm3.9 6q-1.5 0-2.4-.9-.9-1-.9-2.5v-.2q0-1 .4-1.9.4-.8 1.1-1.3.8-.4 1.6-.4 1.4 0 2.1.9.8.9.8 2.6v.5h-4.8q0 1 .6 1.6.6.7 1.5.7.7 0 1-.3.5-.2.9-.7l.7.6q-.9 1.4-2.6 1.4zm-.2-6.2q-.7 0-1.2.5t-.6 1.5h3.5v-.1q0-1-.5-1.4-.4-.5-1.2-.5zm7.2 6.3q-1.4 0-2.3-1-.9-1-.9-2.5v-.2q0-1 .4-1.9.4-.8 1.1-1.3.7-.4 1.6-.4 1.3 0 2.1.9t.8 2.6v.5h-4.8q0 1 .6 1.6.6.7 1.5.7.6 0 1-.3.5-.2.8-.7l.8.6q-.9 1.4-2.7 1.4zm-.1-6.3q-.8 0-1.3.5-.4.5-.6 1.5h3.6v-.1q0-1-.5-1.4-.5-.5-1.2-.5zm5.4-.9v.9q.8-1 2.2-1 2.2 0 2.2 2.5v4.6h-1.2v-4.6q0-.8-.4-1.1-.3-.4-1-.4-.6 0-1 .3-.5.3-.7.8v5h-1.2v-7h1zm15.6 7h-6.2v-.8l3.3-3.7 1-1.3.2-1q0-.8-.4-1.3t-1.2-.5q-.9 0-1.4.5-.5.5-.5 1.5h-1.2q0-1.3.9-2.2.8-.8 2.2-.8 1.3 0 2.1.7t.8 1.9q0 1.4-1.8 3.3l-2.6 2.8h4.8v1z"/><path fill="#307af3" fill-rule="evenodd" d="M371.7 212.1A23.2 23.2 0 0 1 395 189h115a23.2 23.2 0 0 1 23.3 23.2 23.2 23.2 0 0 1-23.2 23.3H395a23.2 23.2 0 0 1-23.3-23.3z"/><path fill="#fff" d="M430.6 212.7q-1.6-.4-2.4-1.1-.7-.7-.7-1.7 0-1.1.9-1.8.9-.8 2.3-.8 1 0 1.8.4.7.4 1.2 1 .4.7.4 1.5h-1.3q0-.9-.5-1.3-.6-.5-1.6-.5-.9 0-1.4.4-.5.4-.5 1.1 0 .6.5 1t1.6.7q1.2.3 1.9.7.7.4 1 1 .3.5.3 1.2 0 1.2-1 1.9-.8.7-2.3.7-1 0-1.8-.4-.9-.4-1.3-1-.5-.7-.5-1.5h1.3q0 .9.6 1.4.6.5 1.7.5 1 0 1.5-.5.5-.4.5-1 0-.8-.5-1.1-.4-.4-1.7-.8zm7.7 3.4q.7 0 1.2-.4.4-.4.5-1h1.1q0 .6-.4 1.2-.4.5-1 .9-.6.3-1.4.3-1.4 0-2.3-1-.8-1-.8-2.6v-.2q0-1 .4-1.8t1-1.3q.8-.4 1.7-.4 1.2 0 2 .7t.8 1.8H440q0-.7-.5-1-.5-.5-1.2-.5-.9 0-1.4.6-.5.7-.5 2v.2q0 1.2.5 1.8.5.7 1.4.7zm7.6-5.1h-.6q-1.2 0-1.6 1v5h-1.2v-7.1h1.2v.8q.6-1 1.7-1 .3 0 .5.2v1zm3.9 6q-1.4 0-2.3-.9-1-1-1-2.5v-.2q0-1 .5-1.9.4-.8 1-1.3.8-.4 1.6-.4 1.4 0 2.2.9.7.9.7 2.6v.5h-4.7q0 1 .6 1.6.6.7 1.5.7.6 0 1-.3.5-.2.8-.7l.7.6q-.8 1.4-2.6 1.4zm-.2-6.2q-.7 0-1.2.5t-.6 1.5h3.5v-.1q0-1-.5-1.4-.4-.5-1.2-.5zm7.3 6.3q-1.5 0-2.4-1-.9-1-.9-2.5v-.2q0-1 .4-1.9.4-.8 1.1-1.3.8-.4 1.6-.4 1.4 0 2.1.9.8.9.8 2.6v.5h-4.8q0 1 .6 1.6.6.7 1.5.7.7 0 1-.3.5-.2.9-.7l.7.6q-.9 1.4-2.6 1.4zm-.2-6.3q-.7 0-1.2.5t-.6 1.5h3.5v-.1q0-1-.5-1.4-.4-.5-1.2-.5zm5.4-.9v.9q.9-1 2.2-1 2.2 0 2.2 2.5v4.6h-1.2v-4.6q0-.8-.3-1.1-.4-.4-1-.4-.7 0-1.1.3-.5.3-.7.8v5H461v-7h1.1zm13.4 7h-1.2v-8l-2.5 1v-1.2l3.5-1.3h.2v9.5z"/><path fill="#307af3" fill-rule="evenodd" d="M549.2 212.1a23.2 23.2 0 0 1 23.2-23.2h115a23.2 23.2 0 0 1 23.3 23.2 23.2 23.2 0 0 1-23.3 23.3h-115a23.2 23.2 0 0 1-23.2-23.3z"/><path fill="#fff" d="M608 212.7q-1.5-.4-2.3-1.1-.7-.7-.7-1.7 0-1.1.9-1.8.9-.8 2.3-.8 1 0 1.8.4.7.4 1.1 1 .5.7.5 1.5h-1.3q0-.9-.6-1.3-.5-.5-1.5-.5-.9 0-1.4.4-.6.4-.6 1.1 0 .6.5 1t1.7.7q1.2.3 1.9.7.6.4 1 1 .3.5.3 1.2 0 1.2-1 1.9-.8.7-2.3.7-1 0-1.8-.4-.9-.4-1.4-1-.4-.7-.4-1.5h1.3q0 .9.6 1.4.6.5 1.7.5 1 0 1.5-.5.5-.4.5-1 0-.8-.5-1.1-.5-.4-1.7-.8zm7.8 3.4q.7 0 1.1-.4.5-.4.6-1h1.1q0 .6-.4 1.2-.4.5-1 .9-.7.3-1.4.3-1.4 0-2.3-1-.8-1-.8-2.6v-.2q0-1 .3-1.8.4-.8 1.1-1.3.7-.4 1.7-.4 1.2 0 2 .7t.8 1.8h-1.1q0-.7-.5-1-.5-.5-1.2-.5-1 0-1.4.6-.5.7-.5 2v.2q0 1.2.5 1.8.5.7 1.4.7zm7.6-5.1h-.6q-1.2 0-1.6 1v5H620v-7.1h1.1v.8q.6-1 1.7-1 .4 0 .6.2v1zm3.9 6q-1.5 0-2.4-.9-.8-1-.8-2.5v-.2q0-1 .3-1.9.4-.8 1.2-1.3.7-.4 1.5-.4 1.4 0 2.2.9.7.9.7 2.6v.5h-4.7q0 1 .5 1.6.6.7 1.5.7.7 0 1.1-.3.5-.2.8-.7l.7.6q-.8 1.4-2.6 1.4zm-.2-6.2q-.7 0-1.2.5t-.6 1.5h3.5v-.1q0-1-.5-1.4-.4-.5-1.2-.5zm7.2 6.3q-1.4 0-2.3-1-.9-1-.9-2.5v-.2q0-1 .4-1.9.4-.8 1.1-1.3.7-.4 1.6-.4 1.4 0 2.1.9.8.9.8 2.6v.5h-4.8q0 1 .6 1.6.6.7 1.5.7.6 0 1-.3.5-.2.9-.7l.7.6q-.9 1.4-2.7 1.4zm-.1-6.3q-.7 0-1.2.5t-.7 1.5h3.6v-.1q0-1-.5-1.4-.5-.5-1.2-.5zm5.4-.9v.9q.9-1 2.2-1 2.2 0 2.2 2.5v4.6h-1.2v-4.6q0-.8-.3-1.1-.4-.4-1.1-.4-.6 0-1 .3-.5.3-.7.8v5h-1.2v-7h1.1zm15.6 7H649v-.8l3.3-3.7 1-1.3q.3-.5.3-1 0-.8-.5-1.3-.4-.5-1.2-.5-.9 0-1.4.5-.5.5-.5 1.5h-1.2q0-1.3.9-2.2.8-.8 2.2-.8 1.3 0 2.1.7t.8 1.9q0 1.4-1.8 3.3l-2.5 2.8h4.7v1z"/><path fill="#000" fill-opacity="0.0" fill-rule="evenodd" d="M355.3 46.5v24h185.9v24"/><path stroke="#c2c2c2" stroke-linecap="butt" stroke-linejoin="round" stroke-width="1.0" d="M355.3 46.5v24h185.9v24"/><path fill="#000" fill-opacity="0.0" fill-rule="evenodd" d="M169.5 94.5v-24h185.8v-24"/><path stroke="#c2c2c2" stroke-linecap="butt" stroke-linejoin="round" stroke-width="1.0" d="M169.5 94.5v-24h185.8v-24"/><path fill="#000" fill-opacity="0.0" fill-rule="evenodd" d="M169.5 141v24h88.7v24"/><path stroke="#c2c2c2" stroke-linecap="butt" stroke-linejoin="round" stroke-width="1.0" d="M169.5 141v24h88.7v24"/><path fill="#000" fill-opacity="0.0" fill-rule="evenodd" d="M80.7 189v-24h88.8v-24"/><path stroke="#c2c2c2" stroke-linecap="butt" stroke-linejoin="round" stroke-width="1.0" d="M80.7 189v-24h88.8v-24"/><path fill="#000" fill-opacity="0.0" fill-rule="evenodd" d="M541.2 141v24H630v24"/><path stroke="#c2c2c2" stroke-linecap="butt" stroke-linejoin="round" stroke-width="1.0" d="M541.2 141v24H630v24"/><path fill="#000" fill-opacity="0.0" fill-rule="evenodd" d="M452.5 189v-24h88.7v-24"/><path stroke="#c2c2c2" stroke-linecap="butt" stroke-linejoin="round" stroke-width="1.0" d="M452.5 189v-24h88.7v-24"/></g></svg>
