<!-- This Source Code Form is subject to the terms of the Mozilla Public↩
  - License, v. 2.0. If a copy of the MPL was not distributed with this↩
  - file, You can obtain one at http://mozilla.org/MPL/2.0/. -->
<svg width="256" height="256" viewBox="0 0 256 256" fill="none" xmlns="http://www.w3.org/2000/svg">
<path d="M37.5 9.53709C37.5 9.26178 37.7226 9.03827 37.9979 9.0371L163.745 8.50244L218.5 62.7469V247.317C218.5 247.593 218.276 247.817 218 247.817H38C37.7239 247.817 37.5 247.593 37.5 247.317V9.53709Z" fill="#FAFAFA" stroke="#80808E" stroke-width="3"/>
<path d="M228 136H28V236H228V136Z" fill="#FF0000"/>
<path d="M226.5 137.5H29.5V234.5H226.5V137.5Z" stroke="black" stroke-opacity="0.25" stroke-width="3"/>
<path d="M65.4878 194.342V213.441H53V158H72.5629C86.5327 158 93.5176 163.889 93.5176 175.668C93.5176 181.236 91.5072 185.746 87.4864 189.2C83.4913 192.628 78.1431 194.342 71.4417 194.342H65.4878ZM65.4878 167.588V184.87H70.3978C77.0477 184.87 80.3726 181.957 80.3726 176.132C80.3726 170.436 77.0477 167.588 70.3978 167.588H65.4878Z" fill="white"/>
<path d="M107.767 213.441V158H127.407C147.099 158 156.945 167.008 156.945 185.025C156.945 193.659 154.251 200.554 148.864 205.709C143.503 210.864 136.351 213.441 127.407 213.441H107.767ZM120.255 168.168V203.312H126.441C131.853 203.312 136.093 201.688 139.16 198.44C142.253 195.193 143.8 190.772 143.8 185.179C143.8 179.896 142.266 175.746 139.199 172.73C136.158 169.689 131.879 168.168 126.363 168.168H120.255Z" fill="white"/>
<path d="M203.051 168.624H183.488V182.233H201.466V192.362H183.488V213.897H171V158.456H203.051V168.624Z" fill="white"/>
</svg>
