<!-- This Source Code Form is subject to the terms of the Mozilla Public
   - License, v. 2.0. If a copy of the MPL was not distributed with this
   - file, You can obtain one at https://mozilla.org/MPL/2.0/. -->
<svg xmlns="http://www.w3.org/2000/svg" width="90" height="90" fill="none"><g opacity=".8"><path fill="#C4C4C4" d="M43.92.376c6.572 2.576 9.975 14.168 9.975 14.168s9.161-.147 11.619 0c0 0 2.859-9.858 5.163-13.7 2.934.703 4.812 8.782 5.399 12.412 0 0 1.494 2.165 1.643 3.981.135 1.636-1.056 4.567-1.056 4.567.296 2.99 4.121 7.346 5.163 10.07 0 0-1.167 2.419-3.051 4.683-1.521 1.828-5.75 7.26-5.75 7.26 1.877.82 5.501 3.314 7.275 5.035 4.527 4.39 7.65 10.48 8.568 16.627.146.98.586 4.215.465 4.31-.5.389-3.528-.883-4.155-.925-2.955-.199-6.023.442-8.78 1.467-6.301 2.343-11.435 7.283-17.842 9.348-6.674 2.15-14.028 1.904-20.855 1.022-6.293-.813-12.253-2.215-18.073-4.8-4.442-1.973-8.787-4.998-12.028-8.656-1.755-1.98-3.333-3.682-4.402-6.098-.837-1.89-1.643-2.46-2.25-8.32-.215-8.073 1.229-11.132 2.24-13.529 1.176-2.786 2.912-5.303 5.043-7.448 4.125-4.152 10.006-7.357 15.974-7.587 3.424-.133 8.332.468 11.5 1.053 0 0 1.174-1.756 1.057-5.034-.216-6.018 2.934-16.745 7.158-19.906Z"/><path fill="#8D8D8D" d="M1.555 57.261c2.171 3.66 4.384 6.193 9.035 5.761 4.98-.462 7.889-5.1 10.94-8.518 3.29-3.689 7.296-7.304 12.426-7.884 2.753-.31 5.384.753 8.104.307 2.878-.472 5.782-1.533 8.613-2.244 2.508-.63 5.016-1.241 7.553-1.746 3.352-.666 3.327-.829 4.502-4.022 1.678-4.56 5.007-8.54 5.715-13.417.359-2.476.111-4.978-.828-7.303-.686-1.7-1.279-2.482-1.748-3.301.352-.234 1.125-.561 2.128-1.246 4.479-3.062 3.382-8.331 3.226-12.959 2.379.874 4.525 10.977 4.973 12.331 2.817 3.864.352 9.017.352 9.017 1.234 2.393 5.178 7.65 4.93 10.42-.237 2.627-6.573 8.431-8.098 11.359 11.735 5.269 16.28 21.176 15.96 26.462-9.07-3.179-15.001.778-17.838 2.46-5.208 3.086-11.042 6.966-17.134 7.962-6.937 1.132-14.157.551-21.007-.703-14.115-2.584-26.757-8.314-32.151-22.753l.348.016-.001.001Z"/><path fill="#949494" d="M50.48 5.884c.796 1.492 4.882 8.683 2.594 9.478-2.966 1.03-2.879-7.823-3.155-9.296l.56-.182Z"/><path fill="#A9A9A9" d="M1.556 57.261c-.116-.006-.232-.012-.349-.016-.085-.277-.172-.553-.258-.83l.356.017.252.83h-.001Z"/><path fill="#C8C8C8" d="m1.302 56.432-.355-.017.057-.486.297.503h.001Z"/><path fill="#878787" d="M76.194 13.49c-1.01.007-1.526-.585-2.23-1.054-.939-4.332-2.23-8.08-3.051-10.538 4.224 2.108 5.28 11.41 5.28 11.592Z"/><path fill="#7D7D7D" d="M36.526 20.281c.253-5.058 1.171-10.824 4.066-15.092 1.136-1.674 2.522-3.385 4.158-1.488 1.414 1.64 2.258 5.014 2.573 7.096.63 4.175-1.874 8.404-5.486 10.645-.661.412-4.176 2.546-4.865 2.053-.565-.404-.447-2.125-.447-3.214Z"/><path fill="#F1F1F1" d="M48.276 17.251c.063.565-.141.908-.69 1.175-2.107 1.025-6.247 3.378-6.247 3.378-1.291-1.874-1.256-10.206.47-10.187 1.408 0 2.87 1.434 3.403 2.107.462-.56 1.408-2.107 1.995-2.576.92 1.47.978 5.92 1.07 6.103h-.001Z"/><path fill="#B5B5B5" d="M76.427 22.507c-.327-.373-2.485-3.02-2.464-3.864.036-1.408.217-4.612-.117-5.972 0 0 1.173.351 1.877.82 1.273 1.176 1.789 2.421 1.992 3.9.198 1.447-1.103 5.024-1.288 5.116Z"/><path fill="#F6F6F6" d="M89.21 64.386c-.972-3.235-1.796-6.532-3.732-9.392-1.012-1.494-1.85-3.124-2.993-4.508-2.197-2.659-5.047-4.537-8.059-6.175-.3-.163-.568-.382-.934-.633 1.859-2.163 3.653-4.2 5.385-6.288.952-1.148 1.158-2.07 2.012-3.292.267-.383 1.2-1.169.802-1.653-1.53-.341-3.77.247-5.144.716-3.408 1.163-5.985 2.342-9.506 4.099-1.12-1.497-1.93-2.684-3.686-3.088-1.767-.408-4.25-.115-6.054.395-1.828.516-2.465 1.522-3.521 3.278-.636-.505-1.695-1.43-1.878-1.522 0 0-3.165-1.942-3.348-2.033-.57-.331-3.279-1.63-4.078-1.898-.458-.153-2.467-.92-3.017-1.103-2.438-.636-5.657-1.345-8.215-1.17-.183.183.353.69.17.874-.215.948.41 1.61.783 2.372 1.482 3.032 3.638 5.487 6.32 7.507.864.65.885 1.133-.07 1.695-1.357.799-2.784 1.476-4.153 2.254-.454.26-.822.67-1.229 1.01l.001.278c.578.088 1.16.15 1.731.27 1.231.259 2.452.578 3.689.806.38.07.87.04 1.19-.148 1.649-.973 3.522-1.082 5.323-1.454.793-.164 1.61-.278 2.419-.286 2.634-.03 5.25.014 7.874.49 2.606.471 5.175 1.427 8.584 3.13-.617.344-10.098 2.395-17.053 13.915 4.4 3.496 9.737 5.079 15.08 6.494-2.727 5.403-6.219 8.725-9.3 11.258-.456.374 6.502-.945 8.221-2.142 10.556-7.343 12.323-7.381 16.194-8.266 3.412-.778 6.761-1.341 10.09.28.179.087.414-5.045.106-6.069h-.003Z"/><path fill="#B1B1B1" d="M89.454 69.928s-1.045.32-1.98-.06c-2.457-1.007-5.002-.67-7.501-.166-3.731.752-7.11 2.295-10.326 4.372-3.113 2.01-5.022 2.786-8.359 4.403-1.775.86-3.168 1.522-7.52 2.562.661-.614 8.042-8.036 10.102-11.695-7.628-.82-14.364-5.891-15.139-6.44 3.756-6.323 10.21-12.646 16.782-14.051 2.41-.516 4.93-1.212 7.29-.974 3.068.309 5.974 1.214 8.549 2.905a10.846 10.846 0 0 1 2.85 2.79c2.188 3.116 3.523 6.639 4.415 10.324.329 1.358.506 2.752.8 4.118.06.28.037 1.64.037 1.913Z"/><path fill="#B3B3B3" d="M80.77 32.342c1.115-.14 1.075.186.47 1.17-.9 1.462-2.2 3.12-3.286 4.45-1.427 1.748-2.384 3.437-3.924 5.088-.27.291-.834.495-1.232.454-2.511-.264-5.014-.613-7.521-.928-.358-.045-.73-.018-1.079-.098-.562-.128-.764-.466-.382-.977 1.447-1.943 1.261-4.075.748-6.25-.105-.45.004-.457.012-.566.713.52 1.869 1.945 2.465 2.576 0 0 2.806-1.391 3.52-1.757 6.924-3.044 8.333-2.927 10.21-3.161v-.001Z"/><path fill="#B8B8B8" d="M44.794 19.916c.901-2.585 1.623-4.854 1.238-7.246-.042-.26 1.256-1.565 1.408-1.522.455.13 1.207 6.756.704 7.143-.719.553-2.205 1.083-3.35 1.625Z"/><path fill="#E4E4E4" d="m48.079 45.585-.209-.126c.074-.037.148-.105.22-.101.072.002.14.076.21.118l-.221.11Z"/><path fill="#000" d="M88.75 70.63c-.47-.116-1.173-.35-1.877-.468-2.845-.473-4.98-.423-7.712.211-4.14.963-7.752 2.986-11.218 5.336a36.405 36.405 0 0 1-12.384 5.384c-4.517 1.039-9.084 1.005-13.665.62-3.888-.325-7.795-.597-11.559-1.684-3.814-1.102-7.689-2.114-11.338-3.64-7.105-2.971-12.823-7.643-16.387-14.65C.275 57.149-.338 52.335.162 47.237c.441-4.493 1.77-8.593 4.437-12.207 4.847-6.567 11.283-10.549 19.505-11.282 2.056-.183 4.121.017 6.204.162 1.743.12 3.374.462 5.346.81a.084.084 0 0 0 .083-.032c.33-.466.462-1.119.426-1.53-.53-6.282 1.017-12.13 3.676-17.747.466-.984.918-1.983 1.494-2.902.494-.788 1.129-1.496 1.76-2.187.186-.204.607-.372.856-.308 1.393.36 2.655.832 3.714 2.008 2.562 2.844 4.275 6.16 5.858 9.571.315.678.534 1.4.855 2.262.012.033.109.218.109.218 2.379-.539 9.757-.28 10.914 0 0 0 2.198-9.386 4.416-13.53a.083.083 0 0 1 .04-.037c.887-.412 1.465-.186 2.051.392 1.637 1.611 2.539 3.626 3.195 5.752.478 1.547.743 3.09 1.095 4.613.17.818.169 1.242.352 1.64.19.41.704.936.939 1.404.279.556.385 1.037.469 1.64.297 2.124.265 3.902-.702 5.81a.55.55 0 0 0 .012.514c1.642 2.942 3.27 5.804 4.813 8.71.232.437.19 1.157.01 1.65-.784 2.16-2.255 3.905-3.675 5.666-1.393 1.727-2.837 3.415-4.263 5.12a.082.082 0 0 0 .02.122c1.369.874 2.749 1.752 4.125 2.634 2.614 1.673 4.577 3.985 6.181 6.576 2.197 3.546 4.088 7.257 4.895 11.4.284 1.46.553 3.2.603 4.427.067 2.754.09 2.38-1.224 2.051v.004ZM70.714 1.514c-2.22 3.997-2.973 8.455-4.127 12.505-.01.035-.046.272-.017.292 1.01.68 1.175.822 1.266.99.11.203.115.296-.165.296-.116 0-1.539-.446-3.8-.584-3.14-.192-7.654-.072-10.432.178a.08.08 0 0 1-.084-.058c-1.108-3.96-2.97-7.4-5.265-10.592-.777-1.08-1.87-1.958-2.911-2.815-.791-.651-1.304-.521-1.972.244-.326.374-.692.742-.912 1.176-2.766 5.459-4.925 11.1-4.95 17.334-.005 1.052.144 2.103.243 3.422a.077.077 0 0 1-.012.048l-3.503 5.809a.082.082 0 0 0 .065.124c3.472.277 6.808.864 9.97 2.19 4.578 1.918 7.673 3.66 8.673 4.918.059.075-.034.172-.113.117-5.679-3.992-11.781-6.407-18.895-6.738a.082.082 0 0 0-.078.12c2.291 4.382 6.909 10.232 7.88 10.985 1.056.82 1.052 1.64-.118.937-1.166-.702-8.512-8.987-9.303-12.218a.087.087 0 0 1 .012-.065l2.82-4.273a.084.084 0 0 0-.047-.127c-2.032-.538-4.8-.782-6.978-.881-1.762-.081-3.746-.056-5.453.27-8.059 1.54-14.235 5.843-18.338 12.982-1.722 2.995-2.481 6.258-2.824 9.692-.325 3.252-.137 6.441.811 9.509a24.56 24.56 0 0 0 3.901 7.555c2.249 2.965 4.826 5.594 8.105 7.489 2.51 1.45 5.019 2.856 7.778 3.811 8.425 2.92 17.038 4.637 26.003 4.47 6.12-.113 11.832-1.612 17.13-4.628 2.71-1.543 5.277-3.335 8.001-4.852 3.044-1.697 6.425-2.409 9.864-2.763 1.855-.193 3.679.14 5.59.864a.082.082 0 0 0 .112-.087c-.174-1.499-.253-2.858-.515-4.18-.921-4.648-2.916-8.863-5.641-12.695-3.095-4.353-7.24-7.357-12.528-8.496-4.989-1.076-10.006-.862-14.952.341-4.445 1.082-8.857 2.295-13.281 3.46-.767.2-1.48.172-2.254-.074-1.072-.339-2.193-.651-3.308-.711-7.542-.407-14.322 1.726-20.346 6.264-2.084 1.57-4.311 2.832-6.916 3.348-.952.19-1.85.071-2.787-.143a.274.274 0 0 1-.197-.36c.218-.588.735-.627 1.257-.666.492-.037.988-.058 1.474-.14 2.396-.404 4.342-1.728 6.284-3.07 4.123-2.847 8.357-5.389 13.495-6.068 4.133-.546 8.227-1.225 12.037.55.018.009.038.01.056.005l14.317-3.889c.048-.012.071-.064.054-.11-.174-.468-.176-.481-.291-.936-.115-.456-.118-.586.117-.352.257.37.527.774.7 1.023a.085.085 0 0 0 .072.035l10.467-.694a.086.086 0 0 0 .064-.033c1.583-2.177 1.084-5.445-2.156-6.793-1.19-.495-2.66-.539-3.866-.445-1.182.093-1.995.234-3.31.574-.09.023-.133-.113-.051-.157 1.765-.97 4.175-1.013 6.294-.768 1.761.203 3.062 1.527 3.99 2.927.022.033.154.054.19.039 4.543-1.971 8.714-4.584 13.87-4.925a.083.083 0 0 0 .068-.12c-1.591-3.012-3.01-5.796-4.539-8.52-.444-.788-1.14-1.579-.553-2.515.587-.937.787-2.26.86-3.512.137-2.273-.735-3.701-2.503-4.405a.083.083 0 0 0-.112.077v6.27c0 .007 0 .014-.003.021-.02.073-.149.502-.302.05-.168-.492-.284-.842-.286-1.263.118-6.02-.47-9.415-2.23-14.45l-.002-.006c-.692-1.965-.531-2.03.378-.155.1.204.177.407.211.512.573 1.764 1.044 3.027 1.524 4.816.255.956.536 3.187.583 3.561a.08.08 0 0 0 .06.068c.41.111.73.31 1.043.428a.082.082 0 0 0 .11-.07c.025-.258-.156-.904-.2-1.292v-.007c-.807-3.585-1.481-7.205-4.24-10.014a.085.085 0 0 0-.133.018Zm9.962 31.08c-5.075.388-13.52 4.9-13.52 4.9.236 1.991 0 2.577-.586 4.216-.01.045.121.074.166.083l6.103 1.18a.082.082 0 0 0 .081-.031c2.552-3.33 5.652-6.262 7.836-10.226a.083.083 0 0 0-.08-.123Z"/><path fill="#000" d="M48.187 18.424c.017-.626-.31-4.04-.934-6.836-.623.31-1.246 1.243-1.914 2.52-.577-.345-2.123-2.375-3.692-2.21-1.467 3.412-.955 6.69-.31 9.944-.584-.04-.757-.977-.855-1.477-.608-3.11-.55-6.173.833-9.054 1.74-.14 2.787.929 3.897 1.827.624-.932 1.108-1.552 1.904-2.163-.485-2.496-1.419-5.292-2.593-7.842.057-.046-.215-.34.168-.139.384.201.835 1.006 1.006 1.445 1.622 4.149 2.542 8.274 2.804 12.742.013.22.057.407 0 .622-.03.11-.126.413-.311.621h-.003ZM63.158 37.404c-.087 1.114-1.178 1.665-1.87 1.963-1.055-.35-1.76-.702-2.316-1.747 1.404-1.09 3.256-.712 4.186-.216ZM52.439 30.142c1.512-.272 3.201.478 4.34 2.01.076.102.245.513.13.569-.175.084-.214.05-.311 0a231.834 231.834 0 0 1-4.212-2.198c-.168-.09-.134-.346.053-.38ZM64.384 32.72c-.119.099-.623.31-.623 0 0-.622.534-1.207.934-1.554 1.246-.932 1.709-1.147 3.032-1.182.257-.007.295.104.084.25-1.101.759-2.437 1.666-3.427 2.486Z"/><path fill="#838383" d="M32.619 49.492c-.74-.378-1.17-.906-1.49-.172-.523 1.197-1.05 2.89-1.544 4.096-.665 1.622-1.883 3.73-3.386 4.803-.724.517-4.875 2.694-5.985 2.693-.906-.001-2.155.184-2.993-.357-.511-.33-1.217-2.88-1.114-3.039.731-1.138 2.454-2.87 2.592-3.102 1.44-2.428 2.901-4.843 4.292-7.299.71-1.253.505-1.584-.853-1.447-1.227.124-1.946-.694-2.51-1.617-.527-.86-.178-1.432.411-2.132.794-.94.455-1.602-.077-2.76-.334-.729-.552-1.29.539-1.5a326.58 326.58 0 0 0 8.018-1.611c.643-.14 1.262-.465 1.838-.797.809-.465 1.264-.923.187-1.755-.988-.76-.814-2-.516-3.052.297-1.05 1.786-1.931 2.98-1.964 2.852-.079 3.442 1.44 2.581 4.215-.229.737-.485 1.35.237 1.608 1.83.657 2.898 1.38 4.105 2.725 1.802 2.007 1.427 5.226 1.08 7.567-.17 1.147-.437 2.389-1.05 3.335-1.04 1.603-3.785 3.383-7.341 1.564l-.001-.002Z"/><path fill="#404040" d="M33.358 28.478c1.243-.047 2.25.663 2.464 2.46.208 1.737-1.376 3.524-3.05 3.395-1.431-.11-2.693-1.33-2.817-2.693-.188-2.056 1.525-3.162 3.403-3.162Z"/><path fill="#414141" d="M37.936 41.826c-.748.168-2.816.468-2.816.468-.822-.82-2.399-2.531-.822-3.746 2.32-1.788 5.712 1.19 4.695 3.63-.352.585-1.035 1.211-1.174 1.17-.138-.04.255-1.48.117-1.522Z"/><path fill="#454545" d="M21.505 45.807c-2.674-.887-2.88-4.017 0-5.035.736 1.523 1.442 3.093 2.293 4.553-.533.248-.415.482-2.293.482Z"/><path fill="#F1F1F1" d="M38.053 41.826c-.276-.09-5.047.82-5.047.82-.946-2.041-1.835-4.726-2.577-6.86-.454 0-9.718 1.88-9.807 1.879-.09.002-.27.632-.269.81.18.27 2.358 5.108 3.266 7.257 0 .09 2.18-.178 2.452-.265.181-.002 1.36-.18 1.633-.27.182 0 1.363-.181 1.635-.27.182 0 7.853-1.374 8.127-1.462.352-.117.583-1.549.587-1.639Z"/><path fill="#000" d="M15.44 57.526c.408-2.418 2.526-3.636 3.836-5.417 1.322-1.798 2.922-4.061 3.872-6.186-1.643.82-3.637-.375-4.082-2.108-.328-1.275.037-2.385 1.145-3.154-.349-1.179-.818-1.881-1.287-3.52 1.306-.232 3.193-.573 4.497-.787 1.577-.26 3.099-.39 4.656-.736 1.056-.234 1.526-.234 2.293-1.57-.895-.799-1.235-1.903-1.015-3.06.15-.79.518-1.61 1.008-2.245.926-1.198 3.29-1.315 4.569-.649 1.624.846 2.183 3.075 1.127 5.182.402.263 1.11.554 1.557.818 3.396 1.997 4.45 5.162 4.315 8.85-.08 2.234-.841 4.253-2.293 6.013-1.311 1.588-3.42 2.299-5.382 1.633-.88-.299-1.729-.691-2.698-1.085-.714 1.636-1.55 3.267-2.143 4.983-.873 2.528-2.7 4.135-4.871 5.43-1.49.887-3.013 1.716-4.859 1.706-1.858-.009-3.107-.598-3.929-2.354-.091-.197-.47-.937-.317-1.747v.003Zm19.328-15.348c-.235-.234-.584-.685-.726-.846-1.296-1.474-.877-2.815.99-3.385.991-.303 1.823-.069 2.666.398 1.172.651 1.825 1.92 1.64 3.225-.124.883-1.013 1.957-1.987 2.13-1.356.241-3.216.616-4.577.82-2.055.306-4.02.688-5.853.96-1.095 2.06-1.977 4.015-3.124 5.8-1.224 1.906-2.719 3.636-4.053 5.473-.73 1.006-1.381 2.074-.892 3.429 1.27.222 2.428.06 3.447-.53 1.42-.824 2.785-1.749 4.121-2.704.41-.293.732-.786.95-1.254.727-1.574 1.36-3.193 2.088-4.767.44-.95.992-1.85 1.521-2.824.678.23 1.179.386 1.668.571.538.204 1.059.453 1.598.65 1.898.688 3.211.276 4.481-1.245 2.375-2.843 2.43-6.06 1.361-9.33-.423-1.298-1.23-2.576-2.619-3.255-1.053-.515-2.08-1.083-3.117-1.627 1.357-1.526 1.309-3.757.205-4.476-1.022-.666-2.668-.656-3.307.258-.339.486-.704 1.054-.714 1.807-.02 1.472.832 2.057 1.536 2.642-.056.046-.262.32-.464.49-.96.81-1.012 1.72-.476 2.834.577 1.197.984 2.477 1.484 3.713.161.396.393.809.51 1.277.588-.117 1.174-.117 1.644-.234h-.001Zm-1.995.585c-.8-2.073-1.616-4.206-2.403-6.247l-9.73 1.486c1.133 2.707 2.04 4.877 3.467 7.61 4.567-.752 8.932-1.535 13.36-2.265.235-.35.47-1.053.352-1.288-1.783.229-3.243.472-5.046.703v.001Zm-8.424 3.275a.208.208 0 0 0-.128.087c-.079.117-.15.207-.191.308-1.498 3.503-3.498 6.661-6.239 9.342-.453.443-.87 1.081-.955 1.729-.14 1.067.488 2.046 1.503 2.472-.47-1.874.878-3.265 1.857-4.527 1.116-1.44 2.316-2.828 3.283-4.363 1.046-1.66 3.002-5.475 2.959-5.513-.034-.03-1.462.325-2.087.465h-.002Zm13.705-3.04c1.643-1.406.732-3.355-.25-4.146-1.013-.815-2.103-.813-3.244-.325-.899.385-1.185 1.23-.623 2.042.344.495.91 1.164 1.299 1.49 1.056-.117 3.051-.468 3.051-.468s.117.586-.235 1.405l.002.001ZM23.01 44.782a2874.43 2874.43 0 0 0-1.5-3.407c-1.318.643-1.648 1.387-1.106 2.65.515 1.08 1.465 1.08 2.606.757Z"/></g></svg>