<!-- This Source Code Form is subject to the terms of the Mozilla Public
   - License, v. 2.0. If a copy of the MPL was not distributed with this
   - file, You can obtain one at https://mozilla.org/MPL/2.0/. -->
<svg xmlns="http://www.w3.org/2000/svg" viewBox="0 0 16 16" width="16" height="16" fill="context-fill" fill-opacity="context-fill-opacity">
  <path d="M7.46007 1.62L5.51007 2.68L4.40007 1.57L6.75007 0.3C7.49007 -0.1 8.38007 -0.1 9.12007 0.3L13.9701 2.91C14.9301 3.43 15.4401 4.5 15.2401 5.57L14.6901 8.54C14.5201 9.47 14.2401 10.3 13.8601 11.03L12.7301 9.9C12.9401 9.41 13.1101 8.87 13.2201 8.27L13.7701 5.29C13.8501 4.86 13.6401 4.44 13.2601 4.23L8.41007 1.62C8.27007 1.54 8.11007 1.5 7.94007 1.5C7.77007 1.5 7.61007 1.54 7.46007 1.62Z" />
  <path d="M8.50007 14.3699C9.87007 13.5999 11.1301 12.4099 12.0901 11.0299V11.0099L13.1601 12.0799C12.0901 13.5499 10.7301 14.8199 9.24007 15.6599C8.86007 15.8699 8.43007 15.9799 8.00007 15.9799C7.57007 15.9799 7.14007 15.8799 6.76007 15.6599C5.11007 14.7299 3.60007 13.2999 2.50007 11.6299C1.93007 10.7699 1.53007 9.71994 1.31007 8.51994L0.750066 5.49994C0.560066 4.42994 1.06007 3.36994 2.02007 2.84994L3.25007 2.18994L4.36007 3.29994L2.74007 4.17994C2.36007 4.37994 2.15007 4.80994 2.23007 5.23994L2.79007 8.25994C2.98007 9.26994 3.30007 10.1299 3.76007 10.8199C4.73007 12.2899 6.06007 13.5599 7.50007 14.3699C7.81007 14.5499 8.19007 14.5399 8.50007 14.3699Z"/>
  <path d="M1.06701 0.00281641L0.00634766 1.06348L14.9475 16.0046L16.0082 14.944L1.06701 0.00281641Z" />
</svg>

