<!-- This Source Code Form is subject to the terms of the Mozilla Public
   - License, v. 2.0. If a copy of the MPL was not distributed with this
   - file, You can obtain one at https://mozilla.org/MPL/2.0/. -->
<svg xmlns="http://www.w3.org/2000/svg" viewBox="0 0 16 16" width="16" height="16" fill="context-fill" fill-opacity="context-fill-opacity">
  <path d="M8.00378 6.93915L9.94829 4.99463L11.009 6.05529L9.06444 7.9998L11.009 9.94432L9.94829 11.005L8.00378 9.06047L6.06628 10.998L5.00562 9.9373L6.94312 7.9998L5.00562 6.0623L6.06628 5.00164L8.00378 6.93915Z" />
  <path d="M8.00004 16C7.57004 16 7.14004 15.89 6.76004 15.67C5.12004 14.74 3.61004 13.31 2.50004 11.64C1.93004 10.78 1.53004 9.73 1.31004 8.53L0.750041 5.51C0.550041 4.44 1.06004 3.38 2.02004 2.86L6.75004 0.3C7.49004 -0.1 8.38004 -0.1 9.12004 0.3L13.97 2.91C14.93 3.43 15.44 4.49 15.24 5.57L14.69 8.54C14.47 9.74 14.07 10.78 13.5 11.64C12.4 13.31 10.89 14.75 9.24004 15.68C8.86004 15.9 8.43004 16.01 8.00004 16.01V16ZM7.94004 1.5C7.78004 1.5 7.61004 1.54 7.46004 1.62L2.74004 4.18C2.36004 4.39 2.15004 4.81 2.23004 5.24L2.79004 8.26C2.98004 9.26 3.30004 10.13 3.76004 10.82C4.73004 12.3 6.06004 13.56 7.50004 14.37C7.81004 14.54 8.19004 14.54 8.50004 14.37C9.94004 13.55 11.27 12.29 12.25 10.81C12.71 10.12 13.03 9.26 13.22 8.26L13.77 5.29C13.85 4.86 13.65 4.43 13.26 4.23L8.41004 1.62C8.26004 1.54 8.10004 1.5 7.94004 1.5Z" />
</svg>