<!-- This Source Code Form is subject to the terms of the Mozilla Public
   - License, v. 2.0. If a copy of the MPL was not distributed with this
   - file, You can obtain one at https://mozilla.org/MPL/2.0/. -->
<svg xmlns="http://www.w3.org/2000/svg" width="100" height="100" fill="none"><path fill="#FEA619" d="M55.765 93.356c-2.036-.188-4.248-.684-6.25-.17-2.877.736-5.518 2.175-8.46 2.83-5.793 1.29-11.982 1.345-17.643-.552-5.23-1.751-11.108-4.236-15.058-8.206-3.797-3.817-4.804-9.017-4.788-14.246.018-5.575 3.249-10.55 5.76-15.37 2.496-4.795 6.273-8.915 10.605-12.09 2.215-1.624 4.747-2.268 7.026-3.624 1.418-.845 1.153-.53.446-1.746-.864-1.49-3.4-3.44-4.152-5 0 0 1.949-4.956 2.635-6.775 1.302-3.448-.01-4.565-.376-8.156-.324-3.184-.447-5.19-.154-8.381.145-1.584 1.038-8.17 2.789-8.809 1.59-.58 4.546 3.077 5.583 4.032 2.163 1.991 3.886 4.262 5.694 6.562 1.654 2.102 1.394 1.954 5.42 1.386 1.61-.227 5.385-.184 7.141-.184 0 0 .611-1.315 1.255-3.137.864-2.445 1.631-4.517 2.886-6.9 1.13-1.883 2.436-4.572 4.14-2.385 1.664 2.137 2.601 5.68 2.635 7.905 1.506.753 2.72 1.993 3.447 4.284.775 2.444-.127 4.616-.435 6.883 0 0 3.625 5.898 4.893 7.905 0 0-.409 1.733-1.803 4.133-1.336 2.301-2.52 4.524-4.32 6.52-1.608 1.784-4.542 4.027-6.424 5.156 0 0 1.176 5.093 1.506 7.529.486 3.59-.126 8.03-1.255 11.418 0 0 3.073.972 5.144 2.258 5.276 3.275 9.636 8.14 12.046 13.927 1.882 4.267 2.258 8.156 2.258 8.156s-3.494-.697-4.295-.878c-1.6-.362-3.237-.625-4.878-.68-1.44-.048-2.815-.227-3.737.906-.7.86-.738 2.051-1.578 2.942-1.984 2.102-5.046 2.15-7.704 2.558h.001Z"/><path fill="#FEE3C9" d="m3.634 74.527-.24-.001v-2.97c.08-.003.158-.004.239-.003l.001 2.974Z"/><path fill="#FE7C01" d="m3.634 74.527-.001-2.974c.54-4.932 3.253-8.826 5.351-13.16 1.973-4.075 4.866-7.63 8.286-10.576 1.757-1.513 3.606-2.877 5.68-3.917.775-.389 5.024-1.57 5.3-2.384.492-1.46-3.41-3.674-4.185-4.925-1.231-1.985.473-4.322 1.242-6.356.802-2.123.634-4.52 2.102-6.195 1.105-1.26 5.194-5.602 6.759-6.047.878 2.384.769 3.44 1.328 4.898a37.777 37.777 0 0 0 3.363 6.677c1.272 2.008 2.705 3.977 4.392 5.66 1.626 1.622 4.19 2.688 4.677 5.111.876 4.35-3.835 9.832-6.26 12.985-1.533 1.994-3.34 4.486-5.582 5.72-2.25 1.242-5.025 1.573-7.379 2.695-4.288 2.045-10.146 5.745-12.661 9.78l-.437.304s-.122.339.937-.209c1.06-.547 21.464-11.837 33.04-7.305 4.794 1.877 8.462 5.056 11.627 9.05 3.38 4.264 7.88 8.731 10.467 13.51-1.412 0-4.496-.583-5.788.137-1.102.614-1.148 2.29-1.931 3.24-2.038 2.475-5.987 2.912-8.966 2.853-1.748-.035-3.38-.467-5.098-.16-1.924.345-3.862 1.32-5.728 1.914-3.71 1.18-7.344 1.612-11.226 1.665-6.723.092-13.921-1.93-19.402-5.928-2.375-1.732-5.128-3.062-6.945-5.538-2.278-3.104-2.554-6.838-2.962-10.527v.002Z"/><path fill="#FE7F06" d="M57.782 13.397c.849 4.07-3.161 1.835-6.436 1.45-.382-.045 1.034-1.84 1.203-2.255.565-1.381 1.085-3.737 2.019-4.85.994-1.184 1.086-.535 1.788.993.681 1.486 1.024 2.733 1.426 4.662Z"/><path fill="#FE6D2E" d="M25.635 15.483c.165-1.037.706-3.236.878-4.266.25-1.505.458-2.657 1.13-3.89.951-1.748 1.337-1.766 2.386-.097.433.687.8 1.426 1.119 2.178a47.01 47.01 0 0 1 1.22 3.215c.698 2.051 1.34 4.123 2.047 6.17.208.602-3.743 3.496-5.268 4.846-1.4 1.24-2.317 2.76-2.384 2.76-.543-1.1-.42-1.252-.502-2.51-.046-.694-.502-2.132-.628-8.406h.002Z"/><path fill="#FEEDD3" d="M44.971 94.75c1.246-1.372 2.507-2.732 3.736-4.12 1.14-1.289 2.248-2.606 3.467-4.023-2.199-.23-8.347-1.109-14.933-5.022 3.575-7.38 9.744-12.344 10.618-13.03.421-.33.394-.657.066-1.05-1.677-2.011-3.533-3.771-6.02-4.774-1.064-.429-2.072-.999-3.087-1.54-.234-.126-.438-.367-.58-.602-.992-1.616-1.954-3.248-2.945-4.864-.509-.83-.56-1.636-.285-2.594.645-2.248 1.089-4.554 2.134-6.68.1-.2-.117-.723-.339-.885-.663-.48-1.42-.831-2.111-1.278-1.45-.937-2.871-1.923-4.33-2.85-.576-.367-1.238-.6-1.825-.95a8.911 8.911 0 0 1-1.385-1.024c-2.52-2.275-3.525-4.157-3.525-4.157 2.259-.502 4.723-.777 7.027-.753 4.178.044 8.908 1.13 12.728 2.827.113.05.222.111.337.154.695.251 2.072.653 2.072.653.923-4.01 5.44-4.637 7.322-4.888 1.347-.179 4.248.851 5.136 1.797.514.548.592.182 1.138-.166 2.76-1.756 4.482-3.506 7.026-4.391 1.266-.44 1.883-.878 4.392-.627-.502 2.384-2.892 6.607-4.32 8.552-1.887 2.57-4.223 4.73-6.927 6.465-1.108.71-1.03.727-.638 1.995a25.61 25.61 0 0 1 .857 3.71c.264 1.745.41 3.506.581 5.263.246 2.514-.418 4.908-1.044 7.296-.182.691-.113.92.574 1.296 3.172 1.738 6.376 3.444 9.075 5.921 3.393 3.113 5.939 6.807 7.478 11.146.643 1.81 1.072 3.7 1.51 5.576.276 1.18-.174 1.506-1.305 1.164-4.521-1.365-9.088-1.887-13.68-.412-1.912.614-3.765 1.419-5.632 2.168-3.661 1.47-7.311 2.965-10.969 4.443-.455.184-.924.332-1.387.498 0-.082-.002-.163-.003-.245l-.004.001Z"/><path fill="#FEEDD4" d="m29.775 13.225 1.882 1.756c.202-.227.596-1.163.878-1.505.502 1.003 1.669 3.912 2.008 5.395 0 0-.383.822-.879 1.38-1.003 1.13-1.505 1.631-2.76 2.51-.48.336-1.686 1.055-1.882 1.003-.196-.051-.502-1.003-.678-1.613-.326-.896-1.58-5.539 1.43-8.926ZM65.746 22.067c-.633-.604-1.296-1.202-1.912-1.843-.14-.146-.17-.442-.172-.67-.036-2.38-.341-7.746-.417-8.063-.05-.215-.002-.452.003-.68.23.028.517-.02.684.1 1.036.743 2.07 1.483 2.409 2.847.157.632.482 1.22.711 1.837.684 1.837-.029 3.472-.75 5.104-.19.43-.355.87-.557 1.366l.001.002Z"/><path fill="#FEF6EA" d="m28.345 22.15.49.503-.49-.503Z"/><path fill="#FEF2E0" d="M44.972 94.75c0 .082.001.164.003.245l-.003-.245Z"/><path fill="#FE9B95" d="M23.65 35.213c2.958-.443 5.843-.41 8.72-.34 1.547.037 3.088.284 4.63.443 1.98.201 3.776 1 5.6 1.712.628.246 1.57.5 2.376.75.316.098.827.403.827.403-.12.483-.457 2.445 1.286 4.404 1.182 1.33 4.084 1.77 5.897 1.757 0 .502-.747.944-1.207 1.15-1.919.861-3.734 1.896-5.393 3.188-.971.755-1.895 1.575-2.823 2.385-.867.755-1.784 1.468-2.55 2.316-1.459 1.611-2.96 3.203-4.008 5.136-.387.712-.995 1.017-1.726 1.15-.598.11-1.208.162-1.888.249-.021-.278-.114-.57-.053-.825a462.36 462.36 0 0 1 1.68-6.764c.487-1.897 1.01-3.784 1.502-5.68.05-.193.006-.412.006-.68-1.186-.651-2.416-1.295-3.614-1.993-1.063-.617-2.133-1.237-3.12-1.963-.744-.547-1.37-1.255-2.032-1.91-1.117-1.107-2.22-2.23-3.329-3.345-.408-.41-.808-.822-.783-1.543h.001ZM37.932 80.226c3.639 2.259 6.901 3.137 12.78 2.583 2.215-.307 4.408-.723 6.568-1.382 2.142-.652 4.352-1.128 6.625-1.095 1.538.022 2.916.51 4.316 1.17 2.197 1.033 3.913 2.65 5.757 4.139.855.69 1.852 1.203 2.778 1.807.359.235.698.501.972.993-.25.023-3.09-.639-4.28-.863-1.76-.332-5.654-.702-8.414-.45-7.78 2.258-18.586 7.436-20.234 7.774 1.08-1.352 2.164-2.7 3.236-4.057 1.08-1.366 2.205-2.705 3.034-4.341-5.735-.758-11.507-3.017-13.89-4.899.125-.376.259-.517.752-1.38v.001Z"/><path fill="#FEA19B" d="M32.41 17.993c.032-.646-.07-3.74-.07-4.39.535-.25 1.818 3.657 2.204 5.143.056.22-.753 1.882-2.635 3.262 0 0 .376-1.38.502-4.015ZM65.807 22.203c-.7-.612-2.551-2.095-2.531-2.328.1-1.173 0-2.91.125-4.14.623 1.535 1.305 3.682 2.859 4.454l-.162 1.98c-.098.01-.195.022-.292.034Z"/><path fill="#FED3D1" d="m65.806 22.202.293-.034.067.223-.36-.19v.001ZM66.439 22.851l-.036-.093.087.01-.051.083Z"/><path fill="#000" d="M59.241.646c.192.257.329.624.586.755 1.093.561 1.443 1.668 1.966 2.618.842 1.528 1.527 4.104 1.725 5.91.058.095.108.213.19.303.165.183.349.352.57.57l.313-.085c2.48 1.68 3.33 4.135 3.052 7.028-.08.836-.47 1.645-.746 2.457-.157.462-.366.906-.53 1.306 1.729 2.726 3.402 5.363 5.131 8.085-1.055 3.336-2.58 6.479-4.86 9.19-2.258 2.683-4.583 5.33-7.851 6.821 2.357 7.52 2.091 12.418 1.6 14.496a23.883 23.883 0 0 1-1.147 3.587c.24.124.444.272.672.343 2.931.907 5.4 2.578 7.696 4.56 1.253 1.083 2.503 2.162 3.524 3.476.784 1.009 1.507 2.07 2.35 3.028 2.866 3.252 3.72 7.352 4.877 11.329.143.493.303 1.683.303 1.766.05.569.3 1.322-.8.94-3.87-1.217-8.14-1.642-12.074-1.376-.125.878-.282 1.441-.682 2.104-1.068 1.766-2.76 2.706-4.655 3.285-2.09.638-4.259.546-6.41.474-.693-.023-1.397-.176-2.069-.369-.732-.21-1.376-.073-2.04.225-3.808 1.709-7.767 2.943-11.893 3.58-1.663.258-3.354.512-5.027.479a33.456 33.456 0 0 1-6.253-.718c-2.23-.473-4.334-1.275-6.43-2.14a62.29 62.29 0 0 1-7.845-3.915c-2.55-1.497-4.67-3.495-6.562-5.772-1.42-1.709-1.977-3.72-2.437-5.802-.685-3.096-.582-6.215-.207-9.326.228-1.892.842-3.695 1.729-5.386.276-.525.754-.942 1.1-1.436.278-.397.557-.812.73-1.26 1.091-2.817 2.455-5.5 4.131-8.004 2.038-3.042 4.5-5.743 7.535-7.803 2.266-1.538 4.5-3.138 9.383-4.828-1.505-1.593-4.978-5.463-5.16-5.844.986-2.851 1.993-5.717 2.959-8.595.15-.45.234-.978.155-1.436a87.945 87.945 0 0 1-.742-5.128c-.273-2.399-.241-4.794-.148-7.184.097-2.501.318-5.005 1.116-7.414.114-.346 1.13-2.824 2.242-3.13 1.298.396 2.408 1.192 3.456 2.055 1.331 1.098 2.644 2.228 3.884 3.426 1.549 1.494 2.888 3.178 4.096 4.962.44.648.882 1.293 1.384 2.027 3.47-.78 7.005-.764 10.424-.808l3.241-7.865c.867-2.1 1.971-4.043 3.706-5.566h.747l-.005.005Zm4.22 10.96-.147-.115c.059.027.119.055.178.084.011.62.016 1.238.035 1.858.057 1.942.128 3.883.164 5.826.005.247-.17.497-.262.745l-.244-.03c.129-2.766.143-5.54-.432-8.237-.572-2.687-1.095-5.408-2.256-7.856l-1.82-1.684c-.287.315-.529.543-.726.805-.495.66-1.065 1.285-1.437 2.012-1.35 2.641-2.402 5.408-3.286 8.242-.218.703-.333 1.338.301 2.064-1.883 0-3.58-.009-5.276.003-2.012.012-4.02.11-5.996.524-.52.11-1.024.287-1.56.44-.24-.317-4.035-5.713-6.092-7.818-.632-.646-4.55-4-5.65-4.505-.251-.117-.433-.273-.684-.273-.13.255-1.631 1.757-2.113 8.113-.14 2.933-.18 5.873.2 8.797.19 1.472.354 2.949.632 4.404.113.593.149 1.108-.055 1.683-.665 1.863-1.29 3.741-1.921 5.615-.287.847-.559 1.699-.891 2.716 3.766-.812 7.439-.756 11.069-.202 4.962.76 9.04 2.14 10.621 3.367-.334-.06-.536-.07-.719-.132-1.79-.602-3.568-1.245-5.37-1.813-2.085-.658-4.242-1.04-6.41-1.226-2.012-.172-4.046-.226-6.063-.054-.964.081-1.913.345-2.966.546.181.26.257.41.368.522 1.372 1.38 2.724 2.78 4.137 4.118.503.476.84.993 1.033 1.647-.674.218-1.329.42-1.976.643-.895.307-1.817.562-2.67.96-2.393 1.124-4.593 2.6-6.722 4.14-2.49 1.802-4.537 4.097-6.284 6.63-1.34 1.944-2.384 4.056-3.382 6.193-.541 1.156-1.219 2.248-1.773 3.397-.687 1.424-1.603 2.733-2.09 4.256-.356 1.115-.363 2.278-.554 3.413-.385 2.292-.06 4.543.172 6.796.222 2.161 1.33 4.01 2.399 5.847a10.26 10.26 0 0 0 1.07 1.51c1.579 1.843 3.488 3.319 5.581 4.492 2.115 1.186 4.226 2.38 6.511 3.278 2.542 1 5.067 1.97 7.764 2.466 2.152.396 4.325.625 6.493.506 1.844-.102 3.685-.447 5.499-.827 1.528-.32 3.03-.8 4.515-1.293 1.992-.66 3.978-1.345 5.925-2.124 3.555-1.423 7.057-2.976 10.621-4.374 3.304-1.296 6.77-1.443 10.269-1.121.699.064 1.404.109 2.094.227 1.282.22 2.666.557 4.048.824-.054-.54-.133-1.12-.275-1.576-.961-3.075-1.752-6.197-3.647-8.924-2.16-3.104-4.459-6.059-7.447-8.402a24.425 24.425 0 0 0-6.546-3.672c-2.655-.997-5.245-2.18-7.812-3.39-2.659-1.254-5.48-1.792-8.358-2.006-1.882-.14-3.789-.005-5.682.071a21.84 21.84 0 0 0-4.496.674c-1.064.27-2.01.75-2.959 1.223-1.771.884-3.504 1.851-5.218 2.843-1.826 1.058-3.452 2.395-5.034 3.784-1.39 1.22-2.79 2.429-4.162 3.67-1.473 1.332-2.923 2.687-4.925 3.327-.691.083-1.444-.043-1.346-.956.277-.216.504-.213.734-.222.607-.026 1.13-.257 1.601-.602.833-.61 1.684-1.204 2.46-1.882 1.92-1.68 3.756-3.45 5.755-5.048 2.682-2.147 5.497-4.057 8.61-5.517.745-.349 1.504-.67 2.237-1.04 1.188-.6 2.462-.901 3.758-1.135 1.49-.268 2.996-.32 4.503-.417 2.076-.135 4.13.012 6.184.222.776.079 1.551.212 2.313.382 2.51.564 4.853 1.579 7.154 2.706 1.102.539 2.229 1.027 3.412 1.57 1.957-5.858 1.243-10.857-.262-16.464-.251-1.004-.753-1.255-.909-1.545.527-.31 1.058-.606 1.57-.93.893-.565 1.84-1.07 2.652-1.737 3.836-3.142 6.72-7.008 8.611-11.597.1-.245.32-.68.37-1.004-.376-.126-1.155-.035-1.38 0-1.774.274-3.07.92-4.602 1.854-.739.452-1.494.881-2.207 1.374-.593.41-.719.41-.468.16.768-.692 1.458-1.249 2.299-1.766 1.92-1.18 3.922-2.224 6.359-1.999-1.79-2.818-3.531-5.47-5.269-8.207.333-.751.641-1.465.964-2.172.46-1.006.494-2.105.46-3.15-.063-1.938-1.243-3.396-2.354-4.861l-.52.335v.001Zm-1.899 77.226c-2.863.781-5.459 2.198-8.253 3.203.63.365 1.26.472 3.262.383 1.664-.074 3.328-.221 4.905-1.02.044-.884.17-1.26.086-2.568v.002Zm2.941-.948-2.252.694-.222 2.554c1.183-.842 2.267-1.571 2.474-3.248Z"/><path fill="#000" d="m34.354 18.956-1.89-4.982c-.193.37-.555 1.007-.932 1.133-.627-.502-.977-1.011-1.56-1.655-.573.4-.866 1.133-1.11 1.758-.857 2.204-1.03 4.475-.322 6.774.172.56.734 1.78.493 1.872-2.018-2.727-1.78-8.282.433-10.715.56-.67.56-.293.873 0 .279.327.792.868 1.192 1.338.295-.306.594-.662.627-1.003 0 0-.234-.837-.372-1.214-.508-1.391-1.12-2.744-1.694-4.11-.206-.49-.415-.981-.62-1.472-.2-.482-.2-1.235.193-.676.615 1.3 1.161 2.379 1.64 3.485.46 1.058.9 2.133 1.298 3.206 1.312 3.541 1.966 5.77 2.035 6.162.029.264.029.515-.286.1h.002ZM47 32.651c-.65.116-.912-.23-1.163-.606-.25-.376-.465-1.72-.232-2.49.232-.772 1.07-.947 1.717-.546.648.401.648 2.66.523 2.91-.126.252-.251.628-.845.732ZM51.387 37.403c.74-1.082 1.96-1.309 2.606-1.217.878.125 1.334.447 1.603 1.172-.5.452-.976.96-1.603 1.337-1.13-.376-1.574-.43-2.606-1.292ZM55.874 28.407c.241-.241.879-.502 1.506.25.468.563.324 2.363.287 2.626-.036.262-.287.637-.538.762-.25.126-.689.275-1.035-.114s-.472-.936-.525-1.451c-.071-.694-.071-1.698.305-2.074ZM47.767 39.941c2.335 2.266 3.532 1.692 5.599 1.312a.534.534 0 0 1 .227.008c1.429.362 2.835.328 3.817-1.18-.03.497-.567 1.256-1.16 1.5-.592.245-1.027.383-2.76 0-.502.126-1.255.377-2.008.377-1.614 0-2.358-.309-3.445-1.49-.13-.139-.319-.392-.27-.525v-.002Z"/><path fill="#000" d="M59.487 34.993c.048-.053-.009-.133-.074-.108-.312.12-.645.28-.741.31-.238-.1-.491-.282-.716-.413-.052-.03-.116.038-.075.082.755.82 1.148 1.888 1.257 3.454.11 1.566-.25 2.635-.878 3.388-1.343 1.546-2.76 2.258-5.27 2.51-.192.003-.395.06-.583.086-.038.005-.058.072-.022.078.478.086.882.109 1.106.086 1.234-.121 2.044-.223 3.088-.89a8.278 8.278 0 0 0 1.93-1.745 5.63 5.63 0 0 0 .588-.952c.418-.895.416-1.933.361-2.906-.047-.83-.38-1.622-.558-2.361.11-.157.381-.393.587-.619ZM56.125 33.886c-.968-.135-1.939-.392-2.902-.367-.958.027-1.74.157-2.992.55-.002-.267 1.133-.728 1.688-.766 1.42-.095 2.882-.316 4.206.583ZM46.714 42.334c-.669-.445-1.255-1.757-1.08-2.86.006-.04.065-.045.076-.004.074.272.168.714.252.982.155.492.3.725.502 1.13.126.25.251.501.377.627 0 0 .25.376-.126.125h-.001Z"/><path stroke="#000" stroke-linecap="round" stroke-linejoin="round" stroke-width="2" d="m54.886 7.237-.374.87M61.73 88.439c.314.503.417 1.143.207 1.597-.272.587-.128 1.09-.083 1.636M58.867 1.019v.373"/><path fill="#9E5FF4" d="M30.78 43.087c-1.288-2.26-1.72-3.795-.289-4.902.905-.699 3.335-.994 4.178-.242 1.277 1.137 1.38 4.266-.376 5.646.604.71 1.57 1.565 2.225 2.227.223.227.643.353.977.363 1.315.039 2.631-.006 3.947.017 1.087.02 1.122.044 1.118 1.24 0 .624.207 1.048.778 1.252 1.392.498 1.834 1.551 1.727 2.921-.11 1.427-1.487 2.52-3.996 2.896 0 0 3.79 6.627 6.092 8.766.474.44 2.593 1.388 2.816 1.774 1.49 2.57-.48 3.262-2.635 3.89-.984.287-3.927-.762-5.144-1.004-1.585-.315-4.276-1.229-5.772-1.882-1.008-.44-1.156-.825-1.286-1.81-.13-.976-.596-5.217-.596-5.217-1.22.447-4.082 1.961-5.34 2.276-.929.234-1.679-.244-2.26-.958-1.414-1.733-2.42-3.693-2.413-5.944.008-2.127.23-4.269.55-6.375.285-1.872 1.326-3.546 2.937-4.43 1.38-.756 2.49-.474 2.76-.505l.002.001Z"/><path fill="#713E25" d="M33.163 43.463c-2.66.13-3.894-1.026-4.012-2.867-.11-1.715 1.535-3.036 3.574-3.051 1.82-.014 3.13 1.175 3.175 2.884.05 1.85-.962 3.009-2.737 3.034Z"/><path fill="#744128" d="M45.265 50.814c-.008 1.927-2.204 3.965-3.822 3.82-.126-.01.364-4.58.627-6.277 0 0 .25-.125 1.063.097 1.3.353 1.875 1.421 2.132 2.36Z"/><path fill="#734027" d="M31.657 53c-1.267.441-3.027.54-4.14-.377-.396-.325-.516-1.284-.377-1.882.112-.479.863-1.232 1.38-1.38 1.757-.502 3.388.126 3.388.126L31.658 53Z"/><path fill="#ECE2FD" d="m41.81 45.848.492.002c.744.929.688 2.162-.084 2.98a1.504 1.504 0 0 0-.39.826c-.12 1.28-.15 2.57-.29 3.847-.033.3-1.873 1.507-2.352.626-.477-.877-1.18-1.806-2.008-2.384-.856-.599-2.678.516-2.885 1.757-.084.504-.067.96-.251 1.129-.31.283-3.407-.138-4.266-.126-.621.009-1.38-.878-1.506-1.255l2.22-.11c1.366-.073 1.37-.2 1.419-1.52.05-1.366.22-2.703.3-4.067l.01-.728.978-.245 1.23-.006c.246-.079.492-.16.738-.238l5.165-.488h1.48Z"/><path fill="#000" d="M50.445 65.457c-.377-1.01-1.108-1.705-1.938-2.323-.428-.319-.946-.557-1.276-.955-1.36-1.639-2.669-3.32-3.984-4.995-.544-.693-1.056-1.412-1.659-2.221.403-.117.639-.158.851-.252.666-.298 1.43-.49 1.964-.95 1.041-.896 1.6-2.095 1.283-3.513-.292-1.305-.848-2.446-2.394-2.661.146-.931.46-1.67-.217-2.368-1.994.08-4.24.046-6.016.118l-1.784-1.875c.293-.719.603-1.386.842-2.078a3.423 3.423 0 0 0-1.531-4.094c-.346-.2-2.05-.727-3.565-.115-1.795.726-2.576 2.6-1.89 4.434.086.228.268.599.519.85-1.173.32-2.384.752-3.137 1.722-.699.901-1.154 1.634-1.631 2.669-.753 1.631-1.093 3.331-1.173 4.363-.082 1.032.044 8.31 4.369 10.266.15.05.237.292.424.537l5.656-2.285c.137 1.378.34 2.756.39 4.14.048 1.285.631 2.165 1.646 2.859 1.434.98 3.078 1.295 4.74 1.577.802.137 1.72.114 2.368.514 1.536.948 3.16.946 4.764.628 1.928-.383 3.194-1.812 2.38-3.99v-.002Zm-5.957-14.844c.154 1.536-.681 2.433-2.852 2.903l.624-4.577c1.602.021 2.103.424 2.228 1.673Zm-2.407-3.96-.843 6.967c-.56.67-1.195.624-1.656.52-.674-.82-1.164-1.576-1.808-2.165-1.03-.942-2.102-.607-2.832.196-.532.585-.65.703-1.026 2.334-1.255.125-3.152.06-4.392-.25-.466-.118-.502-.377-.878-.754 1.506-.125 2.258-.125 3.262-.376.114-1.925.288-4 .403-5.936 1.015-.374 8.612-.806 9.772-.536h-.002Zm-14.819 4.644c.017-.338.006-.527.301-1.05.607-.687 1.1-.844 1.709-.886 1.296-.093 2.18.155 2.506.141l-.206 3.274c-1.08.282-2.19.448-3.309.166-.734-.186-1.046-.775-1.001-1.644v-.001Zm2.366 8.93c-1.322.484-1.704.184-2.52-1.01-.949-1.392-1.416-2.922-1.675-4.563-.394-2.483-.291-4.946.597-7.277.44-1.154.847-1.897 1.736-2.787.377-.376 1.388-.728 1.931-.84.539-.113 1.113-.264 1.911-.388a.107.107 0 0 0 .07-.168c-.348-.48-.555-.728-.821-.979-.927-.877-1.08-2.153-.337-3.212.747-1.064 2.17-1.367 3.262-.875 1.08.489 1.263 1.436 1.232 2.34-.037 1.053-.394 2.1-1.521 2.604-.182.081-.361.167-.538.257-.032.017-.045.068-.1.154.866.934 2.491 1.075 2.905 2.71l-3.8.421-.171 2.707c-.757-.23-1.885-.368-2.55-.259-.711.117-1.666.407-2.065 1.458-.416.661-.36 1.719.185 2.279.53.545 1.052 1.099 1.766 1.845.782.082 2.61.24 2.884.3.273.06.273.06.057.16-.484.202-.975.39-1.45.61-.393.181-.887.436-1.198.657-.066.046-.033.183.044.158.813-.27 1.335-.47 1.997-.698a43.952 43.952 0 0 0 2.454-.952c0 1.13.145 2.144.309 3.307-1.56.703-3.04 1.472-4.594 2.04v.002Zm13.563 7.025c-1.37.246-2.753-.157-4.11-.589-.809-.256-1.587-.64-2.332-1.049-.646-.354-.934-.952-1.008-1.722-.16-1.664-.419-2.595-.697-4.243-.132-.781-.528-2.244-.629-3.026-.125-.967-.203-1.995-.009-2.935.217-1.049 1.013-1.753 2.211-1.991.687.048 1.422.807 1.808 1.578a69.799 69.799 0 0 1 2.064 4.442c.788 1.892 1.594 3.763 2.77 5.458.925 1.336 1.195 2.372.944 2.999-.257.524-.502.878-1.011 1.079l-.001-.001Zm.384.175c.25 0 .47-.29.623-.453.535-.568.664-1.237.39-1.943-.266-.688-.53-1.4-.94-2.003-1.674-2.471-2.755-5.218-3.81-7.98-.038-.099-.152-.418-.005-.556 1.026 1.47 1.925 2.787 2.855 4.08 1.563 2.175 3.223 4.244 5.445 5.823.557.395 1.13.587 1.522 1.474.16.364.128.783-.085 1.12-1.12 1.775-3.803 1.873-5.995.44v-.002Z"/><path fill="#BBDE8A" d="M89.659 74.978c-1.394.033-2.79.036-4.18.12-.299.02-1.306-.258-1.373-.017-.464 1.67-.775 3.951-1.129 5.647-.173.83.03 1.407-.99 1.256-.243-.407-.5-.806-.725-1.222-.126-.23-.324-.511-.281-.728.47-2.376.98-4.742 1.48-7.11.43-.634-.126-.614-.481-.727l-.245-1.202c-.218-.31-.374-.714-.668-.916-1.334-.92-2.488-.718-3.686.574-.248.268-.486.3-.713.098.11-.379.226-.756.33-1.138.585-2.17 1.126-3.408.456-5.7 1.048 0 2.34-.125 3.388-.125-.233 1.381.129 1.667 1.375 2.38.106.23.163.51.331.679.42.425.896.793 1.334 1.2.258.24.44.61.738.747 1.228.565 1.573 1.48 1.489 2.792-.092 1.407.865 2.232 2.319 2.31.426.023.848.154 1.272.234l-.044.847.003.001Z"/><path fill="#A4D5C9" d="M83.182 57.723c.383-1.533.77-3.065 1.147-4.6.182-.739.29-1.5.544-2.212.092-.258.518-.582.774-.567 2.955.17 5.906.426 8.861.6.776.046 1.077.176.859 1.056-.507 2.054-.903 4.135-1.343 6.205-.398-.16-.794-.322-1.192-.483-1.275-2.359-4.533-3.045-6.393-1.095-1.022 1.071-1.938 1.416-3.258 1.095v.001ZM77.989 44.075c2.953-.02 2.982-.015 2.427 2.832a262.463 262.463 0 0 1-1.737 8.214c-.07.308-.529.732-.823.746-1.158.053-2.323-.034-3.483-.07-.012-.199.01-.407-.04-.595-.481-1.778-.193-3.258 1.393-4.433.846-.628 1.687-1.38 1.78-2.581.161-1.047.322-2.092.481-3.138v-.975h.002Z"/><path fill="#AED9B6" d="M68.55 70.033c.376-1.905.726-3.816 1.136-5.713.329-1.522.267-.793 1.873-.78 1.354.01 2.913.101 4.266.125-.002 1.096-.118 1.405-.12 2.503-.601.002-1.394-.235-1.76.059-.672.54-1.092 1.391-1.618 2.113l-1.689 3.137c-.409-.259-.824-.505-1.223-.778-.3-.206-.578-.443-.866-.666Z"/><path fill="#A7D6BA" d="M66.088 53.14c.561-2.927 1.105-5.857 1.713-8.774.054-.261.516-.586.816-.617.666-.07 1.35.027 2.027.057l-.248 4.265c-.635.86.05 1.52.394 2.183.372.72.258 1.17-.408 1.604-1.312.85-2.709 1.366-4.292 1.282h-.002Z"/><path fill="#A7D6C2" d="m80.283 81.857-6.508-.102 1.447-4.968c.44-.156.953-.538 1.306-.424 1.273.41 2.258.032 3.194-.786.145-.126.44-.15.64-.105.08.017.153.355.127.53a58.048 58.048 0 0 1-.525 3.048c-.075.367-.286.705-.435 1.057-.286-.23-.567-.467-.862-.685-.18-.133-.385-.234-.578-.35-.07.13-.217.277-.194.385.067.29.13.665.337.82.267.199.67.3 1.014.298.925-.005 1.169.471 1.036 1.285l.001-.003Z"/><path fill="#B0DAAA" d="m70.638 71.477 1.689-3.137c.027.516.139 1.044.062 1.544-.111.727.097.99.805.782.582-.17 1.154-.367 1.545.329-1.444-.148-2.749.324-3.238 1.657-.279.76-.646 1.36-1.104 1.963l-.241 1.93-.73 5.026c-.76.005-1.519.007-2.279.014-.63.005-.82-.226-.675-.895.49-2.26.912-4.533 1.361-6.802.707-.08 1.428-.101 2.115-.268.27-.066.463-.453.691-.694.17-.323.85-.644 0-.965v-.483l-.001-.001Z"/><path fill="#A6D6BE" d="M83.182 57.723c1.32.321 2.236-.024 3.259-1.095 1.86-1.95 5.118-1.264 6.392 1.095 0 .082 0 .163-.002.244-.148-.046-.361-.044-.437-.145-.691-.928-1.03-.54-1.263.316-.073.265-.152.529-.229.792l-.24.242c-1.186.599-2.346.61-3.44-.205-1.422-1.06-1.586-1.014-2.146.736-.096.296-.137.61-.204.916h-1.446c-.244-.24-.487-.482-.73-.724l.487-2.17v-.002Z"/><path fill="#A6D6B6" d="M66.087 53.14c1.584.084 2.982-.432 4.293-1.282.666-.432.78-.885.407-1.604-.342-.662-1.027-1.322-.394-2.183l1.69 1.45v4.342l-.726 1.91c-1.635-.003-3.187-.544-4.822-.515-.789.014-1.083.246-.837-.495.175-.525.261-1.08.387-1.622l.002-.001Z"/><path fill="#A7D6BA" d="M80.283 81.857c.133-.815-.109-1.29-1.036-1.285-.344.001-.746-.1-1.014-.299-.206-.153-.27-.528-.336-.82-.025-.107.123-.254.193-.383.193.115.398.216.579.349.294.217.576.455.862.685.149-.352.36-.69.435-1.057.208-1.008.37-2.029.525-3.047.026-.176-.047-.514-.127-.531-.201-.044-.496-.02-.64.105-.936.82-1.921 1.196-3.195.786-.353-.114-.867.27-1.306.424V76.3c.247-.995.54-1.796 1.907-1.318.667.234 1.47.136 2.202.082.249-.018.674-.355.678-.553.025-1.343.814-1.97 1.971-2.314l.48.726c-.499 2.37-1.01 4.736-1.479 7.11-.042.218.156.499.281.728.226.416.482.816.726 1.223l-1.702-.128h-.004Z"/><path fill="#B6DC9C" d="M87.278 38.012c2.223.133 4.447.246 6.666.433.202.017.548.545.512.789-.143.938-.413 1.858-.636 2.784-.502-.085-1.007-.16-1.505-.26-.726-.145-1.462-.473-2.17-.421-.886.065-1.748.439-2.62.679.335-.488.612-1.033 1.02-1.45.38-.387.538-.57-.11-.77-.866-.267-1.3-.848-1.156-1.787l-.001.003Z"/><path fill="#ADD8AE" d="M87.524 42.018c.872-.24 1.736-.614 2.62-.679.71-.053 1.444.276 2.17.422.5.099 1.004.174 1.505.26l-.097.954c-1.704.032-2.225.372-2.33 1.554-.032.355-.012.714-.016 1.071l-5.067-.228c.027-1.255.126-2.483 1.214-3.353l.001-.001Z"/><path fill="#ABD8B2" d="M75.222 76.303v.483l-1.447 4.968-2.655-.162c.18-1.22.329-2.444.544-3.657.275-1.55.027-1.797-1.508-1.39l.241-1.931c.83.31 1.674.592 2.488.94.758.323 1.347 1.15 2.337.747v.002Z"/><path fill="#B2DBA0" d="M75.705 66.167c.002-1.096-.133-1.405-.13-2.503.64.039 1.366-.039 2.007 0 .67 2.292.004 3.78-.582 5.951-.103.382-.22.758-.329 1.138h-.24c-1.794-.285-1.867-.41-1.371-2.084.245-.825.433-1.667.646-2.502h-.001Z"/><path fill="#B0D9A6" d="m72.086 49.52-1.69-1.45.248-4.264 5.062.217-.242 1.153c-.265.056-.533.17-.796.16-1.414-.058-1.623.083-2.099 1.529l-.483 2.655Z"/><path fill="#BBDE8A" d="M87.523 42.018c-1.088.87-1.187 2.1-1.215 3.353-.198.008-.398.03-.595.025-1.139-.03-1.24-.146-.994-1.267.38-1.745.803-3.48 1.158-5.229.17-.84.57-1.166 1.401-.888-.144.938.29 1.52 1.156 1.786.648.201.49.382.11.77-.408.417-.686.962-1.02 1.45h-.001Z"/><path fill="#B0D9A6" d="m81.99 62.811.512-2.192.924-.002c.482.582.963.86 1.447.001.463.064.928.113 1.387.194 1.138.204 2.246.743 3.438.289-.89 1.526-2.855 1.87-4.063 1.117-.796-.497-1.14-.299-1.243.57l-.726 2.412c-.165-.137-.374-.245-.485-.416-.415-.648-.798-1.315-1.192-1.975v.002Z"/><path fill="#A7D6C2" d="m71.359 55.773.726-1.91c.954-.833 2.303-1.367 2.245-2.971-.004-.097.1-.225.19-.291 1.035-.768 2.075-1.527 3.112-2.289-.094 1.202-.934 1.954-1.78 2.581-1.586 1.176-1.876 2.655-1.394 4.433.052.188.029.398.04.596l-3.14-.15Z"/><path fill="#A7D6BA" d="m92.84 64.001-1.49 7.475-.942.726c-.033-.57-.161-1.153-.08-1.707.23-1.61.543-3.206.824-4.807l.956-3.14c.243.485.488.969.731 1.452l.002.001ZM70.156 76.544c1.534-.406 1.784-.16 1.508 1.39-.216 1.214-.365 2.438-.545 3.658l-1.694-.023.73-5.025Z"/><path fill="#B2DBA0" d="M81.99 62.811c.395.66.777 1.327 1.192 1.975.11.172.32.28.484.416-.066.95-.702 1.04-1.448.967-1.246-.713-1.733-1-1.5-2.38.402-.06.869-.919 1.272-.978Z"/><path fill="#A4D5C9" d="M91.376 45.599c.003-.358-.017-.716.014-1.071.106-1.182.627-1.523 2.33-1.554-.052.306-.101.612-.156.917-.232 1.288-.961 1.857-2.188 1.707v.001Z"/><path fill="#B2DBA0" d="M70.638 72.924c-.229.241-.42.629-.692.694-.686.167-1.406.188-2.114.269l.62-2.9 1.462 1.213.724.724Z"/><path fill="#A6D6BE" d="m92.84 64.001-.73-1.452.25-2.17.468-1.446.005-.245.979.489L92.841 64Z"/><path fill="#A7D6C2" d="m90.408 72.202.943-.727c-.16.96-.33 1.92-.476 2.882-.12.792-.625.783-1.218.621l.044-.847c.236-.643.471-1.286.709-1.93h-.002Z"/><path fill="#ABD8B2" d="m75.463 45.176.243-1.153 2.409.177v.975c-.884 0-1.768 0-2.652.002Z"/><path fill="#ADD8AE" d="m69.913 72.2-1.461-1.213.095-.955c.287.224.566.462.866.666.399.273.815.52 1.223.778v.484l-.724.24h.001Z"/><path fill="#A7D6C2" d="m93.813 59.176-.978-.488-.003-.721c0-.082.001-.164.003-.244.397.16.794.323 1.192.483-.07.324-.142.648-.213.971Z"/><path fill="#ABD8B2" d="m83.426 60.618-.923.002.192-.726.73.724h.001Z"/><path fill="#B4DC94" d="M90.41 72.202c-.236.644-.471 1.286-.709 1.93-.424-.08-.845-.211-1.272-.234-1.454-.078-2.41-.903-2.319-2.31.086-1.315-.26-2.228-1.489-2.793-.297-.136-.48-.508-.738-.746-.439-.407-.914-.776-1.334-1.201-.166-.17-.223-.45-.33-.679.746.074 1.382-.017 1.447-.966l.727-2.412c1.076.08 2.104.236 2.927 1.076.222.227.764.375 1.045.266.865-.334 1.341.135 1.85.663.298.312.624.595.938.891-.28 1.601-.595 3.199-.824 4.807-.08.554.047 1.137.08 1.708h.001Z"/><path fill="#ADD8AE" d="M75.22 76.302c-.99.403-1.578-.424-2.336-.748-.814-.348-1.657-.63-2.488-.94.458-.603.824-1.202 1.104-1.962.49-1.333 1.794-1.806 3.239-1.658v1.448l-1.412 1.303c.492.258.961.63 1.483.734.314.061.794-.217 1.048-.486.345-.365.547-.867.81-1.31.74-1.025 1.847-1.21 2.961-1.11.59.053 1.063.236 1.456-.378.093-.144.425-.135.649-.197l.244 1.203c-1.155.344-1.946.972-1.97 2.314-.005.198-.43.536-.678.553-.733.054-1.536.152-2.202-.081-1.367-.478-1.66.322-1.908 1.317v-.002Z"/><path fill="#B4DC94" d="M81.736 70.996c-.223.061-.556.051-.65.197-.393.614-.865.43-1.455.378-1.114-.1-2.222.085-2.962 1.11l-.48-.48.238-.724.002-.725h.24c.227.203.464.17.713-.097 1.198-1.291 2.351-1.493 3.686-.575.294.202.448.605.668.916Z"/><path fill="#ADD8AE" d="m82.459 72.924-.481-.726c.355.113.911.093.48.726Z"/><path fill="#A7D6BA" d="M75.463 45.176h2.652c-.161 1.046-.322 2.09-.481 3.137-1.039.762-2.078 1.521-3.112 2.289-.089.067-.193.196-.19.291.057 1.605-1.291 2.138-2.245 2.971v-4.341l.483-2.655c.896-.18 1.307.263 1.444 1.098.026.162.17.305.259.456.123-.139.31-.257.36-.419.295-.936.557-1.882.832-2.824l-.002-.003Z"/><path fill="#B0D9A6" d="m76.43 70.753-.002.724c-.563-.16-1.125-.322-1.688-.483-.391-.697-.964-.5-1.546-.33-.709.21-.916-.054-.804-.78.076-.5-.035-1.03-.063-1.545.525-.722.945-1.575 1.618-2.113.366-.294 1.159-.057 1.76-.06-.213.835-.402 1.677-.646 2.503-.495 1.672-.423 1.798 1.371 2.084ZM69.914 72.2l.724-.24c.85.32.17.643 0 .964l-.724-.724Z"/><path fill="#ABD8B2" d="M89.7 61.104c-1.193.454-2.301-.086-3.438-.289-.459-.083-.924-.13-1.388-.194.067-.307.108-.62.204-.916.562-1.75.724-1.797 2.147-.737 1.094.816 2.253.803 3.44.206l-.483 1.447-.482.483Z"/><path fill="#B0D9A6" d="m90.181 60.62.483-1.447.24-.242 1.925.002-.468 1.447-2.18.24Z"/><path fill="#ABD8B2" d="m92.829 58.933-1.925-.002c.076-.264.155-.527.228-.792.233-.856.572-1.245 1.264-.316.075.1.287.1.436.144 0 .241.002.48.003.722l-.005.244h-.001ZM84.873 60.62c-.483.86-.965.58-1.447 0h1.447ZM75.465 45.176c-.274.943-.538 1.889-.832 2.825-.052.162-.238.28-.36.419-.09-.152-.231-.295-.259-.457-.137-.834-.548-1.277-1.444-1.098.475-1.447.685-1.588 2.099-1.53.262.012.53-.102.796-.159Z"/><path fill="#B6DC9C" d="m90.18 60.619 2.18-.24c-.085.723-.168 1.446-.252 2.17l-.956 3.14c-.314-.297-.64-.582-.939-.892-.508-.528-.984-.997-1.849-.663-.282.109-.823-.04-1.045-.267-.823-.839-1.85-.996-2.927-1.075.103-.87.448-1.068 1.243-.57 1.207.752 3.172.408 4.063-1.117l.482-.483v-.003Z"/><path fill="#B0D9A6" d="M76.188 72.2c.16.161.321.32.48.481-.263.443-.464.945-.809 1.31-.254.269-.735.547-1.047.486-.522-.103-.992-.476-1.483-.734l1.411-1.303 1.448-.24Z"/><path fill="#B0DAAA" d="m76.189 72.2-1.448.241v-1.446c.562.16 1.124.32 1.687.483l-.238.724-.001-.002Z"/><path fill="#2F5965" d="M65.891 82.156c.197-1.125 3.535-19.37 3.535-19.37 3.44.036 7.86.136 11.301.145h1.103l2.81-12.941c3.706.359 7.352.423 11.1.74-.142.951-3.378 17.293-4.062 20.774-.22 1.12-.796 4.08-.796 4.08a425.95 425.95 0 0 0-5.515-.036h-.95c-.198 1.133-.392 2.25-.584 3.367-.174 1.006-.552 2.817-.73 3.822 0 0-3.624-.187-5.05-.215-2.499-.05-4.997-.031-7.495-.093-1.502-.037-3.003-.172-4.668-.272l.001-.001Zm13.805-6.864c.224-1.254.434-2.372.622-3.494.358-2.134.71-4.27 1.048-6.408.08-.508-.142-.736-.683-.78-.163-.014-.327-.004-.492-.004-2.54-.009-5.079-.019-7.618-.026-.561-.002-1.123 0-1.679 0-.506 2.763-.944 5.419-1.486 8.052-.577 2.805-1.362 7.346-1.362 8.098 4.514.42 9.2.33 13.744.301.294-1.574.797-4.09 1.061-5.57 0 0-2.42-.077-3.155-.167v-.002Zm6.794-12.254c-.285 1.882-1.505 9.034-1.756 10.916 1.367 0 4.767.125 4.767.125.537-2.682 2.63-13.566 2.973-15.203.474-2.256.972-4.508 1.483-6.867l-8.088-.489-2.281 11.346c.952.131 1.897.032 2.902.17v.002Zm-3.429 10.75c.472-3.039 1.17-5.983 1.547-9.12-1.124-.062-1.345.012-1.486.922-.112.725-.218 1.451-.338 2.175-.295 1.77-1.062 5.68-1.062 5.939.436 0 .951.085 1.339.085v-.001Z"/><path fill="#315A66" d="M81.095 43.84c-.165 1.104-.412 2.186-.616 3.214-.412 2.08-.872 4.15-1.315 6.224-.162.757-.327 1.98-.578 2.733 0 0-.88-.032-1.126-.035-2.25-.025-4.503-.02-6.754-.084-1.823-.051-3.726-.154-5.672-.257.125-.753.28-1.586.421-2.334.486-2.562.988-5.121 1.495-7.68.134-.68.293-1.736.468-2.408 0 0 1.965.07 2.57.094 2.816.113 5.632.199 8.446.32.77.032 1.666.112 2.66.214l.001-.002Zm-1.82 1.243-10.611-.385c-.13.857-.22 1.622-.367 2.376-.433 2.241-1.129 5.047-1.505 7.305 0 0 4.316.126 5.666.167 1.384.043 4.873.084 4.873.084.301-1.435.776-3.528 1.067-4.966.298-1.476.567-2.959.876-4.58v-.001Z"/><path fill="#315A67" d="M85.843 37.886c.244-.02 8.3.44 9.03.53l-1.506 7.556-9.257-.466 1.733-7.618v-.002Zm6.29 6.633c.31-1.624.705-3.37 1.006-4.945-1.882-.251-4.392-.376-6.108-.392l-1.113 5.06c.775.105 4.74.276 6.216.276Z"/></svg>