<!-- This Source Code Form is subject to the terms of the Mozilla Public
   - License, v. 2.0. If a copy of the MPL was not distributed with this
   - file, You can obtain one at http://mozilla.org/MPL/2.0/. -->
<svg xmlns="http://www.w3.org/2000/svg" width="100" height="100" fill="none"><path fill="#FEA619" d="M36.217 6.91c6.653.998 9.033 3.754 10.644 4.21 3.688 1.043 8.5-1.629 11.974-2.659-.14 2.791-1.059 6.105-2.294 8.625-.767 1.565-3.915 5.33-3.915 5.33.304 2.122 3.745 2.51 5.124 2.157 1.47-.377 1.272-.465 1.536-2.034.325-1.923 1.067-9.377 1.878-9.537 1.025-.2 3.481 4.497 4.213 5.095 1.059.864 2.19.572 3.104 1.772 1.57 2.06.914 4.03 1.774 6.313 1.074 2.85 4.97 9.042 6.542 11.63 1.205 1.982 1.416 1.734.443 4.097-1.33 2.215-4.7 5.288-6.541 6.978-2.179 2-10.977 9.636-10.977 9.636 1.885 5.174 9.113 8.672 12.75 12.183 2.885 2.783 3.518 8.428-.997 9.303-7.429 1.44-14.5-4.137-14.968-3.544-2.883 3.655-2.079 4.658-6.652 4.43-2.218-.11-3.881-2.326-6.764-4.652-.11.997-1.355 4.674-4.324 4.652-4.974-.038-9.697-4.549-12.196-8.417-1.37-2.122-2.833-5.886-3.548-8.307-.449-1.518.232-2.926.111-3.987 0 0-.86-.964-1.441-1.661-.882-1.057-1.663-1.662-2.661-2.659-2.772 2.88-3.657 7.636-2.655 11.077.947 3.25 5.76 12.625 1.99 12.957-1.748 1-5.76.7-7.54 0-2.476-.972-3.893-4.775-4.878-7.088C3.574 67.24 1.872 59.887 3.62 53.87c1.714-5.9-1.153-10.277.525-16.321.423-1.527 2.247-5.68 2.802-7.158 0 0-4.103-2.99-2.5-9.114.759-2.898 2.083-5.93 4.456-7.885 1.98-1.631 6.25-4.739 8.798-4.93-.201 1.136-2.439 3.766-2.883 4.43 6.099-4.319 13.423-7.175 21.4-5.98v-.001Z"/><path fill="#FE6B2A" d="m43.372 27.189-.9.02c-1.447-.464-2.708-.473-2.174-4.358.322-1.325 1.362-8.795 3.458-6.747.887.867 1.01 4.076 1.124 5.274.225 2.349-.204 3.913-1.509 5.811h.001Z"/><path fill="#FE7C01" d="M15.639 11.873c.67-.295 1.347-.578 2.009-.89.41-.192.799-.43 1.198-.647l.16.214c-1.126 2.404-2.31 4.678-1.776 7.415.601 3.09 1.83 4.002 4.684 4.23 2.293.183 5.264.813 7.317 1.883 2.226 1.16 3.26 2.325 5.825 2.803 2.34.438 4.777.132 7.059-.47 2.276-.6 3.264-1.64 3.966.78 1.47 5.073 3.52 9.568 6.69 13.842 1.115 1.503 4.265 4.016 3.679 6.117-.532 1.905-3.741 3.634-5.135 4.948a55.266 55.266 0 0 0-5.236 5.648c-1.48 1.849-2.177 2.067-4.614 2.365-1.92.235-4.441.905-4.61 3.343-.137 1.999 2.648 4.4 3.833 5.946 1.661 2.163 3.35 4.3 4.902 6.541 1.538 2.223 3.154 3.007 5.243 4.553-1.998.67-4.432-1.156-5.908-2.419-.711-.607-1.424-1.754-2.157-1.413-.448.21.21 1.352-1.697 2.945-3.905 3.26-9.747-.931-12.34-3.879-1.809-2.057-3.348-4.538-4.494-7.02a20.114 20.114 0 0 1-1.252-3.481c-.391-1.538.104-3.572-.185-5.044-.21-1.066-2.728-4.085-3.933-3.96-.732.075-1.587 2.561-1.865 3.1-.868 1.678-1.45 2.917-1.195 4.83.363 2.722 1.67 5.503 2.539 8.097.767 2.288 2.522 5.537.333 7.597-1.696 1.595-5.161 1.015-7.152.365-2.961-.968-4.204-3.407-5.353-6.132-2.187-5.194-4.371-12.32-3.381-17.976.221-1.265.794-2.417 1.062-3.66.332-1.54.095-3.188.002-4.75-.203-3.386-.71-6.949.032-10.294.33-1.488 2-4.291 2.612-5.68.93-2.108-.279-1.049-1.342-3.03-1.48-2.756-1.591-5.3-.712-8.278.868-2.936 2.021-5.687 4.46-7.658 2.07-1.674 5.724-3.806 8.389-4.025-.433 1.131-1.034 2.11-1.639 3.162l-.02-.016.002-.002Zm24.977 22.26c.063-.03.126-.062.188-.093-.117-.128-.239-.134-.367-.014l.179.107Z"/><path fill="#FE7E04" d="M61.9 61.971c-1.185 4.316-2.243 8.452-3.087 12.877-.363 1.906-1.318 3.435-2.736 1.076-.347-2.117-.884-4.148-1.778-5.93-.775-1.545-2.228-4.383-3.337-5.712 0 0 2.108-1.3 3.548-2.215 1.206-.767 3.812-3.363 5.211-3.544 0 0 1.385 2.158 2.18 3.448Z"/><path fill="#FE7C01" d="m18.845 10.336.276-.039-.117.254-.16-.215Z"/><path fill="#FE8E25" d="m40.617 34.133-.179-.107c.127-.12.25-.114.367.014l-.188.093Z"/><path fill="#FEEDD3" d="M50.577 42.337c1.049.425 3.157 1.455 4.376 2.341.111-1.107 1.531-2.744 2.543-3.361 1.036-.63 2.403-1.026 3.6-1.165 1.012-.119 2.417-.124 3.392.207 1.059.359 2.37 1.532 2.661 2.215 0 0 3.275-2.11 4.546-2.547 1.253-.43 5.211-1.33 6.209.443.345 1.386-3.225 4.736-4.008 5.576-1.843 1.977-3.968 3.683-6.036 5.413-2.731 2.286-5.666 4.605-8.472 6.841-1.644 1.31-3.083 2.65-4.84 3.782-2.163 1.394-3.175 2.317-5.088.483-1.078-1.034-1.786-2.275-3.297-2.694-.675-.188-3.34.11-3.184-.242.443-.997 1.036-2.558 1.286-3.462.636-2.303.449-5.323-.898-7.377-1.35-2.06-4.832-4.823-6.043-6.992 0 0 1.486-1.415 5.233-1.482 3.748-.068 5.479.989 8.02 2.02v.001Z"/><path fill="#FEEDD4" d="M46.416 28.287c-.49.748-2.928 2.98-3.983 2.912-1.326-.084-2.19-2.252-2.562-3.204-.608-1.56-1.215-4.692-.55-6.907.984.09 1.885.665 3.438 1.55.887-1.329 1.33-2.768 1.995-3.322.666 2.104 1.467 7.66 1.663 8.971Z"/><path fill="#FE9A95" d="M31.43 64.296c-3.087.318-6.19-2.997-7.966-4.112-2.076-1.305-3.499-2.246-4.346-4.606 5.566 2.059 8.24.978 10.112 1.172 1.441.111.979 1.31 1.308 3.147.26 1.45.418 3 .892 4.4Z"/><path fill="#FEEDD4" d="M31.773 17.533c-1.56-.51-2.973-1.051-4.443-1.788 2.827-2.566 5.374-2.034 8.547-.507-1.362 1.18-2.44 1.693-4.104 2.295Z"/><path fill="#FEEED5" d="M69.763 25.76c-.004.022-.262.315-.286.423-1.33-2.77-2.55-4.763-4.324-8.196 3.607.332 4.286 4.894 4.61 7.774Z"/><path fill="#FEF8EE" d="m60.327 15.102.336-1.725c.377.102-.05 1.504-.097 1.769l-.24-.044Z"/><path fill="#FEEDD4" d="M56.867 9.256c-2.913.93-6.369 2.43-9.498 1.772-1.56-.329-2.84-1.495-4.28-2.17-1.642-.77-3.377-1.21-5.15-1.564-3.554-.707-9.538 2.866-9.66 2.962.123.058 7.054 2.24 10.335 3.738 1.438.657 2.257 1.113 3.588 1.445.221-.996.327-1.554 1.185-1.681.544-.08 1.215.492 1.611.769 1.277.896 2.313 2.327 3.395 3.445.908.938 2.468 3.434 3.693 3.832 2.053.67 4.358-4.917 5.11-6.634.649-1.483 1.759-3.605 1.748-5.27-.013-1.717-.268-1.222-2.078-.645h.001Z"/><path fill="#FE9A95" d="M42.537 59.741c.31-.514.392-.597.577-.92 1.925-3.347 2.07-6.709.01-10.047-.296-.478-.81-.822-1.22-1.23-1.323-1.316-4.998-5.517-4.801-5.636 1.109-.664 2.707-1.396 3.88-1.55 4.065-.533 7.433 1.074 11.088 2.547.975.393 2.106 1.218 2.883 1.772.178.311.026.865.163 1.237.724 1.975 1.701 3.506 4.05 3.969.514.102 2.771.221 2.771.221-.997.333-1.317.836-1.6 1.303-2.01 3.288-3.983 6.6-6.059 9.845-.55.861-1.401 1.54-2.154 2.259-.693.662-1.283.349-1.938-.228-.204-.18-1.629-1.88-1.774-2.104-1.416-2.195-5.334-1.44-5.876-1.44v.002Z"/><path fill="#FE9B95" d="M46.749 16.215c-.395-.496-.096-.474.44-.55 3.73-.52 6.193-2.959 8.636-5.52.668-.702 1.771-.99 2.692-1.434.017-.009.369.426.347.63-.096.883-.16 1.795-.438 2.629-1.22 3.663-2.839 7.46-5.691 10.225a11.028 11.028 0 0 1-1.806-1.934c-.476-.648-3.368-3.022-4.182-4.046h.002Z"/><path fill="#FEA19C" d="M44.898 20.13c.22.854.685 2.59.852 3.395.332 1.592.372 3.163.666 4.762 0 0-.998 1.44-2.365 2.2-.083-.101-.213-.84-.185-1.535.11-2.77.723-3.814 1.013-6.077.112-.867.018-1.76.018-2.745Z"/><path fill="#FEE2E1" d="m60.99 13.445-.197.318c-.075-.047-.21-.094-.21-.139a.434.434 0 0 1 .125-.282c.03-.028.163.057.28.103h.002Z"/><path fill="#000" d="M64.466 42.635c-.532 1.158-.865 1.38-1.974 1.933-.706-.213-1.936-.755-2.439-1.661a6.727 6.727 0 0 1 4.413-.272ZM56.032 37.002c1.29.434 1.572.716 1.491 1.45-.076.69-.414 1.227-1.017 1.132-.495-.079-.868-.838-.887-1.108-.02-.27-.176-.92.413-1.474ZM65.677 36.322c.376.816.525 2.063 0 2.385-.523.323-1.123.071-1.3-.49-.268-.847.051-1.336 1.3-1.895ZM67.814 45.232c-.221 2.88-1.95 4.288-4.032 4.81-.958.24-1.943.444-2.934-.035.591-.026 1.183-.04 1.773-.083 2.27-.163 3.854-1.276 4.693-3.41.08-.203.278-.617.278-1.282h.222Z"/><path fill="#000" d="M59.852 47.261c.967-.536 1.81-1.112 2.864-1.697.748.534 1.576 1.076 2.283 1.58.267.193-.066.193-.287.082-.222-.111-1.233-.822-1.996-1.33-.958.496-2.107 1.33-2.55 1.44-.444.111-.444 0-.314-.075ZM58.87 40.823c-.258.2-.918.422-1.366.644-.244.09-.286.026-.088-.209.199-.234.973-.58 1.362-.629.389-.048.35-.006.093.194h-.001Z"/><path fill="#000" d="M67.899 52.184c3.514-2.856 6.837-5.898 9.39-9.688.468-.693 1.036-1.316 1.557-1.97-.026-.108-.519-1.07-.754-1.47a2409.69 2409.69 0 0 1-3.193-5.414c-1.398-2.377-2.813-4.744-4.173-7.142-.234-.413-.258-.955-.335-1.445-.142-.915-.202-1.845-.383-2.752-.51-2.55-2.066-4.168-4.372-4.872-1.11-1.56-2.165-2.99-3.157-4.463-.372-.553-.784-.83-1.393-.73a.86.86 0 0 0-.658.526c-.232.563-.376 1.357-.487 2.014-.454 2.686-1.36 8.722-1.439 8.967-1.411.102-2.77.176-4.061.27-.426-.561-.74-1.023-1.26-1.71.385-.318.637-.623.845-.928.896-1.308 1.798-2.618 2.597-3.986 1.343-2.298 2.252-4.77 2.674-7.406.106-.66.152-1.312-.135-1.937a.175.175 0 0 0-.159-.101 1.223 1.223 0 0 0-.405.08c-2.84 1.213-5.817 1.933-8.848 2.444-1.28.215-2.782.236-3.887-.679-3.437-2.104-7.038-3.108-10.396-3.446-1.84-.185-3.864-.017-5.68.123-2.925.229-5.546 1.01-8.239 2.157-1.638.699-4.962 2.57-5.052 2.648 0 0 .48-.774.642-1.008.37-.54.757-1.075 1.193-1.563.81-.906.921-1.127.062-.993-.436.114-.89.197-1.317.35-2.572.928-4.975 2.164-7.282 3.65-2.15 1.387-3.72 3.167-4.599 5.538a46.608 46.608 0 0 0-1.329 4.216c-.331 1.243-.512 2.521-.214 3.812.448 1.94 1.084 3.786 2.587 5.225-.005.053.009.137-.02.203-.106.249-.216.497-.342.737-1.84 3.54-2.79 7.307-2.765 11.293.013 2.096.066 4.19.44 6.276.244 1.354.418 2.797-.277 4.12-.824 1.569-.981 3.276-1.028 4.99-.08 2.945.576 5.799 1.235 8.639.36 1.55.864 3.069 1.369 4.58.576 1.73 1.163 3.464 1.867 5.144.352.84.82 1.762 1.505 2.311 3.096 2.48 6.542 3.275 10.361 1.767 1.454-.574 2.036-1.515 1.828-3.074-.244-1.828-.867-3.546-1.595-5.216-1.012-2.325-1.803-4.718-2.207-7.21-.227-1.403-.446-2.899.222-4.253.685-1.391 1.509-2.712 2.246-4.02l3.416 3.49c-.095.802-.343 1.688-.276 2.549.165 2.15.866 4.184 1.766 6.132 1.346 2.912 3.155 5.517 5.294 7.915 2.08 2.33 4.654 3.731 7.682 4.272 1.208.216 2.488.322 3.673-.284 1.512-.773 2.367-2.034 2.773-3.875.364.413.632.732.916 1.035 1.184 1.262 2.484 2.363 4.165 2.907.659.213 1.334.376 2.001.562h.703c.661-.21 1.327-.407 1.983-.633 1.294-.447 2.114-1.392 2.675-2.594.213-.456.398-.925.536-1.246 2.373 1.009 4.738 2.088 7.16 3.012 1.188.453 2.481.844 3.733.868 1.806.033 3.695.022 5.336-.942 2.154-1.265 2.775-2.934 2.373-5.439-.476-2.96-2.29-4.95-4.637-6.56-1.28-.88-2.636-1.65-3.928-2.513-2.718-1.819-4.41-4.358-6.148-7.143 1.663-1.218 3.38-2.537 4.863-3.97.833-.805 1.855-1.411 2.76-2.147h.002Zm1.235-27.226-3.372-6.08c1.936.157 3.652 3.106 3.372 6.08Zm-27.1 52.63c-.13 1.095-1.447 2.188-2.742 2.417.14-.764.324-1.498.395-2.24.14-1.471.079-2.299-.11-2.323.034 1.557-.064 3.087-.744 4.605-.8.08-1.622.077-2.467-.137-2.735-.691-4.893-2.17-6.715-4.335-1.845-2.192-3.427-4.525-4.617-7.113-.812-1.765-1.563-3.578-1.549-5.575.005-.726.15-1.45.233-2.202.248.07.633.424.915.647a.432.432 0 0 0 .056.07c1.593 1.392 4.304 2.936 6.393 3.424.178.108.343.222.437.379.827 1.389 2.059 2.382 3.466 2.986 2.525 1.083 4.249 2.94 5.718 5.135.194.292.384.594.624.844.951.995.85 2.229.71 3.417h-.003Zm21-22.804c-.456.423-.912.848-1.378 1.26-1.588 1.398-3.181 2.79-4.77 4.189-.05.044-.157.172-.086.208.844-.526 1.689-1.05 2.556-1.591 1.091 2.264 2.706 4.22 4.497 5.986 1.142 1.125 2.597 1.951 3.968 2.82 1.677 1.063 3.353 2.12 4.604 3.69 1.216 1.528 1.662 3.305 1.482 5.24-.034.364-.076.4-.491.944-.21-1.01-.388-3.06-1.053-4.72-.111.11.21 1.06.554 3.1.159.938.443 2.548-.254 2.812-.98.71-2.054.995-3.178 1.07-.364.024-.735-.054-1.105-.118.032-.235.044-.489.054-.595.174-1.964-.395-5.717-.746-5.74.386 2.002.561 4.232.376 6.286h-.002l.002.002c0 .013-.002.025-.003.036-1.537.328-3.004-.098-4.381-.635-2.378-.93-4.684-2.043-7.062-3.099-.216-2.23-.675-4.343-1.715-6.283-1.02-1.905-2.062-3.798-3.1-5.705l2.399-1.62c.035-.022.015-.079-.027-.073-.411.053-1.926.895-2.772 1.258-.96-.977-1.908-1.942-2.854-2.907-1.2-1.225-2.619-1.773-4.342-1.43-.418.083-.861.045-1.278.135-.262.056-.496.246-.767.39.352.561.76.642 1.196.54 2.454-.57 4.191.573 5.693 2.324 1.652 1.926 3.107 3.98 4.232 6.26.86 1.742 1.633 3.49 2.005 5.433.394 2.051-.25 3.638-1.635 5.166.306-1.068.75-3.504.527-4.058-.177.18-.11 2.547-1.108 4.32-.26.462-.968.423-1.467.565-.833.237-2.33-.13-3.305-.698.587-1.145 1.446-3.19 1.335-4.187-.472 1.175-.73 3.048-1.832 4.093-.521-.364-1.081-.69-1.563-1.105-1.547-1.332-2.707-3-3.912-4.625-.812-1.094-1.653-2.166-2.441-3.277-.745-1.05-1.755-1.745-2.868-2.33-.62-.326-1.225-.68-1.853-.987-2.267-1.11-3.31-3.137-3.859-5.41-.734-3.04-1-6.14-.524-9.266.11-.717.21-1.437.33-2.26-.877.175-1.108.759-1.22 1.343a22.802 22.802 0 0 0-.202 7.194c.237 1.84.455 3.701 1.372 5.517l-.768-.081c-1.551-.55-3.31-1.399-4.39-2.32-.83-.707-1.301-1.12-1.53-1.292-.111-.108-.244-.231-.404-.373-1.683-1.49-3.13-3.121-4.488-4.86-1.742-2.23-3.399-4.524-5.11-6.778-.15-.2-.442-.54-.627-.467.696 1.084 1.371 2.181 2.101 3.241.64.93 1.35 1.815 2.025 2.722.565.76.666 1.46.088 2.343-.785 1.2-1.443 2.493-2.036 3.8a6.513 6.513 0 0 0-.585 2.346c-.125 2.808.595 5.453 1.65 8.044.805 1.975 1.424 4.024 2.159 6.027.67 1.829-.458 3.242-2.313 3.457-.418.048-.847.006-1.36.006.296-1.33.635-2.63-.11-3.863-.103.046.09.788.127 1.182.09.948.015 1.86-.595 2.686-1.355.117-2.572-.197-3.843-.701-1.904-.757-2.802-2.268-3.547-3.95-1.371-3.099-2.356-6.336-3.055-9.639-.506-2.388-.82-4.827-1.034-7.26a9.11 9.11 0 0 1 .86-4.768c.598-1.251.69-2.595.468-3.975-.43-2.692-.56-5.408-.48-8.132.051-1.717.407-3.378.829-5.04.666-2.633 1.792-5.049 3.29-7.294a28.996 28.996 0 0 1 1.91-2.505c.309-.37.48-.677.143-1.234-1.57 1.079-2.414 2.733-3.628 4.21-1.582-2.541-2.745-5.146-1.748-8.69.444.775.83 1.311 1.468 1.744.528.139.149-.68.06-.804-1.474-2.064-.713-4.01.342-5.9 1.034-1.855 2.65-3.172 4.45-4.216 1.546-.896 4.35-2.386 5.433-2.676-3.01 3.91-3.147 4.063-2.936 5.183.053.133 1.176-.806 1.72-1.225 5.636-4.354 12.015-6.377 19.119-5.868 4.09.292 7.967 1.39 11.362 3.846.385.278.935.48 1.4.465 1.355-.044 2.737-.083 4.054-.37 2.051-.448 5.639-1.588 6.97-2.142-.555 3.877-3.04 8.763-5.885 12.377-1.218-1.285-2.419-2.554-3.623-3.82-.94-.988-1.896-1.96-2.822-2.96-.76-.823-1.635-1.427-2.814-1.644-1.044.036-1.519 1.138-1.743 2.086-.425 1.804-.724 3.638-1.075 5.46-.644-.078-1.087-.409-1.663-.313-1.22 3.323.067 7.657 2.646 11.052l-1.194 2.114c-1.665-1.775-3.162-3.521-4.822-5.094-1.32-1.251-2.84-2.296-4.278-3.422-.007-.005-.015-.007-.021-.01-.312-.226-1-.597-1.323-.77a18.135 18.135 0 0 0-6.628-2.076c-2.18-.245-4.356-.108-6.443.676-.298.112-.573.284-.86.428-.25.205-.25.316.1.241.281-.083.57-.145.839-.253 1.614-.642 3.28-.883 5.017-.793 2.881.148 5.581.907 8.134 2.231.166.087.695.422 1.07.623.183.146.374.279.57.409 2.556 1.694 4.573 3.96 6.638 6.176.581.623 1.147 1.26 1.764 1.94-.658 1.377-1.319 2.689-1.916 4.029-.488 1.097-1.575 3.94-1.623 4.318 2.04 2.499 4.096 5.204 6.768 7.004.883.417.103-1.135-.303-1.551-1.3-1.334-2.623-2.645-3.899-4-.502-.534-.903-1.163-1.368-1.773 1.203-.938 3.268-1.303 4.68-1.341 1.122-.03 6.542.285 12.418 4.32.046 1.246.495 2.13 1.114 3.168.438-.068-.782-1.84-.867-3.278 0-.013-.025-.028-.061-.046-.492-.579-2.181-1.506-3.467-2.165-4.258-2.11-7.596-2.21-8.321-2.248-1.666-.088-3.34.036-5.154.94.37-1.006.612-1.789.943-2.532.599-1.35 1.236-2.684 1.884-4.01.435-.893.893-1.778 1.393-2.635.138-.237.345-.575.672-.817-3.223-2.427-3.797-8.654-3.495-9.519.612-.117 1.247.21 1.832.437.562.218.962.53 1.552.886.498-1.064 1.743-3.335 1.885-3.323.726 2.771.991 5.983 1.652 8.77.344-.02-1.115-8.62-2.398-12.788-.14-.301-.252-.19-.222.057.277 1.232.553 2.464.784 3.486l-1.813 3.222c-.375-.19-.842-.506-1.33-.753.245-1.304.433-2.528.734-3.802.268-1.142.448-2.79.962-3.567a.369.369 0 0 1 .44-.143c.894.35 1.554 1.006 2.184 1.665a206.674 206.674 0 0 1 4.445 4.799c1.293 1.44 2.54 2.92 3.905 4.496.03.005.221.064.408.054 1.751-.089 3.502-.184 5.251-.288.383-.024.747-.1.986-.463a.263.263 0 0 0-.135-.39c-.323-.113-.629-.22-.96-.338.487-3.134 1.007-7.638 1.473-9.686a.322.322 0 0 1 .482-.2c.336.206.51.515.699.779 2.663 3.701 5.036 7.57 7.021 11.688.943 1.953 2.183 3.763 3.29 5.636 1.425 2.41 2.853 4.818 4.274 7.23.052.09.046.214.092.452-2.1-.736-4.029-.228-5.915.555-.302.125-1.586.814-1.967 1.083a2.392 2.392 0 0 0-.13.066c-.596.328-1.217.775-1.702 1.086-.582-.873-1.44-1.771-2.775-2.007-.037-.007-.056.045-.023.064.56.317.896.585 1.356.835 1.422 1.092 1.813 2.864 1.799 4.612.545-1.07.016-2.081-.26-3.153l2.436-1.676.017-.004c1.552-.776 2.462-1.112 3.548-1.336 1.362-.281 2.775-.385 4.07.632-.192.316-.354.61-.541.884-2.117 3.11-4.662 5.831-7.53 8.252-1.397 1.178-2.87 2.267-4.28 3.43-.714.592-1.363 1.265-2.045 1.898h-.003Z"/><path fill="#9F60F4" d="M28.408 51.032c.085-1.231.188-2.462.252-3.695.07-1.334.298-1.572 1.57-1.592 2.542-.04 5.083-.077 7.624-.145.73-.02 1.028.345.95.989-.195 1.617-.434 3.23-.68 4.84-.111.72-.597 1.15-1.251 1.402-.759.292-1.543.53-2.269.89-.329.162-.775.56-.772.85.007 1.928-1.277 2.504-2.801 2.863-1.593.374-1.573.36-1.334 1.947.645 4.285 1.922 8.388 3.515 12.4 1.003 2.525 2.03 5.04 3.051 7.557.33.815.075 1.4-.81 1.635-1.777.47-3.583.625-5.399.242-1.473-.31-2.325-1.703-2.604-3.7-.563-4.027-1.217-8.043-1.883-12.056-.094-.565-.195-1.855-.438-2.394-.7.43-.64 1.898-.626 2.45.064 2.52.181 5.039.334 7.554.135 2.206.328 4.41.524 6.611.07.783-.287 1.212-1.004 1.284-1.305.13-2.618.27-3.926.252-1.443-.02-1.818-.5-1.77-1.931.144-4.31.317-8.618.437-12.929.044-1.584.174-4.263.045-5.839-.052-.641-.519-.253-.926-.765-.562-.707-.919-1.46-.939-2.324-.072-3.148.762-5.936 3.476-7.829.753-.525.856-.88.343-1.704-1.084-1.742.09-3.572 2.065-4.073 2.378-.601 3.813 2.19 2.89 3.992-.319.622-.256 1.052.235 1.545.595.598 1.105 1.281 1.652 1.928.156-.084.313-.168.47-.254h-.001Z"/><path fill="#734128" d="M23.565 48.799c-3.079-.093-3.8-3.95-.73-4.986 3.702-1.249 5.224 5.053.73 4.986Z"/><path fill="#734027" d="M24.576 57.747c-1.663-1.218-2.017-3.044-.776-4.651 0 0 .416.11.665.221v1.108c.93.064 2.883-.111 3.77-.222.11 2.548-1.441 3.323-3.659 3.544Z"/><path fill="#744229" d="M33.223 53.65c1.663 2.436-2.196 4.205-4.102 3.987-.444-1.219-.444-2.215-.444-3.434 1.553-.221 3.175-.399 4.546-.554Z"/><path fill="#EDE4FD" d="M36.714 45.452c-1.057-.038-4.405-.017-5.022-.018-.079.073-2.492.057-2.571.13 0 0-.256 5.64-.333 5.87-.308.154-4.324 1.993-4.324 1.993v.997c.078.153 7.447-.547 9.203-.886 1.258-.243 2.844-.776 4.019-1.285.364-.157.295-.78.416-1.262.225-.902.287-1.851.443-2.77.075-.839.473-1.723.548-2.562-.793-.072-1.586-.18-2.38-.208Z"/><path fill="#F2EBFD" d="m28.686 49.785.223-.234-.223.233Z"/><path fill="#000" d="M17.035 54.536c.428-2.112 1.51-3.932 3.251-5.279.182-.14.363-.284.592-.466-.662-1.095-.916-2.183-.53-3.355.215-.658.619-1.14 1.198-1.515 1.167-.76 3.153-.828 4.029-.105 1.28 1.057 1.543 2.7.707 4.55l1.79 1.96c.137-1.688.267-3.67.383-5.093 1.22-.111 9.535-.111 10.977-.111-.111 1.44-.65 4.747-.903 6.353-.126.807-.6 1.328-1.33 1.628-.96.395-1.927.775-2.936 1.178.216 1.226-.355 2.005-1.209 2.731-.857.73-1.879.812-3.018.956.177 1.546.382 2.988.728 4.41.557 2.295 1.13 4.585 2.058 6.769 1.163 2.74 1.842 5.664 3.286 8.313.765 1.403 1.166 2.076.65 3.482-.209.287-1.318.508-2.132.627-1.07.156-2.158.191-3.238.195-.605.001-3.133-.061-3.487-.535-.333-.665-.527-2.198-.65-2.99-.559-3.561-1.036-7.136-1.568-10.703-.146-.983-.368-1.956-.555-2.933-.11-.652-.333-.873-.31.04.09 2.044.178 4.087.269 6.132.01.232.032.465.046.697.114 2.09.186 4.183.352 6.27.198 2.49.42 2.822.198 3.708-.997.222-4.286.184-5.326.165a167.37 167.37 0 0 1-1.875-.043.34.34 0 0 1-.329-.349c.04-1.578.102-4.816.166-6.112.102-2.093.27-4.186.31-6.28.054-2.908-.041-5.292-.041-8.203-.972-.445-1.74-1.304-1.834-2.538-.051-.673-.147-1.44.281-3.553v-.001Zm7.54 25.695a498.564 498.564 0 0 1-.542-6.598 79.233 79.233 0 0 1-.213-4.413c-.027-1.432.015-2.867.05-4.299.014-.58.02-1.176.157-1.734.119-.49.23-1.114 1.016-1.073.53-.048 1.114 1.16 1.257 2.015.21 1.262.458 2.52.646 3.784.24 1.611.413 3.233.662 4.842.25 1.605.556 3.202.842 4.801.128.718.432 2.11.56 2.786 1.884.664 5.616.082 6.874-.222.05-.578-.258-.902-.438-1.278-.384-.803-.864-1.566-1.184-2.392a280.266 280.266 0 0 1-2.546-6.873 73.11 73.11 0 0 1-2.13-6.992c-.454-1.82-.604-3.662-.896-5.492-.125-.783-.11-1.588-.158-2.383-.34 1.89-1.494 2.807-3.264 3.144-.483.092-.933.359-1.394.552-.71.297-1.402.649-2.13.887-.687.224-1.411.329-1.956.45.179 3.497-.088 6.89-.133 10.28-.045 3.403-.212 6.805-.33 10.359 1.81.004 3.477.181 5.25-.151Zm-1.27-31.547a.135.135 0 0 1-.024.231 5.485 5.485 0 0 1-.814.305c-1.573.45-2.41 1.765-3.212 3.037-.823 1.303-1.069 2.82-1.272 4.322-.143 1.06.16 2.498.973 2.738 1.838-.158 3.844-.683 5.285-1.57-.998-.885-1.885-2.325-.895-4.45 0 0-2.076-.357-2.31-.555-.232-.199-.293-.383.07-.292.362.092 2.54.473 3.851.717l2.822-1.45c-.609-.597-1.128-1.096-1.635-1.605-.47-.47-.932-.946-1.354-1.377-.063-.066-.087-.176-.023-.242.361-.38.93-.763 1.026-1.709.103-1.017-.221-1.661-.948-2.099-1.016-.613-2.579-.277-3.264.852-.525.864-.076 1.71.377 2.338.51.57.995.548 1.346.81v-.001Zm1.252 5.182c.01.11.008.338.017.45.402.04.823.03 1.218-.008 1.805-.172 3.605-.406 5.41-.57.878-.08 1.73-.127 2.56-.522 1.107-.528 2.273-.928 3.437-1.394l.902-5.424h-8.523l-.485 5.135-4.536 2.334v-.001Zm-.327.557c.011-.287.011-.62.011-.883-.074-.195-.444-.11-.444-.11-.997.886-.872 2.87.83 4.102 2.298-.29 3.418-1.247 3.495-3.106-1.148.104-2.51.2-3.685.21a.206.206 0 0 1-.207-.213Zm4.89 2.661c1.39.076 2.477-.359 3.466-1.241.534-.475.788-1.122.41-1.909-1.364.235-3.323.27-4.1.382.046.786.111 1.993.222 2.768h.002Z"/><path fill="#FE4C44" d="m95.347 50.907-.115.441-.135.465-.265.907-.385 1.378-.118.43-.309.04c-.543.054-1.343-.101-1.582.197-.862 1.076-1.518.88-2.277-.037-.183-.221-.472-.372-.736-.506-.824-.42-1.195-1.037-1.122-1.996.044-.58-.132-1.177-.209-1.767l2.07-5.79 1.565.045.482.003c.901 0 1.804-.003 2.705-.004l1.816 1.193c-.266.98-.53 1.961-.797 2.941l-.341 1.155-.111.439-.134.468-.002-.002Z"/><path fill="#FE4169" d="M81.232 61.07c.739.052 1.393-.857 1.59-1.517.338.217.667.452 1.018.647.345.191.712.342 1.069.511 0 .075.002.152.004.227l-.007.454c-.603 1.118-.127 2.067.576 2.881.74.856 1.8.837 2.84.731.36-.037.962-.193 1.043-.054.3.511.763 1.36.555 1.653-.547.78-.85 2.488-2.07 1.924-1.232-.57-2.597.98-3.552-.496-.014-.023-.14.032-.214.04-.559.053-1.119.103-1.678.155h-.23.002l-.686.005-.447-.467c-.001-.226-.002-.452-.005-.678.075-.165.207-.326.214-.494.091-2.008-.098-3.51-.022-5.52v-.002Z"/><path fill="#FE4F6C" d="M82.404 68.225c.56-.05 1.119-.102 1.678-.155.074-.006.198-.062.214-.04.956 1.477 2.32-.073 3.552.496 1.22.564 1.523-1.144 2.07-1.923.206-.294-.256-1.142-.555-1.654-.081-.138-.682.018-1.044.054-1.04.107-2.1.126-2.839-.73-.704-.815-1.18-1.764-.577-2.881.733.228 1.472.44 2.197.688.503.173 1.144.263 1.452.622.82.957 1.822 1.364 3.022 1.439-.496 1.625-1.01 3.245-1.477 4.878-.175.614-.51.865-1.141.843-.983-.035-1.97.022-2.95-.044-.702-.048-1.492-.311-1.671.332-.304 1.092-.575 2.565-.887 3.655-.55 1.91-.178 2.06-2.184 1.874 0-.361-.003-.721-.003-1.082.526-1.528 1.023-3.068 1.588-4.582.282-.754.257-1.246-.672-1.344l-.002-.448h-.002.23l.001.002Z"/><path fill="#FE6A53" d="M83.271 57.965c.737-2.56 1.468-5.122 2.215-7.678.231-.789.51-1.562.768-2.343.385.838.772 1.675 1.158 2.512l-.457 1.828c-.74 1.073-1.464 2.142.005 3.218.109.08.134.266.215.392.803 1.237 2.407 1.572 3.426.718l.91-.002.912-.225c.379-.152.758-.305 1.138-.456-.192.81-.368 1.625-.593 2.426-.035.128-.28.255-.442.278-.333.047-.675.023-1.014.028v-1.139l-.175-.356-.28.356-.683 1.14-.91.686c-.811-.697-1.635-1.38-2.43-2.096-.655-.59-.952-.535-1.25.318-.096.277-.13.575-.193.864h-1.138l-1.183-.466.001-.003Z"/><path fill="#FE544C" d="m70.536 74.137 3.055-10.009c1.138-.276 1.568-1.035 1.556-2.162-.002-.181.33-.365.507-.548.106.163.322.34.302.485-.26 1.883-.552 3.761-.836 5.64l-.68 2.725-.23 3.646c-.947.595-1.92.98-3.03.415-.196-.1-.428-.13-.644-.193v.001Z"/><path fill="#FB7B63" d="M81.217 52.286c-.31 1.16-.581 2.332-.958 3.47-.085.259-.53.556-.817.564-1.853.056-3.709.032-5.563.044-.53.003-.805-.153-.6-.742.36-1.03.704-2.064 1.054-3.096.444 1.198 1.183 1.054 2.056.478 1.036-.682 2.015-.732 2.847.357.05.067.215.047.326.068l1.654-1.143h.001Z"/><path fill="#FE6151" d="M75.121 67.542c.284-1.88.577-3.757.836-5.64.02-.145-.196-.322-.302-.485-.178.183-.51.368-.507.549.011 1.126-.418 1.886-1.556 2.162-.003-.075-.028-.157-.005-.222.386-1.12.778-2.238 1.17-3.356l4.472.066c-.43 1.116-.963 2.208-1.245 3.361-.14.578.036 1.342.323 1.888.408.775 1.05 1.426 1.593 2.13-.445-.257-.947-.447-1.324-.78-1.127-.995-1.89-1.002-2.994.054-.126.12-.305.183-.46.273Z"/><path fill="#FE544C" d="M75.344 50.005c-.002-.037-.015-.078-.005-.111.839-2.862.272-2.553 3.328-2.568.636-.003 1.273.032 1.91.05-.148.797-.258 1.603-.454 2.387-.269 1.077-.603 2.136-.91 3.203-.315-.295-.621-.828-.95-.843-1.484-.062-2.173-1.106-2.92-2.117h.001Z"/><path fill="#FE5F5E" d="M79.898 67.994c-.542-.703-1.185-1.354-1.593-2.128-.288-.546-.464-1.312-.323-1.889.282-1.153.815-2.243 1.245-3.361l1.36-.043c-.12.586-.193 1.185-.365 1.755-.521 1.73-.126 3.286.817 4.757 0 .226.002.452.004.678l-.006.235-.455.226-.68-.226h-.003l-.001-.004Z"/><path fill="#FE5057" d="M78.772 52.854c.306-1.066.64-2.126.91-3.203.196-.784.305-1.59.453-2.386 1.767-.182 2.384.528 1.853 2.13-.36 1.077-.734 2.15-1.102 3.223l-1.654 1.143-.46-.907Z"/><path fill="#FE5F5E" d="m87.412 50.456-1.16-2.512c.268-.93.498-1.873.828-2.78.088-.24.476-.499.743-.519.775-.056 1.558.006 2.338.021l-2.069 5.79h-.68Z"/><path fill="#FB7B63" d="m89.462 59.346.91-.686 1.138.454c.352.915.935.305 1.438.218l-.817 2.98c-.497.098-1.059.083-1.477.32-.995.566-1.399.414-1.648-.784-.153-.152-.305-.304-.458-.454l-.454-.457.682-.797c.228-.266.458-.53.686-.795Z"/><path fill="#FE6151" d="m79.215 52.965.459.907c-.111-.02-.275 0-.326-.067-.832-1.09-1.81-1.039-2.847-.357-.873.576-1.612.72-2.056-.478l.9-2.965c.747 1.011 1.436 2.055 2.92 2.117.329.014.635.549.95.843Z"/><path fill="#FE5F5E" d="M89.006 61.849c.25 1.197.653 1.349 1.648.784.418-.237.98-.221 1.477-.32l-.558 1.83c-1.2-.075-2.202-.483-3.022-1.439-.308-.36-.949-.45-1.452-.621-.725-.25-1.464-.461-2.197-.69l.008-.453 2.958-.002c.076 0 .151 0 .226.002l.454.456.458.454v-.001Z"/><path fill="#FE5057" d="M80.928 67.195c-.941-1.471-1.338-3.027-.817-4.757.172-.57.246-1.17.365-1.756.303-.003.786.058 1.088.054-.078 2.01-.33 3.956-.422 5.964-.007.167-.14.33-.214.493v.002ZM70.535 74.137c.215.062.447.093.644.193 1.111.565 2.082.18 3.03-.415l.907.23.224 1.527c-1.391.025-2.783.062-4.173.071-1.18.008-1.184-.007-.853-1.099.054-.175.147-.338.221-.507Z"/><path fill="#FE5F5E" d="m75.341 75.672-.224-1.526 1.367-.23c.96.372 1.925.66 2.947.224.006.512.011 1.024.018 1.535-1.37 0-2.737-.002-4.107-.003Z"/><path fill="#FE5057" d="m83.27 57.966 1.184.466c.439.702 1.074 1.367.453 2.28-.357-.169-.724-.32-1.068-.512-.35-.195-.68-.43-1.018-.647l.45-1.587Z"/><path fill="#FB7B63" d="M91.512 58.659c.338-.006.681.019 1.014-.028.163-.023.407-.15.442-.278.225-.802.4-1.616.593-2.426l.46-1.358.308-.041-1.32 4.616-1.497-.029v-.456Z"/><path fill="#FE5057" d="m79.446 75.675-.018-1.535.016-.45 1.137-.459.23 1.368-.236 1.066-1.129.01Z"/><path fill="#FE5F5E" d="m96.73 45.903-1.816-1.193c.404.006.809.027 1.212.016 1.038-.029 1.04.459.603 1.177ZM80.575 75.666l.236-1.067h.449l.002 1.082-.687-.014v-.001Z"/><path fill="#FA705A" d="m91.512 59.115 1.497.03a.261.261 0 0 1-.059.187c-.503.087-1.086.697-1.438-.218v.001Z"/><path fill="#FB7B63" d="m95.098 51.813.135-.465-.135.465ZM95.346 50.907Z"/><path fill="#FE544C" d="M94.02 54.569c-.152.453-.305.904-.46 1.357l-1.138.457c-.4-.316-.748-.419-.912.225-.303 0-.607 0-.91.002-.647-.751-1.272-1.522-1.954-2.24-.19-.2-.565-.37-.823-.334-.796.11-.895-.277-.82-.914.032-.275-.03-.56-.047-.84l.457-1.828.68.001c.077.59.252 1.188.208 1.768-.073.959.298 1.576 1.122 1.996.265.135.553.285.736.506.76.917 1.416 1.113 2.277.036.239-.297 1.04-.143 1.583-.196l.002.004Z"/><path fill="#FA705A" d="m79.444 73.692-.016.45c-1.021.436-1.987.147-2.947-.225.012-.543.243-1.242-.009-1.598-.548-.776-1.341-1.377-2.035-2.05l.68-2.725c.154-.09.334-.153.46-.273 1.105-1.056 1.868-1.05 2.995-.054.377.333.88.523 1.324.779h.002c.17.196.342.39.511.584l.17-.357.455-.226.454.233c.228-.003.457-.004.686-.006 0 .15.001.3.003.449l-.23.917c-.451.501-.959.964-1.337 1.517-.346.506-.561 1.104-.817 1.67-.134.297-.234.61-.348.915h-.001Z"/><path fill="#FE6151" d="M84.907 60.712c.62-.914-.014-1.578-.454-2.28h1.138c-.091.568.181.814.692 1.068.633.316 1.64.327 1.587 1.435l-2.958.002a5.209 5.209 0 0 1-.004-.227l-.001.002Z"/><path fill="#FE5057" d="m81.49 68.23-.455-.233.007-.235.447.468Z"/><path fill="#FE6151" d="m81.948 69.59.23-.918c.928.097.953.59.671 1.344-.565 1.514-1.062 3.053-1.587 4.582h-.45l-.229-1.368c.924-1.038 1.243-2.303 1.366-3.642l-.001.001ZM86.954 52.283c.019.28.079.566.047.84-.075.638.025 1.024.82.915.26-.036.633.134.823.334.681.718 1.307 1.489 1.954 2.24-1.019.855-2.622.52-3.426-.718-.08-.125-.106-.313-.215-.392-1.47-1.077-.745-2.146-.004-3.219Z"/><path fill="#FA705A" d="M87.869 60.935c.052-1.109-.955-1.12-1.588-1.436-.51-.254-.783-.5-.692-1.067.063-.29.098-.587.194-.864.297-.854.594-.908 1.25-.318.793.716 1.617 1.399 2.429 2.096-.228.264-.458.529-.686.795-.229.265-.455.531-.682.797l-.226-.002v-.001ZM91.512 58.659v.456l-1.138-.454.684-1.14h.452c0 .38 0 .76.002 1.139v-.001Z"/><path fill="#FE6151" d="M91.51 56.608c.163-.644.511-.54.912-.225l-.913.225Z"/><path fill="#FB7B63" d="M91.51 57.52h-.452l.279-.356.174.356h-.001Z"/><path fill="#FE6151" d="M74.44 70.269c.693.672 1.488 1.274 2.036 2.049.251.357.02 1.054.008 1.598l-1.367.23-.907-.23.23-3.646v-.001ZM80.58 68.222l-.17.357-.51-.582.68.225Z"/><path fill="#FA705A" d="M89.007 61.849c-.153-.152-.305-.304-.458-.454l.458.454Z"/><path fill="#FE6A53" d="M81.948 69.59c-.122 1.338-.442 2.602-1.366 3.641l-1.137.46c.115-.306.214-.618.348-.915.256-.565.47-1.164.817-1.67.378-.553.886-1.016 1.337-1.518l.001.002Z"/><path fill="#713136" d="M91.432 64.947c-.554 2.215-1.213 4.457-1.441 5.316 0 0-.651 0-1.195-.01-1.239-.025-2.479-.008-3.872-.008-.41 1.321-.834 2.685-1.255 4.05-.114.37-.374 1.569-.443 1.948 0 0-.339-.01-.937-.012-4.079-.01-12.56.079-12.811.013.112-.406.243-.929.352-1.29l3.993-13.275c.336-1.115.422-1.273.422-1.273 1.942.004 4.973.11 6.911.202.908.044 1.187-.32 1.414-1.11 1.238-4.289 3.128-10.879 4.425-15.152 0 0 7.497.032 10.338.058l-2.59 8.815c-.7-.055-.684-.55-.661-1.06.013-.3.003-.6.004-.9l.186-.714c.151-.55.916-3.335 1.319-4.977h-7.54l-4.552 14.99c1.417.166 2.796.13 4.16.29-.73 2.662-1.474 5.267-2.217 7.975 1.37.106 2.862.109 3.548.11 0 0 .048-.081.282-1.116.183-.264.38-.521.547-.796.288-.475 1.335-2.574 1.61-2.073l.003-.001Zm-9.883-2.99c-1.928-.06-3.705-.11-5.48-.175-.643-.023-.943.24-1.133.884-1.118 3.794-2.294 7.57-3.442 11.354-.093.308-.138.63-.213.989h10.75l1.438-4.822c-1.411-.09-2.712-.061-4.01-.145.694-2.708 1.394-5.361 2.09-8.085Zm-.386 6.734h2.88l1.854-6.517c-.688-.07-1.137-.142-1.587-.158-1.251-.044-1.255-.037-1.597 1.12-.252.854-.494 1.709-.733 2.566-.267.958-.524 1.918-.816 2.99h-.001Z"/><path fill="#74353A" d="M72.805 56.75c.32-1.08.576-2.04.865-2.991.587-1.928 1.455-4.599 2.018-6.534 0 0 6.874-.11 7.207-.11-.111.443-.137.7-.212.943-.795 2.594-1.62 5.18-2.373 7.785-.206.714-.299 1.018-.299 1.018-1.663 0-4.383-.035-6.088-.036-.333 0-.644-.04-1.119-.075h.001Zm1.57-1.11c1.416 0 2.655-.022 3.89.01.57.014.726-.335.86-.761.654-2.07 2.038-6.387 1.996-6.556-1.396 0-2.906-.028-4.397-.028l-2.35 7.336v-.002Z"/><path fill="#743B36" d="M90.654 67.024c-.275-.5-.544-.48-.833-.005-.167.275-.364.532-.547.797.934-3.188 1.87-6.374 2.799-9.563.677-2.33 1.344-4.664 2.014-6.996 0 .3.01.601-.004.9-.022.51-.038 1.005.66 1.06-.88 3.26-1.727 6.528-2.653 9.773-.392 1.37-.953 2.69-1.436 4.034Z"/></svg>