<!-- This Source Code Form is subject to the terms of the Mozilla Public
   - License, v. 2.0. If a copy of the MPL was not distributed with this
   - file, You can obtain one at https://mozilla.org/MPL/2.0/. -->
<svg width="16" height="16" viewBox="0 0 16 16" fill="none" xmlns="http://www.w3.org/2000/svg">
<g clip-path="url(#clip0_11642_10088)">
<path d="M16 8C16 12.4183 12.4183 16 8 16C3.58172 16 0 12.4183 0 8C0 3.58172 3.58172 0 8 0C12.4183 0 16 3.58172 16 8Z" fill="context-fill"/>
<path fill-rule="evenodd" clip-rule="evenodd" d="M2.75 6.3125C2.75 5.58784 3.33784 5 4.0625 5H5.5625C5.87316 5 6.125 5.25184 6.125 5.5625V7.625H9.875V5.5625C9.875 5.25184 10.1268 5 10.4375 5H11.9375C12.6622 5 13.25 5.58784 13.25 6.3125V7.53125H14V8.84375H13.25V10.0625C13.25 10.7872 12.6622 11.375 11.9375 11.375H10.4375C10.1268 11.375 9.875 11.1232 9.875 10.8125V8.75H6.125V10.8125C6.125 11.1232 5.87316 11.375 5.5625 11.375H4.0625C3.33784 11.375 2.75 10.7872 2.75 10.0625V8.84375H2V7.53125H2.75V6.3125ZM4.0625 6.125C3.95916 6.125 3.875 6.20916 3.875 6.3125V10.0625C3.875 10.1658 3.95916 10.25 4.0625 10.25H5V6.125H4.0625ZM11 6.125V10.25H11.9375C12.0408 10.25 12.125 10.1658 12.125 10.0625V6.3125C12.125 6.20916 12.0408 6.125 11.9375 6.125H11Z" fill="context-stroke"/>
</g>
<defs>
<clipPath id="clip0_11642_10088">
<rect width="16" height="16"/>
</clipPath>
</defs>
</svg>