<!-- This Source Code Form is subject to the terms of the Mozilla Public
   - License, v. 2.0. If a copy of the MPL was not distributed with this
   - file, You can obtain one at https://mozilla.org/MPL/2.0/. -->
<svg width="16" height="16" viewBox="0 0 16 16" fill="none" xmlns="http://www.w3.org/2000/svg">
<g clip-path="url(#clip0_11642_10087)">
<path d="M16 8C16 12.4183 12.4183 16 8 16C3.58172 16 0 12.4183 0 8C0 3.58172 3.58172 0 8 0C12.4183 0 16 3.58172 16 8Z" fill="context-fill"/>
<path fill-rule="evenodd" clip-rule="evenodd" d="M8.60016 4.625H9.69179L10.0937 6.125H6.12531L6.12158 5.5625H6.59387C6.95612 5.5625 7.25012 5.2685 7.25012 4.90625C7.25012 4.544 6.95612 4.25 6.59387 4.25H4.43762C4.33412 4.25 4.25012 4.334 4.25012 4.4375V5.375C4.25012 5.4785 4.33412 5.5625 4.43762 5.5625H4.99656L5.00601 6.98858L4.91287 7.18985C4.74735 7.15554 4.57588 7.1375 4.4002 7.1375C3.01258 7.1375 1.8877 8.26239 1.8877 9.65C1.8877 11.0376 3.01258 12.1625 4.4002 12.1625C5.78781 12.1625 6.9127 11.0376 6.9127 9.65C6.9127 8.84021 6.52959 8.11989 5.93473 7.66041L6.12466 7.25H10.3951L10.4408 7.42036C9.63666 7.83932 9.08759 8.68054 9.08759 9.65C9.08759 11.0376 10.2125 12.1625 11.6001 12.1625C12.9877 12.1625 14.1126 11.0376 14.1126 9.65C14.1126 8.26239 12.9877 7.1375 11.6001 7.1375C11.5766 7.1375 11.5532 7.13783 11.5299 7.13846L10.6667 3.91692C10.6008 3.671 10.378 3.5 10.1234 3.5H8.60016V4.625ZM10.7453 8.55696L11.1393 10.0273L12.226 9.73617L11.8365 8.28257C12.4902 8.39478 12.9876 8.9643 12.9876 9.65C12.9876 10.4163 12.3664 11.0375 11.6001 11.0375C10.8338 11.0375 10.2126 10.4163 10.2126 9.65C10.2126 9.20613 10.421 8.81094 10.7453 8.55696ZM3.77643 9.64551L4.41642 8.2626L4.4002 8.2625C3.6339 8.2625 3.0127 8.88371 3.0127 9.65C3.0127 10.4163 3.6339 11.0375 4.4002 11.0375C5.16649 11.0375 5.7877 10.4163 5.7877 9.65C5.7877 9.29737 5.65614 8.97545 5.43943 8.73066L4.7974 10.118L3.77643 9.64551Z" fill="context-stroke"/>
</g>
<defs>
<clipPath id="clip0_11642_10087">
<rect width="16" height="16"/>
</clipPath>
</defs>
</svg>