<!-- This Source Code Form is subject to the terms of the Mozilla Public
   - License, v. 2.0. If a copy of the MPL was not distributed with this
   - file, You can obtain one at https://mozilla.org/MPL/2.0/. -->
<svg width="16" height="16" viewBox="0 0 16 16" fill="none" xmlns="http://www.w3.org/2000/svg">
<g clip-path="url(#clip0_11642_10087)">
<path d="M16 8C16 12.4183 12.4183 16 8 16C3.58172 16 0 12.4183 0 8C0 3.58172 3.58172 0 8 0C12.4183 0 16 3.58172 16 8Z" fill="context-fill"/>
<path fill-rule="evenodd" clip-rule="evenodd" d="M4.25 2.75C3.85218 2.75 3.47064 2.90804 3.18934 3.18934C2.90804 3.47064 2.75 3.85218 2.75 4.25V11.75C2.75 12.1478 2.90804 12.5294 3.18934 12.8107C3.47064 13.092 3.85218 13.25 4.25 13.25H11.75C12.1478 13.25 12.5294 13.092 12.8107 12.8107C13.092 12.5294 13.25 12.1478 13.25 11.75V4.25C13.25 3.85218 13.092 3.47064 12.8107 3.18934C12.5294 2.90804 12.1478 2.75 11.75 2.75H4.25ZM12.3125 11.8625L11.8625 12.3125H4.1375L3.6875 11.8625V4.1375L4.1375 3.6875H11.8625L12.3125 4.1375V11.8625ZM10.25 10.9997H5.75C5.55109 10.9997 5.36032 10.9206 5.21967 10.78C5.07902 10.6393 5 10.4486 5 10.2497V9.25891C4.99993 9.11025 5.05871 8.96761 5.1635 8.86216L6.7625 7.25341C6.81459 7.20099 6.8765 7.15935 6.94469 7.13087C7.01288 7.10238 7.08601 7.08761 7.15991 7.0874C7.23381 7.0872 7.30702 7.10155 7.37537 7.12965C7.44372 7.15775 7.50586 7.19904 7.55825 7.25116L9.14225 8.82766L9.60125 8.39491C9.70795 8.29421 9.84977 8.23918 9.99647 8.24156C10.1432 8.24394 10.2831 8.30355 10.3865 8.40766L10.8365 8.86141C10.9413 8.96686 11.0001 9.1095 11 9.25816V10.2497C11 10.4486 10.921 10.6393 10.7803 10.78C10.6397 10.9206 10.4489 10.9997 10.25 10.9997ZM9.8 5.75H10.7L11 6.05V6.95L10.7 7.25H9.8L9.5 6.95V6.05L9.8 5.75Z" fill="context-stroke"/>
</g>
<defs>
<clipPath id="clip0_11642_10087">
<rect width="16" height="16"/>
</clipPath>
</defs>
</svg> 