<!-- This Source Code Form is subject to the terms of the Mozilla Public
   - License, v. 2.0. If a copy of the MPL was not distributed with this
   - file, You can obtain one at https://mozilla.org/MPL/2.0/. -->
<svg width="16" height="16" viewBox="0 0 16 16" fill="none" xmlns="http://www.w3.org/2000/svg">
<g clip-path="url(#clip0_11642_10087)">
<path d="M16 8C16 12.4183 12.4183 16 8 16C3.58172 16 0 12.4183 0 8C0 3.58172 3.58172 0 8 0C12.4183 0 16 3.58172 16 8Z" fill="context-fill"/>
<path fill-rule="evenodd" clip-rule="evenodd" d="M3.3042 5.00579C3.57154 4.53824 4.0683 4.25 4.60626 4.25H11.393C11.931 4.25 12.4282 4.53762 12.6952 5.00599L12.6956 5.00673L13.9258 7.15829C14.0518 7.37855 14.0147 7.65584 13.8353 7.83525L8.39776 13.2727C8.17809 13.4924 7.82194 13.4924 7.60227 13.2727L2.16477 7.83525C1.9854 7.65588 1.94828 7.37866 2.07413 7.15842L3.3042 5.00579ZM4.28082 5.56421L3.5318 6.875H5.0486L5.90574 5.375H4.60626C4.47227 5.375 4.348 5.44683 4.28082 5.56421ZM9.65577 6.875H6.34432L7.20146 5.375H8.79862L9.65577 6.875ZM10.9515 6.875H12.4679L11.7185 5.56421L11.7179 5.56327C11.6518 5.44707 11.5283 5.375 11.393 5.375H10.0943L10.9515 6.875ZM12.0795 8H8.5625V11.517L12.0795 8ZM7.4375 8H3.92051L7.4375 11.517V8Z" fill="context-stroke"/>
</g>
<defs>
<clipPath id="clip0_11642_10087">
<rect width="16" height="16"/>
</clipPath>
</defs>
</svg> 