<!-- This Source Code Form is subject to the terms of the Mozilla Public
   - License, v. 2.0. If a copy of the MPL was not distributed with this
   - file, You can obtain one at https://mozilla.org/MPL/2.0/. -->
<svg width="16" height="16" viewBox="0 0 16 16" fill="none" xmlns="http://www.w3.org/2000/svg">
<g clip-path="url(#clip0_11642_10087)">
<path d="M16 8C16 12.4183 12.4183 16 8 16C3.58172 16 0 12.4183 0 8C0 3.58172 3.58172 0 8 0C12.4183 0 16 3.58172 16 8Z" fill="context-fill"/>
<path d="M8 2.5C6.54131 2.5 5.14236 3.07946 4.11091 4.11091C3.07946 5.14236 2.5 6.54131 2.5 8C2.5 9.45869 3.07946 10.8576 4.11091 11.8891C5.14236 12.9205 6.54131 13.5 8 13.5C9.45869 13.5 10.8576 12.9205 11.8891 11.8891C12.9205 10.8576 13.5 9.45869 13.5 8C13.5 6.54131 12.9205 5.14236 11.8891 4.11091C10.8576 3.07946 9.45869 2.5 8 2.5V2.5ZM9.79447 3.78333C10.5474 4.10665 11.2 4.62577 11.6844 5.28671C12.1688 5.94766 12.4673 6.72629 12.5489 7.54167H10.9143C10.824 6.17611 10.3304 4.86809 9.496 3.78333H9.79447ZM8.29187 3.78333C9.2841 4.79658 9.88687 6.12754 9.99393 7.54167H6.00607C6.11313 6.12754 6.7159 4.79658 7.70813 3.78333H8.29187ZM6.2048 3.78333H6.504C5.66994 4.86827 5.17637 6.17619 5.08573 7.54167H3.45113C3.53255 6.72635 3.8309 5.94773 4.31517 5.28678C4.79944 4.62583 5.45193 4.10669 6.2048 3.78333V3.78333ZM6.2048 12.2167C5.45184 11.8934 4.79926 11.3743 4.31498 10.7134C3.83069 10.0524 3.5324 9.2737 3.45113 8.45833H5.08573C5.17602 9.82389 5.66963 11.1319 6.504 12.2167H6.2048ZM7.70813 12.2167C6.7159 11.2034 6.11313 9.87246 6.00607 8.45833H9.9932C9.88613 9.87246 9.28337 11.2034 8.29113 12.2167H7.70813ZM9.7952 12.2167H9.49527C10.33 11.1321 10.8236 9.82396 10.9135 8.45833H12.5481C12.4669 9.27359 12.1686 10.0522 11.6845 10.7131C11.2004 11.3741 10.548 11.8933 9.7952 12.2167V12.2167Z" fill="context-stroke"/>
</g>
<defs>
<clipPath id="clip0_11642_10087">
<rect width="16" height="16"/>
</clipPath>
</defs>
</svg> 