<!-- This Source Code Form is subject to the terms of the Mozilla Public
   - License, v. 2.0. If a copy of the MPL was not distributed with this
   - file, You can obtain one at https://mozilla.org/MPL/2.0/. -->
<svg width="16" height="16" viewBox="0 0 16 16" fill="none" xmlns="http://www.w3.org/2000/svg">
<path d="M16 8C16 12.4183 12.4183 16 8 16C3.58172 16 0 12.4183 0 8C0 3.58172 3.58172 0 8 0C12.4183 0 16 3.58172 16 8Z" fill="context-fill"/>
<g id="foreground" clip-path="url(#clip0_11642_9987)">
<path d="M7.25 8.75V7.25H8.75V8.75H7.25Z" fill="context-stroke" />
<path fill-rule="evenodd" clip-rule="evenodd" d="M8 2C6.60237 2 5.43646 2.94431 5.08376 4.22448C5.06726 4.22416 5.05068 4.224 5.034 4.224C3.35765 4.224 2 5.58299 2 7.258C2 8.19432 2.42686 9.02117 3.08709 9.57335C2.86885 9.9867 2.741 10.4582 2.741 10.965C2.741 12.6413 4.09999 13.999 5.775 13.999C6.65529 13.999 7.44597 13.6243 7.99921 13.0269C8.55232 13.6238 9.34273 13.999 10.223 13.999C11.8993 13.999 13.257 12.64 13.257 10.965C13.257 10.4586 13.1293 9.98742 12.9114 9.5743C13.5731 9.02249 14 8.19536 14 7.259C14 5.58265 12.641 4.225 10.966 4.225C10.9496 4.225 10.9332 4.22516 10.917 4.22547C10.5638 2.94472 9.39806 2 8 2ZM6.22634 4.95182C6.27017 4.00232 7.04607 3.25 8 3.25C8.95368 3.25 9.73007 4.00216 9.77469 4.95329C9.78342 5.13942 9.87475 5.31195 10.0238 5.42382C10.1728 5.53569 10.3639 5.57524 10.5451 5.53168C10.6969 5.49518 10.8338 5.475 10.966 5.475C11.951 5.475 12.75 6.27335 12.75 7.259C12.75 7.9497 12.3511 8.5472 11.7614 8.84355C11.5894 8.92996 11.4669 9.09075 11.4291 9.27944C11.3914 9.46814 11.4427 9.66369 11.5682 9.80958C11.8426 10.1286 12.007 10.5278 12.007 10.965C12.007 11.95 11.2087 12.749 10.223 12.749C9.48217 12.749 8.8457 12.2959 8.5759 11.6486C8.47883 11.4156 8.25121 11.2639 7.99887 11.264C7.74653 11.2641 7.51898 11.4158 7.422 11.6488C7.15231 12.2967 6.51616 12.749 5.775 12.749C4.79001 12.749 3.991 11.9507 3.991 10.965C3.991 10.5278 4.15537 10.1286 4.42982 9.80958C4.55516 9.66386 4.60649 9.46858 4.56899 9.28007C4.53149 9.09155 4.40934 8.93078 4.23778 8.84412C3.64912 8.5468 3.25 7.9488 3.25 7.258C3.25 6.27301 4.04835 5.474 5.034 5.474C5.16731 5.474 5.30425 5.49422 5.45589 5.53068C5.63714 5.57426 5.82839 5.53466 5.97743 5.42268C6.12646 5.3107 6.21774 5.13804 6.22634 4.95182Z" fill="context-stroke" />
</g>
<defs>
<clipPath id="clip0_11642_9987">
<rect width="12" height="12" transform="translate(2 2)"/>
</clipPath>
</defs>
</svg>
