<!-- This Source Code Form is subject to the terms of the Mozilla Public
   - License, v. 2.0. If a copy of the MPL was not distributed with this
   - file, You can obtain one at https://mozilla.org/MPL/2.0/. -->
<svg width="16" height="16" viewBox="0 0 16 16" fill="none" xmlns="http://www.w3.org/2000/svg">
<g clip-path="url(#clip0_11642_10087)">
<path d="M16 8C16 12.4183 12.4183 16 8 16C3.58172 16 0 12.4183 0 8C0 3.58172 3.58172 0 8 0C12.4183 0 16 3.58172 16 8Z" fill="context-fill"/>
<path d="M12.4962 12.5H4.25375C3.85505 12.4996 3.4728 12.341 3.19088 12.0591C2.90895 11.7772 2.7504 11.3949 2.75 10.9962V4.25375C2.75 3.42425 3.42425 2.75 4.25375 2.75H6.47225C6.67917 2.75018 6.88385 2.79295 7.07352 2.87566C7.2632 2.95837 7.43382 3.07924 7.57475 3.23075L8.51975 4.25H12.4962C13.3257 4.25 14 4.92425 14 5.75375V10.9962C13.9996 11.3949 13.841 11.7772 13.5591 12.0591C13.2772 12.341 12.8949 12.4996 12.4962 12.5V12.5ZM4.1375 3.6875L3.6875 4.1375V11.1125L4.1375 11.5625H12.6125L13.0625 11.1125V5.6375L12.6125 5.1875H8.315L7.9715 5.0375L6.88775 3.86825C6.83458 3.81125 6.77026 3.76578 6.69879 3.73469C6.62731 3.7036 6.5502 3.68753 6.47225 3.6875H4.1375V3.6875Z" fill="context-stroke"/>
</g>
<defs>
<clipPath id="clip0_11642_10087">
<rect width="16" height="16"/>
</clipPath>
</defs>
</svg>