<!-- This Source Code Form is subject to the terms of the Mozilla Public
   - License, v. 2.0. If a copy of the MPL was not distributed with this
   - file, You can obtain one at https://mozilla.org/MPL/2.0/. -->
<svg width="16" height="16" viewBox="0 0 16 16" fill="none" xmlns="http://www.w3.org/2000/svg">
<g clip-path="url(#clip0_11642_10087)">
<path d="M16 8C16 12.4183 12.4183 16 8 16C3.58172 16 0 12.4183 0 8C0 3.58172 3.58172 0 8 0C12.4183 0 16 3.58172 16 8Z" fill="context-fill"/>
<path d="M8.84043 6.03263C8.73268 5.84478 8.52666 5.73547 8.31071 5.75156C8.09475 5.76765 7.90721 5.90628 7.82848 6.10802L6.9373 8.39181L6.65721 7.90638C6.55675 7.73227 6.37101 7.62501 6.17 7.62501H4.25V8.75001H5.84514L6.54829 9.96863C6.65639 10.156 6.86233 10.2647 7.07801 10.2484C7.29369 10.2321 7.48089 10.0935 7.55952 9.89199L8.4493 7.61179L8.94007 8.46738C9.04034 8.64219 9.22647 8.75001 9.428 8.75001H11.75V7.62501H9.75382L8.84043 6.03263Z" fill="context-stroke"/>
<path fill-rule="evenodd" clip-rule="evenodd" d="M3.5 3.5C2.67184 3.5 2 4.17184 2 5V11C2 11.8282 2.67184 12.5 3.5 12.5H12.5C13.3282 12.5 14 11.8282 14 11V5C14 4.17184 13.3282 3.5 12.5 3.5H3.5ZM3.125 5C3.125 4.79316 3.29316 4.625 3.5 4.625H12.5C12.7068 4.625 12.875 4.79316 12.875 5V11C12.875 11.2068 12.7068 11.375 12.5 11.375H3.5C3.29316 11.375 3.125 11.2068 3.125 11V5Z" fill="context-stroke"/>
</g>
<defs>
<clipPath id="clip0_11642_10087">
<rect width="16" height="16"/>
</clipPath>
</defs>
</svg> 