<!-- This Source Code Form is subject to the terms of the Mozilla Public
   - License, v. 2.0. If a copy of the MPL was not distributed with this
   - file, You can obtain one at https://mozilla.org/MPL/2.0/. -->
<svg width="16" height="16" viewBox="0 0 16 16" fill="none" xmlns="http://www.w3.org/2000/svg">
<g clip-path="url(#clip0_11642_10087)">
<path d="M16 8C16 12.4183 12.4183 16 8 16C3.58172 16 0 12.4183 0 8C0 3.58172 3.58172 0 8 0C12.4183 0 16 3.58172 16 8Z" fill="context-fill"/>
<path fill-rule="evenodd" clip-rule="evenodd" d="M9.98484 8.1757L10.5471 8.738L10.1124 9.17279L10.9079 9.96828L14.0001 6.87603L13.2046 6.08054L12.7608 6.52432L12.1884 5.97662L12.0114 5.16907C11.9883 5.06404 11.9357 4.96782 11.8597 4.89178L10.4323 3.46439C9.16122 2.19424 7.10117 2.19404 5.83067 3.46453L5.59292 3.70228C5.46093 3.83428 5.40301 4.02315 5.43833 4.20645C5.47364 4.38975 5.59759 4.54358 5.76918 4.61709L7.16229 5.21387L7.26431 5.72265L2.41064 10.6173L2.40973 10.6182C1.86247 11.1664 1.86277 12.0544 2.41064 12.6023L2.88614 13.0778C3.43417 13.6258 4.32293 13.6255 4.87113 13.0778L9.83161 8.13739L9.98484 8.1757ZM7.03948 3.93738L7.87717 4.29623C8.04737 4.36914 8.17079 4.52115 8.20719 4.7027L8.41224 5.72536L9.609 6.92211L10.4088 7.12208C10.5078 7.1468 10.5981 7.19794 10.6702 7.27003L11.3426 7.94251L11.9651 7.32001L11.2868 6.67096C11.2061 6.5937 11.1501 6.49414 11.1262 6.38499L10.9477 5.57084L9.63706 4.26017C8.9322 3.55594 7.85687 3.4484 7.03948 3.93738ZM8.73634 7.64045L7.83786 6.74197L3.20614 11.4128C3.09731 11.5216 3.0973 11.698 3.20613 11.8068L3.68163 12.2823C3.79046 12.3911 3.96681 12.3911 4.07564 12.2823L8.73634 7.64045Z" fill="context-stroke"/>
</g>
<defs>
<clipPath id="clip0_11642_10087">
<rect width="16" height="16"/>
</clipPath>
</defs>
</svg> 