<!-- This Source Code Form is subject to the terms of the Mozilla Public
   - License, v. 2.0. If a copy of the MPL was not distributed with this
   - file, You can obtain one at https://mozilla.org/MPL/2.0/. -->
<svg width="16" height="16" viewBox="0 0 16 16" fill="none" xmlns="http://www.w3.org/2000/svg">
<g clip-path="url(#clip0_11642_10087)">
<path d="M16 8C16 12.4183 12.4183 16 8 16C3.58172 16 0 12.4183 0 8C0 3.58172 3.58172 0 8 0C12.4183 0 16 3.58172 16 8Z" fill="context-fill"/>
<path fill-rule="evenodd" clip-rule="evenodd" d="M12.4062 8C12.4062 5.4155 10.3033 3.3125 7.71875 3.3125C5.13425 3.3125 3.03125 5.4155 3.03125 8C3.03125 10.5845 5.13425 12.6875 7.71875 12.6875C10.3033 12.6875 12.4062 10.5845 12.4062 8ZM5.56616 2.80318C6.24861 2.52049 6.98006 2.375 7.71875 2.375C9.21059 2.375 10.6413 2.96763 11.6962 4.02252C12.7511 5.07742 13.3438 6.50816 13.3438 8C13.3438 9.49184 12.7511 10.9226 11.6962 11.9775C10.6413 13.0324 9.21059 13.625 7.71875 13.625C6.98006 13.625 6.24861 13.4795 5.56616 13.1968C4.8837 12.9141 4.2636 12.4998 3.74127 11.9775C3.21894 11.4551 2.80461 10.8351 2.52193 10.1526C2.23924 9.47014 2.09375 8.73869 2.09375 8C2.09375 7.26131 2.23924 6.52986 2.52193 5.84741C2.80461 5.16495 3.21894 4.54485 3.74127 4.02252C4.2636 3.50019 4.8837 3.08586 5.56616 2.80318ZM9.734 9.755C9.80513 9.79615 9.88583 9.81787 9.968 9.818C10.0709 9.81756 10.1708 9.78333 10.2524 9.72056C10.3339 9.65779 10.3926 9.56996 10.4194 9.47059C10.4461 9.37122 10.4395 9.26581 10.4005 9.17057C10.3615 9.07534 10.2923 8.99556 10.2035 8.9435L8.1875 7.7795V5.46875C8.1875 5.34443 8.13811 5.2252 8.05021 5.13729C7.9623 5.04939 7.84307 5 7.71875 5C7.59443 5 7.4752 5.04939 7.38729 5.13729C7.29939 5.2252 7.25 5.34443 7.25 5.46875V8.0495L7.484 8.456L9.734 9.755Z" fill="context-stroke"/>
</g>
<defs>
<clipPath id="clip0_11642_10087">
<rect width="16" height="16"/>
</clipPath>
</defs>
</svg>