<!-- This Source Code Form is subject to the terms of the Mozilla Public
   - License, v. 2.0. If a copy of the MPL was not distributed with this
   - file, You can obtain one at https://mozilla.org/MPL/2.0/. -->
<svg width="16" height="16" viewBox="0 0 16 16" fill="none" xmlns="http://www.w3.org/2000/svg">
<path id="background" d="M16 8C16 12.4183 12.4183 16 8 16C3.58172 16 0 12.4183 0 8C0 3.58172 3.58172 0 8 0C12.4183 0 16 3.58172 16 8Z" fill="context-fill"/>
<g clip-path="url(#clip0_11642_10003)">
<path d="M8.01997 14.2398C7.85997 14.2398 7.69997 14.1798 7.57997 14.0598L2.98997 9.48977C1.87997 8.37977 1.67997 6.67977 2.49997 5.34977C3.11997 4.34977 4.19997 3.77977 5.37997 3.75977C6.41997 3.75977 7.37997 4.23977 7.99997 5.04977C8.62997 4.23977 9.57997 3.76977 10.62 3.75977H10.64C11.81 3.75977 12.88 4.35977 13.5 5.35977C14.32 6.68977 14.12 8.37977 13.02 9.48977L8.45997 14.0598C8.33997 14.1798 8.17997 14.2398 8.01997 14.2398ZM5.35997 5.00977C4.61997 5.00977 3.95997 5.37977 3.56997 6.00977C3.05997 6.83977 3.17997 7.90977 3.87997 8.59977L8.02997 12.7298L12.15 8.59977C12.84 7.90977 12.96 6.83977 12.45 6.00977C12.06 5.37977 11.38 4.97977 10.65 5.00977C9.90997 5.00977 9.23997 5.39977 8.85997 6.02977L8.55997 6.52977C8.32997 6.90977 7.70997 6.90977 7.48997 6.52977L7.18997 6.02977C6.80997 5.38977 6.13997 5.00977 5.39997 5.00977H5.38997H5.35997Z" fill="context-stroke"/>
</g>
<defs>
<clipPath id="clip0_11642_10003">
<rect width="12" height="12" transform="translate(2 3)"/>
</clipPath>
</defs>
</svg>
