<!-- This Source Code Form is subject to the terms of the Mozilla Public
   - License, v. 2.0. If a copy of the MPL was not distributed with this
   - file, You can obtain one at https://mozilla.org/MPL/2.0/. -->
<svg width="16" height="16" viewBox="0 0 16 16" fill="none" xmlns="http://www.w3.org/2000/svg">
<g clip-path="url(#clip0_11642_10087)">
<path d="M16 8C16 12.4183 12.4183 16 8 16C3.58172 16 0 12.4183 0 8C0 3.58172 3.58172 0 8 0C12.4183 0 16 3.58172 16 8Z" fill="context-fill"/>
<path fill-rule="evenodd" clip-rule="evenodd" d="M6.84939 11.7502H9.15039C9.43769 11.7506 9.71587 11.6493 9.93565 11.4643C10.1554 11.2792 10.3026 11.0224 10.3511 10.7392L10.5716 9.33444C11.0533 8.95147 11.4429 8.46527 11.7116 7.91169C11.9803 7.35812 12.1213 6.75128 12.1243 6.13593C12.1272 5.52059 11.992 4.91243 11.7286 4.3563C11.4652 3.80017 11.0804 3.31026 10.6024 2.92269C9.63489 2.13594 8.36589 1.83219 7.12089 2.08944C5.51364 2.42469 4.23714 3.74169 3.94389 5.36619C3.66939 6.88644 4.22439 8.36994 5.39364 9.27219L5.64864 10.7392C5.69703 11.0224 5.84418 11.2794 6.06399 11.4644C6.2838 11.6495 6.56205 11.7507 6.84939 11.7502ZM9.68289 9.11094L9.42714 10.5794L9.14964 10.8127H6.84939L6.57189 10.5787L6.31689 9.11169C6.28239 8.91294 6.17514 8.73219 6.01389 8.60319C5.56029 8.24528 5.21349 7.76988 5.01117 7.22866C4.80886 6.68745 4.75879 6.10112 4.86639 5.53344C5.09214 4.28019 6.07464 3.26544 7.31064 3.00894C7.53789 2.96094 7.76589 2.93844 7.99089 2.93844C8.72594 2.93586 9.43926 3.18759 10.0099 3.65094C10.7576 4.25919 11.1866 5.16144 11.1866 6.12444C11.1866 7.08744 10.7486 7.99044 9.98439 8.60394C9.82389 8.73294 9.71739 8.91294 9.68289 9.11094ZM5.88729 13.8627C5.9752 13.9506 6.09443 14 6.21875 14H9.78125C9.90557 14 10.0248 13.9506 10.1127 13.8627C10.2006 13.7748 10.25 13.6556 10.25 13.5312C10.25 13.4069 10.2006 13.2877 10.1127 13.1998C10.0248 13.1119 9.90557 13.0625 9.78125 13.0625H6.21875C6.09443 13.0625 5.9752 13.1119 5.88729 13.1998C5.79939 13.2877 5.75 13.4069 5.75 13.5312C5.75 13.6556 5.79939 13.7748 5.88729 13.8627Z" fill="context-stroke"/>
</g>
<defs>
<clipPath id="clip0_11642_10087">
<rect width="16" height="16"/>
</clipPath>
</defs>
</svg>