<!-- This Source Code Form is subject to the terms of the Mozilla Public
   - License, v. 2.0. If a copy of the MPL was not distributed with this
   - file, You can obtain one at https://mozilla.org/MPL/2.0/. -->
<svg width="16" height="16" viewBox="0 0 16 16" fill="none" xmlns="http://www.w3.org/2000/svg">
<g clip-path="url(#clip0_11642_10087)">
<path d="M16 8C16 12.4183 12.4183 16 8 16C3.58172 16 0 12.4183 0 8C0 3.58172 3.58172 0 8 0C12.4183 0 16 3.58172 16 8Z" fill="context-fill"/>
<path fill-rule="evenodd" clip-rule="evenodd" d="M4.03803 11.1666C3.55715 10.5659 3.21129 9.85467 3.05067 9.08299C2.37063 5.81877 4.8487 2.9375 8.00009 2.9375H12.5001C12.8107 2.9375 13.0626 3.18934 13.0626 3.5V8C13.0626 11.1514 10.1814 13.6295 6.9171 12.9494C6.14568 12.7885 5.43437 12.4427 4.83361 11.962L3.50008 13.2955L2.70459 12.5L4.03803 11.1666ZM4.15201 8.85351C3.62014 6.30078 5.54902 4.0625 8.00009 4.0625H11.9376V8C11.9376 10.451 9.69937 12.3799 7.14668 11.8481C6.59348 11.7327 6.07902 11.4927 5.6354 11.1602L9.17058 7.62499L8.37508 6.8295L4.83981 10.3648C4.50713 9.92119 4.26713 9.40666 4.15201 8.85351Z" fill="context-stroke"/>
</g>
<defs>
<clipPath id="clip0_11642_10087">
<rect width="16" height="16"/>
</clipPath>
</defs>
</svg>