<!-- This Source Code Form is subject to the terms of the Mozilla Public
   - License, v. 2.0. If a copy of the MPL was not distributed with this
   - file, You can obtain one at https://mozilla.org/MPL/2.0/. -->
<svg width="16" height="16" viewBox="0 0 16 16" fill="none" xmlns="http://www.w3.org/2000/svg">
<g clip-path="url(#clip0_11642_10087)">
<path d="M16 8C16 12.4183 12.4183 16 8 16C3.58172 16 0 12.4183 0 8C0 3.58172 3.58172 0 8 0C12.4183 0 16 3.58172 16 8Z" fill="context-fill"/>
<path fill-rule="evenodd" clip-rule="evenodd" d="M8 9.5C6.5525 9.5 5.375 8.3225 5.375 6.875C5.375 5.4275 6.5525 4.25 8 4.25C9.4475 4.25 10.625 5.4275 10.625 6.875C10.625 8.3225 9.4475 9.5 8 9.5ZM8 5.375C7.175 5.375 6.5 6.05 6.5 6.875C6.5 7.7 7.175 8.375 8 8.375C8.825 8.375 9.5 7.7 9.5 6.875C9.5 6.05 8.825 5.375 8 5.375Z" fill="context-stroke"/>
<path fill-rule="evenodd" clip-rule="evenodd" d="M11.5124 10.25C12.3555 9.37296 12.875 8.18269 12.875 6.875C12.875 4.19 10.685 2 8 2C5.315 2 3.125 4.19 3.125 6.875C3.125 8.18269 3.64447 9.37296 4.4876 10.25H3.3125C3.005 10.25 2.75 10.505 2.75 10.8125V12.5C2.75 13.325 3.425 14 4.25 14H11.75C12.575 14 13.25 13.325 13.25 12.5V10.8125C13.25 10.505 12.995 10.25 12.6875 10.25H11.5124ZM3.875 11.375V12.5C3.875 12.71 4.04 12.875 4.25 12.875H11.75C11.96 12.875 12.125 12.71 12.125 12.5V11.375H3.875ZM9.6357 10.25C10.8869 9.64206 11.75 8.35871 11.75 6.875C11.75 4.805 10.07 3.125 8 3.125C5.93 3.125 4.25 4.805 4.25 6.875C4.25 8.35871 5.11311 9.64206 6.3643 10.25H9.6357Z" fill="context-stroke"/>
</g>
<defs>
<clipPath id="clip0_11642_10087">
<rect width="16" height="16"/>
</clipPath>
</defs>
</svg>