<!-- This Source Code Form is subject to the terms of the Mozilla Public
   - License, v. 2.0. If a copy of the MPL was not distributed with this
   - file, You can obtain one at https://mozilla.org/MPL/2.0/. -->
<svg width="16" height="16" viewBox="0 0 16 16" fill="none" xmlns="http://www.w3.org/2000/svg">
<g clip-path="url(#clip0_11642_10087)">
<path d="M16 8C16 12.4183 12.4183 16 8 16C3.58172 16 0 12.4183 0 8C0 3.58172 3.58172 0 8 0C12.4183 0 16 3.58172 16 8Z" fill="context-fill"/>
<path fill-rule="evenodd" clip-rule="evenodd" d="M6.5 2.375C5.67184 2.375 5 3.04684 5 3.875V8.75H4.25C3.00709 8.75 2 9.75709 2 11C2 12.2429 3.00709 13.25 4.25 13.25C4.95709 13.25 5.58868 12.9232 6.00006 12.414L6.125 12.2593V6.125H12.8754L12.8759 8.75H12.125C10.8821 8.75 9.875 9.75709 9.875 11C9.875 12.2429 10.8821 13.25 12.125 13.25C12.8335 13.25 13.4648 12.922 13.8765 12.4126L14.0015 12.2578L14 3.8749C13.9999 3.04678 13.3281 2.375 12.5 2.375H6.5ZM12.8752 5L12.875 3.8751C12.875 3.66826 12.7068 3.5 12.5 3.5H6.5C6.29316 3.5 6.125 3.66816 6.125 3.875V5H12.8752ZM4.25 9.875H5V11.8386C4.80084 12.0171 4.53823 12.125 4.25 12.125C3.62841 12.125 3.125 11.6216 3.125 11C3.125 10.3784 3.62841 9.875 4.25 9.875ZM12.125 9.875H12.8761L12.8765 11.8372C12.6765 12.0168 12.4136 12.125 12.125 12.125C11.5034 12.125 11 11.6216 11 11C11 10.3784 11.5034 9.875 12.125 9.875Z" fill="context-stroke"/>
</g>
<defs>
<clipPath id="clip0_11642_10087">
<rect width="16" height="16"/>
</clipPath>
</defs>
</svg>