<!-- This Source Code Form is subject to the terms of the Mozilla Public
   - License, v. 2.0. If a copy of the MPL was not distributed with this
   - file, You can obtain one at https://mozilla.org/MPL/2.0/. -->
<svg width="16" height="16" viewBox="0 0 16 16" fill="none" xmlns="http://www.w3.org/2000/svg">
<g clip-path="url(#clip0_11642_10087)">
<path d="M16 8C16 12.4183 12.4183 16 8 16C3.58172 16 0 12.4183 0 8C0 3.58172 3.58172 0 8 0C12.4183 0 16 3.58172 16 8Z" fill="context-fill"/>
<path fill-rule="evenodd" clip-rule="evenodd" d="M11.8625 3.6875L12.3125 4.1375V9.6125L11.8625 10.0625H10.4375C10.2275 10.0625 10.0625 10.2275 10.0625 10.4375V12.05L7.7825 10.2275C7.6475 10.1225 7.4825 10.0625 7.3175 10.0625H4.1375L3.6875 9.6125V4.1375L4.1375 3.6875H11.8625ZM11.75 2.75H4.25C3.425 2.75 2.75 3.425 2.75 4.25V9.5C2.75 10.325 3.425 11 4.25 11H7.25L10.0625 13.25H11V11H11.75C12.575 11 13.25 10.325 13.25 9.5V4.25C13.25 3.425 12.575 2.75 11.75 2.75ZM6.70249 7.79785H5.64499C5.38818 7.79785 5.17999 8.00604 5.17999 8.26285V8.27035C5.17999 8.52716 5.38818 8.73535 5.64499 8.73535H6.70249C6.95931 8.73535 7.16749 8.52716 7.16749 8.27035V8.26285C7.16749 8.00604 6.95931 7.79785 6.70249 7.79785ZM8.3826 7.79785H10.3551C10.6119 7.79785 10.8201 8.00604 10.8201 8.26285V8.27035C10.8201 8.52716 10.6119 8.73535 10.3551 8.73535H8.3826C8.12579 8.73535 7.9176 8.52716 7.9176 8.27035V8.26285C7.9176 8.00604 8.12579 7.79785 8.3826 7.79785ZM10.3549 5.73535H9.2974C9.04059 5.73535 8.8324 5.94354 8.8324 6.20035V6.20785C8.8324 6.46466 9.04059 6.67285 9.2974 6.67285H10.3549C10.6117 6.67285 10.8199 6.46466 10.8199 6.20785V6.20035C10.8199 5.94354 10.6117 5.73535 10.3549 5.73535ZM5.64499 5.73535H7.61749C7.8743 5.73535 8.08249 5.94354 8.08249 6.20035V6.20785C8.08249 6.46466 7.8743 6.67285 7.61749 6.67285H5.64499C5.38818 6.67285 5.17999 6.46466 5.17999 6.20785V6.20035C5.17999 5.94354 5.38818 5.73535 5.64499 5.73535Z" fill="context-stroke"/>
</g>
<defs>
<clipPath id="clip0_11642_10087">
<rect width="16" height="16"/>
</clipPath>
</defs>
</svg>