<!-- This Source Code Form is subject to the terms of the Mozilla Public
   - License, v. 2.0. If a copy of the MPL was not distributed with this
   - file, You can obtain one at https://mozilla.org/MPL/2.0/. -->
<svg width="16" height="16" viewBox="0 0 16 16" fill="none" xmlns="http://www.w3.org/2000/svg">
<path d="M16 8C16 12.4183 12.4183 16 8 16C3.58172 16 0 12.4183 0 8C0 3.58172 3.58172 0 8 0C12.4183 0 16 3.58172 16 8Z" fill="context-fill"/>
<g clip-path="url(#clip0_11642_10083)">
<path fill-rule="evenodd" clip-rule="evenodd" d="M8 2.64665C7.62401 2.24844 7.09112 2 6.5 2H6.3125C5.17309 2 4.25 2.92309 4.25 4.0625C4.25 4.40012 4.33105 4.71875 4.47476 5H3.875C3.04684 5 2.375 5.67184 2.375 6.5V7.25C2.375 7.80498 2.67672 8.28977 3.125 8.5492V12.5C3.125 13.3282 3.79684 14 4.625 14H11.375C12.2032 14 12.875 13.3282 12.875 12.5V8.5492C13.3233 8.28977 13.625 7.80498 13.625 7.25V6.5C13.625 5.67184 12.9532 5 12.125 5H11.5252C11.6689 4.71875 11.75 4.40012 11.75 4.0625C11.75 2.92309 10.8269 2 9.6875 2H9.5C8.90888 2 8.37599 2.24844 8 2.64665ZM6.3125 3.125C5.79441 3.125 5.375 3.54441 5.375 4.0625C5.375 4.58059 5.79441 5 6.3125 5H7.4375V4.0625C7.4375 3.54441 7.01809 3.125 6.5 3.125H6.3125ZM8.5625 6.125V7.625H12.125C12.3318 7.625 12.5 7.45684 12.5 7.25V6.5C12.5 6.29316 12.3318 6.125 12.125 6.125H8.5625ZM9.6875 5C10.2056 5 10.625 4.58059 10.625 4.0625C10.625 3.54441 10.2056 3.125 9.6875 3.125H9.5C8.98191 3.125 8.5625 3.54441 8.5625 4.0625V5H9.6875ZM3.875 6.125H7.4375V7.625H3.875C3.66816 7.625 3.5 7.45684 3.5 7.25V6.5C3.5 6.29316 3.66816 6.125 3.875 6.125ZM8.5625 8.75H11.75V12.5C11.75 12.7068 11.5818 12.875 11.375 12.875H8.5625V8.75ZM7.4375 8.75V12.875H4.625C4.41816 12.875 4.25 12.7068 4.25 12.5V8.75H7.4375Z" fill="context-stroke"/>
</g>
<defs>
<clipPath id="clip0_11642_10083">
<rect width="12" height="12" transform="translate(2 2)"/>
</clipPath>
</defs>
</svg>