<!-- This Source Code Form is subject to the terms of the Mozilla Public
   - License, v. 2.0. If a copy of the MPL was not distributed with this
   - file, You can obtain one at https://mozilla.org/MPL/2.0/. -->
<svg width="16" height="16" viewBox="0 0 16 16" fill="none" xmlns="http://www.w3.org/2000/svg">
<g clip-path="url(#clip0_11642_10087)">
<path d="M16 8C16 12.4183 12.4183 16 8 16C3.58172 16 0 12.4183 0 8C0 3.58172 3.58172 0 8 0C12.4183 0 16 3.58172 16 8Z" fill="context-fill"/>
<path d="M11 3.875C11 4.70343 10.4963 5.375 9.875 5.375C9.25368 5.375 8.75 4.70343 8.75 3.875C8.75 3.04657 9.25368 2.375 9.875 2.375C10.4963 2.375 11 3.04657 11 3.875Z" fill="context-stroke"/>
<path fill-rule="evenodd" clip-rule="evenodd" d="M5.50999 13.25C4.39999 13.25 3.49249 12.32 3.49249 11.1875C3.49249 10.64 3.70249 10.1225 4.07749 9.7325L4.52749 9.2675C5.14999 8.6225 5.65249 7.88 6.01999 7.0475C6.37249 6.26 7.14499 5.75 7.99249 5.75C8.83999 5.75 9.61249 6.26 9.96499 7.0475C10.3325 7.8725 10.835 8.6225 11.4575 9.2675L11.9075 9.7325C12.2825 10.1225 12.4925 10.64 12.4925 11.1875C12.4925 12.3275 11.585 13.25 10.475 13.25H5.50999ZM7.99999 6.875C7.59499 6.875 7.22749 7.1225 7.05499 7.505C6.63499 8.45 6.05749 9.305 5.34499 10.0475L4.89499 10.5125C4.72249 10.685 4.62499 10.9325 4.62499 11.18C4.62499 11.6975 5.02249 12.1175 5.51749 12.1175H10.49C10.9775 12.1175 11.3825 11.6975 11.3825 11.18C11.3825 10.9325 11.285 10.685 11.1125 10.5125L10.6625 10.0475C9.94999 9.3125 9.37249 8.4575 8.95249 7.505C8.77999 7.1225 8.41249 6.875 8.00749 6.875H7.99999Z" fill="context-stroke"/>
<path d="M12.875 8.75C13.4963 8.75 14 8.07843 14 7.25C14 6.42157 13.4963 5.75 12.875 5.75C12.2537 5.75 11.75 6.42157 11.75 7.25C11.75 8.07843 12.2537 8.75 12.875 8.75Z" fill="context-stroke"/>
<path d="M6.125 5.375C6.74632 5.375 7.25 4.70343 7.25 3.875C7.25 3.04657 6.74632 2.375 6.125 2.375C5.50368 2.375 5 3.04657 5 3.875C5 4.70343 5.50368 5.375 6.125 5.375Z" fill="context-stroke"/>
<path d="M4.25 7.25C4.25 8.07843 3.74632 8.75 3.125 8.75C2.50368 8.75 2 8.07843 2 7.25C2 6.42157 2.50368 5.75 3.125 5.75C3.74632 5.75 4.25 6.42157 4.25 7.25Z" fill="context-stroke"/>
</g>
<defs>
<clipPath id="clip0_11642_10087">
<rect width="16" height="16"/>
</clipPath>
</defs>
</svg>