<!-- This Source Code Form is subject to the terms of the Mozilla Public
   - License, v. 2.0. If a copy of the MPL was not distributed with this
   - file, You can obtain one at https://mozilla.org/MPL/2.0/. -->
<svg width="16" height="16" viewBox="0 0 16 16" fill="none" xmlns="http://www.w3.org/2000/svg">
<g clip-path="url(#clip0_11642_10087)">
<path d="M16 8C16 12.4183 12.4183 16 8 16C3.58172 16 0 12.4183 0 8C0 3.58172 3.58172 0 8 0C12.4183 0 16 3.58172 16 8Z" fill="context-fill"/>
<path d="M5.74994 6.50011C6.16415 6.50011 6.49994 6.83589 6.49994 7.25011C6.49994 7.66432 6.16415 8.00011 5.74994 8.00011C5.33573 8.00011 4.99994 7.66432 4.99994 7.25011C4.99994 6.83589 5.33573 6.50011 5.74994 6.50011Z" fill="context-stroke"/>
<path d="M8.74994 5.75011C8.74994 5.33589 8.41415 5.00011 7.99994 5.00011C7.58573 5.00011 7.24994 5.33589 7.24994 5.75011C7.24994 6.16432 7.58573 6.50011 7.99994 6.50011C8.41415 6.50011 8.74994 6.16432 8.74994 5.75011Z" fill="context-stroke"/>
<path d="M10.2499 6.50011C10.6642 6.50011 10.9999 6.83589 10.9999 7.25011C10.9999 7.66432 10.6642 8.00011 10.2499 8.00011C9.83573 8.00011 9.49994 7.66432 9.49994 7.25011C9.49994 6.83589 9.83573 6.50011 10.2499 6.50011Z" fill="context-stroke"/>
<path fill-rule="evenodd" clip-rule="evenodd" d="M7.99986 13.6251H8.39736C8.93736 13.6251 9.43236 13.3476 9.70236 12.8751C9.97236 12.4026 9.97236 11.8401 9.70236 11.3676C9.60486 11.1951 9.67236 11.0451 9.70236 10.9851C9.73236 10.9251 9.82986 10.7901 10.0324 10.7901H10.8049C11.5624 10.7901 12.2749 10.4901 12.8074 9.95011C13.3474 9.40261 13.6324 8.68261 13.6249 7.91761C13.6024 6.26761 12.8599 4.71511 11.5849 3.65761C10.3024 2.60761 8.62236 2.17261 6.97236 2.46511C4.58736 2.89261 2.71236 4.88011 2.41236 7.29511C2.21736 8.90761 2.71986 10.5201 3.78486 11.7276C4.85736 12.9351 6.38736 13.6251 7.99986 13.6251ZM7.16736 3.57511C7.45236 3.52261 7.72986 3.50011 8.00736 3.50011L7.99236 3.50761C9.04236 3.50761 10.0324 3.86012 10.8499 4.53511C11.8699 5.37512 12.4699 6.62011 12.4849 7.94011C12.4849 8.39761 12.3124 8.83262 11.9899 9.16261C11.6674 9.48512 11.2474 9.66511 10.7899 9.66511H10.0174C9.47736 9.66511 8.98236 9.94261 8.71236 10.4151C8.44236 10.8876 8.44236 11.4501 8.71236 11.9226C8.80986 12.0951 8.74236 12.2451 8.71236 12.3051C8.68236 12.3651 8.58486 12.5001 8.38236 12.5001H7.99236C6.70986 12.5001 5.47986 11.9526 4.62486 10.9851C3.76236 10.0101 3.37236 8.75011 3.52986 7.43761C3.76986 5.50261 5.26236 3.91261 7.16736 3.57511Z" fill="context-stroke"/>
</g>
<defs>
<clipPath id="clip0_11642_10087">
<rect width="16" height="16"/>
</clipPath>
</defs>
</svg>