<!-- This Source Code Form is subject to the terms of the Mozilla Public
   - License, v. 2.0. If a copy of the MPL was not distributed with this
   - file, You can obtain one at https://mozilla.org/MPL/2.0/. -->
<svg width="16" height="16" viewBox="0 0 16 16" fill="none" xmlns="http://www.w3.org/2000/svg">
<g clip-path="url(#clip0_11642_10084)">
<path d="M16 8C16 12.4183 12.4183 16 8 16C3.58172 16 0 12.4183 0 8C0 3.58172 3.58172 0 8 0C12.4183 0 16 3.58172 16 8Z" fill="context-fill"/>
<path fill-rule="evenodd" clip-rule="evenodd" d="M12.607 3.39281C12.2499 3.03573 11.6701 3.03573 11.313 3.39281L10.0043 4.70156C9.86217 4.84365 9.65507 4.89915 9.46097 4.84716L5.65122 3.82668C5.65109 3.82664 5.65136 3.82671 5.65122 3.82668C5.52564 3.79344 5.3925 3.82931 5.30176 3.92006L4.55821 4.66361L7.94232 5.57022C8.13644 5.62223 8.28807 5.77385 8.34009 5.96797C8.39211 6.16208 8.33661 6.36921 8.19451 6.51131L5.82826 8.87756C5.70593 8.99989 5.53411 9.05912 5.36239 9.03817L4.00545 8.87262L3.60267 9.2754L5.67525 9.96997C5.84252 10.026 5.9738 10.1573 6.02986 10.3246L6.72452 12.3974L7.12721 11.995L6.96165 10.6374C6.94071 10.4657 6.99992 10.2939 7.1222 10.1716L9.48845 7.80463C9.63055 7.66249 9.83769 7.60696 10.0318 7.65897C10.226 7.71099 10.3776 7.86263 10.4296 8.05677L11.3363 11.4416L12.0798 10.6981C12.1713 10.6065 12.2067 10.4738 12.1735 10.3498L11.1527 6.53885C11.1007 6.34475 11.1562 6.13765 11.2983 5.99557L12.607 4.68681C12.9641 4.32973 12.9641 3.74989 12.607 3.39281ZM10.5175 2.59731C11.3139 1.8009 12.6061 1.8009 13.4025 2.59731C14.1989 3.39373 14.1989 4.68589 13.4025 5.48231L12.3234 6.56144L13.2601 10.0583C13.2601 10.0584 13.26 10.0583 13.2601 10.0583C13.3977 10.5718 13.2502 11.1187 12.8753 11.4936L11.4428 12.9261C11.3007 13.0682 11.0935 13.1237 10.8994 13.0716C10.7053 13.0196 10.5537 12.868 10.5017 12.6739L9.59507 9.28922L8.11155 10.7732L8.27712 12.131C8.29807 12.3027 8.23879 12.4746 8.11639 12.5969L6.87739 13.8352C6.73963 13.9729 6.54046 14.0295 6.35088 13.9849C6.16131 13.9402 6.0083 13.8007 5.94641 13.6161L5.05217 10.9477L2.38377 10.0534C2.19908 9.99152 2.05956 9.83847 2.01495 9.64886C1.97035 9.45925 2.02703 9.26005 2.16476 9.12232L3.40376 7.88332C3.52609 7.76099 3.69791 7.70175 3.86964 7.7227L5.22657 7.88826L6.71006 6.40477L3.32595 5.49815C3.13183 5.44615 2.9802 5.29453 2.92818 5.10041C2.87616 4.90629 2.93166 4.69917 3.07376 4.55707L4.50626 3.12457C4.88192 2.74891 5.4285 2.60337 5.9403 2.73945L5.9413 2.73972L9.43838 3.67645L10.5175 2.59731Z" fill="context-stroke"/>
</g>
<defs>
<clipPath id="clip0_11642_10084">
<rect width="16" height="16"/>
</clipPath>
</defs>
</svg>