<!-- This Source Code Form is subject to the terms of the Mozilla Public
   - License, v. 2.0. If a copy of the MPL was not distributed with this
   - file, You can obtain one at https://mozilla.org/MPL/2.0/. -->
<svg width="16" height="16" viewBox="0 0 16 16" fill="none" xmlns="http://www.w3.org/2000/svg">
<path d="M16 8C16 12.4183 12.4183 16 8 16C3.58172 16 0 12.4183 0 8C0 3.58172 3.58172 0 8 0C12.4183 0 16 3.58172 16 8Z" fill="context-fill"/>
<g clip-path="url(#clip0_11642_10128)">
<path d="M10.82 13.7805C10.55 13.7805 10.29 13.7105 10.05 13.5605L8 12.2605L5.95 13.5605C5.45 13.8805 4.81 13.8505 4.34 13.5105C3.86 13.1605 3.65 12.5705 3.79 11.9905L4.39 9.64047L2.52 8.09047C2.06 7.71047 1.89 7.10047 2.07 6.54047C2.25 5.98047 2.75 5.59047 3.35 5.55047L5.77 5.39047L6.67 3.14047C6.89 2.59047 7.41 2.23047 8.01 2.23047C8.61 2.23047 9.13 2.59047 9.35 3.14047L10.25 5.39047L12.67 5.55047C13.26 5.59047 13.76 5.98047 13.95 6.54047C14.13 7.10047 13.95 7.71047 13.5 8.09047L11.63 9.64047L12.23 11.9905C12.38 12.5605 12.16 13.1605 11.68 13.5105C11.43 13.6905 11.13 13.7905 10.83 13.7905L10.82 13.7805ZM8 10.9005C8.12 10.9005 8.23 10.9305 8.33 11.0005L10.71 12.5105C10.8 12.5705 10.87 12.5405 10.92 12.5105C10.97 12.4805 11.02 12.4105 10.99 12.3105L10.29 9.58047C10.23 9.35047 10.31 9.10047 10.5 8.95047L12.67 7.15047C12.75 7.08047 12.75 7.00047 12.73 6.95047C12.71 6.90047 12.67 6.83047 12.56 6.82047L9.75 6.64047C9.51 6.62047 9.3 6.47047 9.21 6.25047L8.17 3.63047C8.09 3.43047 7.9 3.43047 7.82 3.63047L6.78 6.25047C6.69 6.47047 6.48 6.63047 6.24 6.64047L3.43 6.82047C3.32 6.82047 3.28 6.89047 3.26 6.95047C3.24 7.01047 3.24 7.09047 3.32 7.15047L5.49 8.95047C5.68 9.10047 5.76 9.35047 5.7 9.58047L5 12.3105C4.97 12.4105 5.02 12.4805 5.07 12.5105C5.12 12.5405 5.19 12.5705 5.28 12.5105L7.66 11.0005C7.76 10.9405 7.88 10.9005 7.99 10.9005H8Z" fill="context-stroke"/>
</g>
<defs>
<clipPath id="clip0_11642_10128">
<rect width="12" height="12" transform="translate(2 2)"/>
</clipPath>
</defs>
</svg>
