<!-- This Source Code Form is subject to the terms of the Mozilla Public
   - License, v. 2.0. If a copy of the MPL was not distributed with this
   - file, You can obtain one at https://mozilla.org/MPL/2.0/. -->
<svg width="16" height="16" viewBox="0 0 16 16" fill="none" xmlns="http://www.w3.org/2000/svg">
<g clip-path="url(#clip0_11642_10087)">
<path d="M16 8C16 12.4183 12.4183 16 8 16C3.58172 16 0 12.4183 0 8C0 3.58172 3.58172 0 8 0C12.4183 0 16 3.58172 16 8Z" fill="context-fill"/>
<path d="M7.99998 6.5L6.42273 7.646L7.02498 9.5H8.97498L9.57723 7.646L7.99998 6.5Z" fill="context-stroke"/>
<path fill-rule="evenodd" clip-rule="evenodd" d="M8 2C4.68629 2 2 4.68629 2 8C2 11.3137 4.68629 14 8 14C11.3137 14 14 11.3137 14 8C14 4.68629 11.3137 2 8 2ZM6.06953 3.52216C5.45687 3.78665 4.90923 4.17319 4.45727 4.65115L5.33754 6.94475L3.1744 8.69667C3.25787 9.28001 3.44462 9.83004 3.71551 10.3276L5.86484 10.2148L6.83175 12.7341C7.20603 12.8262 7.59731 12.875 8 12.875C8.41885 12.875 8.82536 12.8222 9.21323 12.7228L9.84421 10.3678L12.3324 10.2374C12.5977 9.72467 12.7747 9.15883 12.8432 8.56002L10.7374 7.19224L11.4453 4.55098C11.0129 4.11904 10.4997 3.76789 9.93042 3.52214L7.99996 4.925L6.06953 3.52216Z" fill="context-stroke"/>
</g>
<defs>
<clipPath id="clip0_11642_10087">
<rect width="16" height="16"/>
</clipPath>
</defs>
</svg>