<!-- This Source Code Form is subject to the terms of the Mozilla Public
   - License, v. 2.0. If a copy of the MPL was not distributed with this
   - file, You can obtain one at https://mozilla.org/MPL/2.0/. -->
<svg width="16" height="16" viewBox="0 0 16 16" fill="none" xmlns="http://www.w3.org/2000/svg">
<g clip-path="url(#clip0_11642_10087)">
<path d="M16 8C16 12.4183 12.4183 16 8 16C3.58172 16 0 12.4183 0 8C0 3.58172 3.58172 0 8 0C12.4183 0 16 3.58172 16 8Z" fill="context-fill"/>
<path fill-rule="evenodd" clip-rule="evenodd" d="M7.99997 4.05758L7.15677 6.19645C6.98335 6.63505 6.63615 6.98256 6.19755 7.15599L4.05815 7.9994L6.19702 8.84259C6.63562 9.01602 6.98314 9.36321 7.15656 9.80181L7.99997 11.9412L8.84316 9.80235C9.01659 9.36375 9.36378 9.01623 9.80238 8.84281L11.9418 7.9994L9.80292 7.1562C9.36432 6.98278 9.0168 6.63558 8.84338 6.19698L7.99997 4.05758ZM7.05229 3.39402C7.39194 2.53402 8.60799 2.53402 8.94764 3.39402L9.88956 5.78331C9.88961 5.78343 9.88952 5.7832 9.88956 5.78331C9.94865 5.93248 10.0666 6.05065 10.2158 6.10971C10.2159 6.10974 10.2157 6.10968 10.2158 6.10971L12.605 7.05159C13.465 7.39125 13.4653 8.60742 12.6053 8.94707L10.2161 9.88899C10.2159 9.88903 10.2162 9.88895 10.2161 9.88899C10.0669 9.94806 9.94877 10.066 9.88969 10.2151C9.88965 10.2153 9.88974 10.215 9.88969 10.2151L8.94777 12.6044C8.60812 13.4644 7.39194 13.4648 7.05229 12.6048L6.11038 10.2155C6.11035 10.2154 6.11041 10.2156 6.11038 10.2155C6.05132 10.0663 5.93338 9.94821 5.78422 9.88912C5.78411 9.88908 5.78433 9.88917 5.78422 9.88912L3.39492 8.9472C2.53492 8.60755 2.53459 7.39137 3.39459 7.05172L5.78388 6.10981C5.78396 6.10978 5.7838 6.10984 5.78388 6.10981C5.93309 6.05073 6.05121 5.93276 6.11028 5.78355C6.11031 5.78347 6.11025 5.78363 6.11028 5.78355L7.05229 3.39402Z" fill="context-stroke"/>
</g>
<defs>
<clipPath id="clip0_11642_10087">
<rect width="16" height="16"/>
</clipPath>
</defs>
</svg>