<!-- This Source Code Form is subject to the terms of the Mozilla Public
   - License, v. 2.0. If a copy of the MPL was not distributed with this
   - file, You can obtain one at https://mozilla.org/MPL/2.0/. -->
<svg width="16" height="16" viewBox="0 0 16 16" fill="none" xmlns="http://www.w3.org/2000/svg">
<g clip-path="url(#clip0_11642_10087)">
<path d="M16 8C16 12.4183 12.4183 16 8 16C3.58172 16 0 12.4183 0 8C0 3.58172 3.58172 0 8 0C12.4183 0 16 3.58172 16 8Z" fill="context-fill"/>
<path d="M10.625 6.125H9.125V7.625H10.625V6.125Z" fill="context-stroke"/>
<path d="M6.59741 5.75H5.65991V6.41H5V7.3475H5.65991V8H6.59741V7.3475H7.25V6.41H6.59741V5.75Z" fill="context-stroke"/>
<path fill-rule="evenodd" clip-rule="evenodd" d="M12.125 12.125C11.48 12.125 10.8425 11.7875 10.4975 11.1875L9.96504 10.25H6.02754L5.49504 11.1875C4.97754 12.08 3.83004 12.3875 2.93004 11.8775C2.18004 11.435 1.82004 10.5125 2.09004 9.6875L3.47754 4.6025C3.65754 3.95 4.25004 3.5 4.92504 3.5H11.075C11.75 3.5 12.3425 3.95 12.5225 4.6025L13.925 9.7175C14.18 10.5425 13.8275 11.435 13.0625 11.8775C12.77 12.05 12.4475 12.125 12.125 12.125ZM5.71254 9.125H10.295C10.4975 9.125 10.685 9.2375 10.7825 9.41L11.4725 10.625C11.675 10.9775 12.1325 11.0975 12.4925 10.895C12.8 10.7225 12.935 10.3625 12.8375 10.025L11.4275 4.895C11.3825 4.73 11.2325 4.6175 11.0675 4.6175H4.92504C4.76004 4.6175 4.61004 4.73 4.56504 4.895L3.16254 9.995C3.05004 10.3475 3.19254 10.715 3.50004 10.895C3.86004 11.105 4.31754 10.9775 4.52754 10.625L5.22504 9.41C5.32254 9.2375 5.51004 9.125 5.71254 9.125Z" fill="context-stroke"/>
</g>
<defs>
<clipPath id="clip0_11642_10087">
<rect width="16" height="16"/>
</clipPath>
</defs>
</svg>