<!-- This Source Code Form is subject to the terms of the Mozilla Public
   - License, v. 2.0. If a copy of the MPL was not distributed with this
   - file, You can obtain one at https://mozilla.org/MPL/2.0/. -->
<svg width="20" height="20" viewBox="0 0 20 20" fill="none" xmlns="http://www.w3.org/2000/svg">
<g clip-path="url(#clip0_11642_10088)">
<path d="M20 10C20 15.5228 15.5228 20 10 20C4.47715 20 0 15.5228 0 10C0 4.47715 4.47715 0 10 0C15.5228 0 20 4.47715 20 10Z" fill="context-fill"/>
<path fill-rule="evenodd" clip-rule="evenodd" d="M10.6002 6.625H11.6918L12.0937 8.125H8.12531L8.12158 7.5625H8.59387C8.95612 7.5625 9.25012 7.2685 9.25012 6.90625C9.25012 6.544 8.95612 6.25 8.59387 6.25H6.43762C6.33412 6.25 6.25012 6.334 6.25012 6.4375V7.375C6.25012 7.4785 6.33412 7.5625 6.43762 7.5625H6.99656L7.00601 8.98858L6.91287 9.18985C6.74735 9.15554 6.57588 9.1375 6.4002 9.1375C5.01258 9.1375 3.8877 10.2624 3.8877 11.65C3.8877 13.0376 5.01258 14.1625 6.4002 14.1625C7.78781 14.1625 8.9127 13.0376 8.9127 11.65C8.9127 10.8402 8.52959 10.1199 7.93473 9.66041L8.12466 9.25H12.3951L12.4408 9.42036C11.6367 9.83932 11.0876 10.6805 11.0876 11.65C11.0876 13.0376 12.2125 14.1625 13.6001 14.1625C14.9877 14.1625 16.1126 13.0376 16.1126 11.65C16.1126 10.2624 14.9877 9.1375 13.6001 9.1375C13.5766 9.1375 13.5532 9.13783 13.5299 9.13846L12.6667 5.91692C12.6008 5.671 12.378 5.5 12.1234 5.5H10.6002V6.625ZM12.7453 10.557L13.1393 12.0273L14.226 11.7362L13.8365 10.2826C14.4902 10.3948 14.9876 10.9643 14.9876 11.65C14.9876 12.4163 14.3664 13.0375 13.6001 13.0375C12.8338 13.0375 12.2126 12.4163 12.2126 11.65C12.2126 11.2061 12.421 10.8109 12.7453 10.557ZM5.77643 11.6455L6.41642 10.2626L6.4002 10.2625C5.6339 10.2625 5.0127 10.8837 5.0127 11.65C5.0127 12.4163 5.6339 13.0375 6.4002 13.0375C7.16649 13.0375 7.7877 12.4163 7.7877 11.65C7.7877 11.2974 7.65614 10.9755 7.43943 10.7307L6.7974 12.118L5.77643 11.6455Z" fill="context-stroke"/>
</g>
<defs>
<clipPath id="clip0_11642_10088">
<rect width="20" height="20"/>
</clipPath>
</defs>
</svg>