<!-- This Source Code Form is subject to the terms of the Mozilla Public
   - License, v. 2.0. If a copy of the MPL was not distributed with this
   - file, You can obtain one at https://mozilla.org/MPL/2.0/. -->
<svg width="20" height="20" viewBox="0 0 20 20" fill="none" xmlns="http://www.w3.org/2000/svg">
<g clip-path="url(#clip0_11642_10088)">
<path d="M20 10C20 15.5228 15.5228 20 10 20C4.47715 20 0 15.5228 0 10C0 4.47715 4.47715 0 10 0C15.5228 0 20 4.47715 20 10Z" fill="context-fill"/>
<path fill-rule="evenodd" clip-rule="evenodd" d="M6.25 4.75C5.85218 4.75 5.47064 4.90804 5.18934 5.18934C4.90804 5.47064 4.75 5.85218 4.75 6.25V13.75C4.75 14.1478 4.90804 14.5294 5.18934 14.8107C5.47064 15.092 5.85218 15.25 6.25 15.25H13.75C14.1478 15.25 14.5294 15.092 14.8107 14.8107C15.092 14.5294 15.25 14.1478 15.25 13.75V6.25C15.25 5.85218 15.092 5.47064 14.8107 5.18934C14.5294 4.90804 14.1478 4.75 13.75 4.75H6.25ZM14.3125 13.8625L13.8625 14.3125H6.1375L5.6875 13.8625V6.1375L6.1375 5.6875H13.8625L14.3125 6.1375V13.8625ZM12.25 12.9997H7.75C7.55109 12.9997 7.36032 12.9206 7.21967 12.78C7.07902 12.6393 7 12.4486 7 12.2497V11.2589C6.99993 11.1103 7.05871 10.9676 7.1635 10.8622L8.7625 9.25341C8.81459 9.20099 8.8765 9.15935 8.94469 9.13087C9.01288 9.10238 9.08601 9.08761 9.15991 9.0874C9.23381 9.0872 9.30702 9.10155 9.37537 9.12965C9.44372 9.15775 9.50586 9.19904 9.55825 9.25116L11.1423 10.8277L11.6013 10.3949C11.7079 10.2942 11.8498 10.2392 11.9965 10.2416C12.1432 10.2439 12.2831 10.3035 12.3865 10.4077L12.8365 10.8614C12.9413 10.9669 13.0001 11.1095 13 11.2582V12.2497C13 12.4486 12.921 12.6393 12.7803 12.78C12.6397 12.9206 12.4489 12.9997 12.25 12.9997ZM11.8 7.75H12.7L13 8.05V8.95L12.7 9.25H11.8L11.5 8.95V8.05L11.8 7.75Z" fill="context-stroke"/>
</g>
<defs>
<clipPath id="clip0_11642_10088">
<rect width="20" height="20"/>
</clipPath>
</defs>
</svg> 