<!-- This Source Code Form is subject to the terms of the Mozilla Public
   - License, v. 2.0. If a copy of the MPL was not distributed with this
   - file, You can obtain one at https://mozilla.org/MPL/2.0/. -->
<svg width="20" height="20" viewBox="0 0 20 20" fill="none" xmlns="http://www.w3.org/2000/svg">
<g clip-path="url(#clip0_11642_10088)">
<path d="M20 10C20 15.5228 15.5228 20 10 20C4.47715 20 0 15.5228 0 10C0 4.47715 4.47715 0 10 0C15.5228 0 20 4.47715 20 10Z" fill="context-fill"/>
<path d="M8.5 9.25C8.086 9.25 7.75 8.914 7.75 8.5C7.75 8.086 8.086 7.75 8.5 7.75C8.914 7.75 9.25 8.086 9.25 8.5C9.25 8.914 8.914 9.25 8.5 9.25Z" fill="context-stroke"/>
<path d="M10.75 8.5C10.75 8.914 11.086 9.25 11.5 9.25C11.914 9.25 12.25 8.914 12.25 8.5C12.25 8.086 11.914 7.75 11.5 7.75C11.086 7.75 10.75 8.086 10.75 8.5Z" fill="context-stroke"/>
<path d="M8.5 12.25C8.086 12.25 7.75 11.914 7.75 11.5C7.75 11.086 8.086 10.75 8.5 10.75C8.914 10.75 9.25 11.086 9.25 11.5C9.25 11.914 8.914 12.25 8.5 12.25Z" fill="context-stroke"/>
<path d="M10.75 11.5C10.75 11.914 11.086 12.25 11.5 12.25C11.914 12.25 12.25 11.914 12.25 11.5C12.25 11.086 11.914 10.75 11.5 10.75C11.086 10.75 10.75 11.086 10.75 11.5Z" fill="context-stroke"/>
<path fill-rule="evenodd" clip-rule="evenodd" d="M4 10C4 6.68629 6.68629 4 10 4C13.3137 4 16 6.68629 16 10C16 13.3137 13.3137 16 10 16C6.68629 16 4 13.3137 4 10ZM10 5.125C7.30761 5.125 5.125 7.30761 5.125 10C5.125 12.6924 7.30761 14.875 10 14.875C12.6924 14.875 14.875 12.6924 14.875 10C14.875 7.30761 12.6924 5.125 10 5.125Z" fill="context-stroke"/>
</g>
<defs>
<clipPath id="clip0_11642_10088">
<rect width="20" height="20"/>
</clipPath>
</defs>
</svg>