<!-- This Source Code Form is subject to the terms of the Mozilla Public
   - License, v. 2.0. If a copy of the MPL was not distributed with this
   - file, You can obtain one at https://mozilla.org/MPL/2.0/. -->
<svg width="20" height="20" viewBox="0 0 20 20" fill="none" xmlns="http://www.w3.org/2000/svg">
<g clip-path="url(#clip0_11642_10088)">
<path d="M20 10C20 15.5228 15.5228 20 10 20C4.47715 20 0 15.5228 0 10C0 4.47715 4.47715 0 10 0C15.5228 0 20 4.47715 20 10Z" fill="context-fill"/>
<path d="M10 4.5C8.54131 4.5 7.14236 5.07946 6.11091 6.11091C5.07946 7.14236 4.5 8.54131 4.5 10C4.5 11.4587 5.07946 12.8576 6.11091 13.8891C7.14236 14.9205 8.54131 15.5 10 15.5C11.4587 15.5 12.8576 14.9205 13.8891 13.8891C14.9205 12.8576 15.5 11.4587 15.5 10C15.5 8.54131 14.9205 7.14236 13.8891 6.11091C12.8576 5.07946 11.4587 4.5 10 4.5V4.5ZM11.7945 5.78333C12.5474 6.10665 13.2 6.62577 13.6844 7.28671C14.1688 7.94766 14.4673 8.72629 14.5489 9.54167H12.9143C12.824 8.17611 12.3304 6.86809 11.496 5.78333H11.7945ZM10.2919 5.78333C11.2841 6.79658 11.8869 8.12754 11.9939 9.54167H8.00607C8.11313 8.12754 8.7159 6.79658 9.70813 5.78333H10.2919ZM8.2048 5.78333H8.504C7.66994 6.86827 7.17637 8.17619 7.08573 9.54167H5.45113C5.53255 8.72635 5.8309 7.94773 6.31517 7.28678C6.79944 6.62583 7.45193 6.10669 8.2048 5.78333V5.78333ZM8.2048 14.2167C7.45184 13.8934 6.79926 13.3743 6.31498 12.7134C5.83069 12.0524 5.5324 11.2737 5.45113 10.4583H7.08573C7.17602 11.8239 7.66963 13.1319 8.504 14.2167H8.2048ZM9.70813 14.2167C8.7159 13.2034 8.11313 11.8725 8.00607 10.4583H11.9932C11.8861 11.8725 11.2834 13.2034 10.2911 14.2167H9.70813ZM11.7952 14.2167H11.4953C12.33 13.1321 12.8236 11.824 12.9135 10.4583H14.5481C14.4669 11.2736 14.1686 12.0522 13.6845 12.7131C13.2004 13.3741 12.548 13.8933 11.7952 14.2167V14.2167Z" fill="context-stroke"/>
</g>
<defs>
<clipPath id="clip0_11642_10088">
<rect width="20" height="20"/>
</clipPath>
</defs>
</svg> 