<!-- This Source Code Form is subject to the terms of the Mozilla Public
   - License, v. 2.0. If a copy of the MPL was not distributed with this
   - file, You can obtain one at https://mozilla.org/MPL/2.0/. -->
<svg width="20" height="20" viewBox="0 0 20 20" fill="none" xmlns="http://www.w3.org/2000/svg">
<g clip-path="url(#clip0_11642_10088)">
<path d="M20 10C20 15.5228 15.5228 20 10 20C4.47715 20 0 15.5228 0 10C0 4.47715 4.47715 0 10 0C15.5228 0 20 4.47715 20 10Z" fill="context-fill"/>
<path d="M14.4962 14.5H6.25375C5.85505 14.4996 5.4728 14.341 5.19088 14.0591C4.90895 13.7772 4.7504 13.3949 4.75 12.9962V6.25375C4.75 5.42425 5.42425 4.75 6.25375 4.75H8.47225C8.67917 4.75018 8.88385 4.79295 9.07352 4.87566C9.2632 4.95837 9.43382 5.07924 9.57475 5.23075L10.5197 6.25H14.4962C15.3257 6.25 16 6.92425 16 7.75375V12.9962C15.9996 13.3949 15.841 13.7772 15.5591 14.0591C15.2772 14.341 14.8949 14.4996 14.4962 14.5V14.5ZM6.1375 5.6875L5.6875 6.1375V13.1125L6.1375 13.5625H14.6125L15.0625 13.1125V7.6375L14.6125 7.1875H10.315L9.9715 7.0375L8.88775 5.86825C8.83458 5.81125 8.77026 5.76578 8.69879 5.73469C8.62731 5.7036 8.5502 5.68753 8.47225 5.6875H6.1375V5.6875Z" fill="context-stroke"/>
</g>
<defs>
<clipPath id="clip0_11642_10088">
<rect width="20" height="20"/>
</clipPath>
</defs>
</svg>