<!-- This Source Code Form is subject to the terms of the Mozilla Public
   - License, v. 2.0. If a copy of the MPL was not distributed with this
   - file, You can obtain one at https://mozilla.org/MPL/2.0/. -->
<svg width="20" height="20" viewBox="0 0 20 20" fill="none" xmlns="http://www.w3.org/2000/svg">
<path d="M20 10C20 15.5228 15.5228 20 10 20C4.47715 20 0 15.5228 0 10C0 4.47715 4.47715 0 10 0C15.5228 0 20 4.47715 20 10Z" fill="context-fill"/>
<g clip-path="url(#clip0_11642_9981)">
<path d="M9.25 10.75V9.25H10.75V10.75H9.25Z" fill="context-stroke"/>
<path fill-rule="evenodd" clip-rule="evenodd" d="M10 4C8.60237 4 7.43646 4.94431 7.08376 6.22448C7.06726 6.22416 7.05068 6.224 7.034 6.224C5.35765 6.224 4 7.58299 4 9.258C4 10.1943 4.42686 11.0212 5.08709 11.5733C4.86885 11.9867 4.741 12.4582 4.741 12.965C4.741 14.6413 6.09999 15.999 7.775 15.999C8.65529 15.999 9.44597 15.6243 9.99921 15.0269C10.5523 15.6238 11.3427 15.999 12.223 15.999C13.8993 15.999 15.257 14.64 15.257 12.965C15.257 12.4586 15.1293 11.9874 14.9114 11.5743C15.5731 11.0225 16 10.1954 16 9.259C16 7.58265 14.641 6.225 12.966 6.225C12.9496 6.225 12.9332 6.22516 12.917 6.22547C12.5638 4.94472 11.3981 4 10 4ZM8.22634 6.95182C8.27017 6.00232 9.04607 5.25 10 5.25C10.9537 5.25 11.7301 6.00216 11.7747 6.95329C11.7834 7.13942 11.8747 7.31195 12.0238 7.42382C12.1728 7.53569 12.3639 7.57524 12.5451 7.53168C12.6969 7.49518 12.8338 7.475 12.966 7.475C13.951 7.475 14.75 8.27335 14.75 9.259C14.75 9.9497 14.3511 10.5472 13.7614 10.8436C13.5894 10.93 13.4669 11.0907 13.4291 11.2794C13.3914 11.4681 13.4427 11.6637 13.5682 11.8096C13.8426 12.1286 14.007 12.5278 14.007 12.965C14.007 13.95 13.2087 14.749 12.223 14.749C11.4822 14.749 10.8457 14.2959 10.5759 13.6486C10.4788 13.4156 10.2512 13.2639 9.99887 13.264C9.74653 13.2641 9.51898 13.4158 9.422 13.6488C9.15231 14.2967 8.51616 14.749 7.775 14.749C6.79001 14.749 5.991 13.9507 5.991 12.965C5.991 12.5278 6.15537 12.1286 6.42982 11.8096C6.55516 11.6639 6.60649 11.4686 6.56899 11.2801C6.53149 11.0916 6.40934 10.9308 6.23778 10.8441C5.64912 10.5468 5.25 9.9488 5.25 9.258C5.25 8.27301 6.04835 7.474 7.034 7.474C7.16731 7.474 7.30425 7.49422 7.45589 7.53068C7.63714 7.57426 7.82839 7.53466 7.97743 7.42268C8.12646 7.3107 8.21774 7.13804 8.22634 6.95182Z" fill="context-stroke"/>
</g>
<defs>
<clipPath id="clip0_11642_9981">
<rect width="12" height="12" transform="translate(4 4)"/>
</clipPath>
</defs>
</svg>
