<!-- This Source Code Form is subject to the terms of the Mozilla Public
   - License, v. 2.0. If a copy of the MPL was not distributed with this
   - file, You can obtain one at https://mozilla.org/MPL/2.0/. -->
<svg width="20" height="20" viewBox="0 0 20 20" fill="none" xmlns="http://www.w3.org/2000/svg">
<g clip-path="url(#clip0_11642_10088)">
<path d="M20 10C20 15.5228 15.5228 20 10 20C4.47715 20 0 15.5228 0 10C0 4.47715 4.47715 0 10 0C15.5228 0 20 4.47715 20 10Z" fill="context-fill"/>
<path d="M10.8404 8.03263C10.7327 7.84478 10.5267 7.73547 10.3107 7.75156C10.0948 7.76765 9.90721 7.90628 9.82848 8.10802L8.9373 10.3918L8.65721 9.90638C8.55675 9.73227 8.37101 9.62501 8.17 9.62501H6.25V10.75H7.84514L8.54829 11.9686C8.65639 12.156 8.86233 12.2647 9.07801 12.2484C9.29369 12.2321 9.48089 12.0935 9.55952 11.892L10.4493 9.61179L10.9401 10.4674C11.0403 10.6422 11.2265 10.75 11.428 10.75H13.75V9.62501H11.7538L10.8404 8.03263Z" fill="context-stroke"/>
<path fill-rule="evenodd" clip-rule="evenodd" d="M5.5 5.5C4.67184 5.5 4 6.17184 4 7V13C4 13.8282 4.67184 14.5 5.5 14.5H14.5C15.3282 14.5 16 13.8282 16 13V7C16 6.17184 15.3282 5.5 14.5 5.5H5.5ZM5.125 7C5.125 6.79316 5.29316 6.625 5.5 6.625H14.5C14.7068 6.625 14.875 6.79316 14.875 7V13C14.875 13.2068 14.7068 13.375 14.5 13.375H5.5C5.29316 13.375 5.125 13.2068 5.125 13V7Z" fill="context-stroke"/>
</g>
<defs>
<clipPath id="clip0_11642_10088">
<rect width="20" height="20"/>
</clipPath>
</defs>
</svg> 