<!-- This Source Code Form is subject to the terms of the Mozilla Public
   - License, v. 2.0. If a copy of the MPL was not distributed with this
   - file, You can obtain one at https://mozilla.org/MPL/2.0/. -->
<svg width="20" height="20" viewBox="0 0 20 20" fill="none" xmlns="http://www.w3.org/2000/svg">
<path d="M20 10C20 15.5228 15.5228 20 10 20C4.47715 20 0 15.5228 0 10C0 4.47715 4.47715 0 10 0C15.5228 0 20 4.47715 20 10Z" fill="context-fill"/>
<g clip-path="url(#clip0_11642_9999)">
<path d="M10.02 16.2398C9.85997 16.2398 9.69997 16.1798 9.57997 16.0598L4.98997 11.4898C3.87997 10.3798 3.67997 8.67977 4.49997 7.34977C5.11997 6.34977 6.19997 5.77977 7.37997 5.75977C8.41997 5.75977 9.37997 6.23977 9.99997 7.04977C10.63 6.23977 11.58 5.76977 12.62 5.75977H12.64C13.81 5.75977 14.88 6.35977 15.5 7.35977C16.32 8.68977 16.12 10.3798 15.02 11.4898L10.46 16.0598C10.34 16.1798 10.18 16.2398 10.02 16.2398ZM7.35997 7.00977C6.61997 7.00977 5.95997 7.37977 5.56997 8.00977C5.05997 8.83977 5.17997 9.90977 5.87997 10.5998L10.03 14.7298L14.15 10.5998C14.84 9.90977 14.96 8.83977 14.45 8.00977C14.06 7.37977 13.38 6.97977 12.65 7.00977C11.91 7.00977 11.24 7.39977 10.86 8.02977L10.56 8.52977C10.33 8.90977 9.70997 8.90977 9.48997 8.52977L9.18997 8.02977C8.80997 7.38977 8.13997 7.00977 7.39997 7.00977H7.38997H7.35997Z" fill="context-stroke"/>
</g>
<defs>
<clipPath id="clip0_11642_9999">
<rect width="12" height="12" transform="translate(4 5)"/>
</clipPath>
</defs>
</svg>
