<!-- This Source Code Form is subject to the terms of the Mozilla Public
   - License, v. 2.0. If a copy of the MPL was not distributed with this
   - file, You can obtain one at https://mozilla.org/MPL/2.0/. -->
<svg width="20" height="20" viewBox="0 0 20 20" fill="none" xmlns="http://www.w3.org/2000/svg">
<g clip-path="url(#clip0_11642_10088)">
<path d="M20 10C20 15.5228 15.5228 20 10 20C4.47715 20 0 15.5228 0 10C0 4.47715 4.47715 0 10 0C15.5228 0 20 4.47715 20 10Z" fill="context-fill"/>
<path fill-rule="evenodd" clip-rule="evenodd" d="M11.9848 10.1757L12.5471 10.738L12.1124 11.1728L12.9079 11.9683L16.0001 8.87603L15.2046 8.08054L14.7608 8.52432L14.1884 7.97662L14.0114 7.16907C13.9883 7.06404 13.9357 6.96782 13.8597 6.89178L12.4323 5.46439C11.1612 4.19424 9.10117 4.19404 7.83067 5.46453L7.59292 5.70228C7.46093 5.83428 7.40301 6.02315 7.43833 6.20645C7.47364 6.38975 7.59759 6.54358 7.76918 6.61709L9.16229 7.21387L9.26431 7.72265L4.41064 12.6173L4.40973 12.6182C3.86247 13.1664 3.86277 14.0544 4.41064 14.6023L4.88614 15.0778C5.43417 15.6258 6.32293 15.6255 6.87113 15.0778L11.8316 10.1374L11.9848 10.1757ZM9.03948 5.93738L9.87717 6.29623C10.0474 6.36914 10.1708 6.52115 10.2072 6.7027L10.4122 7.72536L11.609 8.92211L12.4088 9.12208C12.5078 9.1468 12.5981 9.19794 12.6702 9.27003L13.3426 9.94251L13.9651 9.32001L13.2868 8.67096C13.2061 8.5937 13.1501 8.49414 13.1262 8.38499L12.9477 7.57084L11.6371 6.26017C10.9322 5.55594 9.85687 5.4484 9.03948 5.93738ZM10.7363 9.64045L9.83786 8.74197L5.20614 13.4128C5.09731 13.5216 5.0973 13.698 5.20613 13.8068L5.68163 14.2823C5.79046 14.3911 5.96681 14.3911 6.07564 14.2823L10.7363 9.64045Z" fill="context-stroke"/>
</g>
<defs>
<clipPath id="clip0_11642_10088">
<rect width="20" height="20"/>
</clipPath>
</defs>
</svg> 