<!-- This Source Code Form is subject to the terms of the Mozilla Public
   - License, v. 2.0. If a copy of the MPL was not distributed with this
   - file, You can obtain one at https://mozilla.org/MPL/2.0/. -->
<svg width="20" height="20" viewBox="0 0 20 20" fill="none" xmlns="http://www.w3.org/2000/svg">
<g clip-path="url(#clip0_11642_10088)">
<path d="M20 10C20 15.5228 15.5228 20 10 20C4.47715 20 0 15.5228 0 10C0 4.47715 4.47715 0 10 0C15.5228 0 20 4.47715 20 10Z" fill="context-fill"/>
<path fill-rule="evenodd" clip-rule="evenodd" d="M14.4062 10C14.4062 7.4155 12.3033 5.3125 9.71875 5.3125C7.13425 5.3125 5.03125 7.4155 5.03125 10C5.03125 12.5845 7.13425 14.6875 9.71875 14.6875C12.3033 14.6875 14.4062 12.5845 14.4062 10ZM7.56616 4.80318C8.24861 4.52049 8.98006 4.375 9.71875 4.375C11.2106 4.375 12.6413 4.96763 13.6962 6.02252C14.7511 7.07742 15.3438 8.50816 15.3438 10C15.3438 11.4918 14.7511 12.9226 13.6962 13.9775C12.6413 15.0324 11.2106 15.625 9.71875 15.625C8.98006 15.625 8.24861 15.4795 7.56616 15.1968C6.8837 14.9141 6.2636 14.4998 5.74127 13.9775C5.21894 13.4551 4.80461 12.8351 4.52193 12.1526C4.23924 11.4701 4.09375 10.7387 4.09375 10C4.09375 9.26131 4.23924 8.52986 4.52193 7.84741C4.80461 7.16495 5.21894 6.54485 5.74127 6.02252C6.2636 5.50019 6.8837 5.08586 7.56616 4.80318ZM11.734 11.755C11.8051 11.7961 11.8858 11.8179 11.968 11.818C12.0709 11.8176 12.1708 11.7833 12.2524 11.7206C12.3339 11.6578 12.3926 11.57 12.4194 11.4706C12.4461 11.3712 12.4395 11.2658 12.4005 11.1706C12.3615 11.0753 12.2923 10.9956 12.2035 10.9435L10.1875 9.7795V7.46875C10.1875 7.34443 10.1381 7.2252 10.0502 7.13729C9.9623 7.04939 9.84307 7 9.71875 7C9.59443 7 9.4752 7.04939 9.38729 7.13729C9.29939 7.2252 9.25 7.34443 9.25 7.46875V10.0495L9.484 10.456L11.734 11.755Z" fill="context-stroke"/>
</g>
<defs>
<clipPath id="clip0_11642_10088">
<rect width="20" height="20"/>
</clipPath>
</defs>
</svg>