<!-- This Source Code Form is subject to the terms of the Mozilla Public
   - License, v. 2.0. If a copy of the MPL was not distributed with this
   - file, You can obtain one at https://mozilla.org/MPL/2.0/. -->
<svg width="20" height="20" viewBox="0 0 20 20" fill="none" xmlns="http://www.w3.org/2000/svg">
<g clip-path="url(#clip0_11642_10088)">
<path d="M20 10C20 15.5228 15.5228 20 10 20C4.47715 20 0 15.5228 0 10C0 4.47715 4.47715 0 10 0C15.5228 0 20 4.47715 20 10Z" fill="context-fill"/>
<path fill-rule="evenodd" clip-rule="evenodd" d="M6.03803 13.1666C5.55715 12.5659 5.21129 11.8547 5.05067 11.083C4.37063 7.81877 6.8487 4.9375 10.0001 4.9375H14.5001C14.8107 4.9375 15.0626 5.18934 15.0626 5.5V10C15.0626 13.1514 12.1814 15.6295 8.9171 14.9494C8.14568 14.7885 7.43437 14.4427 6.83361 13.962L5.50008 15.2955L4.70459 14.5L6.03803 13.1666ZM6.15201 10.8535C5.62014 8.30078 7.54902 6.0625 10.0001 6.0625H13.9376V10C13.9376 12.451 11.6994 14.3799 9.14668 13.8481C8.59348 13.7327 8.07902 13.4927 7.6354 13.1602L11.1706 9.62499L10.3751 8.8295L6.83981 12.3648C6.50713 11.9212 6.26713 11.4067 6.15201 10.8535Z" fill="context-stroke"/>
</g>
<defs>
<clipPath id="clip0_11642_10088">
<rect width="20" height="20"/>
</clipPath>
</defs>
</svg> 