<!-- This Source Code Form is subject to the terms of the Mozilla Public
   - License, v. 2.0. If a copy of the MPL was not distributed with this
   - file, You can obtain one at https://mozilla.org/MPL/2.0/. -->
<svg width="20" height="20" viewBox="0 0 20 20" fill="none" xmlns="http://www.w3.org/2000/svg">
<g clip-path="url(#clip0_11642_10088)">
<path d="M20 10C20 15.5228 15.5228 20 10 20C4.47715 20 0 15.5228 0 10C0 4.47715 4.47715 0 10 0C15.5228 0 20 4.47715 20 10Z" fill="context-fill"/>
<path fill-rule="evenodd" clip-rule="evenodd" d="M8.84939 13.7502H11.1504C11.4377 13.7506 11.7159 13.6493 11.9356 13.4643C12.1554 13.2792 12.3026 13.0224 12.3511 12.7392L12.5716 11.3344C13.0533 10.9515 13.4429 10.4653 13.7116 9.91169C13.9803 9.35812 14.1213 8.75128 14.1243 8.13593C14.1272 7.52059 13.992 6.91243 13.7286 6.3563C13.4652 5.80017 13.0804 5.31026 12.6024 4.92269C11.6349 4.13594 10.3659 3.83219 9.12089 4.08944C7.51364 4.42469 6.23714 5.74169 5.94389 7.36619C5.66939 8.88644 6.22439 10.3699 7.39364 11.2722L7.64864 12.7392C7.69703 13.0224 7.84418 13.2794 8.06399 13.4644C8.2838 13.6495 8.56205 13.7507 8.84939 13.7502ZM11.6829 11.1109L11.4271 12.5794L11.1496 12.8127H8.84939L8.57189 12.5787L8.31689 11.1117C8.28239 10.9129 8.17514 10.7322 8.01389 10.6032C7.56029 10.2453 7.21349 9.76988 7.01117 9.22866C6.80886 8.68745 6.75879 8.10112 6.86639 7.53344C7.09214 6.28019 8.07464 5.26544 9.31064 5.00894C9.53789 4.96094 9.76589 4.93844 9.99089 4.93844C10.7259 4.93586 11.4393 5.18759 12.0099 5.65094C12.7576 6.25919 13.1866 7.16144 13.1866 8.12444C13.1866 9.08744 12.7486 9.99044 11.9844 10.6039C11.8239 10.7329 11.7174 10.9129 11.6829 11.1109ZM7.88729 15.8627C7.9752 15.9506 8.09443 16 8.21875 16H11.7812C11.9056 16 12.0248 15.9506 12.1127 15.8627C12.2006 15.7748 12.25 15.6556 12.25 15.5312C12.25 15.4069 12.2006 15.2877 12.1127 15.1998C12.0248 15.1119 11.9056 15.0625 11.7812 15.0625H8.21875C8.09443 15.0625 7.9752 15.1119 7.88729 15.1998C7.79939 15.2877 7.75 15.4069 7.75 15.5312C7.75 15.6556 7.79939 15.7748 7.88729 15.8627Z" fill="context-stroke"/>
</g>
<defs>
<clipPath id="clip0_11642_10088">
<rect width="20" height="20"/>
</clipPath>
</defs>
</svg> 