<!-- This Source Code Form is subject to the terms of the Mozilla Public
   - License, v. 2.0. If a copy of the MPL was not distributed with this
   - file, You can obtain one at https://mozilla.org/MPL/2.0/. -->
<svg width="20" height="20" viewBox="0 0 20 20" fill="none" xmlns="http://www.w3.org/2000/svg">
<g clip-path="url(#clip0_11642_10088)">
<path d="M20 10C20 15.5228 15.5228 20 10 20C4.47715 20 0 15.5228 0 10C0 4.47715 4.47715 0 10 0C15.5228 0 20 4.47715 20 10Z" fill="context-fill"/>
<path fill-rule="evenodd" clip-rule="evenodd" d="M8.5 4.375C7.67184 4.375 7 5.04684 7 5.875V10.75H6.25C5.00709 10.75 4 11.7571 4 13C4 14.2429 5.00709 15.25 6.25 15.25C6.95709 15.25 7.58868 14.9232 8.00006 14.414L8.125 14.2593V8.125H14.8754L14.8759 10.75H14.125C12.8821 10.75 11.875 11.7571 11.875 13C11.875 14.2429 12.8821 15.25 14.125 15.25C14.8335 15.25 15.4648 14.922 15.8765 14.4126L16.0015 14.2578L16 5.8749C15.9999 5.04678 15.3281 4.375 14.5 4.375H8.5ZM14.8752 7L14.875 5.8751C14.875 5.66826 14.7068 5.5 14.5 5.5H8.5C8.29316 5.5 8.125 5.66816 8.125 5.875V7H14.8752ZM6.25 11.875H7V13.8386C6.80084 14.0171 6.53823 14.125 6.25 14.125C5.62841 14.125 5.125 13.6216 5.125 13C5.125 12.3784 5.62841 11.875 6.25 11.875ZM14.125 11.875H14.8761L14.8765 13.8372C14.6765 14.0168 14.4136 14.125 14.125 14.125C13.5034 14.125 13 13.6216 13 13C13 12.3784 13.5034 11.875 14.125 11.875Z" fill="context-stroke"/>
</g>
<defs>
<clipPath id="clip0_11642_10088">
<rect width="20" height="20"/>
</clipPath>
</defs>
</svg> 