<!-- This Source Code Form is subject to the terms of the Mozilla Public
   - License, v. 2.0. If a copy of the MPL was not distributed with this
   - file, You can obtain one at https://mozilla.org/MPL/2.0/. -->
<svg width="20" height="20" viewBox="0 0 20 20" fill="none" xmlns="http://www.w3.org/2000/svg">
<g clip-path="url(#clip0_11642_10088)">
<path d="M20 10C20 15.5228 15.5228 20 10 20C4.47715 20 0 15.5228 0 10C0 4.47715 4.47715 0 10 0C15.5228 0 20 4.47715 20 10Z" fill="context-fill"/>
<path fill-rule="evenodd" clip-rule="evenodd" d="M10 11.5C8.5525 11.5 7.375 10.3225 7.375 8.875C7.375 7.4275 8.5525 6.25 10 6.25C11.4475 6.25 12.625 7.4275 12.625 8.875C12.625 10.3225 11.4475 11.5 10 11.5ZM10 7.375C9.175 7.375 8.5 8.05 8.5 8.875C8.5 9.7 9.175 10.375 10 10.375C10.825 10.375 11.5 9.7 11.5 8.875C11.5 8.05 10.825 7.375 10 7.375Z" fill="context-stroke"/>
<path fill-rule="evenodd" clip-rule="evenodd" d="M13.5124 12.25C14.3555 11.373 14.875 10.1827 14.875 8.875C14.875 6.19 12.685 4 10 4C7.315 4 5.125 6.19 5.125 8.875C5.125 10.1827 5.64447 11.373 6.4876 12.25H5.3125C5.005 12.25 4.75 12.505 4.75 12.8125V14.5C4.75 15.325 5.425 16 6.25 16H13.75C14.575 16 15.25 15.325 15.25 14.5V12.8125C15.25 12.505 14.995 12.25 14.6875 12.25H13.5124ZM5.875 13.375V14.5C5.875 14.71 6.04 14.875 6.25 14.875H13.75C13.96 14.875 14.125 14.71 14.125 14.5V13.375H5.875ZM11.6357 12.25C12.8869 11.6421 13.75 10.3587 13.75 8.875C13.75 6.805 12.07 5.125 10 5.125C7.93 5.125 6.25 6.805 6.25 8.875C6.25 10.3587 7.11311 11.6421 8.3643 12.25H11.6357Z" fill="context-stroke"/>
</g>
<defs>
<clipPath id="clip0_11642_10088">
<rect width="20" height="20"/>
</clipPath>
</defs>
</svg> 