<!-- This Source Code Form is subject to the terms of the Mozilla Public
   - License, v. 2.0. If a copy of the MPL was not distributed with this
   - file, You can obtain one at https://mozilla.org/MPL/2.0/. -->
<svg width="20" height="20" viewBox="0 0 20 20" fill="none" xmlns="http://www.w3.org/2000/svg">
<g clip-path="url(#clip0_11642_10088)">
<path d="M20 10C20 15.5228 15.5228 20 10 20C4.47715 20 0 15.5228 0 10C0 4.47715 4.47715 0 10 0C15.5228 0 20 4.47715 20 10Z" fill="context-fill"/>
<path fill-rule="evenodd" clip-rule="evenodd" d="M13.8625 5.6875L14.3125 6.1375V11.6125L13.8625 12.0625H12.4375C12.2275 12.0625 12.0625 12.2275 12.0625 12.4375V14.05L9.7825 12.2275C9.6475 12.1225 9.4825 12.0625 9.3175 12.0625H6.1375L5.6875 11.6125V6.1375L6.1375 5.6875H13.8625ZM13.75 4.75H6.25C5.425 4.75 4.75 5.425 4.75 6.25V11.5C4.75 12.325 5.425 13 6.25 13H9.25L12.0625 15.25H13V13H13.75C14.575 13 15.25 12.325 15.25 11.5V6.25C15.25 5.425 14.575 4.75 13.75 4.75ZM8.70249 9.79785H7.64499C7.38818 9.79785 7.17999 10.006 7.17999 10.2629V10.2704C7.17999 10.5272 7.38818 10.7354 7.64499 10.7354H8.70249C8.95931 10.7354 9.16749 10.5272 9.16749 10.2704V10.2629C9.16749 10.006 8.95931 9.79785 8.70249 9.79785ZM10.3826 9.79785H12.3551C12.6119 9.79785 12.8201 10.006 12.8201 10.2629V10.2704C12.8201 10.5272 12.6119 10.7354 12.3551 10.7354H10.3826C10.1258 10.7354 9.9176 10.5272 9.9176 10.2704V10.2629C9.9176 10.006 10.1258 9.79785 10.3826 9.79785ZM12.3549 7.73535H11.2974C11.0406 7.73535 10.8324 7.94354 10.8324 8.20035V8.20785C10.8324 8.46466 11.0406 8.67285 11.2974 8.67285H12.3549C12.6117 8.67285 12.8199 8.46466 12.8199 8.20785V8.20035C12.8199 7.94354 12.6117 7.73535 12.3549 7.73535ZM7.64499 7.73535H9.61749C9.8743 7.73535 10.0825 7.94354 10.0825 8.20035V8.20785C10.0825 8.46466 9.8743 8.67285 9.61749 8.67285H7.64499C7.38818 8.67285 7.17999 8.46466 7.17999 8.20785V8.20035C7.17999 7.94354 7.38818 7.73535 7.64499 7.73535Z" fill="context-stroke"/>
</g>
<defs>
<clipPath id="clip0_11642_10088">
<rect width="20" height="20"/>
</clipPath>
</defs>
</svg> 