<!-- This Source Code Form is subject to the terms of the Mozilla Public
   - License, v. 2.0. If a copy of the MPL was not distributed with this
   - file, You can obtain one at https://mozilla.org/MPL/2.0/. -->
<svg width="20" height="20" viewBox="0 0 20 20" fill="none" xmlns="http://www.w3.org/2000/svg">
<g clip-path="url(#clip0_11642_10091)">
<path d="M20 10C20 15.5228 15.5228 20 10 20C4.47715 20 0 15.5228 0 10C0 4.47715 4.47715 0 10 0C15.5228 0 20 4.47715 20 10Z" fill="context-fill"/>
<path fill-rule="evenodd" clip-rule="evenodd" d="M10.0249 4.64665C9.64891 4.24845 9.11602 4 8.5249 4H8.3374C7.19799 4 6.2749 4.92309 6.2749 6.0625C6.2749 6.40012 6.35595 6.71875 6.49966 7H5.8999C5.07174 7 4.3999 7.67184 4.3999 8.5V9.25C4.3999 9.80498 4.70162 10.2898 5.1499 10.5492V14.5C5.1499 15.3282 5.82174 16 6.6499 16H13.3999C14.2281 16 14.8999 15.3282 14.8999 14.5V10.5492C15.3482 10.2898 15.6499 9.80498 15.6499 9.25V8.5C15.6499 7.67184 14.9781 7 14.1499 7H13.5501C13.6939 6.71875 13.7749 6.40012 13.7749 6.0625C13.7749 4.92309 12.8518 4 11.7124 4H11.5249C10.9338 4 10.4009 4.24845 10.0249 4.64665ZM8.3374 5.125C7.81931 5.125 7.3999 5.54441 7.3999 6.0625C7.3999 6.58059 7.81931 7 8.3374 7H9.4624V6.0625C9.4624 5.54441 9.04299 5.125 8.5249 5.125H8.3374ZM10.5874 8.125V9.625H14.1499C14.3567 9.625 14.5249 9.45684 14.5249 9.25V8.5C14.5249 8.29316 14.3567 8.125 14.1499 8.125H10.5874ZM11.7124 7C12.2305 7 12.6499 6.58059 12.6499 6.0625C12.6499 5.54441 12.2305 5.125 11.7124 5.125H11.5249C11.0068 5.125 10.5874 5.54441 10.5874 6.0625V7H11.7124ZM5.8999 8.125H9.4624V9.625H5.8999C5.69306 9.625 5.5249 9.45684 5.5249 9.25V8.5C5.5249 8.29316 5.69306 8.125 5.8999 8.125ZM10.5874 10.75H13.7749V14.5C13.7749 14.7068 13.6067 14.875 13.3999 14.875H10.5874V10.75ZM9.4624 10.75V14.875H6.6499C6.44306 14.875 6.2749 14.7068 6.2749 14.5V10.75H9.4624Z" fill="context-stroke"/>
</g>
<defs>
<clipPath id="clip0_11642_10091">
<rect width="20" height="20"/>
</clipPath>
</defs>
</svg>