<!-- This Source Code Form is subject to the terms of the Mozilla Public
   - License, v. 2.0. If a copy of the MPL was not distributed with this
   - file, You can obtain one at https://mozilla.org/MPL/2.0/. -->
<svg width="20" height="20" viewBox="0 0 20 20" fill="none" xmlns="http://www.w3.org/2000/svg">
<g clip-path="url(#clip0_11642_10088)">
<path d="M20 10C20 15.5228 15.5228 20 10 20C4.47715 20 0 15.5228 0 10C0 4.47715 4.47715 0 10 0C15.5228 0 20 4.47715 20 10Z" fill="context-fill"/>
<path d="M7.74994 8.50011C8.16415 8.50011 8.49994 8.83589 8.49994 9.25011C8.49994 9.66432 8.16415 10.0001 7.74994 10.0001C7.33573 10.0001 6.99994 9.66432 6.99994 9.25011C6.99994 8.83589 7.33573 8.50011 7.74994 8.50011Z" fill="context-stroke"/>
<path d="M10.7499 7.75011C10.7499 7.33589 10.4142 7.00011 9.99994 7.00011C9.58573 7.00011 9.24994 7.33589 9.24994 7.75011C9.24994 8.16432 9.58573 8.50011 9.99994 8.50011C10.4142 8.50011 10.7499 8.16432 10.7499 7.75011Z" fill="context-stroke"/>
<path d="M12.2499 8.50011C12.6642 8.50011 12.9999 8.83589 12.9999 9.25011C12.9999 9.66432 12.6642 10.0001 12.2499 10.0001C11.8357 10.0001 11.4999 9.66432 11.4999 9.25011C11.4999 8.83589 11.8357 8.50011 12.2499 8.50011Z" fill="context-stroke"/>
<path fill-rule="evenodd" clip-rule="evenodd" d="M9.99986 15.6251H10.3974C10.9374 15.6251 11.4324 15.3476 11.7024 14.8751C11.9724 14.4026 11.9724 13.8401 11.7024 13.3676C11.6049 13.1951 11.6724 13.0451 11.7024 12.9851C11.7324 12.9251 11.8299 12.7901 12.0324 12.7901H12.8049C13.5624 12.7901 14.2749 12.4901 14.8074 11.9501C15.3474 11.4026 15.6324 10.6826 15.6249 9.91761C15.6024 8.26761 14.8599 6.71511 13.5849 5.65761C12.3024 4.60761 10.6224 4.17261 8.97236 4.46511C6.58736 4.89261 4.71236 6.88011 4.41236 9.29511C4.21736 10.9076 4.71986 12.5201 5.78486 13.7276C6.85736 14.9351 8.38736 15.6251 9.99986 15.6251ZM9.16736 5.57511C9.45236 5.52261 9.72986 5.50011 10.0074 5.50011L9.99236 5.50761C11.0424 5.50761 12.0324 5.86012 12.8499 6.53511C13.8699 7.37512 14.4699 8.62011 14.4849 9.94011C14.4849 10.3976 14.3124 10.8326 13.9899 11.1626C13.6674 11.4851 13.2474 11.6651 12.7899 11.6651H12.0174C11.4774 11.6651 10.9824 11.9426 10.7124 12.4151C10.4424 12.8876 10.4424 13.4501 10.7124 13.9226C10.8099 14.0951 10.7424 14.2451 10.7124 14.3051C10.6824 14.3651 10.5849 14.5001 10.3824 14.5001H9.99236C8.70986 14.5001 7.47986 13.9526 6.62486 12.9851C5.76236 12.0101 5.37236 10.7501 5.52986 9.43761C5.76986 7.50261 7.26236 5.91261 9.16736 5.57511Z" fill="context-stroke"/>
</g>
<defs>
<clipPath id="clip0_11642_10088">
<rect width="20" height="20"/>
</clipPath>
</defs>
</svg>