<!-- This Source Code Form is subject to the terms of the Mozilla Public
   - License, v. 2.0. If a copy of the MPL was not distributed with this
   - file, You can obtain one at https://mozilla.org/MPL/2.0/. -->
<svg width="20" height="20" viewBox="0 0 20 20" fill="none" xmlns="http://www.w3.org/2000/svg">
<g clip-path="url(#clip0_11642_10085)">
<path d="M20 10C20 15.5228 15.5228 20 10 20C4.47715 20 0 15.5228 0 10C0 4.47715 4.47715 0 10 0C15.5228 0 20 4.47715 20 10Z" fill="context-fill"/>
<path fill-rule="evenodd" clip-rule="evenodd" d="M14.607 5.39281C14.2499 5.03573 13.6701 5.03573 13.313 5.39281L12.0043 6.70156C11.8622 6.84365 11.6551 6.89915 11.461 6.84716L7.65122 5.82668C7.65109 5.82664 7.65136 5.82671 7.65122 5.82668C7.52564 5.79344 7.3925 5.82931 7.30176 5.92006L6.55821 6.66361L9.94232 7.57022C10.1364 7.62223 10.2881 7.77385 10.3401 7.96797C10.3921 8.16208 10.3366 8.36921 10.1945 8.51131L7.82826 10.8776C7.70593 10.9999 7.53411 11.0591 7.36239 11.0382L6.00545 10.8726L5.60267 11.2754L7.67525 11.97C7.84252 12.026 7.9738 12.1573 8.02986 12.3246L8.72452 14.3974L9.12721 13.995L8.96165 12.6374C8.94071 12.4657 8.99992 12.2939 9.1222 12.1716L11.4885 9.80463C11.6305 9.66249 11.8377 9.60696 12.0318 9.65897C12.226 9.71099 12.3776 9.86263 12.4296 10.0568L13.3363 13.4416L14.0798 12.6981C14.1713 12.6065 14.2067 12.4738 14.1735 12.3498L13.1527 8.53885C13.1007 8.34475 13.1562 8.13765 13.2983 7.99557L14.607 6.68681C14.9641 6.32973 14.9641 5.74989 14.607 5.39281ZM12.5175 4.59731C13.3139 3.8009 14.6061 3.8009 15.4025 4.59731C16.1989 5.39373 16.1989 6.68589 15.4025 7.48231L14.3234 8.56144L15.2601 12.0583C15.2601 12.0584 15.26 12.0583 15.2601 12.0583C15.3977 12.5718 15.2502 13.1187 14.8753 13.4936L13.4428 14.9261C13.3007 15.0682 13.0935 15.1237 12.8994 15.0716C12.7053 15.0196 12.5537 14.868 12.5017 14.6739L11.5951 11.2892L10.1115 12.7732L10.2771 14.131C10.2981 14.3027 10.2388 14.4746 10.1164 14.5969L8.87739 15.8352C8.73963 15.9729 8.54046 16.0295 8.35088 15.9849C8.16131 15.9402 8.0083 15.8007 7.94641 15.6161L7.05217 12.9477L4.38377 12.0534C4.19908 11.9915 4.05956 11.8385 4.01495 11.6489C3.97035 11.4592 4.02703 11.2601 4.16476 11.1223L5.40376 9.88332C5.52609 9.76099 5.69791 9.70175 5.86964 9.7227L7.22657 9.88826L8.71006 8.40477L5.32595 7.49815C5.13183 7.44615 4.9802 7.29453 4.92818 7.10041C4.87616 6.90629 4.93166 6.69917 5.07376 6.55707L6.50626 5.12457C6.88192 4.74891 7.4285 4.60337 7.9403 4.73945L7.9413 4.73972L11.4384 5.67645L12.5175 4.59731Z" fill="context-stroke"/>
</g>
<defs>
<clipPath id="clip0_11642_10085">
<rect width="20" height="20"/>
</clipPath>
</defs>
</svg> 