<!-- This Source Code Form is subject to the terms of the Mozilla Public
   - License, v. 2.0. If a copy of the MPL was not distributed with this
   - file, You can obtain one at https://mozilla.org/MPL/2.0/. -->
<svg width="20" height="20" viewBox="0 0 20 20" fill="none" xmlns="http://www.w3.org/2000/svg">
<g clip-path="url(#clip0_11642_10088)">
<path d="M20 10C20 15.5228 15.5228 20 10 20C4.47715 20 0 15.5228 0 10C0 4.47715 4.47715 0 10 0C15.5228 0 20 4.47715 20 10Z" fill="context-fill"/>
<path d="M13 5.875C13 6.70343 12.4963 7.375 11.875 7.375C11.2537 7.375 10.75 6.70343 10.75 5.875C10.75 5.04657 11.2537 4.375 11.875 4.375C12.4963 4.375 13 5.04657 13 5.875Z" fill="context-stroke"/>
<path fill-rule="evenodd" clip-rule="evenodd" d="M7.50999 15.25C6.39999 15.25 5.49249 14.32 5.49249 13.1875C5.49249 12.64 5.70249 12.1225 6.07749 11.7325L6.52749 11.2675C7.14999 10.6225 7.65249 9.88 8.01999 9.0475C8.37249 8.26 9.14499 7.75 9.99249 7.75C10.84 7.75 11.6125 8.26 11.965 9.0475C12.3325 9.8725 12.835 10.6225 13.4575 11.2675L13.9075 11.7325C14.2825 12.1225 14.4925 12.64 14.4925 13.1875C14.4925 14.3275 13.585 15.25 12.475 15.25H7.50999ZM9.99999 8.875C9.59499 8.875 9.22749 9.1225 9.05499 9.505C8.63499 10.45 8.05749 11.305 7.34499 12.0475L6.89499 12.5125C6.72249 12.685 6.62499 12.9325 6.62499 13.18C6.62499 13.6975 7.02249 14.1175 7.51749 14.1175H12.49C12.9775 14.1175 13.3825 13.6975 13.3825 13.18C13.3825 12.9325 13.285 12.685 13.1125 12.5125L12.6625 12.0475C11.95 11.3125 11.3725 10.4575 10.9525 9.505C10.78 9.1225 10.4125 8.875 10.0075 8.875H9.99999Z" fill="context-stroke"/>
<path d="M14.875 10.75C15.4963 10.75 16 10.0784 16 9.25C16 8.42157 15.4963 7.75 14.875 7.75C14.2537 7.75 13.75 8.42157 13.75 9.25C13.75 10.0784 14.2537 10.75 14.875 10.75Z" fill="context-stroke"/>
<path d="M8.125 7.375C8.74632 7.375 9.25 6.70343 9.25 5.875C9.25 5.04657 8.74632 4.375 8.125 4.375C7.50368 4.375 7 5.04657 7 5.875C7 6.70343 7.50368 7.375 8.125 7.375Z" fill="context-stroke"/>
<path d="M6.25 9.25C6.25 10.0784 5.74632 10.75 5.125 10.75C4.50368 10.75 4 10.0784 4 9.25C4 8.42157 4.50368 7.75 5.125 7.75C5.74632 7.75 6.25 8.42157 6.25 9.25Z" fill="context-stroke"/>
</g>
<defs>
<clipPath id="clip0_11642_10088">
<rect width="20" height="20"/>
</clipPath>
</defs>
</svg>