<!-- This Source Code Form is subject to the terms of the Mozilla Public
   - License, v. 2.0. If a copy of the MPL was not distributed with this
   - file, You can obtain one at https://mozilla.org/MPL/2.0/. -->
<svg width="20" height="20" viewBox="0 0 20 20" fill="none" xmlns="http://www.w3.org/2000/svg">
<g clip-path="url(#clip0_11642_10088)">
<path d="M20 10C20 15.5228 15.5228 20 10 20C4.47715 20 0 15.5228 0 10C0 4.47715 4.47715 0 10 0C15.5228 0 20 4.47715 20 10Z" fill="context-fill"/>
<path fill-rule="evenodd" clip-rule="evenodd" d="M9.99997 6.05758L9.15677 8.19645C8.98335 8.63505 8.63615 8.98256 8.19755 9.15599L6.05815 9.9994L8.19702 10.8426C8.63562 11.016 8.98314 11.3632 9.15656 11.8018L9.99997 13.9412L10.8432 11.8023C11.0166 11.3637 11.3638 11.0162 11.8024 10.8428L13.9418 9.9994L11.8029 9.1562C11.3643 8.98278 11.0168 8.63558 10.8434 8.19698L9.99997 6.05758ZM9.05229 5.39402C9.39194 4.53402 10.608 4.53402 10.9476 5.39402L11.8896 7.78331C11.8896 7.78343 11.8895 7.7832 11.8896 7.78331C11.9486 7.93248 12.0666 8.05065 12.2158 8.10971C12.2159 8.10974 12.2157 8.10968 12.2158 8.10971L14.605 9.05159C15.465 9.39125 15.4653 10.6074 14.6053 10.9471L12.2161 11.889C12.2159 11.889 12.2162 11.8889 12.2161 11.889C12.0669 11.9481 11.9488 12.066 11.8897 12.2151C11.8896 12.2153 11.8897 12.215 11.8897 12.2151L10.9478 14.6044C10.6081 15.4644 9.39194 15.4648 9.05229 14.6048L8.11038 12.2155C8.11035 12.2154 8.11041 12.2156 8.11038 12.2155C8.05132 12.0663 7.93338 11.9482 7.78422 11.8891C7.78411 11.8891 7.78433 11.8892 7.78422 11.8891L5.39492 10.9472C4.53492 10.6076 4.53459 9.39137 5.39459 9.05172L7.78388 8.10981C7.78396 8.10978 7.7838 8.10984 7.78388 8.10981C7.93309 8.05073 8.05121 7.93276 8.11028 7.78355C8.11031 7.78347 8.11025 7.78363 8.11028 7.78355L9.05229 5.39402Z" fill="context-stroke"/>
</g>
<defs>
<clipPath id="clip0_11642_10088">
<rect width="20" height="20"/>
</clipPath>
</defs>
</svg> 