<!-- This Source Code Form is subject to the terms of the Mozilla Public
   - License, v. 2.0. If a copy of the MPL was not distributed with this
   - file, You can obtain one at https://mozilla.org/MPL/2.0/. -->
<svg width="20" height="20" viewBox="0 0 20 20" fill="none" xmlns="http://www.w3.org/2000/svg">
<path d="M20 10C20 15.5228 15.5228 20 10 20C4.47715 20 0 15.5228 0 10C0 4.47715 4.47715 0 10 0C15.5228 0 20 4.47715 20 10Z" fill="context-fill"/>
<g clip-path="url(#clip0_11642_10124)">
<path d="M12.82 15.7805C12.55 15.7805 12.29 15.7105 12.05 15.5605L10 14.2605L7.95 15.5605C7.45 15.8805 6.81 15.8505 6.34 15.5105C5.86 15.1605 5.65 14.5705 5.79 13.9905L6.39 11.6405L4.52 10.0905C4.06 9.71047 3.89 9.10047 4.07 8.54047C4.25 7.98047 4.75 7.59047 5.35 7.55047L7.77 7.39047L8.67 5.14047C8.89 4.59047 9.41 4.23047 10.01 4.23047C10.61 4.23047 11.13 4.59047 11.35 5.14047L12.25 7.39047L14.67 7.55047C15.26 7.59047 15.76 7.98047 15.95 8.54047C16.13 9.10047 15.95 9.71047 15.5 10.0905L13.63 11.6405L14.23 13.9905C14.38 14.5605 14.16 15.1605 13.68 15.5105C13.43 15.6905 13.13 15.7905 12.83 15.7905L12.82 15.7805ZM10 12.9005C10.12 12.9005 10.23 12.9305 10.33 13.0005L12.71 14.5105C12.8 14.5705 12.87 14.5405 12.92 14.5105C12.97 14.4805 13.02 14.4105 12.99 14.3105L12.29 11.5805C12.23 11.3505 12.31 11.1005 12.5 10.9505L14.67 9.15047C14.75 9.08047 14.75 9.00047 14.73 8.95047C14.71 8.90047 14.67 8.83047 14.56 8.82047L11.75 8.64047C11.51 8.62047 11.3 8.47047 11.21 8.25047L10.17 5.63047C10.09 5.43047 9.9 5.43047 9.82 5.63047L8.78 8.25047C8.69 8.47047 8.48 8.63047 8.24 8.64047L5.43 8.82047C5.32 8.82047 5.28 8.89047 5.26 8.95047C5.24 9.01047 5.24 9.09047 5.32 9.15047L7.49 10.9505C7.68 11.1005 7.76 11.3505 7.7 11.5805L7 14.3105C6.97 14.4105 7.02 14.4805 7.07 14.5105C7.12 14.5405 7.19 14.5705 7.28 14.5105L9.66 13.0005C9.76 12.9405 9.88 12.9005 9.99 12.9005H10Z" fill="context-stroke"/>
</g>
<defs>
<clipPath id="clip0_11642_10124">
<rect width="12" height="12" transform="translate(4 4)"/>
</clipPath>
</defs>
</svg>
