<!-- This Source Code Form is subject to the terms of the Mozilla Public
   - License, v. 2.0. If a copy of the MPL was not distributed with this
   - file, You can obtain one at https://mozilla.org/MPL/2.0/. -->
<svg width="20" height="20" viewBox="0 0 20 20" fill="none" xmlns="http://www.w3.org/2000/svg">
<g clip-path="url(#clip0_11642_10088)">
<path d="M20 10C20 15.5228 15.5228 20 10 20C4.47715 20 0 15.5228 0 10C0 4.47715 4.47715 0 10 0C15.5228 0 20 4.47715 20 10Z" fill="context-fill"/>
<g clip-path="url(#clip1_11642_10088)">
<path d="M9.99998 8.5L8.42273 9.646L9.02498 11.5H10.975L11.5772 9.646L9.99998 8.5Z" fill="context-stroke"/>
<path fill-rule="evenodd" clip-rule="evenodd" d="M10 4C6.68629 4 4 6.68629 4 10C4 13.3137 6.68629 16 10 16C13.3137 16 16 13.3137 16 10C16 6.68629 13.3137 4 10 4ZM8.06953 5.52216C7.45687 5.78665 6.90923 6.17319 6.45727 6.65115L7.33754 8.94475L5.1744 10.6967C5.25787 11.28 5.44462 11.83 5.71551 12.3276L7.86484 12.2148L8.83175 14.7341C9.20603 14.8262 9.59731 14.875 10 14.875C10.4188 14.875 10.8254 14.8222 11.2132 14.7228L11.8442 12.3678L14.3324 12.2374C14.5977 11.7247 14.7747 11.1588 14.8432 10.56L12.7374 9.19224L13.4453 6.55098C13.0129 6.11904 12.4997 5.76789 11.9304 5.52214L9.99996 6.925L8.06953 5.52216Z" fill="context-stroke"/>
</g>
</g>
<defs>
<clipPath id="clip0_11642_10088">
<rect width="20" height="20"/>
</clipPath>
<clipPath id="clip1_11642_10088">
<rect width="12" height="12" transform="translate(4 4)"/>
</clipPath>
</defs>
</svg> 