<!-- This Source Code Form is subject to the terms of the Mozilla Public
   - License, v. 2.0. If a copy of the MPL was not distributed with this
   - file, You can obtain one at https://mozilla.org/MPL/2.0/. -->
<svg width="20" height="20" viewBox="0 0 20 20" fill="none" xmlns="http://www.w3.org/2000/svg">
<g clip-path="url(#clip0_11642_10088)">
<path d="M20 10C20 15.5228 15.5228 20 10 20C4.47715 20 0 15.5228 0 10C0 4.47715 4.47715 0 10 0C15.5228 0 20 4.47715 20 10Z" fill="context-fill"/>
<path d="M12.625 8.125H11.125V9.625H12.625V8.125Z" fill="context-stroke"/>
<path d="M8.59741 7.75H7.65991V8.41H7V9.3475H7.65991V10H8.59741V9.3475H9.25V8.41H8.59741V7.75Z" fill="context-stroke"/>
<path fill-rule="evenodd" clip-rule="evenodd" d="M14.125 14.125C13.48 14.125 12.8425 13.7875 12.4975 13.1875L11.965 12.25H8.02754L7.49504 13.1875C6.97754 14.08 5.83004 14.3875 4.93004 13.8775C4.18004 13.435 3.82004 12.5125 4.09004 11.6875L5.47754 6.6025C5.65754 5.95 6.25004 5.5 6.92504 5.5H13.075C13.75 5.5 14.3425 5.95 14.5225 6.6025L15.925 11.7175C16.18 12.5425 15.8275 13.435 15.0625 13.8775C14.77 14.05 14.4475 14.125 14.125 14.125ZM7.71254 11.125H12.295C12.4975 11.125 12.685 11.2375 12.7825 11.41L13.4725 12.625C13.675 12.9775 14.1325 13.0975 14.4925 12.895C14.8 12.7225 14.935 12.3625 14.8375 12.025L13.4275 6.895C13.3825 6.73 13.2325 6.6175 13.0675 6.6175H6.92504C6.76004 6.6175 6.61004 6.73 6.56504 6.895L5.16254 11.995C5.05004 12.3475 5.19254 12.715 5.50004 12.895C5.86004 13.105 6.31754 12.9775 6.52754 12.625L7.22504 11.41C7.32254 11.2375 7.51004 11.125 7.71254 11.125Z" fill="context-stroke"/>
</g>
<defs>
<clipPath id="clip0_11642_10088">
<rect width="20" height="20"/>
</clipPath>
</defs>
</svg>