<!-- This Source Code Form is subject to the terms of the Mozilla Public
   - License, v. 2.0. If a copy of the MPL was not distributed with this
   - file, You can obtain one at https://mozilla.org/MPL/2.0/. -->
<svg width="24" height="24" viewBox="0 0 24 24" fill="none" xmlns="http://www.w3.org/2000/svg">
<path d="M24 12C24 18.6274 18.6274 24 12 24C5.37258 24 0 18.6274 0 12C0 5.37258 5.37258 0 12 0C18.6274 0 24 5.37258 24 12Z" fill="context-fill"/>
<path d="M14.25 9.5H8.75V8H14.25V9.5Z" fill="context-stroke"/>
<path d="M8.75 12.5H14.25V11H8.75V12.5Z" fill="context-stroke"/>
<path fill-rule="evenodd" clip-rule="evenodd" d="M5 7V17.75C5 18.9922 6.00779 20 7.25 20H18.25V18.5H17.5V16.3226C17.8112 15.97 18 15.507 18 15V7C18 5.89579 17.1042 5 16 5H7C5.89579 5 5 5.89579 5 7ZM6.5 7C6.5 6.72421 6.72421 6.5 7 6.5H16C16.2758 6.5 16.5 6.72421 16.5 7V15C16.5 15.2758 16.2758 15.5 16 15.5H7.25C6.98705 15.5 6.73461 15.5452 6.5 15.6281V7ZM16 17H7.25C6.83621 17 6.5 17.3362 6.5 17.75C6.5 18.1638 6.83621 18.5 7.25 18.5H16V17Z" fill="context-stroke"/>
</svg>
