<!-- This Source Code Form is subject to the terms of the Mozilla Public
   - License, v. 2.0. If a copy of the MPL was not distributed with this
   - file, You can obtain one at https://mozilla.org/MPL/2.0/. -->
<svg width="24" height="24" viewBox="0 0 24 24" fill="none" xmlns="http://www.w3.org/2000/svg">
<path d="M24 12C24 18.6274 18.6274 24 12 24C5.37258 24 0 18.6274 0 12C0 5.37258 5.37258 0 12 0C18.6274 0 24 5.37258 24 12Z" fill="context-fill"/>
<path fill-rule="evenodd" clip-rule="evenodd" d="M8.5 6C8.5 4.89579 9.39579 4 10.5 4H13.5C14.6042 4 15.5 4.89579 15.5 6V7H18C19.1042 7 20 7.89579 20 9V17C20 18.1042 19.1042 19 18 19H6C4.89579 19 4 18.1042 4 17V9C4 7.89579 4.89579 7 6 7H8.5V6ZM14 6V7H10V6C10 5.72421 10.2242 5.5 10.5 5.5H13.5C13.7758 5.5 14 5.72421 14 6ZM5.5 9C5.5 8.72421 5.72421 8.5 6 8.5H7.5V17.5H6C5.72421 17.5 5.5 17.2758 5.5 17V9ZM18 17.5C18.2758 17.5 18.5 17.2758 18.5 17V9C18.5 8.72421 18.2758 8.5 18 8.5H16.5V17.5H18ZM15 17.5V8.5H9V17.5H15Z" fill="context-stroke"/>
</svg>
