<!-- This Source Code Form is subject to the terms of the Mozilla Public
   - License, v. 2.0. If a copy of the MPL was not distributed with this
   - file, You can obtain one at https://mozilla.org/MPL/2.0/. -->
<svg width="24" height="24" viewBox="0 0 24 24" fill="none" xmlns="http://www.w3.org/2000/svg">
<path d="M24 12C24 18.6274 18.6274 24 12 24C5.37258 24 0 18.6274 0 12C0 5.37258 5.37258 0 12 0C18.6274 0 24 5.37258 24 12Z" fill="context-fill"/>
<g clip-path="url(#clip0_11642_9980)">
<path d="M11 13V11H13V13H11Z" fill="context-stroke"/>
<path fill-rule="evenodd" clip-rule="evenodd" d="M12 4C10.1325 4 8.57857 5.27941 8.13713 7.00275C8.09189 7.00095 8.04618 7 8 7C5.79079 7 4 8.79079 4 11C4 12.2607 4.58745 13.3722 5.49134 14.1C5.18204 14.6608 5 15.3059 5 16C5 18.2092 6.79079 20 9 20C10.1966 20 11.2682 19.4747 12 18.644C12.7318 19.4747 13.8034 20 15 20C17.2092 20 19 18.2092 19 16C19 15.3059 18.818 14.6608 18.5087 14.1C19.4126 13.3722 20 12.2607 20 11C20 8.79079 18.2092 7 16 7C15.9538 7 15.9081 7.00095 15.8629 7.00276C15.4214 5.27941 13.8675 4 12 4ZM9.51419 7.88477C9.57591 6.55473 10.663 5.5 12 5.5C13.337 5.5 14.4241 6.55473 14.4858 7.88477C14.4962 8.10862 14.6061 8.31611 14.7855 8.45041C14.9649 8.5847 15.195 8.63174 15.4127 8.57864C15.6183 8.52851 15.8107 8.5 16 8.5C17.3808 8.5 18.5 9.61921 18.5 11C18.5 11.9691 17.9398 12.8072 17.1171 13.2224C16.9111 13.3264 16.7644 13.5194 16.7194 13.7457C16.6744 13.972 16.7361 14.2065 16.8866 14.3813C17.2688 14.8252 17.5 15.3858 17.5 16C17.5 17.3808 16.3808 18.5 15 18.5C13.9609 18.5 13.0693 17.8655 12.6924 16.9598C12.5761 16.6802 12.3029 16.498 12 16.498C11.6971 16.498 11.4239 16.6802 11.3076 16.9598C10.9307 17.8655 10.0391 18.5 9 18.5C7.61921 18.5 6.5 17.3808 6.5 16C6.5 15.3858 6.73123 14.8252 7.11338 14.3813C7.26393 14.2065 7.3256 13.972 7.2806 13.7457C7.23559 13.5194 7.08893 13.3264 6.88293 13.2224C6.0602 12.8072 5.5 11.9691 5.5 11C5.5 9.61921 6.61921 8.5 8 8.5C8.18928 8.5 8.38174 8.52851 8.58728 8.57864C8.805 8.63174 9.03506 8.5847 9.21446 8.45041C9.39386 8.31611 9.50381 8.10862 9.51419 7.88477Z" fill="context-stroke"/>
</g>
<defs>
<clipPath id="clip0_11642_9980">
<rect width="16" height="16" transform="translate(4 4)"/>
</clipPath>
</defs>
</svg>
