<!-- This Source Code Form is subject to the terms of the Mozilla Public
   - License, v. 2.0. If a copy of the MPL was not distributed with this
   - file, You can obtain one at https://mozilla.org/MPL/2.0/. -->
<svg width="24" height="24" viewBox="0 0 24 24" fill="none" xmlns="http://www.w3.org/2000/svg">
<path d="M24 12C24 18.6274 18.6274 24 12 24C5.37258 24 0 18.6274 0 12C0 5.37258 5.37258 0 12 0C18.6274 0 24 5.37258 24 12Z" fill="context-fill"/>
<g clip-path="url(#clip0_11642_10162)">
<path d="M12.03 19.9795C11.83 19.9795 11.64 19.8995 11.5 19.7595L5.31002 13.5895C3.84002 12.1295 3.58002 9.88953 4.66002 8.12953C5.47002 6.80953 6.88002 6.01953 8.43002 6.01953H8.46002C9.88002 6.01953 11.17 6.68953 12 7.81953C12.83 6.69953 14.12 6.02953 15.54 6.01953H15.57C17.12 6.01953 18.53 6.80953 19.35 8.12953C20.43 9.87953 20.17 12.1295 18.71 13.5895L12.56 19.7595C12.42 19.8995 12.23 19.9795 12.03 19.9795ZM8.44002 7.51953C7.41002 7.51953 6.48002 8.03953 5.94002 8.90953C5.22002 10.0695 5.40002 11.5595 6.37002 12.5195L12.03 18.1595L17.65 12.5195C18.61 11.5495 18.79 10.0695 18.07 8.90953C17.53 8.02953 16.58 7.52953 15.55 7.50953C14.52 7.50953 13.58 8.04953 13.05 8.92953L12.64 9.60953C12.5 9.83953 12.26 9.96953 12 9.96953C11.74 9.96953 11.49 9.82953 11.36 9.60953L10.95 8.92953C10.42 8.04953 9.48002 7.50953 8.45002 7.50953H8.43002L8.44002 7.51953Z" fill="context-stroke"/>
</g>
<defs>
<clipPath id="clip0_11642_10162">
<rect width="16" height="16" transform="translate(4 5)"/>
</clipPath>
</defs>
</svg>
