<!-- This Source Code Form is subject to the terms of the Mozilla Public
   - License, v. 2.0. If a copy of the MPL was not distributed with this
   - file, You can obtain one at https://mozilla.org/MPL/2.0/. -->
<svg width="24" height="24" viewBox="0 0 24 24" fill="none" xmlns="http://www.w3.org/2000/svg">
<path d="M24 12C24 18.6274 18.6274 24 12 24C5.37258 24 0 18.6274 0 12C0 5.37258 5.37258 0 12 0C18.6274 0 24 5.37258 24 12Z" fill="context-fill"/>
<path d="M8.18497 19.499C7.84897 19.499 7.51397 19.395 7.22797 19.186C6.96328 18.9952 6.76238 18.7289 6.65158 18.422C6.54077 18.1151 6.52523 17.7819 6.60697 17.466L7.46697 14.091L4.78697 11.865C4.53534 11.6577 4.3522 11.3792 4.26155 11.0661C4.17091 10.7529 4.17698 10.4197 4.27897 10.11C4.37879 9.79939 4.57002 9.52612 4.82765 9.32594C5.08528 9.12576 5.39732 9.00798 5.72297 8.988L9.19797 8.763L10.486 5.526C10.735 4.903 11.329 4.5 12 4.5C12.671 4.5 13.265 4.903 13.514 5.526L14.802 8.763L18.277 8.988C18.6027 9.00784 18.9148 9.12557 19.1724 9.32577C19.4301 9.52597 19.6213 9.79931 19.721 10.11C19.823 10.4201 19.829 10.7537 19.7382 11.0672C19.6474 11.3807 19.4639 11.6595 19.212 11.867L16.532 14.092L17.392 17.467C17.4737 17.7829 17.4582 18.1161 17.3474 18.423C17.2366 18.7299 17.0357 18.9962 16.771 19.187C16.5078 19.3801 16.1924 19.489 15.8661 19.4996C15.5399 19.5101 15.2181 19.4217 14.943 19.246L12 17.385L9.05597 19.246C8.79542 19.411 8.49339 19.4988 8.18497 19.499V19.499ZM12 5.75C11.9237 5.74804 11.8487 5.77004 11.7855 5.81291C11.7224 5.85578 11.6743 5.91736 11.648 5.989L10.214 9.592L9.67297 9.985L5.80297 10.236C5.72675 10.2391 5.65339 10.2659 5.59315 10.3127C5.53291 10.3595 5.48879 10.4239 5.46697 10.497C5.4418 10.5688 5.43974 10.6466 5.46109 10.7196C5.48243 10.7926 5.5261 10.8571 5.58597 10.904L8.56997 13.383L8.77597 14.018L7.81797 17.776C7.79736 17.8493 7.80027 17.9273 7.82628 17.9988C7.85229 18.0704 7.9001 18.132 7.96297 18.175C8.02597 18.222 8.19297 18.314 8.38897 18.189L11.667 16.118H12.335L15.613 18.189C15.6765 18.2316 15.7518 18.2532 15.8282 18.2506C15.9047 18.2481 15.9784 18.2217 16.039 18.175C16.1013 18.1314 16.1486 18.0695 16.1742 17.9978C16.1998 17.9261 16.2026 17.8483 16.182 17.775L15.224 14.017L15.43 13.382L18.414 10.904C18.474 10.857 18.5178 10.7924 18.5392 10.7192C18.5606 10.646 18.5584 10.5679 18.533 10.496C18.511 10.423 18.4669 10.3586 18.4067 10.3118C18.3464 10.2651 18.2732 10.2382 18.197 10.235L14.328 9.984L13.787 9.591L12.352 5.988C12.3252 5.91672 12.277 5.85552 12.2139 5.81288C12.1509 5.77023 12.0761 5.74826 12 5.75V5.75Z" fill="context-stroke"/>
</svg>
