<!-- This Source Code Form is subject to the terms of the Mozilla Public
   - License, v. 2.0. If a copy of the MPL was not distributed with this
   - file, You can obtain one at https://mozilla.org/MPL/2.0/. -->
<svg width="48" height="48" viewBox="0 0 48 48" fill="none" xmlns="http://www.w3.org/2000/svg">
<g clip-path="url(#clip0_11642_10090)">
<path d="M48 24C48 37.2548 37.2548 48 24 48C10.7452 48 0 37.2548 0 24C0 10.7452 10.7452 0 24 0C37.2548 0 48 10.7452 48 24Z" fill="context-fill"/>
<path fill-rule="evenodd" clip-rule="evenodd" d="M10 18.5C10 16.5676 11.5676 15 13.5 15H17.5C18.3284 15 19 15.6716 19 16.5V22H29V16.5C29 15.6716 29.6716 15 30.5 15H34.5C36.4324 15 38 16.5676 38 18.5V21.75H39.9999V25.25H38V28.5C38 30.4324 36.4324 32 34.5 32H30.5C29.6716 32 29 31.3284 29 30.5V25H19V30.5C19 31.3284 18.3284 32 17.5 32H13.5C11.5676 32 10 30.4324 10 28.5V25.25H8V21.75H10V18.5ZM13.5 18C13.2244 18 13 18.2244 13 18.5V28.5C13 28.7756 13.2244 29 13.5 29H16V18H13.5ZM32 18V29H34.5C34.7756 29 35 28.7756 35 28.5V18.5C35 18.2244 34.7756 18 34.5 18H32Z" fill="context-stroke"/>
</g>
<defs>
<clipPath id="clip0_11642_10090">
<rect width="48" height="48"/>
</clipPath>
</defs>
</svg> 