<!-- This Source Code Form is subject to the terms of the Mozilla Public
   - License, v. 2.0. If a copy of the MPL was not distributed with this
   - file, You can obtain one at https://mozilla.org/MPL/2.0/. -->
<svg width="48" height="48" viewBox="0 0 48 48" fill="none" xmlns="http://www.w3.org/2000/svg">
<g clip-path="url(#clip0_11642_10089)">
<path d="M48 24C48 37.2548 37.2548 48 24 48C10.7452 48 0 37.2548 0 24C0 10.7452 10.7452 0 24 0C37.2548 0 48 10.7452 48 24Z" fill="context-fill"/>
<path fill-rule="evenodd" clip-rule="evenodd" d="M25.6001 15H28.5111L29.5829 19H19.0005L18.9906 17.5H20.25C21.216 17.5 22 16.716 22 15.75C22 14.784 21.216 14 20.25 14H14.5C14.224 14 14 14.224 14 14.5V17C14 17.276 14.224 17.5 14.5 17.5H15.9905L16.0157 21.3029L15.7673 21.8396C15.326 21.7481 14.8687 21.7 14.4002 21.7C10.6999 21.7 7.7002 24.6997 7.7002 28.4C7.7002 32.1003 10.6999 35.1 14.4002 35.1C18.1005 35.1 21.1002 32.1003 21.1002 28.4C21.1002 26.2406 20.0786 24.3197 18.4923 23.0944L18.9988 22H30.3867L30.5085 22.4543C28.3641 23.5715 26.8999 25.8148 26.8999 28.4C26.8999 32.1003 29.8996 35.1 33.5999 35.1C37.3002 35.1 40.2999 32.1003 40.2999 28.4C40.2999 24.6997 37.3002 21.7 33.5999 21.7C33.5374 21.7 33.475 21.7009 33.4129 21.7026L31.111 13.1118C30.9353 12.456 30.341 12 29.6621 12H25.6001V15ZM31.3206 25.4852L32.3712 29.4062L35.269 28.6298L34.2304 24.7535C35.9735 25.0527 37.2999 26.5715 37.2999 28.4C37.2999 30.4435 35.6434 32.1 33.5999 32.1C31.5564 32.1 29.8999 30.4435 29.8999 28.4C29.8999 27.2164 30.4557 26.1625 31.3206 25.4852ZM12.7368 28.388L14.4435 24.7003L14.4002 24.7C12.3567 24.7 10.7002 26.3566 10.7002 28.4C10.7002 30.4435 12.3567 32.1 14.4002 32.1C16.4436 32.1 18.1002 30.4435 18.1002 28.4C18.1002 27.4596 17.7494 26.6012 17.1715 25.9484L15.4594 29.648L12.7368 28.388Z" fill="context-stroke"/>
</g>
<defs>
<clipPath id="clip0_11642_10089">
<rect width="48" height="48"/>
</clipPath>
</defs>
</svg>