<!-- This Source Code Form is subject to the terms of the Mozilla Public
   - License, v. 2.0. If a copy of the MPL was not distributed with this
   - file, You can obtain one at https://mozilla.org/MPL/2.0/. -->
<svg width="48" height="48" viewBox="0 0 48 48" fill="none" xmlns="http://www.w3.org/2000/svg">
<path d="M48 24C48 37.2548 37.2548 48 24 48C10.7452 48 0 37.2548 0 24C0 10.7452 10.7452 0 24 0C37.2548 0 48 10.7452 48 24Z" fill="context-fill"/>
<path fill-rule="evenodd" clip-rule="evenodd" d="M16.4 12.4004C16.4 10.192 18.1916 8.40039 20.4 8.40039H27.6C29.8084 8.40039 31.6 10.192 31.6 12.4004V14.4004H36C38.2084 14.4004 40 16.192 40 18.4004V34.0004C40 36.2088 38.2084 38.0004 36 38.0004H12C9.7916 38.0004 8 36.2088 8 34.0004V18.4004C8 16.192 9.7916 14.4004 12 14.4004H16.4V12.4004ZM28.8 12.4004V14.4004H19.2V12.4004C19.2 11.7384 19.738 11.2004 20.4 11.2004H27.6C28.262 11.2004 28.8 11.7384 28.8 12.4004ZM10.8 18.4004C10.8 17.7384 11.338 17.2004 12 17.2004H14.8V35.2004H12C11.338 35.2004 10.8 34.6624 10.8 34.0004V18.4004ZM33.2 35.2004H36C36.662 35.2004 37.2 34.6624 37.2 34.0004V18.4004C37.2 17.7384 36.662 17.2004 36 17.2004H33.2V35.2004ZM30.4 35.2004V17.2004H17.6V35.2004H30.4Z" fill="context-stroke"/>
</svg>
