<!-- This Source Code Form is subject to the terms of the Mozilla Public
   - License, v. 2.0. If a copy of the MPL was not distributed with this
   - file, You can obtain one at https://mozilla.org/MPL/2.0/. -->
<svg width="48" height="48" viewBox="0 0 48 48" fill="none" xmlns="http://www.w3.org/2000/svg">
<g clip-path="url(#clip0_11642_10089)">
<path d="M48 24C48 37.2548 37.2548 48 24 48C10.7452 48 0 37.2548 0 24C0 10.7452 10.7452 0 24 0C37.2548 0 48 10.7452 48 24Z" fill="context-fill"/>
<path fill-rule="evenodd" clip-rule="evenodd" d="M14 10C12.9391 10 11.9217 10.4214 11.1716 11.1716C10.4214 11.9217 10 12.9391 10 14V34C10 35.0609 10.4214 36.0783 11.1716 36.8284C11.9217 37.5786 12.9391 38 14 38H34C35.0609 38 36.0783 37.5786 36.8284 36.8284C37.5786 36.0783 38 35.0609 38 34V14C38 12.9391 37.5786 11.9217 36.8284 11.1716C36.0783 10.4214 35.0609 10 34 10H14ZM35.5 34.3L34.3 35.5H13.7L12.5 34.3V13.7L13.7 12.5H34.3L35.5 13.7V34.3ZM30 32.0004H18C17.4696 32.0004 16.9609 31.7897 16.5858 31.4146C16.2107 31.0395 16 30.5308 16 30.0004V27.3584C15.9998 26.962 16.1566 26.5816 16.436 26.3004L20.7 22.0104C20.8389 21.8706 21.004 21.7596 21.1858 21.6836C21.3677 21.6077 21.5627 21.5683 21.7598 21.5677C21.9568 21.5672 22.1521 21.6054 22.3343 21.6804C22.5166 21.7553 22.6823 21.8654 22.822 22.0044L27.046 26.2084L28.27 25.0544C28.5545 24.7859 28.9327 24.6391 29.3239 24.6455C29.7151 24.6518 30.0883 24.8108 30.364 25.0884L31.564 26.2984C31.8434 26.5796 32.0002 26.96 32 27.3564V30.0004C32 30.5308 31.7893 31.0395 31.4142 31.4146C31.0391 31.7897 30.5304 32.0004 30 32.0004ZM28.8 18H31.2L32 18.8V21.2L31.2 22H28.8L28 21.2V18.8L28.8 18Z" fill="context-stroke"/>
</g>
<defs>
<clipPath id="clip0_11642_10089">
<rect width="48" height="48"/>
</clipPath>
</defs>
</svg>