<!-- This Source Code Form is subject to the terms of the Mozilla Public
   - License, v. 2.0. If a copy of the MPL was not distributed with this
   - file, You can obtain one at https://mozilla.org/MPL/2.0/. -->
<svg width="48" height="48" viewBox="0 0 48 48" fill="none" xmlns="http://www.w3.org/2000/svg">
<g clip-path="url(#clip0_11642_10089)">
<path d="M48 24C48 37.2548 37.2548 48 24 48C10.7452 48 0 37.2548 0 24C0 10.7452 10.7452 0 24 0C37.2548 0 48 10.7452 48 24Z" fill="context-fill"/>
<path d="M23.9999 9.33301C20.1101 9.33301 16.3796 10.8782 13.629 13.6288C10.8785 16.3793 9.33325 20.1098 9.33325 23.9997C9.33325 27.8895 10.8785 31.62 13.629 34.3706C16.3796 37.1211 20.1101 38.6663 23.9999 38.6663C27.8898 38.6663 31.6203 37.1211 34.3708 34.3706C37.1214 31.62 38.6666 27.8895 38.6666 23.9997C38.6666 20.1098 37.1214 16.3793 34.3708 13.6288C31.6203 10.8782 27.8898 9.33301 23.9999 9.33301V9.33301ZM28.7852 12.7552C30.7931 13.6174 32.5333 15.0017 33.8251 16.7642C35.1168 18.5268 35.9127 20.6031 36.1302 22.7775H31.7713C31.5305 19.136 30.2142 15.6479 27.9893 12.7552H28.7852ZM24.7782 12.7552C27.4242 15.4572 29.0316 19.0065 29.3171 22.7775H18.6828C18.9683 19.0065 20.5756 15.4572 23.2216 12.7552H24.7782ZM19.2127 12.7552H20.0106C17.7864 15.6484 16.4702 19.1362 16.2285 22.7775H11.8696C12.0867 20.6033 12.8823 18.527 14.1737 16.7644C15.4651 15.0019 17.2051 13.6175 19.2127 12.7552V12.7552ZM19.2127 35.2441C17.2048 34.3822 15.4646 32.9979 14.1732 31.2353C12.8818 29.4727 12.0863 27.3962 11.8696 25.2219H16.2285C16.4693 28.8634 17.7856 32.3514 20.0106 35.2441H19.2127ZM23.2216 35.2441C20.5756 32.5421 18.9683 28.9929 18.6828 25.2219H29.3151C29.0296 28.9929 27.4222 32.5421 24.7763 35.2441H23.2216ZM28.7871 35.2441H27.9873C30.2131 32.3519 31.5295 28.8636 31.7693 25.2219H36.1283C35.9115 27.3959 35.1163 29.4722 33.8253 31.2347C32.5342 32.9973 30.7945 34.3817 28.7871 35.2441V35.2441Z" fill="context-stroke"/>
</g>
<defs>
<clipPath id="clip0_11642_10089">
<rect width="48" height="48"/>
</clipPath>
</defs>
</svg>