<!-- This Source Code Form is subject to the terms of the Mozilla Public
   - License, v. 2.0. If a copy of the MPL was not distributed with this
   - file, You can obtain one at https://mozilla.org/MPL/2.0/. -->
<svg width="48" height="48" viewBox="0 0 48 48" fill="none" xmlns="http://www.w3.org/2000/svg">
<g clip-path="url(#clip0_11642_10089)">
<path d="M48 24C48 37.2548 37.2548 48 24 48C10.7452 48 0 37.2548 0 24C0 10.7452 10.7452 0 24 0C37.2548 0 48 10.7452 48 24Z" fill="context-fill"/>
<path fill-rule="evenodd" clip-rule="evenodd" d="M11.4779 16.0154C12.1908 14.7686 13.5155 14 14.95 14H33.048C34.4826 14 35.8086 14.767 36.5205 16.016L36.5216 16.018L39.8022 21.7554C40.138 22.3428 40.0391 23.0823 39.5607 23.5607L25.0607 38.0607C24.4749 38.6464 23.5252 38.6464 22.9394 38.0607L8.43938 23.5607C7.96107 23.0824 7.86207 22.3431 8.19767 21.7558L11.4779 16.0154ZM14.0822 17.5046L12.0848 21H16.1296L18.4153 17H14.95C14.5927 17 14.2613 17.1916 14.0822 17.5046ZM28.4154 21H19.5849L21.8706 17H26.1297L28.4154 21ZM31.8706 21H35.9145L33.9159 17.5046L33.9144 17.502C33.7381 17.1922 33.4087 17 33.048 17H29.5849L31.8706 21ZM34.8787 24H25.5V33.3787L34.8787 24ZM22.5 24H13.1214L22.5 33.3786V24Z" fill="context-stroke"/>
</g>
<defs>
<clipPath id="clip0_11642_10089">
<rect width="48" height="48"/>
</clipPath>
</defs>
</svg> 