<!-- This Source Code Form is subject to the terms of the Mozilla Public
   - License, v. 2.0. If a copy of the MPL was not distributed with this
   - file, You can obtain one at https://mozilla.org/MPL/2.0/. -->
<svg width="48" height="48" viewBox="0 0 48 48" fill="none" xmlns="http://www.w3.org/2000/svg">
<g clip-path="url(#clip0_11642_10089)">
<path d="M48 24C48 37.2548 37.2548 48 24 48C10.7452 48 0 37.2548 0 24C0 10.7452 10.7452 0 24 0C37.2548 0 48 10.7452 48 24Z" fill="context-fill"/>
<path d="M35.99 36H14.01C12.9468 35.9989 11.9275 35.5761 11.1757 34.8243C10.4239 34.0725 10.0011 33.0532 10 31.99V14.01C10 11.798 11.798 10 14.01 10H19.926C20.4778 10.0005 21.0236 10.1145 21.5294 10.3351C22.0352 10.5556 22.4902 10.878 22.866 11.282L25.386 14H35.99C38.202 14 40 15.798 40 18.01V31.99C39.9989 33.0532 39.5761 34.0725 38.8243 34.8243C38.0725 35.5761 37.0532 35.9989 35.99 36V36ZM13.7 12.5L12.5 13.7V32.3L13.7 33.5H36.3L37.5 32.3V17.7L36.3 16.5H24.84L23.924 16.1L21.034 12.982C20.8922 12.83 20.7207 12.7088 20.5301 12.6258C20.3395 12.5429 20.1339 12.5001 19.926 12.5H13.7V12.5Z" fill="context-stroke"/>
</g>
<defs>
<clipPath id="clip0_11642_10089">
<rect width="48" height="48"/>
</clipPath>
</defs>
</svg>