<!-- This Source Code Form is subject to the terms of the Mozilla Public
   - License, v. 2.0. If a copy of the MPL was not distributed with this
   - file, You can obtain one at https://mozilla.org/MPL/2.0/. -->
<svg width="48" height="48" viewBox="0 0 48 48" fill="none" xmlns="http://www.w3.org/2000/svg">
<path d="M48 24C48 37.2548 37.2548 48 24 48C10.7452 48 0 37.2548 0 24C0 10.7452 10.7452 0 24 0C37.2548 0 48 10.7452 48 24Z" fill="context-fill"/>
<g clip-path="url(#clip0_11642_9769)">
<path d="M22.0001 22H26.0001V26H22.0001V22Z" fill="context-stroke"/>
<path fill-rule="evenodd" clip-rule="evenodd" d="M24.0001 8C20.2599 8 17.1526 10.5843 16.3058 14.0513C16.1869 14.045 16.0663 14.0416 15.9441 14.0416C11.5568 14.0416 7.99854 17.5978 7.99854 21.9872C7.99854 24.5248 9.19714 26.758 11.0352 28.2025C10.3933 29.335 10.0129 30.6442 10.0129 32.0576C10.0129 36.445 13.5691 40.0032 17.9585 40.0032C20.3799 40.0032 22.5447 38.919 24 37.2135C25.4549 38.919 27.6191 40.0032 30.0417 40.0032C34.4291 40.0032 37.9873 36.447 37.9873 32.0576C37.9873 30.645 37.6068 29.3349 36.9645 28.2018C38.8013 26.757 40.0001 24.5249 40.0001 21.9856C40.0001 17.5982 36.444 14.04 32.0545 14.04C31.9325 14.04 31.812 14.0434 31.6932 14.0497C30.8473 10.5836 27.7398 8 24.0001 8ZM18.8834 15.7083C19.0108 12.9714 21.2479 10.8 24.0001 10.8C26.7527 10.8 28.9892 12.9716 29.1152 15.7061C29.1345 16.1236 29.3392 16.5106 29.6735 16.7615C30.0078 17.0123 30.4367 17.1006 30.8429 17.0023C31.2674 16.8997 31.6646 16.84 32.0545 16.84C34.8971 16.84 37.2001 19.1442 37.2001 21.9856C37.2001 23.982 36.0468 25.7053 34.3537 26.562C33.9698 26.7562 33.6966 27.1161 33.6126 27.5381C33.5287 27.96 33.6434 28.3971 33.9237 28.7234C34.71 29.6388 35.1873 30.7934 35.1873 32.0576C35.1873 34.9002 32.8832 37.2032 30.0417 37.2032C27.9032 37.2032 26.069 35.8972 25.2925 34.0329C25.0752 33.5111 24.5654 33.1712 24.0001 33.1712C23.4349 33.1712 22.9251 33.5111 22.7078 34.0329C21.9314 35.897 20.0957 37.2032 17.9585 37.2032C15.116 37.2032 12.8129 34.899 12.8129 32.0576C12.8129 30.792 13.2902 29.6389 14.0766 28.7234C14.357 28.3969 14.4717 27.9596 14.3875 27.5375C14.3034 27.1154 14.0297 26.7554 13.6455 26.5614C11.9519 25.7064 10.7985 23.9822 10.7985 21.9872C10.7985 19.1446 13.1027 16.8416 15.9441 16.8416C16.3341 16.8416 16.7313 16.9013 17.1557 17.0039C17.5618 17.1022 17.9906 17.0139 18.3249 16.7632C18.6592 16.5126 18.864 16.1257 18.8834 15.7083Z" fill="context-stroke"/>
</g>
<defs>
<clipPath id="clip0_11642_9769">
<rect width="32" height="32" transform="translate(8 8)"/>
</clipPath>
</defs>
</svg>
