<!-- This Source Code Form is subject to the terms of the Mozilla Public
   - License, v. 2.0. If a copy of the MPL was not distributed with this
   - file, You can obtain one at https://mozilla.org/MPL/2.0/. -->
<svg width="48" height="48" viewBox="0 0 48 48" fill="none" xmlns="http://www.w3.org/2000/svg">
<path d="M48 24C48 37.2548 37.2548 48 24 48C10.7452 48 0 37.2548 0 24C0 10.7452 10.7452 0 24 0C37.2548 0 48 10.7452 48 24Z" fill="context-fill"/>
<g clip-path="url(#clip0_11642_9992)">
<path d="M24.0641 38.9513C23.7121 38.9513 23.3441 38.8233 23.0721 38.5353L10.5921 26.1034C7.69605 23.2074 7.16805 18.7434 9.31205 15.2394C10.9441 12.5994 13.7441 11.0634 16.8641 11.0474C19.7441 11.0474 22.3521 12.4394 24.0001 14.7434C25.6481 12.4394 28.2561 11.0634 31.1361 11.0474C34.2241 11.0154 37.0721 12.5994 38.7041 15.2394C40.8481 18.7274 40.3361 23.1914 37.4401 26.0874L25.0561 38.5194C24.7841 38.7914 24.4161 38.9353 24.0641 38.9353V38.9513ZM16.8161 13.8474C14.7041 13.8474 12.8001 14.9194 11.6961 16.7114C10.2241 19.0954 10.5921 22.1514 12.5761 24.1194L24.0481 35.5594L35.4401 24.1194C37.4081 22.1354 37.7761 19.0954 36.3041 16.7114C35.2001 14.9034 33.2801 13.7994 31.1361 13.8474C29.0081 13.8474 27.1041 14.9514 26.0001 16.7754L25.1841 18.1354C24.6721 18.9834 23.2961 18.9834 22.7841 18.1354L21.9521 16.7594C20.8641 14.9354 18.9441 13.8474 16.8321 13.8474H16.8001H16.8161Z" fill="context-stroke"/>
</g>
<defs>
<clipPath id="clip0_11642_9992">
<rect width="32" height="32" transform="translate(8 9)"/>
</clipPath>
</defs>
</svg>
