<!-- This Source Code Form is subject to the terms of the Mozilla Public
   - License, v. 2.0. If a copy of the MPL was not distributed with this
   - file, You can obtain one at https://mozilla.org/MPL/2.0/. -->
<svg width="48" height="48" viewBox="0 0 48 48" fill="none" xmlns="http://www.w3.org/2000/svg">
<g clip-path="url(#clip0_11642_10089)">
<path d="M48 24C48 37.2548 37.2548 48 24 48C10.7452 48 0 37.2548 0 24C0 10.7452 10.7452 0 24 0C37.2548 0 48 10.7452 48 24Z" fill="context-fill"/>
<path d="M26.2411 18.7537C25.9538 18.2528 25.4044 17.9613 24.8286 18.0042C24.2527 18.0471 23.7526 18.4168 23.5426 18.9547L21.1661 25.0448L20.4192 23.7504C20.1513 23.2861 19.656 23 19.12 23H14V26H18.2537L20.1288 29.2497C20.417 29.7493 20.9662 30.0393 21.5414 29.9957C22.1165 29.9521 22.6157 29.5826 22.8254 29.0453L25.1981 22.9648L26.5069 25.2464C26.7742 25.7125 27.2706 26 27.808 26H34V23H28.6768L26.2411 18.7537Z" fill="context-stroke"/>
<path fill-rule="evenodd" clip-rule="evenodd" d="M12 12C9.79157 12 8 13.7916 8 16V32C8 34.2084 9.79157 36 12 36H36C38.2084 36 40 34.2084 40 32V16C40 13.7916 38.2084 12 36 12H12ZM11 16C11 15.4484 11.4484 15 12 15H36C36.5516 15 37 15.4484 37 16V32C37 32.5516 36.5516 33 36 33H12C11.4484 33 11 32.5516 11 32V16Z" fill="context-stroke"/>
</g>
<defs>
<clipPath id="clip0_11642_10089">
<rect width="48" height="48"/>
</clipPath>
</defs>
</svg>