<!-- This Source Code Form is subject to the terms of the Mozilla Public
   - License, v. 2.0. If a copy of the MPL was not distributed with this
   - file, You can obtain one at https://mozilla.org/MPL/2.0/. -->
<svg width="48" height="48" viewBox="0 0 48 48" fill="none" xmlns="http://www.w3.org/2000/svg">
<g clip-path="url(#clip0_11642_10089)">
<path d="M48 24C48 37.2548 37.2548 48 24 48C10.7452 48 0 37.2548 0 24C0 10.7452 10.7452 0 24 0C37.2548 0 48 10.7452 48 24Z" fill="context-fill"/>
<path fill-rule="evenodd" clip-rule="evenodd" d="M35.75 24C35.75 17.108 30.142 11.5 23.25 11.5C16.358 11.5 10.75 17.108 10.75 24C10.75 30.892 16.358 36.5 23.25 36.5C30.142 36.5 35.75 30.892 35.75 24ZM17.5097 10.1418C19.3296 9.38799 21.2802 9 23.25 9C27.2282 9 31.0436 10.5804 33.8566 13.3934C36.6696 16.2064 38.25 20.0218 38.25 24C38.25 27.9782 36.6696 31.7936 33.8566 34.6066C31.0436 37.4196 27.2282 39 23.25 39C21.2802 39 19.3296 38.612 17.5097 37.8582C15.6899 37.1044 14.0363 35.9995 12.6434 34.6066C11.2505 33.2137 10.1456 31.5601 9.39181 29.7403C8.63799 27.9204 8.25 25.9698 8.25 24C8.25 22.0302 8.63799 20.0796 9.39181 18.2597C10.1456 16.4399 11.2505 14.7863 12.6434 13.3934C14.0363 12.0005 15.6899 10.8956 17.5097 10.1418ZM28.624 28.68C28.8137 28.7897 29.0289 28.8477 29.248 28.848C29.5224 28.8468 29.7889 28.7555 30.0063 28.5882C30.2238 28.4208 30.3803 28.1866 30.4516 27.9216C30.523 27.6566 30.5053 27.3755 30.4013 27.1215C30.2973 26.8676 30.1127 26.6548 29.876 26.516L24.5 23.412V17.25C24.5 16.9185 24.3683 16.6005 24.1339 16.3661C23.8995 16.1317 23.5815 16 23.25 16C22.9185 16 22.6005 16.1317 22.3661 16.3661C22.1317 16.6005 22 16.9185 22 17.25V24.132L22.624 25.216L28.624 28.68Z" fill="context-stroke"/>
</g>
<defs>
<clipPath id="clip0_11642_10089">
<rect width="48" height="48"/>
</clipPath>
</defs>
</svg>