<!-- This Source Code Form is subject to the terms of the Mozilla Public
   - License, v. 2.0. If a copy of the MPL was not distributed with this
   - file, You can obtain one at https://mozilla.org/MPL/2.0/. -->
<svg width="48" height="48" viewBox="0 0 48 48" fill="none" xmlns="http://www.w3.org/2000/svg">
<g clip-path="url(#clip0_11642_10089)">
<path d="M48 24C48 37.2548 37.2548 48 24 48C10.7452 48 0 37.2548 0 24C0 10.7452 10.7452 0 24 0C37.2548 0 48 10.7452 48 24Z" fill="context-fill"/>
<path fill-rule="evenodd" clip-rule="evenodd" d="M29.2932 24.4692L30.7927 25.9687L29.6333 27.1281L31.7546 29.2494L40.0006 21.0034L37.8793 18.8821L36.6959 20.0655L35.1694 18.605L34.6973 16.4515C34.6359 16.1714 34.4955 15.9148 34.2928 15.7121L30.4864 11.9057C27.0969 8.51862 21.6034 8.51808 18.2155 11.9061L17.5815 12.5401C17.2295 12.8921 17.075 13.3957 17.1692 13.8845C17.2634 14.3733 17.5939 14.7835 18.0515 14.9795L21.7664 16.571L22.0385 17.9277L9.09536 30.9801L9.09294 30.9825C7.63358 32.4445 7.63438 34.8124 9.09536 36.2734L10.3634 37.5414C11.8248 39.0028 14.1948 39.0021 15.6567 37.5414L28.8846 24.367L29.2932 24.4692ZM21.4389 13.167L23.6728 14.1239C24.1266 14.3184 24.4558 14.7237 24.5528 15.2078L25.0996 17.9349L28.291 21.1263L30.4239 21.6595C30.6877 21.7255 30.9285 21.8618 31.1208 22.0541L32.914 23.8473L34.574 22.1873L32.7651 20.4565C32.5498 20.2505 32.4007 19.985 32.3369 19.694L31.8609 17.5229L28.3658 14.0278C26.4862 12.1498 23.6187 11.8631 21.4389 13.167ZM25.9639 23.0418L23.568 20.6459L11.2167 33.1014C10.9265 33.3916 10.9265 33.8619 11.2167 34.1521L12.4847 35.4201C12.7749 35.7103 13.2451 35.7103 13.5354 35.4201L25.9639 23.0418Z" fill="context-stroke"/>
</g>
<defs>
<clipPath id="clip0_11642_10089">
<rect width="48" height="48"/>
</clipPath>
</defs>
</svg> 