<!-- This Source Code Form is subject to the terms of the Mozilla Public
   - License, v. 2.0. If a copy of the MPL was not distributed with this
   - file, You can obtain one at https://mozilla.org/MPL/2.0/. -->
<svg width="48" height="48" viewBox="0 0 48 48" fill="none" xmlns="http://www.w3.org/2000/svg">
<g clip-path="url(#clip0_11642_10089)">
<path d="M48 24C48 37.2548 37.2548 48 24 48C10.7452 48 0 37.2548 0 24C0 10.7452 10.7452 0 24 0C37.2548 0 48 10.7452 48 24Z" fill="context-fill"/>
<path fill-rule="evenodd" clip-rule="evenodd" d="M20.9316 34.0005H27.0676C27.8338 34.0016 28.5756 33.7315 29.1616 33.238C29.7477 32.7446 30.1402 32.0596 30.2696 31.3045L30.8576 27.5585C32.1421 26.5373 33.1809 25.2407 33.8975 23.7645C34.6141 22.2883 34.9902 20.6701 34.998 19.0292C35.0059 17.3882 34.6453 15.7665 33.9429 14.2835C33.2405 12.8004 32.2142 11.494 30.9396 10.4605C28.3596 8.3625 24.9756 7.5525 21.6556 8.2385C17.3696 9.1325 13.9656 12.6445 13.1836 16.9765C12.4516 21.0305 13.9316 24.9865 17.0496 27.3925L17.7296 31.3045C17.8587 32.0598 18.2511 32.745 18.8372 33.2385C19.4234 33.732 20.1654 34.002 20.9316 34.0005ZM28.4876 26.9625L27.8056 30.8785L27.0656 31.5005H20.9316L20.1916 30.8765L19.5116 26.9645C19.4196 26.4345 19.1336 25.9525 18.7036 25.6085C17.494 24.6541 16.5692 23.3863 16.0297 21.9431C15.4902 20.4999 15.3567 18.9363 15.6436 17.4225C16.2456 14.0805 18.8656 11.3745 22.1616 10.6905C22.7676 10.5625 23.3756 10.5025 23.9756 10.5025C25.9358 10.4956 27.838 11.1669 29.3596 12.4025C31.3536 14.0245 32.4976 16.4305 32.4976 18.9985C32.4976 21.5665 31.3296 23.9745 29.2916 25.6105C28.8636 25.9545 28.5796 26.4345 28.4876 26.9625ZM18.3661 39.6339C18.6005 39.8683 18.9185 40 19.25 40H28.75C29.0815 40 29.3995 39.8683 29.6339 39.6339C29.8683 39.3995 30 39.0815 30 38.75C30 38.4185 29.8683 38.1005 29.6339 37.8661C29.3995 37.6317 29.0815 37.5 28.75 37.5H19.25C18.9185 37.5 18.6005 37.6317 18.3661 37.8661C18.1317 38.1005 18 38.4185 18 38.75C18 39.0815 18.1317 39.3995 18.3661 39.6339Z" fill="context-stroke"/>
</g>
<defs>
<clipPath id="clip0_11642_10089">
<rect width="48" height="48"/>
</clipPath>
</defs>
</svg> 