<!-- This Source Code Form is subject to the terms of the Mozilla Public
   - License, v. 2.0. If a copy of the MPL was not distributed with this
   - file, You can obtain one at https://mozilla.org/MPL/2.0/. -->
<svg width="48" height="48" viewBox="0 0 48 48" fill="none" xmlns="http://www.w3.org/2000/svg">
<g clip-path="url(#clip0_11642_10089)">
<path d="M48 24C48 37.2548 37.2548 48 24 48C10.7452 48 0 37.2548 0 24C0 10.7452 10.7452 0 24 0C37.2548 0 48 10.7452 48 24Z" fill="context-fill"/>
<path fill-rule="evenodd" clip-rule="evenodd" d="M13.4347 32.4441C12.1524 30.8423 11.2301 28.9458 10.8018 26.888C8.98834 18.1834 15.5965 10.5 24.0002 10.5H36.0002C36.8287 10.5 37.5002 11.1716 37.5002 12V24C37.5002 32.4038 29.817 39.0121 21.1123 37.1985C19.0551 36.7694 17.1583 35.8472 15.5563 34.5652L12.0002 38.1213L9.87891 36L13.4347 32.4441ZM13.7387 26.276C12.3204 19.4687 17.464 13.5 24.0002 13.5H34.5002V24C34.5002 30.5361 28.5317 35.6797 21.7245 34.2616C20.2493 33.9539 18.8774 33.3139 17.6944 32.4271L27.1215 23L25.0002 20.8787L15.5728 30.3061C14.6857 29.1232 14.0457 27.7511 13.7387 26.276Z" fill="context-stroke"/>
</g>
<defs>
<clipPath id="clip0_11642_10089">
<rect width="48" height="48"/>
</clipPath>
</defs>
</svg>