<!-- This Source Code Form is subject to the terms of the Mozilla Public
   - License, v. 2.0. If a copy of the MPL was not distributed with this
   - file, You can obtain one at https://mozilla.org/MPL/2.0/. -->
<svg width="48" height="48" viewBox="0 0 48 48" fill="none" xmlns="http://www.w3.org/2000/svg">
<g clip-path="url(#clip0_11642_10089)">
<path d="M48 24C48 37.2548 37.2548 48 24 48C10.7452 48 0 37.2548 0 24C0 10.7452 10.7452 0 24 0C37.2548 0 48 10.7452 48 24Z" fill="context-fill"/>
<path fill-rule="evenodd" clip-rule="evenodd" d="M24 28C20.14 28 17 24.86 17 21C17 17.14 20.14 14 24 14C27.86 14 31 17.14 31 21C31 24.86 27.86 28 24 28ZM24 17C21.8 17 20 18.8 20 21C20 23.2 21.8 25 24 25C26.2 25 28 23.2 28 21C28 18.8 26.2 17 24 17Z" fill="context-stroke"/>
<path fill-rule="evenodd" clip-rule="evenodd" d="M33.3664 30C35.6147 27.6612 37 24.4872 37 21C37 13.84 31.16 8 24 8C16.84 8 11 13.84 11 21C11 24.4872 12.3853 27.6612 14.6336 30H11.5C10.68 30 10 30.68 10 31.5V36C10 38.2 11.8 40 14 40H34C36.2 40 38 38.2 38 36V31.5C38 30.68 37.32 30 36.5 30H33.3664ZM13 33V36C13 36.56 13.44 37 14 37H34C34.56 37 35 36.56 35 36V33H13ZM28.3619 30C31.6984 28.3788 34 24.9566 34 21C34 15.48 29.52 11 24 11C18.48 11 14 15.48 14 21C14 24.9566 16.3016 28.3788 19.6381 30H28.3619Z" fill="context-stroke"/>
</g>
<defs>
<clipPath id="clip0_11642_10089">
<rect width="48" height="48"/>
</clipPath>
</defs>
</svg> 