<!-- This Source Code Form is subject to the terms of the Mozilla Public
   - License, v. 2.0. If a copy of the MPL was not distributed with this
   - file, You can obtain one at https://mozilla.org/MPL/2.0/. -->
<svg width="48" height="48" viewBox="0 0 48 48" fill="none" xmlns="http://www.w3.org/2000/svg">
<g clip-path="url(#clip0_11642_10089)">
<path d="M48 24C48 37.2548 37.2548 48 24 48C10.7452 48 0 37.2548 0 24C0 10.7452 10.7452 0 24 0C37.2548 0 48 10.7452 48 24Z" fill="context-fill"/>
<path fill-rule="evenodd" clip-rule="evenodd" d="M34.3 12.5L35.5 13.7V28.3L34.3 29.5H30.5C29.94 29.5 29.5 29.94 29.5 30.5V34.8L23.42 29.94C23.06 29.66 22.62 29.5 22.18 29.5H13.7L12.5 28.3V13.7L13.7 12.5H34.3ZM34 10H14C11.8 10 10 11.8 10 14V28C10 30.2 11.8 32 14 32H22L29.5 38H32V32H34C36.2 32 38 30.2 38 28V14C38 11.8 36.2 10 34 10ZM20.54 23.4609H17.72C17.0351 23.4609 16.48 24.0161 16.48 24.7009V24.7209C16.48 25.4058 17.0351 25.9609 17.72 25.9609H20.54C21.2248 25.9609 21.78 25.4058 21.78 24.7209V24.7009C21.78 24.0161 21.2248 23.4609 20.54 23.4609ZM25.0203 23.4609H30.2803C30.9651 23.4609 31.5203 24.0161 31.5203 24.7009V24.7209C31.5203 25.4058 30.9651 25.9609 30.2803 25.9609H25.0203C24.3354 25.9609 23.7803 25.4058 23.7803 24.7209V24.7009C23.7803 24.0161 24.3354 23.4609 25.0203 23.4609ZM30.2797 17.9609H27.4597C26.7749 17.9609 26.2197 18.5161 26.2197 19.2009V19.2209C26.2197 19.9058 26.7749 20.4609 27.4597 20.4609H30.2797C30.9646 20.4609 31.5197 19.9058 31.5197 19.2209V19.2009C31.5197 18.5161 30.9646 17.9609 30.2797 17.9609ZM17.72 17.9609H22.98C23.6648 17.9609 24.22 18.5161 24.22 19.2009V19.2209C24.22 19.9058 23.6648 20.4609 22.98 20.4609H17.72C17.0351 20.4609 16.48 19.9058 16.48 19.2209V19.2009C16.48 18.5161 17.0351 17.9609 17.72 17.9609Z" fill="context-stroke"/>
</g>
<defs>
<clipPath id="clip0_11642_10089">
<rect width="48" height="48"/>
</clipPath>
</defs>
</svg>