<!-- This Source Code Form is subject to the terms of the Mozilla Public
   - License, v. 2.0. If a copy of the MPL was not distributed with this
   - file, You can obtain one at https://mozilla.org/MPL/2.0/. -->
<svg width="48" height="48" viewBox="0 0 48 48" fill="none" xmlns="http://www.w3.org/2000/svg">
<g clip-path="url(#clip0_11642_10089)">
<path d="M48 24C48 37.2548 37.2548 48 24 48C10.7452 48 0 37.2548 0 24C0 10.7452 10.7452 0 24 0C37.2548 0 48 10.7452 48 24Z" fill="context-fill"/>
<path fill-rule="evenodd" clip-rule="evenodd" d="M20 9C17.7916 9 16 10.7916 16 13V26H14C10.6856 26 8 28.6856 8 32C8 35.3144 10.6856 38 14 38C15.8856 38 17.5698 37.1285 18.6668 35.7706L19 35.3582V19H37.0011L37.0024 26H35C31.6856 26 29 28.6856 29 32C29 35.3144 31.6856 38 35 38C36.8892 38 38.5727 37.1253 39.6706 35.7669L40.0041 35.3543L40 12.9997C39.9999 10.7914 38.2083 9 36 9H20ZM37.0005 16L37 13.0003C37 12.4487 36.5516 12 36 12H20C19.4484 12 19 12.4484 19 13V16H37.0005ZM14 29H16V34.2362C15.4689 34.7123 14.7686 35 14 35C12.3424 35 11 33.6576 11 32C11 30.3424 12.3424 29 14 29ZM35 29H37.0029L37.0039 34.2325C36.4708 34.7114 35.7695 35 35 35C33.3424 35 32 33.6576 32 32C32 30.3424 33.3424 29 35 29Z" fill="context-stroke"/>
</g>
<defs>
<clipPath id="clip0_11642_10089">
<rect width="48" height="48"/>
</clipPath>
</defs>
</svg>