<!-- This Source Code Form is subject to the terms of the Mozilla Public
   - License, v. 2.0. If a copy of the MPL was not distributed with this
   - file, You can obtain one at https://mozilla.org/MPL/2.0/. -->
<svg width="48" height="48" viewBox="0 0 48 48" fill="none" xmlns="http://www.w3.org/2000/svg">
<g clip-path="url(#clip0_11642_10089)">
<path d="M48 24C48 37.2548 37.2548 48 24 48C10.7452 48 0 37.2548 0 24C0 10.7452 10.7452 0 24 0C37.2548 0 48 10.7452 48 24Z" fill="context-fill"/>
<path d="M32 13C32 15.2091 30.6569 17 29 17C27.3431 17 26 15.2091 26 13C26 10.7909 27.3431 9 29 9C30.6569 9 32 10.7909 32 13Z" fill="context-stroke"/>
<path fill-rule="evenodd" clip-rule="evenodd" d="M17.36 38C14.4 38 11.98 35.52 11.98 32.5C11.98 31.04 12.54 29.66 13.54 28.62L14.74 27.38C16.4 25.66 17.74 23.68 18.72 21.46C19.66 19.36 21.72 18 23.98 18C26.24 18 28.3 19.36 29.24 21.46C30.22 23.66 31.56 25.66 33.22 27.38L34.42 28.62C35.42 29.66 35.98 31.04 35.98 32.5C35.98 35.54 33.56 38 30.6 38H17.36ZM24 21C22.92 21 21.94 21.66 21.48 22.68C20.36 25.2 18.82 27.48 16.92 29.46L15.72 30.7C15.26 31.16 15 31.82 15 32.48C15 33.86 16.06 34.98 17.38 34.98H30.64C31.94 34.98 33.02 33.86 33.02 32.48C33.02 31.82 32.76 31.16 32.3 30.7L31.1 29.46C29.2 27.5 27.66 25.22 26.54 22.68C26.08 21.66 25.1 21 24.02 21H24Z" fill="context-stroke"/>
<path d="M37 26C38.6569 26 40 24.2091 40 22C40 19.7909 38.6569 18 37 18C35.3431 18 34 19.7909 34 22C34 24.2091 35.3431 26 37 26Z" fill="context-stroke"/>
<path d="M19 17C20.6569 17 22 15.2091 22 13C22 10.7909 20.6569 9 19 9C17.3431 9 16 10.7909 16 13C16 15.2091 17.3431 17 19 17Z" fill="context-stroke"/>
<path d="M14 22C14 24.2091 12.6569 26 11 26C9.34315 26 8 24.2091 8 22C8 19.7909 9.34315 18 11 18C12.6569 18 14 19.7909 14 22Z" fill="context-stroke"/>
</g>
<defs>
<clipPath id="clip0_11642_10089">
<rect width="48" height="48"/>
</clipPath>
</defs>
</svg>