<!-- This Source Code Form is subject to the terms of the Mozilla Public
   - License, v. 2.0. If a copy of the MPL was not distributed with this
   - file, You can obtain one at https://mozilla.org/MPL/2.0/. -->
<svg width="48" height="48" viewBox="0 0 48 48" fill="none" xmlns="http://www.w3.org/2000/svg">
<g clip-path="url(#clip0_11642_10092)">
<path d="M48 24C48 37.2548 37.2548 48 24 48C10.7452 48 0 37.2548 0 24C0 10.7452 10.7452 0 24 0C37.2548 0 48 10.7452 48 24Z" fill="context-fill"/>
<path fill-rule="evenodd" clip-rule="evenodd" d="M24 9.7244C22.9974 8.66252 21.5763 8 20 8H19.5C16.4616 8 14 10.4616 14 13.5C14 14.4003 14.2161 15.25 14.5994 16H13C10.7916 16 9 17.7916 9 20V22C9 23.48 9.80457 24.7727 11 25.4645V36C11 38.2084 12.7916 40 15 40H33C35.2084 40 37 38.2084 37 36V25.4645C38.1954 24.7727 39 23.48 39 22V20C39 17.7916 37.2084 16 35 16H33.4006C33.7839 15.25 34 14.4003 34 13.5C34 10.4616 31.5384 8 28.5 8H28C26.4237 8 25.0026 8.66252 24 9.7244ZM19.5 11C18.1184 11 17 12.1184 17 13.5C17 14.8816 18.1184 16 19.5 16H22.5V13.5C22.5 12.1184 21.3816 11 20 11H19.5ZM25.5 19V23H35C35.5516 23 36 22.5516 36 22V20C36 19.4484 35.5516 19 35 19H25.5ZM28.5 16C29.8816 16 31 14.8816 31 13.5C31 12.1184 29.8816 11 28.5 11H28C26.6184 11 25.5 12.1184 25.5 13.5V16H28.5ZM13 19H22.5V23H13C12.4484 23 12 22.5516 12 22V20C12 19.4484 12.4484 19 13 19ZM25.5 26H34V36C34 36.5516 33.5516 37 33 37H25.5V26ZM22.5 26V37H15C14.4484 37 14 36.5516 14 36V26H22.5Z" fill="context-stroke"/>
</g>
<defs>
<clipPath id="clip0_11642_10092">
<rect width="48" height="48"/>
</clipPath>
</defs>
</svg> 