<!-- This Source Code Form is subject to the terms of the Mozilla Public
   - License, v. 2.0. If a copy of the MPL was not distributed with this
   - file, You can obtain one at https://mozilla.org/MPL/2.0/. -->
<svg width="48" height="48" viewBox="0 0 48 48" fill="none" xmlns="http://www.w3.org/2000/svg">
<g clip-path="url(#clip0_11642_10089)">
<path d="M48 24C48 37.2548 37.2548 48 24 48C10.7452 48 0 37.2548 0 24C0 10.7452 10.7452 0 24 0C37.2548 0 48 10.7452 48 24Z" fill="context-fill"/>
<path d="M18 19.9996C19.1046 19.9996 20 20.8951 20 21.9996C20 23.1042 19.1046 23.9996 18 23.9996C16.8954 23.9996 16 23.1042 16 21.9996C16 20.8951 16.8954 19.9996 18 19.9996Z" fill="context-stroke"/>
<path d="M26 17.9996C26 16.8951 25.1046 15.9996 24 15.9996C22.8954 15.9996 22 16.8951 22 17.9996C22 19.1042 22.8954 19.9996 24 19.9996C25.1046 19.9996 26 19.1042 26 17.9996Z" fill="context-stroke"/>
<path d="M30 19.9996C31.1046 19.9996 32 20.8951 32 21.9996C32 23.1042 31.1046 23.9996 30 23.9996C28.8954 23.9996 28 23.1042 28 21.9996C28 20.8951 28.8954 19.9996 30 19.9996Z" fill="context-stroke"/>
<path fill-rule="evenodd" clip-rule="evenodd" d="M23.9998 38.9997H25.0598C26.4998 38.9997 27.8198 38.2597 28.5398 36.9997C29.2598 35.7397 29.2598 34.2397 28.5398 32.9797C28.2798 32.5197 28.4598 32.1197 28.5398 31.9597C28.6198 31.7997 28.8798 31.4397 29.4198 31.4397H31.4798C33.4998 31.4397 35.3998 30.6397 36.8198 29.1997C38.2598 27.7397 39.0198 25.8197 38.9998 23.7797C38.9398 19.3797 36.9598 15.2397 33.5598 12.4197C30.1398 9.61966 25.6598 8.45966 21.2598 9.23966C14.8998 10.3797 9.89978 15.6797 9.09978 22.1197C8.57978 26.4197 9.91978 30.7197 12.7598 33.9397C15.6198 37.1597 19.6998 38.9997 23.9998 38.9997ZM21.7798 12.1997C22.5398 12.0597 23.2798 11.9997 24.0198 11.9997L23.9798 12.0197C26.7798 12.0197 29.4198 12.9597 31.5998 14.7597C34.3198 16.9997 35.9198 20.3197 35.9598 23.8397C35.9598 25.0597 35.4998 26.2197 34.6398 27.0997C33.7798 27.9597 32.6598 28.4397 31.4398 28.4397H29.3798C27.9398 28.4397 26.6198 29.1797 25.8998 30.4397C25.1798 31.6997 25.1798 33.1997 25.8998 34.4597C26.1598 34.9197 25.9798 35.3197 25.8998 35.4797C25.8198 35.6397 25.5598 35.9997 25.0198 35.9997H23.9798C20.5598 35.9997 17.2798 34.5397 14.9998 31.9597C12.6998 29.3597 11.6598 25.9997 12.0798 22.4997C12.7198 17.3397 16.6998 13.0997 21.7798 12.1997Z" fill="context-stroke"/>
</g>
<defs>
<clipPath id="clip0_11642_10089">
<rect width="48" height="48"/>
</clipPath>
</defs>
</svg> 