<!-- This Source Code Form is subject to the terms of the Mozilla Public
   - License, v. 2.0. If a copy of the MPL was not distributed with this
   - file, You can obtain one at https://mozilla.org/MPL/2.0/. -->
<svg width="48" height="48" viewBox="0 0 48 48" fill="none" xmlns="http://www.w3.org/2000/svg">
<g clip-path="url(#clip0_11642_10086)">
<path d="M48 24C48 37.2548 37.2548 48 24 48C10.7452 48 0 37.2548 0 24C0 10.7452 10.7452 0 24 0C37.2548 0 48 10.7452 48 24Z" fill="context-fill"/>
<path fill-rule="evenodd" clip-rule="evenodd" d="M36.2854 11.7142C35.3332 10.7619 33.7869 10.7619 32.8347 11.7142L29.3447 15.2042C28.9658 15.5831 28.4135 15.7311 27.8959 15.5924L17.7366 12.8711C17.7362 12.871 17.737 12.8712 17.7366 12.8711C17.4017 12.7825 17.0467 12.8782 16.8047 13.1202L14.8219 15.103L23.8462 17.5206C24.3639 17.6593 24.7682 18.0636 24.9069 18.5812C25.0456 19.0989 24.8976 19.6512 24.5187 20.0302L18.2087 26.3402C17.8825 26.6664 17.4243 26.8243 16.9664 26.7685L13.3479 26.327L12.2738 27.4011L17.8007 29.2532C18.2467 29.4027 18.5968 29.7528 18.7463 30.1989L20.5987 35.7265L21.6726 34.6533L21.2311 31.0331C21.1752 30.5753 21.3331 30.1172 21.6592 29.791L27.9692 23.479C28.3481 23.1 28.9005 22.9519 29.4182 23.0906C29.9359 23.2293 30.3403 23.6337 30.479 24.1514L32.8967 33.1775L34.8794 31.1948C35.1235 30.9507 35.2179 30.5968 35.1292 30.2661L32.4071 20.1036C32.2685 19.586 32.4165 19.0337 32.7954 18.6548L36.2854 15.1648C37.2376 14.2126 37.2376 12.6664 36.2854 11.7142ZM30.7134 9.59284C32.8372 7.46905 36.2829 7.46905 38.4067 9.59284C40.5305 11.7166 40.5305 15.1624 38.4067 17.2862L35.529 20.1638L38.0268 29.4889C38.0269 29.4891 38.0268 29.4887 38.0268 29.4889C38.3939 30.8581 38.0004 32.3164 37.0007 33.3162L33.1807 37.1362C32.8017 37.5151 32.2494 37.6631 31.7317 37.5244C31.2141 37.3856 30.8098 36.9813 30.6711 36.4636L28.2535 27.4379L24.2975 31.3952L24.739 35.0159C24.7949 35.474 24.6368 35.9323 24.3104 36.2585L21.0064 39.5605C20.639 39.9276 20.1079 40.0786 19.6024 39.9596C19.0968 39.8406 18.6888 39.4686 18.5238 38.9761L16.1391 31.8604L9.0234 29.4758C8.53088 29.3107 8.15881 28.9026 8.03988 28.397C7.92094 27.8913 8.07207 27.3601 8.43937 26.9928L11.7434 23.6888C12.0696 23.3626 12.5278 23.2047 12.9857 23.2605L16.6042 23.702L20.5602 19.746L11.5359 17.3284C11.0182 17.1897 10.6139 16.7854 10.4751 16.2678C10.3364 15.7501 10.4844 15.1978 10.8634 14.8188L14.6834 10.9988C15.6851 9.99709 17.1427 9.60899 18.5075 9.97187L18.5101 9.97258L27.8357 12.4705L30.7134 9.59284Z" fill="context-stroke"/>
</g>
<defs>
<clipPath id="clip0_11642_10086">
<rect width="48" height="48"/>
</clipPath>
</defs>
</svg> 