<!-- This Source Code Form is subject to the terms of the Mozilla Public
   - License, v. 2.0. If a copy of the MPL was not distributed with this
   - file, You can obtain one at https://mozilla.org/MPL/2.0/. -->
<svg width="48" height="48" viewBox="0 0 48 48" fill="none" xmlns="http://www.w3.org/2000/svg">
<g clip-path="url(#clip0_11642_10089)">
<path d="M48 24C48 37.2548 37.2548 48 24 48C10.7452 48 0 37.2548 0 24C0 10.7452 10.7452 0 24 0C37.2548 0 48 10.7452 48 24Z" fill="context-fill"/>
<path fill-rule="evenodd" clip-rule="evenodd" d="M24.0001 13.4875L21.7516 19.1912C21.2891 20.3608 20.3632 21.2875 19.1936 21.75L13.4886 23.999L19.1922 26.2476C20.3618 26.71 21.2885 27.6359 21.751 28.8055L24.0001 34.5106L26.2486 28.8069C26.7111 27.6373 27.6369 26.7106 28.8065 26.2481L34.5116 23.999L28.8079 21.7505C27.6383 21.2881 26.7116 20.3622 26.2492 19.1926L24.0001 13.4875ZM21.4729 11.718C22.3787 9.42471 25.6215 9.42471 26.5272 11.718L29.039 18.0895C29.0391 18.0898 29.0389 18.0892 29.039 18.0895C29.1966 18.4873 29.5112 18.8024 29.909 18.9599C29.9092 18.96 29.9088 18.9598 29.909 18.9599L36.2802 21.4716C38.5735 22.3773 38.5744 25.6204 36.2811 26.5262L29.9096 29.038C29.9093 29.0381 29.9099 29.0378 29.9096 29.038C29.512 29.1955 29.1969 29.51 29.0393 29.9077C29.0392 29.908 29.0395 29.9074 29.0393 29.9077L26.5276 36.2792C25.6218 38.5725 22.3787 38.5734 21.4729 36.28L18.9612 29.9086C18.9611 29.9084 18.9613 29.9088 18.9612 29.9086C18.8037 29.5108 18.4892 29.1959 18.0914 29.0383C18.0911 29.0382 18.0917 29.0384 18.0914 29.0383L11.7199 26.5265C9.42661 25.6208 9.42574 22.3776 11.7191 21.4719L18.0905 18.9601C18.0907 18.9601 18.0903 18.9602 18.0905 18.9601C18.4884 18.8026 18.8034 18.488 18.9609 18.0901C18.961 18.0899 18.9608 18.0903 18.9609 18.0901L21.4729 11.718Z" fill="context-stroke"/>
</g>
<defs>
<clipPath id="clip0_11642_10089">
<rect width="48" height="48"/>
</clipPath>
</defs>
</svg> 