<!-- This Source Code Form is subject to the terms of the Mozilla Public
   - License, v. 2.0. If a copy of the MPL was not distributed with this
   - file, You can obtain one at https://mozilla.org/MPL/2.0/. -->
<svg width="48" height="48" viewBox="0 0 48 48" fill="none" xmlns="http://www.w3.org/2000/svg">
<path d="M48 24C48 37.2548 37.2548 48 24 48C10.7452 48 0 37.2548 0 24C0 10.7452 10.7452 0 24 0C37.2548 0 48 10.7452 48 24Z" fill="context-fill"/>
<g clip-path="url(#clip0_11642_10117)">
<path fill-rule="evenodd" clip-rule="evenodd" d="M23.3739 11.8376C23.3739 11.8378 23.374 11.8374 23.3739 11.8376L20.4719 19.1279C20.272 19.63 19.801 19.9722 19.2617 20.0072L11.4317 20.5143C10.8263 20.5541 10.5789 21.3145 11.0462 21.7025L17.0832 26.7154C17.499 27.0607 17.6789 27.6144 17.5454 28.1381L15.6079 35.7427C15.6079 35.7428 15.6079 35.7427 15.6079 35.7427C15.4576 36.3337 16.1061 36.8018 16.6182 36.478L23.2519 32.2843C23.7088 31.9955 24.2912 31.9955 24.7481 32.2843L31.381 36.4775C31.381 36.4775 31.3809 36.4774 31.381 36.4775C31.8954 36.8019 32.542 36.3314 32.3921 35.7427L30.4545 28.1381C30.3211 27.6144 30.501 27.0607 30.9168 26.7154L36.9536 21.7026C37.4201 21.3153 37.1752 20.5542 36.5671 20.5144C36.567 20.5143 36.5672 20.5144 36.5671 20.5144L28.7367 20.0072C28.1974 19.9722 27.7263 19.63 27.5265 19.1279L24.6241 11.8367C24.4001 11.2738 23.6005 11.2711 23.3739 11.8376ZM27.2255 10.8011C26.0639 7.88262 21.9358 7.88571 20.7732 10.8002L18.1977 17.2702L11.2503 17.7202C8.11841 17.924 6.84204 21.8512 9.25761 23.8568C9.25757 23.8567 9.25765 23.8568 9.25761 23.8568L14.6137 28.3043L12.8945 35.0516C12.1202 38.0925 15.4586 40.5239 18.1145 38.8446C18.1144 38.8447 18.1145 38.8446 18.1145 38.8446L24 35.124L29.8855 38.8446C32.539 40.5199 35.8804 38.095 35.1055 35.0518L33.3863 28.3043L38.7422 23.8569C38.7422 23.8569 38.7423 23.8568 38.7422 23.8569C41.1587 21.8506 39.8809 17.9239 36.7484 17.7202L29.8007 17.2702L27.2255 10.8011C27.2255 10.8011 27.2255 10.8011 27.2255 10.8011Z" fill="context-stroke"/>
</g>
<defs>
<clipPath id="clip0_11642_10117">
<rect width="32" height="32" transform="translate(8 8)"/>
</clipPath>
</defs>
</svg>
