<!-- This Source Code Form is subject to the terms of the Mozilla Public
   - License, v. 2.0. If a copy of the MPL was not distributed with this
   - file, You can obtain one at https://mozilla.org/MPL/2.0/. -->
<svg width="48" height="48" viewBox="0 0 48 48" fill="none" xmlns="http://www.w3.org/2000/svg">
<g clip-path="url(#clip0_11642_10089)">
<path d="M48 24C48 37.2548 37.2548 48 24 48C10.7452 48 0 37.2548 0 24C0 10.7452 10.7452 0 24 0C37.2548 0 48 10.7452 48 24Z" fill="context-fill"/>
<path d="M31 19H27V23H31V19Z" fill="context-stroke"/>
<path d="M20.2598 18H17.7598V19.76H16V22.26H17.7598V24H20.2598V22.26H22V19.76H20.2598V18Z" fill="context-stroke"/>
<path fill-rule="evenodd" clip-rule="evenodd" d="M35.0001 35C33.2801 35 31.5801 34.1 30.6601 32.5L29.2401 30H18.7401L17.3201 32.5C15.9401 34.88 12.8801 35.7 10.4801 34.34C8.4801 33.16 7.5201 30.7 8.2401 28.5L11.9401 14.94C12.4201 13.2 14.0001 12 15.8001 12H32.2001C34.0001 12 35.5801 13.2 36.0601 14.94L39.8001 28.58C40.4801 30.78 39.5401 33.16 37.5001 34.34C36.7201 34.8 35.8601 35 35.0001 35ZM17.9001 27H30.1201C30.6601 27 31.1601 27.3 31.4201 27.76L33.2601 31C33.8001 31.94 35.0201 32.26 35.9801 31.72C36.8001 31.26 37.1601 30.3 36.9001 29.4L33.1401 15.72C33.0201 15.28 32.6201 14.98 32.1801 14.98H15.8001C15.3601 14.98 14.9601 15.28 14.8401 15.72L11.1001 29.32C10.8001 30.26 11.1801 31.24 12.0001 31.72C12.9601 32.28 14.1801 31.94 14.7401 31L16.6001 27.76C16.8601 27.3 17.3601 27 17.9001 27Z" fill="context-stroke"/>
</g>
<defs>
<clipPath id="clip0_11642_10089">
<rect width="48" height="48"/>
</clipPath>
</defs>
</svg>