<!-- This Source Code Form is subject to the terms of the Mozilla Public
   - License, v. 2.0. If a copy of the MPL was not distributed with this
   - file, You can obtain one at https://mozilla.org/MPL/2.0/. -->
<svg width="60" height="60" viewBox="0 0 60 60" fill="none" xmlns="http://www.w3.org/2000/svg">
<path d="M-1.82496e-06 30C-1.87822e-06 46.5685 13.4315 60 30 60C46.5685 60 60 46.5685 60 30C60 13.4315 46.5685 4.08224e-08 30 9.11794e-08C13.4315 1.41536e-07 -1.77171e-06 13.4315 -1.82496e-06 30Z" fill="context-fill"/>
<path fill-rule="evenodd" clip-rule="evenodd" d="M22 14.5C22 12.0146 24.0146 10 26.5 10H33.5C35.9854 10 38 12.0146 38 14.5V18H45.5C47.9854 18 50 20.0146 50 22.5V42.5C50 44.9854 47.9854 47 45.5 47H14.5C12.0146 47 10 44.9854 10 42.5V22.5C10 20.0146 12.0146 18 14.5 18H22V14.5ZM35.25 14.5V18H24.75V14.5C24.75 13.5334 25.5334 12.75 26.5 12.75H33.5C34.4666 12.75 35.25 13.5334 35.25 14.5ZM12.75 22.5C12.75 21.5334 13.5334 20.75 14.5 20.75H19.25V44.25H14.5C13.5334 44.25 12.75 43.4666 12.75 42.5V22.5ZM40.75 44.25H45.5C46.4666 44.25 47.25 43.4666 47.25 42.5V22.5C47.25 21.5334 46.4666 20.75 45.5 20.75H40.75V44.25ZM38 44.25V20.75H22V44.25H38Z" fill="context-stroke"/>
</svg>
