<!-- This Source Code Form is subject to the terms of the Mozilla Public
   - License, v. 2.0. If a copy of the MPL was not distributed with this
   - file, You can obtain one at https://mozilla.org/MPL/2.0/. -->
<svg width="60" height="60" viewBox="0 0 60 60" fill="none" xmlns="http://www.w3.org/2000/svg">
<path d="M-1.82496e-06 30C-1.87822e-06 46.5685 13.4315 60 30 60C46.5685 60 60 46.5685 60 30C60 13.4315 46.5685 4.08224e-08 30 9.11794e-08C13.4315 1.41536e-07 -1.77171e-06 13.4315 -1.82496e-06 30Z" fill="context-fill"/>
<path d="M36 22.75H22V20H36V22.75Z" fill="context-stroke"/>
<path d="M22.0002 30.001L36.0002 30L36 27.25L22 27.251L22.0002 30.001Z" fill="context-stroke"/>
<path fill-rule="evenodd" clip-rule="evenodd" d="M13 43.5C13 43.4582 13.0005 43.4165 13.0015 43.375H13V16.5C13 14.0146 15.0146 12 17.5 12H40.25C42.7354 12 44.75 14.0146 44.75 16.5V36.5C44.75 37.9497 44.0645 39.2393 43 40.0623V46H45V48.75H18.25C15.3506 48.75 13 46.3994 13 43.5ZM15.75 16.5C15.75 15.5334 16.5334 14.75 17.5 14.75H40.25C41.2166 14.75 42 15.5334 42 16.5V36.5C42 37.4666 41.2166 38.25 40.25 38.25H18.25C17.3449 38.25 16.4933 38.4791 15.75 38.8824V16.5ZM40.25 41H18.25C16.8694 41 15.75 42.1194 15.75 43.5C15.75 44.8806 16.8694 46 18.25 46H40.25V41Z" fill="context-stroke"/>
</svg>
