<!-- This Source Code Form is subject to the terms of the Mozilla Public
   - License, v. 2.0. If a copy of the MPL was not distributed with this
   - file, You can obtain one at https://mozilla.org/MPL/2.0/. -->
<svg width="60" height="60" viewBox="0 0 60 60" fill="none" xmlns="http://www.w3.org/2000/svg">
<path d="M-1.82496e-06 30C-1.87822e-06 46.5685 13.4315 60 30 60C46.5685 60 60 46.5685 60 30C60 13.4315 46.5685 4.08224e-08 30 9.11794e-08C13.4315 1.41536e-07 -1.77171e-06 13.4315 -1.82496e-06 30Z" fill="context-fill"/>
<g clip-path="url(#clip0_11642_9967)">
<path d="M27.5 27.5H32.5V32.5H27.5V27.5Z" fill="context-stroke"/>
<path fill-rule="evenodd" clip-rule="evenodd" d="M30 10C25.3045 10 21.4208 13.3311 20.5086 17.7439C20.2533 17.7202 19.992 17.707 19.725 17.707C14.3546 17.707 10.001 22.0606 10.001 27.431C10.001 30.6639 11.5905 33.4952 14.0027 35.2529C13.1062 36.7091 12.57 38.4209 12.57 40.276C12.57 45.6464 16.9236 50 22.294 50C25.4366 50 28.2255 48.5085 30.001 46.1996C31.7764 48.5085 34.5654 50 37.708 50C43.0784 50 47.432 45.6464 47.432 40.276C47.432 38.4209 46.8957 36.709 45.9991 35.2527C48.4106 33.495 50 30.6638 50 27.431C50 22.0606 45.6464 17.707 40.276 17.707C40.0085 17.707 39.7472 17.7203 39.4921 17.7441C38.5793 13.3313 34.6956 10 30 10ZM23.0635 19.4026C23.2351 15.697 26.2671 12.75 30 12.75C33.7328 12.75 36.7651 15.697 36.9375 19.4029C36.9565 19.8128 37.1577 20.1927 37.4859 20.4389C37.8141 20.6852 38.2352 20.7719 38.634 20.6755C39.1971 20.5394 39.7354 20.457 40.276 20.457C44.1276 20.457 47.25 23.5794 47.25 27.431C47.25 30.1412 45.6834 32.4771 43.3944 33.6325C43.0169 33.8231 42.7481 34.1767 42.6655 34.5914C42.5829 35.0061 42.6957 35.4357 42.9713 35.7564C44.0325 36.9908 44.682 38.5559 44.682 40.276C44.682 44.1276 41.5596 47.25 37.708 47.25C34.8087 47.25 32.3219 45.4781 31.2703 42.9525C31.0569 42.4399 30.5562 42.106 30.001 42.106C29.4458 42.106 28.945 42.4399 28.7316 42.9525C27.68 45.4781 25.1932 47.25 22.294 47.25C18.4424 47.25 15.32 44.1276 15.32 40.276C15.32 38.5559 15.9694 36.9908 17.0306 35.7564C17.3063 35.4357 17.4191 35.006 17.3365 34.5913C17.2538 34.1766 16.9849 33.8229 16.6074 33.6324C14.3175 32.477 12.751 30.1411 12.751 27.431C12.751 23.5794 15.8734 20.457 19.725 20.457C20.2657 20.457 20.8049 20.5388 21.3649 20.675C21.764 20.7721 22.1856 20.6857 22.5144 20.4395C22.8431 20.1932 23.0445 19.8129 23.0635 19.4026Z" fill="context-stroke"/>
</g>
<defs>
<clipPath id="clip0_11642_9967">
<rect width="40" height="40" transform="translate(10 10)"/>
</clipPath>
</defs>
</svg>
