<!-- This Source Code Form is subject to the terms of the Mozilla Public
   - License, v. 2.0. If a copy of the MPL was not distributed with this
   - file, You can obtain one at https://mozilla.org/MPL/2.0/. -->
<svg width="60" height="60" viewBox="0 0 60 60" fill="none" xmlns="http://www.w3.org/2000/svg">
<path d="M-1.82496e-06 30C-1.87822e-06 46.5685 13.4315 60 30 60C46.5685 60 60 46.5685 60 30C60 13.4315 46.5685 4.08224e-08 30 9.11794e-08C13.4315 1.41536e-07 -1.77171e-06 13.4315 -1.82496e-06 30Z" fill="context-fill"/>
<g clip-path="url(#clip0_11642_10007)">
<path d="M30.0701 48.3803C29.7101 48.3803 29.3601 48.2403 29.1001 47.9803L13.2001 32.1203C9.62009 28.5603 8.97009 23.0703 11.6201 18.7703C13.6201 15.5203 17.0901 13.6003 20.9001 13.6203C24.6301 13.6403 28.0201 15.5203 30.0001 18.6703C31.9901 15.5303 35.3701 13.6503 39.1001 13.6303C39.1201 13.6303 39.1401 13.6303 39.1601 13.6303C42.9501 13.6303 46.4001 15.5603 48.3901 18.7903C51.0301 23.0803 50.3901 28.5603 46.8301 32.1303L31.0301 47.9803C30.7701 48.2403 30.4201 48.3803 30.0601 48.3803H30.0701ZM20.8401 16.3703C18.0101 16.3703 15.4401 17.8103 13.9601 20.2203C11.9901 23.4303 12.4701 27.5203 15.1401 30.1803L30.0701 45.0703L44.9001 30.1903C47.5501 27.5303 48.0301 23.4303 46.0601 20.2303C44.5601 17.8003 42.0201 16.3503 39.1201 16.3803C36.2701 16.4003 33.6901 17.8703 32.2301 20.3103L31.1901 22.0503C30.6901 22.8803 29.3301 22.8803 28.8301 22.0503L27.7801 20.3003C26.3201 17.8603 23.7401 16.3903 20.8901 16.3803H20.8401V16.3703Z" fill="context-stroke"/>
</g>
<defs>
<clipPath id="clip0_11642_10007">
<rect width="40.02" height="40" transform="translate(10 11)"/>
</clipPath>
</defs>
</svg>
