<!-- This Source Code Form is subject to the terms of the Mozilla Public
   - License, v. 2.0. If a copy of the MPL was not distributed with this
   - file, You can obtain one at https://mozilla.org/MPL/2.0/. -->
<svg width="60" height="60" viewBox="0 0 60 60" fill="none" xmlns="http://www.w3.org/2000/svg">
<path d="M-1.82496e-06 30C-1.87822e-06 46.5685 13.4315 60 30 60C46.5685 60 60 46.5685 60 30C60 13.4315 46.5685 4.08224e-08 30 9.11794e-08C13.4315 1.41536e-07 -1.77171e-06 13.4315 -1.82496e-06 30Z" fill="context-fill"/>
<path fill-rule="evenodd" clip-rule="evenodd" d="M28.8884 14.7634C28.8884 14.7634 28.8884 14.7634 28.8884 14.7634L25.2844 23.8173C25.0881 24.3104 24.6255 24.6466 24.0958 24.6809L14.3718 25.3109C13.2927 25.3807 12.8532 26.7332 13.6851 27.4238L21.1823 33.6489C21.5907 33.988 21.7674 34.5319 21.6363 35.0463L19.2303 44.4892C19.2303 44.4892 19.2303 44.4892 19.2303 44.4892C18.9634 45.537 20.1141 46.3732 21.0282 45.7955C21.0282 45.7955 21.0282 45.7955 21.0282 45.7955L29.2652 40.5885C29.7139 40.3048 30.2859 40.3048 30.7346 40.5885L38.9715 45.7955C38.9716 45.7955 38.9715 45.7955 38.9715 45.7955C39.885 46.3727 41.0356 45.5378 40.7685 44.4892L38.3625 35.0463C38.2314 34.5319 38.4081 33.988 38.8165 33.6489L46.3135 27.4239C47.1454 26.7334 46.7063 25.3807 45.6272 25.3109L35.903 24.6809C35.3733 24.6466 34.9107 24.3104 34.7144 23.8173L31.1104 14.7633C30.7113 13.7598 29.2888 13.758 28.8884 14.7634ZM33.6654 13.7462C32.3463 10.4301 27.653 10.4318 26.3334 13.7461L23.0508 21.9928L14.1942 22.5666C14.1942 22.5666 14.1941 22.5666 14.1942 22.5666C10.6334 22.797 9.18264 27.2604 11.9287 29.5398L18.7569 35.2094L16.5655 43.8103C15.6844 47.2684 19.4816 50.0263 22.4975 48.1201L29.9999 43.3775L37.5022 48.12C40.5188 50.0267 44.3142 47.2677 43.4333 43.8103L41.2419 35.2094L48.0701 29.5398C48.0701 29.5398 48.0702 29.5397 48.0701 29.5398C50.8159 27.2603 49.3655 22.797 45.8048 22.5666C45.8049 22.5666 45.8047 22.5666 45.8048 22.5666L36.948 21.9928L33.6654 13.7462C33.6655 13.7464 33.6654 13.7461 33.6654 13.7462Z" fill="context-stroke"/>
</svg>
