<!-- This Source Code Form is subject to the terms of the Mozilla Public
   - License, v. 2.0. If a copy of the MPL was not distributed with this
   - file, You can obtain one at https://mozilla.org/MPL/2.0/. -->
<svg width="80" height="80" viewBox="0 0 80 80" fill="none" xmlns="http://www.w3.org/2000/svg">
<path d="M4.67475e-07 40C3.96467e-07 62.0914 17.9086 80 40 80C62.0914 80 80 62.0914 80 40C80 17.9086 62.0914 5.44299e-08 40 1.21573e-07C17.9086 1.88715e-07 5.38483e-07 17.9086 4.67475e-07 40Z" fill="context-fill"/>
<path fill-rule="evenodd" clip-rule="evenodd" d="M32 24.5C32 22.0146 34.0146 20 36.5 20H43.5C45.9854 20 48 22.0146 48 24.5V28H55.5C57.9854 28 60 30.0146 60 32.5V52.5C60 54.9854 57.9854 57 55.5 57H24.5C22.0146 57 20 54.9854 20 52.5V32.5C20 30.0146 22.0146 28 24.5 28H32V24.5ZM45.25 24.5V28H34.75V24.5C34.75 23.5334 35.5334 22.75 36.5 22.75H43.5C44.4666 22.75 45.25 23.5334 45.25 24.5ZM22.75 32.5C22.75 31.5334 23.5334 30.75 24.5 30.75H29.25V54.25H24.5C23.5334 54.25 22.75 53.4666 22.75 52.5V32.5ZM50.75 54.25H55.5C56.4666 54.25 57.25 53.4666 57.25 52.5V32.5C57.25 31.5334 56.4666 30.75 55.5 30.75H50.75V54.25ZM48 54.25V30.75H32V54.25H48Z" fill="context-stroke"/>
</svg>
