<!-- This Source Code Form is subject to the terms of the Mozilla Public
   - License, v. 2.0. If a copy of the MPL was not distributed with this
   - file, You can obtain one at https://mozilla.org/MPL/2.0/. -->
<svg width="80" height="80" viewBox="0 0 80 80" fill="none" xmlns="http://www.w3.org/2000/svg">
<g clip-path="url(#clip0_11642_10091)">
<path d="M0 40C-7.1008e-08 62.0914 17.9086 80 40 80C62.0914 80 80 62.0914 80 40C80 17.9086 62.0914 -6.71431e-08 40 0C17.9086 6.7142e-08 7.1008e-08 17.9086 0 40Z" fill="context-fill"/>
<path fill-rule="evenodd" clip-rule="evenodd" d="M22.5 33.375C22.5 30.9595 24.4595 29 26.875 29H31.875C32.9105 29 33.75 29.8395 33.75 30.875V37.75H46.25V30.875C46.25 29.8395 47.0895 29 48.125 29H53.125C55.5405 29 57.5 30.9595 57.5 33.375V37.4375H59.9999V41.8125H57.5V45.875C57.5 48.2905 55.5405 50.25 53.125 50.25H48.125C47.0895 50.25 46.25 49.4105 46.25 48.375V41.5H33.75V48.375C33.75 49.4105 32.9105 50.25 31.875 50.25H26.875C24.4595 50.25 22.5 48.2905 22.5 45.875V41.8125H20V37.4375H22.5V33.375ZM26.875 32.75C26.5305 32.75 26.25 33.0305 26.25 33.375V45.875C26.25 46.2195 26.5305 46.5 26.875 46.5H30V32.75H26.875ZM50 32.75V46.5H53.125C53.4695 46.5 53.75 46.2195 53.75 45.875V33.375C53.75 33.0305 53.4695 32.75 53.125 32.75H50Z" fill="context-stroke"/>
</g>
<defs>
<clipPath id="clip0_11642_10091">
<rect width="80" height="80"/>
</clipPath>
</defs>
</svg>