<!-- This Source Code Form is subject to the terms of the Mozilla Public
   - License, v. 2.0. If a copy of the MPL was not distributed with this
   - file, You can obtain one at https://mozilla.org/MPL/2.0/. -->
<svg width="80" height="80" viewBox="0 0 80 80" fill="none" xmlns="http://www.w3.org/2000/svg">
<g clip-path="url(#clip0_11642_10090)">
<path d="M80 40C80 62.0914 62.0914 80 40 80C17.9086 80 0 62.0914 0 40C0 17.9086 17.9086 0 40 0C62.0914 0 80 17.9086 80 40Z" fill="context-fill"/>
<path fill-rule="evenodd" clip-rule="evenodd" d="M42.0001 28.75H45.6389L46.9786 33.75H33.7506L33.7382 31.875H35.3125C36.52 31.875 37.5 30.895 37.5 29.6875C37.5 28.48 36.52 27.5 35.3125 27.5H28.125C27.78 27.5 27.5 27.78 27.5 28.125V31.25C27.5 31.595 27.78 31.875 28.125 31.875H29.9881L30.0196 36.6286L29.7092 37.2995C29.1574 37.1851 28.5859 37.125 28.0002 37.125C23.3749 37.125 19.6252 40.8746 19.6252 45.5C19.6252 50.1254 23.3749 53.875 28.0002 53.875C32.6256 53.875 36.3752 50.1254 36.3752 45.5C36.3752 42.8007 35.0982 40.3996 33.1154 38.868L33.7485 37.5H47.9834L48.1356 38.0679C45.4551 39.4644 43.6249 42.2685 43.6249 45.5C43.6249 50.1254 47.3745 53.875 51.9999 53.875C56.6253 53.875 60.3749 50.1254 60.3749 45.5C60.3749 40.8746 56.6253 37.125 51.9999 37.125C51.9217 37.125 51.8438 37.1261 51.7661 37.1282L48.8887 26.3897C48.6691 25.57 47.9263 25 47.0776 25H42.0001V28.75ZM49.1507 41.8565L50.464 46.7578L54.0862 45.7872L52.7879 40.9419C54.9669 41.3159 56.6249 43.2143 56.6249 45.5C56.6249 48.0543 54.5542 50.125 51.9999 50.125C49.4456 50.125 47.3749 48.0543 47.3749 45.5C47.3749 44.0204 48.0696 42.7031 49.1507 41.8565ZM25.921 45.485L28.0543 40.8753L28.0002 40.875C25.4459 40.875 23.3752 42.9457 23.3752 45.5C23.3752 48.0543 25.4459 50.125 28.0002 50.125C30.5546 50.125 32.6252 48.0543 32.6252 45.5C32.6252 44.3246 32.1867 43.2515 31.4644 42.4355L29.3243 47.06L25.921 45.485Z" fill="context-stroke"/>
</g>
<defs>
<clipPath id="clip0_11642_10090">
<rect width="80" height="80"/>
</clipPath>
</defs>
</svg>