<!-- This Source Code Form is subject to the terms of the Mozilla Public
   - License, v. 2.0. If a copy of the MPL was not distributed with this
   - file, You can obtain one at https://mozilla.org/MPL/2.0/. -->
<svg width="80" height="80" viewBox="0 0 80 80" fill="none" xmlns="http://www.w3.org/2000/svg">
<g clip-path="url(#clip0_11642_10090)">
<path d="M0 40C-7.1008e-08 62.0914 17.9086 80 40 80C62.0914 80 80 62.0914 80 40C80 17.9086 62.0914 -6.71431e-08 40 0C17.9086 6.7142e-08 7.1008e-08 17.9086 0 40Z" fill="context-fill"/>
<path fill-rule="evenodd" clip-rule="evenodd" d="M27.5 22.5C26.1739 22.5 24.9021 23.0268 23.9645 23.9645C23.0268 24.9021 22.5 26.1739 22.5 27.5V52.5C22.5 53.8261 23.0268 55.0979 23.9645 56.0355C24.9021 56.9732 26.1739 57.5 27.5 57.5H52.5C53.8261 57.5 55.0979 56.9732 56.0355 56.0355C56.9732 55.0979 57.5 53.8261 57.5 52.5V27.5C57.5 26.1739 56.9732 24.9021 56.0355 23.9645C55.0979 23.0268 53.8261 22.5 52.5 22.5H27.5ZM54.375 52.875L52.875 54.375H27.125L25.625 52.875V27.125L27.125 25.625H52.875L54.375 27.125V52.875ZM47.5 50.0005H32.5C31.837 50.0005 31.2011 49.7371 30.7322 49.2683C30.2634 48.7994 30 48.1635 30 47.5005V44.198C29.9998 43.7025 30.1957 43.227 30.545 42.8755L35.875 37.513C36.0486 37.3383 36.255 37.1995 36.4823 37.1045C36.7096 37.0096 36.9534 36.9603 37.1997 36.9596C37.446 36.9589 37.6901 37.0068 37.9179 37.1005C38.1457 37.1941 38.3529 37.3317 38.5275 37.5055L43.8075 42.7605L45.3375 41.318C45.6932 40.9823 46.1659 40.7989 46.6549 40.8068C47.1439 40.8148 47.6104 41.0135 47.955 41.3605L49.455 42.873C49.8043 43.2245 50.0002 43.7 50 44.1955V47.5005C50 48.1635 49.7366 48.7994 49.2678 49.2683C48.7989 49.7371 48.163 50.0005 47.5 50.0005ZM46 32.5H49L50 33.5V36.5L49 37.5H46L45 36.5V33.5L46 32.5Z" fill="context-stroke"/>
</g>
<defs>
<clipPath id="clip0_11642_10090">
<rect width="80" height="80"/>
</clipPath>
</defs>
</svg> 