<!-- This Source Code Form is subject to the terms of the Mozilla Public
   - License, v. 2.0. If a copy of the MPL was not distributed with this
   - file, You can obtain one at https://mozilla.org/MPL/2.0/. -->
<svg width="80" height="80" viewBox="0 0 80 80" fill="none" xmlns="http://www.w3.org/2000/svg">
<g clip-path="url(#clip0_11642_10090)">
<path d="M0 40C-7.1008e-08 62.0914 17.9086 80 40 80C62.0914 80 80 62.0914 80 40C80 17.9086 62.0914 -6.71431e-08 40 0C17.9086 6.7142e-08 7.1008e-08 17.9086 0 40Z" fill="context-fill"/>
<path d="M39.9998 21.666C35.1375 21.666 30.4744 23.5976 27.0362 27.0357C23.598 30.4739 21.6665 35.137 21.6665 39.9993C21.6665 44.8617 23.598 49.5248 27.0362 52.963C30.4744 56.4011 35.1375 58.3327 39.9998 58.3327C44.8621 58.3327 49.5253 56.4011 52.9635 52.963C56.4016 49.5248 58.3332 44.8617 58.3332 39.9993C58.3332 35.137 56.4016 30.4739 52.9635 27.0357C49.5253 23.5976 44.8621 21.666 39.9998 21.666V21.666ZM45.9814 25.9438C48.4913 27.0215 50.6666 28.7519 52.2813 30.9551C53.8959 33.1582 54.8909 35.7537 55.1627 38.4716H49.7141C49.4131 33.9197 47.7678 29.5597 44.9865 25.9438H45.9814ZM40.9727 25.9438C44.2802 29.3213 46.2894 33.7578 46.6463 38.4716H33.3534C33.7103 33.7578 35.7195 29.3213 39.0269 25.9438H40.9727ZM34.0158 25.9438H35.0132C32.233 29.5602 30.5877 33.92 30.2856 38.4716H24.8369C25.1083 35.7538 26.1028 33.1585 27.7171 30.9553C29.3313 28.7521 31.5063 27.0216 34.0158 25.9438V25.9438ZM34.0158 54.0549C31.506 52.9775 29.3307 51.2471 27.7164 49.0439C26.1021 46.8406 25.1078 44.245 24.8369 41.5271H30.2856C30.5866 46.079 32.2319 50.439 35.0132 54.0549H34.0158ZM39.0269 54.0549C35.7195 50.6774 33.7103 46.2409 33.3534 41.5271H46.6438C46.2869 46.2409 44.2777 50.6774 40.9703 54.0549H39.0269ZM45.9838 54.0549H44.9841C47.7663 50.4396 49.4118 46.0792 49.7116 41.5271H55.1603C54.8894 44.2447 53.8953 46.84 52.2815 49.0432C50.6677 51.2464 48.4931 52.9769 45.9838 54.0549V54.0549Z" fill="context-stroke"/>
</g>
<defs>
<clipPath id="clip0_11642_10090">
<rect width="80" height="80"/>
</clipPath>
</defs>
</svg>