<!-- This Source Code Form is subject to the terms of the Mozilla Public
   - License, v. 2.0. If a copy of the MPL was not distributed with this
   - file, You can obtain one at https://mozilla.org/MPL/2.0/. -->
<svg width="80" height="80" viewBox="0 0 80 80" fill="none" xmlns="http://www.w3.org/2000/svg">
<g clip-path="url(#clip0_11642_10090)">
<path d="M0 40C-7.1008e-08 62.0914 17.9086 80 40 80C62.0914 80 80 62.0914 80 40C80 17.9086 62.0914 -6.71431e-08 40 0C17.9086 6.7142e-08 7.1008e-08 17.9086 0 40Z" fill="context-fill"/>
<path fill-rule="evenodd" clip-rule="evenodd" d="M24.3473 30.0193C25.2385 28.4608 26.8943 27.5 28.6875 27.5H51.31C53.1033 27.5 54.7608 28.4587 55.6506 30.02L55.652 30.0224L59.7528 37.1943C60.1725 37.9285 60.0489 38.8528 59.4509 39.4508L41.3259 57.5758C40.5936 58.3081 39.4065 58.3081 38.6742 57.5758L20.5492 39.4508C19.9513 38.8529 19.8276 37.9289 20.2471 37.1947L24.3473 30.0193ZM27.6027 31.8807L25.106 36.25H30.162L33.0191 31.25H28.6875C28.2409 31.25 27.8267 31.4894 27.6027 31.8807ZM45.5192 36.25H34.4811L37.3382 31.25H42.6621L45.5192 36.25ZM49.8383 36.25H54.8931L52.3948 31.8807L52.3931 31.8776C52.1726 31.4902 51.7608 31.25 51.31 31.25H46.9811L49.8383 36.25ZM53.5984 40H41.875V51.7234L53.5984 40ZM38.125 40H26.4017L38.125 51.7233V40Z" fill="context-stroke"/>
</g>
<defs>
<clipPath id="clip0_11642_10090">
<rect width="80" height="80"/>
</clipPath>
</defs>
</svg>