<!-- This Source Code Form is subject to the terms of the Mozilla Public
   - License, v. 2.0. If a copy of the MPL was not distributed with this
   - file, You can obtain one at https://mozilla.org/MPL/2.0/. -->
<svg width="80" height="80" viewBox="0 0 80 80" fill="none" xmlns="http://www.w3.org/2000/svg">
<g clip-path="url(#clip0_11642_10090)">
<path d="M0 40C-7.1008e-08 62.0914 17.9086 80 40 80C62.0914 80 80 62.0914 80 40C80 17.9086 62.0914 -6.71431e-08 40 0C17.9086 6.7142e-08 7.1008e-08 17.9086 0 40Z" fill="context-fill"/>
<path d="M54.9875 55H27.5125C26.1835 54.9987 24.9093 54.4702 23.9696 53.5304C23.0298 52.5907 22.5013 51.3165 22.5 49.9875V27.5125C22.5 24.7475 24.7475 22.5 27.5125 22.5H34.9075C35.5972 22.5006 36.2795 22.6432 36.9117 22.9189C37.544 23.1946 38.1127 23.5975 38.5825 24.1025L41.7325 27.5H54.9875C57.7525 27.5 60 29.7475 60 32.5125V49.9875C59.9987 51.3165 59.4702 52.5907 58.5304 53.5304C57.5907 54.4702 56.3165 54.9987 54.9875 55V55ZM27.125 25.625L25.625 27.125V50.375L27.125 51.875H55.375L56.875 50.375V32.125L55.375 30.625H41.05L39.905 30.125L36.2925 26.2275C36.1153 26.0375 35.9009 25.8859 35.6626 25.7823C35.4244 25.6787 35.1673 25.6251 34.9075 25.625H27.125V25.625Z" fill="context-stroke"/>
</g>
<defs>
<clipPath id="clip0_11642_10090">
<rect width="80" height="80"/>
</clipPath>
</defs>
</svg>