<!-- This Source Code Form is subject to the terms of the Mozilla Public
   - License, v. 2.0. If a copy of the MPL was not distributed with this
   - file, You can obtain one at https://mozilla.org/MPL/2.0/. -->
<svg width="80" height="80" viewBox="0 0 80 80" fill="none" xmlns="http://www.w3.org/2000/svg">
<path d="M4.67475e-07 40C3.96467e-07 62.0914 17.9086 80 40 80C62.0914 80 80 62.0914 80 40C80 17.9086 62.0914 5.44299e-08 40 1.21573e-07C17.9086 1.88715e-07 5.38483e-07 17.9086 4.67475e-07 40Z" fill="context-fill"/>
<g clip-path="url(#clip0_11642_9962)">
<path d="M37.5 37.5H42.5V42.5H37.5V37.5Z" fill="context-stroke"/>
<path fill-rule="evenodd" clip-rule="evenodd" d="M40 20C35.3045 20 31.4208 23.3311 30.5086 27.7439C30.2533 27.7202 29.992 27.707 29.725 27.707C24.3546 27.707 20.001 32.0606 20.001 37.431C20.001 40.6639 21.5905 43.4952 24.0027 45.2529C23.1062 46.7091 22.57 48.4209 22.57 50.276C22.57 55.6464 26.9236 60 32.294 60C35.4366 60 38.2255 58.5085 40.001 56.1996C41.7764 58.5085 44.5654 60 47.708 60C53.0784 60 57.432 55.6464 57.432 50.276C57.432 48.4209 56.8957 46.709 55.9991 45.2527C58.4106 43.495 60 40.6638 60 37.431C60 32.0606 55.6464 27.707 50.276 27.707C50.0085 27.707 49.7472 27.7203 49.4921 27.7441C48.5793 23.3313 44.6956 20 40 20ZM33.0635 29.4026C33.2351 25.697 36.2671 22.75 40 22.75C43.7328 22.75 46.7651 25.697 46.9375 29.4029C46.9565 29.8128 47.1577 30.1927 47.4859 30.4389C47.8141 30.6852 48.2352 30.7719 48.634 30.6755C49.1971 30.5394 49.7354 30.457 50.276 30.457C54.1276 30.457 57.25 33.5794 57.25 37.431C57.25 40.1412 55.6834 42.4771 53.3944 43.6325C53.0169 43.8231 52.7481 44.1767 52.6655 44.5914C52.5829 45.0061 52.6957 45.4357 52.9713 45.7564C54.0325 46.9908 54.682 48.5559 54.682 50.276C54.682 54.1276 51.5596 57.25 47.708 57.25C44.8087 57.25 42.3219 55.4781 41.2703 52.9525C41.0569 52.4399 40.5562 52.106 40.001 52.106C39.4458 52.106 38.945 52.4399 38.7316 52.9525C37.68 55.4781 35.1932 57.25 32.294 57.25C28.4424 57.25 25.32 54.1276 25.32 50.276C25.32 48.5559 25.9694 46.9908 27.0306 45.7564C27.3063 45.4357 27.4191 45.006 27.3365 44.5913C27.2538 44.1766 26.9849 43.8229 26.6074 43.6324C24.3175 42.477 22.751 40.1411 22.751 37.431C22.751 33.5794 25.8734 30.457 29.725 30.457C30.2657 30.457 30.8049 30.5388 31.3649 30.675C31.764 30.7721 32.1856 30.6857 32.5144 30.4395C32.8431 30.1932 33.0445 29.8129 33.0635 29.4026Z" fill="context-stroke"/>
</g>
<defs>
<clipPath id="clip0_11642_9962">
<rect width="40" height="40" transform="translate(20 20)"/>
</clipPath>
</defs>
</svg>
