<!-- This Source Code Form is subject to the terms of the Mozilla Public
   - License, v. 2.0. If a copy of the MPL was not distributed with this
   - file, You can obtain one at https://mozilla.org/MPL/2.0/. -->
<svg width="80" height="80" viewBox="0 0 80 80" fill="none" xmlns="http://www.w3.org/2000/svg">
<g clip-path="url(#clip0_11642_10090)">
<path d="M0 40C-7.1008e-08 62.0914 17.9086 80 40 80C62.0914 80 80 62.0914 80 40C80 17.9086 62.0914 -6.71431e-08 40 0C17.9086 6.7142e-08 7.1008e-08 17.9086 0 40Z" fill="context-fill"/>
<path fill-rule="evenodd" clip-rule="evenodd" d="M46.6165 40.587L48.4909 42.4613L47.0416 43.9106L49.6933 46.5622L60.0008 36.2547L57.3491 33.6031L55.8698 35.0824L53.9618 33.2567L53.3716 30.5649C53.2949 30.2148 53.1194 29.894 52.866 29.6406L48.108 24.8826C43.8711 20.6488 37.0043 20.6481 32.7693 24.8831L31.9768 25.6756C31.5368 26.1156 31.3438 26.7451 31.4615 27.3561C31.5792 27.9671 31.9924 28.4799 32.5643 28.7249L37.2081 30.7142L37.5481 32.4101L21.3692 48.7256L21.3662 48.7286C19.542 50.5561 19.543 53.516 21.3692 55.3422L22.9542 56.9272C24.781 58.754 27.7435 58.7531 29.5709 56.9272L46.1058 40.4593L46.6165 40.587ZM36.7987 26.4592L39.591 27.6554C40.1583 27.8984 40.5697 28.4051 40.691 29.0103L41.3745 32.4192L45.3637 36.4083L48.0299 37.0749C48.3596 37.1573 48.6607 37.3278 48.901 37.5681L51.1425 39.8097L53.2175 37.7347L50.9564 35.5712C50.6872 35.3136 50.5009 34.9818 50.4211 34.6179L49.8262 31.9041L45.4573 27.5352C43.1077 25.1878 39.5233 24.8293 36.7987 26.4592ZM42.4549 38.8028L39.46 35.8079L24.0209 51.3772C23.6581 51.74 23.6581 52.3278 24.0209 52.6906L25.6059 54.2756C25.9686 54.6383 26.5564 54.6383 26.9192 54.2756L42.4549 38.8028Z" fill="context-stroke"/>
</g>
<defs>
<clipPath id="clip0_11642_10090">
<rect width="80" height="80"/>
</clipPath>
</defs>
</svg> 