<!-- This Source Code Form is subject to the terms of the Mozilla Public
   - License, v. 2.0. If a copy of the MPL was not distributed with this
   - file, You can obtain one at https://mozilla.org/MPL/2.0/. -->
<svg width="80" height="80" viewBox="0 0 80 80" fill="none" xmlns="http://www.w3.org/2000/svg">
<g clip-path="url(#clip0_11642_10090)">
<path d="M0 40C-7.1008e-08 62.0914 17.9086 80 40 80C62.0914 80 80 62.0914 80 40C80 17.9086 62.0914 -6.71431e-08 40 0C17.9086 6.7142e-08 7.1008e-08 17.9086 0 40Z" fill="context-fill"/>
<path fill-rule="evenodd" clip-rule="evenodd" d="M55.375 39.75C55.375 31.135 48.365 24.125 39.75 24.125C31.135 24.125 24.125 31.135 24.125 39.75C24.125 48.365 31.135 55.375 39.75 55.375C48.365 55.375 55.375 48.365 55.375 39.75ZM32.5747 22.4273C34.8495 21.485 37.2877 21 39.75 21C44.7228 21 49.4919 22.9754 53.0083 26.4917C56.5246 30.0081 58.5 34.7772 58.5 39.75C58.5 44.7228 56.5246 49.4919 53.0083 53.0083C49.4919 56.5246 44.7228 58.5 39.75 58.5C37.2877 58.5 34.8495 58.015 32.5747 57.0727C30.2998 56.1305 28.2328 54.7494 26.4917 53.0083C24.7506 51.2672 23.3695 49.2002 22.4273 46.9253C21.485 44.6505 21 42.2123 21 39.75C21 37.2877 21.485 34.8495 22.4273 32.5747C23.3695 30.2998 24.7506 28.2328 26.4917 26.4917C28.2328 24.7506 30.2998 23.3695 32.5747 22.4273ZM46.4675 45.6C46.7046 45.7372 46.9736 45.8096 47.2475 45.81C47.5905 45.8085 47.9236 45.6944 48.1954 45.4852C48.4673 45.276 48.6628 44.9832 48.752 44.652C48.8412 44.3207 48.8191 43.9694 48.6891 43.6519C48.5591 43.3345 48.3284 43.0685 48.0325 42.895L41.3125 39.015V31.3125C41.3125 30.8981 41.1479 30.5007 40.8549 30.2076C40.5618 29.9146 40.1644 29.75 39.75 29.75C39.3356 29.75 38.9382 29.9146 38.6451 30.2076C38.3521 30.5007 38.1875 30.8981 38.1875 31.3125V39.915L38.9675 41.27L46.4675 45.6Z" fill="context-stroke"/>
</g>
<defs>
<clipPath id="clip0_11642_10090">
<rect width="80" height="80"/>
</clipPath>
</defs>
</svg> 