<!-- This Source Code Form is subject to the terms of the Mozilla Public
   - License, v. 2.0. If a copy of the MPL was not distributed with this
   - file, You can obtain one at https://mozilla.org/MPL/2.0/. -->
<svg width="80" height="80" viewBox="0 0 80 80" fill="none" xmlns="http://www.w3.org/2000/svg">
<path d="M4.67475e-07 40C3.96467e-07 62.0914 17.9086 80 40 80C62.0914 80 80 62.0914 80 40C80 17.9086 62.0914 5.44299e-08 40 1.21573e-07C17.9086 1.88715e-07 5.38483e-07 17.9086 4.67475e-07 40Z" fill="context-fill"/>
<g clip-path="url(#clip0_11642_9940)">
<path d="M40.0701 60.3803C39.7101 60.3803 39.3601 60.2403 39.1001 59.9803L23.2001 44.1203C19.6201 40.5603 18.9701 35.0703 21.6201 30.7703C23.6201 27.5203 27.0901 25.6003 30.9001 25.6203C34.6301 25.6403 38.0201 27.5203 40.0001 30.6703C41.9901 27.5303 45.3701 25.6503 49.1001 25.6303C49.1201 25.6303 49.1401 25.6303 49.1601 25.6303C52.9501 25.6303 56.4001 27.5603 58.3901 30.7903C61.0301 35.0803 60.3901 40.5603 56.8301 44.1303L41.0301 59.9803C40.7701 60.2403 40.4201 60.3803 40.0601 60.3803H40.0701ZM30.8401 28.3703C28.0101 28.3703 25.4401 29.8103 23.9601 32.2203C21.9901 35.4303 22.4701 39.5203 25.1401 42.1803L40.0701 57.0703L54.9001 42.1903C57.5501 39.5303 58.0301 35.4303 56.0601 32.2303C54.5601 29.8003 52.0201 28.3503 49.1201 28.3803C46.2701 28.4003 43.6901 29.8703 42.2301 32.3103L41.1901 34.0503C40.6901 34.8803 39.3301 34.8803 38.8301 34.0503L37.7801 32.3003C36.3201 29.8603 33.7401 28.3903 30.8901 28.3803H30.8401V28.3703Z" fill="context-stroke"/>
</g>
<defs>
<clipPath id="clip0_11642_9940">
<rect width="40.02" height="40" transform="translate(20 23)"/>
</clipPath>
</defs>
</svg>
