<!-- This Source Code Form is subject to the terms of the Mozilla Public
   - License, v. 2.0. If a copy of the MPL was not distributed with this
   - file, You can obtain one at https://mozilla.org/MPL/2.0/. -->
<svg width="80" height="80" viewBox="0 0 80 80" fill="none" xmlns="http://www.w3.org/2000/svg">
<g clip-path="url(#clip0_11642_10090)">
<path d="M0 40C-7.1008e-08 62.0914 17.9086 80 40 80C62.0914 80 80 62.0914 80 40C80 17.9086 62.0914 -6.71431e-08 40 0C17.9086 6.7142e-08 7.1008e-08 17.9086 0 40Z" fill="context-fill"/>
<path fill-rule="evenodd" clip-rule="evenodd" d="M36.1645 52.5006H43.8345C44.7922 52.502 45.7194 52.1644 46.452 51.5475C47.1846 50.9307 47.6752 50.0745 47.837 49.1306L48.572 44.4481C50.1775 43.1716 51.476 41.5509 52.3718 39.7056C53.2675 37.8604 53.7376 35.8376 53.7475 33.7864C53.7573 31.7353 53.3066 29.7081 52.4286 27.8543C51.5506 26.0006 50.2677 24.3675 48.6745 23.0756C45.4495 20.4531 41.2195 19.4406 37.0695 20.2981C31.712 21.4156 27.457 25.8056 26.4795 31.2206C25.5645 36.2881 27.4145 41.2331 31.312 44.2406L32.162 49.1306C32.3233 50.0747 32.8138 50.9312 33.5465 51.5481C34.2792 52.165 35.2067 52.5025 36.1645 52.5006ZM45.6095 43.7031L44.757 48.5981L43.832 49.3756H36.1645L35.2395 48.5956L34.3895 43.7056C34.2745 43.0431 33.917 42.4406 33.3795 42.0106C31.8675 40.8176 30.7115 39.2329 30.0371 37.4289C29.3627 35.6248 29.1958 33.6704 29.5545 31.7781C30.307 27.6006 33.582 24.2181 37.702 23.3631C38.4595 23.2031 39.2195 23.1281 39.9695 23.1281C42.4196 23.1195 44.7974 23.9586 46.6995 25.5031C49.192 27.5306 50.622 30.5381 50.622 33.7481C50.622 36.9581 49.162 39.9681 46.6145 42.0131C46.0795 42.4431 45.7245 43.0431 45.6095 43.7031ZM32.9576 59.5424C33.2507 59.8354 33.6481 60 34.0625 60H45.9375C46.3519 60 46.7493 59.8354 47.0424 59.5424C47.3354 59.2493 47.5 58.8519 47.5 58.4375C47.5 58.0231 47.3354 57.6257 47.0424 57.3326C46.7493 57.0396 46.3519 56.875 45.9375 56.875H34.0625C33.6481 56.875 33.2507 57.0396 32.9576 57.3326C32.6646 57.6257 32.5 58.0231 32.5 58.4375C32.5 58.8519 32.6646 59.2493 32.9576 59.5424Z" fill="context-stroke"/>
</g>
<defs>
<clipPath id="clip0_11642_10090">
<rect width="80" height="80"/>
</clipPath>
</defs>
</svg> 