<!-- This Source Code Form is subject to the terms of the Mozilla Public
   - License, v. 2.0. If a copy of the MPL was not distributed with this
   - file, You can obtain one at https://mozilla.org/MPL/2.0/. -->
<svg width="80" height="80" viewBox="0 0 80 80" fill="none" xmlns="http://www.w3.org/2000/svg">
<g clip-path="url(#clip0_11642_10090)">
<path d="M0 40C-7.1008e-08 62.0914 17.9086 80 40 80C62.0914 80 80 62.0914 80 40C80 17.9086 62.0914 -6.71431e-08 40 0C17.9086 6.7142e-08 7.1008e-08 17.9086 0 40Z" fill="context-fill"/>
<path fill-rule="evenodd" clip-rule="evenodd" d="M26.7934 50.5552C25.1905 48.5529 24.0376 46.1822 23.5022 43.61C21.2354 32.7292 29.4957 23.125 40.0003 23.125H55.0003C56.0358 23.125 56.8753 23.9645 56.8753 25V40C56.8753 50.5048 47.2712 58.7652 36.3903 56.4981C33.8189 55.9618 31.4479 54.809 29.4454 53.2065L25.0003 57.6516L22.3486 55L26.7934 50.5552ZM27.1734 42.845C25.4005 34.3359 31.8301 26.875 40.0003 26.875H53.1253V40C53.1253 48.1701 45.6646 54.5997 37.1556 52.827C35.3116 52.4424 33.5967 51.6424 32.118 50.5339L43.9019 38.75L41.2503 36.0983L29.466 47.8826C28.3571 46.404 27.5571 44.6889 27.1734 42.845Z" fill="context-stroke"/>
</g>
<defs>
<clipPath id="clip0_11642_10090">
<rect width="80" height="80"/>
</clipPath>
</defs>
</svg>