<!-- This Source Code Form is subject to the terms of the Mozilla Public
   - License, v. 2.0. If a copy of the MPL was not distributed with this
   - file, You can obtain one at https://mozilla.org/MPL/2.0/. -->
<svg width="80" height="80" viewBox="0 0 80 80" fill="none" xmlns="http://www.w3.org/2000/svg">
<g clip-path="url(#clip0_11642_10090)">
<path d="M0 40C-7.1008e-08 62.0914 17.9086 80 40 80C62.0914 80 80 62.0914 80 40C80 17.9086 62.0914 -6.71431e-08 40 0C17.9086 6.7142e-08 7.1008e-08 17.9086 0 40Z" fill="context-fill"/>
<path fill-rule="evenodd" clip-rule="evenodd" d="M52.875 25.625L54.375 27.125V45.375L52.875 46.875H48.125C47.425 46.875 46.875 47.425 46.875 48.125V53.5L39.275 47.425C38.825 47.075 38.275 46.875 37.725 46.875H27.125L25.625 45.375V27.125L27.125 25.625H52.875ZM52.5 22.5H27.5C24.75 22.5 22.5 24.75 22.5 27.5V45C22.5 47.75 24.75 50 27.5 50H37.5L46.875 57.5H50V50H52.5C55.25 50 57.5 47.75 57.5 45V27.5C57.5 24.75 55.25 22.5 52.5 22.5ZM35.675 39.3262H32.15C31.2939 39.3262 30.6 40.0201 30.6 40.8762V40.9012C30.6 41.7572 31.2939 42.4512 32.15 42.4512H35.675C36.531 42.4512 37.225 41.7572 37.225 40.9012V40.8762C37.225 40.0201 36.531 39.3262 35.675 39.3262ZM41.2753 39.3262H47.8503C48.7064 39.3262 49.4003 40.0201 49.4003 40.8762V40.9012C49.4003 41.7572 48.7064 42.4512 47.8503 42.4512H41.2753C40.4193 42.4512 39.7253 41.7572 39.7253 40.9012V40.8762C39.7253 40.0201 40.4193 39.3262 41.2753 39.3262ZM47.8497 32.4512H44.3247C43.4686 32.4512 42.7747 33.1451 42.7747 34.0012V34.0262C42.7747 34.8822 43.4686 35.5762 44.3247 35.5762H47.8497C48.7057 35.5762 49.3997 34.8822 49.3997 34.0262V34.0012C49.3997 33.1451 48.7057 32.4512 47.8497 32.4512ZM32.15 32.4512H38.725C39.581 32.4512 40.275 33.1451 40.275 34.0012V34.0262C40.275 34.8822 39.581 35.5762 38.725 35.5762H32.15C31.2939 35.5762 30.6 34.8822 30.6 34.0262V34.0012C30.6 33.1451 31.2939 32.4512 32.15 32.4512Z" fill="context-stroke"/>
</g>
<defs>
<clipPath id="clip0_11642_10090">
<rect width="80" height="80"/>
</clipPath>
</defs>
</svg> 