<!-- This Source Code Form is subject to the terms of the Mozilla Public
   - License, v. 2.0. If a copy of the MPL was not distributed with this
   - file, You can obtain one at https://mozilla.org/MPL/2.0/. -->
<svg width="80" height="80" viewBox="0 0 80 80" fill="none" xmlns="http://www.w3.org/2000/svg">
<g clip-path="url(#clip0_11642_10090)">
<path d="M0 40C-7.1008e-08 62.0914 17.9086 80 40 80C62.0914 80 80 62.0914 80 40C80 17.9086 62.0914 -6.71431e-08 40 0C17.9086 6.7142e-08 7.1008e-08 17.9086 0 40Z" fill="context-fill"/>
<path fill-rule="evenodd" clip-rule="evenodd" d="M40 45C35.175 45 31.25 41.075 31.25 36.25C31.25 31.425 35.175 27.5 40 27.5C44.825 27.5 48.75 31.425 48.75 36.25C48.75 41.075 44.825 45 40 45ZM40 31.25C37.25 31.25 35 33.5 35 36.25C35 39 37.25 41.25 40 41.25C42.75 41.25 45 39 45 36.25C45 33.5 42.75 31.25 40 31.25Z" fill="context-stroke"/>
<path fill-rule="evenodd" clip-rule="evenodd" d="M51.708 47.5C54.5184 44.5765 56.25 40.609 56.25 36.25C56.25 27.3 48.95 20 40 20C31.05 20 23.75 27.3 23.75 36.25C23.75 40.609 25.4816 44.5765 28.292 47.5H24.375C23.35 47.5 22.5 48.35 22.5 49.375V55C22.5 57.75 24.75 60 27.5 60H52.5C55.25 60 57.5 57.75 57.5 55V49.375C57.5 48.35 56.65 47.5 55.625 47.5H51.708ZM26.25 51.25V55C26.25 55.7 26.8 56.25 27.5 56.25H52.5C53.2 56.25 53.75 55.7 53.75 55V51.25H26.25ZM45.4523 47.5C49.623 45.4735 52.5 41.1957 52.5 36.25C52.5 29.35 46.9 23.75 40 23.75C33.1 23.75 27.5 29.35 27.5 36.25C27.5 41.1957 30.377 45.4735 34.5477 47.5H45.4523Z" fill="context-stroke"/>
</g>
<defs>
<clipPath id="clip0_11642_10090">
<rect width="80" height="80"/>
</clipPath>
</defs>
</svg>