<!-- This Source Code Form is subject to the terms of the Mozilla Public
   - License, v. 2.0. If a copy of the MPL was not distributed with this
   - file, You can obtain one at https://mozilla.org/MPL/2.0/. -->
<svg width="80" height="80" viewBox="0 0 80 80" fill="none" xmlns="http://www.w3.org/2000/svg">
<g clip-path="url(#clip0_11642_10090)">
<path d="M0 40C-7.1008e-08 62.0914 17.9086 80 40 80C62.0914 80 80 62.0914 80 40C80 17.9086 62.0914 -6.71431e-08 40 0C17.9086 6.7142e-08 7.1008e-08 17.9086 0 40Z" fill="context-fill"/>
<path fill-rule="evenodd" clip-rule="evenodd" d="M35 21.25C32.2395 21.25 30 23.4895 30 26.25V42.5H27.5C23.357 42.5 20 45.857 20 50C20 54.143 23.357 57.5 27.5 57.5C29.857 57.5 31.9623 56.4107 33.3335 54.7133L33.75 54.1977V33.75H56.2514L56.253 42.5H53.75C49.607 42.5 46.25 45.857 46.25 50C46.25 54.143 49.607 57.5 53.75 57.5C56.1115 57.5 58.2159 56.4066 59.5883 54.7086L60.0051 54.1928L60 26.2497C59.9998 23.4893 57.7604 21.25 55 21.25H35ZM56.2507 30L56.25 26.2503C56.25 25.5609 55.6895 25 55 25H35C34.3105 25 33.75 25.5605 33.75 26.25V30H56.2507ZM27.5 46.25H30V52.7952C29.3361 53.3904 28.4608 53.75 27.5 53.75C25.428 53.75 23.75 52.072 23.75 50C23.75 47.928 25.428 46.25 27.5 46.25ZM53.75 46.25H56.2537L56.2549 52.7907C55.5885 53.3892 54.7118 53.75 53.75 53.75C51.678 53.75 50 52.072 50 50C50 47.928 51.678 46.25 53.75 46.25Z" fill="context-stroke"/>
</g>
<defs>
<clipPath id="clip0_11642_10090">
<rect width="80" height="80"/>
</clipPath>
</defs>
</svg>