<!-- This Source Code Form is subject to the terms of the Mozilla Public
   - License, v. 2.0. If a copy of the MPL was not distributed with this
   - file, You can obtain one at https://mozilla.org/MPL/2.0/. -->
<svg width="80" height="80" viewBox="0 0 80 80" fill="none" xmlns="http://www.w3.org/2000/svg">
<g clip-path="url(#clip0_11642_10093)">
<path d="M0 40C-7.1008e-08 62.0914 17.9086 80 40 80C62.0914 80 80 62.0914 80 40C80 17.9086 62.0914 -6.71431e-08 40 0C17.9086 6.7142e-08 7.1008e-08 17.9086 0 40Z" fill="context-fill"/>
<path fill-rule="evenodd" clip-rule="evenodd" d="M40 22.1555C38.73 20.8282 36.93 20 34.9333 20H34.3C30.4513 20 27.3333 23.077 27.3333 26.875C27.3333 28.0004 27.6071 29.0625 28.0925 30H26.0667C23.2693 30 21 32.2395 21 35V37.5C21 39.3499 22.0191 40.9659 23.5333 41.8307V55C23.5333 57.7605 25.8027 60 28.6 60H51.4C54.1973 60 56.4667 57.7605 56.4667 55V41.8307C57.9809 40.9659 59 39.3499 59 37.5V35C59 32.2395 56.7307 30 53.9333 30H51.9075C52.3929 29.0625 52.6667 28.0004 52.6667 26.875C52.6667 23.077 49.5487 20 45.7 20H45.0667C43.07 20 41.27 20.8282 40 22.1555ZM34.3 23.75C32.55 23.75 31.1333 25.148 31.1333 26.875C31.1333 28.602 32.55 30 34.3 30H38.1V26.875C38.1 25.148 36.6833 23.75 34.9333 23.75H34.3ZM41.9 33.75V38.75H53.9333C54.632 38.75 55.2 38.1895 55.2 37.5V35C55.2 34.3105 54.632 33.75 53.9333 33.75H41.9ZM45.7 30C47.45 30 48.8667 28.602 48.8667 26.875C48.8667 25.148 47.45 23.75 45.7 23.75H45.0667C43.3167 23.75 41.9 25.148 41.9 26.875V30H45.7ZM26.0667 33.75H38.1V38.75H26.0667C25.368 38.75 24.8 38.1895 24.8 37.5V35C24.8 34.3105 25.368 33.75 26.0667 33.75ZM41.9 42.5H52.6667V55C52.6667 55.6895 52.0987 56.25 51.4 56.25H41.9V42.5ZM38.1 42.5V56.25H28.6C27.9013 56.25 27.3333 55.6895 27.3333 55V42.5H38.1Z" fill="context-stroke"/>
</g>
<defs>
<clipPath id="clip0_11642_10093">
<rect width="80" height="80"/>
</clipPath>
</defs>
</svg> 