<!-- This Source Code Form is subject to the terms of the Mozilla Public
   - License, v. 2.0. If a copy of the MPL was not distributed with this
   - file, You can obtain one at https://mozilla.org/MPL/2.0/. -->
<svg width="80" height="80" viewBox="0 0 80 80" fill="none" xmlns="http://www.w3.org/2000/svg">
<g clip-path="url(#clip0_11642_10087)">
<path d="M0 40C-7.1008e-08 62.0914 17.9086 80 40 80C62.0914 80 80 62.0914 80 40C80 17.9086 62.0914 -6.71431e-08 40 0C17.9086 6.7142e-08 7.1008e-08 17.9086 0 40Z" fill="context-fill"/>
<path fill-rule="evenodd" clip-rule="evenodd" d="M55.3567 24.6427C54.1664 23.4524 52.2336 23.4524 51.0434 24.6427L46.6809 29.0052C46.2072 29.4788 45.5169 29.6638 44.8699 29.4905L32.1707 26.0889C32.1703 26.0888 32.1712 26.089 32.1707 26.0889C31.7521 25.9781 31.3083 26.0977 31.0059 26.4002L28.5274 28.8787L39.8077 31.9007C40.4548 32.0741 40.9602 32.5795 41.1336 33.2266C41.307 33.8736 41.122 34.564 40.6484 35.0377L32.7609 42.9252C32.3531 43.333 31.7804 43.5304 31.208 43.4606L26.6848 42.9087L25.3422 44.2513L32.2508 46.5666C32.8084 46.7534 33.246 47.191 33.4329 47.7486L35.7484 54.6581L37.0907 53.3167L36.5388 48.7914C36.469 48.2191 36.6664 47.6465 37.074 47.2388L44.9615 39.3488C45.4352 38.875 46.1256 38.6899 46.7728 38.8632C47.4199 39.0366 47.9254 39.5421 48.0987 40.1892L51.1208 51.4719L53.5992 48.9936C53.9044 48.6884 54.0224 48.246 53.9116 47.8326L50.5089 35.1295C50.3356 34.4825 50.5206 33.7922 50.9942 33.3186L55.3567 28.956C56.547 27.7658 56.547 25.833 55.3567 24.6427ZM48.3917 21.991C51.0464 19.3363 55.3536 19.3363 58.0084 21.991C60.6631 24.6458 60.6631 28.953 58.0084 31.6077L54.4113 35.2048L57.5335 46.8611C57.5336 46.8613 57.5335 46.8609 57.5335 46.8611C57.9924 48.5726 57.5005 50.3955 56.2509 51.6452L51.4759 56.4202C51.0022 56.8939 50.3117 57.0789 49.6647 56.9055C49.0176 56.7321 48.5122 56.2266 48.3389 55.5795L45.3169 44.2974L40.3718 49.244L40.9238 53.7699C40.9936 54.3425 40.796 54.9153 40.388 55.3231L36.258 59.4506C35.7988 59.9095 35.1349 60.0982 34.5029 59.9495C33.871 59.8008 33.361 59.3357 33.1547 58.7202L30.1739 49.8255L21.2792 46.8447C20.6636 46.6384 20.1985 46.1282 20.0498 45.4962C19.9012 44.8642 20.0901 44.2002 20.5492 43.7411L24.6792 39.6111C25.087 39.2033 25.6597 39.0058 26.2321 39.0757L30.7552 39.6275L35.7002 34.6826L24.4198 31.6605C23.7728 31.4872 23.2673 30.9818 23.0939 30.3347C22.9205 29.6876 23.1055 28.9972 23.5792 28.5236L28.3542 23.7486C29.6064 22.4964 31.4283 22.0112 33.1343 22.4648L33.1377 22.4657L44.7946 25.5882L48.3917 21.991Z" fill="context-stroke"/>
</g>
<defs>
<clipPath id="clip0_11642_10087">
<rect width="80" height="80"/>
</clipPath>
</defs>
</svg> 