<!-- This Source Code Form is subject to the terms of the Mozilla Public
   - License, v. 2.0. If a copy of the MPL was not distributed with this
   - file, You can obtain one at https://mozilla.org/MPL/2.0/. -->
<svg width="80" height="80" viewBox="0 0 80 80" fill="none" xmlns="http://www.w3.org/2000/svg">
<g clip-path="url(#clip0_11642_10090)">
<path d="M0 40C-7.1008e-08 62.0914 17.9086 80 40 80C62.0914 80 80 62.0914 80 40C80 17.9086 62.0914 -6.71431e-08 40 0C17.9086 6.7142e-08 7.1008e-08 17.9086 0 40Z" fill="context-fill"/>
<path d="M32.5001 34.9991C33.8808 34.9991 35.0001 36.1183 35.0001 37.4991C35.0001 38.8798 33.8808 39.9991 32.5001 39.9991C31.1194 39.9991 30.0001 38.8798 30.0001 37.4991C30.0001 36.1183 31.1194 34.9991 32.5001 34.9991Z" fill="context-stroke"/>
<path d="M42.5001 32.4991C42.5001 31.1183 41.3808 29.9991 40.0001 29.9991C38.6194 29.9991 37.5001 31.1183 37.5001 32.4991C37.5001 33.8798 38.6194 34.9991 40.0001 34.9991C41.3808 34.9991 42.5001 33.8798 42.5001 32.4991Z" fill="context-stroke"/>
<path d="M47.5001 34.9991C48.8808 34.9991 50.0001 36.1183 50.0001 37.4991C50.0001 38.8798 48.8808 39.9991 47.5001 39.9991C46.1194 39.9991 45.0001 38.8798 45.0001 37.4991C45.0001 36.1183 46.1194 34.9991 47.5001 34.9991Z" fill="context-stroke"/>
<path fill-rule="evenodd" clip-rule="evenodd" d="M39.9999 58.7491H41.3248C43.1249 58.7491 44.7749 57.8241 45.6749 56.2491C46.5749 54.6741 46.5749 52.7991 45.6749 51.2241C45.3499 50.6491 45.5749 50.1491 45.6749 49.9491C45.7749 49.7491 46.0998 49.2991 46.7749 49.2991H49.3498C51.8749 49.2991 54.2498 48.2991 56.0248 46.4991C57.8249 44.6741 58.7749 42.2741 58.7499 39.7241C58.6749 34.2241 56.1998 29.0491 51.9498 25.5241C47.6748 22.0241 42.0749 20.5741 36.5749 21.5491C28.6249 22.9741 22.3748 29.5991 21.3748 37.6491C20.7248 43.0241 22.3999 48.3991 25.9498 52.4241C29.5249 56.4491 34.6249 58.7491 39.9999 58.7491ZM37.2248 25.2491C38.1749 25.0741 39.0999 24.9991 40.0249 24.9991L39.9748 25.0241C43.4748 25.0241 46.7749 26.1991 49.4999 28.4491C52.8998 31.2491 54.8998 35.3991 54.9498 39.7991C54.9498 41.3241 54.3749 42.7741 53.2998 43.8741C52.2248 44.9491 50.8249 45.5491 49.2999 45.5491H46.7248C44.9248 45.5491 43.2748 46.4741 42.3748 48.0491C41.4749 49.6241 41.4749 51.4991 42.3748 53.0741C42.6999 53.6491 42.4748 54.1491 42.3748 54.3491C42.2748 54.5491 41.9499 54.9991 41.2749 54.9991H39.9748C35.6998 54.9991 31.5998 53.1741 28.7498 49.9491C25.8749 46.6991 24.5748 42.4991 25.0998 38.1241C25.8998 31.6741 30.8749 26.3741 37.2248 25.2491Z" fill="context-stroke"/>
</g>
<defs>
<clipPath id="clip0_11642_10090">
<rect width="80" height="80"/>
</clipPath>
</defs>
</svg>