<!-- This Source Code Form is subject to the terms of the Mozilla Public
   - License, v. 2.0. If a copy of the MPL was not distributed with this
   - file, You can obtain one at https://mozilla.org/MPL/2.0/. -->
<svg width="80" height="80" viewBox="0 0 80 80" fill="none" xmlns="http://www.w3.org/2000/svg">
<g clip-path="url(#clip0_11642_10090)">
<path d="M0 40C-7.1008e-08 62.0914 17.9086 80 40 80C62.0914 80 80 62.0914 80 40C80 17.9086 62.0914 -6.71431e-08 40 0C17.9086 6.7142e-08 7.1008e-08 17.9086 0 40Z" fill="context-fill"/>
<path d="M50 26.25C50 29.0114 48.3211 31.25 46.25 31.25C44.1789 31.25 42.5 29.0114 42.5 26.25C42.5 23.4886 44.1789 21.25 46.25 21.25C48.3211 21.25 50 23.4886 50 26.25Z" fill="context-stroke"/>
<path fill-rule="evenodd" clip-rule="evenodd" d="M31.7 57.5C28 57.5 24.975 54.4 24.975 50.625C24.975 48.8 25.675 47.075 26.925 45.775L28.425 44.225C30.5 42.075 32.175 39.6 33.4 36.825C34.575 34.2 37.15 32.5 39.975 32.5C42.8 32.5 45.375 34.2 46.55 36.825C47.775 39.575 49.45 42.075 51.525 44.225L53.025 45.775C54.275 47.075 54.975 48.8 54.975 50.625C54.975 54.425 51.95 57.5 48.25 57.5H31.7ZM40 36.25C38.65 36.25 37.425 37.075 36.85 38.35C35.45 41.5 33.525 44.35 31.15 46.825L29.65 48.375C29.075 48.95 28.75 49.775 28.75 50.6C28.75 52.325 30.075 53.725 31.725 53.725H48.3C49.925 53.725 51.275 52.325 51.275 50.6C51.275 49.775 50.95 48.95 50.375 48.375L48.875 46.825C46.5 44.375 44.575 41.525 43.175 38.35C42.6 37.075 41.375 36.25 40.025 36.25H40Z" fill="context-stroke"/>
<path d="M56.25 42.5C58.3211 42.5 60 40.2614 60 37.5C60 34.7386 58.3211 32.5 56.25 32.5C54.1789 32.5 52.5 34.7386 52.5 37.5C52.5 40.2614 54.1789 42.5 56.25 42.5Z" fill="context-stroke"/>
<path d="M33.75 31.25C35.8211 31.25 37.5 29.0114 37.5 26.25C37.5 23.4886 35.8211 21.25 33.75 21.25C31.6789 21.25 30 23.4886 30 26.25C30 29.0114 31.6789 31.25 33.75 31.25Z" fill="context-stroke"/>
<path d="M27.5 37.5C27.5 40.2614 25.8211 42.5 23.75 42.5C21.6789 42.5 20 40.2614 20 37.5C20 34.7386 21.6789 32.5 23.75 32.5C25.8211 32.5 27.5 34.7386 27.5 37.5Z" fill="context-stroke"/>
</g>
<defs>
<clipPath id="clip0_11642_10090">
<rect width="80" height="80"/>
</clipPath>
</defs>
</svg>