<!-- This Source Code Form is subject to the terms of the Mozilla Public
   - License, v. 2.0. If a copy of the MPL was not distributed with this
   - file, You can obtain one at https://mozilla.org/MPL/2.0/. -->
<svg width="80" height="80" viewBox="0 0 80 80" fill="none" xmlns="http://www.w3.org/2000/svg">
<path d="M4.67475e-07 40C3.96467e-07 62.0914 17.9086 80 40 80C62.0914 80 80 62.0914 80 40C80 17.9086 62.0914 5.44299e-08 40 1.21573e-07C17.9086 1.88715e-07 5.38483e-07 17.9086 4.67475e-07 40Z" fill="context-fill"/>
<path fill-rule="evenodd" clip-rule="evenodd" d="M38.8884 24.7634C38.8884 24.7634 38.8884 24.7634 38.8884 24.7634L35.2844 33.8173C35.0881 34.3104 34.6255 34.6466 34.0958 34.6809L24.3718 35.3109C23.2927 35.3807 22.8532 36.7332 23.6851 37.4238L31.1823 43.6489C31.5907 43.988 31.7674 44.5319 31.6363 45.0463L29.2303 54.4892C29.2303 54.4892 29.2303 54.4892 29.2303 54.4892C28.9634 55.537 30.1141 56.3732 31.0282 55.7955C31.0282 55.7955 31.0282 55.7955 31.0282 55.7955L39.2652 50.5885C39.7139 50.3048 40.2859 50.3048 40.7346 50.5885L48.9715 55.7955C48.9716 55.7955 48.9715 55.7955 48.9715 55.7955C49.885 56.3727 51.0356 55.5378 50.7685 54.4892L48.3625 45.0463C48.2314 44.5319 48.4081 43.988 48.8165 43.6489L56.3135 37.4239C57.1454 36.7334 56.7063 35.3807 55.6272 35.3109L45.903 34.6809C45.3733 34.6466 44.9107 34.3104 44.7144 33.8173L41.1104 24.7633C40.7113 23.7598 39.2888 23.758 38.8884 24.7634ZM43.6654 23.7462C42.3463 20.4301 37.653 20.4318 36.3334 23.7461L33.0508 31.9928L24.1942 32.5666C24.1942 32.5666 24.1941 32.5666 24.1942 32.5666C20.6334 32.797 19.1826 37.2604 21.9287 39.5398L28.7569 45.2094L26.5655 53.8103C25.6844 57.2684 29.4816 60.0263 32.4975 58.1201L39.9999 53.3775L47.5022 58.12C50.5188 60.0267 54.3142 57.2677 53.4333 53.8103L51.2419 45.2094L58.0701 39.5398C58.0701 39.5398 58.0702 39.5397 58.0701 39.5398C60.8159 37.2603 59.3655 32.797 55.8048 32.5666C55.8049 32.5666 55.8047 32.5666 55.8048 32.5666L46.948 31.9928L43.6654 23.7462C43.6655 23.7464 43.6654 23.7461 43.6654 23.7462Z" fill="context-stroke"/>
</svg>
