<!-- This Source Code Form is subject to the terms of the Mozilla Public
   - License, v. 2.0. If a copy of the MPL was not distributed with this
   - file, You can obtain one at https://mozilla.org/MPL/2.0/. -->
<svg width="80" height="80" viewBox="0 0 80 80" fill="none" xmlns="http://www.w3.org/2000/svg">
<g clip-path="url(#clip0_11642_10090)">
<path d="M0 40C-7.1008e-08 62.0914 17.9086 80 40 80C62.0914 80 80 62.0914 80 40C80 17.9086 62.0914 -6.71431e-08 40 0C17.9086 6.7142e-08 7.1008e-08 17.9086 0 40Z" fill="context-fill"/>
<path fill-rule="evenodd" clip-rule="evenodd" d="M40.0002 26.8599L37.1896 33.9895C36.6115 35.4515 35.4542 36.6099 33.9922 37.1879L26.8608 39.9993L33.9904 42.8099C35.4524 43.388 36.6108 44.5453 37.1889 46.0073L40.0002 53.1387L42.8109 46.0091C43.389 44.5471 44.5463 43.3887 46.0083 42.8107L53.1396 39.9993L46.0101 37.1886C44.5481 36.6106 43.3897 35.4532 42.8116 33.9912L40.0002 26.8599ZM36.8413 24.6481C37.9735 21.7814 42.027 21.7814 43.1591 24.6481L46.2989 32.6123C46.299 32.6127 46.2987 32.612 46.2989 32.6123C46.4958 33.1096 46.8891 33.5035 47.3864 33.7003C47.3866 33.7004 47.3861 33.7002 47.3864 33.7003L55.3504 36.84C58.2171 37.9721 58.2181 42.026 55.3515 43.1582L47.3872 46.2979C47.3868 46.2981 47.3875 46.2978 47.3872 46.2979C46.8901 46.4949 46.4962 46.888 46.2993 47.3851C46.2992 47.3855 46.2995 47.3848 46.2993 47.3851L43.1596 55.3495C42.0274 58.2161 37.9735 58.2172 36.8413 55.3505L33.7016 47.3862C33.7015 47.386 33.7017 47.3865 33.7016 47.3862C33.5047 46.889 33.1116 46.4953 32.6144 46.2984C32.614 46.2982 32.6148 46.2985 32.6144 46.2984L24.6501 43.1586C21.7834 42.0265 21.7823 37.9725 24.649 36.8404L32.6133 33.7007C32.6135 33.7006 32.613 33.7008 32.6133 33.7007C33.1106 33.5037 33.5044 33.1105 33.7013 32.6131C33.7014 32.6129 33.7012 32.6134 33.7013 32.6131L36.8413 24.6481Z" fill="context-stroke"/>
</g>
<defs>
<clipPath id="clip0_11642_10090">
<rect width="80" height="80"/>
</clipPath>
</defs>
</svg> 