<!-- This Source Code Form is subject to the terms of the Mozilla Public
   - License, v. 2.0. If a copy of the MPL was not distributed with this
   - file, You can obtain one at https://mozilla.org/MPL/2.0/. -->
<svg width="80" height="80" viewBox="0 0 80 80" fill="none" xmlns="http://www.w3.org/2000/svg">
<g clip-path="url(#clip0_11642_10090)">
<path d="M0 40C-7.1008e-08 62.0914 17.9086 80 40 80C62.0914 80 80 62.0914 80 40C80 17.9086 62.0914 -6.71431e-08 40 0C17.9086 6.7142e-08 7.1008e-08 17.9086 0 40Z" fill="context-fill"/>
<path d="M39.9999 35L34.7424 38.82L36.7499 45H43.2499L45.2574 38.82L39.9999 35Z" fill="context-stroke"/>
<path fill-rule="evenodd" clip-rule="evenodd" d="M40 20C28.9543 20 20 28.9543 20 40C20 51.0457 28.9543 60 40 60C51.0457 60 60 51.0457 60 40C60 28.9543 51.0457 20 40 20ZM33.5651 25.0739C31.5229 25.9555 29.6974 27.244 28.1909 28.8372L31.1251 36.4825L23.9147 42.3222C24.1929 44.2667 24.8154 46.1001 25.7184 47.7588L32.8828 47.3825L36.1058 55.7804C37.3534 56.0873 38.6577 56.25 40 56.25C41.3962 56.25 42.7512 56.0739 44.0441 55.7428L46.1474 47.8925L54.4413 47.458C55.3257 45.7489 55.9157 43.8628 56.1439 41.8667L49.1248 37.3075L51.4842 28.5033C50.0429 27.0635 48.3324 25.893 46.4347 25.0738L39.9999 29.75L33.5651 25.0739Z" fill="context-stroke"/>
</g>
<defs>
<clipPath id="clip0_11642_10090">
<rect width="80" height="80"/>
</clipPath>
</defs>
</svg>