<!-- This Source Code Form is subject to the terms of the Mozilla Public
   - License, v. 2.0. If a copy of the MPL was not distributed with this
   - file, You can obtain one at https://mozilla.org/MPL/2.0/. -->
<svg width="80" height="80" viewBox="0 0 80 80" fill="none" xmlns="http://www.w3.org/2000/svg">
<g clip-path="url(#clip0_11642_10090)">
<path d="M0 40C-7.1008e-08 62.0914 17.9086 80 40 80C62.0914 80 80 62.0914 80 40C80 17.9086 62.0914 -6.71431e-08 40 0C17.9086 6.7142e-08 7.1008e-08 17.9086 0 40Z" fill="context-fill"/>
<path d="M48.75 33.75H43.75V38.75H48.75V33.75Z" fill="context-stroke"/>
<path d="M35.3247 32.5H32.1997V34.7H30V37.825H32.1997V40H35.3247V37.825H37.5V34.7H35.3247V32.5Z" fill="context-stroke"/>
<path fill-rule="evenodd" clip-rule="evenodd" d="M53.7501 53.75C51.6001 53.75 49.4751 52.625 48.3251 50.625L46.5501 47.5H33.4251L31.6501 50.625C29.9251 53.6 26.1001 54.625 23.1001 52.925C20.6001 51.45 19.4001 48.375 20.3001 45.625L24.9251 28.675C25.5251 26.5 27.5001 25 29.7501 25H50.2501C52.5001 25 54.4751 26.5 55.0751 28.675L59.7501 45.725C60.6001 48.475 59.4251 51.45 56.8751 52.925C55.9001 53.5 54.8251 53.75 53.7501 53.75ZM32.3751 43.75H47.6501C48.3251 43.75 48.9501 44.125 49.2751 44.7L51.5751 48.75C52.2501 49.925 53.7751 50.325 54.9751 49.65C56.0001 49.075 56.4501 47.875 56.1251 46.75L51.4251 29.65C51.2751 29.1 50.7751 28.725 50.2251 28.725H29.7501C29.2001 28.725 28.7001 29.1 28.5501 29.65L23.8751 46.65C23.5001 47.825 23.9751 49.05 25.0001 49.65C26.2001 50.35 27.7251 49.925 28.4251 48.75L30.7501 44.7C31.0751 44.125 31.7001 43.75 32.3751 43.75Z" fill="context-stroke"/>
</g>
<defs>
<clipPath id="clip0_11642_10090">
<rect width="80" height="80"/>
</clipPath>
</defs>
</svg>