<!-- This Source Code Form is subject to the terms of the Mozilla Public
   - License, v. 2.0. If a copy of the MPL was not distributed with this
   - file, You can obtain one at http://mozilla.org/MPL/2.0/. -->
<svg xmlns="http://www.w3.org/2000/svg" viewBox="0 0 800 544"><g><rect fill="context-fill" width="800" height="544"/><path fill="context-stroke" d="m757.55,285.17c-12.67-8.04-26.14-11.15-39.81-10.1,61.75-112.2,84.94-212.44,26.3-246.06-46.7-26.77-104.88,4-164.03,67.69-.55-30.49-11.07-54.43-34.57-69.41-42.59-27.16-95.99,1.02-149.22,58.78-2.01-25.29-10.94-44.43-27.78-54.78-43.67-26.82-97.62-1.05-152.84,54.63.03-26.59-8.19-47.82-25.16-57.63C145.45,2.29,95.93,37.71,55.45,102.29,13.45,169.29-4.05,231.78,42.45,261.29c12.67,8.04,26.14,11.15,39.81,10.1-61.75,112.2-84.94,212.44-26.3,246.06,46.09,26.42,103.36-3.22,161.72-65.23,1.49,30.5,13.21,53.51,37.77,66.07,45.2,23.1,96.48-3.24,148.14-60.7,1.56,26.68,10.5,46.86,27.97,57.59,43.67,26.82,97.62,1.05,152.84-54.63-.03,26.59,8.19,47.82,25.16,57.63,45,26,94.52-9.42,135-74,42-67,59.5-129.49,13-159Z"/><circle fill="context-fill" cx="400" cy="272" r="160"/></g></svg>
