<!-- This Source Code Form is subject to the terms of the Mozilla Public
   - License, v. 2.0. If a copy of the MPL was not distributed with this
   - file, You can obtain one at http://mozilla.org/MPL/2.0/. -->
<svg xmlns="http://www.w3.org/2000/svg" viewBox="0 0 800 544"><g><rect fill="context-fill" width="800" height="544"/><path fill="context-stroke" d="m670.29,433.81c17.26-16.69,32.71-32.85,44.94-45.81,51.76-54.81,95-129,65-154-24.62-20.52-90.03,20.51-145.63,67.02,6.56-6.72,13.12-13.73,19.63-21.02,92-103,137.63-206.09,104-236-29.72-26.43-116.8,10.27-196.18,86.08,21.83-43.5,25.26-81.2,4.53-96.55-22.79-16.88-62.91-2.08-100.86,35.93-12.89-42.26-31.75-53.45-64.37-53.45-29.93,0-52.59,12.07-63.99,55.31-38.49-39.39-79.55-54.94-102.71-37.79-20.73,15.35-17.29,53.05,4.53,96.55C159.8,54.27,72.72,17.57,43,44c-33.63,29.91,12,133,104,236,6.51,7.29,13.06,14.3,19.63,21.02-55.6-46.51-121.01-87.54-145.63-67.02-30,25,13.24,99.19,65,154,12.23,12.96,27.68,29.12,44.94,45.81-39.28-18.62-82.05-30.66-94.15-6.9-10.4,20.42,4.21,50.09,58.96,79.09,43.68,23.14,92.25,29,102.25,12,4.2-7.15,1.8-17.93-3.44-29.32,41.08,30.34,83.19,49.68,113.44,33.32,11.3-6.12,15.3-22.12,14.66-40.33,22.75,34.65,43.67,46.33,79.18,46.33s56.12-11.66,76.66-42.34c.05,16.52,4.26,30.67,14.73,36.34,30.25,16.36,72.36-2.98,113.44-33.32-5.25,11.39-7.65,22.17-3.44,29.32,10,17,58.57,11.14,102.25-12,54.75-29,69.37-58.67,58.96-79.09-12.1-23.76-54.88-11.72-94.15,6.9Z"/><circle fill="context-fill" cx="400" cy="272" r="160"/></g></svg>
