<!-- This Source Code Form is subject to the terms of the Mozilla Public
   - License, v. 2.0. If a copy of the MPL was not distributed with this
   - file, You can obtain one at http://mozilla.org/MPL/2.0/. -->
<svg xmlns="http://www.w3.org/2000/svg" viewBox="0 0 800 544"><g><rect fill="context-fill" width="800" height="544"/><path fill="context-stroke" d="m693.13,368.47c52.92-12.08,82.91-42.47,82.91-82.39s-31.72-74.65-83.69-89.38c81.73-41.03,99.41-94.57,69.69-140.62-32.04-49.65-121-35-195,22-10.86,8.37-22.81,20.35-34.11,33.9,10.49-50.79,4.32-80.83-19.89-91.9-35-16-82.89,13.59-105,66-2.52,5.98-4.51,12.09-6.01,18.24-1.51-6.18-3.5-12.32-6.03-18.33-22.11-52.41-70-82-105-66-24.21,11.07-30.39,41.11-19.89,91.9-11.29-13.54-23.24-25.53-34.11-33.9C163,21,74.04,6.35,42,56c-29.72,46.06-12.04,99.59,69.69,140.62-51.97,14.73-83.69,49.2-83.69,89.38s29.98,70.31,82.91,82.39c-84.52,54.19-90.89,110.64-74.91,131.61,32,42,130.92,22.9,205-34,8.15-6.26,15.68-12.56,22.61-18.85-7.84,38.42-2.89,62.92,20.39,75.85,36,20,89.17-15.82,114-67,1.5-3.1,2.83-6.22,4-9.37,1.18,3.18,2.52,6.34,4.04,9.46,24.83,51.18,78,87,114,67,23.28-12.93,28.24-37.43,20.39-75.85,6.92,6.29,14.45,12.59,22.61,18.85,74.08,56.9,173,76,205,34,15.98-20.97,9.62-77.43-74.91-131.61Z"/><circle fill="context-fill" cx="400" cy="272" r="160"/></g></svg>
