<!-- This Source Code Form is subject to the terms of the Mozilla Public
   - License, v. 2.0. If a copy of the MPL was not distributed with this
   - file, You can obtain one at http://mozilla.org/MPL/2.0/. -->
<svg xmlns="http://www.w3.org/2000/svg" viewBox="0 0 800 544"><g><rect fill="context-fill" x="0" width="800" height="544"/><path fill="context-stroke" d="m766.49,301.82c18.43-37.19-9.41-88.25-64.67-121.53,64.3-41.64,83.15-80.93,60.03-123.8-22.48-41.69-123.17-35.75-216.21,18.36-6.67-34.58-25.51-57.45-50.66-60.4-52.95-6.21-88.3,18.24-111.61,53.97-11.02-31.8-35.71-53.8-70.98-53.01-39.39.89-70.52,24.69-90.78,72.85C162.87,30.02,101.17-2.65,52.02,35.02c-34.85,26.71-24.64,100.32,30.43,171.72-23.78,4.1-42.52,15-51.22,32.55-18.43,37.19,9.41,88.25,64.67,121.53-64.3,41.64-83.15,80.93-60.03,123.8,22.49,41.7,123.25,35.75,216.33-18.43,6.74,34.32,25.52,57.02,50.57,59.96,52.95,6.21,88.3-18.24,111.61-53.97,11.02,31.8,35.71,53.8,70.98,53.01,39.39-.89,70.52-24.69,90.78-72.85,58.74,58.25,120.43,90.92,169.58,53.25,34.77-26.65,24.69-100.01-30.08-171.27,23.6-4.15,42.2-15.03,50.85-32.49Z"/><circle fill="context-fill" cx="400" cy="272" r="160"/></g></svg>
