<!-- This Source Code Form is subject to the terms of the Mozilla Public
   - License, v. 2.0. If a copy of the MPL was not distributed with this
   - file, You can obtain one at http://mozilla.org/MPL/2.0/. -->
<svg xmlns="http://www.w3.org/2000/svg" xml:space="preserve" style="fill-rule:evenodd;clip-rule:evenodd;stroke-linejoin:round;stroke-miterlimit:2" viewBox="0 0 2048 320"><path d="M0 0h2048v320H0z" style="fill:#00a4ff"/><path d="M478.711 166.353c-10.445-25.124-31.6-52.248-48.212-60.821 13.52 26.505 21.345 53.093 24.335 72.936 0 .039.015.136.047.4C427.706 111.135 381.627 83.823 344 24.355c-1.9-3.007-3.805-6.022-5.661-9.2-.945-1.623-1.828-3.282-2.646-4.972-1.563-3.018-2.769-6.208-3.593-9.506.012-.322-.227-.603-.546-.644-.147-.042-.304-.042-.451 0-.034.012-.084.051-.12.065-.053.021-.12.069-.176.1.027-.036.083-.117.1-.136-60.37 35.356-80.85 100.761-82.732 133.484-24.104 1.657-47.159 10.541-66.142 25.488-1.988-1.679-4.066-3.248-6.225-4.7-5.477-19.163-5.71-39.449-.674-58.732-24.688 11.241-43.89 29.01-57.85 44.7h-.111c-9.527-12.067-8.855-51.873-8.312-60.184-.114-.515-7.107 3.63-8.023 4.255-8.407 6.001-16.266 12.734-23.486 20.12-8.216 8.332-15.722 17.334-22.442 26.913 0 .012-.007.026-.011.038 0-.013.007-.026.011-.038-15.453 21.899-26.414 46.645-32.247 72.805-.115.521-.212 1.061-.324 1.586-.452 2.116-2.08 12.7-2.365 15-.022.177-.032.347-.053.524-2.105 10.943-3.408 22.025-3.9 33.157 0 .41-.025.816-.025 1.227C16 388.418 123.6 496 256.324 496c118.865 0 217.56-86.288 236.882-199.63.407-3.076.733-6.168 1.092-9.271 4.777-41.21-.53-84.525-15.587-120.746ZM201.716 354.447c1.124.537 2.18 1.124 3.334 1.639.048.033.114.07.163.1-1.175-.562-2.34-1.141-3.497-1.739ZM454.9 178.927l-.032-.233c.012.085.027.174.04.259l-.008-.026Z" style="fill:url(#a);fill-rule:nonzero" transform="matrix(.54688 0 0 .54688 20 20)"/><path d="M478.711 166.353c-10.445-25.124-31.6-52.248-48.212-60.821 13.52 26.505 21.345 53.093 24.335 72.936 0-.058.011.048.036.226.012.085.027.174.04.259 22.675 61.47 10.322 123.978-7.479 162.175-27.539 59.1-94.215 119.67-198.576 116.716C136.1 454.651 36.766 370.988 18.223 261.41c-3.379-17.28 0-26.054 1.7-40.084-2.071 10.816-2.86 13.94-3.9 33.157 0 .41-.025.816-.025 1.227C16 388.418 123.6 496 256.324 496c118.865 0 217.56-86.288 236.882-199.63.407-3.076.733-6.168 1.092-9.271 4.777-41.21-.53-84.525-15.587-120.746Z" style="fill:url(#b);fill-rule:nonzero" transform="matrix(.54688 0 0 .54688 20 20)"/><path d="M478.711 166.353c-10.445-25.124-31.6-52.248-48.212-60.821 13.52 26.505 21.345 53.093 24.335 72.936 0-.058.011.048.036.226.012.085.027.174.04.259 22.675 61.47 10.322 123.978-7.479 162.175-27.539 59.1-94.215 119.67-198.576 116.716C136.1 454.651 36.766 370.988 18.223 261.41c-3.379-17.28 0-26.054 1.7-40.084-2.071 10.816-2.86 13.94-3.9 33.157 0 .41-.025.816-.025 1.227C16 388.418 123.6 496 256.324 496c118.865 0 217.56-86.288 236.882-199.63.407-3.076.733-6.168 1.092-9.271 4.777-41.21-.53-84.525-15.587-120.746Z" style="fill:url(#c);fill-rule:nonzero" transform="matrix(.54688 0 0 .54688 20 20)"/><path d="M361.922 194.6c.524.368 1 .734 1.493 1.1-6.031-10.704-13.542-20.505-22.31-29.112C266.4 91.892 321.516 4.626 330.811.194c.027-.036.083-.117.1-.136-60.37 35.356-80.85 100.761-82.732 133.484 2.8-.194 5.592-.429 8.442-.429 45.051 0 84.289 24.77 105.301 61.487Z" style="fill:url(#d);fill-rule:nonzero" transform="matrix(.54688 0 0 .54688 20 20)"/><path d="M256.772 209.514c-.393 5.978-21.514 26.593-28.9 26.593-68.339 0-79.432 41.335-79.432 41.335 3.027 34.81 27.261 63.475 56.611 78.643 1.339.692 2.694 1.317 4.05 1.935 2.325 1.029 4.679 1.992 7.059 2.886 10.063 3.563 20.604 5.596 31.271 6.031 119.78 5.618 142.986-143.194 56.545-186.408 22.137-3.85 45.115 5.053 57.947 14.067-21.012-36.714-60.25-61.484-105.3-61.484-2.85 0-5.641.235-8.442.429-24.104 1.657-47.159 10.541-66.142 25.488 3.664 3.1 7.8 7.244 16.514 15.828 16.302 16.067 58.13 32.705 58.219 34.657Z" style="fill:url(#e);fill-rule:nonzero" transform="matrix(.54688 0 0 .54688 20 20)"/><path d="M256.772 209.514c-.393 5.978-21.514 26.593-28.9 26.593-68.339 0-79.432 41.335-79.432 41.335 3.027 34.81 27.261 63.475 56.611 78.643 1.339.692 2.694 1.317 4.05 1.935 2.325 1.029 4.679 1.992 7.059 2.886 10.063 3.563 20.604 5.596 31.271 6.031 119.78 5.618 142.986-143.194 56.545-186.408 22.137-3.85 45.115 5.053 57.947 14.067-21.012-36.714-60.25-61.484-105.3-61.484-2.85 0-5.641.235-8.442.429-24.104 1.657-47.159 10.541-66.142 25.488 3.664 3.1 7.8 7.244 16.514 15.828 16.302 16.067 58.13 32.705 58.219 34.657Z" style="fill:url(#f);fill-rule:nonzero" transform="matrix(.54688 0 0 .54688 20 20)"/><path d="M170.829 151.036c1.674 1.08 3.334 2.18 4.981 3.3-5.477-19.163-5.71-39.449-.674-58.732-24.688 11.241-43.89 29.01-57.85 44.7 1.155-.033 36.014-.66 53.543 10.732Z" style="fill:url(#g);fill-rule:nonzero" transform="matrix(.54688 0 0 .54688 20 20)"/><path d="M18.223 261.41C36.766 370.988 136.1 454.651 248.855 457.844c104.361 2.954 171.037-57.62 198.576-116.716 17.8-38.2 30.154-100.7 7.479-162.175l-.008-.026-.032-.233c-.025-.178-.04-.284-.036-.226 0 .039.015.136.047.4 8.524 55.661-19.79 109.584-64.051 146.044l-.133.313c-86.245 70.223-168.774 42.368-185.484 30.966-1.174-.565-2.341-1.146-3.5-1.743-50.282-24.029-71.054-69.838-66.6-109.124-42.457 0-56.934-35.809-56.934-35.809s38.119-27.179 88.358-3.541c46.53 21.893 90.228 3.543 90.233 3.541-.089-1.952-41.917-18.59-58.223-34.656-8.713-8.584-12.85-12.723-16.514-15.828-1.988-1.679-4.066-3.248-6.225-4.7-1.649-1.118-3.309-2.218-4.981-3.3-17.528-11.392-52.388-10.765-53.543-10.735h-.111c-9.527-12.067-8.855-51.873-8.312-60.184-.114-.515-7.107 3.63-8.023 4.255-8.407 6.001-16.266 12.734-23.486 20.12-8.216 8.334-15.723 17.338-22.442 26.919 0 .012-.007.026-.011.038 0-.013.007-.026.011-.038-15.453 21.899-26.414 46.645-32.247 72.805-.115.521-8.65 37.842-4.44 57.199Z" style="fill:url(#h);fill-rule:nonzero" transform="matrix(.54688 0 0 .54688 20 20)"/><path d="M341.105 166.587c8.768 8.607 16.279 18.408 22.31 29.112 1.323.994 2.559 1.985 3.608 2.952 54.482 50.2 25.936 121.2 23.807 126.26 44.261-36.46 72.575-90.383 64.051-146.044C427.706 111.135 381.627 83.823 344 24.355c-1.9-3.007-3.805-6.022-5.661-9.2-.945-1.623-1.828-3.282-2.646-4.972-1.563-3.018-2.769-6.208-3.593-9.506.012-.322-.227-.603-.546-.644-.147-.042-.304-.042-.451 0-.034.012-.084.051-.12.065-.053.021-.12.069-.176.1-9.291 4.428-64.407 91.694 10.298 166.389Z" style="fill:url(#i);fill-rule:nonzero" transform="matrix(.54688 0 0 .54688 20 20)"/><path d="M367.023 198.651c-1.049-.967-2.285-1.958-3.608-2.952-.489-.368-.969-.734-1.493-1.1-12.832-9.014-35.81-17.917-57.947-14.067 86.441 43.214 63.235 192.026-56.545 186.408-10.667-.435-21.208-2.468-31.271-6.031-2.38-.895-4.734-1.857-7.059-2.886-1.356-.618-2.711-1.243-4.05-1.935.048.033.114.07.163.1 16.71 11.4 99.239 39.257 185.484-30.966l.133-.313c2.129-5.054 30.675-76.057-23.807-126.258Z" style="fill:url(#j);fill-rule:nonzero" transform="matrix(.54688 0 0 .54688 20 20)"/><path d="M148.439 277.443s11.093-41.335 79.432-41.335c7.388 0 28.509-20.615 28.9-26.593.391-5.978-43.7 18.352-90.233-3.541-50.239-23.638-88.358 3.541-88.358 3.541s14.477 35.809 56.934 35.809c-4.453 39.286 16.319 85.1 66.6 109.124 1.124.537 2.18 1.124 3.334 1.639-29.348-15.169-53.582-43.834-56.609-78.644Z" style="fill:url(#k);fill-rule:nonzero" transform="matrix(.54688 0 0 .54688 20 20)"/><path d="M478.711 166.353c-10.445-25.124-31.6-52.248-48.212-60.821 13.52 26.505 21.345 53.093 24.335 72.936 0 .039.015.136.047.4C427.706 111.135 381.627 83.823 344 24.355c-1.9-3.007-3.805-6.022-5.661-9.2-.945-1.623-1.828-3.282-2.646-4.972-1.563-3.018-2.769-6.208-3.593-9.506.012-.322-.227-.603-.546-.644-.147-.042-.304-.042-.451 0-.034.012-.084.051-.12.065-.053.021-.12.069-.176.1.027-.036.083-.117.1-.136-60.37 35.356-80.85 100.761-82.732 133.484 2.8-.194 5.592-.429 8.442-.429 45.053 0 84.291 24.77 105.3 61.484-12.832-9.014-35.81-17.917-57.947-14.067 86.441 43.214 63.235 192.026-56.545 186.408-10.667-.435-21.208-2.468-31.271-6.031-2.38-.895-4.734-1.857-7.059-2.886-1.356-.618-2.711-1.243-4.05-1.935.048.033.114.07.163.1-1.174-.565-2.341-1.146-3.5-1.743 1.124.537 2.18 1.124 3.334 1.639-29.35-15.168-53.584-43.833-56.611-78.643 0 0 11.093-41.335 79.432-41.335 7.388 0 28.509-20.615 28.9-26.593-.089-1.952-41.917-18.59-58.223-34.656-8.713-8.584-12.85-12.723-16.514-15.828-1.988-1.679-4.066-3.248-6.225-4.7-5.477-19.163-5.71-39.449-.674-58.732-24.688 11.241-43.89 29.01-57.85 44.7h-.111c-9.527-12.067-8.855-51.873-8.312-60.184-.114-.515-7.107 3.63-8.023 4.255-8.407 6.001-16.266 12.734-23.486 20.12-8.213 8.333-15.718 17.336-22.435 26.916 0 .012-.007.026-.011.038 0-.013.007-.026.011-.038-15.453 21.899-26.414 46.645-32.247 72.805-.115.521-.212 1.061-.324 1.586-.452 2.116-2.486 12.853-2.77 15.156-.022.177.021-.176 0 0-1.855 11.095-3.038 22.292-3.544 33.53 0 .41-.025.816-.025 1.227C16 388.418 123.6 496 256.324 496c118.865 0 217.56-86.288 236.882-199.63.407-3.076.733-6.168 1.092-9.271 4.777-41.21-.53-84.525-15.587-120.746Zm-23.841 12.341c.012.085.027.174.04.259l-.008-.026-.032-.233Z" style="fill:url(#l);fill-rule:nonzero" transform="matrix(.54688 0 0 .54688 20 20)"/><path d="M.6-.554v-.133H.071V0h.148v-.272h.345v-.133H.219v-.149H.6Z" style="fill:#fff;fill-rule:nonzero" transform="matrix(144 0 0 144 329.3833 211.5739)"/><path d="M.13-.588c.043 0 .079-.036.079-.08 0-.041-.036-.078-.079-.078-.045 0-.08.037-.08.078 0 .044.035.08.08.08ZM.056 0h.146v-.517H.056V0Z" style="fill:#fff;fill-rule:nonzero" transform="matrix(144 0 0 144 421.3993 211.5739)"/><path d="M.202-.42v-.097H.056V0h.146v-.247c0-.097.069-.159.177-.159v-.123C.3-.529.236-.487.202-.42Z" style="fill:#fff;fill-rule:nonzero" transform="matrix(144 0 0 144 458.6953 211.5739)"/><path d="M.298-.101C.227-.101.178-.15.165-.22h.39c0-.192-.098-.309-.26-.309-.151 0-.269.113-.269.269 0 .159.123.272.277.272.076 0 .165-.032.211-.08L.432-.152c-.033.03-.087.051-.134.051ZM.296-.416c.066 0 .107.045.119.109H.166c.016-.066.065-.109.13-.109Z" style="fill:#fff;fill-rule:nonzero" transform="matrix(144 0 0 144 514.4233 211.5739)"/><path d="M.238-.545c0-.034.021-.058.048-.058.02 0 .04.007.05.017l.035-.089C.341-.702.294-.72.253-.72c-.092 0-.156.065-.156.158v.045H.026v.118h.071V0h.141v-.399H.35v-.118H.238v-.028Z" style="fill:#fff;fill-rule:nonzero" transform="matrix(144 0 0 144 594.7753 211.5739)"/><path d="M.307.012c.155 0 .282-.122.282-.271 0-.149-.127-.27-.282-.27-.155 0-.282.121-.282.27 0 .149.127.271.282.271Zm0-.123c-.078 0-.142-.067-.142-.148 0-.081.064-.147.142-.147.078 0 .142.066.142.147 0 .081-.064.148-.142.148Z" style="fill:#fff;fill-rule:nonzero" transform="matrix(144 0 0 144 647.3353 211.5739)"/><path d="m.553 0-.19-.266.181-.251H.39l-.104.144-.103-.144H.025l.182.254L.017 0h.154l.113-.156L.396 0h.157Z" style="fill:#fff;fill-rule:nonzero" transform="matrix(144 0 0 144 729.7033 211.5739)"/><path d="M.078 0h.327c.119 0 .204-.078.204-.188 0-.075-.046-.137-.125-.177.062-.036.098-.078.098-.151 0-.1-.078-.171-.189-.171H.078V0Zm.078-.396v-.22h.217c.076 0 .13.046.13.11s-.054.11-.13.11H.156Zm0 .325v-.254h.229c.085 0 .145.053.145.127 0 .074-.06.127-.145.127H.156Z" style="fill:#fff;fill-rule:nonzero" transform="matrix(144 0 0 144 851.3833 211.5739)"/><path d="M.132-.416v-.101H.057V0h.075v-.289c0-.101.083-.173.2-.173v-.067c-.095 0-.169.044-.2.113Z" style="fill:#fff;fill-rule:nonzero" transform="matrix(144 0 0 144 946.5713 211.5739)"/><path d="M.302.012c.146 0 .266-.122.266-.271 0-.149-.12-.27-.266-.27-.147 0-.267.121-.267.27 0 .149.12.271.267.271Zm0-.067c-.104 0-.189-.092-.189-.204 0-.112.085-.203.189-.203.103 0 .188.091.188.203 0 .112-.085.204-.188.204Z" style="fill:#fff;fill-rule:nonzero" transform="matrix(144 0 0 144 992.9313 211.5739)"/><path d="M.202 0h.071l.139-.413L.549 0H.62l.174-.517h-.08L.585-.1.444-.517H.379L.238-.1.109-.517h-.08L.202 0Z" style="fill:#fff;fill-rule:nonzero" transform="matrix(144 0 0 144 1075.4513 211.5739)"/><path d="M.243.012c.107 0 .189-.061.189-.156 0-.098-.086-.126-.169-.152C.167-.327.129-.341.129-.386c0-.05.048-.076.106-.076.046 0 .097.016.149.049L.42-.471C.365-.507.299-.529.235-.529c-.103 0-.181.058-.181.152 0 .074.048.111.173.147.07.02.13.038.13.094 0 .049-.046.081-.114.081-.057 0-.116-.022-.175-.065l-.039.055c.062.05.142.077.214.077Z" style="fill:#fff;fill-rule:nonzero" transform="matrix(144 0 0 144 1188.2013 211.5739)"/><path d="M.297-.055C.195-.055.124-.129.113-.23h.423c0-.181-.089-.299-.245-.299-.139 0-.255.115-.255.269 0 .159.124.272.262.272.072 0 .163-.031.208-.08L.46-.117c-.032.035-.102.062-.163.062ZM.294-.462c.103 0 .158.072.168.165H.114c.014-.1.088-.165.18-.165Z" style="fill:#fff;fill-rule:nonzero" transform="matrix(144 0 0 144 1253.0013 211.5739)"/><path d="M.132-.416v-.101H.057V0h.075v-.289c0-.101.083-.173.2-.173v-.067c-.095 0-.169.044-.2.113Z" style="fill:#fff;fill-rule:nonzero" transform="matrix(144 0 0 144 1334.7913 211.5739)"/><defs><radialGradient id="b" cx="0" cy="0" r="1" gradientTransform="translate(855.041 55.1616) scale(614.402)" gradientUnits="userSpaceOnUse"><stop offset="0" style="stop-color:#ffbd4f;stop-opacity:1"/><stop offset=".13" style="stop-color:#ffbd4f;stop-opacity:1"/><stop offset=".28" style="stop-color:#ff980e;stop-opacity:1"/><stop offset=".47" style="stop-color:#ff3750;stop-opacity:1"/><stop offset=".78" style="stop-color:#eb0878;stop-opacity:1"/><stop offset=".86" style="stop-color:#e50080;stop-opacity:1"/><stop offset="1" style="stop-color:#e50080;stop-opacity:1"/></radialGradient><radialGradient id="c" cx="0" cy="0" r="1" gradientTransform="translate(486.4 417.906) scale(614.402)" gradientUnits="userSpaceOnUse"><stop offset="0" style="stop-color:#960e18;stop-opacity:1"/><stop offset=".3" style="stop-color:#960e18;stop-opacity:1"/><stop offset=".35" style="stop-color:#b11927;stop-opacity:.74"/><stop offset=".43" style="stop-color:#db293d;stop-opacity:.34"/><stop offset=".5" style="stop-color:#f5334b;stop-opacity:.09"/><stop offset=".53" style="stop-color:#ff3750;stop-opacity:0"/><stop offset="1" style="stop-color:#ff3750;stop-opacity:0"/></radialGradient><radialGradient id="d" cx="0" cy="0" r="1" gradientTransform="translate(303.492 -23.419) scale(273.899)" gradientUnits="userSpaceOnUse"><stop offset="0" style="stop-color:#fff44f;stop-opacity:1"/><stop offset=".13" style="stop-color:#fff44f;stop-opacity:1"/><stop offset=".53" style="stop-color:#ff980e;stop-opacity:1"/><stop offset="1" style="stop-color:#ff980e;stop-opacity:1"/></radialGradient><radialGradient id="e" cx="0" cy="0" r="1" gradientTransform="translate(197.029 390.747) scale(233.98)" gradientUnits="userSpaceOnUse"><stop offset="0" style="stop-color:#3a8ee6;stop-opacity:1"/><stop offset=".35" style="stop-color:#3a8ee6;stop-opacity:1"/><stop offset=".67" style="stop-color:#9059ff;stop-opacity:1"/><stop offset="1" style="stop-color:#c139e6;stop-opacity:1"/></radialGradient><radialGradient id="f" cx="0" cy="0" r="1" gradientTransform="matrix(124.243 0 0 138.048 248.35 210.325)" gradientUnits="userSpaceOnUse"><stop offset="0" style="stop-color:#9059ff;stop-opacity:0"/><stop offset=".21" style="stop-color:#9059ff;stop-opacity:0"/><stop offset=".97" style="stop-color:#6e008b;stop-opacity:.6"/><stop offset="1" style="stop-color:#6e008b;stop-opacity:.6"/></radialGradient><radialGradient id="g" cx="0" cy="0" r="1" gradientTransform="translate(240.186 36.872) scale(170.323)" gradientUnits="userSpaceOnUse"><stop offset="0" style="stop-color:#ffe226;stop-opacity:1"/><stop offset=".1" style="stop-color:#ffe226;stop-opacity:1"/><stop offset=".79" style="stop-color:#ff7139;stop-opacity:1"/><stop offset="1" style="stop-color:#ff7139;stop-opacity:1"/></radialGradient><radialGradient id="h" cx="0" cy="0" r="1" gradientTransform="translate(395.187 -74.863) scale(810.278)" gradientUnits="userSpaceOnUse"><stop offset="0" style="stop-color:#fff44f;stop-opacity:1"/><stop offset=".11" style="stop-color:#fff44f;stop-opacity:1"/><stop offset=".46" style="stop-color:#ff980e;stop-opacity:1"/><stop offset=".72" style="stop-color:#ff3647;stop-opacity:1"/><stop offset=".9" style="stop-color:#e31587;stop-opacity:1"/><stop offset="1" style="stop-color:#e31587;stop-opacity:1"/></radialGradient><radialGradient id="i" cx="0" cy="0" r="1" gradientTransform="translate(351.912 -122.165) scale(1133.29)" gradientUnits="userSpaceOnUse"><stop offset="0" style="stop-color:#fff44f;stop-opacity:1"/><stop offset=".3" style="stop-color:#ff980e;stop-opacity:1"/><stop offset=".57" style="stop-color:#ff3647;stop-opacity:1"/><stop offset=".74" style="stop-color:#e31587;stop-opacity:1"/><stop offset="1" style="stop-color:#e31587;stop-opacity:1"/></radialGradient><radialGradient id="j" cx="0" cy="0" r="1" gradientTransform="translate(241.932 98.1327) scale(465.218)" gradientUnits="userSpaceOnUse"><stop offset="0" style="stop-color:#fff44f;stop-opacity:1"/><stop offset=".14" style="stop-color:#fff44f;stop-opacity:1"/><stop offset=".48" style="stop-color:#ff980e;stop-opacity:1"/><stop offset=".66" style="stop-color:#ff3647;stop-opacity:1"/><stop offset=".9" style="stop-color:#e31587;stop-opacity:1"/><stop offset="1" style="stop-color:#e31587;stop-opacity:1"/></radialGradient><radialGradient id="k" cx="0" cy="0" r="1" gradientTransform="translate(362.68 124.863) scale(559.177)" gradientUnits="userSpaceOnUse"><stop offset="0" style="stop-color:#fff44f;stop-opacity:1"/><stop offset=".09" style="stop-color:#fff44f;stop-opacity:1"/><stop offset=".63" style="stop-color:#ff980e;stop-opacity:1"/><stop offset="1" style="stop-color:#ff980e;stop-opacity:1"/></radialGradient><linearGradient id="a" x1="0" x2="1" y1="0" y2="0" gradientTransform="rotate(134.1532 201.14302144 130.37830223) scale(536.454)" gradientUnits="userSpaceOnUse"><stop offset="0" style="stop-color:#fff44f;stop-opacity:1"/><stop offset=".05" style="stop-color:#fff44f;stop-opacity:1"/><stop offset=".37" style="stop-color:#ff980e;stop-opacity:1"/><stop offset=".53" style="stop-color:#ff3647;stop-opacity:1"/><stop offset=".7" style="stop-color:#e31587;stop-opacity:1"/><stop offset="1" style="stop-color:#e31587;stop-opacity:1"/></linearGradient><linearGradient id="l" x1="0" x2="1" y1="0" y2="0" gradientTransform="matrix(-297.6 347.199 -347.199 -297.6 400 69.4411)" gradientUnits="userSpaceOnUse"><stop offset="0" style="stop-color:#fff44f;stop-opacity:.8"/><stop offset=".17" style="stop-color:#fff44f;stop-opacity:.8"/><stop offset=".6" style="stop-color:#fff44f;stop-opacity:0"/><stop offset="1" style="stop-color:#fff44f;stop-opacity:0"/></linearGradient></defs></svg>
