<!-- This Source Code Form is subject to the terms of the Mozilla Public
   - License, v. 2.0. If a copy of the MPL was not distributed with this
   - file, You can obtain one at http://mozilla.org/MPL/2.0/. -->
<svg xmlns="http://www.w3.org/2000/svg" width="329" height="114" fill="none"><g clip-path="url(#a)"><path fill="#fff" d="M0 0h329v114H0z"/><g clip-path="url(#b)"><path fill="#EAE1FF" d="M.116 0h329v114h-329z"/><g filter="url(#c)"><rect width="43.673" height="43.673" x="23.236" y="34.022" fill="#fff" rx="9.264"/></g><g filter="url(#d)"><path fill="url(#e)" d="M61.725 50.175c-.765-1.84-2.315-3.825-3.528-4.453a18.3 18.3 0 0 1 1.779 5.338l.005.027c-1.988-4.954-5.36-6.955-8.114-11.306q-.213-.332-.413-.67a6 6 0 0 1-.193-.366 3.2 3.2 0 0 1-.274-.727.05.05 0 0 0-.03-.016.1.1 0 0 0-.034 0l-.008.006-.011.008.005-.014c-4.418 2.586-5.917 7.374-6.051 9.77a8.8 8.8 0 0 0-4.842 1.867 5 5 0 0 0-.456-.347 8.15 8.15 0 0 1-.048-4.297 13 13 0 0 0-4.233 3.273h-.008c-.697-.885-.65-3.798-.609-4.407a3 3 0 0 0-.585.314q-.925.657-1.719 1.472c-.602.61-1.152 1.27-1.644 1.972a14.85 14.85 0 0 0-2.36 5.327l-.022.115c-.035.153-.153.928-.175 1.1l-.005.038c-.153.799-.247 1.609-.284 2.422v.09a17.585 17.585 0 0 0 34.916 2.976l.08-.682a18.1 18.1 0 0 0-1.142-8.833zM41.457 63.941q.118.06.241.118l.013.008a9 9 0 0 1-.254-.126M59.98 51.092v-.016l.003.019h-.003z"/><path fill="url(#f)" d="M61.726 50.173c-.765-1.837-2.315-3.825-3.528-4.452a18.3 18.3 0 0 1 1.781 5.338v.035a15.93 15.93 0 0 1-.544 11.869c-2.017 4.324-6.894 8.758-14.53 8.54-8.249-.235-15.518-6.357-16.873-14.377-.25-1.26 0-1.904.124-2.932a13 13 0 0 0-.282 2.428v.091a17.588 17.588 0 0 0 34.914 2.972c.03-.225.053-.45.08-.681.362-2.994-.03-6.03-1.14-8.833h-.003z"/><path fill="url(#g)" d="M61.726 50.173c-.765-1.837-2.315-3.825-3.528-4.452a18.3 18.3 0 0 1 1.781 5.338v.035a15.93 15.93 0 0 1-.544 11.869c-2.017 4.324-6.894 8.758-14.53 8.54-8.249-.235-15.518-6.357-16.873-14.377-.25-1.26 0-1.904.124-2.932a13 13 0 0 0-.282 2.428v.091a17.588 17.588 0 0 0 34.914 2.972c.03-.225.053-.45.08-.681.362-2.994-.03-6.03-1.14-8.833h-.003z"/><path fill="url(#h)" d="m53.176 52.239.107.08a9.6 9.6 0 0 0-1.63-2.133c-5.468-5.466-1.433-11.85-.752-12.178l.005-.01c-4.417 2.588-5.917 7.376-6.054 9.769.207-.013.41-.03.617-.03a8.87 8.87 0 0 1 7.707 4.499z"/><path fill="url(#i)" d="M45.48 53.334c-.027.435-1.575 1.945-2.114 1.945-5 0-5.813 3.023-5.813 3.023.22 2.548 1.996 4.648 4.142 5.754.096.053.198.096.295.142q.26.116.517.212c.738.26 1.508.407 2.288.44 8.767.413 10.462-10.48 4.14-13.643a6.07 6.07 0 0 1 4.238 1.03 8.88 8.88 0 0 0-7.704-4.501c-.21 0-.413.019-.617.032a8.8 8.8 0 0 0-4.842 1.864c.268.229.572.532 1.207 1.16 1.194 1.177 4.255 2.395 4.263 2.537v.005"/><path fill="url(#j)" d="M45.48 53.334c-.027.435-1.575 1.945-2.114 1.945-5 0-5.813 3.023-5.813 3.023.22 2.548 1.996 4.648 4.142 5.754.096.053.198.096.295.142q.26.116.517.212c.738.26 1.508.407 2.288.44 8.767.413 10.462-10.48 4.14-13.643a6.07 6.07 0 0 1 4.238 1.03 8.88 8.88 0 0 0-7.704-4.501c-.21 0-.413.019-.617.032a8.8 8.8 0 0 0-4.842 1.864c.268.229.572.532 1.207 1.16 1.194 1.177 4.255 2.395 4.263 2.537v.005"/><path fill="url(#k)" d="M39.193 49.053c.142.091.257.169.362.241a8.15 8.15 0 0 1-.051-4.297 13 13 0 0 0-4.233 3.273c.086-.006 2.637-.051 3.922.783"/><path fill="url(#l)" d="M28.026 57.128c1.358 8.017 8.627 14.141 16.875 14.375 7.637.214 12.513-4.217 14.528-8.541a15.93 15.93 0 0 0 .547-11.87v-.032l.005.027c.623 4.077-1.448 8.02-4.688 10.692l-.011.021c-6.309 5.142-12.35 3.101-13.57 2.27a9 9 0 0 1-.255-.126c-3.68-1.76-5.201-5.11-4.874-7.986a4.52 4.52 0 0 1-4.166-2.62 6.64 6.64 0 0 1 6.465-.26 8.77 8.77 0 0 0 6.604.26c-.008-.145-3.069-1.363-4.262-2.538-.636-.628-.94-.93-1.207-1.159a5 5 0 0 0-.456-.343q-.18-.123-.362-.242c-1.283-.831-3.834-.788-3.917-.785h-.008c-.697-.886-.649-3.796-.609-4.405a3 3 0 0 0-.587.311q-.927.661-1.717 1.476a15.3 15.3 0 0 0-1.652 1.966 14.9 14.9 0 0 0-2.36 5.327c-.009.035-.634 2.766-.325 4.184z"/><path fill="url(#m)" d="M51.65 50.19a9.6 9.6 0 0 1 1.636 2.132c.094.072.188.145.263.214 3.986 3.675 1.897 8.87 1.744 9.238 3.237-2.666 5.306-6.614 4.686-10.689-1.99-4.96-5.365-6.96-8.114-11.312q-.213-.33-.413-.67a6 6 0 0 1-.194-.365 3.2 3.2 0 0 1-.273-.727.05.05 0 0 0-.03-.016.06.06 0 0 0-.035 0l-.008.006-.01.008c-.682.321-4.716 6.708.75 12.172v.008z"/><path fill="url(#n)" d="M53.549 52.536a4 4 0 0 0-.266-.214l-.107-.08a6.07 6.07 0 0 0-4.241-1.03c6.325 3.162 4.627 14.052-4.139 13.642a7.8 7.8 0 0 1-2.288-.44 9 9 0 0 1-.81-.354l.01.008c1.221.834 7.26 2.873 13.573-2.27l.008-.02c.156-.368 2.246-5.564-1.743-9.239z"/><path fill="url(#o)" d="M37.553 58.299s.81-3.023 5.813-3.023c.539 0 2.087-1.51 2.114-1.948a8.76 8.76 0 0 1-6.602-.26 6.63 6.63 0 0 0-6.464.26 4.52 4.52 0 0 0 4.163 2.62c-.325 2.876 1.196 6.224 4.874 7.986l.244.121c-2.146-1.11-3.922-3.208-4.142-5.754z"/><path fill="url(#p)" d="M61.725 50.175c-.765-1.84-2.315-3.825-3.53-4.453a18.3 18.3 0 0 1 1.78 5.338l.006.027c-1.99-4.954-5.36-6.955-8.114-11.306q-.213-.332-.413-.67-.105-.18-.196-.365a3.2 3.2 0 0 1-.274-.727.05.05 0 0 0-.026-.017.1.1 0 0 0-.035 0l-.008.006-.014.008.008-.014c-4.418 2.586-5.917 7.374-6.051 9.77.204-.014.408-.03.617-.03a8.87 8.87 0 0 1 7.703 4.499 6.07 6.07 0 0 0-4.238-1.03c6.323 3.165 4.627 14.052-4.139 13.645a7.8 7.8 0 0 1-2.288-.443 10 10 0 0 1-.517-.212c-.1-.045-.199-.088-.295-.142l.01.008a10 10 0 0 1-.255-.126l.242.118c-2.146-1.108-3.919-3.205-4.142-5.751 0 0 .813-3.026 5.813-3.026.542 0 2.09-1.51 2.117-1.947-.009-.142-3.07-1.36-4.263-2.535-.636-.628-.939-.93-1.207-1.159a5 5 0 0 0-.456-.343 8.15 8.15 0 0 1-.048-4.3 13 13 0 0 0-4.233 3.273h-.008c-.697-.886-.646-3.796-.606-4.405-.207.08-.403.188-.59.311q-.924.66-1.717 1.473c-.6.609-1.153 1.269-1.644 1.971a14.9 14.9 0 0 0-2.36 5.328l-.022.115c-.035.156-.183.939-.204 1.11q-.203 1.216-.26 2.452v.091a17.588 17.588 0 0 0 34.916 2.972l.08-.678a18.1 18.1 0 0 0-1.142-8.836zm-1.744.904v.016-.019z"/></g><path fill="#000" d="M75.75 57.256v-9.183h5.575v1.03h-4.43v3.157h4.067v1.019h-4.067v3.977zm7.344 0v-6.86h1.108v6.86zm.56-8.184a.75.75 0 0 1-.54-.223.75.75 0 0 1-.224-.54q0-.319.223-.542a.75.75 0 0 1 .541-.223q.319 0 .541.223a.74.74 0 0 1 .223.541.75.75 0 0 1-.223.541.74.74 0 0 1-.54.223m2.635 8.184v-6.86h1.107v1.018h.102q.198-.54.668-.84.472-.3 1.165-.3.159 0 .312.02.159.013.242.025v1.076a3 3 0 0 0-.338-.045 3 3 0 0 0-.343-.019q-.528 0-.936.21-.407.21-.643.586-.228.375-.229.878v4.251zm7.573.121q-.98 0-1.686-.433a2.87 2.87 0 0 1-1.082-1.222q-.376-.795-.376-1.87v-.007q0-1.063.376-1.865a3 3 0 0 1 1.075-1.253q.695-.452 1.623-.452.936 0 1.604.432.674.433 1.031 1.21.363.77.363 1.794v.433H91.29v-.885h4.932l-.547.809v-.44q0-.808-.242-1.33t-.668-.776a1.84 1.84 0 0 0-.98-.26q-.554 0-.993.273a1.85 1.85 0 0 0-.687.795q-.255.528-.255 1.299v.439q0 .732.248 1.253.248.516.707.796.458.274 1.082.274.465 0 .808-.128.345-.127.566-.324.223-.198.312-.401l.026-.057h1.107l-.013.05q-.09.35-.318.681a2.5 2.5 0 0 1-.579.592q-.357.261-.846.42a3.6 3.6 0 0 1-1.089.153m5.104-.12v-5.945h-1.139v-.916h1.14v-.764q0-1.025.508-1.521.51-.503 1.483-.503.204 0 .382.02.185.012.357.044v.884a2 2 0 0 0-.236-.025 6 6 0 0 0-.28-.006q-.592 0-.853.286-.254.285-.254.853v.731h1.559v.917h-1.559v5.944zm6.804.12q-.975 0-1.687-.426a2.9 2.9 0 0 1-1.094-1.229q-.382-.795-.382-1.89v-.013q0-1.1.382-1.896.387-.795 1.094-1.222.712-.426 1.687-.426.98 0 1.686.426a2.8 2.8 0 0 1 1.088 1.222q.389.796.389 1.896v.013q0 1.095-.389 1.89a2.84 2.84 0 0 1-1.088 1.229q-.707.426-1.686.426m0-.98q.648 0 1.101-.305.451-.306.687-.879.242-.573.242-1.38v-.014q0-.814-.242-1.387-.235-.572-.687-.872-.453-.306-1.101-.305-.65 0-1.101.305-.453.3-.694.872-.236.573-.236 1.387v.013q0 .809.236 1.381.241.573.694.879.452.305 1.101.305m4.015.86 2.349-3.431-2.374-3.43h1.305l1.629 2.552h.102l1.61-2.553h1.241l-2.329 3.386 2.361 3.475h-1.299l-1.622-2.59h-.102l-1.63 2.59z"/><path fill="#7542E4" d="M130.953 70.15q-.59 0-1.05-.234a2 2 0 0 1-.743-.632 1.9 1.9 0 0 1-.325-.91l-.005-.048h.761l.004.035q.04.303.22.554.184.246.479.39.299.146.668.146.421 0 .742-.185a1.33 1.33 0 0 0 .501-.518q.18-.33.18-.756v-.01q0-.421-.184-.746a1.3 1.3 0 0 0-.497-.514 1.4 1.4 0 0 0-.729-.185q-.317 0-.585.097a1.4 1.4 0 0 0-.47.29q-.083.08-.158.171-.07.092-.132.207h-.685l.334-3.643h3.528v.707h-2.904l-.216 2.145h.071q.21-.321.566-.488.357-.171.787-.171.599 0 1.059.276.462.273.725.752.264.475.264 1.09v.008q0 .638-.286 1.13-.28.487-.778.765a2.3 2.3 0 0 1-1.142.276m3.801-.106a.56.56 0 0 1-.404-.167.56.56 0 0 1-.167-.404q0-.238.167-.405a.56.56 0 0 1 .404-.167.55.55 0 0 1 .404.167.55.55 0 0 1 .167.405q0 .233-.167.404a.55.55 0 0 1-.404.167m3.933.105a2.3 2.3 0 0 1-.861-.167 2.1 2.1 0 0 1-.769-.54q-.344-.374-.549-.984-.207-.616-.207-1.512v-.009q0-1.08.29-1.846.29-.768.835-1.173.544-.41 1.314-.409.532 0 .958.198.43.193.716.545.291.347.396.817l.013.057h-.795l-.018-.048a1.28 1.28 0 0 0-.708-.756 1.5 1.5 0 0 0-.571-.105q-.576 0-.936.338-.36.334-.536.892a4.8 4.8 0 0 0-.202 1.336v.119l.189 1.055q0 .417.189.755.194.339.518.54.326.2.725.199a1.4 1.4 0 0 0 1.24-.725q.193-.334.193-.743v-.009q0-.422-.184-.747a1.3 1.3 0 0 0-.501-.514 1.4 1.4 0 0 0-.734-.19q-.41 0-.739.186a1.4 1.4 0 0 0-.518.51 1.4 1.4 0 0 0-.189.733v.005h-.259v-1.143h.153q.119-.26.352-.483.233-.225.571-.36.339-.137.765-.137.597 0 1.068.277.47.276.738.756.273.478.272 1.09v.008q0 .633-.29 1.125-.285.492-.786.778a2.3 2.3 0 0 1-1.143.281m3.591-.149v-6.341h.918l2.171 5.29h.07l2.171-5.29h.919V70h-.739v-4.843h-.386l.887-1.322L145.736 70h-.668l-2.549-6.166.884 1.323h-.387V70zM77.027 67.618l-1.495-1.241a.63.63 0 0 1 .016-.99.63.63 0 0 1 .348-.13l1.932-.126.262-.196.713-1.79a.63.63 0 0 1 .59-.4c.26 0 .49.157.588.399l.713 1.791.262.196 1.932.125a.63.63 0 0 1 .561.437.63.63 0 0 1-.197.684l-1.492 1.24-.094.308.475 1.869a.634.634 0 0 1-.953.692l-1.634-1.033h-.325l-1.633 1.033a.633.633 0 0 1-.954-.692l.475-1.864zM87.292 67.618l-1.495-1.241a.63.63 0 0 1-.197-.684.63.63 0 0 1 .561-.437l1.932-.125.262-.196.713-1.79a.632.632 0 0 1 1.178 0l.713 1.79.262.196 1.932.125a.63.63 0 0 1 .562.437.63.63 0 0 1-.198.684l-1.492 1.239-.094.31.475 1.868a.634.634 0 0 1-.953.692l-1.634-1.033h-.324l-1.634 1.033a.633.633 0 0 1-.954-.692l.475-1.864zM97.558 67.618l-1.495-1.241a.632.632 0 0 1 .015-.99.63.63 0 0 1 .349-.13l1.932-.126.262-.196.713-1.79a.634.634 0 0 1 1.178 0l.712 1.79.262.196 1.933.125a.63.63 0 0 1 .561.437.63.63 0 0 1-.198.684l-1.492 1.239-.094.31.476 1.868a.63.63 0 0 1-.594.79.63.63 0 0 1-.359-.098l-1.634-1.033h-.325l-1.634 1.033a.633.633 0 0 1-.953-.692l.474-1.864zM107.823 67.618l-1.495-1.241a.64.64 0 0 1-.198-.684.63.63 0 0 1 .562-.437l1.932-.125.262-.196.713-1.79a.634.634 0 0 1 1.178 0l.713 1.79.261.196 1.933.125a.63.63 0 0 1 .561.437.63.63 0 0 1-.198.684l-1.492 1.239-.094.31.476 1.868a.63.63 0 0 1-.594.79.63.63 0 0 1-.359-.098l-1.634-1.033h-.325l-1.634 1.033a.633.633 0 0 1-.953-.692l.475-1.864zM118.088 67.618l-1.495-1.241a.64.64 0 0 1-.198-.684.63.63 0 0 1 .562-.437l1.932-.125.262-.196.713-1.79a.63.63 0 0 1 .589-.4c.261 0 .492.157.589.399l.713 1.791.262.196 1.932.125a.63.63 0 0 1 .561.437.63.63 0 0 1-.197.684l-1.493 1.239-.094.31.476 1.868a.63.63 0 0 1-.594.79.63.63 0 0 1-.359-.098l-1.634-1.033h-.325l-1.634 1.033a.633.633 0 0 1-.953-.692l.475-1.864z"/><path fill="#7542E4" d="m118.088 67.618-1.495-1.241a.64.64 0 0 1-.198-.684.63.63 0 0 1 .562-.437l1.932-.125.262-.196.713-1.79a.63.63 0 0 1 .589-.4c.261 0 .492.157.589.399l.713 1.791.262.196 1.932.125a.63.63 0 0 1 .561.437.63.63 0 0 1-.197.684l-1.493 1.239-.094.31.476 1.868a.63.63 0 0 1-.594.79.63.63 0 0 1-.359-.098l-1.634-1.033h-.325l-1.634 1.033a.633.633 0 0 1-.953-.692l.475-1.864z"/><path fill="#CFCFD8" fill-rule="evenodd" d="M120.662 62.78v6.702l1.587 1.004a.633.633 0 0 0 .953-.692l-.476-1.869.094-.309 1.493-1.24a.63.63 0 0 0 .197-.683.63.63 0 0 0-.561-.437l-1.932-.125-.262-.196-.713-1.791a.63.63 0 0 0-.38-.364" clip-rule="evenodd"/><circle cx="346.309" cy="103.441" r="149.682" fill="#F4EFFF"/><path fill="#C9BEFF" fill-opacity=".4" d="M.116 93.045h329V114h-329z"/></g><g clip-path="url(#q)"><path fill="#080606" d="M186.156 64.28c.282.02.423-.133.454-.395.02-.16.095-.273.245-.308.592-.14 1.147-.384 1.803-.274 2.534.428 5.077.796 7.615 1.2 2.378.38 4.748.806 7.129 1.16 2.026.302 4.035.701 6.068.96 2.169.275 4.324.658 6.484 1 2.157.342 4.314.684 6.469 1.039 1.284.211 2.564.442 3.843.673.458.083.47.094.497.557a.77.77 0 0 0 .206.487c.306.332.373.74.454 1.159.525 2.694 1.069 5.384 1.59 8.079.494 2.556.964 5.117 1.451 7.675.116.614.258 1.223.382 1.836.021.102.021.216.158.2 1.066-.12 2.041.31 3.049.521.942.197 1.871.459 2.814.694.12-.21.035-.41.029-.6-.086-2.91 1.03-5.24 3.38-6.93 1.672-1.203 3.549-1.758 5.62-1.592.279.023.565.227.822.09.265-.14.183-.505.322-.75q.384-.681.846-1.307c.539-.73.863-1.584 1.352-2.343.284-.439.564-.88.906-1.274.237-.275.456-.553.598-.895.093-.222.275-.392.445-.568.503-.522.977-1.06 1.262-1.753.143-.347.403-.641.668-.923.651-.692 1.14-1.499 1.601-2.369-1.007-.493-2.009-.945-2.945-1.517-1.37-.836-2.694-1.733-3.919-2.786q-1.212-1.044-2.419-2.093c-.822-.713-1.521-1.553-2.259-2.352-.574-.622-1.147-1.248-1.752-1.838-.667-.651-1.232-1.39-1.814-2.11-.405-.5-.45-1.177-.269-1.773.543-1.795 1.148-3.572 1.735-5.354q1.089-3.306 2.187-6.607a.85.85 0 0 0-.141-.848c-.565-.738-.869-1.628-1.37-2.407-.382-.594-.49-1.317-.691-1.992-.285-.956-.317-1.934-.236-2.924.039-.48.222-.84.627-1.11.231-.154.434-.268.721-.18.169.05.356.04.566.062-.023-.515-.022-1.032-.072-1.545-.107-1.107-.175-2.224-.075-3.323.069-.76.017-1.593.606-2.255.214-.24.266-.62.51-.88.535-.57 1.315-.596 1.97-.166.55.361.876.82 1.085 1.433.212.625.504 1.224.775 1.828.086.194.214.37.361.617.364-.801.64-1.552.985-2.273 1.401-2.927 2.756-5.877 4.267-8.75.111-.21.164-.452.264-.67.261-.569.73-.61 1.09-.11 1.09 1.514 1.904 3.176 2.614 4.897.446 1.08.951 2.137 1.395 3.22.259.63.444 1.292.671 1.937.401 1.137.787 2.278 1.09 3.447.196.757.419 1.51.613 2.266.197.772.461 1.538.531 2.34.027.307.187.38.443.302.362-.11.74-.146 1.091-.326.564-.29 1.208-.31 1.822-.379 1.316-.145 2.639-.177 3.965-.165 1.101.01 2.202-.059 3.315-.093.19-.699.196-1.407.353-2.093a57 57 0 0 1 2.086-6.94 60 60 0 0 1 2.067-4.909c.534-1.134 1.19-2.196 1.896-3.228.09-.131.212-.243.329-.353.375-.353.814-.32 1.103.091.509.726.92 1.508 1.28 2.318.155.347.321.69.615.95a.5.5 0 0 1 .138.198c.261.8.73 1.503 1.059 2.276.406.958.786 1.938 1.288 2.857.173.317.287.67.548.943.295-.266.397-.656.647-.948.601-.702 1.731-.58 2.1.279.277.643.469 1.323.683 1.992.254.792.301 1.617.357 2.44.039.582.178 1.155.132 1.727.05.039.077.08.108.083.842.077 1.086.282 1.189 1.136.126 1.042.16 2.086.003 3.136-.195 1.303-.565 2.551-1.039 3.773-.036.095-.063.193-.101.286-.221.554-.138 1.003.191 1.55.546.91 1.167 1.769 1.731 2.664.782 1.24 1.547 2.488 2.287 3.753.25.428.483.859.631 1.351.159.525.493.997.759 1.508-.895 1.253-1.692 2.583-2.486 3.91-.602 1.007-1.338 1.91-1.977 2.886a2.3 2.3 0 0 1-.302.379c-.836.814-1.566 1.732-2.436 2.513-.149.134-.312.27-.411.44-.311.534-.799.903-1.213 1.337-.465.487-.955.956-1.507 1.347-.156.11-.145.217-.069.358q.4.747.794 1.495c.06.114.151.106.255.083.857-.191 1.719-.078 2.578-.033 2.048.106 4.092.263 6.143.324 1.566.047 3.129.175 4.694.266.563.032 1.125.075 1.688.085.278.006.444.101.558.361.129.295.286.58.461.85.23.356.234.73.103 1.101-.498 1.423-.874 2.881-1.297 4.326-.42 1.433-.859 2.86-1.289 4.289-.017.058-.024.118-.045.225.519-.002 1.022.047 1.515.216 1.328.456 2.323 1.332 3.123 2.454.82 1.15 1.276 2.455 1.553 3.832.318 1.585.293 3.167-.007 4.752-.391 2.073-1.265 3.912-2.665 5.48-.998 1.116-2.202 1.942-3.679 2.276-1.019.23-2.041.355-3.087.04-.462-.139-.969-.148-1.455-.229-.838-.139-1.575-.433-2.235-.956-.028-.022-.075-.02-.142-.035-.151.743-.899.686-1.365 1.02-.04.028-.071.01-.105-.026-.259-.284-.604-.166-.914-.179-1.284-.052-2.57-.128-3.855-.118-1.304.011-2.606-.026-3.908-.062-2.09-.057-4.179-.157-6.269-.186-.577-.009-.954-.243-1.259-.668-.322-.449-.708-.876-.63-1.504.035-.276-.147-.325-.384-.318q-.965.029-1.93.033-4.489.03-8.978-.042c-1.779-.03-3.559-.042-5.339-.059-.494-.005-.994.568-.908 1.063.076.436-.081.876.066 1.316.067.2.214.347.226.6.025.564-.185.9-.667 1.165-.949.524-1.949.927-2.942 1.348-2.146.908-4.303 1.789-6.451 2.691-2.758 1.158-5.511 2.327-8.267 3.491-1.367.578-2.737 1.151-4.102 1.735-.259.111-.501.212-.627-.14-.05-.138-.119-.137-.216-.117-.098.019-.192.053-.287.083-.518.16-1.021-.004-1.498-.139-2.239-.635-4.491-1.218-6.741-1.808-3.163-.829-6.321-1.682-9.482-2.519-2.367-.626-4.737-1.236-7.103-1.863-3.534-.937-7.066-1.883-10.6-2.825-.155-.042-.311-.112-.467-.113-.276-.002-.407-.172-.586-.349-.763-.75-.904-1.775-1.204-2.716-.515-1.612-.969-3.245-1.42-4.876-.565-2.041-1.197-4.063-1.748-6.109-.624-2.317-1.32-4.615-1.965-6.927-.613-2.196-1.183-4.404-1.806-6.597-.542-1.903-1.031-3.82-1.54-5.732-.03-.112.009-.321-.231-.216zm57.779-35.266c-.26 1.022-.191 2.055-.035 3.074.232 1.518.542 3.023.944 4.506.034.123.114.264-.02.384a.48.48 0 0 1-.368-.188c-.38-.444-.766-.883-1.139-1.333a3.4 3.4 0 0 0-.598-.596c-.149-.11-.311-.212-.498-.105-.173.098-.119.278-.124.435-.031 1.088.225 2.127.541 3.153.487 1.58 1.145 3.068 2.307 4.283.216.225.346.532.662.728.614-1.53 1.049-3.082 1.554-4.609.52-1.36.935-2.752 1.299-4.162a1.63 1.63 0 0 0-.057-1.06c-.167-.412-.32-.829-.489-1.24-.708-1.716-1.357-3.456-2.163-5.131-.178-.371-.425-.634-.792-.786-.253-.104-.452-.075-.571.232-.302.778-.566 1.56-.453 2.415m8.999-6.826.006-.008c-.166.104-.212.29-.289.451-1.158 2.422-2.411 4.796-3.584 7.21-.511 1.052-.928 2.167-.217 3.328.041.067.048.155.083.227.207.438.312.82.069 1.344-.369.798-.457 1.708-.737 2.552-.559 1.687-1.066 3.39-1.646 5.071-.223.647-.538 1.265-.643 1.952-.022.143-.022.296-.203.323-.167.025-.224-.099-.307-.227a6.2 6.2 0 0 0-1.01-1.238c-1.261 4.07-2.594 8.046-3.86 12.165 1.091-.54 2.123-.802 3.173-.992.93-.169 1.877-.191 2.816-.28.121.004.241.013.362.012 3.342-.04 6.62.416 9.828 1.348 1.704.495 3.352 1.13 4.864 2.093.348.222.645.528 1.055.718.532-1.831 1.744-3.083 3.249-4.093-.217-.304-.58-.391-.642-.716-.176-.934-.356-1.872-.052-2.817.144-.45.516-.677 1.088-.665.367.008.689.23.74.669.069.603.287 1.178.295 1.791.013.967.021.966.934.679 1.757-.553 3.543-.69 5.359-.364.39.07.776.164 1.175.25.061-.189.024-.348.016-.508-.031-.606-.089-1.213-.035-1.819.049-.555.375-.9.847-.943.501-.045.973.26 1.048.793.131.935.282 1.883-.248 2.774-.237.399-.216.433.215.702a7.4 7.4 0 0 1 2.152 2.008c.124.175.195.4.427.527.209-.36.474-.661.763-.942a6.7 6.7 0 0 1 .932-.77c2.814-1.892 5.946-2.908 9.268-3.393.749-.11 1.505-.136 2.189-.137.116-.124.091-.19.064-.238-.413-.733-.78-1.49-1.216-2.212-.938-1.552-1.933-3.066-2.881-4.61-.476-.774-1.129-1.484-1.034-2.545.06-.673-.041-1.37-.159-2.05-.207-1.194-.346-2.406-.64-3.579-.357-1.428-.705-2.863-1.202-4.254-.312-.873-.537-1.778-.86-2.647-.804-2.163-1.971-4.163-2.864-6.287-.37-.879-.929-1.657-1.314-2.524-.181-.41-.457-.755-.646-1.157-.121-.256-.309-.26-.46-.04-.274.399-.566.794-.779 1.226-.616 1.25-1.244 2.493-1.786 3.778a60 60 0 0 0-2.224 6.22c-.565 1.898-1.01 3.828-1.235 5.803-.046.401-.187.485-.56.336a2.3 2.3 0 0 0-.696-.17c-2.582-.201-5.149-.002-7.707.328-.652.084-1.293.242-1.901.54-.394.195-.764.45-1.195.569-.162.044-.328.105-.398-.117-.219-.69-.583-1.329-.639-2.077a5.4 5.4 0 0 0-.264-1.364c-.246-.706-.359-1.441-.571-2.153-.195-.655-.305-1.333-.527-1.983-.227-.666-.441-1.335-.692-1.994-.359-.94-.646-1.906-1.025-2.843-.636-1.572-1.272-3.144-1.975-4.687-.199-.436-.333-.934-.763-1.299-.365.845-.784 1.604-1.078 2.421a.21.21 0 0 0-.099.201l-.018.044c-.097.071-.134.171-.136.289m-9.021 60.828c-.163-.027-.318.01-.473.058-2.482.762-4.134 2.39-4.967 4.853-.376 1.111-.322 2.225.119 3.316.075.187.159.375.201.57.186.882.734 1.513 1.398 2.058a8 8 0 0 0 2.224 1.31c.28.109.551.266.914.282l-.383-1.022q-.09-.538-.177-1.075c-.136-.866-.123-1.736-.036-2.604.05-.498.251-.916.713-1.177.16.21.032.376-.005.541-.405 1.78-.189 3.495.503 5.167.136.328.354.521.704.585 1.589.288 3.183.485 4.8.283.574-.071.592-.09.607-.644.004-.141.014-.285-.004-.424-.114-.866-.098-1.737-.128-2.606-.019-.564.035-1.132-.064-1.694-.024-.14.039-.235.175-.275.153-.046.206.053.265.17.151.301.152.625.166.947l.177 4.001c.017.376.041.408.375.345.81-.154 1.624-.3 2.385-.636.631-.278 1.194-.632 1.575-1.254.295-.482.571-.974.861-1.458.262-.436.378-.904.36-1.382a5.7 5.7 0 0 0-.985-3.017c-1.178-1.755-2.792-3.01-4.623-3.997-1.404-.757-2.843-1.426-4.488-1.43-.04 0-.08-.017-.12-.017-.698-.001-1.402-.061-2.069.226m47 5.697c-.65-.445-1.369-.704-2.195-.877-.01.784.011 1.505.146 2.216.407 2.133 1.523 3.772 3.418 4.839.36.203.691.453 1.114.563.781.205 1.573.237 2.367.286 1.051.188 2.079.046 3.073-.294 1.569-.537 2.617-1.697 3.407-3.099.929-1.647 1.352-3.444 1.375-5.335.021-1.642-.275-3.216-1.085-4.659-.638-1.136-1.492-2.054-2.752-2.504-.491-.176-.983-.354-1.486-.483-.886-.226-1.792-.147-2.688-.072-.367.03-.766.025-1.086.28-1.129.23-2.775 1.344-3.198 2.183.297-.032.548.122.827.133.708.168 1.347.512 2.007.801.407.178.758.45 1.083.755.222.209.391.46.561.71.051.075.055.143-.018.212-.071.067-.14.067-.211.008q-.139-.116-.274-.237c-.351-.305-.717-.596-1.165-.735-.462-.142-.896-.344-1.334-.542-.367-.165-.738-.31-1.146-.33-.089-.043-.174-.1-.267-.129-.597-.187-.606-.19-.959.348-.806 1.227-1.364 2.55-1.609 4.012-.06.361.069.512.326.566.575.121 1.081.424 1.641.576.88.538 1.839.99 2.336 2.055-.377.074-.628-.015-.818-.24-.382-.453-.867-.755-1.39-1.007m-14.617-22.869c-1.101.868-2.393 1.234-3.749 1.346a9.6 9.6 0 0 1-4.15-.572 7.6 7.6 0 0 1-3.113-2.115c-.31-.347-.536-.76-.825-1.12-.691-.859-1.088-1.826-1.234-2.914-.088-.65-.356-1.195-.979-1.501a2 2 0 0 1-.354-.227c-.956-.758-2.027-1.313-3.152-1.761-3.767-1.5-7.702-2.104-11.733-2.164-.155-.003-.323-.032-.468.067-.12-.013-.24-.044-.359-.038-1.246.063-2.486.19-3.696.511a8 8 0 0 0-1.081.378c-.423.181-.445.397-.145.74 1.203 1.378 2.559 2.611 3.757 3.992.688.794 1.477 1.471 2.251 2.171 1.027.928 2.048 1.862 3.174 2.665 1.408 1.004 2.867 1.924 4.446 2.645.455.208.929.364 1.379.589.298.149.328.303.202.569-.059.126-.076.275-.186.373-.725.645-1.118 1.527-1.512 2.368-.482 1.027-.861 2.106-.966 3.275-.151 1.662-.625 3.28-.663 4.966-.008.352.015.726-.062 1.077-.222 1.01-.261 2.031-.231 3.06.01.352.124.59.412.805a10.8 10.8 0 0 1 2.407 2.454c1.049 1.497 1.776 3.086 1.287 4.988-.012.05-.003.081.091.115.32-.116.694-.11 1.069-.108 1.467.01 2.934-.002 4.401.028 1.364.028 2.73-.01 4.093.084.156.01.322.06.461-.066l-.024-.001c.462.14.935.063 1.404.068 1.686-.005 3.37.105 5.058.066.38-.008.507-.124.619-.447.829-2.383 1.673-4.761 2.514-7.14q2.817-7.967 5.629-15.936c.087-.245.244-.485.211-.753-.045-.364.159-.565.406-.752.301-.228.607-.45.901-.668-.279-.644-.786-1.053-1.23-1.511-.185-.19-.251-.378-.079-.58.418-.49.808-1.02 1.296-1.433a19 19 0 0 0 2.037-2.025c.752-.867 1.557-1.682 2.328-2.528a35 35 0 0 0 2.355-2.914c.852-1.164 1.569-2.429 2.339-3.64a.46.46 0 0 0-.427-.214c-.302.003-.604-.01-.905-.003-1.498.037-2.954.343-4.391.738-2.066.569-4.04 1.359-5.803 2.608-.641.454-1.231.97-1.562 1.73-.088.2-.123.36-.047.554.352.906.427 1.851.339 2.807-.105 1.153-.588 2.131-1.455 2.906-.09.08-.183.175-.369.168.163-.227.294-.405.421-.587 1.434-2.045 1.133-4.485-.011-6.152a13 13 0 0 0-1.715-2.036 4.9 4.9 0 0 0-1.62-1.023c-2.051-.8-4.135-.795-6.222-.226-1.74.475-3.278 1.324-4.475 2.723-.699.818-1.258 1.745-1.253 2.823.004.999.258 1.997.672 2.932.495 1.119 1.268 1.997 2.222 2.748 2.09 1.646 4.46 2.13 7.045 1.804.991-.125 1.892-.525 2.806-.889.087.002.166.02.214.103m-88.553-1.21-.1.084c.353.199.431.538.531.856.467 1.482.929 2.965 1.373 4.453a990 990 0 0 1 2.166 7.365c.674 2.327 1.299 4.668 2.001 6.987.631 2.087 1.175 4.198 1.785 6.29.548 1.878 1.047 3.77 1.568 5.656.063.227.076.462.449.376.217-.049.476.051.709.111q5.452 1.406 10.905 2.82 3.587.928 7.173 1.867c2.911.762 5.819 1.533 8.73 2.292 1.612.42 3.234.8 4.84 1.243 1.004.278 2.035.462 3.016.825.321.119.64.279.868-.172.05-.099.242-.128.372-.182a14447 14447 0 0 1 11.569-4.817q2.865-1.19 5.729-2.381 1.447-.601 2.89-1.214c.281-.12.453-.526.308-.796-.143-.267-.411-.145-.635-.106-.077.013-.149.058-.224.087q-8.899 3.497-17.798 6.991c-.917.36-1.836.717-2.759 1.061-.725.272-.956.147-1.102-.579a626 626 0 0 1-.893-4.516q-.656-3.388-1.292-6.78c-.256-1.37-.566-2.728-.855-4.09-.461-2.171-.803-4.367-1.229-6.546-.573-2.933-1.076-5.878-1.596-8.82q-.174-.985-.368-1.966c-.029-.148-.051-.386-.27-.3-.396.154-.727-.086-1.088-.112-1.124-.078-2.223-.328-3.336-.487-1.489-.212-2.967-.494-4.453-.734-1.407-.227-2.821-.414-4.224-.662-2.589-.457-5.177-.92-7.774-1.326q-4.61-.72-9.217-1.466c-1.764-.285-3.523-.595-5.285-.893zm109.241 13.88c.03-.542.344-.95.503-1.457.523-1.676 1.003-3.365 1.498-5.05.273-.926.549-1.852.81-2.782.123-.44-.035-.659-.466-.683-3.05-.174-6.099-.344-9.149-.52-1.644-.095-3.287-.188-4.93-.306-.304-.022-.411.047-.491.348-.23.857-.482 1.711-.77 2.551-1.891 5.522-3.796 11.04-5.693 16.56-.834 2.425-1.662 4.853-2.492 7.28-.216.634-.214.64.476.673 1.203.057 2.407.128 3.612.15 1.324.025 2.646.096 3.973.097 1.949.003 3.897.138 5.846.216.08.004.161.018.241.014.146-.007.523-.4.555-.591.028-.168-.122-.24-.22-.328-.39-.352-.77-.71-1.072-1.147-1.138-1.64-1.56-3.465-1.472-5.446.101-2.253.785-4.31 2.155-6.074 1.893-2.437 3.828-3.924 7.086-3.505m-64.034 25.308 16.832-6.649c-.255-.14-.414-.097-.568-.09-2.362.102-4.649-.234-6.838-1.165-1.276-.542-2.44-1.247-3.334-2.335a11 11 0 0 1-.798-1.135c-.148-.232-.315-.296-.589-.313-.438-.028-.881-.046-1.314-.158-1.826-.472-3.656-.928-5.485-1.389-.13-.032-.265-.111-.426.03zm55.048-69.571c-.071-.799-.19-1.56-.197-2.323-.013-1.286-.298-2.526-.536-3.775-.056-.292-.189-.58-.336-.84-.238-.425-.57-.436-.838-.026-.254.388-.478.797-.694 1.208-.291.555-.289 1.108.002 1.678.294.575.482 1.196.673 1.814.268.867.442 1.758.691 2.628a34 34 0 0 1 .902 3.948c.068.423.119.853.304 1.372.247-.664.479-1.22.662-1.793.337-1.057.674-2.119.626-3.254-.01-.242-.006-.484-.088-.719-.134-.385-.324-.456-.67-.23-.144.096-.217.295-.501.312m-36.066 49.8c-.058-.68.006-1.222.07-1.762.061-.521.171-1.038.207-1.56a34 34 0 0 1 .141-1.63c.062-.54.108-1.08.243-1.611.129-.508.19-1.032.296-1.546.256-1.244.259-1.244.106-1.544-.213.42-.526.734-.827 1.06-.136.148-.306.299-.362.48-.138.442-.431.77-.709 1.113q-.572.704-.995 1.505a16.4 16.4 0 0 1-1.27 2.047c-.28.383-.559.789-.669 1.275-.102.446-.1.49.316.614.91.272 1.773.653 2.61 1.098.244.129.484.265.843.462m22.606 11.112 9.551-27.473c-.571.241-.906.58-.953 1.184-.021.274-.156.541-.25.808-.576 1.636-1.171 3.265-1.73 4.907-1.876 5.5-3.862 10.96-5.789 16.442-.348.989-.691 1.98-1.04 2.967-.139.393-.223.772.211 1.165"/><path fill="#B7B7BA" d="M187.743 64.634q1.242.209 2.484.419c1.762.298 3.521.608 5.285.893q4.606.746 9.217 1.466c2.597.405 5.185.868 7.774 1.326 1.403.248 2.817.435 4.224.662 1.486.24 2.965.522 4.453.734 1.113.159 2.212.409 3.336.487.361.026.692.266 1.088.112.219-.086.241.151.27.3q.194.982.369 1.966c.519 2.942 1.022 5.887 1.595 8.82.426 2.179.768 4.375 1.229 6.546.289 1.363.599 2.72.855 4.09q.636 3.391 1.292 6.78.438 2.26.893 4.516c.146.726.377.851 1.102.579.923-.344 1.842-.701 2.759-1.061q8.899-3.494 17.798-6.99c.075-.03.147-.075.224-.088.224-.04.492-.16.635.106.145.27-.027.676-.308.796q-1.443.613-2.89 1.214-2.864 1.191-5.729 2.381l-5.73 2.385-5.839 2.432c-.13.054-.322.083-.372.182-.228.451-.547.291-.868.172-.981-.363-2.012-.547-3.016-.825-1.606-.443-3.228-.823-4.84-1.243-2.911-.759-5.819-1.53-8.73-2.292q-3.586-.939-7.173-1.867-5.453-1.415-10.905-2.82c-.233-.06-.492-.16-.709-.11-.373.085-.386-.15-.449-.377-.521-1.886-1.02-3.778-1.568-5.656-.61-2.092-1.154-4.203-1.785-6.29-.702-2.319-1.327-4.66-2.001-6.987a990 990 0 0 0-2.166-7.365 300 300 0 0 0-1.373-4.453c-.1-.318-.178-.657-.531-.856z"/><path fill="#FEA849" d="M253.187 21.654c.294-.817.713-1.576 1.077-2.42.431.364.565.862.764 1.298.703 1.543 1.339 3.114 1.975 4.687.379.937.666 1.902 1.025 2.843.251.659.465 1.328.692 1.994.222.65.332 1.328.527 1.983.212.712.325 1.447.571 2.153.152.433.23.904.264 1.364.056.748.42 1.387.639 2.077.07.221.236.161.398.117.431-.119.8-.375 1.195-.568.607-.299 1.249-.458 1.901-.541 2.558-.33 5.124-.53 7.707-.329.245.02.469.08.696.17.373.15.514.066.56-.335.225-1.975.67-3.904 1.235-5.803a60 60 0 0 1 2.224-6.22c.542-1.285 1.17-2.529 1.786-3.778.213-.432.505-.827.779-1.227.15-.22.339-.215.46.041.189.402.465.748.646 1.157.385.867.944 1.645 1.313 2.524.894 2.124 2.061 4.123 2.865 6.287.323.869.548 1.774.86 2.647.497 1.391.845 2.826 1.202 4.254.294 1.173.433 2.385.64 3.58.118.678.219 1.376.159 2.05-.095 1.06.558 1.77 1.034 2.544.948 1.544 1.943 3.058 2.88 4.61.437.723.803 1.48 1.217 2.212.027.048.052.114-.064.238-.684.001-1.44.027-2.189.137-3.323.485-6.454 1.501-9.268 3.393a6.7 6.7 0 0 0-.932.77c-.289.28-.555.581-.763.942-.232-.128-.303-.352-.427-.527a7.4 7.4 0 0 0-2.153-2.008c-.43-.269-.451-.303-.214-.702.53-.891.379-1.839.247-2.774-.074-.534-.546-.838-1.047-.793-.472.043-.798.388-.847.943-.054.606.003 1.213.035 1.82.008.159.045.318-.016.507-.399-.086-.785-.18-1.176-.25-1.815-.326-3.601-.19-5.358.364-.913.287-.921.288-.934-.679-.008-.613-.226-1.187-.296-1.791-.05-.438-.372-.661-.739-.669-.572-.012-.944.215-1.088.665-.304.945-.124 1.883.052 2.817.062.325.425.412.641.716-1.504 1.01-2.716 2.262-3.248 4.093-.41-.19-.707-.496-1.055-.718-1.512-.963-3.161-1.598-4.864-2.093a33.7 33.7 0 0 0-9.828-1.348c-.121.001-.241-.008-.362-.012.03-.467-.132-.913-.136-1.381-.009-1.092.06-2.175.239-3.25.201-1.21.412-2.417.606-3.627.065-.405.282-.752.378-1.146.492-2.016 1.015-4.023 1.499-6.04.595-2.486 1.315-4.94 1.828-7.446.057-.278.038-.558.108-.838.241-.975.441-1.96.664-2.94.214-.941.373-1.895.596-2.83.171-.72.286-1.465.59-2.152.028-.063-.01-.157-.017-.236l-.006.008c.169-.038.159-.16.136-.29l.018-.043a.18.18 0 0 0 .099-.2"/><path fill="#FEEEE2" d="M246.539 54.884c.145-.1.313-.07.468-.069 4.031.061 7.965.664 11.733 2.165 1.125.448 2.195 1.003 3.152 1.761q.165.132.354.227c.623.306.891.851.979 1.501a5.76 5.76 0 0 0 1.233 2.914c.289.36.516.773.826 1.12a7.6 7.6 0 0 0 3.113 2.115 9.6 9.6 0 0 0 4.15.572c1.356-.112 2.648-.478 3.749-1.346.287-.127.534-.304.67-.632l-.884.529c-.914.364-1.815.764-2.807.89-2.585.325-4.954-.16-7.045-1.805-.953-.751-1.726-1.629-2.221-2.748-.415-.935-.668-1.933-.672-2.932-.005-1.078.554-2.005 1.253-2.823 1.196-1.4 2.735-2.248 4.475-2.723 2.087-.57 4.171-.575 6.222.225.61.238 1.152.576 1.62 1.024a13 13 0 0 1 1.715 2.036c1.144 1.667 1.444 4.107.011 6.152-.127.182-.258.36-.421.587.186.007.279-.087.369-.168.867-.775 1.35-1.753 1.455-2.906.088-.956.013-1.9-.339-2.806-.076-.195-.041-.354.047-.555.331-.76.92-1.276 1.562-1.73 1.763-1.25 3.737-2.04 5.803-2.608 1.437-.395 2.893-.701 4.391-.738.301-.007.603.006.905.003a.46.46 0 0 1 .427.214c-.77 1.211-1.487 2.476-2.34 3.64a35 35 0 0 1-2.354 2.914c-.771.846-1.576 1.661-2.328 2.527a19 19 0 0 1-2.037 2.026c-.488.412-.878.943-1.296 1.434-.172.201-.106.388.079.579.444.458.951.867 1.23 1.511-.294.218-.6.44-.901.668-.247.187-.451.388-.406.752.033.268-.124.508-.211.753-1.873 5.313-3.752 10.624-5.629 15.935-.841 2.38-1.685 4.758-2.514 7.141-.113.323-.239.438-.619.447-1.688.039-3.372-.071-5.058-.066-.46-.205-.934-.103-1.404-.068h.024c-.359-.11-.88.133-1.022-.47-.007-.028-.108-.042-.167-.049-.164-.02-.229-.156-.306-.27-.261-.381-.549-.743-.748-1.169a33 33 0 0 0-.998-2.001c-.288-.52-.439-1.074-.583-1.641-.17-.665-.262-1.342-.379-2.015-.186-1.068-.493-2.12-.469-3.219.002-.119-.025-.24-.042-.359q-.157-1.042-.312-2.086c-.144-.974-.263-1.952-.436-2.92-.067-.38-.036-.76-.114-1.142-.213-1.043-.338-2.104-.562-3.145-.099-.455-.049-.919-.206-1.369-.432-1.235-1.096-2.281-2.213-3a1.8 1.8 0 0 1-.321-.272c-.598-.627-1.222-1.185-2.024-1.581-1.305-.644-2.319-1.71-3.407-2.663-1.005-.88-1.671-2.07-2.676-2.949a.3.3 0 0 1-.04-.046c-.806-1.154-1.566-2.335-2.124-3.638-.198-.461-.446-.902-.693-1.339-.146-.257-.528-.03-.687-.297m25.662.279c-.512-.022-1.072-.011-1.617.15-.493.144-.637.622-.32 1.015.411.508.936.883 1.441 1.282.155.122.36.253.552.194.546-.168 1.118-.244 1.558-.713.357-.38.689-.78 1.039-1.164.216-.235.118-.472-.221-.548-.784-.175-1.571-.34-2.432-.216m-5.925 3.678c.013.277.218.32.355.422.361.269.808.355 1.196.569 1.602.88 3.331 1.149 5.129 1.017.865-.063 1.701-.266 2.481-.677.543-.286.902-.732 1.182-1.256.077-.142.118-.33-.059-.433-.186-.11-.218.085-.296.193-.363.5-.822.873-1.393 1.12-.523.228-1.06.324-1.625.395-2.248.281-4.352-.177-6.375-1.14-.175-.083-.339-.207-.595-.21"/><path fill="#949EE3" d="M297.018 78.548c-3.193-.115-5.227 1.034-7.12 3.471-1.37 1.765-2.054 3.821-2.155 6.074-.088 1.981.334 3.807 1.472 5.446.302.436.682.795 1.072 1.147.098.089.248.16.22.328-.032.192-.409.584-.555.591-.08.004-.161-.01-.241-.014-1.949-.078-3.897-.213-5.846-.216-1.327-.001-2.649-.072-3.973-.097-1.205-.022-2.409-.093-3.612-.15-.69-.032-.692-.04-.476-.672q1.243-3.643 2.492-7.281c1.897-5.52 3.802-11.038 5.693-16.56.288-.84.54-1.694.77-2.551.08-.3.187-.37.491-.348 1.642.118 3.286.211 4.93.306 3.05.176 6.099.346 9.149.52.431.024.589.243.466.683-.261.93-.537 1.856-.81 2.783-.495 1.684-.975 3.373-1.498 5.049-.081.322-.355 1.144-.469 1.491m-8.743-7.351c0-.162.029-.33-.005-.483-.207-.943-.753-1.478-1.843-.939-1.075.532-1.713 2.375-1.252 3.483.32.77 1.071 1.02 1.777.584q.285-.173.503-.43c.541-.638.82-1.376.82-2.215"/><path fill="#ECCAA1" d="M246.539 54.884c.159.267.541.04.687.296.247.437.495.878.693 1.34.558 1.302 1.318 2.483 2.124 3.637a.3.3 0 0 0 .04.046c1.006.879 1.671 2.069 2.677 2.95 1.087.951 2.101 2.018 3.406 2.662.802.396 1.426.954 2.024 1.58.096.102.204.198.321.274 1.117.718 1.781 1.764 2.213 3 .158.45.108.914.206 1.368.224 1.04.349 2.102.562 3.145.078.382.047.761.114 1.141.173.97.292 1.947.436 2.921q.154 1.043.312 2.086c.017.12.045.24.042.36-.024 1.099.283 2.15.469 3.218.117.673.209 1.35.379 2.015.144.567.295 1.121.583 1.64.361.652.682 1.327.998 2.002.199.426.487.788.748 1.17.077.113.142.249.306.27.059.006.161.02.167.049.142.602.663.358 1.022.47-.139.126-.305.077-.461.066-1.363-.094-2.729-.056-4.093-.084-1.467-.03-2.934-.018-4.401-.028-.375-.003-.749-.008-1.069.109-.094-.035-.103-.066-.091-.116.489-1.902-.238-3.49-1.287-4.988a10.8 10.8 0 0 0-2.407-2.454c-.288-.215-.402-.453-.412-.804-.03-1.03.009-2.05.231-3.06.077-.352.054-.726.062-1.078.038-1.685.512-3.305.662-4.966.106-1.169.485-2.248.967-3.275.394-.84.787-1.722 1.512-2.368.11-.098.127-.247.186-.373.126-.266.096-.42-.203-.57-.449-.224-.923-.38-1.378-.588-1.579-.72-3.038-1.641-4.446-2.645-1.126-.803-2.147-1.737-3.174-2.665-.774-.7-1.563-1.377-2.251-2.17-1.198-1.382-2.554-2.615-3.757-3.993-.3-.343-.278-.559.145-.74.35-.15.713-.28 1.081-.378 1.21-.32 2.45-.448 3.696-.51.119-.007.239.024.359.038"/><path fill="#FEA849" d="M291.652 82.532c.408.02.78.165 1.147.33.438.198.872.4 1.334.542.448.139.814.43 1.165.735q.135.12.274.237c.071.059.14.06.211-.008.073-.069.069-.137.018-.212-.17-.25-.339-.501-.561-.71-.325-.304-.676-.576-1.083-.755-.66-.289-1.299-.633-2.007-.8.434-.573.864-1.143 1.483-1.546.325-.211.594-.51.888-.77.32-.256.719-.25 1.086-.281.896-.075 1.801-.154 2.688.072.503.129.995.307 1.486.483 1.26.45 2.114 1.367 2.752 2.504.81 1.443 1.106 3.017 1.085 4.659-.023 1.891-.446 3.688-1.375 5.335-.79 1.402-1.838 2.562-3.407 3.099-.994.34-2.022.482-3.073.294-.885-.5-1.533-1.28-2.269-1.954-.073-.066-.122-.16-.174-.246-.361-.606-.763-1.188-1.161-1.766-.646-.939-.976-1.982-1.246-3.061.523.252 1.008.554 1.39 1.007.19.225.441.314.818.24-.497-1.065-1.456-1.516-2.336-2.056-.028-.573-.059-1.138-.021-1.72.059-.897.289-1.73.529-2.577.103-.365.356-.678.359-1.075M243.913 83.016c.667-.287 1.371-.227 2.069-.227.04 0 .08.017.12.017 1.645.005 3.084.674 4.488 1.431 1.831.988 3.445 2.242 4.623 3.997.612.91.944 1.925.985 3.017.018.478-.098.947-.36 1.382-.291.484-.566.976-.861 1.458-.381.622-.944.976-1.575 1.254-.761.335-1.575.482-2.385.636-.335.063-.358.031-.375-.345q-.089-2-.177-4c-.014-.323-.015-.647-.166-.947-.059-.117-.112-.217-.265-.171-.136.04-.199.135-.175.275.099.562.045 1.13.064 1.694.03.87.014 1.74.127 2.606.019.139.009.283.005.425-.015.553-.033.572-.607.643-1.617.202-3.211.005-4.8-.283-.35-.064-.569-.257-.704-.585-.692-1.672-.908-3.388-.503-5.167.037-.165.165-.331.005-.54-.462.26-.663.678-.713 1.176-.087.868-.1 1.738.036 2.604q.087.537.177 1.075c-.608-.448-.901-1.122-1.195-1.774-.562-1.243-.772-2.554-.75-3.93.021-1.346.301-2.585 1.005-3.728.116-.187.256-.371.318-.578.177-.59.602-.924 1.119-1.168.161-.076.348-.095.47-.247"/><path fill="#E6E6E8" d="m232.95 103.822-2.52-13.205c.161-.14.296-.061.426-.029 1.829.46 3.659.917 5.485 1.389.433.112.876.13 1.314.158.274.017.442.08.589.313.247.39.506.779.799 1.135.893 1.088 2.057 1.793 3.333 2.335 2.189.931 4.476 1.266 6.838 1.164.154-.006.313-.05.568.091z"/><path fill="#ED751E" d="M252.94 22.18c.007.08.045.173.017.236-.304.688-.419 1.432-.59 2.151-.223.936-.382 1.89-.596 2.83-.223.98-.423 1.966-.664 2.941-.069.28-.051.56-.108.838-.513 2.506-1.233 4.96-1.828 7.445-.484 2.018-1.007 4.026-1.499 6.04-.096.395-.313.742-.378 1.147-.194 1.21-.405 2.417-.606 3.627a19 19 0 0 0-.239 3.25c.004.468.166.914.136 1.381-.939.089-1.886.111-2.816.28-1.05.19-2.082.452-3.173.992 1.266-4.12 2.599-8.094 3.86-12.165a6.2 6.2 0 0 1 1.01 1.238c.083.128.14.252.307.227.181-.026.181-.18.203-.323.105-.686.42-1.305.643-1.952.58-1.68 1.087-3.384 1.646-5.07.28-.845.368-1.755.737-2.553.243-.524.138-.906-.069-1.344-.035-.072-.042-.16-.083-.227-.711-1.16-.294-2.276.217-3.327 1.173-2.414 2.426-4.789 3.584-7.21.077-.161.123-.348.289-.452"/><path fill="#FEEEE1" d="M243.935 29.014c-.113-.855.151-1.637.453-2.415.119-.307.318-.336.571-.232.367.152.614.415.792.786.806 1.675 1.455 3.415 2.163 5.132.169.41.322.827.489 1.239.142.348.152.692.057 1.06-.364 1.41-.779 2.803-1.299 4.162-.159.004-.247-.09-.336-.212a9.6 9.6 0 0 1-1.583-3.29c-.113-.427-.041-.93-.465-1.243-.025-.02-.023-.076-.033-.115-.115-.485-.264-.965-.339-1.456-.152-.992-.256-1.99-.246-2.998.002-.176.039-.38-.224-.418"/><path fill="#ED751E" d="M243.913 83.016c-.121.152-.309.17-.469.247-.518.244-.943.578-1.12 1.168-.062.206-.202.39-.317.578-.705 1.143-.985 2.382-1.006 3.727-.022 1.377.188 2.688.75 3.93.295.653.587 1.327 1.195 1.775l.384 1.022c-.364-.016-.634-.173-.915-.281a8 8 0 0 1-2.224-1.31c-.664-.546-1.212-1.177-1.398-2.059-.041-.195-.126-.383-.201-.57-.441-1.091-.495-2.204-.119-3.316.833-2.462 2.485-4.09 4.967-4.853.156-.047.31-.085.473-.058"/><path fill="#ECCAA1" d="M243.935 29.015c.263.036.226.241.224.418-.01 1.006.094 2.005.246 2.997.075.491.224.971.339 1.456.01.04.008.096.033.114.424.314.352.818.465 1.244a9.7 9.7 0 0 0 1.582 3.29c.09.121.178.216.337.212-.506 1.527-.94 3.079-1.554 4.609-.316-.196-.446-.503-.662-.728-1.163-1.215-1.82-2.703-2.307-4.283-.316-1.026-.572-2.065-.541-3.153.005-.157-.049-.337.124-.435.187-.107.349-.005.498.105.229.169.417.377.598.596.373.45.759.89 1.139 1.334a.48.48 0 0 0 .368.188c.133-.12.053-.262.02-.385a41 41 0 0 1-.944-4.506c-.156-1.02-.225-2.052.035-3.073"/><path fill="#FEEEE1" d="M287.998 34.25c.284-.016.357-.215.501-.31.346-.227.536-.156.67.23.082.234.078.476.088.718.048 1.135-.289 2.197-.626 3.255-.183.572-.415 1.128-.662 1.792-.185-.52-.236-.949-.304-1.372a34 34 0 0 0-.902-3.948c-.249-.87-.423-1.761-.691-2.628-.191-.618-.379-1.239-.673-1.814-.291-.57-.293-1.123-.002-1.678.216-.41.44-.82.694-1.208.268-.41.6-.4.838.025.147.262.28.55.336.841.238 1.249.523 2.489.536 3.775.007.763.126 1.524.197 2.323"/><path fill="#ED751E" d="M251.932 84.052c-.359-.197-.599-.333-.843-.462-.837-.445-1.7-.826-2.61-1.098-.416-.124-.418-.168-.316-.614.111-.486.389-.892.669-1.275.477-.652.895-1.334 1.27-2.046a9 9 0 0 1 .995-1.506c.278-.342.571-.67.709-1.113.056-.181.226-.332.362-.48.301-.326.614-.64.827-1.06.153.3.15.3-.106 1.544-.106.514-.167 1.038-.296 1.546-.135.532-.181 1.07-.243 1.611a34 34 0 0 0-.141 1.63c-.036.522-.145 1.039-.207 1.56-.064.54-.128 1.082-.07 1.763M290.913 88.713c.271 1.08.6 2.122 1.246 3.06.398.579.8 1.161 1.161 1.767.052.086.101.18.174.246.736.675 1.384 1.454 2.269 1.954-.794-.049-1.586-.081-2.367-.285-.423-.111-.754-.361-1.114-.564-1.895-1.067-3.011-2.706-3.418-4.84-.135-.71-.156-1.43-.146-2.215.826.172 1.545.432 2.195.877"/><path fill="#D9F5FC" d="M274.538 95.164c-.434-.394-.35-.773-.211-1.166.349-.988.692-1.978 1.04-2.967 1.927-5.481 3.913-10.942 5.789-16.442.559-1.642 1.154-3.271 1.73-4.907.094-.267.229-.534.25-.808.048-.603.382-.943.953-1.184z"/><path fill="#ED751E" d="M291.653 82.532c-.004.397-.257.71-.36 1.075-.24.846-.47 1.68-.529 2.577-.038.582-.007 1.147.021 1.72-.56-.15-1.066-.454-1.641-.575-.257-.054-.386-.205-.326-.566.245-1.463.803-2.785 1.609-4.012.353-.538.362-.535.959-.348.093.03.178.085.267.13M294.521 79.574c-.294.26-.563.56-.888.771-.619.403-1.049.973-1.483 1.545-.279-.01-.53-.165-.827-.133.423-.839 2.069-1.952 3.198-2.183"/><path fill="#090707" d="m276.082 65.741.884-.529c-.136.328-.383.505-.67.632-.048-.083-.127-.101-.214-.103"/><path fill="#ECCAA1" d="M267.044 92.523c.47-.035.945-.137 1.404.068-.469-.005-.942.073-1.404-.068"/><path fill="#ED751E" d="M253.07 21.899c.023.129.033.251-.135.289.001-.117.038-.218.135-.29M253.187 21.654a.18.18 0 0 1-.099.201.21.21 0 0 1 .099-.2"/><path fill="#080606" d="M272.201 55.163c.861-.124 1.648.041 2.432.216.339.076.437.313.221.548-.35.384-.682.785-1.039 1.165-.44.468-1.012.544-1.558.712-.192.06-.397-.072-.552-.194-.505-.399-1.03-.774-1.441-1.282-.317-.393-.173-.87.32-1.016.545-.16 1.105-.17 1.617-.15"/><path fill="#090707" d="M266.276 58.841c.256.003.42.127.595.21 2.023.963 4.127 1.421 6.375 1.14.565-.071 1.102-.167 1.625-.394a3.33 3.33 0 0 0 1.393-1.121c.078-.108.11-.302.296-.193.177.103.136.291.059.433-.28.524-.639.97-1.182 1.256-.78.411-1.616.614-2.481.678-1.798.13-3.527-.137-5.129-1.018-.388-.214-.835-.3-1.196-.569-.137-.102-.342-.145-.355-.422M288.275 71.197c0 .84-.279 1.577-.82 2.216a2.1 2.1 0 0 1-.503.43c-.706.434-1.457.186-1.777-.585-.461-1.108.177-2.95 1.252-3.483 1.09-.539 1.636-.004 1.843.939.034.154.005.322.005.483m-2.438 1.207c.005.139-.021.384.088.61.139.288.366.353.641.189.704-.422 1.2-1.82.912-2.574-.155-.406-.438-.497-.805-.252-.187.124-.323.299-.432.494-.25.444-.412.914-.404 1.533"/><path fill="#758DB4" d="M285.837 72.404c-.008-.62.155-1.09.404-1.533.109-.195.245-.37.432-.494.367-.245.65-.154.805.252.288.754-.208 2.152-.912 2.574-.274.164-.502.099-.641-.19-.109-.225-.083-.47-.088-.61"/></g></g><defs><radialGradient id="f" cx="0" cy="0" r="1" gradientTransform="translate(58.268 42.083)scale(36.6619)" gradientUnits="userSpaceOnUse"><stop offset=".129" stop-color="#FFBD4F"/><stop offset=".186" stop-color="#FFAC31"/><stop offset=".247" stop-color="#FF9D17"/><stop offset=".283" stop-color="#FF980E"/><stop offset=".403" stop-color="#FF563B"/><stop offset=".467" stop-color="#FF3750"/><stop offset=".71" stop-color="#F5156C"/><stop offset=".782" stop-color="#EB0878"/><stop offset=".86" stop-color="#E50080"/></radialGradient><radialGradient id="g" cx="0" cy="0" r="1" gradientTransform="translate(44.655 57.056)scale(36.6619)" gradientUnits="userSpaceOnUse"><stop offset=".3" stop-color="#960E18"/><stop offset=".351" stop-color="#B11927" stop-opacity=".74"/><stop offset=".435" stop-color="#DB293D" stop-opacity=".343"/><stop offset=".497" stop-color="#F5334B" stop-opacity=".094"/><stop offset=".53" stop-color="#FF3750" stop-opacity="0"/></radialGradient><radialGradient id="h" cx="0" cy="0" r="1" gradientTransform="matrix(26.5571 0 0 26.5573 49.192 33.915)" gradientUnits="userSpaceOnUse"><stop offset=".132" stop-color="#FFF44F"/><stop offset=".252" stop-color="#FFDC3E"/><stop offset=".506" stop-color="#FF9D12"/><stop offset=".526" stop-color="#FF980E"/></radialGradient><radialGradient id="i" cx="0" cy="0" r="1" gradientTransform="translate(40.57 66.585)scale(17.4553)" gradientUnits="userSpaceOnUse"><stop offset=".353" stop-color="#3A8EE6"/><stop offset=".472" stop-color="#5C79F0"/><stop offset=".669" stop-color="#9059FF"/><stop offset="1" stop-color="#C139E6"/></radialGradient><radialGradient id="j" cx="0" cy="0" r="1" gradientTransform="rotate(-13.592 249.41 -167.838)scale(9.25628 10.8368)" gradientUnits="userSpaceOnUse"><stop offset=".206" stop-color="#9059FF" stop-opacity="0"/><stop offset=".278" stop-color="#8C4FF3" stop-opacity=".064"/><stop offset=".747" stop-color="#7716A8" stop-opacity=".45"/><stop offset=".975" stop-color="#6E008B" stop-opacity=".6"/></radialGradient><radialGradient id="k" cx="0" cy="0" r="1" gradientTransform="translate(44.2 40.721)scale(12.5594)" gradientUnits="userSpaceOnUse"><stop stop-color="#FFE226"/><stop offset=".121" stop-color="#FFDB27"/><stop offset=".295" stop-color="#FFC82A"/><stop offset=".502" stop-color="#FFA930"/><stop offset=".732" stop-color="#FF7E37"/><stop offset=".792" stop-color="#FF7139"/></radialGradient><radialGradient id="l" cx="0" cy="0" r="1" gradientTransform="translate(54.182 32.552)scale(53.5863)" gradientUnits="userSpaceOnUse"><stop offset=".113" stop-color="#FFF44F"/><stop offset=".456" stop-color="#FF980E"/><stop offset=".622" stop-color="#FF5634"/><stop offset=".716" stop-color="#FF3647"/><stop offset=".904" stop-color="#E31587"/></radialGradient><radialGradient id="m" cx="0" cy="0" r="1" gradientTransform="matrix(4.12108 39.05206 -25.62959 2.70463 49.73 35.527)" gradientUnits="userSpaceOnUse"><stop stop-color="#FFF44F"/><stop offset=".06" stop-color="#FFE847"/><stop offset=".168" stop-color="#FFC830"/><stop offset=".304" stop-color="#FF980E"/><stop offset=".356" stop-color="#FF8B16"/><stop offset=".455" stop-color="#FF672A"/><stop offset=".57" stop-color="#FF3647"/><stop offset=".737" stop-color="#E31587"/></radialGradient><radialGradient id="n" cx="0" cy="0" r="1" gradientTransform="matrix(33.4494 0 0 33.4495 44.2 45.26)" gradientUnits="userSpaceOnUse"><stop offset=".137" stop-color="#FFF44F"/><stop offset=".48" stop-color="#FF980E"/><stop offset=".592" stop-color="#FF5634"/><stop offset=".655" stop-color="#FF3647"/><stop offset=".904" stop-color="#E31587"/></radialGradient><radialGradient id="o" cx="0" cy="0" r="1" gradientTransform="matrix(36.6123 0 0 36.612 52.821 47.076)" gradientUnits="userSpaceOnUse"><stop offset=".094" stop-color="#FFF44F"/><stop offset=".231" stop-color="#FFE141"/><stop offset=".509" stop-color="#FFAF1E"/><stop offset=".626" stop-color="#FF980E"/></radialGradient><clipPath id="a"><path fill="#fff" d="M0 0h329v114H0z"/></clipPath><clipPath id="b"><path fill="#fff" d="M.116 0h329v114h-329z"/></clipPath><clipPath id="q"><path fill="#fff" d="M186.156 16.841h119v91h-119z"/></clipPath><linearGradient id="e" x1="59.396" x2="30.201" y1="43.619" y2="71.787" gradientUnits="userSpaceOnUse"><stop offset=".048" stop-color="#FFF44F"/><stop offset=".111" stop-color="#FFE847"/><stop offset=".225" stop-color="#FFC830"/><stop offset=".368" stop-color="#FF980E"/><stop offset=".401" stop-color="#FF8B16"/><stop offset=".462" stop-color="#FF672A"/><stop offset=".534" stop-color="#FF3647"/><stop offset=".705" stop-color="#E31587"/></linearGradient><linearGradient id="p" x1="59.042" x2="34.203" y1="43.472" y2="68.313" gradientUnits="userSpaceOnUse"><stop offset=".167" stop-color="#FFF44F" stop-opacity=".8"/><stop offset=".266" stop-color="#FFF44F" stop-opacity=".634"/><stop offset=".489" stop-color="#FFF44F" stop-opacity=".217"/><stop offset=".6" stop-color="#FFF44F" stop-opacity="0"/></linearGradient><filter id="c" width="48.967" height="48.967" x="20.589" y="32.037" color-interpolation-filters="sRGB" filterUnits="userSpaceOnUse"><feFlood flood-opacity="0" result="BackgroundImageFix"/><feColorMatrix in="SourceAlpha" result="hardAlpha" values="0 0 0 0 0 0 0 0 0 0 0 0 0 0 0 0 0 0 127 0"/><feOffset dy=".662"/><feGaussianBlur stdDeviation="1.323"/><feColorMatrix values="0 0 0 0 0.227451 0 0 0 0 0.223529 0 0 0 0 0.266667 0 0 0 0.35 0"/><feBlend in2="BackgroundImageFix" result="effect1_dropShadow_1061_2132"/><feBlend in="SourceGraphic" in2="effect1_dropShadow_1061_2132" result="shape"/></filter><filter id="d" width="35.132" height="36.959" x="27.868" y="37.993" color-interpolation-filters="sRGB" filterUnits="userSpaceOnUse"><feFlood flood-opacity="0" result="BackgroundImageFix"/><feColorMatrix in="SourceAlpha" result="hardAlpha" values="0 0 0 0 0 0 0 0 0 0 0 0 0 0 0 0 0 0 127 0"/><feOffset dy=".662"/><feComposite in2="hardAlpha" operator="out"/><feColorMatrix values="0 0 0 0 0 0 0 0 0 0 0 0 0 0 0 0 0 0 0.35 0"/><feBlend in2="BackgroundImageFix" result="effect1_dropShadow_1061_2132"/><feBlend in="SourceGraphic" in2="effect1_dropShadow_1061_2132" result="shape"/></filter></defs></svg>