<!-- This Source Code Form is subject to the terms of the Mozilla Public
   - License, v. 2.0. If a copy of the MPL was not distributed with this
   - file, You can obtain one at http://mozilla.org/MPL/2.0/. -->
<svg width="76" height="105" viewBox="0 0 76 105" fill="none" xmlns="http://www.w3.org/2000/svg">
<rect x="0.616211" y="30.7701" width="73.1009" height="73.1009" rx="2.94093" fill="white" stroke="black"/>
<path d="M6.14905 36.5958H8.27095V38.7193H6.14905V36.5958ZM8.27095 36.5958H10.3929V38.7193H8.27095V36.5958ZM10.3929 36.5958H12.5148V38.7193H10.3929V36.5958ZM12.5148 36.5958H14.6367V38.7193H12.5148V36.5958ZM14.6367 36.5958H16.7586V38.7193H14.6367V36.5958ZM16.7586 36.5958H18.8805V38.7193H16.7586V36.5958ZM18.8805 36.5958H21.0024V38.7193H18.8805V36.5958ZM25.2462 36.5958H27.3681V38.7193H25.2462V36.5958ZM27.3681 36.5958H29.49V38.7193H27.3681V36.5958ZM29.49 36.5958H31.6119V38.7193H29.49V36.5958ZM31.6119 36.5958H33.7338V38.7193H31.6119V36.5958ZM33.7338 36.5958H35.8557V38.7193H33.7338V36.5958ZM42.2214 36.5958H44.3433V38.7193H42.2214V36.5958ZM44.3433 36.5958H46.4652V38.7193H44.3433V36.5958ZM46.4652 36.5958H48.5871V38.7193H46.4652V36.5958ZM52.8309 36.5958H54.9528V38.7193H52.8309V36.5958ZM54.9528 36.5958H57.0747V38.7193H54.9528V36.5958ZM57.0747 36.5958H59.1966V38.7193H57.0747V36.5958ZM59.1966 36.5958H61.3185V38.7193H59.1966V36.5958ZM61.3185 36.5958H63.4404V38.7193H61.3185V36.5958ZM63.4404 36.5958H65.5623V38.7193H63.4404V36.5958ZM65.5623 36.5958H67.6842V38.7193H65.5623V36.5958ZM6.14905 38.7193H8.27095V40.8427H6.14905V38.7193ZM18.8805 38.7193H21.0024V40.8427H18.8805V38.7193ZM29.49 38.7193H31.6119V40.8427H29.49V38.7193ZM35.8557 38.7193H37.9776V40.8427H35.8557V38.7193ZM48.5871 38.7193H50.709V40.8427H48.5871V38.7193ZM52.8309 38.7193H54.9528V40.8427H52.8309V38.7193ZM65.5623 38.7193H67.6842V40.8427H65.5623V38.7193ZM6.14905 40.8427H8.27095V42.9662H6.14905V40.8427ZM10.3929 40.8427H12.5148V42.9662H10.3929V40.8427ZM12.5148 40.8427H14.6367V42.9662H12.5148V40.8427ZM14.6367 40.8427H16.7586V42.9662H14.6367V40.8427ZM18.8805 40.8427H21.0024V42.9662H18.8805V40.8427ZM23.1243 40.8427H25.2462V42.9662H23.1243V40.8427ZM29.49 40.8427H31.6119V42.9662H29.49V40.8427ZM35.8557 40.8427H37.9776V42.9662H35.8557V40.8427ZM37.9776 40.8427H40.0995V42.9662H37.9776V40.8427ZM40.0995 40.8427H42.2214V42.9662H40.0995V40.8427ZM42.2214 40.8427H44.3433V42.9662H42.2214V40.8427ZM46.4652 40.8427H48.5871V42.9662H46.4652V40.8427ZM48.5871 40.8427H50.709V42.9662H48.5871V40.8427ZM52.8309 40.8427H54.9528V42.9662H52.8309V40.8427ZM57.0747 40.8427H59.1966V42.9662H57.0747V40.8427ZM59.1966 40.8427H61.3185V42.9662H59.1966V40.8427ZM61.3185 40.8427H63.4404V42.9662H61.3185V40.8427ZM65.5623 40.8427H67.6842V42.9662H65.5623V40.8427ZM6.14905 42.9662H8.27095V45.0896H6.14905V42.9662ZM10.3929 42.9662H12.5148V45.0896H10.3929V42.9662ZM12.5148 42.9662H14.6367V45.0896H12.5148V42.9662ZM14.6367 42.9662H16.7586V45.0896H14.6367V42.9662ZM18.8805 42.9662H21.0024V45.0896H18.8805V42.9662ZM27.3681 42.9662H29.49V45.0896H27.3681V42.9662ZM29.49 42.9662H31.6119V45.0896H29.49V42.9662ZM33.7338 42.9662H35.8557V45.0896H33.7338V42.9662ZM46.4652 42.9662H48.5871V45.0896H46.4652V42.9662ZM52.8309 42.9662H54.9528V45.0896H52.8309V42.9662ZM57.0747 42.9662H59.1966V45.0896H57.0747V42.9662ZM59.1966 42.9662H61.3185V45.0896H59.1966V42.9662ZM61.3185 42.9662H63.4404V45.0896H61.3185V42.9662ZM65.5623 42.9662H67.6842V45.0896H65.5623V42.9662ZM6.14905 45.0896H8.27095V47.2131H6.14905V45.0896ZM10.3929 45.0896H12.5148V47.2131H10.3929V45.0896ZM12.5148 45.0896H14.6367V47.2131H12.5148V45.0896ZM14.6367 45.0896H16.7586V47.2131H14.6367V45.0896ZM18.8805 45.0896H21.0024V47.2131H18.8805V45.0896ZM23.1243 45.0896H25.2462V47.2131H23.1243V45.0896ZM27.3681 45.0896H29.49V47.2131H27.3681V45.0896ZM31.6119 45.0896H33.7338V47.2131H31.6119V45.0896ZM35.8557 45.0896H37.9776V47.2131H35.8557V45.0896ZM44.3433 45.0896H46.4652V47.2131H44.3433V45.0896ZM52.8309 45.0896H54.9528V47.2131H52.8309V45.0896ZM57.0747 45.0896H59.1966V47.2131H57.0747V45.0896ZM59.1966 45.0896H61.3185V47.2131H59.1966V45.0896ZM61.3185 45.0896H63.4404V47.2131H61.3185V45.0896ZM65.5623 45.0896H67.6842V47.2131H65.5623V45.0896ZM6.14905 47.2131H8.27095V49.3365H6.14905V47.2131ZM18.8805 47.2131H21.0024V49.3365H18.8805V47.2131ZM23.1243 47.2131H25.2462V49.3365H23.1243V47.2131ZM29.49 47.2131H31.6119V49.3365H29.49V47.2131ZM33.7338 47.2131H35.8557V49.3365H33.7338V47.2131ZM44.3433 47.2131H46.4652V49.3365H44.3433V47.2131ZM46.4652 47.2131H48.5871V49.3365H46.4652V47.2131ZM48.5871 47.2131H50.709V49.3365H48.5871V47.2131ZM52.8309 47.2131H54.9528V49.3365H52.8309V47.2131ZM65.5623 47.2131H67.6842V49.3365H65.5623V47.2131ZM6.14905 49.3365H8.27095V51.46H6.14905V49.3365ZM8.27095 49.3365H10.3929V51.46H8.27095V49.3365ZM10.3929 49.3365H12.5148V51.46H10.3929V49.3365ZM12.5148 49.3365H14.6367V51.46H12.5148V49.3365ZM14.6367 49.3365H16.7586V51.46H14.6367V49.3365ZM16.7586 49.3365H18.8805V51.46H16.7586V49.3365ZM18.8805 49.3365H21.0024V51.46H18.8805V49.3365ZM23.1243 49.3365H25.2462V51.46H23.1243V49.3365ZM27.3681 49.3365H29.49V51.46H27.3681V49.3365ZM31.6119 49.3365H33.7338V51.46H31.6119V49.3365ZM35.8557 49.3365H37.9776V51.46H35.8557V49.3365ZM40.0995 49.3365H42.2214V51.46H40.0995V49.3365ZM44.3433 49.3365H46.4652V51.46H44.3433V49.3365ZM48.5871 49.3365H50.709V51.46H48.5871V49.3365ZM52.8309 49.3365H54.9528V51.46H52.8309V49.3365ZM54.9528 49.3365H57.0747V51.46H54.9528V49.3365ZM57.0747 49.3365H59.1966V51.46H57.0747V49.3365ZM59.1966 49.3365H61.3185V51.46H59.1966V49.3365ZM61.3185 49.3365H63.4404V51.46H61.3185V49.3365ZM63.4404 49.3365H65.5623V51.46H63.4404V49.3365ZM65.5623 49.3365H67.6842V51.46H65.5623V49.3365ZM27.3681 51.46H29.49V53.5835H27.3681V51.46ZM29.49 51.46H31.6119V53.5835H29.49V51.46ZM35.8557 51.46H37.9776V53.5835H35.8557V51.46ZM37.9776 51.46H40.0995V53.5835H37.9776V51.46ZM40.0995 51.46H42.2214V53.5835H40.0995V51.46ZM42.2214 51.46H44.3433V53.5835H42.2214V51.46ZM44.3433 51.46H46.4652V53.5835H44.3433V51.46ZM46.4652 51.46H48.5871V53.5835H46.4652V51.46ZM8.27095 53.5835H10.3929V55.7069H8.27095V53.5835ZM14.6367 53.5835H16.7586V55.7069H14.6367V53.5835ZM18.8805 53.5835H21.0024V55.7069H18.8805V53.5835ZM23.1243 53.5835H25.2462V55.7069H23.1243V53.5835ZM25.2462 53.5835H27.3681V55.7069H25.2462V53.5835ZM31.6119 53.5835H33.7338V55.7069H31.6119V53.5835ZM37.9776 53.5835H40.0995V55.7069H37.9776V53.5835ZM44.3433 53.5835H46.4652V55.7069H44.3433V53.5835ZM50.709 53.5835H52.8309V55.7069H50.709V53.5835ZM54.9528 53.5835H57.0747V55.7069H54.9528V53.5835ZM57.0747 53.5835H59.1966V55.7069H57.0747V53.5835ZM61.3185 53.5835H63.4404V55.7069H61.3185V53.5835ZM6.14905 55.7069H8.27095V57.8304H6.14905V55.7069ZM10.3929 55.7069H12.5148V57.8304H10.3929V55.7069ZM21.0024 55.7069H23.1243V57.8304H21.0024V55.7069ZM23.1243 55.7069H25.2462V57.8304H23.1243V55.7069ZM25.2462 55.7069H27.3681V57.8304H25.2462V55.7069ZM27.3681 55.7069H29.49V57.8304H27.3681V55.7069ZM29.49 55.7069H31.6119V57.8304H29.49V55.7069ZM33.7338 55.7069H35.8557V57.8304H33.7338V55.7069ZM35.8557 55.7069H37.9776V57.8304H35.8557V55.7069ZM37.9776 55.7069H40.0995V57.8304H37.9776V55.7069ZM42.2214 55.7069H44.3433V57.8304H42.2214V55.7069ZM46.4652 55.7069H48.5871V57.8304H46.4652V55.7069ZM48.5871 55.7069H50.709V57.8304H48.5871V55.7069ZM57.0747 55.7069H59.1966V57.8304H57.0747V55.7069ZM61.3185 55.7069H63.4404V57.8304H61.3185V55.7069ZM63.4404 55.7069H65.5623V57.8304H63.4404V55.7069ZM65.5623 55.7069H67.6842V57.8304H65.5623V55.7069ZM6.14905 57.8304H8.27095V59.9538H6.14905V57.8304ZM8.27095 57.8304H10.3929V59.9538H8.27095V57.8304ZM12.5148 57.8304H14.6367V59.9538H12.5148V57.8304ZM14.6367 57.8304H16.7586V59.9538H14.6367V57.8304ZM18.8805 57.8304H21.0024V59.9538H18.8805V57.8304ZM21.0024 57.8304H23.1243V59.9538H21.0024V57.8304ZM23.1243 57.8304H25.2462V59.9538H23.1243V57.8304ZM25.2462 57.8304H27.3681V59.9538H25.2462V57.8304ZM35.8557 57.8304H37.9776V59.9538H35.8557V57.8304ZM40.0995 57.8304H42.2214V59.9538H40.0995V57.8304ZM44.3433 57.8304H46.4652V59.9538H44.3433V57.8304ZM48.5871 57.8304H50.709V59.9538H48.5871V57.8304ZM50.709 57.8304H52.8309V59.9538H50.709V57.8304ZM54.9528 57.8304H57.0747V59.9538H54.9528V57.8304ZM59.1966 57.8304H61.3185V59.9538H59.1966V57.8304ZM65.5623 57.8304H67.6842V59.9538H65.5623V57.8304ZM16.7586 59.9538H18.8805V62.0773H16.7586V59.9538ZM21.0024 59.9538H23.1243V62.0773H21.0024V59.9538ZM23.1243 59.9538H25.2462V62.0773H23.1243V59.9538ZM27.3681 59.9538H29.49V62.0773H27.3681V59.9538ZM40.0995 59.9538H42.2214V62.0773H40.0995V59.9538ZM42.2214 59.9538H44.3433V62.0773H42.2214V59.9538ZM50.709 59.9538H52.8309V62.0773H50.709V59.9538ZM54.9528 59.9538H57.0747V62.0773H54.9528V59.9538ZM57.0747 59.9538H59.1966V62.0773H57.0747V59.9538ZM59.1966 59.9538H61.3185V62.0773H59.1966V59.9538ZM63.4404 59.9538H65.5623V62.0773H63.4404V59.9538ZM65.5623 59.9538H67.6842V62.0773H65.5623V59.9538ZM12.5148 62.0773H14.6367V64.2007H12.5148V62.0773ZM14.6367 62.0773H16.7586V64.2007H14.6367V62.0773ZM16.7586 62.0773H18.8805V64.2007H16.7586V62.0773ZM18.8805 62.0773H21.0024V64.2007H18.8805V62.0773ZM23.1243 62.0773H25.2462V64.2007H23.1243V62.0773ZM25.2462 62.0773H27.3681V64.2007H25.2462V62.0773ZM31.6119 62.0773H33.7338V64.2007H31.6119V62.0773ZM33.7338 62.0773H35.8557V64.2007H33.7338V62.0773ZM37.9776 62.0773H40.0995V64.2007H37.9776V62.0773ZM40.0995 62.0773H42.2214V64.2007H40.0995V62.0773ZM42.2214 62.0773H44.3433V64.2007H42.2214V62.0773ZM46.4652 62.0773H48.5871V64.2007H46.4652V62.0773ZM54.9528 62.0773H57.0747V64.2007H54.9528V62.0773ZM59.1966 62.0773H61.3185V64.2007H59.1966V62.0773ZM61.3185 62.0773H63.4404V64.2007H61.3185V62.0773ZM65.5623 62.0773H67.6842V64.2007H65.5623V62.0773ZM25.2462 64.2007H27.3681V66.3242H25.2462V64.2007ZM27.3681 64.2007H29.49V66.3242H27.3681V64.2007ZM33.7338 64.2007H35.8557V66.3242H33.7338V64.2007ZM37.9776 64.2007H40.0995V66.3242H37.9776V64.2007ZM42.2214 64.2007H44.3433V66.3242H42.2214V64.2007ZM44.3433 64.2007H46.4652V66.3242H44.3433V64.2007ZM52.8309 64.2007H54.9528V66.3242H52.8309V64.2007ZM57.0747 64.2007H59.1966V66.3242H57.0747V64.2007ZM61.3185 64.2007H63.4404V66.3242H61.3185V64.2007ZM63.4404 64.2007H65.5623V66.3242H63.4404V64.2007ZM65.5623 64.2007H67.6842V66.3242H65.5623V64.2007ZM6.14905 66.3242H8.27095V68.4477H6.14905V66.3242ZM12.5148 66.3242H14.6367V68.4477H12.5148V66.3242ZM14.6367 66.3242H16.7586V68.4477H14.6367V66.3242ZM18.8805 66.3242H21.0024V68.4477H18.8805V66.3242ZM23.1243 66.3242H25.2462V68.4477H23.1243V66.3242ZM27.3681 66.3242H29.49V68.4477H27.3681V66.3242ZM29.49 66.3242H31.6119V68.4477H29.49V66.3242ZM35.8557 66.3242H37.9776V68.4477H35.8557V66.3242ZM44.3433 66.3242H46.4652V68.4477H44.3433V66.3242ZM48.5871 66.3242H50.709V68.4477H48.5871V66.3242ZM57.0747 66.3242H59.1966V68.4477H57.0747V66.3242ZM63.4404 66.3242H65.5623V68.4477H63.4404V66.3242ZM65.5623 66.3242H67.6842V68.4477H65.5623V66.3242ZM6.14905 68.4477H8.27095V70.5711H6.14905V68.4477ZM8.27095 68.4477H10.3929V70.5711H8.27095V68.4477ZM10.3929 68.4477H12.5148V70.5711H10.3929V68.4477ZM12.5148 68.4477H14.6367V70.5711H12.5148V68.4477ZM16.7586 68.4477H18.8805V70.5711H16.7586V68.4477ZM29.49 68.4477H31.6119V70.5711H29.49V68.4477ZM33.7338 68.4477H35.8557V70.5711H33.7338V68.4477ZM40.0995 68.4477H42.2214V70.5711H40.0995V68.4477ZM48.5871 68.4477H50.709V70.5711H48.5871V68.4477ZM50.709 68.4477H52.8309V70.5711H50.709V68.4477ZM54.9528 68.4477H57.0747V70.5711H54.9528V68.4477ZM59.1966 68.4477H61.3185V70.5711H59.1966V68.4477ZM63.4404 68.4477H65.5623V70.5711H63.4404V68.4477ZM6.14905 70.5711H8.27095V72.6946H6.14905V70.5711ZM10.3929 70.5711H12.5148V72.6946H10.3929V70.5711ZM16.7586 70.5711H18.8805V72.6946H16.7586V70.5711ZM18.8805 70.5711H21.0024V72.6946H18.8805V70.5711ZM31.6119 70.5711H33.7338V72.6946H31.6119V70.5711ZM33.7338 70.5711H35.8557V72.6946H33.7338V70.5711ZM35.8557 70.5711H37.9776V72.6946H35.8557V70.5711ZM40.0995 70.5711H42.2214V72.6946H40.0995V70.5711ZM48.5871 70.5711H50.709V72.6946H48.5871V70.5711ZM50.709 70.5711H52.8309V72.6946H50.709V70.5711ZM52.8309 70.5711H54.9528V72.6946H52.8309V70.5711ZM57.0747 70.5711H59.1966V72.6946H57.0747V70.5711ZM65.5623 70.5711H67.6842V72.6946H65.5623V70.5711ZM6.14905 72.6946H8.27095V74.818H6.14905V72.6946ZM8.27095 72.6946H10.3929V74.818H8.27095V72.6946ZM12.5148 72.6946H14.6367V74.818H12.5148V72.6946ZM14.6367 72.6946H16.7586V74.818H14.6367V72.6946ZM23.1243 72.6946H25.2462V74.818H23.1243V72.6946ZM25.2462 72.6946H27.3681V74.818H25.2462V72.6946ZM29.49 72.6946H31.6119V74.818H29.49V72.6946ZM35.8557 72.6946H37.9776V74.818H35.8557V72.6946ZM42.2214 72.6946H44.3433V74.818H42.2214V72.6946ZM44.3433 72.6946H46.4652V74.818H44.3433V72.6946ZM46.4652 72.6946H48.5871V74.818H46.4652V72.6946ZM54.9528 72.6946H57.0747V74.818H54.9528V72.6946ZM57.0747 72.6946H59.1966V74.818H57.0747V72.6946ZM61.3185 72.6946H63.4404V74.818H61.3185V72.6946ZM65.5623 72.6946H67.6842V74.818H65.5623V72.6946ZM10.3929 74.818H12.5148V76.9415H10.3929V74.818ZM14.6367 74.818H16.7586V76.9415H14.6367V74.818ZM18.8805 74.818H21.0024V76.9415H18.8805V74.818ZM25.2462 74.818H27.3681V76.9415H25.2462V74.818ZM31.6119 74.818H33.7338V76.9415H31.6119V74.818ZM33.7338 74.818H35.8557V76.9415H33.7338V74.818ZM37.9776 74.818H40.0995V76.9415H37.9776V74.818ZM42.2214 74.818H44.3433V76.9415H42.2214V74.818ZM44.3433 74.818H46.4652V76.9415H44.3433V74.818ZM46.4652 74.818H48.5871V76.9415H46.4652V74.818ZM54.9528 74.818H57.0747V76.9415H54.9528V74.818ZM59.1966 74.818H61.3185V76.9415H59.1966V74.818ZM65.5623 74.818H67.6842V76.9415H65.5623V74.818ZM10.3929 76.9415H12.5148V79.065H10.3929V76.9415ZM14.6367 76.9415H16.7586V79.065H14.6367V76.9415ZM21.0024 76.9415H23.1243V79.065H21.0024V76.9415ZM25.2462 76.9415H27.3681V79.065H25.2462V76.9415ZM27.3681 76.9415H29.49V79.065H27.3681V76.9415ZM31.6119 76.9415H33.7338V79.065H31.6119V76.9415ZM35.8557 76.9415H37.9776V79.065H35.8557V76.9415ZM37.9776 76.9415H40.0995V79.065H37.9776V76.9415ZM40.0995 76.9415H42.2214V79.065H40.0995V76.9415ZM42.2214 76.9415H44.3433V79.065H42.2214V76.9415ZM46.4652 76.9415H48.5871V79.065H46.4652V76.9415ZM48.5871 76.9415H50.709V79.065H48.5871V76.9415ZM54.9528 76.9415H57.0747V79.065H54.9528V76.9415ZM57.0747 76.9415H59.1966V79.065H57.0747V76.9415ZM59.1966 76.9415H61.3185V79.065H59.1966V76.9415ZM63.4404 76.9415H65.5623V79.065H63.4404V76.9415ZM6.14905 79.065H8.27095V81.1884H6.14905V79.065ZM8.27095 79.065H10.3929V81.1884H8.27095V79.065ZM18.8805 79.065H21.0024V81.1884H18.8805V79.065ZM23.1243 79.065H25.2462V81.1884H23.1243V79.065ZM25.2462 79.065H27.3681V81.1884H25.2462V79.065ZM27.3681 79.065H29.49V81.1884H27.3681V79.065ZM29.49 79.065H31.6119V81.1884H29.49V79.065ZM33.7338 79.065H35.8557V81.1884H33.7338V79.065ZM35.8557 79.065H37.9776V81.1884H35.8557V79.065ZM40.0995 79.065H42.2214V81.1884H40.0995V79.065ZM42.2214 79.065H44.3433V81.1884H42.2214V79.065ZM48.5871 79.065H50.709V81.1884H48.5871V79.065ZM50.709 79.065H52.8309V81.1884H50.709V79.065ZM52.8309 79.065H54.9528V81.1884H52.8309V79.065ZM54.9528 79.065H57.0747V81.1884H54.9528V79.065ZM57.0747 79.065H59.1966V81.1884H57.0747V79.065ZM63.4404 79.065H65.5623V81.1884H63.4404V79.065ZM23.1243 81.1884H25.2462V83.3119H23.1243V81.1884ZM27.3681 81.1884H29.49V83.3119H27.3681V81.1884ZM35.8557 81.1884H37.9776V83.3119H35.8557V81.1884ZM37.9776 81.1884H40.0995V83.3119H37.9776V81.1884ZM44.3433 81.1884H46.4652V83.3119H44.3433V81.1884ZM46.4652 81.1884H48.5871V83.3119H46.4652V81.1884ZM48.5871 81.1884H50.709V83.3119H48.5871V81.1884ZM57.0747 81.1884H59.1966V83.3119H57.0747V81.1884ZM61.3185 81.1884H63.4404V83.3119H61.3185V81.1884ZM63.4404 81.1884H65.5623V83.3119H63.4404V81.1884ZM6.14905 83.3119H8.27095V85.4353H6.14905V83.3119ZM8.27095 83.3119H10.3929V85.4353H8.27095V83.3119ZM10.3929 83.3119H12.5148V85.4353H10.3929V83.3119ZM12.5148 83.3119H14.6367V85.4353H12.5148V83.3119ZM14.6367 83.3119H16.7586V85.4353H14.6367V83.3119ZM16.7586 83.3119H18.8805V85.4353H16.7586V83.3119ZM18.8805 83.3119H21.0024V85.4353H18.8805V83.3119ZM25.2462 83.3119H27.3681V85.4353H25.2462V83.3119ZM29.49 83.3119H31.6119V85.4353H29.49V83.3119ZM31.6119 83.3119H33.7338V85.4353H31.6119V83.3119ZM37.9776 83.3119H40.0995V85.4353H37.9776V83.3119ZM42.2214 83.3119H44.3433V85.4353H42.2214V83.3119ZM46.4652 83.3119H48.5871V85.4353H46.4652V83.3119ZM48.5871 83.3119H50.709V85.4353H48.5871V83.3119ZM52.8309 83.3119H54.9528V85.4353H52.8309V83.3119ZM57.0747 83.3119H59.1966V85.4353H57.0747V83.3119ZM65.5623 83.3119H67.6842V85.4353H65.5623V83.3119ZM6.14905 85.4353H8.27095V87.5588H6.14905V85.4353ZM18.8805 85.4353H21.0024V87.5588H18.8805V85.4353ZM25.2462 85.4353H27.3681V87.5588H25.2462V85.4353ZM27.3681 85.4353H29.49V87.5588H27.3681V85.4353ZM29.49 85.4353H31.6119V87.5588H29.49V85.4353ZM31.6119 85.4353H33.7338V87.5588H31.6119V85.4353ZM35.8557 85.4353H37.9776V87.5588H35.8557V85.4353ZM42.2214 85.4353H44.3433V87.5588H42.2214V85.4353ZM44.3433 85.4353H46.4652V87.5588H44.3433V85.4353ZM46.4652 85.4353H48.5871V87.5588H46.4652V85.4353ZM48.5871 85.4353H50.709V87.5588H48.5871V85.4353ZM57.0747 85.4353H59.1966V87.5588H57.0747V85.4353ZM59.1966 85.4353H61.3185V87.5588H59.1966V85.4353ZM6.14905 87.5588H8.27095V89.6822H6.14905V87.5588ZM10.3929 87.5588H12.5148V89.6822H10.3929V87.5588ZM12.5148 87.5588H14.6367V89.6822H12.5148V87.5588ZM14.6367 87.5588H16.7586V89.6822H14.6367V87.5588ZM18.8805 87.5588H21.0024V89.6822H18.8805V87.5588ZM23.1243 87.5588H25.2462V89.6822H23.1243V87.5588ZM25.2462 87.5588H27.3681V89.6822H25.2462V87.5588ZM27.3681 87.5588H29.49V89.6822H27.3681V87.5588ZM29.49 87.5588H31.6119V89.6822H29.49V87.5588ZM31.6119 87.5588H33.7338V89.6822H31.6119V87.5588ZM37.9776 87.5588H40.0995V89.6822H37.9776V87.5588ZM44.3433 87.5588H46.4652V89.6822H44.3433V87.5588ZM46.4652 87.5588H48.5871V89.6822H46.4652V87.5588ZM48.5871 87.5588H50.709V89.6822H48.5871V87.5588ZM50.709 87.5588H52.8309V89.6822H50.709V87.5588ZM52.8309 87.5588H54.9528V89.6822H52.8309V87.5588ZM54.9528 87.5588H57.0747V89.6822H54.9528V87.5588ZM57.0747 87.5588H59.1966V89.6822H57.0747V87.5588ZM6.14905 89.6822H8.27095V91.8057H6.14905V89.6822ZM10.3929 89.6822H12.5148V91.8057H10.3929V89.6822ZM12.5148 89.6822H14.6367V91.8057H12.5148V89.6822ZM14.6367 89.6822H16.7586V91.8057H14.6367V89.6822ZM18.8805 89.6822H21.0024V91.8057H18.8805V89.6822ZM25.2462 89.6822H27.3681V91.8057H25.2462V89.6822ZM29.49 89.6822H31.6119V91.8057H29.49V89.6822ZM35.8557 89.6822H37.9776V91.8057H35.8557V89.6822ZM40.0995 89.6822H42.2214V91.8057H40.0995V89.6822ZM54.9528 89.6822H57.0747V91.8057H54.9528V89.6822ZM61.3185 89.6822H63.4404V91.8057H61.3185V89.6822ZM63.4404 89.6822H65.5623V91.8057H63.4404V89.6822ZM6.14905 91.8057H8.27095V93.9292H6.14905V91.8057ZM10.3929 91.8057H12.5148V93.9292H10.3929V91.8057ZM12.5148 91.8057H14.6367V93.9292H12.5148V91.8057ZM14.6367 91.8057H16.7586V93.9292H14.6367V91.8057ZM18.8805 91.8057H21.0024V93.9292H18.8805V91.8057ZM25.2462 91.8057H27.3681V93.9292H25.2462V91.8057ZM29.49 91.8057H31.6119V93.9292H29.49V91.8057ZM31.6119 91.8057H33.7338V93.9292H31.6119V91.8057ZM33.7338 91.8057H35.8557V93.9292H33.7338V91.8057ZM35.8557 91.8057H37.9776V93.9292H35.8557V91.8057ZM40.0995 91.8057H42.2214V93.9292H40.0995V91.8057ZM42.2214 91.8057H44.3433V93.9292H42.2214V91.8057ZM46.4652 91.8057H48.5871V93.9292H46.4652V91.8057ZM48.5871 91.8057H50.709V93.9292H48.5871V91.8057ZM50.709 91.8057H52.8309V93.9292H50.709V91.8057ZM59.1966 91.8057H61.3185V93.9292H59.1966V91.8057ZM61.3185 91.8057H63.4404V93.9292H61.3185V91.8057ZM63.4404 91.8057H65.5623V93.9292H63.4404V91.8057ZM65.5623 91.8057H67.6842V93.9292H65.5623V91.8057ZM6.14905 93.9292H8.27095V96.0526H6.14905V93.9292ZM18.8805 93.9292H21.0024V96.0526H18.8805V93.9292ZM23.1243 93.9292H25.2462V96.0526H23.1243V93.9292ZM29.49 93.9292H31.6119V96.0526H29.49V93.9292ZM35.8557 93.9292H37.9776V96.0526H35.8557V93.9292ZM42.2214 93.9292H44.3433V96.0526H42.2214V93.9292ZM44.3433 93.9292H46.4652V96.0526H44.3433V93.9292ZM46.4652 93.9292H48.5871V96.0526H46.4652V93.9292ZM50.709 93.9292H52.8309V96.0526H50.709V93.9292ZM52.8309 93.9292H54.9528V96.0526H52.8309V93.9292ZM54.9528 93.9292H57.0747V96.0526H54.9528V93.9292ZM63.4404 93.9292H65.5623V96.0526H63.4404V93.9292ZM65.5623 93.9292H67.6842V96.0526H65.5623V93.9292ZM6.14905 96.0526H8.27095V98.1761H6.14905V96.0526ZM8.27095 96.0526H10.3929V98.1761H8.27095V96.0526ZM10.3929 96.0526H12.5148V98.1761H10.3929V96.0526ZM12.5148 96.0526H14.6367V98.1761H12.5148V96.0526ZM14.6367 96.0526H16.7586V98.1761H14.6367V96.0526ZM16.7586 96.0526H18.8805V98.1761H16.7586V96.0526ZM18.8805 96.0526H21.0024V98.1761H18.8805V96.0526ZM25.2462 96.0526H27.3681V98.1761H25.2462V96.0526ZM29.49 96.0526H31.6119V98.1761H29.49V96.0526ZM33.7338 96.0526H35.8557V98.1761H33.7338V96.0526ZM37.9776 96.0526H40.0995V98.1761H37.9776V96.0526ZM42.2214 96.0526H44.3433V98.1761H42.2214V96.0526ZM44.3433 96.0526H46.4652V98.1761H44.3433V96.0526ZM46.4652 96.0526H48.5871V98.1761H46.4652V96.0526ZM48.5871 96.0526H50.709V98.1761H48.5871V96.0526ZM50.709 96.0526H52.8309V98.1761H50.709V96.0526ZM57.0747 96.0526H59.1966V98.1761H57.0747V96.0526ZM63.4404 96.0526H65.5623V98.1761H63.4404V96.0526Z" fill="black"/>
<path d="M72.9682 8.85271C63.8751 5.8243 46.281 6.86372 42.9973 24.5986M42.9973 24.5986L40.36 17.2988M42.9973 24.5986L49.9725 20.2164" stroke="#A990FF" stroke-width="2.2285" stroke-linecap="round"/>
</svg>
