<!-- This Source Code Form is subject to the terms of the Mozilla Public
   - License, v. 2.0. If a copy of the MPL was not distributed with this
   - file, You can obtain one at http://mozilla.org/MPL/2.0/. -->
<svg width="76" height="106" viewBox="0 0 76 106" fill="none" xmlns="http://www.w3.org/2000/svg">
<rect x="0.907715" y="31.6691" width="73.1009" height="73.1009" rx="2.94093" fill="white" stroke="black"/>
<rect width="62" height="63" transform="translate(6.40771 36.899)" fill="white"/>
<path d="M6.40771 36.8256H8.08339V38.5323H6.40771V36.8256ZM8.08339 36.8256H9.75906V38.5323H8.08339V36.8256ZM9.75906 36.8256H11.4347V38.5323H9.75906V36.8256ZM11.4347 36.8256H13.1104V38.5323H11.4347V36.8256ZM13.1104 36.8256H14.7861V38.5323H13.1104V36.8256ZM14.7861 36.8256H16.4618V38.5323H14.7861V36.8256ZM16.4618 36.8256H18.1374V38.5323H16.4618V36.8256ZM19.8131 36.8256H21.4888V38.5323H19.8131V36.8256ZM21.4888 36.8256H23.1645V38.5323H21.4888V36.8256ZM26.5158 36.8256H28.1915V38.5323H26.5158V36.8256ZM28.1915 36.8256H29.8672V38.5323H28.1915V36.8256ZM31.5428 36.8256H33.2185V38.5323H31.5428V36.8256ZM34.8942 36.8256H36.5699V38.5323H34.8942V36.8256ZM38.2455 36.8256H39.9212V38.5323H38.2455V36.8256ZM43.2726 36.8256H44.9482V38.5323H43.2726V36.8256ZM44.9482 36.8256H46.6239V38.5323H44.9482V36.8256ZM56.678 36.8256H58.3536V38.5323H56.678V36.8256ZM58.3536 36.8256H60.0293V38.5323H58.3536V36.8256ZM60.0293 36.8256H61.705V38.5323H60.0293V36.8256ZM61.705 36.8256H63.3807V38.5323H61.705V36.8256ZM63.3807 36.8256H65.0563V38.5323H63.3807V36.8256ZM65.0563 36.8256H66.732V38.5323H65.0563V36.8256ZM66.732 36.8256H68.4077V38.5323H66.732V36.8256ZM6.40771 38.5323H8.08339V40.2389H6.40771V38.5323ZM16.4618 38.5323H18.1374V40.2389H16.4618V38.5323ZM19.8131 38.5323H21.4888V40.2389H19.8131V38.5323ZM23.1645 38.5323H24.8401V40.2389H23.1645V38.5323ZM28.1915 38.5323H29.8672V40.2389H28.1915V38.5323ZM31.5428 38.5323H33.2185V40.2389H31.5428V38.5323ZM36.5699 38.5323H38.2455V40.2389H36.5699V38.5323ZM44.9482 38.5323H46.6239V40.2389H44.9482V38.5323ZM46.6239 38.5323H48.2996V40.2389H46.6239V38.5323ZM48.2996 38.5323H49.9753V40.2389H48.2996V38.5323ZM49.9753 38.5323H51.6509V40.2389H49.9753V38.5323ZM53.3266 38.5323H55.0023V40.2389H53.3266V38.5323ZM56.678 38.5323H58.3536V40.2389H56.678V38.5323ZM66.732 38.5323H68.4077V40.2389H66.732V38.5323ZM6.40771 40.2389H8.08339V41.9456H6.40771V40.2389ZM9.75906 40.2389H11.4347V41.9456H9.75906V40.2389ZM11.4347 40.2389H13.1104V41.9456H11.4347V40.2389ZM13.1104 40.2389H14.7861V41.9456H13.1104V40.2389ZM16.4618 40.2389H18.1374V41.9456H16.4618V40.2389ZM29.8672 40.2389H31.5428V41.9456H29.8672V40.2389ZM33.2185 40.2389H34.8942V41.9456H33.2185V40.2389ZM36.5699 40.2389H38.2455V41.9456H36.5699V40.2389ZM38.2455 40.2389H39.9212V41.9456H38.2455V40.2389ZM41.5969 40.2389H43.2726V41.9456H41.5969V40.2389ZM43.2726 40.2389H44.9482V41.9456H43.2726V40.2389ZM44.9482 40.2389H46.6239V41.9456H44.9482V40.2389ZM49.9753 40.2389H51.6509V41.9456H49.9753V40.2389ZM51.6509 40.2389H53.3266V41.9456H51.6509V40.2389ZM56.678 40.2389H58.3536V41.9456H56.678V40.2389ZM60.0293 40.2389H61.705V41.9456H60.0293V40.2389ZM61.705 40.2389H63.3807V41.9456H61.705V40.2389ZM63.3807 40.2389H65.0563V41.9456H63.3807V40.2389ZM66.732 40.2389H68.4077V41.9456H66.732V40.2389ZM6.40771 41.9456H8.08339V43.6523H6.40771V41.9456ZM9.75906 41.9456H11.4347V43.6523H9.75906V41.9456ZM11.4347 41.9456H13.1104V43.6523H11.4347V41.9456ZM13.1104 41.9456H14.7861V43.6523H13.1104V41.9456ZM16.4618 41.9456H18.1374V43.6523H16.4618V41.9456ZM23.1645 41.9456H24.8401V43.6523H23.1645V41.9456ZM24.8401 41.9456H26.5158V43.6523H24.8401V41.9456ZM26.5158 41.9456H28.1915V43.6523H26.5158V41.9456ZM29.8672 41.9456H31.5428V43.6523H29.8672V41.9456ZM33.2185 41.9456H34.8942V43.6523H33.2185V41.9456ZM34.8942 41.9456H36.5699V43.6523H34.8942V41.9456ZM38.2455 41.9456H39.9212V43.6523H38.2455V41.9456ZM41.5969 41.9456H43.2726V43.6523H41.5969V41.9456ZM44.9482 41.9456H46.6239V43.6523H44.9482V41.9456ZM46.6239 41.9456H48.2996V43.6523H46.6239V41.9456ZM48.2996 41.9456H49.9753V43.6523H48.2996V41.9456ZM51.6509 41.9456H53.3266V43.6523H51.6509V41.9456ZM53.3266 41.9456H55.0023V43.6523H53.3266V41.9456ZM56.678 41.9456H58.3536V43.6523H56.678V41.9456ZM60.0293 41.9456H61.705V43.6523H60.0293V41.9456ZM61.705 41.9456H63.3807V43.6523H61.705V41.9456ZM63.3807 41.9456H65.0563V43.6523H63.3807V41.9456ZM66.732 41.9456H68.4077V43.6523H66.732V41.9456ZM6.40771 43.6523H8.08339V45.3589H6.40771V43.6523ZM9.75906 43.6523H11.4347V45.3589H9.75906V43.6523ZM11.4347 43.6523H13.1104V45.3589H11.4347V43.6523ZM13.1104 43.6523H14.7861V45.3589H13.1104V43.6523ZM16.4618 43.6523H18.1374V45.3589H16.4618V43.6523ZM21.4888 43.6523H23.1645V45.3589H21.4888V43.6523ZM24.8401 43.6523H26.5158V45.3589H24.8401V43.6523ZM26.5158 43.6523H28.1915V45.3589H26.5158V43.6523ZM28.1915 43.6523H29.8672V45.3589H28.1915V43.6523ZM29.8672 43.6523H31.5428V45.3589H29.8672V43.6523ZM33.2185 43.6523H34.8942V45.3589H33.2185V43.6523ZM34.8942 43.6523H36.5699V45.3589H34.8942V43.6523ZM44.9482 43.6523H46.6239V45.3589H44.9482V43.6523ZM48.2996 43.6523H49.9753V45.3589H48.2996V43.6523ZM56.678 43.6523H58.3536V45.3589H56.678V43.6523ZM60.0293 43.6523H61.705V45.3589H60.0293V43.6523ZM61.705 43.6523H63.3807V45.3589H61.705V43.6523ZM63.3807 43.6523H65.0563V45.3589H63.3807V43.6523ZM66.732 43.6523H68.4077V45.3589H66.732V43.6523ZM6.40771 45.3589H8.08339V47.0656H6.40771V45.3589ZM16.4618 45.3589H18.1374V47.0656H16.4618V45.3589ZM21.4888 45.3589H23.1645V47.0656H21.4888V45.3589ZM24.8401 45.3589H26.5158V47.0656H24.8401V45.3589ZM26.5158 45.3589H28.1915V47.0656H26.5158V45.3589ZM28.1915 45.3589H29.8672V47.0656H28.1915V45.3589ZM31.5428 45.3589H33.2185V47.0656H31.5428V45.3589ZM33.2185 45.3589H34.8942V47.0656H33.2185V45.3589ZM34.8942 45.3589H36.5699V47.0656H34.8942V45.3589ZM36.5699 45.3589H38.2455V47.0656H36.5699V45.3589ZM39.9212 45.3589H41.5969V47.0656H39.9212V45.3589ZM48.2996 45.3589H49.9753V47.0656H48.2996V45.3589ZM49.9753 45.3589H51.6509V47.0656H49.9753V45.3589ZM53.3266 45.3589H55.0023V47.0656H53.3266V45.3589ZM56.678 45.3589H58.3536V47.0656H56.678V45.3589ZM66.732 45.3589H68.4077V47.0656H66.732V45.3589ZM6.40771 47.0656H8.08339V48.7723H6.40771V47.0656ZM8.08339 47.0656H9.75906V48.7723H8.08339V47.0656ZM9.75906 47.0656H11.4347V48.7723H9.75906V47.0656ZM11.4347 47.0656H13.1104V48.7723H11.4347V47.0656ZM13.1104 47.0656H14.7861V48.7723H13.1104V47.0656ZM14.7861 47.0656H16.4618V48.7723H14.7861V47.0656ZM16.4618 47.0656H18.1374V48.7723H16.4618V47.0656ZM19.8131 47.0656H21.4888V48.7723H19.8131V47.0656ZM23.1645 47.0656H24.8401V48.7723H23.1645V47.0656ZM26.5158 47.0656H28.1915V48.7723H26.5158V47.0656ZM29.8672 47.0656H31.5428V48.7723H29.8672V47.0656ZM33.2185 47.0656H34.8942V48.7723H33.2185V47.0656ZM36.5699 47.0656H38.2455V48.7723H36.5699V47.0656ZM39.9212 47.0656H41.5969V48.7723H39.9212V47.0656ZM43.2726 47.0656H44.9482V48.7723H43.2726V47.0656ZM46.6239 47.0656H48.2996V48.7723H46.6239V47.0656ZM49.9753 47.0656H51.6509V48.7723H49.9753V47.0656ZM53.3266 47.0656H55.0023V48.7723H53.3266V47.0656ZM56.678 47.0656H58.3536V48.7723H56.678V47.0656ZM58.3536 47.0656H60.0293V48.7723H58.3536V47.0656ZM60.0293 47.0656H61.705V48.7723H60.0293V47.0656ZM61.705 47.0656H63.3807V48.7723H61.705V47.0656ZM63.3807 47.0656H65.0563V48.7723H63.3807V47.0656ZM65.0563 47.0656H66.732V48.7723H65.0563V47.0656ZM66.732 47.0656H68.4077V48.7723H66.732V47.0656ZM21.4888 48.7723H23.1645V50.4789H21.4888V48.7723ZM28.1915 48.7723H29.8672V50.4789H28.1915V48.7723ZM29.8672 48.7723H31.5428V50.4789H29.8672V48.7723ZM34.8942 48.7723H36.5699V50.4789H34.8942V48.7723ZM46.6239 48.7723H48.2996V50.4789H46.6239V48.7723ZM48.2996 48.7723H49.9753V50.4789H48.2996V48.7723ZM51.6509 48.7723H53.3266V50.4789H51.6509V48.7723ZM53.3266 48.7723H55.0023V50.4789H53.3266V48.7723ZM8.08339 50.4789H9.75906V52.1856H8.08339V50.4789ZM16.4618 50.4789H18.1374V52.1856H16.4618V50.4789ZM18.1374 50.4789H19.8131V52.1856H18.1374V50.4789ZM19.8131 50.4789H21.4888V52.1856H19.8131V50.4789ZM23.1645 50.4789H24.8401V52.1856H23.1645V50.4789ZM24.8401 50.4789H26.5158V52.1856H24.8401V50.4789ZM28.1915 50.4789H29.8672V52.1856H28.1915V50.4789ZM29.8672 50.4789H31.5428V52.1856H29.8672V50.4789ZM31.5428 50.4789H33.2185V52.1856H31.5428V50.4789ZM33.2185 50.4789H34.8942V52.1856H33.2185V50.4789ZM36.5699 50.4789H38.2455V52.1856H36.5699V50.4789ZM38.2455 50.4789H39.9212V52.1856H38.2455V50.4789ZM39.9212 50.4789H41.5969V52.1856H39.9212V50.4789ZM44.9482 50.4789H46.6239V52.1856H44.9482V50.4789ZM49.9753 50.4789H51.6509V52.1856H49.9753V50.4789ZM53.3266 50.4789H55.0023V52.1856H53.3266V50.4789ZM55.0023 50.4789H56.678V52.1856H55.0023V50.4789ZM65.0563 50.4789H66.732V52.1856H65.0563V50.4789ZM66.732 50.4789H68.4077V52.1856H66.732V50.4789ZM8.08339 52.1856H9.75906V53.8923H8.08339V52.1856ZM9.75906 52.1856H11.4347V53.8923H9.75906V52.1856ZM11.4347 52.1856H13.1104V53.8923H11.4347V52.1856ZM13.1104 52.1856H14.7861V53.8923H13.1104V52.1856ZM21.4888 52.1856H23.1645V53.8923H21.4888V52.1856ZM24.8401 52.1856H26.5158V53.8923H24.8401V52.1856ZM31.5428 52.1856H33.2185V53.8923H31.5428V52.1856ZM34.8942 52.1856H36.5699V53.8923H34.8942V52.1856ZM38.2455 52.1856H39.9212V53.8923H38.2455V52.1856ZM39.9212 52.1856H41.5969V53.8923H39.9212V52.1856ZM41.5969 52.1856H43.2726V53.8923H41.5969V52.1856ZM43.2726 52.1856H44.9482V53.8923H43.2726V52.1856ZM44.9482 52.1856H46.6239V53.8923H44.9482V52.1856ZM48.2996 52.1856H49.9753V53.8923H48.2996V52.1856ZM49.9753 52.1856H51.6509V53.8923H49.9753V52.1856ZM53.3266 52.1856H55.0023V53.8923H53.3266V52.1856ZM56.678 52.1856H58.3536V53.8923H56.678V52.1856ZM58.3536 52.1856H60.0293V53.8923H58.3536V52.1856ZM63.3807 52.1856H65.0563V53.8923H63.3807V52.1856ZM6.40771 53.8923H8.08339V55.599H6.40771V53.8923ZM11.4347 53.8923H13.1104V55.599H11.4347V53.8923ZM13.1104 53.8923H14.7861V55.599H13.1104V53.8923ZM16.4618 53.8923H18.1374V55.599H16.4618V53.8923ZM19.8131 53.8923H21.4888V55.599H19.8131V53.8923ZM23.1645 53.8923H24.8401V55.599H23.1645V53.8923ZM29.8672 53.8923H31.5428V55.599H29.8672V53.8923ZM39.9212 53.8923H41.5969V55.599H39.9212V53.8923ZM41.5969 53.8923H43.2726V55.599H41.5969V53.8923ZM43.2726 53.8923H44.9482V55.599H43.2726V53.8923ZM48.2996 53.8923H49.9753V55.599H48.2996V53.8923ZM49.9753 53.8923H51.6509V55.599H49.9753V53.8923ZM51.6509 53.8923H53.3266V55.599H51.6509V53.8923ZM53.3266 53.8923H55.0023V55.599H53.3266V53.8923ZM56.678 53.8923H58.3536V55.599H56.678V53.8923ZM60.0293 53.8923H61.705V55.599H60.0293V53.8923ZM61.705 53.8923H63.3807V55.599H61.705V53.8923ZM65.0563 53.8923H66.732V55.599H65.0563V53.8923ZM66.732 53.8923H68.4077V55.599H66.732V53.8923ZM6.40771 55.599H8.08339V57.3056H6.40771V55.599ZM8.08339 55.599H9.75906V57.3056H8.08339V55.599ZM9.75906 55.599H11.4347V57.3056H9.75906V55.599ZM11.4347 55.599H13.1104V57.3056H11.4347V55.599ZM14.7861 55.599H16.4618V57.3056H14.7861V55.599ZM18.1374 55.599H19.8131V57.3056H18.1374V55.599ZM21.4888 55.599H23.1645V57.3056H21.4888V55.599ZM23.1645 55.599H24.8401V57.3056H23.1645V55.599ZM26.5158 55.599H28.1915V57.3056H26.5158V55.599ZM28.1915 55.599H29.8672V57.3056H28.1915V55.599ZM31.5428 55.599H33.2185V57.3056H31.5428V55.599ZM33.2185 55.599H34.8942V57.3056H33.2185V55.599ZM36.5699 55.599H38.2455V57.3056H36.5699V55.599ZM39.9212 55.599H41.5969V57.3056H39.9212V55.599ZM44.9482 55.599H46.6239V57.3056H44.9482V55.599ZM49.9753 55.599H51.6509V57.3056H49.9753V55.599ZM56.678 55.599H58.3536V57.3056H56.678V55.599ZM58.3536 55.599H60.0293V57.3056H58.3536V55.599ZM60.0293 55.599H61.705V57.3056H60.0293V55.599ZM61.705 55.599H63.3807V57.3056H61.705V55.599ZM6.40771 57.3056H8.08339V59.0123H6.40771V57.3056ZM9.75906 57.3056H11.4347V59.0123H9.75906V57.3056ZM13.1104 57.3056H14.7861V59.0123H13.1104V57.3056ZM16.4618 57.3056H18.1374V59.0123H16.4618V57.3056ZM21.4888 57.3056H23.1645V59.0123H21.4888V57.3056ZM23.1645 57.3056H24.8401V59.0123H23.1645V57.3056ZM24.8401 57.3056H26.5158V59.0123H24.8401V57.3056ZM26.5158 57.3056H28.1915V59.0123H26.5158V57.3056ZM31.5428 57.3056H33.2185V59.0123H31.5428V57.3056ZM33.2185 57.3056H34.8942V59.0123H33.2185V57.3056ZM34.8942 57.3056H36.5699V59.0123H34.8942V57.3056ZM38.2455 57.3056H39.9212V59.0123H38.2455V57.3056ZM46.6239 57.3056H48.2996V59.0123H46.6239V57.3056ZM51.6509 57.3056H53.3266V59.0123H51.6509V57.3056ZM53.3266 57.3056H55.0023V59.0123H53.3266V57.3056ZM56.678 57.3056H58.3536V59.0123H56.678V57.3056ZM58.3536 57.3056H60.0293V59.0123H58.3536V57.3056ZM65.0563 57.3056H66.732V59.0123H65.0563V57.3056ZM66.732 57.3056H68.4077V59.0123H66.732V57.3056ZM6.40771 59.0123H8.08339V60.719H6.40771V59.0123ZM9.75906 59.0123H11.4347V60.719H9.75906V59.0123ZM14.7861 59.0123H16.4618V60.719H14.7861V59.0123ZM21.4888 59.0123H23.1645V60.719H21.4888V59.0123ZM23.1645 59.0123H24.8401V60.719H23.1645V59.0123ZM28.1915 59.0123H29.8672V60.719H28.1915V59.0123ZM31.5428 59.0123H33.2185V60.719H31.5428V59.0123ZM36.5699 59.0123H38.2455V60.719H36.5699V59.0123ZM39.9212 59.0123H41.5969V60.719H39.9212V59.0123ZM44.9482 59.0123H46.6239V60.719H44.9482V59.0123ZM51.6509 59.0123H53.3266V60.719H51.6509V59.0123ZM55.0023 59.0123H56.678V60.719H55.0023V59.0123ZM58.3536 59.0123H60.0293V60.719H58.3536V59.0123ZM63.3807 59.0123H65.0563V60.719H63.3807V59.0123ZM9.75906 60.719H11.4347V62.4256H9.75906V60.719ZM11.4347 60.719H13.1104V62.4256H11.4347V60.719ZM16.4618 60.719H18.1374V62.4256H16.4618V60.719ZM19.8131 60.719H21.4888V62.4256H19.8131V60.719ZM21.4888 60.719H23.1645V62.4256H21.4888V60.719ZM24.8401 60.719H26.5158V62.4256H24.8401V60.719ZM28.1915 60.719H29.8672V62.4256H28.1915V60.719ZM29.8672 60.719H31.5428V62.4256H29.8672V60.719ZM34.8942 60.719H36.5699V62.4256H34.8942V60.719ZM36.5699 60.719H38.2455V62.4256H36.5699V60.719ZM38.2455 60.719H39.9212V62.4256H38.2455V60.719ZM41.5969 60.719H43.2726V62.4256H41.5969V60.719ZM46.6239 60.719H48.2996V62.4256H46.6239V60.719ZM48.2996 60.719H49.9753V62.4256H48.2996V60.719ZM51.6509 60.719H53.3266V62.4256H51.6509V60.719ZM53.3266 60.719H55.0023V62.4256H53.3266V60.719ZM55.0023 60.719H56.678V62.4256H55.0023V60.719ZM56.678 60.719H58.3536V62.4256H56.678V60.719ZM58.3536 60.719H60.0293V62.4256H58.3536V60.719ZM60.0293 60.719H61.705V62.4256H60.0293V60.719ZM61.705 60.719H63.3807V62.4256H61.705V60.719ZM66.732 60.719H68.4077V62.4256H66.732V60.719ZM6.40771 62.4256H8.08339V64.1323H6.40771V62.4256ZM8.08339 62.4256H9.75906V64.1323H8.08339V62.4256ZM14.7861 62.4256H16.4618V64.1323H14.7861V62.4256ZM18.1374 62.4256H19.8131V64.1323H18.1374V62.4256ZM21.4888 62.4256H23.1645V64.1323H21.4888V62.4256ZM29.8672 62.4256H31.5428V64.1323H29.8672V62.4256ZM33.2185 62.4256H34.8942V64.1323H33.2185V62.4256ZM34.8942 62.4256H36.5699V64.1323H34.8942V62.4256ZM38.2455 62.4256H39.9212V64.1323H38.2455V62.4256ZM44.9482 62.4256H46.6239V64.1323H44.9482V62.4256ZM46.6239 62.4256H48.2996V64.1323H46.6239V62.4256ZM49.9753 62.4256H51.6509V64.1323H49.9753V62.4256ZM51.6509 62.4256H53.3266V64.1323H51.6509V62.4256ZM53.3266 62.4256H55.0023V64.1323H53.3266V62.4256ZM55.0023 62.4256H56.678V64.1323H55.0023V62.4256ZM60.0293 62.4256H61.705V64.1323H60.0293V62.4256ZM61.705 62.4256H63.3807V64.1323H61.705V62.4256ZM63.3807 62.4256H65.0563V64.1323H63.3807V62.4256ZM65.0563 62.4256H66.732V64.1323H65.0563V62.4256ZM66.732 62.4256H68.4077V64.1323H66.732V62.4256ZM6.40771 64.1323H8.08339V65.839H6.40771V64.1323ZM8.08339 64.1323H9.75906V65.839H8.08339V64.1323ZM9.75906 64.1323H11.4347V65.839H9.75906V64.1323ZM14.7861 64.1323H16.4618V65.839H14.7861V64.1323ZM16.4618 64.1323H18.1374V65.839H16.4618V64.1323ZM23.1645 64.1323H24.8401V65.839H23.1645V64.1323ZM24.8401 64.1323H26.5158V65.839H24.8401V64.1323ZM28.1915 64.1323H29.8672V65.839H28.1915V64.1323ZM29.8672 64.1323H31.5428V65.839H29.8672V64.1323ZM38.2455 64.1323H39.9212V65.839H38.2455V64.1323ZM41.5969 64.1323H43.2726V65.839H41.5969V64.1323ZM44.9482 64.1323H46.6239V65.839H44.9482V64.1323ZM48.2996 64.1323H49.9753V65.839H48.2996V64.1323ZM49.9753 64.1323H51.6509V65.839H49.9753V64.1323ZM51.6509 64.1323H53.3266V65.839H51.6509V64.1323ZM56.678 64.1323H58.3536V65.839H56.678V64.1323ZM60.0293 64.1323H61.705V65.839H60.0293V64.1323ZM63.3807 64.1323H65.0563V65.839H63.3807V64.1323ZM66.732 64.1323H68.4077V65.839H66.732V64.1323ZM6.40771 65.839H8.08339V67.5456H6.40771V65.839ZM8.08339 65.839H9.75906V67.5456H8.08339V65.839ZM9.75906 65.839H11.4347V67.5456H9.75906V65.839ZM13.1104 65.839H14.7861V67.5456H13.1104V65.839ZM21.4888 65.839H23.1645V67.5456H21.4888V65.839ZM23.1645 65.839H24.8401V67.5456H23.1645V65.839ZM26.5158 65.839H28.1915V67.5456H26.5158V65.839ZM36.5699 65.839H38.2455V67.5456H36.5699V65.839ZM41.5969 65.839H43.2726V67.5456H41.5969V65.839ZM43.2726 65.839H44.9482V67.5456H43.2726V65.839ZM46.6239 65.839H48.2996V67.5456H46.6239V65.839ZM48.2996 65.839H49.9753V67.5456H48.2996V65.839ZM51.6509 65.839H53.3266V67.5456H51.6509V65.839ZM53.3266 65.839H55.0023V67.5456H53.3266V65.839ZM58.3536 65.839H60.0293V67.5456H58.3536V65.839ZM61.705 65.839H63.3807V67.5456H61.705V65.839ZM63.3807 65.839H65.0563V67.5456H63.3807V65.839ZM6.40771 67.5456H8.08339V69.2523H6.40771V67.5456ZM8.08339 67.5456H9.75906V69.2523H8.08339V67.5456ZM11.4347 67.5456H13.1104V69.2523H11.4347V67.5456ZM14.7861 67.5456H16.4618V69.2523H14.7861V67.5456ZM16.4618 67.5456H18.1374V69.2523H16.4618V67.5456ZM24.8401 67.5456H26.5158V69.2523H24.8401V67.5456ZM29.8672 67.5456H31.5428V69.2523H29.8672V67.5456ZM34.8942 67.5456H36.5699V69.2523H34.8942V67.5456ZM36.5699 67.5456H38.2455V69.2523H36.5699V67.5456ZM38.2455 67.5456H39.9212V69.2523H38.2455V67.5456ZM39.9212 67.5456H41.5969V69.2523H39.9212V67.5456ZM41.5969 67.5456H43.2726V69.2523H41.5969V67.5456ZM44.9482 67.5456H46.6239V69.2523H44.9482V67.5456ZM48.2996 67.5456H49.9753V69.2523H48.2996V67.5456ZM51.6509 67.5456H53.3266V69.2523H51.6509V67.5456ZM53.3266 67.5456H55.0023V69.2523H53.3266V67.5456ZM56.678 67.5456H58.3536V69.2523H56.678V67.5456ZM58.3536 67.5456H60.0293V69.2523H58.3536V67.5456ZM61.705 67.5456H63.3807V69.2523H61.705V67.5456ZM66.732 67.5456H68.4077V69.2523H66.732V67.5456ZM19.8131 69.2523H21.4888V70.959H19.8131V69.2523ZM23.1645 69.2523H24.8401V70.959H23.1645V69.2523ZM24.8401 69.2523H26.5158V70.959H24.8401V69.2523ZM26.5158 69.2523H28.1915V70.959H26.5158V69.2523ZM28.1915 69.2523H29.8672V70.959H28.1915V69.2523ZM29.8672 69.2523H31.5428V70.959H29.8672V69.2523ZM31.5428 69.2523H33.2185V70.959H31.5428V69.2523ZM36.5699 69.2523H38.2455V70.959H36.5699V69.2523ZM38.2455 69.2523H39.9212V70.959H38.2455V69.2523ZM39.9212 69.2523H41.5969V70.959H39.9212V69.2523ZM46.6239 69.2523H48.2996V70.959H46.6239V69.2523ZM49.9753 69.2523H51.6509V70.959H49.9753V69.2523ZM51.6509 69.2523H53.3266V70.959H51.6509V69.2523ZM53.3266 69.2523H55.0023V70.959H53.3266V69.2523ZM55.0023 69.2523H56.678V70.959H55.0023V69.2523ZM56.678 69.2523H58.3536V70.959H56.678V69.2523ZM61.705 69.2523H63.3807V70.959H61.705V69.2523ZM66.732 69.2523H68.4077V70.959H66.732V69.2523ZM9.75906 70.959H11.4347V72.6656H9.75906V70.959ZM11.4347 70.959H13.1104V72.6656H11.4347V70.959ZM16.4618 70.959H18.1374V72.6656H16.4618V70.959ZM18.1374 70.959H19.8131V72.6656H18.1374V70.959ZM19.8131 70.959H21.4888V72.6656H19.8131V70.959ZM28.1915 70.959H29.8672V72.6656H28.1915V70.959ZM31.5428 70.959H33.2185V72.6656H31.5428V70.959ZM33.2185 70.959H34.8942V72.6656H33.2185V70.959ZM36.5699 70.959H38.2455V72.6656H36.5699V70.959ZM43.2726 70.959H44.9482V72.6656H43.2726V70.959ZM46.6239 70.959H48.2996V72.6656H46.6239V70.959ZM48.2996 70.959H49.9753V72.6656H48.2996V70.959ZM49.9753 70.959H51.6509V72.6656H49.9753V70.959ZM51.6509 70.959H53.3266V72.6656H51.6509V70.959ZM55.0023 70.959H56.678V72.6656H55.0023V70.959ZM56.678 70.959H58.3536V72.6656H56.678V70.959ZM58.3536 70.959H60.0293V72.6656H58.3536V70.959ZM60.0293 70.959H61.705V72.6656H60.0293V70.959ZM61.705 70.959H63.3807V72.6656H61.705V70.959ZM63.3807 70.959H65.0563V72.6656H63.3807V70.959ZM66.732 70.959H68.4077V72.6656H66.732V70.959ZM11.4347 72.6656H13.1104V74.3723H11.4347V72.6656ZM18.1374 72.6656H19.8131V74.3723H18.1374V72.6656ZM19.8131 72.6656H21.4888V74.3723H19.8131V72.6656ZM21.4888 72.6656H23.1645V74.3723H21.4888V72.6656ZM29.8672 72.6656H31.5428V74.3723H29.8672V72.6656ZM33.2185 72.6656H34.8942V74.3723H33.2185V72.6656ZM36.5699 72.6656H38.2455V74.3723H36.5699V72.6656ZM38.2455 72.6656H39.9212V74.3723H38.2455V72.6656ZM39.9212 72.6656H41.5969V74.3723H39.9212V72.6656ZM41.5969 72.6656H43.2726V74.3723H41.5969V72.6656ZM43.2726 72.6656H44.9482V74.3723H43.2726V72.6656ZM44.9482 72.6656H46.6239V74.3723H44.9482V72.6656ZM49.9753 72.6656H51.6509V74.3723H49.9753V72.6656ZM51.6509 72.6656H53.3266V74.3723H51.6509V72.6656ZM53.3266 72.6656H55.0023V74.3723H53.3266V72.6656ZM55.0023 72.6656H56.678V74.3723H55.0023V72.6656ZM58.3536 72.6656H60.0293V74.3723H58.3536V72.6656ZM60.0293 72.6656H61.705V74.3723H60.0293V72.6656ZM61.705 72.6656H63.3807V74.3723H61.705V72.6656ZM65.0563 72.6656H66.732V74.3723H65.0563V72.6656ZM6.40771 74.3723H8.08339V76.079H6.40771V74.3723ZM8.08339 74.3723H9.75906V76.079H8.08339V74.3723ZM11.4347 74.3723H13.1104V76.079H11.4347V74.3723ZM13.1104 74.3723H14.7861V76.079H13.1104V74.3723ZM16.4618 74.3723H18.1374V76.079H16.4618V74.3723ZM21.4888 74.3723H23.1645V76.079H21.4888V74.3723ZM29.8672 74.3723H31.5428V76.079H29.8672V74.3723ZM31.5428 74.3723H33.2185V76.079H31.5428V74.3723ZM33.2185 74.3723H34.8942V76.079H33.2185V74.3723ZM34.8942 74.3723H36.5699V76.079H34.8942V74.3723ZM36.5699 74.3723H38.2455V76.079H36.5699V74.3723ZM43.2726 74.3723H44.9482V76.079H43.2726V74.3723ZM46.6239 74.3723H48.2996V76.079H46.6239V74.3723ZM51.6509 74.3723H53.3266V76.079H51.6509V74.3723ZM56.678 74.3723H58.3536V76.079H56.678V74.3723ZM63.3807 74.3723H65.0563V76.079H63.3807V74.3723ZM65.0563 74.3723H66.732V76.079H65.0563V74.3723ZM66.732 74.3723H68.4077V76.079H66.732V74.3723ZM6.40771 76.079H8.08339V77.7856H6.40771V76.079ZM11.4347 76.079H13.1104V77.7856H11.4347V76.079ZM13.1104 76.079H14.7861V77.7856H13.1104V76.079ZM18.1374 76.079H19.8131V77.7856H18.1374V76.079ZM21.4888 76.079H23.1645V77.7856H21.4888V76.079ZM28.1915 76.079H29.8672V77.7856H28.1915V76.079ZM36.5699 76.079H38.2455V77.7856H36.5699V76.079ZM43.2726 76.079H44.9482V77.7856H43.2726V76.079ZM44.9482 76.079H46.6239V77.7856H44.9482V76.079ZM46.6239 76.079H48.2996V77.7856H46.6239V76.079ZM49.9753 76.079H51.6509V77.7856H49.9753V76.079ZM51.6509 76.079H53.3266V77.7856H51.6509V76.079ZM55.0023 76.079H56.678V77.7856H55.0023V76.079ZM56.678 76.079H58.3536V77.7856H56.678V76.079ZM58.3536 76.079H60.0293V77.7856H58.3536V76.079ZM61.705 76.079H63.3807V77.7856H61.705V76.079ZM65.0563 76.079H66.732V77.7856H65.0563V76.079ZM66.732 76.079H68.4077V77.7856H66.732V76.079ZM8.08339 77.7856H9.75906V79.4923H8.08339V77.7856ZM16.4618 77.7856H18.1374V79.4923H16.4618V77.7856ZM18.1374 77.7856H19.8131V79.4923H18.1374V77.7856ZM21.4888 77.7856H23.1645V79.4923H21.4888V77.7856ZM23.1645 77.7856H24.8401V79.4923H23.1645V77.7856ZM24.8401 77.7856H26.5158V79.4923H24.8401V77.7856ZM26.5158 77.7856H28.1915V79.4923H26.5158V77.7856ZM28.1915 77.7856H29.8672V79.4923H28.1915V77.7856ZM29.8672 77.7856H31.5428V79.4923H29.8672V77.7856ZM31.5428 77.7856H33.2185V79.4923H31.5428V77.7856ZM34.8942 77.7856H36.5699V79.4923H34.8942V77.7856ZM39.9212 77.7856H41.5969V79.4923H39.9212V77.7856ZM44.9482 77.7856H46.6239V79.4923H44.9482V77.7856ZM46.6239 77.7856H48.2996V79.4923H46.6239V77.7856ZM48.2996 77.7856H49.9753V79.4923H48.2996V77.7856ZM49.9753 77.7856H51.6509V79.4923H49.9753V77.7856ZM53.3266 77.7856H55.0023V79.4923H53.3266V77.7856ZM55.0023 77.7856H56.678V79.4923H55.0023V77.7856ZM56.678 77.7856H58.3536V79.4923H56.678V77.7856ZM58.3536 77.7856H60.0293V79.4923H58.3536V77.7856ZM60.0293 77.7856H61.705V79.4923H60.0293V77.7856ZM65.0563 77.7856H66.732V79.4923H65.0563V77.7856ZM66.732 77.7856H68.4077V79.4923H66.732V77.7856ZM6.40771 79.4923H8.08339V81.199H6.40771V79.4923ZM9.75906 79.4923H11.4347V81.199H9.75906V79.4923ZM14.7861 79.4923H16.4618V81.199H14.7861V79.4923ZM19.8131 79.4923H21.4888V81.199H19.8131V79.4923ZM24.8401 79.4923H26.5158V81.199H24.8401V79.4923ZM26.5158 79.4923H28.1915V81.199H26.5158V79.4923ZM33.2185 79.4923H34.8942V81.199H33.2185V79.4923ZM36.5699 79.4923H38.2455V81.199H36.5699V79.4923ZM44.9482 79.4923H46.6239V81.199H44.9482V79.4923ZM48.2996 79.4923H49.9753V81.199H48.2996V79.4923ZM49.9753 79.4923H51.6509V81.199H49.9753V79.4923ZM53.3266 79.4923H55.0023V81.199H53.3266V79.4923ZM55.0023 79.4923H56.678V81.199H55.0023V79.4923ZM56.678 79.4923H58.3536V81.199H56.678V79.4923ZM65.0563 79.4923H66.732V81.199H65.0563V79.4923ZM6.40771 81.199H8.08339V82.9057H6.40771V81.199ZM11.4347 81.199H13.1104V82.9057H11.4347V81.199ZM14.7861 81.199H16.4618V82.9057H14.7861V81.199ZM16.4618 81.199H18.1374V82.9057H16.4618V81.199ZM18.1374 81.199H19.8131V82.9057H18.1374V81.199ZM23.1645 81.199H24.8401V82.9057H23.1645V81.199ZM26.5158 81.199H28.1915V82.9057H26.5158V81.199ZM29.8672 81.199H31.5428V82.9057H29.8672V81.199ZM33.2185 81.199H34.8942V82.9057H33.2185V81.199ZM34.8942 81.199H36.5699V82.9057H34.8942V81.199ZM36.5699 81.199H38.2455V82.9057H36.5699V81.199ZM38.2455 81.199H39.9212V82.9057H38.2455V81.199ZM39.9212 81.199H41.5969V82.9057H39.9212V81.199ZM41.5969 81.199H43.2726V82.9057H41.5969V81.199ZM43.2726 81.199H44.9482V82.9057H43.2726V81.199ZM46.6239 81.199H48.2996V82.9057H46.6239V81.199ZM49.9753 81.199H51.6509V82.9057H49.9753V81.199ZM56.678 81.199H58.3536V82.9057H56.678V81.199ZM58.3536 81.199H60.0293V82.9057H58.3536V81.199ZM60.0293 81.199H61.705V82.9057H60.0293V81.199ZM61.705 81.199H63.3807V82.9057H61.705V81.199ZM65.0563 81.199H66.732V82.9057H65.0563V81.199ZM66.732 81.199H68.4077V82.9057H66.732V81.199ZM6.40771 82.9057H8.08339V84.6123H6.40771V82.9057ZM9.75906 82.9057H11.4347V84.6123H9.75906V82.9057ZM11.4347 82.9057H13.1104V84.6123H11.4347V82.9057ZM18.1374 82.9057H19.8131V84.6123H18.1374V82.9057ZM23.1645 82.9057H24.8401V84.6123H23.1645V82.9057ZM24.8401 82.9057H26.5158V84.6123H24.8401V82.9057ZM29.8672 82.9057H31.5428V84.6123H29.8672V82.9057ZM31.5428 82.9057H33.2185V84.6123H31.5428V82.9057ZM38.2455 82.9057H39.9212V84.6123H38.2455V82.9057ZM44.9482 82.9057H46.6239V84.6123H44.9482V82.9057ZM51.6509 82.9057H53.3266V84.6123H51.6509V82.9057ZM55.0023 82.9057H56.678V84.6123H55.0023V82.9057ZM58.3536 82.9057H60.0293V84.6123H58.3536V82.9057ZM63.3807 82.9057H65.0563V84.6123H63.3807V82.9057ZM6.40771 84.6123H8.08339V86.319H6.40771V84.6123ZM16.4618 84.6123H18.1374V86.319H16.4618V84.6123ZM18.1374 84.6123H19.8131V86.319H18.1374V84.6123ZM21.4888 84.6123H23.1645V86.319H21.4888V84.6123ZM24.8401 84.6123H26.5158V86.319H24.8401V84.6123ZM26.5158 84.6123H28.1915V86.319H26.5158V84.6123ZM28.1915 84.6123H29.8672V86.319H28.1915V84.6123ZM33.2185 84.6123H34.8942V86.319H33.2185V84.6123ZM38.2455 84.6123H39.9212V86.319H38.2455V84.6123ZM39.9212 84.6123H41.5969V86.319H39.9212V84.6123ZM48.2996 84.6123H49.9753V86.319H48.2996V84.6123ZM49.9753 84.6123H51.6509V86.319H49.9753V84.6123ZM53.3266 84.6123H55.0023V86.319H53.3266V84.6123ZM55.0023 84.6123H56.678V86.319H55.0023V84.6123ZM56.678 84.6123H58.3536V86.319H56.678V84.6123ZM58.3536 84.6123H60.0293V86.319H58.3536V84.6123ZM60.0293 84.6123H61.705V86.319H60.0293V84.6123ZM61.705 84.6123H63.3807V86.319H61.705V84.6123ZM63.3807 84.6123H65.0563V86.319H63.3807V84.6123ZM66.732 84.6123H68.4077V86.319H66.732V84.6123ZM19.8131 86.319H21.4888V88.0257H19.8131V86.319ZM24.8401 86.319H26.5158V88.0257H24.8401V86.319ZM28.1915 86.319H29.8672V88.0257H28.1915V86.319ZM29.8672 86.319H31.5428V88.0257H29.8672V86.319ZM34.8942 86.319H36.5699V88.0257H34.8942V86.319ZM36.5699 86.319H38.2455V88.0257H36.5699V86.319ZM39.9212 86.319H41.5969V88.0257H39.9212V86.319ZM41.5969 86.319H43.2726V88.0257H41.5969V86.319ZM44.9482 86.319H46.6239V88.0257H44.9482V86.319ZM51.6509 86.319H53.3266V88.0257H51.6509V86.319ZM53.3266 86.319H55.0023V88.0257H53.3266V86.319ZM60.0293 86.319H61.705V88.0257H60.0293V86.319ZM61.705 86.319H63.3807V88.0257H61.705V86.319ZM6.40771 88.0257H8.08339V89.7323H6.40771V88.0257ZM8.08339 88.0257H9.75906V89.7323H8.08339V88.0257ZM9.75906 88.0257H11.4347V89.7323H9.75906V88.0257ZM11.4347 88.0257H13.1104V89.7323H11.4347V88.0257ZM13.1104 88.0257H14.7861V89.7323H13.1104V88.0257ZM14.7861 88.0257H16.4618V89.7323H14.7861V88.0257ZM16.4618 88.0257H18.1374V89.7323H16.4618V88.0257ZM19.8131 88.0257H21.4888V89.7323H19.8131V88.0257ZM24.8401 88.0257H26.5158V89.7323H24.8401V88.0257ZM26.5158 88.0257H28.1915V89.7323H26.5158V88.0257ZM28.1915 88.0257H29.8672V89.7323H28.1915V88.0257ZM31.5428 88.0257H33.2185V89.7323H31.5428V88.0257ZM33.2185 88.0257H34.8942V89.7323H33.2185V88.0257ZM44.9482 88.0257H46.6239V89.7323H44.9482V88.0257ZM48.2996 88.0257H49.9753V89.7323H48.2996V88.0257ZM53.3266 88.0257H55.0023V89.7323H53.3266V88.0257ZM56.678 88.0257H58.3536V89.7323H56.678V88.0257ZM60.0293 88.0257H61.705V89.7323H60.0293V88.0257ZM61.705 88.0257H63.3807V89.7323H61.705V88.0257ZM63.3807 88.0257H65.0563V89.7323H63.3807V88.0257ZM66.732 88.0257H68.4077V89.7323H66.732V88.0257ZM6.40771 89.7323H8.08339V91.439H6.40771V89.7323ZM16.4618 89.7323H18.1374V91.439H16.4618V89.7323ZM21.4888 89.7323H23.1645V91.439H21.4888V89.7323ZM24.8401 89.7323H26.5158V91.439H24.8401V89.7323ZM29.8672 89.7323H31.5428V91.439H29.8672V89.7323ZM31.5428 89.7323H33.2185V91.439H31.5428V89.7323ZM33.2185 89.7323H34.8942V91.439H33.2185V89.7323ZM36.5699 89.7323H38.2455V91.439H36.5699V89.7323ZM38.2455 89.7323H39.9212V91.439H38.2455V89.7323ZM41.5969 89.7323H43.2726V91.439H41.5969V89.7323ZM44.9482 89.7323H46.6239V91.439H44.9482V89.7323ZM49.9753 89.7323H51.6509V91.439H49.9753V89.7323ZM51.6509 89.7323H53.3266V91.439H51.6509V89.7323ZM53.3266 89.7323H55.0023V91.439H53.3266V89.7323ZM60.0293 89.7323H61.705V91.439H60.0293V89.7323ZM61.705 89.7323H63.3807V91.439H61.705V89.7323ZM66.732 89.7323H68.4077V91.439H66.732V89.7323ZM6.40771 91.439H8.08339V93.1457H6.40771V91.439ZM9.75906 91.439H11.4347V93.1457H9.75906V91.439ZM11.4347 91.439H13.1104V93.1457H11.4347V91.439ZM13.1104 91.439H14.7861V93.1457H13.1104V91.439ZM16.4618 91.439H18.1374V93.1457H16.4618V91.439ZM23.1645 91.439H24.8401V93.1457H23.1645V91.439ZM29.8672 91.439H31.5428V93.1457H29.8672V91.439ZM31.5428 91.439H33.2185V93.1457H31.5428V91.439ZM36.5699 91.439H38.2455V93.1457H36.5699V91.439ZM39.9212 91.439H41.5969V93.1457H39.9212V91.439ZM41.5969 91.439H43.2726V93.1457H41.5969V91.439ZM43.2726 91.439H44.9482V93.1457H43.2726V91.439ZM44.9482 91.439H46.6239V93.1457H44.9482V91.439ZM46.6239 91.439H48.2996V93.1457H46.6239V91.439ZM48.2996 91.439H49.9753V93.1457H48.2996V91.439ZM49.9753 91.439H51.6509V93.1457H49.9753V91.439ZM51.6509 91.439H53.3266V93.1457H51.6509V91.439ZM53.3266 91.439H55.0023V93.1457H53.3266V91.439ZM55.0023 91.439H56.678V93.1457H55.0023V91.439ZM56.678 91.439H58.3536V93.1457H56.678V91.439ZM58.3536 91.439H60.0293V93.1457H58.3536V91.439ZM60.0293 91.439H61.705V93.1457H60.0293V91.439ZM63.3807 91.439H65.0563V93.1457H63.3807V91.439ZM65.0563 91.439H66.732V93.1457H65.0563V91.439ZM6.40771 93.1457H8.08339V94.8523H6.40771V93.1457ZM9.75906 93.1457H11.4347V94.8523H9.75906V93.1457ZM11.4347 93.1457H13.1104V94.8523H11.4347V93.1457ZM13.1104 93.1457H14.7861V94.8523H13.1104V93.1457ZM16.4618 93.1457H18.1374V94.8523H16.4618V93.1457ZM23.1645 93.1457H24.8401V94.8523H23.1645V93.1457ZM29.8672 93.1457H31.5428V94.8523H29.8672V93.1457ZM33.2185 93.1457H34.8942V94.8523H33.2185V93.1457ZM34.8942 93.1457H36.5699V94.8523H34.8942V93.1457ZM36.5699 93.1457H38.2455V94.8523H36.5699V93.1457ZM39.9212 93.1457H41.5969V94.8523H39.9212V93.1457ZM41.5969 93.1457H43.2726V94.8523H41.5969V93.1457ZM43.2726 93.1457H44.9482V94.8523H43.2726V93.1457ZM48.2996 93.1457H49.9753V94.8523H48.2996V93.1457ZM49.9753 93.1457H51.6509V94.8523H49.9753V93.1457ZM56.678 93.1457H58.3536V94.8523H56.678V93.1457ZM58.3536 93.1457H60.0293V94.8523H58.3536V93.1457ZM61.705 93.1457H63.3807V94.8523H61.705V93.1457ZM65.0563 93.1457H66.732V94.8523H65.0563V93.1457ZM6.40771 94.8523H8.08339V96.559H6.40771V94.8523ZM9.75906 94.8523H11.4347V96.559H9.75906V94.8523ZM11.4347 94.8523H13.1104V96.559H11.4347V94.8523ZM13.1104 94.8523H14.7861V96.559H13.1104V94.8523ZM16.4618 94.8523H18.1374V96.559H16.4618V94.8523ZM23.1645 94.8523H24.8401V96.559H23.1645V94.8523ZM24.8401 94.8523H26.5158V96.559H24.8401V94.8523ZM26.5158 94.8523H28.1915V96.559H26.5158V94.8523ZM34.8942 94.8523H36.5699V96.559H34.8942V94.8523ZM36.5699 94.8523H38.2455V96.559H36.5699V94.8523ZM39.9212 94.8523H41.5969V96.559H39.9212V94.8523ZM43.2726 94.8523H44.9482V96.559H43.2726V94.8523ZM44.9482 94.8523H46.6239V96.559H44.9482V94.8523ZM46.6239 94.8523H48.2996V96.559H46.6239V94.8523ZM48.2996 94.8523H49.9753V96.559H48.2996V94.8523ZM49.9753 94.8523H51.6509V96.559H49.9753V94.8523ZM51.6509 94.8523H53.3266V96.559H51.6509V94.8523ZM55.0023 94.8523H56.678V96.559H55.0023V94.8523ZM58.3536 94.8523H60.0293V96.559H58.3536V94.8523ZM63.3807 94.8523H65.0563V96.559H63.3807V94.8523ZM66.732 94.8523H68.4077V96.559H66.732V94.8523ZM6.40771 96.559H8.08339V98.2657H6.40771V96.559ZM16.4618 96.559H18.1374V98.2657H16.4618V96.559ZM19.8131 96.559H21.4888V98.2657H19.8131V96.559ZM21.4888 96.559H23.1645V98.2657H21.4888V96.559ZM23.1645 96.559H24.8401V98.2657H23.1645V96.559ZM24.8401 96.559H26.5158V98.2657H24.8401V96.559ZM26.5158 96.559H28.1915V98.2657H26.5158V96.559ZM28.1915 96.559H29.8672V98.2657H28.1915V96.559ZM33.2185 96.559H34.8942V98.2657H33.2185V96.559ZM34.8942 96.559H36.5699V98.2657H34.8942V96.559ZM36.5699 96.559H38.2455V98.2657H36.5699V96.559ZM43.2726 96.559H44.9482V98.2657H43.2726V96.559ZM44.9482 96.559H46.6239V98.2657H44.9482V96.559ZM49.9753 96.559H51.6509V98.2657H49.9753V96.559ZM53.3266 96.559H55.0023V98.2657H53.3266V96.559ZM55.0023 96.559H56.678V98.2657H55.0023V96.559ZM58.3536 96.559H60.0293V98.2657H58.3536V96.559ZM60.0293 96.559H61.705V98.2657H60.0293V96.559ZM61.705 96.559H63.3807V98.2657H61.705V96.559ZM66.732 96.559H68.4077V98.2657H66.732V96.559ZM6.40771 98.2657H8.08339V99.9723H6.40771V98.2657ZM8.08339 98.2657H9.75906V99.9723H8.08339V98.2657ZM9.75906 98.2657H11.4347V99.9723H9.75906V98.2657ZM11.4347 98.2657H13.1104V99.9723H11.4347V98.2657ZM13.1104 98.2657H14.7861V99.9723H13.1104V98.2657ZM14.7861 98.2657H16.4618V99.9723H14.7861V98.2657ZM16.4618 98.2657H18.1374V99.9723H16.4618V98.2657ZM21.4888 98.2657H23.1645V99.9723H21.4888V98.2657ZM23.1645 98.2657H24.8401V99.9723H23.1645V98.2657ZM26.5158 98.2657H28.1915V99.9723H26.5158V98.2657ZM29.8672 98.2657H31.5428V99.9723H29.8672V98.2657ZM31.5428 98.2657H33.2185V99.9723H31.5428V98.2657ZM33.2185 98.2657H34.8942V99.9723H33.2185V98.2657ZM34.8942 98.2657H36.5699V99.9723H34.8942V98.2657ZM36.5699 98.2657H38.2455V99.9723H36.5699V98.2657ZM38.2455 98.2657H39.9212V99.9723H38.2455V98.2657ZM39.9212 98.2657H41.5969V99.9723H39.9212V98.2657ZM46.6239 98.2657H48.2996V99.9723H46.6239V98.2657ZM53.3266 98.2657H55.0023V99.9723H53.3266V98.2657ZM60.0293 98.2657H61.705V99.9723H60.0293V98.2657ZM66.732 98.2657H68.4077V99.9723H66.732V98.2657Z" fill="black"/>
<path d="M73.2597 9.75169C64.1666 6.72328 46.5725 7.76271 43.2888 25.4976M43.2888 25.4976L40.6515 18.1978M43.2888 25.4976L50.264 21.1154" stroke="#A990FF" stroke-width="2.2285" stroke-linecap="round"/>
</svg>
