<!-- This Source Code Form is subject to the terms of the Mozilla Public
   - License, v. 2.0. If a copy of the MPL was not distributed with this
   - file, You can obtain one at http://mozilla.org/MPL/2.0/. -->
<svg width="25" height="25" viewBox="0 0 25 25" fill="none" xmlns="http://www.w3.org/2000/svg">
<path d="M3.49678 20.3402L1.89935 19.0136C1.79462 18.9272 1.71843 18.8112 1.68076 18.6807C1.64309 18.5502 1.64569 18.4114 1.68822 18.2825C1.7296 18.1534 1.80901 18.0398 1.91605 17.9566C2.02309 17.8733 2.15277 17.8244 2.2881 17.8161L4.35302 17.6826L4.63285 17.4732L5.3947 15.559C5.49859 15.2999 5.74546 15.1323 6.02417 15.1323C6.30288 15.1323 6.54976 15.2999 6.65365 15.5585V15.559L7.4155 17.4732L7.69532 17.6826L9.76025 17.8161C10.0384 17.834 10.2741 18.0172 10.3601 18.2825C10.4467 18.5484 10.3635 18.8354 10.149 19.0136L8.55436 20.3379L8.45382 20.6686L8.96209 22.6654C9.03079 22.9363 8.92914 23.2161 8.70349 23.3797C8.5939 23.4594 8.46295 23.5044 8.32754 23.5088C8.19213 23.5133 8.05849 23.4771 7.94388 23.4049L6.19732 22.3006H5.85047L4.10447 23.4049C3.86653 23.5534 3.56827 23.5428 3.3443 23.3797C3.23426 23.3006 3.1507 23.19 3.10456 23.0625C3.05841 22.9351 3.05184 22.7966 3.08569 22.6654L3.59285 20.6736L3.49678 20.3402Z" fill="#FFBD4F"/>
<path d="M12.6065 15.8203C12.2705 15.8203 11.9355 15.7163 11.6495 15.5073C11.3848 15.3165 11.1839 15.0502 11.0731 14.7433C10.9623 14.4364 10.9467 14.1032 11.0285 13.7873L11.8885 10.4123L9.20848 8.18629C8.95685 7.97899 8.77371 7.70052 8.68306 7.38735C8.59242 7.07419 8.59849 6.74094 8.70048 6.43129C8.8003 6.12067 8.99153 5.84741 9.24916 5.64723C9.50679 5.44705 9.81883 5.32927 10.1445 5.30929L13.6195 5.08429L14.9075 1.84729C15.1565 1.22429 15.7505 0.821289 16.4215 0.821289C17.0925 0.821289 17.6865 1.22429 17.9355 1.84729L19.2235 5.08429L22.6985 5.30929C23.0242 5.32913 23.3363 5.44686 23.5939 5.64706C23.8516 5.84726 24.0428 6.1206 24.1425 6.43129C24.2445 6.74134 24.2505 7.07499 24.1597 7.3885C24.0689 7.70202 23.8855 7.9808 23.6335 8.18829L20.9535 10.4133L21.8135 13.7883C21.8952 14.1042 21.8797 14.4374 21.7689 14.7443C21.6581 15.0512 21.4572 15.3175 21.1925 15.5083C20.9293 15.7014 20.6139 15.8103 20.2876 15.8209C19.9614 15.8314 19.6396 15.743 19.3645 15.5673L16.4215 13.7063L13.4775 15.5673C13.2169 15.7323 12.9149 15.8201 12.6065 15.8203ZM16.4215 2.07129C16.3452 2.06932 16.2702 2.09133 16.2071 2.1342C16.1439 2.17707 16.0958 2.23865 16.0695 2.31029L14.6355 5.91329L14.0945 6.30629L10.2245 6.55729C10.1483 6.56035 10.0749 6.58716 10.0147 6.63395C9.95442 6.68075 9.9103 6.7452 9.88848 6.81829C9.86331 6.89006 9.86125 6.96791 9.8826 7.04091C9.90394 7.1139 9.94761 7.17838 10.0075 7.22529L12.9915 9.70429L13.1975 10.3393L12.2395 14.0973C12.2189 14.1706 12.2218 14.2485 12.2478 14.3201C12.2738 14.3917 12.3216 14.4533 12.3845 14.4963C12.4475 14.5433 12.6145 14.6353 12.8105 14.5103L16.0885 12.4393H16.7565L20.0345 14.5103C20.098 14.5529 20.1733 14.5744 20.2497 14.5719C20.3262 14.5694 20.3999 14.543 20.4605 14.4963C20.5228 14.4527 20.5701 14.3907 20.5957 14.3191C20.6214 14.2474 20.6241 14.1696 20.6035 14.0963L19.6455 10.3383L19.8515 9.70329L22.8355 7.22529C22.8956 7.17832 22.9394 7.11367 22.9607 7.04046C22.9821 6.96725 22.9799 6.88919 22.9545 6.81729C22.9325 6.74427 22.8884 6.67991 22.8282 6.63313C22.7679 6.58636 22.6947 6.5595 22.6185 6.55629L18.7495 6.30529L18.2085 5.91229L16.7735 2.30929C16.7467 2.23801 16.6985 2.17681 16.6354 2.13417C16.5724 2.09152 16.4976 2.06955 16.4215 2.07129Z" fill="#FFBD4F"/>
</svg>
