<!-- This Source Code Form is subject to the terms of the Mozilla Public
   - License, v. 2.0. If a copy of the MPL was not distributed with this
   - file, You can obtain one at http://mozilla.org/MPL/2.0/. -->
<svg width="25" height="29" viewBox="0 0 25 29" fill="none" xmlns="http://www.w3.org/2000/svg">
<path d="M10.6651 28.1669C5.6984 27.8336 3.0984 26.0669 0.631738 21.6336C0.565072 21.5336 0.531738 21.4002 0.531738 21.3002H3.36507V20.2336C3.36507 20.1669 3.36507 20.1002 3.36507 20.0336C3.36507 18.4002 4.66507 17.1002 6.2984 17.1002C7.93174 17.1002 9.23174 18.4002 9.23174 20.0336C9.23174 20.1002 9.23174 20.1669 9.23174 20.2336V25.4669C9.23174 26.5669 9.7984 27.5669 10.6651 28.1669ZM21.6984 21.3002V20.2336C21.6984 20.1669 21.6984 20.0669 21.6984 20.0002C21.6984 18.3669 20.3984 17.0669 18.7651 17.0669C17.1651 17.0669 15.8651 18.3336 15.8317 19.9002V20.0669C15.8317 20.1336 15.8317 20.1669 15.8317 20.2336V25.4669C15.8317 26.6002 15.2651 27.5669 14.3984 28.1669C19.3651 27.8336 21.9651 26.1002 24.4317 21.6669C24.4984 21.5669 24.5317 21.4336 24.4984 21.3002H21.6984Z" fill="#FFD8CA"/>
<path d="M14.6984 27.9335C14.7317 27.9335 14.7317 27.9002 14.7651 27.9002C14.8317 27.8335 14.8984 27.7668 14.9651 27.7002C14.9984 27.6668 14.9984 27.6668 15.0317 27.6335C15.0984 27.5668 15.1651 27.4668 15.2317 27.4002L15.2651 27.3668C15.3317 27.2668 15.3984 27.1668 15.4651 27.0335C15.5317 26.9335 15.5651 26.8335 15.5984 26.7002C15.5984 26.6668 15.6317 26.6335 15.6317 26.6002C15.6651 26.5335 15.6984 26.4335 15.6984 26.3668C15.6984 26.3335 15.7317 26.3002 15.7317 26.2335C15.7651 26.1335 15.7651 26.0668 15.7651 25.9668C15.7651 25.9335 15.7651 25.9002 15.7984 25.8668C15.7984 25.7335 15.8317 25.6002 15.8317 25.5002V25.1002V20.2002C15.8317 20.1335 15.8317 20.1002 15.8317 20.0335V19.8668C15.8651 18.3002 17.1651 17.0335 18.7651 17.0335C20.3984 17.0335 21.6984 18.3335 21.6984 19.9668C21.6984 20.0335 21.6984 20.1335 21.6984 20.2002V21.2668H24.5317C24.5317 21.1335 24.4984 21.0002 24.4317 20.9002C23.7651 19.6668 23.0651 18.5002 22.3317 17.4335C22.8651 17.0335 23.2984 16.5002 23.6651 15.9002C24.6651 14.1668 24.5984 12.1335 23.6984 10.5002C23.6317 10.4002 23.5317 10.3335 23.3984 10.3335C21.5651 10.3335 19.9317 11.3335 18.9317 13.0668C18.7984 13.2668 18.6984 13.5002 18.5984 13.7002C16.9317 12.7335 14.9984 12.1668 12.5317 12.1668C10.0651 12.1668 8.13174 12.7668 6.4984 13.7668C6.39841 13.5335 6.29841 13.3335 6.16507 13.1335C5.16507 11.4002 3.53174 10.4002 1.69841 10.4002C1.56507 10.4002 1.46507 10.4668 1.3984 10.5668C0.498405 12.1668 0.431738 14.2335 1.43174 15.9668C1.79841 16.5668 2.23174 17.0668 2.76507 17.5002C1.9984 18.5002 1.2984 19.6668 0.631738 20.9335C0.565072 21.0335 0.531738 21.1668 0.531738 21.3002H3.36507V20.2335C3.36507 20.1668 3.36507 20.1002 3.36507 20.0335C3.36507 18.4002 4.66507 17.1002 6.2984 17.1002C7.93174 17.1002 9.23174 18.4002 9.23174 20.0335C9.23174 20.1002 9.23174 20.1668 9.23174 20.2335V25.0668V25.4668C9.23174 25.6002 9.23174 25.7335 9.26507 25.8335C9.26507 25.8668 9.26507 25.9002 9.2984 25.9335C9.2984 26.0335 9.33174 26.1002 9.33174 26.2002C9.33174 26.2335 9.36507 26.2668 9.36507 26.3335C9.39841 26.4335 9.43174 26.5002 9.43174 26.5668C9.43174 26.6002 9.46507 26.6335 9.46507 26.6668C9.4984 26.7668 9.56507 26.8668 9.59841 27.0002C9.66507 27.1002 9.73174 27.2335 9.7984 27.3335L9.83174 27.3668C9.89841 27.4668 9.96507 27.5335 10.0317 27.6002C10.0651 27.6335 10.0651 27.6335 10.0984 27.6668C10.1651 27.7335 10.2317 27.8002 10.2984 27.8668C10.3317 27.8668 10.3317 27.9002 10.3651 27.9002C10.4651 27.9668 10.5651 28.0668 10.6651 28.1335C11.1984 28.5002 11.8317 28.7002 12.5317 28.7002C13.2317 28.7002 13.8651 28.5002 14.3984 28.1335C14.4984 28.1002 14.5984 28.0335 14.6984 27.9335Z" fill="#FF6F1F"/>
<path d="M11.4984 23.0671C11.4984 23.0671 11.6317 23.0671 11.8317 23.0671C12.0317 23.0671 12.265 23.0671 12.5317 23.0671C12.7984 23.0671 13.0317 23.0671 13.2317 23.0671C13.4317 23.0671 13.565 23.0338 13.565 23.0338C13.965 23.0004 14.3317 23.3004 14.365 23.7338C14.3984 23.9338 14.2984 24.1671 14.165 24.3004L13.5317 25.0004C13.5317 25.0004 13.3984 25.1338 13.1984 25.2338C13.0984 25.3004 12.9984 25.3338 12.865 25.3671C12.7984 25.4004 12.7317 25.4004 12.665 25.4004C12.5984 25.4004 12.5317 25.4004 12.465 25.4004C12.3984 25.4004 12.3317 25.4004 12.265 25.4004C12.1984 25.4004 12.1317 25.3671 12.065 25.3671C11.9984 25.3671 11.9317 25.3338 11.8984 25.3004C11.8317 25.3004 11.7984 25.2671 11.7317 25.2338C11.5317 25.1338 11.3984 25.0338 11.3984 25.0338L10.7984 24.4338C10.4984 24.1338 10.4984 23.6338 10.7984 23.3338C11.065 23.1338 11.2984 23.0338 11.4984 23.0671Z" fill="#2B3B47"/>
<path d="M10.7318 26.1672C10.7318 26.1672 11.4318 26.6006 12.5318 26.6006C13.6318 26.6006 14.3318 26.1672 14.3318 26.1672C14.3318 26.1672 14.2318 27.8006 12.5318 27.8006C10.8318 27.8006 10.7318 26.1672 10.7318 26.1672Z" fill="#2B3B47"/>
<path d="M6.29834 18.6672C6.86501 18.6672 7.29834 19.1006 7.29834 19.6672V21.9339C7.29834 22.5006 6.86501 22.9339 6.29834 22.9339C5.73167 22.9339 5.29834 22.5006 5.29834 21.9339V19.6672C5.29834 19.1006 5.76501 18.6672 6.29834 18.6672Z" fill="#2B3B47"/>
<path d="M18.7985 18.6672C19.3651 18.6672 19.7985 19.1006 19.7985 19.6672V21.9339C19.7985 22.5006 19.3651 22.9339 18.7985 22.9339C18.2318 22.9339 17.7985 22.5006 17.7985 21.9339V19.6672C17.7985 19.1006 18.2318 18.6672 18.7985 18.6672Z" fill="#2B3B47"/>
<path d="M19.6317 14.5335C20.8317 11.8668 22.9651 10.7001 23.4651 10.4335V10.4001C23.4317 10.4001 23.3984 10.4001 23.3651 10.4001C23.3317 10.4001 23.2651 10.4001 23.2317 10.4001C23.1651 10.4001 23.0984 10.4001 23.0317 10.4001C22.9984 10.4001 22.9984 10.4001 22.9651 10.4001C21.2651 10.5335 19.7984 11.5001 18.8651 13.1001C18.7317 13.3001 18.6317 13.5335 18.5317 13.7335C18.9317 14.0001 19.2984 14.2335 19.6317 14.5335Z" fill="#2B3B47"/>
<path d="M5.4317 14.5335C5.79836 14.2335 6.19836 13.9335 6.6317 13.7001C6.56503 13.4668 6.46503 13.2668 6.3317 13.1001C5.29836 11.3668 3.46503 10.4001 1.59836 10.4001C1.56503 10.4001 1.56503 10.4335 1.59836 10.4668C2.09836 10.6668 4.2317 11.8668 5.4317 14.5335Z" fill="#2B3B47"/>
<path d="M12.9608 6.2265L11.6998 6.6425C11.5611 6.55583 11.4268 6.41716 11.2968 6.2265C11.1754 6.03583 11.1148 5.83216 11.1148 5.6155C11.1148 5.4075 11.1798 5.2515 11.3098 5.1475C11.4398 5.03483 11.6174 4.94383 11.8428 4.8745L12.6618 4.5885C13.0431 4.4585 13.3334 4.28516 13.5328 4.0685C13.7408 3.84316 13.8448 3.55283 13.8448 3.1975C13.8448 2.8855 13.7321 2.60816 13.5068 2.3655C13.2901 2.12283 12.9391 2.0015 12.4538 2.0015C12.1158 2.0015 11.8038 2.05783 11.5178 2.1705C11.2318 2.28316 10.9674 2.43483 10.7248 2.6255C10.6034 2.5475 10.4951 2.4435 10.3998 2.3135C10.3044 2.17483 10.2568 2.00583 10.2568 1.8065C10.2568 1.52916 10.3608 1.29083 10.5688 1.0915C10.7854 0.892163 11.0758 0.740496 11.4398 0.636496C11.8038 0.523829 12.2111 0.467496 12.6618 0.467496C13.3204 0.467496 13.8794 0.584496 14.3388 0.818496C14.7981 1.04383 15.1491 1.3645 15.3918 1.7805C15.6344 2.18783 15.7558 2.6645 15.7558 3.2105C15.7558 3.74783 15.6474 4.20716 15.4308 4.5885C15.2228 4.96116 14.9108 5.2775 14.4948 5.5375C14.0788 5.7975 13.5674 6.02716 12.9608 6.2265ZM11.2708 8.4755C11.2708 8.17216 11.3661 7.92083 11.5568 7.7215C11.7561 7.52216 12.0161 7.4225 12.3368 7.4225C12.6661 7.4225 12.9261 7.52216 13.1168 7.7215C13.3074 7.92083 13.4028 8.17216 13.4028 8.4755C13.4028 8.77883 13.3074 9.03016 13.1168 9.2295C12.9261 9.42883 12.6661 9.5285 12.3368 9.5285C12.0161 9.5285 11.7561 9.42883 11.5568 9.2295C11.3661 9.03016 11.2708 8.77883 11.2708 8.4755Z" fill="#AFAFBA"/>
</svg>