<!-- This Source Code Form is subject to the terms of the Mozilla Public
   - License, v. 2.0. If a copy of the MPL was not distributed with this
   - file, You can obtain one at http://mozilla.org/MPL/2.0/. -->
<svg xmlns="http://www.w3.org/2000/svg" height="96" viewBox="0 0 206 216" fill="none"><g clip-path="url(#a)"><path fill="#090707" d="M109.579 19.27c.675-.272 1.146-.514 1.594-.875 1.214-.978 3.244-1.23 4.452.898.47.827.779 1.66.784 2.617.013 2.387-.296 4.69-1.602 6.766-.279.444-.094.639.418.706 1.508.198 2.26 1.162 2.614 2.58.376 1.509.196 2.999.077 4.513-.131 1.675-.885 3.174-1.166 4.795-.081.472-.534.623-.695 1.01-.645 1.55-1.682 2.922-2.072 4.591-.045.194-.05.311.03.49.964 2.16 1.596 4.428 2.115 6.728.327 1.45.892 2.808 1.42 4.19 1.054 2.76 2.003 5.558 2.961 8.353.568 1.657.999 3.363 1.626 4.996.429 1.116.354 2.37 1.086 3.414.23.326-.187.9-.603 1.082-.495.217-.698.555-.816 1.03-.042.171-.135.37-.268.475-1.408 1.108-2.407 2.62-3.808 3.751-.924.745-1.678 1.716-2.624 2.455-3.052 2.384-5.649 5.34-9.014 7.319-2.194 1.29-4.215 2.844-6.446 4.07-.434.238-.886.501-1.207 1.05.504.55.97 1.162 1.608 1.61.766.54 1.105 1.466 1.848 2.017 1.152.854 1.873 2.144 3.078 2.956.794.536 1.064 1.498 1.513 2.299.27.48.492.776 1.148.724 1.427-.114 2.703.579 3.991 1.04 1.427.51 2.799 1.214 4.12 1.964.999.567 1.804 1.469 2.393 2.424.53.859 1.088 1.711 1.601 2.586.452.772.912 1.488.759 2.439-.103.637.323.832.845.793 1.382-.104 2.758-.297 4.141-.361 1.415-.065 1.885-.783 2.216-2.13.906-3.689 2.848-6.891 5.175-9.877a32.302 32.302 0 0 1 7.379-6.897c1.641-1.114 3.173-2.417 5.003-3.227.887-.392 1.381-1.156 1.925-1.834.55-.687 1.14-1.326 1.739-1.964.574-.611 1.058-1.279 1.417-2.047 1.154-2.466 2.346-4.913 3.472-7.394.957-2.11 1.78-4.24 2.461-6.448.796-2.583 1.042-5.25 1.362-7.903.116-.965.271-1.915.473-2.86.185-.862.333-1.691.065-2.591-.258-.868.117-1.304.965-1.65 1.711-.7 3.246-.094 4.811.52 5.881 2.305 10.352 6.407 14.23 11.223 2.874 3.568 5.506 7.308 7.516 11.456 1.695 3.497 3.248 7.04 4.512 10.724 2.052 5.978 3.379 12.114 4.326 18.344.884 5.819 1.313 11.675 1.326 17.754.81-1.082 1.103-2.239 1.734-3.207.277-.427.488-.905.81-1.291.728-.873 1.563-.782 2.084.19 1.75 3.268 2.915 6.746 3.719 10.352.798 3.583 1.106 7.218.991 10.879-.18 5.789-1.363 11.358-3.621 16.717-3.031 7.198-7.486 13.379-13.19 18.659-4.925 4.56-10.508 8.143-16.624 10.943a74.343 74.343 0 0 1-17.697 5.576c-3.187.58-6.402 1.011-9.657 1.003-.409-.001-.838-.058-1.278.171.182.456.337.909.307 1.439-.248 4.357-.241 8.72-.233 13.083.002 1.169-.009 1.172-1.129 1.202-.371.01-.743.002-1.115.002l-134.078.108H.43c.449-.603.598-1.151.16-1.711-.214-.272-.119-.626-.12-.948-.021-22.695-.046-45.391-.057-68.087-.001-1.82.349-3.598 1.004-5.296 1.407-3.65 3.204-7.078 5.83-10.03.81-.909 1.756-1.644 2.696-2.397.223-.179.47-.259.365-.745-1.025-4.717.3-8.862 3.25-12.558 2.64-3.308 6.17-5.28 10.16-6.439 3.992-1.16 8.042-1.251 12.1-.272.221.054.453.071.723.111 1.162-3.591 3.112-6.77 5.203-10.023-1.493-.943-2.873-2.001-4.302-2.982-2.231-1.53-4.11-3.454-6.095-5.256-.788-.716-1.616-1.385-2.405-2.098-1.891-1.707-3.818-3.358-5.446-5.349-1.515-1.853-3.292-3.491-4.822-5.334-.671-.81-1.103-1.863-.749-3.028 1.142-3.752 2.59-7.393 4.002-11.047.897-2.322 1.893-4.609 2.495-7.035.117-.47.539-.767.685-1.195 1.06-3.113 2.546-6.03 4.046-8.943.236-.457.522-.87.79-1.3.235-.378.3-.769-.26-.787-.498-.015-.618-.367-.782-.649-1.481-2.536-2.184-5.277-1.93-8.21.088-1.007.464-1.99 1.03-2.848.543-.823 1.267-1.352 2.338-.969.185.066.359.058.577-.14-1.036-2.26-.949-4.702-.947-7.147 0-1.805.848-3.183 1.957-4.46.51-.586 1.294-.752 1.91-.4 1.244.713 2.544 1.462 2.813 3.096.092.56.316 1.055.789 1.55.913-2.109 1.935-4.122 2.593-6.276.692-2.269 1.768-4.372 2.642-6.562 1.223-3.06 3.052-5.784 4.71-8.602.23-.391.67-.66.89-1.054.361-.65.943-.694 1.424-.422.974.55 2.145.86 2.727 1.97.252.48.416 1.04 1.056 1.209.144.037.259.251.35.406a71.052 71.052 0 0 1 4.998 10.274c1.054 2.703 2.262 5.36 3.153 8.108 1.492 4.6 3.294 9.097 4.604 13.757.325 1.16.42 1.263 1.647 1.214.804-.032 1.535.251 2.32.3 1.655.105 3.293.455 4.947.599.484.042.978.624 1.408.162.288-.309.303-.856.508-1.262.769-1.526 1.495-3.08 2.366-4.548 2.032-3.422 3.881-6.942 5.793-10.43 1.73-3.154 3.322-6.385 5.301-9.413 1.11-1.698 2.06-3.515 3.4-5.043 1.402-1.597 2.53-3.412 4.039-4.916a8.93 8.93 0 0 1 1.723-1.373c.499-.298.853-.221 1.219.185 1.014 1.126 2.016 2.254 2.727 3.613a88.42 88.42 0 0 1 4.253 9.478c.6 1.571 1.103 3.215 1.344 5.032ZM65.251 89.745l.307.04c1.426.35 2.865.365 4.316.181.315-.04.767-.26.766.379-1.509.295-3.032.39-4.566.314-4.619-.23-8.537-1.981-11.611-5.46-3.302-3.738-4.336-8.979-1.606-13.64.09-.154.236-.296.123-.458-11.587-5.31-22.32-3.626-32.39 3.612.175.604.65.554.91.813 1.108 1.1 2.235 2.183 3.323 3.303 1.063 1.093 1.99 2.34 3.148 3.313 3.008 2.526 5.9 5.182 8.868 7.75 2.24 1.937 4.602 3.686 7.174 5.154.304.173.825.346.69.76-.248.759.27 1.077.664 1.476.547.554.559 1.24.543 1.939-.092 4.119.25 8.207.92 12.268.122.736.204 1.462.174 2.208-.037.947-.02.947-1.119.938-.885-1.5-1.314-3.136-1.475-4.857-.143-1.522-.266-3.041-.293-4.574-.035-1.874-.244-3.744-.312-5.67-.296 1.013-1.119 1.696-1.47 2.621-.71 1.861-1.656 3.603-2.539 5.377-.603 1.211-.612 1.229.414 2.018.477.366.935.762 1.367 1.18 1.972 1.904 3.315 4.202 4.19 6.785.072.362.085.712.654.654.965-.099 1.94-.132 2.91-.151 9.733-.182 19.467-.072 29.2-.098 1.456-.003 1.456.01 1.522-1.378.042-.18.093-.357.124-.538.66-3.78 2.49-6.827 5.655-9.047 1.694-1.188 3.574-1.934 5.577-2.396.428-.098.797-.167.744-.769-.216-2.461.606-4.72 1.462-6.956.349-.91 1.177-1.595 1.975-1.925.716-.296 1.288-.61 1.722-1.2.503-.686 1.142-1.174 1.874-1.606 1.87-1.104 3.686-2.302 5.526-3.455a22.497 22.497 0 0 0 4.011-3.177c1.138-1.143 2.354-2.25 3.644-3.202 1.525-1.127 2.951-2.355 4.354-3.61 1.081-.966 2.031-2.078 3.112-3.2-3.267-1.358-6.425-2.534-9.727-3.296-2.167-.695-4.401-1.094-6.641-1.453-5.06-.808-10.137-1.118-15.236-.384-2.398.346-4.722.954-6.819 2.227-.93.565-.92.584-.673 1.647.53 2.274.512 4.526-.55 6.644-.567 1.13-.965 2.416-2.14 3.152-.03.019-.043.066-.063.1l-.011-.096c1.5-2.649 2.282-4.75 2.141-6.766-.073-1.047-.502-1.962-.753-2.94-.486-1.892-1.498-3.496-2.904-4.816-4.117-3.866-9.026-5.22-14.51-4.107-5.848 1.187-9.055 5.814-9.434 11.402-.235 3.458 1.228 6.318 3.714 8.65 2.245 2.106 4.941 3.398 7.93 4.094.35.15.692.334 1.094.226ZM109.254 43l.889 3.978c.303-.055.333-.185.387-.303.927-2.038 1.752-4.132 2.814-6.097 1.056-1.955 1.362-4.06 1.63-6.181.082-.641.163-1.377-.187-2.022-.598-.662-.949-.717-1.854-.286-.569.27-1.079.719-1.78.592.192-1.373.634-2.675 1.135-3.958.451-1.156.908-2.318 1.108-3.54.225-1.373.702-2.746.238-4.163-.092-.29-.302-.555-.585-.472-.517.152-1.078.18-1.515.609-1.024 1.004-2.136 1.92-3.131 2.952-.86.891-1.689 1.82-2.283 2.938-.468.88-.964 1.682-.148 2.642.219.258.245.69.332 1.05.986 4.086 1.967 8.174 2.95 12.261Zm-74.549 67.206c-1.256-.395-2.556-.418-3.854-.434-5.412-.067-10.22 1.478-14.094 5.395-2.593 2.621-3.99 5.771-3.801 9.496.07 1.402.353 2.67 1.497 3.833 2.86 2.907 6.207 4.789 10.137 5.724.353.084.699.262 1.01.056.034-1.765-.503-3.394-.812-5.063-.186-.998-.247-2.018-.4-3.023-.064-.418-.015-.81.398-.91.455-.111.806.207.96.627.143.385.27.8.28 1.205.056 2.281 1.038 4.424.988 6.72-.004.167.137.338.211.507.04.08.07.223.12.229 2.808.379 5.508-.089 8.144-1.055.355-.131.48-.375.492-.738.045-1.425.319-2.846.05-4.275l-.053-.866c.064-.126.008-.198-.109-.244-.03-.923-.217-1.819-.462-2.705-.122-.441-.282-.876-.361-1.325-.062-.348-.14-.793.322-.937.384-.119.546.23.71.51a9.607 9.607 0 0 1 1.207 3.337c.13 1.007.27 2.014.39 3.023.12 1.025-.192 2.051-.152 3.308 3.561-2.224 5.827-5.054 6.37-9.042.556-4.089-.73-7.681-3.248-10.867a8.434 8.434 0 0 0-1.573-1.556c-1.334-.994-2.827-1.022-4.367-.93Zm67.142 21.026c2.231-.253 4.335-.966 6.364-1.878 1.521-.685 2.865-1.604 4.012-2.895 1.483-1.668 2.682-3.54 4.133-5.225 1.222-1.419 1.124-3.054.65-4.781-.343-1.251-1.194-2.161-1.759-3.254-.421-.816-1.126-1.324-1.79-1.896-.406-.351-.935-.351-1.389-.592-1.259-.667-2.536-1.295-3.879-1.817-1.399-.544-3.224-.161-4.17-1.769-.016-.028-.086-.026-.132-.034-1.317-.244-2.573-.775-3.93-.829-3.352-.626-6.668-.438-9.887.663-3.315 1.134-5.778 3.26-7.114 6.577-.615 1.526-.889 3.106-.918 4.744-.032 1.776.276 3.505.657 5.226.369 1.67 1.274 3.192 1.364 4.941.004.078.093.158.152.228.853.994 1.862 1.729 3.274 2.003-.27-1.754-.134-3.421-.133-5.084.002-1.85.805-3.499 1.536-5.149.127-.286.377-.611.758-.432.398.185.63.483.432 1.007-.262.69-.38 1.435-.656 2.117-.795 1.96-.456 4.021-.58 6.038-.029.49.171.998.292 1.492.09.367.245.664.69.767 1.914.439 3.855.523 5.806.504.437-.005.6-.278.441-.642-.478-1.096-.169-2.192-.04-3.283.178-1.515.247-3.058.783-4.501.199-.534.203-1.548 1.112-1.262.785.248.415 1.079.317 1.693-.363 2.28-.73 4.56-.806 6.873-.033 1.011.1 1.14 1.121 1.003 1.101-.148 2.193-.366 3.289-.553Zm94.588 36.019c.553-.691.875-1.511 1.253-2.294 2.514-5.207 4.049-10.683 4.502-16.456a42.486 42.486 0 0 0-1.366-14.537c-.397-1.464-.773-2.959-1.504-4.359-.365.268-.457.52-.486.804-.684 1.256-1.495 2.429-2.378 3.552-.205.26-.374.503-.444.839-.311 1.502-1.206 2.681-2.17 3.816-.195.23-.357.62-.769.356-.371-.237-.873-.385-.686-1.035.114-.396.186-.827.162-1.235-.202-3.401.175-6.797.024-10.204-.17-3.84-.392-7.665-.891-11.48a102.051 102.051 0 0 0-5.138-21.252c-2.325-6.49-5.318-12.621-9.299-18.256-3.563-5.04-8.023-9.075-13.572-11.846-.891-.445-1.79-.92-2.984-1.142.341 1.55-.236 2.92-.239 4.35-.006 2.26-.268 4.52-.669 6.72-.435 2.39-1.228 4.736-2.241 6.974-.57 1.259-1.266 2.464-1.789 3.74-.353.862-.716 1.722-1.236 2.474-1.186 1.716-2.16 3.557-3.234 5.337-1.351 2.239-3.164 3.958-5.393 5.262-1.088.635-2.14 1.298-2.999 2.234a2.708 2.708 0 0 1-.638.528c-2.464 1.395-4.282 3.5-6.135 5.561-.523.582-.896 1.296-1.391 1.906-2.248 2.775-3.576 6.018-4.785 9.322-.259.708-.029 1.24.601 1.638 1.28.808 2.291 1.907 3.102 3.154 4.045 6.223 6.886 12.868 7.022 20.435-.002.37-.029.742-.002 1.109.438 5.914.562 11.842.736 17.766.193 6.57.058 13.149.482 19.714.026.415.083.828.126 1.242-.116 4.899.217 9.784.299 14.82 1.108-.387 2.061.008 3.038-.041a84.915 84.915 0 0 0 8.434-.828c7.699-1.164 14.92-3.666 21.659-7.565 6.331-3.664 11.827-8.315 16.37-14.041 1.751-2.209 3.454-4.482 4.628-7.082ZM55.063 13.181c-1.165-3.747-2.828-7.23-5.38-10.365-.367.7-.674 1.266-.965 1.841-1.252 2.476-2.73 4.83-3.906 7.35-1.175 2.517-2.096 5.135-3.212 7.673-.762 1.732-1.54 3.457-2.162 5.243-.301.864-.83 1.862-.482 2.675.426 1 .183 1.802-.103 2.661-.542 1.63-1.366 3.14-2.09 4.692-1.41 3.022-2.328 6.238-3.644 9.298-.235.547-.38 1.08-1.1 1.287-.454.131-.798.627-.906 1.16-.075.367-.18.711-.375 1.037-1.21 2.022-1.907 4.27-2.762 6.441-.552 1.402-1.117 2.806-1.61 4.239-1.157 3.364-2.539 6.651-3.81 9.978-.572 1.497-1.143 3-1.498 4.602.38-.035.58-.233.802-.388 1.946-1.367 4.048-2.443 6.25-3.327 5.187-2.08 10.547-2.816 16.102-2.068 3.025.407 5.875 1.322 8.53 2.822.497.28.792.319 1.08-.267.496-1.008 1.234-1.841 2.071-2.59.764-.683 1.66-1.176 2.494-1.746-1.001-2.213-.45-4.37.163-6.5.215-.75.819-1.001 1.527-.889.678.108 1.228.82 1.284 1.763.075 1.249.166 2.504-.035 3.748-.096.594.143.756.677.667.184-.03.37-.044.552-.076 3.834-.657 7.476-.054 10.952 1.657.225.11.436.386.778.145.024-.483.03-.993.08-1.498.124-1.246.265-2.494.8-3.648.291-.63.791-1.107 1.497-1.071.748.038.997.748 1.277 1.318.165.333.124.723.072 1.096-.12.873-.244 1.746-.34 2.622-.12 1.09-.368 2.1-1.713 2.654 1.84 1.305 3.009 2.95 4.076 4.712 3.404-2.284 7.148-2.993 11.036-3.242 4.664-.298 9.272.132 13.846 1.006 2.046.39 4.078.854 6.117 1.285.117.07.226.17.352.206 2.724.767 5.405 1.657 8.019 2.741.174.072.356.103.499-.108a10.486 10.486 0 0 0-.53-1.977c-.584-1.556-1.175-3.12-1.581-4.727-.672-2.659-1.772-5.168-2.819-7.664-1.477-3.525-2.247-7.218-3.259-10.857-.072-.257-.005-.574-.388-.629-.783.724-1.489.745-2.118.064-.032-.228-.04-.463-.099-.684-1.254-4.768-2.292-9.587-3.404-14.39-.456-1.972-.935-3.945-1.046-5.98.97-1.408 1.567-3.044 2.681-4.365.252-.3.243-.637.14-1.037-.265-1.026-.678-1.988-1.044-2.975-.883-2.382-1.644-4.81-2.627-7.157-.96-2.294-1.635-4.714-3.02-6.821-.155-.506-.365-.618-.721-.132-.874 1.195-1.694 2.438-2.661 3.552-1.526 1.757-2.882 3.602-4.015 5.646-1.817 3.277-3.858 6.43-5.659 9.716a903.514 903.514 0 0 1-6.13 11.044c-.92 1.623-2.089 3.196-2.34 5.149a.44.44 0 0 1-.346.387c-1.232.324-2.377 1.084-3.721.843-1.9-.34-3.84-.44-5.726-.802a19.312 19.312 0 0 0-8.494.236c-.597-1.381-.29-2.249 1.065-2.816.628-.262 1.305-.407 1.971-.608-.098-.483-.571-.686-.7-1.174-.799-3.03-1.996-5.933-2.933-8.92-1.298-4.135-3.273-8.017-4.513-12.173-.167-.56-.393-1.13-.803-1.586Zm-43.04 115.243c-.578.513-.8 1.097-1.264 1.499-1.766 1.535-3.108 3.41-4.246 5.437-2.08 3.706-3.644 7.526-3.297 11.935.426 5.41.21 10.839.272 16.26.016 1.484.037 2.969.028 4.453-.002.467.143.695.635.658.276-.021.556 0 .835 0 6.686-.014 13.372-.027 20.058-.043 2.693-.006 5.386-.023 8.078-.022.549 0 .981.006.984-.769.012-2.915.379-5.823.258-8.739-.03-.742.372-1.011.87-1.235a4.062 4.062 0 0 1 1.338-.331c2.912-.217 5.824-.476 8.741-.579 2.778-.098 5.56-.081 8.336-.267 2.86-.191 5.728-.14 8.592-.309 1.137-.067 2.26-.349 3.422-.231 1.582.161 1.568.153 1.713 1.682.286 3.006.242 6.019.305 9.031.036 1.731.05 1.743 1.84 1.741 12.07-.013 24.14-.039 36.209-.033.727 0 1.036-.184.938-.922-.03-.228-.008-.463-.005-.695.09-7.33-.185-14.662.17-21.989.016-.323 0-.648-.016-.972-.074-1.522-.048-3.053.276-4.533.626-2.861 1.493-5.659 2.61-8.567-1.605.777-3.087 1.387-4.635 1.828-4.34 1.239-8.756 1.569-13.23 1.062-2.598-.294-5.123-.88-7.323-2.41-1.106-.769-1.924-1.742-2.079-3.142-.025-.229-.016-.45-.165-.657-1.332-1.863-1.716-4.058-2.094-6.233-.288-1.662-.22-1.674-1.863-1.694-.232-.003-.464-.002-.696-.002-10.121.005-20.242.009-30.362.015-.99.001-.986.005-.928 1.147.232 4.574-1.507 8.34-4.866 11.341-3.18 2.842-6.956 4.389-11.239 4.567-5.226.216-10.006-1.091-14.22-4.276-1.488-1.125-2.715-2.506-3.98-4.006Zm-8.471 84.31c.536-.151.93-.185 1.342-.186 6.115-.019 12.231-.059 18.347-.098 7.787-.05 15.574-.111 23.361-.153 9.537-.052 19.073-.089 28.61-.136 5.59-.027 11.182-.066 16.774-.093 4.682-.023 9.365-.033 14.047-.054.951-.004 1.012-.07.99-1.016-.014-.602-.075-1.203-.078-1.805-.037-6.955-.067-13.911-.1-20.866-.006-1.206-.035-2.411-.022-3.616.004-.416-.137-.602-.552-.583-.232.012-.465.012-.697.012-9.093.006-18.186.013-27.28.016-3.247.001-6.494.002-9.742-.015-.634-.004-1.063.072-.996.887.136 1.661-.243 3.304-.247 4.962-.004 1.574-.415 2.064-1.975 1.697-1.236-.292-2.446-.155-3.656-.201-4.397-.165-8.801-.15-13.2-.283-3.24-.098-6.484.047-9.721-.24-1.15-.102-2.33-.116-3.471.027-1.33.167-1.642.021-1.654-1.323-.017-1.798-.004-3.596-.004-5.547-.622 0-1.31.002-1.997-.001-6.87-.031-13.74-.061-20.61-.097-2.18-.011-4.36-.021-6.54-.065-.638-.013-.972.181-.923.856.014.184.001.37.001.555l-.007 21.526v5.84Zm105.042-44.233c1.906-.76 3.529-1.412 5.156-2.054 8.1-3.196 16.207-6.377 24.298-9.597 1.337-.532 1.229-.199 1.22-1.771-.022-3.895-.123-7.791-.056-11.684.038-2.158-.325-4.239-.755-6.32-.794-3.847-2.425-7.374-4.276-10.807-.989-1.836-2.003-3.668-3.384-5.245-.951-1.086-2.025-2.036-3.647-1.896-.172.015-.358-.083-.532-.144-.631-.22-1.236-.151-1.9-.053-1.157.172-2.221.592-3.326.907-1.086.31-2.031.779-2.813 1.609-1.877 1.992-3.411 4.262-5.176 6.344a7.413 7.413 0 0 0-1.349 2.411c-.832 2.448-1.766 4.864-2.501 7.34-.913 3.075-1.43 6.221-1.259 9.457.235 4.442.253 8.891.295 13.337.025 2.636.005 5.272.005 8.166Zm31.092 3.986c-.484.15-.751.218-1.006.314-9.704 3.664-19.402 7.342-29.119 10.972-.847.316-.954.799-.952 1.558.013 7.884.006 15.767-.009 23.651-.001.656.095 1.293.215 1.929.217 1.155.227 1.152 1.441 1.151l11.695-.008c5.8-.004 11.599-.003 17.398-.013 1.136-.002 1.298-.174 1.151-1.274-.079-.594-.178-1.177-.195-1.785-.102-3.744.091-7.485-.069-11.234-.273-6.429-.288-12.868-.415-19.303-.038-1.934-.087-3.868-.135-5.958Zm-73.863-15.168c-.658 0-.674.878-1.2.713-.723-.225-1.357.057-2.03.14-3.638.448-7.307.516-10.96.614-4.172.111-8.345.305-12.52.291-.51-.001-1.021.044-1.53.09-1.669.15-2.143.613-2.08 2.272.104 2.726-.146 5.443-.041 8.174.14 3.657.052 7.326-.016 10.988-.047 2.532-.474 5.052-.276 7.595.015.184-.005.371-.009.556-.014.603.265.889.855.679.814-.289 1.654-.217 2.482-.225 2.089-.02 4.179-.033 6.266.032 3.384.105 6.769-.022 10.154.148 2.779.14 5.57-.07 8.352.121.695.048 1.437-.451 2.063.332.393-2.927.797-30.454.49-32.52Zm41.033 25.205c-.289-4.193-.055-8.256-.238-12.28-3.17 0-6.184.003-9.197-.001-9.42-.012-18.838-.028-28.257-.039-1.465-.002-1.503.006-1.521 1.416-.042 3.336-.022 6.673-.08 10.008-.013.787.304.905.984.893 2.04-.035 4.081-.006 6.122-.006l25.749.009h6.438Zm32.35-24.801c-.371.136-.585.21-.795.293-9.61 3.802-19.217 7.612-28.835 11.392-.708.278-.992.608-.982 1.403.049 3.618.018 7.236.03 10.854.002.346-.115.723.145 1.09.393-.173.757-.351 1.135-.495 6.585-2.5 13.17-5.001 19.758-7.492a613.84 613.84 0 0 1 8.991-3.346c.681-.246.961-.591.909-1.311-.057-.785.001-1.577-.03-2.364-.129-3.282.072-6.576-.326-10.024ZM18.859 170.2v-.105c-4.778 0-9.556-.004-14.334.004-.959.001-.977.021-.977.992 0 3.52.007 7.039.024 10.559.004.905.116 1.01 1.052 1.006 5.844-.026 11.688-.062 17.533-.09 3.62-.017 7.239-.034 10.858-.027.603.001.928-.088.934-.815.032-3.428.117-6.857.181-10.285.004-.232-.008-.464-.009-.696 0-.335-.171-.514-.5-.526a37.389 37.389 0 0 0-1.254-.016L18.86 170.2Zm13.35-127.1c1.444-3.882 2.722-7.587 4.472-11.102.391-.786.665-1.635 1.1-2.393.502-.877.087-1.523-.463-2.063-1.287-1.265-2.329-2.641-2.822-4.422-.205-.738-.401-1.55-1.043-2.137-.95 1.366-.93 1.366-.926 2.746.008 2.452.241 4.867 1.048 7.204.21.609.335 1.247.52 1.866.252.85-.67.986-.955 1.52-.166.313-.706.12-1.09-.17-.705-.531-1.483-.966-2.207-1.426-.968 3.86.054 7.162 2.365 10.376Zm70.661 61.959c-2.75-2.401-4.822-5.392-7.568-7.967-.555 2.443-.876 4.742-1.592 7.091 3.202-.222 6.178.192 9.16.876Z"/><path fill="#DED9FE" d="M12.023 128.424c1.265 1.5 2.492 2.881 3.98 4.006 4.214 3.185 8.994 4.492 14.22 4.276 4.283-.178 8.06-1.725 11.24-4.567 3.358-3.001 5.097-6.767 4.865-11.341-.058-1.142-.061-1.146.927-1.147l30.363-.015c.232 0 .464-.001.696.002 1.643.02 1.575.032 1.863 1.694.378 2.175.762 4.37 2.094 6.233.148.207.14.428.165.657.155 1.4.973 2.373 2.08 3.142 2.199 1.53 4.724 2.116 7.323 2.41 4.473.507 8.889.177 13.229-1.062 1.548-.441 3.03-1.051 4.635-1.828-1.117 2.908-1.984 5.706-2.61 8.567-.324 1.48-.35 3.011-.276 4.533.016.324.032.649.016.972-.355 7.327-.08 14.659-.17 21.989-.003.232-.025.467.005.695.098.738-.211.922-.938.922-12.07-.006-24.139.02-36.208.033-1.79.002-1.805-.01-1.841-1.741-.064-3.012-.02-6.025-.305-9.031-.145-1.529-.131-1.521-1.713-1.682-1.162-.118-2.285.164-3.422.231-2.864.169-5.733.118-8.592.309-2.777.186-5.558.169-8.336.267-2.917.103-5.829.362-8.74.579a4.061 4.061 0 0 0-1.34.331c-.497.223-.9.493-.869 1.235.12 2.916-.246 5.824-.258 8.739-.003.775-.435.769-.984.769-2.692-.001-5.385.016-8.078.022-6.686.016-13.372.029-20.058.043-.279 0-.559-.021-.835 0-.492.037-.637-.191-.635-.658.01-1.484-.012-2.969-.028-4.453-.061-5.421.154-10.85-.272-16.26-.347-4.409 1.217-8.229 3.297-11.935 1.138-2.027 2.48-3.902 4.246-5.437.463-.402.686-.986 1.264-1.499Z"/><path fill="#FEA849" d="M60.976 40.457a19.313 19.313 0 0 1 8.494-.236c1.886.361 3.825.462 5.726.802 1.344.241 2.49-.52 3.72-.843.2-.053.32-.19.346-.387.252-1.953 1.42-3.526 2.34-5.15A902.174 902.174 0 0 0 87.733 23.6c1.8-3.286 3.842-6.44 5.66-9.717 1.132-2.043 2.488-3.888 4.014-5.645.968-1.114 1.787-2.357 2.661-3.552.356-.486.566-.374.722.132-.095.52.059.998.224 1.485.725 2.136 1.435 4.277 2.147 6.418.13.393.322.787.351 1.19.182 2.613.793 5.195.609 7.834-.116 1.666.406 3.292.291 4.958-.01.15.16.313.247.47.111 2.035.59 4.008 1.046 5.98 1.112 4.803 2.15 9.622 3.404 14.39.059.221.067.456.099.684-.361.54-.393 1.052-.13 1.692.382.931.652 1.919.876 2.904.453 1.988.154 4.053.558 6.051.332 1.642.123 3.33.343 4.965.33 2.453.187 4.892.178 7.338-2.039-.43-4.071-.894-6.117-1.284-4.574-.874-9.182-1.304-13.846-1.006-3.888.249-7.632.958-11.036 3.242-1.067-1.762-2.236-3.407-4.075-4.712 1.344-.555 1.592-1.564 1.712-2.654.096-.876.22-1.749.34-2.622.052-.373.093-.763-.072-1.097-.28-.57-.528-1.28-1.277-1.317-.706-.036-1.206.441-1.497 1.071-.535 1.154-.676 2.402-.8 3.648-.05.505-.056 1.015-.08 1.498-.342.24-.553-.035-.778-.145-3.476-1.711-7.117-2.314-10.952-1.657-.182.032-.368.046-.551.076-.535.089-.774-.073-.678-.667.201-1.244.11-2.499.035-3.748-.056-.943-.606-1.655-1.284-1.763-.708-.112-1.312.14-1.527.889-.613 2.13-1.164 4.287-.163 6.5-.834.57-1.73 1.063-2.494 1.745-.837.75-1.575 1.583-2.07 2.59-.289.587-.584.549-1.082.267-2.654-1.5-5.504-2.414-8.528-2.821-5.556-.748-10.916-.012-16.103 2.068-2.202.884-4.304 1.96-6.25 3.326-.222.156-.422.354-.802.39.356-1.604.926-3.106 1.498-4.604 1.271-3.326 2.652-6.613 3.81-9.978.493-1.432 1.058-2.836 1.61-4.238.855-2.171 1.552-4.42 2.762-6.44.195-.327.3-.672.375-1.039.108-.532.452-1.028.906-1.159.72-.208.865-.74 1.1-1.287 1.316-3.06 2.233-6.276 3.644-9.298.724-1.552 1.548-3.062 2.09-4.692.286-.86.53-1.662.103-2.661-.347-.813.18-1.81.482-2.675.621-1.786 1.4-3.51 2.162-5.243 1.116-2.538 2.037-5.156 3.212-7.673 1.177-2.52 2.654-4.874 3.906-7.35.291-.575.598-1.142.964-1.841 2.553 3.136 4.216 6.618 5.381 10.364-.268.802-.426 1.645-.258 2.46.428 2.075.658 4.176.973 6.267.323 2.14.538 4.29.645 6.448.075 1.525.097 3.062-.007 4.584-.131 1.919-.222 3.864-1.087 5.652-.117.242-.36.636-.093.745.763.311 1.034 1.358 2.13 1.212 1.187-.157 2.406-.071 3.61-.091Z"/><path fill="#FEEEE1" d="M140.665 142.157c-.136-7.567-2.977-14.212-7.022-20.435-.811-1.247-1.822-2.346-3.102-3.154-.63-.398-.86-.93-.601-1.638 1.209-3.304 2.537-6.547 4.785-9.322.495-.61.868-1.324 1.391-1.906 1.853-2.061 3.671-4.166 6.135-5.561.237-.134.452-.326.638-.528.859-.936 1.911-1.599 2.999-2.234 2.229-1.304 4.042-3.023 5.393-5.262 1.074-1.78 2.048-3.621 3.234-5.338.52-.751.883-1.611 1.236-2.472.524-1.277 1.219-2.482 1.789-3.741 1.013-2.238 1.806-4.583 2.241-6.974.401-2.2.663-4.46.669-6.72.003-1.43.581-2.8.239-4.35 1.194.222 2.094.697 2.984 1.142 5.549 2.77 10.009 6.805 13.572 11.846 3.981 5.635 6.974 11.766 9.299 18.256a102.051 102.051 0 0 1 5.138 21.252c.499 3.815.721 7.64.891 11.48.151 3.407-.226 6.803-.024 10.204.024.408-.048.839-.162 1.235-.187.65.315.798.686 1.035.412.264.574-.126.769-.356.964-1.135 1.859-2.314 2.17-3.816.07-.336.239-.579.444-.839.883-1.123 1.694-2.296 2.378-3.552.702.674.795 1.634 1.16 2.467.702 1.602.525 3.349.811 5.02.224 1.307-.047 2.647-.03 3.976.012.982-.454 1.952-.614 2.956-.144.902-.21 1.814-.462 2.714-.724 2.581-1.821 5.03-2.573 7.596-.316 1.081-.899 2.006-1.573 2.887-.406-.758-.228-1.621-.471-2.431-.707-2.359-1.647-4.621-2.655-6.857-.588-1.304-1.022-2.691-1.906-3.852-.684-.897-.811-.932-1.571-.131-.901.95-1.914 1.76-2.993 2.484a21.117 21.117 0 0 1-2.514 1.476c-.747.364-1 .159-1.018-.65-.004-.186.02-.371.02-.556-.006-2.714.63-5.399.274-8.138-.124-.956-.131-1.93-.34-2.883a93.762 93.762 0 0 1-.75-3.667c-.65-3.647-2.004-7.018-3.956-10.156-.201-.323-.378-.735-1.051-.768.157 2.087-.732 3.824-1.486 5.601-.054.128-.128.253-.156.387-.49 2.376-1.695 4.495-2.425 6.786-.27.849-.752 1.583-1.369 2.231-.905.951-1.633 2.028-2.063 3.267-.219.63-.568 1.151-.928 1.692-1.823 2.74-3.973 5.236-5.872 7.92-.816 1.154-1.73 2.242-2.919 3.104-.177-.41-.1-.74-.051-1.048.588-3.662.625-7.364.805-11.054.056-1.155-.08-2.319-.035-3.476.043-1.089-.156-2.114-.5-3.132-.262-.777-.304-.813-1.035-.369-1.898 1.154-3.718 2.457-5.694 3.455a66.994 66.994 0 0 1-8.316 3.502c-1.309.453-2.676.74-3.913 1.395Z"/><path fill="#DED9FE" d="M3.552 212.734v-5.84l.007-21.526c0-.185.013-.371 0-.555-.05-.675.284-.869.922-.856 2.18.044 4.36.054 6.54.065 6.87.036 13.74.066 20.61.097.688.003 1.375.001 1.997.001 0 1.951-.013 3.749.004 5.547.012 1.344.324 1.49 1.654 1.323 1.141-.143 2.322-.129 3.471-.027 3.237.287 6.48.142 9.72.24 4.4.133 8.804.118 13.201.283 1.21.046 2.42-.091 3.656.201 1.56.367 1.97-.123 1.975-1.697.004-1.658.383-3.301.247-4.962-.067-.815.362-.891.996-.887 3.248.017 6.495.016 9.743.015 9.093-.003 18.186-.01 27.279-.016.232 0 .465 0 .697-.012.415-.019.556.167.551.583-.012 1.205.017 2.41.023 3.616.033 6.955.063 13.911.1 20.866.003.602.064 1.203.078 1.805.022.946-.039 1.012-.99 1.016-4.682.021-9.365.031-14.047.054-5.592.027-11.183.066-16.775.093-9.536.047-19.072.084-28.609.136-7.787.042-15.574.103-23.361.153-6.116.039-12.232.079-18.347.098a4.646 4.646 0 0 0-1.342.186Z"/><path fill="#FEEEE1" d="M80.053 116.542c-.066 1.388-.066 1.374-1.522 1.378-9.733.026-19.467-.084-29.2.098a35.32 35.32 0 0 0-2.91.151c-.57.058-.582-.292-.653-.653.04-.959.078-1.92.117-2.881 1.099.009 1.082.009 1.12-.939.029-.745-.053-1.471-.174-2.207-.67-4.061-1.013-8.149-.92-12.269.015-.698.003-1.384-.544-1.938-.394-.399-.912-.717-.664-1.476.135-.414-.386-.587-.69-.76-2.572-1.469-4.934-3.217-7.174-5.155-2.969-2.567-5.86-5.223-8.868-7.749-1.159-.973-2.085-2.22-3.148-3.313-1.088-1.12-2.215-2.203-3.323-3.303-.26-.26-.735-.21-.91-.813 10.07-7.239 20.802-8.922 32.39-3.612.113.162-.032.304-.123.458-2.73 4.661-1.696 9.902 1.606 13.64 3.073 3.479 6.992 5.23 11.611 5.46a18.814 18.814 0 0 0 4.566-.314c1.185-.144 2.312-.421 3.15-1.39-1.83.564-3.677.936-5.592.885-.88-.023-1.76-.037-2.64-.055l-.305-.04c-.319-.294-.705-.27-1.095-.226-2.99-.696-5.686-1.988-7.931-4.095-2.486-2.33-3.95-5.191-3.715-8.649.38-5.588 3.587-10.215 9.435-11.402 5.483-1.113 10.393.24 14.51 4.107 1.406 1.32 2.418 2.924 2.904 4.815.25.979.68 1.894.753 2.94.141 2.016-.64 4.118-2.142 6.767l.012.096c.02-.034.033-.081.063-.1 1.175-.736 1.573-2.022 2.14-3.153 1.062-2.117 1.08-4.369.55-6.643-.247-1.063-.258-1.082.674-1.647 2.096-1.273 4.42-1.881 6.818-2.227 5.099-.734 10.177-.424 15.236.385 2.24.358 4.474.757 6.64 1.452-.286.931-.87 1.729-1.207 2.631-.38 1.023-.968 1.884-1.734 2.641-1.382 1.366-2.687 2.823-4.281 3.947-1.324.934-2.374 2.174-3.767 3.048-3.087 1.937-6.19 3.877-9.084 6.08-2.383 1.814-4.647 3.792-7.085 5.545-.304.218-.505.534-.657.882-1.47 3.366-2.51 6.829-2.441 10.553.012.644-.01 1.295-.08 1.936-.266 2.387-.395 4.765.284 7.114Zm-22.58-43.561c.01 1.426.681 2.219 1.566 2.873.947.698 2.029 1.087 3.171 1.337 2.812.614 5.626.343 8.424-.037a19.289 19.289 0 0 0 5.183-1.466c.514-.226.997-.493 1.408-.864.288-.258.219-.602-.01-.871-.12-.142-.296-.104-.486.003-2.17 1.227-4.532 1.82-6.998 1.938-1.844.089-3.698.053-5.546.012-2.545-.058-4.808-.846-6.713-2.925Zm8.184-7.202c-.599.062-1.2.106-1.793.192-.769.11-1.619 1.445-1.23 2.074.578.934 1.152 1.908 2.11 2.54.31.203.63.397 1.03.339 1.888-.276 3.358-1.25 4.495-2.743.334-.438.248-.823-.26-1.145-1.333-.846-2.834-1.062-4.352-1.257Z"/><path fill="#FEA849" d="M140.665 142.157c1.237-.655 2.604-.942 3.913-1.395a67.058 67.058 0 0 0 8.316-3.502c1.976-.998 3.796-2.301 5.694-3.455.731-.444.772-.408 1.035.369.344 1.018.543 2.043.5 3.132-.045 1.157.091 2.321.035 3.476-.18 3.69-.217 7.392-.805 11.054-.049.308-.126.638.051 1.048 1.189-.862 2.103-1.95 2.919-3.104 1.899-2.684 4.049-5.18 5.872-7.92.359-.541.709-1.062.928-1.692.43-1.239 1.158-2.316 2.063-3.267.617-.648 1.099-1.382 1.369-2.231.73-2.291 1.935-4.411 2.425-6.786.028-.134.101-.259.156-.387.754-1.777 1.643-3.514 1.486-5.601.673.033.85.445 1.05.768 1.953 3.138 3.307 6.509 3.957 10.156.218 1.228.483 2.448.75 3.667.209.953.216 1.927.34 2.883.356 2.739-.281 5.424-.274 8.137 0 .186-.024.371-.02.557.018.809.271 1.014 1.018.65a21.197 21.197 0 0 0 2.514-1.476c1.079-.724 2.092-1.534 2.993-2.484.76-.801.887-.766 1.571.131.884 1.161 1.318 2.548 1.906 3.852 1.008 2.236 1.948 4.498 2.655 6.857.243.81.065 1.673.471 2.431l-.288.292c-.156.116-.206.285-.272.462-.672 1.775-1.567 3.431-2.751 4.92-1.062 1.336-2.151 2.651-3.216 3.985-1.648 2.061-3.316 4.118-5.576 5.538-.987.62-1.887 1.331-2.777 2.057-.794.647-1.613 1.266-2.518 1.712-1.792.884-3.404 2.05-5.108 3.07-2.112 1.263-4.353 2.281-6.723 2.94-.808.224-1.617.382-2.309.862-.667.462-1.453.755-2.191.813-1.268.099-2.43.543-3.648.789-.225.045-.452.127-.678.127-3.785-.001-7.57.255-11.292-.902-1.713-.533-3.138-1.272-4.199-2.702-.043-.414-.1-.827-.126-1.242-.424-6.565-.289-13.144-.482-19.714-.174-5.924-.298-11.852-.736-17.766-.027-.367 0-.739.002-1.109Z"/><path fill="#949EE3" d="M108.593 168.501c0-2.894.021-5.53-.004-8.166-.042-4.446-.06-8.895-.295-13.337-.171-3.237.346-6.383 1.258-9.457.736-2.476 1.67-4.892 2.502-7.34.302-.89.755-1.71 1.349-2.411 1.765-2.082 3.299-4.352 5.176-6.344.782-.83 1.727-1.299 2.813-1.609 1.105-.315 2.169-.735 3.326-.907.664-.098 1.269-.167 1.9.053.174.061.36.159.532.144 1.622-.14 2.696.81 3.647 1.896 1.381 1.577 2.394 3.409 3.384 5.245 1.851 3.433 3.482 6.96 4.276 10.807.43 2.081.793 4.162.755 6.32-.067 3.893.034 7.789.056 11.684.009 1.572.117 1.239-1.22 1.771-8.091 3.22-16.198 6.401-24.298 9.597-1.627.642-3.25 1.294-5.157 2.054ZM139.686 172.487c.047 2.09.097 4.024.135 5.958.127 6.435.142 12.874.415 19.303.16 3.749-.033 7.49.069 11.234.017.608.116 1.191.195 1.785.147 1.1-.015 1.272-1.151 1.274-5.799.01-11.599.009-17.398.013l-11.695.008c-1.215.001-1.224.004-1.441-1.151-.12-.636-.216-1.273-.215-1.929.015-7.884.022-15.767.009-23.651-.002-.759.105-1.242.952-1.558 9.717-3.63 19.415-7.308 29.119-10.972.255-.096.521-.164 1.006-.314Z"/><path fill="#B7B7BA" d="M65.823 157.319c.307 2.066-.097 29.593-.49 32.52-.626-.783-1.368-.284-2.063-.332-2.783-.191-5.573.019-8.352-.121-3.385-.17-6.77-.043-10.154-.148-2.087-.065-4.178-.052-6.266-.032-.828.008-1.668-.064-2.482.225-.59.21-.868-.076-.855-.679.004-.185.024-.372.01-.556-.2-2.543.228-5.063.275-7.595.068-3.662.156-7.331.016-10.988-.105-2.731.145-5.448.041-8.174-.063-1.659.411-2.122 2.08-2.272a16.65 16.65 0 0 1 1.53-.09c4.175.014 8.348-.18 12.52-.291 3.653-.098 7.322-.166 10.96-.614.673-.083 1.307-.365 2.03-.14.525.165.542-.713 1.2-.713ZM48.29 175.941l.085.001c0 1.066-.059 2.135.013 3.196.11 1.617.605 1.97 2.253 1.763 1.095-.137 1.084-.138 1.115-1.255.051-1.819-.204-3.602-.57-5.375-.172-.833-.09-1.534.428-2.341.72-1.12 1.702-2.101 1.925-3.566.272-1.785-1.279-3.836-3.083-3.722-.875.055-1.724.352-2.612.362-.297.003-.536.175-.67.436-.643 1.246-1.189 2.522-.996 3.976.082.615.258 1.264.88 1.472 1.308.439 1.322 1.508 1.351 2.554.024.831-.074 1.666-.119 2.499Z"/><path fill="#ED751E" d="M142.007 181.988c1.061 1.43 2.486 2.169 4.199 2.702 3.722 1.157 7.507.901 11.292.902.226 0 .453-.082.678-.127 1.218-.246 2.38-.69 3.648-.789.738-.058 1.524-.351 2.191-.813.692-.48 1.501-.638 2.309-.862 2.37-.659 4.611-1.677 6.723-2.94 1.704-1.02 3.316-2.185 5.108-3.07.905-.446 1.724-1.065 2.518-1.712.89-.726 1.79-1.437 2.776-2.056 2.261-1.421 3.929-3.478 5.576-5.539 1.066-1.334 2.155-2.649 3.217-3.985 1.184-1.489 2.079-3.145 2.751-4.92.066-.177.116-.346.272-.462.01.229-.009.464.033.687.481 2.524.857 5.06.88 7.636.002.238.065.452.257.611-1.174 2.601-2.877 4.873-4.628 7.082-4.543 5.726-10.039 10.377-16.371 14.041-6.738 3.899-13.959 6.401-21.658 7.565-2.8.424-5.609.685-8.434.828-.977.049-1.93-.346-3.038.041-.082-5.036-.415-9.921-.299-14.82Z"/><path fill="#FEA849" d="M101.847 131.232c-1.096.187-2.188.405-3.289.553-1.02.137-1.154.008-1.12-1.003.075-2.313.442-4.593.805-6.873.098-.614.468-1.445-.317-1.693-.909-.287-.913.728-1.112 1.262-.536 1.443-.605 2.986-.783 4.501-.129 1.091-.438 2.187.04 3.283.16.364-.004.637-.44.642-1.952.019-3.893-.065-5.807-.505-.445-.102-.6-.399-.69-.767-.12-.493-.32-1.001-.291-1.491.123-2.017-.216-4.078.58-6.038.276-.682.393-1.427.655-2.117.199-.524-.034-.822-.432-1.008-.38-.178-.631.147-.758.433-.73 1.65-1.534 3.298-1.536 5.149-.001 1.663-.136 3.33.133 5.084-1.412-.274-2.42-1.009-3.273-2.003-.06-.07-.149-.15-.153-.228-.09-1.749-.995-3.271-1.364-4.941-.381-1.721-.689-3.45-.657-5.226.03-1.638.303-3.218.918-4.744 1.336-3.317 3.8-5.443 7.114-6.577 3.22-1.101 6.535-1.289 9.887-.663.016.09.004.238.053.261.881.419 1.47 1.217 2.274 1.738 1.472.953 2.479 2.283 3.26 3.844.502 1.004.731 2.082 1.096 3.121.707 2.015 1.045 4.029.299 6.169-.757 2.174-1.402 4.374-2.583 6.379-.729 1.237-1.87 2.164-2.509 3.458Z"/><path fill="#B7B7BA" d="M106.856 182.524h-6.438l-25.75-.009c-2.04 0-4.081-.029-6.12.006-.681.012-.998-.106-.984-.893.057-3.335.037-6.672.079-10.008.018-1.41.056-1.418 1.521-1.416 9.419.011 18.838.027 28.257.039 3.013.004 6.027.001 9.197.001.183 4.024-.051 8.087.238 12.28Z"/><path fill="#FEA849" d="m35.978 127.634.052.866c-1.236 1.244-2.275 2.676-3.616 3.817-1.492 1.27-3.063 2.364-5.189 2.022-.074-.169-.215-.34-.211-.507.05-2.296-.932-4.439-.989-6.72-.01-.405-.136-.82-.278-1.205-.155-.42-.506-.738-.96-.627-.414.1-.463.492-.4.91.154 1.005.215 2.025.4 3.023.31 1.669.847 3.298.814 5.063-.312.206-.658.028-1.011-.056-3.93-.935-7.276-2.817-10.137-5.724-1.144-1.163-1.427-2.431-1.497-3.833-.188-3.725 1.208-6.874 3.8-9.496 3.875-3.917 8.683-5.462 14.095-5.395 1.298.016 2.598.039 3.854.434.185.204.365.412.556.61 1.015 1.058 2.12 2.049 2.009 3.737-.03.447.342.84.635 1.201.544.672.747 1.425.71 2.302-.043 1.009-.163 2.043.08 3.032.496 2.009.02 3.716-1.41 5.182a9.607 9.607 0 0 0-1.207-3.337c-.164-.28-.326-.629-.71-.51-.462.144-.384.589-.322.937.08.449.239.884.361 1.325.245.886.432 1.782.462 2.705-.032.111.001.194.11.244Z"/><path fill="#758DB4" d="M139.206 157.723c.398 3.448.197 6.742.326 10.024.031.787-.027 1.579.029 2.364.052.72-.227 1.065-.908 1.311-3.009 1.084-6 2.215-8.991 3.346-6.588 2.491-13.173 4.992-19.758 7.492-.378.144-.742.322-1.135.495-.261-.367-.144-.744-.145-1.09-.012-3.618.019-7.236-.03-10.854-.011-.795.274-1.125.982-1.403 9.618-3.78 19.225-7.591 28.835-11.392.21-.083.424-.157.795-.293Z"/><path fill="#ECCAA1" d="M80.053 116.542c-.68-2.349-.55-4.727-.284-7.114a15.06 15.06 0 0 0 .08-1.936c-.07-3.724.97-7.187 2.441-10.553.152-.348.353-.663.657-.882 2.438-1.752 4.702-3.731 7.085-5.545 2.894-2.203 5.998-4.143 9.084-6.08 1.393-.874 2.443-2.114 3.767-3.048 1.595-1.124 2.899-2.581 4.281-3.947.766-.757 1.354-1.618 1.734-2.64.337-.903.921-1.7 1.207-2.632 3.303.762 6.461 1.938 9.728 3.296-1.081 1.122-2.031 2.234-3.112 3.2-1.403 1.255-2.829 2.483-4.354 3.61-1.29.953-2.506 2.06-3.644 3.202a22.462 22.462 0 0 1-4.011 3.177c-1.84 1.153-3.656 2.351-5.526 3.455-.732.432-1.37.92-1.874 1.606-.434.59-1.006.904-1.722 1.2-.798.33-1.626 1.015-1.975 1.925-.856 2.236-1.678 4.495-1.462 6.956.053.602-.316.671-.744.769-2.003.462-3.883 1.208-5.577 2.396-3.166 2.22-4.994 5.267-5.654 9.047-.032.181-.083.358-.125.538Z"/><path fill="#B7B7BA" d="M18.859 170.2c4.503 0 9.005-.001 13.508.001.418 0 .836.002 1.253.016.33.012.5.191.501.526 0 .232.013.464.009.696-.064 3.428-.149 6.857-.18 10.285-.008.727-.332.816-.935.815-3.62-.007-7.239.01-10.858.027-5.845.028-11.69.064-17.533.09-.936.004-1.048-.101-1.052-1.006-.017-3.52-.025-7.039-.025-10.559 0-.971.019-.991.978-.992 4.778-.008 9.556-.004 14.334-.004v.105Z"/><path fill="#ED751E" d="M101.847 131.232c.639-1.294 1.779-2.221 2.509-3.458 1.181-2.005 1.826-4.205 2.583-6.379.746-2.14.408-4.154-.299-6.169-.365-1.039-.594-2.117-1.096-3.121-.781-1.561-1.788-2.891-3.261-3.844-.803-.52-1.392-1.319-2.274-1.738-.048-.023-.036-.171-.052-.261 1.357.054 2.613.585 3.93.829.046.008.116.006.132.034.946 1.608 2.771 1.225 4.17 1.769 1.343.522 2.62 1.15 3.879 1.817.454.241.983.241 1.389.592.663.572 1.369 1.08 1.79 1.896.565 1.093 1.416 2.003 1.759 3.254.474 1.727.572 3.362-.65 4.781-1.451 1.685-2.65 3.557-4.133 5.224-1.148 1.292-2.491 2.211-4.012 2.896-2.029.912-4.133 1.625-6.364 1.878ZM111.033 71.177c.009-2.446.152-4.885-.178-7.338-.22-1.634-.011-3.323-.343-4.965-.405-1.998-.106-4.063-.558-6.05-.224-.986-.494-1.974-.877-2.905-.262-.64-.231-1.152.131-1.692.628.68 1.335.66 2.118-.063.383.053.316.371.388.628 1.012 3.64 1.781 7.332 3.259 10.857 1.047 2.496 2.147 5.005 2.819 7.664.406 1.607.997 3.171 1.58 4.727.246.656.421 1.31.531 1.977-.143.211-.325.18-.499.108-2.615-1.084-5.296-1.974-8.019-2.741-.127-.036-.235-.136-.352-.207ZM60.976 40.457c-1.204.02-2.423-.066-3.61.091-1.097.146-1.368-.9-2.13-1.212-.267-.109-.024-.503.093-.745.864-1.788.955-3.733 1.087-5.652.104-1.522.082-3.06.007-4.584a64.564 64.564 0 0 0-.645-6.448c-.315-2.09-.545-4.192-.974-6.268-.168-.814-.009-1.657.26-2.459.41.456.635 1.026.802 1.586 1.24 4.156 3.215 8.038 4.513 12.174.937 2.986 2.134 5.889 2.933 8.919.129.488.602.69.7 1.174-.666.201-1.343.346-1.971.608-1.356.567-1.662 1.435-1.065 2.816Z"/><path fill="#FEEEE1" d="M111.153 32.681c.701.127 1.211-.321 1.78-.592.905-.431 1.256-.376 1.854.286-.412 2.608-1.78 4.82-2.965 7.105-.506.976-1.155 1.894-1.533 2.915-.233.63-.569.615-1.035.605-.983-4.087-1.964-8.175-2.95-12.262-.087-.359-.113-.791-.332-1.05-.816-.96-.32-1.761.148-2.641.594-1.119 1.423-2.047 2.283-2.938.995-1.031 2.107-1.948 3.131-2.952.437-.43.998-.457 1.515-.609.283-.083.493.182.585.471-.514.563-.273 1.33-.548 1.973-1.157 2.713-1.795 5.61-2.963 8.326-.535 1.243-.575 1.547 1.03 1.363Z"/><path fill="#ED751E" d="M37.285 126.27c1.43-1.466 1.906-3.173 1.41-5.182-.243-.989-.123-2.023-.08-3.032.037-.877-.166-1.63-.71-2.302-.293-.361-.664-.754-.635-1.201.11-1.689-.994-2.679-2.01-3.737-.19-.198-.37-.406-.555-.61 1.54-.092 3.033-.064 4.367.93a8.434 8.434 0 0 1 1.573 1.556c2.518 3.186 3.804 6.778 3.248 10.867-.543 3.988-2.809 6.818-6.37 9.042-.04-1.257.272-2.283.151-3.308-.119-1.009-.259-2.016-.39-3.023Z"/><path fill="#ECCAA1" d="M196.435 167.251c-.192-.159-.254-.373-.257-.611-.023-2.576-.399-5.112-.88-7.636-.042-.223-.023-.458-.033-.687l.288-.292c.674-.881 1.257-1.806 1.573-2.887.752-2.566 1.849-5.015 2.573-7.596.252-.9.318-1.812.462-2.714.16-1.004.626-1.974.614-2.956-.017-1.329.254-2.669.03-3.976-.286-1.671-.109-3.418-.811-5.02-.365-.833-.458-1.793-1.16-2.467.029-.284.121-.536.486-.804.731 1.4 1.107 2.895 1.504 4.359a42.511 42.511 0 0 1 1.367 14.537c-.454 5.773-1.989 11.249-4.503 16.456-.378.783-.7 1.603-1.253 2.294Z"/><path fill="#FEEEE1" d="M32.209 43.1c-2.312-3.215-3.335-6.517-2.367-10.377.725.46 1.503.895 2.207 1.426.385.29.925.483 1.09.17.285-.534 1.208-.67.956-1.52-.184-.619-.31-1.257-.52-1.866-.807-2.338-1.04-4.752-1.048-7.204-.005-1.38-.025-1.38.926-2.746.642.586.838 1.399 1.043 2.137.493 1.78 1.535 3.157 2.822 4.422.55.54.965 1.186.462 2.063-.434.758-.708 1.607-1.099 2.393-1.75 3.515-3.028 7.22-4.472 11.101Z"/><path fill="#FEA849" d="M45.885 114.635c-.039.961-.077 1.922-.117 2.881-.876-2.584-2.219-4.882-4.191-6.786-.432-.418-.89-.814-1.367-1.18-1.026-.789-1.017-.807-.414-2.018.883-1.774 1.83-3.516 2.538-5.377.352-.925 1.175-1.608 1.471-2.62.068 1.924.277 3.795.312 5.669.027 1.533.15 3.052.293 4.574.161 1.721.59 3.357 1.475 4.857Z"/><path fill="#ED751E" d="M104.659 27.172c-.087-.156-.257-.319-.247-.469.115-1.666-.407-3.292-.291-4.958.184-2.64-.427-5.22-.609-7.834-.029-.403-.221-.797-.351-1.19-.712-2.14-1.422-4.282-2.147-6.418-.165-.487-.319-.964-.225-1.485 1.385 2.107 2.06 4.527 3.02 6.821.983 2.347 1.744 4.775 2.627 7.157.366.987.779 1.95 1.044 2.975.103.4.112.738-.14 1.037-1.114 1.321-1.711 2.957-2.681 4.364ZM102.87 105.059c-2.982-.685-5.958-1.099-9.16-.876.716-2.349 1.037-4.648 1.592-7.09 2.746 2.574 4.817 5.565 7.568 7.966Z"/><path fill="#ECCAA1" d="M109.254 43c.466.01.802.025 1.035-.605.378-1.02 1.027-1.939 1.533-2.915 1.185-2.286 2.553-4.497 2.964-7.105.351.645.269 1.38.188 2.022-.268 2.121-.574 4.227-1.63 6.18-1.062 1.966-1.887 4.06-2.814 6.098-.054.118-.084.248-.388.303a7391.8 7391.8 0 0 0-.888-3.978Z"/><path fill="#ED751E" d="M27.225 134.339c2.126.342 3.697-.752 5.189-2.022 1.341-1.141 2.38-2.573 3.616-3.817.27 1.429-.004 2.85-.05 4.275-.01.363-.136.607-.491.738-2.636.966-5.336 1.434-8.145 1.055-.049-.006-.08-.149-.119-.229Z"/><path fill="#ECCAA1" d="M111.153 32.681c-1.606.184-1.565-.12-1.03-1.363 1.168-2.716 1.806-5.613 2.963-8.326.275-.644.034-1.41.548-1.973.464 1.418-.013 2.791-.238 4.164-.2 1.222-.657 2.384-1.108 3.54-.501 1.283-.943 2.585-1.135 3.958Z"/><path fill="#758DB4" d="M65.558 89.785c.88.018 1.76.032 2.64.055 1.915.05 3.763-.321 5.592-.886-.838.97-1.965 1.247-3.15 1.39.001-.638-.45-.418-.766-.378-1.45.184-2.89.17-4.316-.181ZM64.158 89.519c.39-.043.776-.068 1.095.226-.404.108-.746-.075-1.095-.226Z"/><path fill="#ED751E" d="M35.978 127.634c-.108-.05-.141-.133-.109-.244.117.046.173.118.11.244Z"/><path fill="#090707" d="M57.472 72.98c1.905 2.08 4.168 2.868 6.713 2.926 1.848.041 3.701.077 5.546-.012 2.466-.118 4.828-.712 6.998-1.938.19-.107.365-.145.486-.003.229.27.297.613.01.871-.411.37-.894.638-1.408.864a19.288 19.288 0 0 1-5.183 1.466c-2.798.38-5.612.651-8.424.037-1.142-.25-2.224-.639-3.17-1.338-.886-.653-1.558-1.446-1.568-2.872Z"/><path fill="#080606" d="M65.657 65.779c1.518.195 3.019.411 4.352 1.257.508.322.594.707.26 1.145-1.138 1.493-2.607 2.467-4.495 2.743-.4.058-.72-.136-1.03-.34-.958-.63-1.532-1.605-2.11-2.538-.389-.63.461-1.964 1.23-2.075.594-.086 1.194-.13 1.793-.192ZM48.29 175.941c.044-.833.143-1.668.12-2.499-.03-1.046-.044-2.115-1.353-2.554-.621-.209-.797-.857-.879-1.472-.193-1.454.353-2.73.996-3.976.134-.261.373-.433.67-.436.888-.01 1.737-.307 2.612-.362 1.804-.114 3.355 1.937 3.083 3.722-.223 1.465-1.205 2.446-1.925 3.566-.518.807-.6 1.508-.428 2.341.366 1.773.621 3.556.57 5.375-.031 1.117-.02 1.118-1.115 1.255-1.648.207-2.143-.146-2.253-1.763-.072-1.061-.013-2.13-.013-3.196l-.085-.001Z"/></g><defs><clipPath id="a"><path fill="#fff" d="M0 0h206v216H0z"/></clipPath></defs></svg>
