<!-- This Source Code Form is subject to the terms of the Mozilla Public
   - License, v. 2.0. If a copy of the MPL was not distributed with this
   - file, You can obtain one at http://mozilla.org/MPL/2.0/. -->
<svg xmlns="http://www.w3.org/2000/svg" height="96" viewBox="0 0 158 98" fill="none"><path fill="#82EBE4" d="M114.484 17.462c2.879-3.001 5.918 2.226 7.176 4.218 2.354 3.727 18.578 29.725 20.077 33.636 1.236 3.227-15.521 31.652-26.911 31.468-1.305-.02-21.08-13.556-20.945-14.893.123-1.204 18.268-51.995 20.603-54.43Z"/><path fill="#FE9F48" d="M79.22 4.229h.225C82.56 8.87 85.01 13.845 87.56 18.82c.536 1.048 1.027 2.712 2.081 3.244.994.502 2.83.276 3.937.36 2.482.191 5.784 1.363 7.549-.588 3.353-3.705 5.725-8.263 9.129-11.975 1.007-1.098 2.619-3.863 4.131-2.278 1.166 1.222.982 5.295 1.208 6.939.083.6-.023 2.13.561 2.511.419.274 1.615-.654 2.353-.26 1.602.85.902 4.04.867 5.373-.029 1.118-.367 2.722-.069 3.8.249.906 1.012 1.408 1.315 2.301.564 1.655-.588 3.418-1.545 4.709-1.316 1.772-1.576 1.964-.329 4.067 1.279 2.157 2.602 4.288 3.818 6.48 1.04 1.875 2.085 2.954.492 4.574-1.617 1.644-3.665 3.017-5.475 4.444a1058.93 1058.93 0 0 1-6.224 4.872c-1.507 1.172-4.766 2.738-5.694 4.406-.856 1.535.596 4.16.996 5.852.481 2.038.601 4.12 1.104 6.143 3.061-4.536 5.003-10.081 8.336-14.39 3.329-4.303 9.994-3.976 14.888-3.952 3.662.016 13.61-1.594 11.608 4.668-1.867 5.834-5.289 10.966-7.652 16.559-.979 2.32 1.021 1.874 2.21 3.77 1.227 1.957 1.672 4.31 1.417 6.594-.252 2.258-1.241 4.72-2.663 6.502-1.591 1.993-3.025 1.609-5.423 1.633-11.775.123-23.557.009-35.331.009-11.817 0-23.634 0-35.451-.004-6.011 0-12.025-.004-18.036-.005-3.11 0-6.219-.004-9.33-.004-2.755 0-5.052.301-7.448-1.171-7.464-4.59-13.542-13.783-13.5-22.73.025-4.874 1.31-10.105 4.127-14.119 1.347-1.92 3.046-3.925 5.045-5.192 1.77-1.12 3.538-1.18 5.096-2.64 3.465-3.244 6.754-6.202 11.128-8.206 2.323-1.065 4.37-1.807 6.905-2.139 1.986-.259 3.878.214 5.778.063.944-.075.586-.868 1.866-.434.924.314 1.082.736 1.296 1.624.496 2.076-.344 4.951-.427 7.095-.222 5.735-.378 11.541-.059 17.272l.276.052c.34-1.506 1.347-2.547 2.405-3.59 1.415-1.395 1.681-2.149 2.6-.192 1.515 3.227 3.323 6.111 5.39 9.018 1.34 1.885 1.55 2.587 3.362.84 1.639-1.579 3.157-3.31 4.731-4.951 1.437-1.499 2.873-2.993 4.314-4.488 1.683-1.749 1.738-1.703-.033-3.192-3.09-2.602-6.12-5.266-9.151-7.936-1.191-1.048-2.431-1.69-2.424-3.34.01-1.727 1.12-3.81 1.707-5.42 1.18-3.252 3.636-7.31 3.033-10.786-.231-1.335-1.378-3.668-.268-4.865 1.119-1.208 2.15-.3 3.165.546.092-.065.184-.127.276-.191-1.264-3.566-2.855-7.134-2.322-11.01.672-4.893 3.623-2.152 5.945.005 1.055-3.381 1.771-8.055 4.064-10.857l.005-.011Z"/><path fill="#EC7522" d="M66.98 37.508c1.12-3.204 1.969-5.16 1.208-8.467-.281-1.226-1.053-3.171.465-3.92 1.302-.641 1.874.727 2.996.936-1.133-3.614-2.785-7.099-2.31-10.991.613-5.014 3.558-2.37 5.957-.118 1.169-3.727 2.157-7.448 4.07-10.864h.224c3.275 4.819 6.27 10.05 8.675 15.369 1.356 2.999 2.115 2.574 5.45 2.833 2.713.21 5.893 1.385 7.747-.902 1.824-2.251 3.305-4.807 5.052-7.125a56.396 56.396 0 0 1 2.895-3.538c.794-.895 2.08-2.92 3.153-3.423 2.96-1.394 2.625 3.416 2.921 5.442.395 2.703.116 4.082-1.479 6.345-3.04 4.312-7.435 4.858-12.313 5.615-5.965.927-11.81 1.898-17.396 4.28-5.424 2.314-8.773 5.45-11.734 10.523-3.203 5.485-2.718 9.512-.737 15.346-1.602-1.227-3.081-2.615-4.597-3.944l-4.022-3.836 3.78-9.56h-.006ZM32.394 55.308c-.575 4.26-1.485 8.173-1.16 12.522.274 3.648 1.042 7.282 2.131 10.772 1.713 5.483 5.238 13.108 10.677 15.897.67.344 1.453.548 2.3.66l44.482.081c.42 0 .807-.222 1.016-.586.952-1.648 2.376-4.345 3.125-5.72 1.715-3.144 3.438-6.283 5.148-9.427 1.139-2.094 3.882-5.746.325-6.91-2.526-.827-22.667-12.52-22.667-12.52-2.747.19-13.707 12.108-15.49 14.02L32.394 55.309ZM120.521 81.82c6.063-9.377 15.798-3.028 16.61-1.877 1.516 2.147 1.984 5.214 1.446 7.739-.349 1.634-2.809 5.721-4.114 6.852-.42.364-.852.71-1.407.71h-9.963s-7.533-3.31-2.572-13.422v-.002Z"/><path fill="#FEA902" d="M91.844 94.874c2.675-5.041 5.381-10.068 8.014-15.134.749-1.443 2.798-4.04 2.373-5.718-.692-2.741-3.854-1.737-5.621-1.03-2.181.874-4.323 1.62-6.4 2.724-.9.478-1.732 1.02-2.595 1.542-1.239.75-.912.863-1.902.09-1.367-1.066-2.464-4.002-3.187-5.575a27.359 27.359 0 0 1-2.22-7.45c-.193-1.309.09-3.53-.79-4.59-.174-.212-1.442-.771-1.79-1.029-.844-.625-1.671-1.347-2.513-1.996-3.486-2.692-5.16-6.149-4.738-10.672.428-4.586 3.704-9.256 6.877-12.455 3.476-3.506 8.424-5.275 13.063-6.65 5.52-1.639 11.265-1.793 16.803-3.244 2.353-.616 4.501-1.353 6.167-3.208.375-.418 2.602-4.36 2.885-4.185 1.479.91 1.497 18.729 1.497 18.729.588 1.108 6.566 10.188 6.325 11.487-.248 1.335-1.242 1.904-2.346 2.867-2.855 2.486-5.917 4.755-8.905 7.079-1.534 1.195-3.068 2.392-4.633 3.545-1.801 1.324-2.55 1.4-2.043 3.613.364 1.586.902 3.13 1.244 4.729.356 1.67.308 3.38 1.148 4.861l-.018-.02c-3.061 7.586-8.505 14.104-11.566 21.694h-5.127l-.002-.004Z"/><path fill="#F1ECF0" d="M20.981 51.773c1.497-.837 6.798-4.667 8.06-5.814 2.706-2.458 5.748-4.354 9.195-5.564 3.285-1.153 17.248-4.174 14.46.61.405 7.726-15.47 35.656-17 33.026-2.086-3.583-5.658-11.784-6.117-12.988-5.42 6.536-6.063 11.951-6.246 18.144-3.491-3.986-4.042-7.112-4.5-8.92-1.66 3.387-2.85 11.553 2.335 20.28-2.473-1.231-4.655-5.031-6.066-7.332-6.098-8.382-4.444-24.378 5.88-31.444l-.001.002Z"/><path fill="#FEEEE2" d="M123.705 47.735c-5.477 4.532-10.99 9.48-17.134 13.106-.911.537-2.607.336-3.136 1.305-.544.995.748 9.767.184 10.665-2.021 0-3.813-.333-4.878-.368-1.192-.039-2.824.702-4.01 1.002-3.025.765-5.303 2.484-7.717 4.392-2.686 2.124-5.201 4.443-7.498 6.985-2.282 2.53-4.108 5.697-6.696 7.921-.827-2.449.213-6.376.584-8.902.446-3.038 1-6.055 1.743-9.036.69-2.761 1.437-5.54 2.286-8.255.422-1.353.964-2.605 1.525-3.903.744-1.72 1.183-.754-.325-1.973-4.474-3.617-9.703-7.44-13.798-11.542-1.233-1.233-1.225-1.248.129-2.373 1.012-.842 2.245-1.537 3.382-2.194 2.218-1.278 4.542-2.206 6.983-2.956 2.436-.749 4.5-.997 6.978-.793 1.653.136 5.695 1.471 5.695 1.471 1.47-2.758 1.617-2.774 2.021-3.31.739-.976 1.753-1.87 2.756-2.574 2.214-1.555 5.122-2.083 7.799-1.356 1.85.501 5.014 2.325 6.164 3.93 1.33 1.858 1.102 3.862 2.572 3.31 1.229-.246 2.581-.614 3.878-.55 1.183.061 2.58.773 3.655 1.232a25.795 25.795 0 0 1 6.858 4.317v.449ZM116.303 29.584a702.74 702.74 0 0 1-.234-7.584"/><path fill="#E0AF70" d="M52.952 64.478c.31-1.506 1.321-2.56 2.372-3.604 1.356-1.346 1.666-1.818 2.642-.09.837 1.482 1.54 3.035 2.344 4.534.913 1.699 2.317 3.036 3.26 4.696 1.034 1.822.387 2.118-1.063 3.558-.468.465-2.752 2.645-2.981 3.284-.199.551-4.41-3.494-5.84-5.717.144 2.04 1.144 4.814 1.798 6.636-2.19-.285-8.815-4.672-11.207-9.745-1.47 2.942-1.47 11.216-1.47 14.158-6.981-4.597-10.656-14.526-11.575-17.284.184-2.758.735-6.987 1.535-9.618-1.503.736-3.74 2.815-7.035 7.342.882-10.532 14.32-22.545 27.023-23.419 1.356-.094.199 5.134.127 6.327-.37 6.257-.37 12.543-.37 18.817l.438.127.002-.002ZM72.175 93.655c.466-6.196 1.124-12.407 2.75-18.421.77-2.85 1.433-5.775 2.372-8.574.439-1.309 3.046-4.955 1.246-5.946 1.517.353 1.087 1.31 1.027 2.594-.083 1.743.114 3.431.586 5.112.997 3.552 3.158 6.378 4.631 9.693.728 1.638.502 1.412-.946 2.68-1.396 1.222-2.7 2.544-3.952 3.914-2.645 2.895-5.089 5.975-7.541 9.033-.058-.028-.116-.055-.173-.085ZM72.033 25.953c-.84-2.613-1.999-5.19-2.285-7.942-.138-1.318-.535-5.352 1.233-5.968 1.844-.641 4.04 3.812 4.743 5.014 1.237 2.11 2.74 3.836 2.065 6.342-.709 2.633-1.977 5.223-2.95 7.772-.528 1.382-1.51 4.133-2.453 4.315-.428.083-3.728-5.637-4.012-7.21-.225-1.242-.722-2.577-.213-3.087.624-.625 2.403-.196 3.628.872l.244-.108ZM72.384 54.731c-1.378-1.07-2.745-2.133-4.055-3.29-.902-.795-3.387-2.32-3.812-3.392-.501-1.266.823-1.601 1.918-2.292 1.303-.826 2.79-2.144 4.31-2.486-.092 1.837-.446 3.747-.323 5.584.14 2.098 1.23 3.96 1.947 5.889l.013-.013h.002Z"/><path fill="#634FCE" d="M122.726 95.216c-5.826 0-10.917.017-16.743.011-1.525 0-8.003-.014-9.53-.01-.68 0 16.365-30.428 19.559-35.137 2.92-4.303 8.492-4.367 13.199-4.477 2.693-.063 12.805-1.572 13.656 1.853.562 2.261-1.152 5.23-1.99 7.125-.65 1.472-6.472 12.482-6.309 13.277.182.888-2.157-.344-4.494-.66-2.831-.383-6.56.728-8.451 2.758-1.596 1.713-3.02 6.578-2.757 8.834.553 4.771 3.891 6.356 3.86 6.426Z"/><path fill="#B4FEE3" d="M96.567 95.058c3.238-7.24 7.307-14.095 11.251-20.97 1.996-3.476 4.004-6.948 6.015-10.414 1.208-2.08 3.552-7.9 6.87-7.167-.671 3.049-3.223 6.334-4.705 9.092-1.753 3.258-3.508 6.516-5.264 9.773-3.54 6.562-7.079 13.124-10.615 19.688h-3.55l-.002-.002Z"/><path fill="#2E2C7E" d="M138.158 62.102c-.492.967-1.019 3.163-2.368 3.462-1.925.429-1.94-1.084-1.707-2.226.467-2.284 3.245-5.102 3.781-1.357.098.04.197.079.294.12v.001Z"/><path fill="#000" d="M142.18 55.446c-.397-.22-.737-.546-1.242-.93-.777.05-1.738.153-2.701.164-3.987.047-7.975.023-11.962.115-1.953.044-3.937.109-5.844.482-1.909.373-3.485 1.545-4.821 2.98-.024.026-.037.065-.055.098-1.903 3.299-3.81 6.593-5.708 9.896-.438.759-.838 1.539-1.343 2.469-1.09-2.918-1.101-5.96-2.407-8.655.105-.117.184-.25.299-.332 2.231-1.593 4.48-3.16 6.693-4.775 2.181-1.594 4.329-3.233 6.486-4.86 1.964-1.482 3.986-2.903 5.504-4.942-.164-.664-.189-1.381-.503-1.934-1.059-1.863-2.231-3.663-3.34-5.498-.877-1.449-1.724-2.916-2.516-4.26.763-1.249 1.512-2.352 2.133-3.523.989-1.864.645-4.234-.757-5.76.355-2.332.673-4.674.204-7.063-.446-2.274-1.287-3.228-3.512-3.627-.057-.232-.14-.477-.179-.729-.231-1.57-.409-3.15-.685-4.71-.297-1.677-.545-3.413-2.456-4.417-.379.247-.884.475-1.255.839-.709.699-1.293 1.524-2.014 2.212-3.167 3.032-5.686 6.604-8.407 10.008-.786.983-1.55 1.983-2.309 2.958-3.336-.114-6.609-.947-9.927-.287-1.08-2.456-2.173-4.89-3.227-7.343-1.338-3.117-3.199-5.923-5.075-8.723-.553-.827-1.291-1.412-2.408-1.67-.197.245-.484.486-.625.795a445.219 445.219 0 0 0-2.91 6.477c-.309.7-.56 1.429-.834 2.131-.612-.496-1.108-1.02-1.707-1.366-1.835-1.063-3.408-.329-3.972 1.456-.24.765-.327 1.6-.364 2.407-.116 2.514.41 4.931 1.207 7.3.132.393.237.796.379 1.274-1.643-.316-2.537.092-2.848 1.373a7.703 7.703 0 0 0-.178 2.633c.106.945.431 1.876.746 2.784.244.708.224 1.333-.054 2.03a696.42 696.42 0 0 0-3.67 9.412c-.654 1.71-1.253 3.438-1.91 5.244l13.48 12.127-11.315 10.806c-.105-.121-.237-.246-.336-.393-1.457-2.192-2.934-4.37-4.35-6.588-.815-1.274-1.55-2.587-1.97-4.078-.158-.56-.796-.982-1.226-1.48-1.626 1.057-2.384 2.644-3.602 4.019 0-1.993.013-3.837-.002-5.68-.035-4.008.18-8.003.584-11.991.19-1.868.307-3.746.45-5.51-.841-.604-2.004-.918-3.628-1.032-5.527-.392-10.748.713-15.56 3.443-3.968 2.253-7.705 4.849-10.626 8.221-1.462.688-2.925 1.144-4.106 1.991-1.514 1.085-2.988 2.266-4.125 3.825-1.605 2.199-3.051 4.446-3.882 7.073-1.51 4.771-1.817 9.583-.637 14.455 1.335 5.516 3.933 10.348 8.173 14.164 1.746 1.57 3.76 2.842 5.652 4.249h3.353c-3.339-2.135-6.63-4.3-9.32-7.296-3.025-3.368-4.932-7.288-6.025-11.61-.861-3.404-.828-6.857-.13-10.329.937-4.659 2.987-8.647 6.566-11.815.388-.342.73-.735 1.108-1.088.195-.182.42-.33.632-.491l.169.141c-1.553 1.894-2.473 4.062-2.936 6.483.345-.064.645-.176.823-.388.382-.452.717-.948 1.05-1.441 2.996-4.444 6.277-8.603 10.772-11.692 4.105-2.819 8.365-5.215 13.407-5.79 1.91-.219 3.843-.281 5.768-.346.524-.018 1.055.214 1.615.337-.042.566-.068 1.005-.108 1.443-.272 2.955-.66 5.904-.79 8.866-.158 3.611-.092 7.23-.14 10.846-.024 1.808.076 3.604.59 5.345.184.62.377 1.306 1.34 1.438.132-.449.291-.888.389-1.34.457-2.157 1.224-4.152 2.95-5.788 1.74 4.153 4.18 7.772 6.859 11.22-1.718 2.056-3.539 4.158-5.27 6.328-2.013 2.526-3.93 5.13-5.928 7.667-1.172 1.487-2.429 2.907-3.64 4.367-.295.356-.685.722-.148 1.4 9.36-10.731 18.588-21.502 29.26-30.975l1.645 1.232c-.64 1.434-1.293 2.765-1.83 4.142-.54 1.381-1.038 2.788-1.427 4.218a118.38 118.38 0 0 0-3.732 20.913c-.082.943-.39 1.864-.534 2.804-.048.305.09.638.143.96l.27.05c.211-.236.441-.457.632-.709.629-.823 1.227-1.67 1.869-2.485 3.865-4.926 8.02-9.58 12.899-13.536 2.825-2.293 5.895-4.158 9.516-4.9 1.224-.25 2.49-.502 3.723-.453 3.299.13 5.102 1.89 5.57 4.075-.265.433-.575.947-.917 1.507-2.155-2.664-6.99-3.73-8.078-1.75.419 0 .77.01 1.12-.002.63-.02 1.263-.11 1.889-.073 2.146.13 3.84 1.318 4.371 3.017-1.216 2.158-2.458 4.313-3.652 6.496-1.637 2.991-3.236 6.003-4.85 9.007h1.117c1.026-2.043 1.984-4.124 3.095-6.119 2.096-3.76 4.29-7.465 6.425-11.203a916.56 916.56 0 0 0 4.514-8.009c1.786-3.2 3.553-6.407 5.328-9.612.858-1.552.972-1.65 3.702-3.082-.114.327-.158.552-.267.741-1.839 3.22-3.705 6.42-5.522 9.651-1.801 3.2-3.552 6.428-5.323 9.644-2.809 5.104-5.632 10.2-8.412 15.32-.456.838-.726 1.776-1.082 2.67h.894c.807-1.623 1.558-3.275 2.429-4.86 3.487-6.34 7.009-12.661 10.526-18.986 2.469-4.442 4.971-8.866 7.415-13.323.497-.908 1.185-1.245 2.153-1.258 5.262-.073 10.525-.156 15.787-.248.625-.01 1.247-.105 2.061-.176.812.474 1.128 1.496 1.531 2.35-1.477 3.206-2.989 6.334-4.367 9.518-1.373 3.172-3.543 5.948-4.529 9.385-.296-.118-.559-.225-.823-.326-2.954-1.145-5.898-1.12-8.701.371-.948.504-1.821 1.332-2.458 2.207-1.726 2.375-2.911 5.003-2.982 8.014-.055 2.338.588 4.395 2.43 5.97.5.429.956.909 1.43 1.365h1.563c-.455-.362-.915-.719-1.365-1.087-2.296-1.875-3.525-4.138-3.028-7.301 1.513.287 3.025.572 4.537.86.437.085.872.175 1.308.27.485.107.865-.003 1.146-.543-2.172-.912-4.536-.876-6.794-1.517.289-1.52.865-2.79 1.545-4.018.107-.193.268-.36.366-.557.687-1.38 1.236-1.93 3.505-1.337 1.262.331 2.447.844 3.443 1.74.43.386.937.785 1.565.083-1.666-1.646-3.634-2.62-5.974-3.218.505-.236.988-.548 1.519-.69 3.054-.816 5.923-.463 8.595 1.34 1.976 1.336 2.739 3.27 3.038 5.513.394 2.94-.2 5.665-1.784 8.143-.545.853-1.333 1.549-2.011 2.317h2.682c2.818-3.569 3.722-7.588 2.772-12.015-.294-1.37-.705-2.73-1.732-3.766-.542-.546-1.169-1.008-1.81-1.55.12-.318.197-.596.322-.851.984-2.032 1.999-4.05 2.965-6.09 1.255-2.646 2.46-5.312 3.713-7.958.533-1.123 1.341-2.116 1.532-3.4.068-.453.254-.891.428-1.476-.301-1.092-1.023-2.017-2.157-2.644l-.003-.01Zm-25.1-38.115c1.501.804 1.874 2.297 1.977 3.75.095 1.347-.179 2.731-.392 4.085-.088.558-.439 1.077-.736 1.768.382.33.854.642 1.203 1.058.478.57.79 1.21.569 2.031-.358 1.337-.902 2.552-1.809 3.554-.68-.106-.783-.538-.803-1-.094-2.19-.141-4.38-.274-6.567-.112-1.854-.316-3.7-.479-5.55-.043-.48-.098-.961-.125-1.441-.042-.719.185-1.31.871-1.69l-.002.002Zm-48.552 8.346c2.03.218 2.686 2.028 4.021 3.107.15-.121.335-.274.58-.474-.56-1.583-1.052-3.176-1.68-4.713a22.623 22.623 0 0 1-1.64-7.341c-.065-1.139.036-2.293.808-3.244.974-.004 1.72.418 2.254 1.109.744.96 1.422 1.975 2.078 2.999.913 1.423 1.782 2.875 2.675 4.328-1.231 4.703-2.918 9.142-5.36 13.472-2.127-2.8-4.348-5.366-3.736-9.241v-.002ZM102 72.222c-3.878-.654-7.424.401-10.777 2.22-5.008 2.717-8.888 6.784-12.703 10.899-1.864 2.011-3.575 4.164-5.357 6.253a1.07 1.07 0 0 1-.452.337c1.329-10.017 2.434-20.066 6.868-29.433 1.644.67 2.65 2.386 4.628 2.267.119-.214.255-.453.48-.852-7.363-4.793-13.793-10.633-20.155-16.538 4.124-3.626 12.736-8.09 23.149-4.777-.08.517-.18.989-.217 1.467-.283 3.578.841 5.943 4.314 7.829 2.87 1.56 5.903 2.153 9.144 1.534.582-.113 1.197-.09 1.76-.26.531-.162 1.008-.493 1.51-.75l-.098-.294c-.262.018-.525.024-.786.059-1.472.2-2.936.522-4.411.592-2.95.138-5.57-.815-8.023-2.48-1.797-1.221-2.455-2.88-2.565-4.882-.062-1.136-.01-2.278-.01-3.5-8.366-2.888-16.13-1.35-23.352 3.937 1.268-4.37 2.756-8.562 4.643-12.697 1.063.95 1.451 2.539 3.127 2.719 1.075-1.48 1.916-3.127 2.603-4.843.867-2.16 1.66-4.352 2.453-6.542.264-.73.518-1.485.61-2.25.066-.554-.01-1.206-.256-1.696-.562-1.116-1.278-2.154-1.909-3.238-.259-.444-.455-.926-.692-1.419 1.177-3.31 2.179-6.67 3.878-9.877 1.8 2.565 3.548 4.988 4.725 7.772a277.988 277.988 0 0 0 3.322 7.49c.29.633.742 1.192 1.19 1.896.855 0 1.76.02 2.668-.003 3.188-.081 6.346.189 9.497.66 1.051.156 2.131.128 3.198.149.342.005.687-.11 1.209-.203-.808-1.55-2.204-1.49-3.68-1.78 1.97-2.485 3.792-4.878 5.716-7.185 1.94-2.33 3.979-4.575 6.14-7.046.263.97.558 1.747.678 2.55.496 3.373 1.071 6.743 1.363 10.135.347 4.01.487 8.04.604 12.065.045 1.54.427 2.846 1.272 4.143 1.74 2.666 3.338 5.422 4.984 8.149.322.533.588 1.101.985 1.853-1.685-1.123-3.12-2.159-4.632-3.065-1.139-.684-2.366-1.226-3.575-1.789-1.927-.897-3.849-.462-5.761.09-.245.07-.484.167-.757.263-.741-2.054-1.74-3.896-3.467-5.198.466-1.995.228-3.047-.858-3.313a1.086 1.086 0 0 0-1.253.62c-.134.305-.278.63-.428.974-3.58-1.2-7.097-1.208-10.515 1.287.157-1.002.282-1.886.002-2.682a1.072 1.072 0 0 0-1.084-.72c-.577.043-.902.322-1.142.918-.655 1.616-.465 2.48.766 3.425-.757 1.105-1.727 2.104-2.014 3.466l.285.142c.297-.366.615-.719.885-1.103 1.318-1.872 3.034-3.214 5.172-4.05 2.023-.793 4.077-.837 6.089-.152 3.534 1.205 5.899 3.602 6.841 7.27.406 1.578.206 3.165-.099 4.739-.066.345-.13.693-.07 1.064 1.492-1.678 1.143-3.75 1.228-5.869 1.539-.61 3.191-1.173 4.874-.711 3.342.919 6.103 2.932 9.011 5.157-3.917 2.966-7.729 5.812-11.495 8.717-3.737 2.883-7.799 5.268-11.828 7.732 1.268.35 2.07-.622 3.311-.89.161 3.153.323 6.277.49 9.515-.417-.09-.828-.197-1.246-.267H102Zm4.821 3.396c-.932-.97-1.867-1.947-2.795-2.916.208-1.006-.123-2.127-.106-3.245.016-1.147-.11-2.298-.175-3.448l-.2-3.603.656-.337c.108.178.219.289.25.42.61 2.469 1.218 4.938 1.808 7.413.22.926.332 1.882.615 2.787.132.42.557.747.932 1.221-.35.605-.695 1.204-.983 1.706l-.002.002Z"/><path fill="#000" d="M135.61 66.118c.648-.401 1.363-.84 1.769-1.45.842-1.262 1.104-2.731.985-4.213-1.297-1.14-2.649-1.102-3.596.17-.453.611-.786 1.352-1.006 2.084a7.023 7.023 0 0 0-.27 2.184c.027 1.087 1.332 1.708 2.118 1.223v.002Zm.568-5.711c1.267.265 1.427.548 1.185 1.732-.197.962-.465 1.875-1.165 2.598-.463.476-.983.802-1.802.364-.239-1.916.549-3.394 1.782-4.694ZM105.02 43.475c-1.1.976-2.379 1.33-3.713 1.375-3.038.105-5.645-.897-7.665-3.241-.328-.383-.677-.69-1.387-.331.388.531.688 1.084 1.117 1.504 2.459 2.383 5.47 3.105 8.795 2.85.897-.068 1.782-.138 2.473-.813.342-.335.656-.682.38-1.34v-.004ZM99.05 40.009c.624.56 1.33.601 2.031.112.682-.474 1.331-.973.925-2.092-1.509-.418-2.982-1.27-4.562-.024.128 1 .972 1.434 1.607 2.004h-.002Z"/></svg>
