<!-- This Source Code Form is subject to the terms of the Mozilla Public
   - License, v. 2.0. If a copy of the MPL was not distributed with this
   - file, You can obtain one at http://mozilla.org/MPL/2.0/. -->
<svg xmlns="http://www.w3.org/2000/svg" height="96" viewBox="0 0 216 185" fill="none"><g clip-path="url(#a)"><path fill="#090707" d="M89.88.603c.482.293.94.638 1.45.864.438.193.726.478.93.882.184.36.33.742.788.868.102.028.174.198.24.314 1.308 2.238 2.431 4.568 3.427 6.958.74 1.775 1.31 3.616 2.084 5.381.77 1.759 1.19 3.648 1.888 5.43.778 1.985 1.358 4.03 2.017 6.05.122.374.324.546.721.575 1.357.1 2.7.322 4.047.5.782.102 1.573.143 2.344.345.284.074.41-.065.519-.332a38.392 38.392 0 0 1 3.452-6.544c.783-1.195 1.297-2.525 2.01-3.757 1.134-1.958 2.069-4.033 3.232-5.972 1.51-2.517 2.898-5.12 4.967-7.275.643-.67 1.12-1.514 1.779-2.199.379-.393.802-.723 1.241-1.038.403-.29.714-.173 1.059.172 1.164 1.164 1.964 2.562 2.645 4.03.825 1.78 1.672 3.556 2.353 5.391.442 1.188.821 2.42 1.021 3.775.414-.193.76-.317 1.09-.576 1.29-1.01 2.495-.734 3.376.688.353.569.52 1.165.525 1.825.014 1.747-.213 3.433-1.172 4.952-.207.328-.06.464.311.514 1.102.147 1.653.853 1.911 1.89.275 1.106.137 2.196.054 3.304-.092 1.227-.649 2.323-.852 3.51-.06.346-.392.456-.51.739-.472 1.134-1.231 2.139-1.516 3.36-.033.142-.037.228.022.36.709 1.58 1.166 3.241 1.547 4.923.241 1.062.654 2.056 1.04 3.068.771 2.019 1.467 4.068 2.168 6.113.416 1.213.729 2.462 1.189 3.657.314.817.261 1.734.795 2.497.173.247-.135.662-.435.797-.358.16-.516.4-.6.75-.03.127-.097.273-.194.35-1.03.812-1.764 1.916-2.787 2.747-.674.547-1.231 1.252-1.921 1.795-2.228 1.753-4.135 3.91-6.597 5.358-1.606.945-3.085 2.082-4.718 2.979a2.857 2.857 0 0 0-.905.737c.555.62 1.102 1.227 1.647 1.837.242.272.566.353.906.409 1.793.296 3.435.985 5.067 1.772 1.189.574 2.433 1.04 3.544 1.763 2.418 1.574 3.889 3.829 4.592 6.592.164.648-.054 1.35.114 2.053 1.063-.072 2.106-.129 3.147-.215.984-.082 1.296.191 1.424 1.147.321 2.385.288 4.78.264 7.176-.003.3-.085.611.122.96 3.768.152 7.304 1.448 10.866 2.635 2.348.782 4.683 1.6 6.867 2.786.259.141.441.205.695-.066.358-.381.899-.441 1.383-.584 1.89-.558 3.842-.824 5.764-1.234 3.154-.673 6.332-1.18 9.55-1.429 4.303-.332 8.537-.007 12.649 1.357 2.31.766 4.395 1.936 6.072 3.757 2.075 2.252 2.663 4.875 1.981 7.811a12.434 12.434 0 0 1-1.405 3.472c-.113.194-.3.378-.21.677 3.362.567 6.251 2.121 8.659 4.508 2.505 2.484 4.165 5.5 5.112 8.89.611 2.19 1.096 4.41 1.092 6.705l.005 4.3c-.028 1.973-.337 3.91-.745 5.834-1.008 4.766-2.724 9.265-5.069 13.535-2.433 4.431-5.467 8.401-9.146 11.856a36.78 36.78 0 0 1-10.631 7c-2.712 1.176-5.378 1.268-8.092.264-.516-.191-.728-.127-.982.249-.991 1.465-2.472 2.306-4.011 3.02-3.004 1.394-6.176 2.186-9.483 2.434-3.894.293-7.723-.04-11.466-1.177-2.447-.743-4.734-1.822-6.759-3.405-.575-.45-1.103-.958-1.738-1.514-.039.374-.059.631-.093.887-.384 2.867-1.772 4.962-4.521 6.125-2.255.955-4.53.844-6.762.177-4.07-1.216-7.34-3.588-9.659-7.193-.071-.111-.114-.25-.294-.224-.267.248-.536.501-.807.751-2.425 2.239-5.257 3.788-8.338 4.917-3.045 1.116-6.131 2.068-9.383 2.373-.841.078-1.674.252-2.516.315-2.502.186-5.006.103-7.509-.027-2.066-.353-4.157-.576-6.184-1.139-2.689-.747-5.283-1.722-7.623-3.276-1.6-1.062-2.981-2.344-3.996-3.997-.43-.7-.678-1.475-1.04-2.258-1.03.601-2.081 1.138-3.204 1.528-1.902.662-3.868 1.034-5.858 1.247-2.837.303-5.684.339-8.538.173a65.017 65.017 0 0 1-9.576-1.27c-3.966-.831-7.822-1.981-11.455-3.796-1.861-.929-3.589-2.057-4.93-3.684-.322-.389-.596-.817-.946-1.301-.78 1.116-2.03 1.135-3.165 1.307-3.838.581-7.58.1-11.208-1.251-4.3-1.601-8.016-4.104-11.188-7.401-4.29-4.458-7.113-9.726-8.34-15.785-.762-3.757-.81-7.551.19-11.296 1.818-6.804 6.98-11.954 14.36-13.166 2.386-.393 4.76-.3 7.13.123.168.03.336.056.505.072.064.006.13-.021.281-.048-.288-1.022-.597-2.038-.68-3.101-.302-3.855.712-7.383 2.67-10.668 2.027-3.404 4.72-6.172 7.976-8.434 3.482-2.419 7.274-4.032 11.458-4.73 4.154-.69 8.178-.34 12.014 1.496.307.147.504.197.79-.069 1.315-1.215 2.518-2.537 3.752-3.83.397-.414.819-.805 1.226-1.211.293-.292.602-.565.143-.995-.16-.15-.166-.452-.305-.637-1.285-1.707-.941-3.554-.346-5.34 1.17-3.51 3.6-5.908 6.923-7.467a16.276 16.276 0 0 1 6.997-1.56c1.96.004 3.948.087 5.74 1.09.295.165.617.322.96.31.29-.009.582.476.77.153.247-.424 1.015-.462.86-1.131-.106-.466.575-.785.257-1.191-.234-.3-.676-.431-1.01-.66a48.287 48.287 0 0 1-6.726-5.562c-.962-.95-2.046-1.784-3.077-2.665-1.3-1.111-2.283-2.502-3.48-3.701-.856-.858-1.64-1.789-2.46-2.684-.325-.354-.67-1.687-.53-2.156.533-1.776 1.182-3.512 1.84-5.244.874-2.306 1.87-4.571 2.641-6.91.753-2.285 1.829-4.42 2.756-6.622.417-.989 1.02-1.9 1.554-2.838.171-.302.323-.596-.183-.643-.304-.028-.382-.221-.5-.411-1.16-1.87-1.609-3.919-1.455-6.097.03-.43.203-.857.355-1.269.485-1.315 1.065-1.667 2.455-1.51.16-.33-.139-.552-.219-.815-.502-1.656-.433-3.351-.357-5.043.05-1.116.73-1.949 1.416-2.747.372-.432.966-.53 1.403-.265.893.542 1.86 1.083 2.04 2.284.06.408.253.741.581 1.167.646-1.562 1.338-2.991 1.827-4.487.561-1.714 1.34-3.328 2.007-4.993.897-2.24 2.226-4.24 3.457-6.295.293-.489.732-.89 1.104-1.332h.204Zm53.625 136.544c-.16-.002-.191.121-.229.237-1.609 2.206-3.453 4.199-5.638 5.834-5.366 4.014-11.334 6.631-18.007 7.561-.251.035-.597-.125-.839.209 2.639 1.837 5.505 3.042 8.52 3.881 5.625 1.566 11.346 1.943 17.154 1.34 5.863-.609 11.448-2.148 16.729-4.763 1.06-.525 2.069-1.151 3.109-1.717.217-.119.445-.365.72-.067.228.248.293.48.139.82-.434.955-.792 1.945-1.245 2.89-.216.45-.328.881-.272 1.365-.117.197-.137.491.121.443 1.022-.189 2.046-.402 3.039-.706 4.271-1.308 8.322-3.116 12.091-5.515.967-.616 1.951-1.238 2.735-2.109 1.5-1.667 2.321-3.652 2.713-5.822.451-2.494.392-5.003-.034-7.492-.29-1.699-.594-3.404-1.298-5-.329-1.538-.978-2.962-1.618-4.381-3.331-7.389-8.096-13.726-14.2-19.046-1.395-1.216-2.762-2.469-4.522-3.245-4.234-1.867-8.551-3.455-13.08-4.437-.563-.122-1.126-.262-1.696-.337-.949-.126-1.285.175-1.303 1.112-.058 2.918-.119 5.836-.163 8.754-.08 5.261-.115 10.523-.235 15.783-.072 3.179.202 6.389-.66 9.516l.007.01c-.125.05-.12.146-.089.251-.275 1.158-.742 2.239-1.291 3.29-.183.349-.496.642-.502 1.074l-.016.054c-.138.013-.193.085-.156.222l.016-.009Zm-41.871-70.531.224.03c1.045.256 2.098.267 3.16.132.231-.03.562-.19.561.277a13.773 13.773 0 0 1-3.346.23c-3.385-.17-6.254-1.455-8.505-4.006-2.404-2.725-3.176-6.577-1.154-9.993.07-.119.146-.227.035-.291-3.875-1.962-7.959-2.673-12.254-2.108-4.257.56-8.085 2.116-11.45 4.854 1.133.81 2.058 1.736 2.957 2.687.815.862 1.577 1.776 2.433 2.593.856.817 1.778 1.57 2.71 2.302 1.307 1.026 2.436 2.246 3.7 3.32 1.012.86 2.095 1.605 3.148 2.4.673.507 1.336 1.027 2.11 1.378.443.202.527.472.416.966-.322 1.43-.837 2.79-1.412 4.127-.217.505-.103.825.233 1.218 1.35 1.579 2.235 3.393 2.58 5.448.11.66.135 1.333.21 2.115a24.64 24.64 0 0 0 3.95-1.228c.755-.307 1.107-.796 1.278-1.617.317-1.525.804-3.014 1.22-4.518.223-.802.704-1.454 1.53-1.55.815-.096 1.498.347 1.94 1.076.105.17.154.365.338.496.715.512 1.104 1.271 1.49 2.028.264.513.506 1.037.775 1.548.226.43.514.813 1.033.907.634.115 1.269.28 1.907.3 1.772.057 3.508.344 5.242.681.92.18 1.292.735 1.009 1.653-.088.287-.272.543-.395.82-.101.228-.387.387-.279.712.958 0 1.909.011 2.859-.004.707-.011.735-.028.703-.744-.114-2.523.532-4.833 1.89-6.954.729-.848 1.461-1.693 2.416-2.307 2.375-1.526 4.949-2.311 7.792-2.11.099.007.195-.003.284-.159-.456-.683-.916-1.401-1.407-2.097-.245-.348-.216-.83.14-.837.907-.016 1.226-.721 1.717-1.246.183-.196.38-.391.603-.536.738-.48 1.494-.93 2.238-1.4 1.542-.975 3.166-1.842 4.519-3.08a97.46 97.46 0 0 1 5.081-4.34c1.335-1.063 2.547-2.276 3.684-3.648-.581-.238-1.106-.468-1.641-.67-1.615-.609-3.238-1.194-4.921-1.597-1.357-.445-2.757-.72-4.157-.98-4.095-.758-8.21-1.08-12.358-.495-1.725.243-3.388.693-4.907 1.575-.785.455-.775.467-.572 1.351.341 1.49.349 2.978-.255 4.396-.417.98-.795 2.018-1.724 2.684a.218.218 0 0 0-.048.075c.112.077-.139.013-.025-.061 1.088-1.895 1.677-3.489 1.58-4.95-.046-.7-.312-1.315-.481-1.965a7.764 7.764 0 0 0-2.338-3.86c-3.004-2.727-6.551-3.677-10.478-2.851-4.287.901-6.135 3.684-6.84 7.418-.525 2.79.524 5.22 2.57 7.173 1.656 1.582 3.658 2.548 5.881 3.066.256.11.506.245.801.166Zm92.33 34.098-.012-.006c-.112-.211-.337-.204-.523-.256-3.169-.893-6.402-1.25-9.688-1.165-6.177-.184-13.9 1.154-17.699 3.041.108.072.196.124.277.186 4.274 3.257 7.902 7.14 11.003 11.507 3.66 5.155 6.537 10.693 7.976 16.901.78 3.367 1.103 6.757.483 10.187-.608 3.368-2.121 6.204-4.965 8.231-1.075.765-2.277 1.317-3.38 2.049-1.722 1.142-3.594 2.044-5.502 2.855-2.218.942-4.476 1.754-6.842 2.259-.747.159-1.413-.016-2.087-.244-.444-.149-.729-.593-.58-.956.356-.861.003-1.826.482-2.646a.327.327 0 0 0-.021-.382c-.222-.055-.376.097-.55.184-8.913 4.47-18.338 6.148-28.243 5.119-5.085-.529-9.916-1.916-14.339-4.551-.817-.487-1.615-1.002-2.348-1.614-.28-.234-.365-.437-.137-.763.526-.751 1.196-1.298 2.119-1.407 2.092-.247 4.154-.625 6.166-1.251.229-.072.517-.093.634-.403-.133-.021-.233-.051-.333-.051-4.551-.024-9.102-.051-13.653-.066-2.572-.009-5.143.003-7.714-.001-4.005-.007-8.01-.008-12.014-.032-13.905-.081-27.81.052-41.715-.11-.34-.004-.69-.034-.997.144-.52.3-.856.074-1.058-.388-.343-.786-.631-1.586-.632-2.471-.007-9.51-.03-19.02-.034-28.53-.001-3.257.034-6.515.056-9.773.002-.231-.065-.555.177-.643.426-.153.405-.509.472-.818.113-.519.389-.93.74-1.309.437-.474.86-.962 1.3-1.434 1.618-1.738 3.25-3.464 4.86-5.21.646-.702.568-.924-.288-1.283-3.595-1.507-7.32-1.672-11.084-.938a26.49 26.49 0 0 0-11.836 5.552c-3.295 2.691-5.857 5.909-7.243 9.991-1.015 2.988-1.159 5.968-.109 8.972.165.472.25.961.777 1.249.44.24.276.759.155 1.094-.117.32-.584.714-.858.544-.717-.446-1.51-.309-2.254-.477-2.845-.639-5.707-.812-8.578-.106-3.155.776-5.813 2.342-7.94 4.814-2.285 2.654-3.454 5.772-3.953 9.192-.545 3.73-.107 7.349 1.153 10.884 0 .068-.017.142.005.202 1.713 4.729 4.378 8.839 8.048 12.288 3.44 3.233 7.352 5.611 12.012 6.675 3.28.749 6.518.766 9.728-.297.276-.091.56-.172.814-.384.706-.589 1.032-.523 1.5.273 1.043 1.775 2.541 3.068 4.308 4.066 4.4 2.484 9.204 3.793 14.13 4.656a59.825 59.825 0 0 0 14.701.758c2.475-.179 4.922-.552 7.224-1.531 1.308-.555 2.663-1.115 2.99-2.757.064-.316.32-.313.558-.316.28-.004.556.026.655.353.197.647.453 1.285.563 1.948.29 1.751 1.165 3.157 2.428 4.348 2.441 2.302 5.449 3.553 8.63 4.324 3.838.929 7.751 1.197 11.711.927 4.459-.303 8.802-1.08 12.98-2.697 2.741-1.061 5.225-2.54 7.422-4.499.538-.479.919-1.086 1.42-1.59.392-.395.52-.383.855.077.779 1.068 1.594 2.101 2.534 3.037 1.348 1.341 2.665 2.709 4.3 3.721 2.316 1.433 4.813 2.292 7.537 1.884 2.927-.437 4.451-2.014 4.757-4.861.124-1.156-.038-2.302-.414-3.41-.109-.321-.192-.651-.319-.965-.151-.374.006-.564.333-.713.613-.281.753-.25 1.218.242.255.27.515.551.821.755a13.386 13.386 0 0 1 2.241 1.899c.971 1.011 2.094 1.832 3.314 2.507 3.073 1.7 6.412 2.557 9.88 2.827 4.487.349 8.881-.143 13.053-1.957 1.75-.761 3.363-1.755 4.692-3.148.344-.362.506-1.008 1.025-1.066.515-.058.83.525 1.252.8 1.561 1.018 3.176 1.528 4.964.558.266-.144.558-.249.847-.344a24.642 24.642 0 0 0 5.403-2.564c4.655-2.932 8.507-6.716 11.66-11.214 3.479-4.963 5.965-10.378 7.343-16.286.601-2.579.958-5.196 1.009-7.844.085-4.457-.545-8.774-2.63-12.796-1.556-3.001-3.74-5.405-6.718-7.024-1.338-.728-2.769-1.272-4.314-1.418-.328-.18-.49.085-.679.261-.115.107-.146.293-.358.31-.533.043-1.18-.825-1.069-1.381.193-.963.563-1.838 1.166-2.615.29-.17.331-.492.461-.759l.03-.06c.39-.564.604-1.207.784-1.855.632-2.282.275-4.343-1.377-6.124-1.226-1.321-2.711-2.198-4.433-2.697l-.009-.003c-.156-.21-.383-.195-.607-.192Zm-92.026 4.468c-.072.049-.076.102-.001.144.02.012.057-.006.087-.01l-.109-.118c-.002-.134.016-.272-.008-.402-.374-2.05-.171-4.036.65-5.956.29-.68.298-.782-.315-1.147-.785-.466-1.457-1.074-2.186-1.609-.281-.206-.494-.234-.824-.1-.83.336-1.457.928-2.144 1.474.237.279.494.439.66.703.56.889 1.106 1.786 1.504 2.761.567 1.386 1.269 2.695 2.191 3.878.127.164.165.471.495.382Zm32.2-68.475c-.04-.208-.164-.362-.323-.494-.024-.167-.034-.338-.073-.501-.842-3.541-1.709-7.077-2.522-10.625-.322-1.409-.687-2.819-.711-4.28.671-1.056 1.136-2.237 1.95-3.206.189-.226.184-.45.099-.747-.214-.744-.488-1.456-.772-2.177-.556-1.413-.963-2.888-1.543-4.296-.8-1.941-1.455-3.943-2.439-5.806-.325-.614-.363-.611-.793.055-.779.631-1.145 1.587-1.811 2.306-1.18 1.274-2.156 2.68-3.001 4.204-1.345 2.425-2.831 4.773-4.177 7.199-1.428 2.573-2.832 5.159-4.289 7.717-.71 1.247-1.585 2.456-1.828 3.935-.023.139-.067.276-.213.316-.994.273-1.913.83-3.024.632-1.583-.282-3.177-.5-4.769-.73-1.827-.263-3.634-.133-5.422.314-.603-.912.075-1.823.914-2.1.44-.146.888-.264 1.439-.426-.461-.344-.584-.784-.714-1.24-.315-1.1-.597-2.22-1.037-3.273-1.067-2.552-1.697-5.262-2.866-7.775-.867-1.863-1.297-3.898-2.22-5.742-.893-2.499-1.984-4.888-3.767-6.973-.264.503-.49.919-.704 1.34-.917 1.813-1.996 3.537-2.858 5.382-.86 1.842-1.532 3.76-2.35 5.617-.559 1.268-1.13 2.53-1.583 3.839-.218.632-.605 1.36-.346 1.959.317.732.129 1.32-.081 1.947-.4 1.192-1.001 2.299-1.532 3.435-1.02 2.181-1.678 4.504-2.63 6.712-.182.422-.26.879-.848 1.034-.329.086-.586.459-.654.852-.054.308-.173.58-.331.846-.828 1.393-1.332 2.936-1.915 4.43a84.832 84.832 0 0 0-1.228 3.29c-.857 2.496-1.89 4.93-2.826 7.4-.403 1.065-.817 2.132-1.056 3.274.274-.025.42-.17.583-.283 1.424-1 2.963-1.789 4.576-2.435 3.797-1.524 7.72-2.062 11.788-1.515 2.214.297 4.302.962 6.245 2.063.361.205.58.236.792-.194.363-.738.902-1.35 1.517-1.896.56-.498 1.21-.869 1.808-1.262-.667-1.669-.346-3.274.178-4.862.162-.492.589-.627 1.073-.56.498.068.9.598.942 1.287.055.914.122 1.833-.025 2.744-.07.432.1.555.494.49.134-.022.27-.033.404-.055 2.806-.48 5.473-.049 8.017 1.21.165.082.32.28.571.111.018-.354.022-.727.059-1.097.09-.912.192-1.826.585-2.67.214-.462.578-.811 1.095-.788.549.025.73.547.937.962.121.244.091.53.053.803-.087.64-.177 1.279-.25 1.92-.089.795-.26 1.54-1.235 1.94 1.309.98 2.212 2.143 2.944 3.47 2.515-1.688 5.257-2.205 8.103-2.388 3.414-.22 6.787.097 10.135.736 1.499.286 2.986.627 4.479.942.118.06.231.139.357.175 1.955.563 3.886 1.196 5.765 1.979.123.05.259.087.389-.103-.089-.354-.163-.75-.291-1.13-.41-1.215-.931-2.4-1.243-3.64-.499-1.978-1.297-3.853-2.089-5.7-1.089-2.542-1.589-5.227-2.384-7.837-.064-.21.045-.483-.289-.617-.381.207-.577.903-1.22.569l-.009-.012Zm1.371-11.712c-.147-.087-.261-.16-.225-.386a9.772 9.772 0 0 1 .429-1.669c.405-1.184.95-2.327 1.163-3.567.173-1.012.514-2.025.183-3.07-.092-.247-.257-.44-.529-.337-.339.13-.716.142-1.01.432-.747.738-1.564 1.407-2.291 2.163-.629.654-1.237 1.334-1.673 2.152-.343.643-.709 1.23-.11 1.934.161.189.179.506.243.769.721 2.993 1.438 5.987 2.157 8.981.247.954.357 1.946.736 2.955.613-.972.937-1.925 1.329-2.853.518-1.225 1.256-2.341 1.614-3.659.34-1.25.578-2.48.443-3.77-.121-.826-.509-1.093-1.249-.752-.414.19-.868.344-1.21.677Zm-9.086 68.794-.011.005c2.378.02 4.641-.534 6.824-1.425.976-.399 1.816-.993 2.589-1.751 1.216-1.194 2.21-2.57 3.366-3.81.858-.92.808-2.067.623-3.226-.166-1.039-.847-1.817-1.286-2.718-.327-.672-.881-1.108-1.464-1.508-.221-.15-.445-.303-.667-.456-1.426-.98-2.821-2.018-4.589-2.33a2.647 2.647 0 0 1-.676-.22c-1.109-.533-2.298-.788-3.489-1.038-1.769-.451-3.568-.483-5.359-.26-2.316.29-4.393 1.125-5.984 2.934-1.639 1.862-2.235 4.064-2.177 6.49.026 1.09.198 2.157.392 3.226.194 1.068.762 2.053.696 3.18-.005.082.093.176.154.257.568.745 1.299 1.248 2.296 1.597-.148-1.262-.025-2.403.028-3.545.065-1.425.717-2.67 1.354-3.908.126-.246.326-.482.646-.29.243.147.381.355.241.684-.212.498-.343 1.031-.569 1.522-.662 1.436-.511 2.988-.664 4.495-.034.325.099.667.143 1.002.044.335.189.554.542.645 1.355.35 2.738.495 4.127.6.364.028.521-.174.39-.502-.172-.43-.177-.867-.113-1.3a45.76 45.76 0 0 1 .474-2.703c.16-.762.34-1.523.725-2.217.124-.224.261-.396.549-.351.316.05.301.326.371.541.056.172-.034.325-.068.489-.284 1.36-.577 2.72-.811 4.088-.101.587-.237 1.195-.028 1.797.474.355.949.219 1.425.006Zm-46.34-4.708c.047-.985-.124-1.947-.317-2.906-.066-.33-.147-.662-.164-.995-.01-.213-.043-.512.286-.56.242-.035.342.16.44.344.42.782.652 1.622.796 2.49.167 1.529.251 3.056-.233 4.774 2.698-1.473 4.481-3.37 5.094-6.167.77-3.515-.325-6.552-2.609-9.214a3.184 3.184 0 0 0-1.922-1.074c-.864-.137-1.739-.204-2.61-.301-.26-.071-.517-.18-.782-.207-2.66-.275-5.274-.128-7.768.953-3.712 1.61-6.32 4.15-6.858 8.346-.176 1.38-.09 2.679 1.014 3.829 1.358 1.415 2.82 2.649 4.582 3.489 1.024.487 2.073.967 3.254 1.087-.023-.877-.026-1.688-.21-2.48-.27-1.162-.287-2.35-.384-3.53-.024-.296-.008-.588.314-.654.346-.07.58.179.685.483.086.252.137.53.134.797-.017 1.702.585 3.341.495 5.05-.01.19-.025.414.184.545 2.048.467 4.035.104 6.009-.443.22-.062.347-.19.36-.428.057-1.076.423-2.133.21-3.228Zm52.659 55.637c3.165-1.796 5.872-4.138 8.201-6.92 2.285-2.732 3.636-5.753 3.446-9.451-.13-2.526.002-5.076.093-7.616.136-3.758.071-7.522.211-11.282.08-2.169.06-4.342.097-6.513.07-4.171.15-8.342.222-12.514.006-.336.062-.686-.1-1.072-.613.9-1.169 1.71-1.719 2.525-3.015 4.471-6.028 8.945-9.046 13.415-.173.256-.379.503-.344.825.051.484-.219.657-.621.772-.187.053-.351.188-.526.286l-.282.034c-.32-.274-.708-.175-1.069-.175-6.028-.01-12.055-.014-18.083-.015-1.184 0-2.368.017-3.552.026-.814-.021-1.628-.057-2.442-.063-6.351-.046-12.702-.107-19.053-.123-12.028-.032-24.056-.096-36.084-.252-.842-.011-1.685-.001-2.553-.001.03.656.074 1.228.078 1.801.037 5.972.073 11.944.098 17.916.024 5.76.03 11.52.052 17.28.003.862-.098 1.737.218 2.626.732-.255 1.477-.252 2.223-.254 8.885-.03 17.77-.141 26.656-.088 5.319.031 10.638-.015 15.958-.033 7.025-.023 14.05-.056 21.075-.078 4.688-.015 9.376-.043 14.064-.014 1.097.007 1.941-.466 2.782-1.042ZM92.838 98.316l.22.071c.462-.328.89-.724 1.393-.969.698-.34 1.06-1.057 1.722-1.406a6.69 6.69 0 0 0 1.824-1.44c.504-.554.43-.661 1.25-.146 1.64 1.031 3.346 1.938 5.055 2.845.393.208.757.327 1.138.063.389-.268.365-.654.313-1.092-.181-1.52-.726-2.954-.987-4.454-.075-.432-.125-.91-.347-1.267-.328-.526-.211-.945.043-1.417.21-.39.447-.749.738-1.089.883-1.03 1.736-2.085 2.593-3.137.149-.183.274-.39.381-.6.162-.32.162-.583-.279-.679-.662-.144-1.317-.316-1.979-.463-1.369-.302-2.773-.197-4.158-.317-.759-.066-1.275-.371-1.642-1.007a93.53 93.53 0 0 0-1.241-2.104 22.498 22.498 0 0 0-2.07-2.879c-.427-.5-.79-.498-1.143 0-.097.136-.199.288-.233.448-.389 1.82-1.088 3.564-1.319 5.42-.05.398-.235.62-.599.843-1.38.842-2.927 1.234-4.442 1.682-.808.239-1.184.657-1.352 1.425-.16.73-.19.717.488 1.063.21.108.403.25.6.38 1.284.842 2.216 2.1 3.491 2.955.192.129.386.318.342.588-.129.784.095 1.548.12 2.324.044 1.452.227 2.898.08 4.36Zm3.332-.078c-.423.107-.678.393-.978.604-.669.47-1.373.875-2.148 1.143-.638.221-.83.085-1.215-.492-.564-.847-.572-1.781-.568-2.729.006-1.425.008-2.85.04-4.275.007-.344-.12-.563-.431-.545-.696.04-1.386-.052-2.075.305a80.905 80.905 0 0 1-7.674 3.486c-2.107.83-4.194 1.709-6.34 2.586.523 1.119 1.014 2.19 1.522 3.254.306.64.599 1.282.978 1.89.38.61 1.154.853 1.38 1.594.059.198.314.236.524.247.339.017.677.049 1.016.051 6.412.04 12.824.079 19.236.11.25.002.528.078.828-.154-1.108-1.326-1.805-2.857-2.492-4.398-.426-.955-.985-1.84-1.603-2.677Zm18.472 7.272c-.063-.5-.158-1.017-.158-1.564.001-1.048-.017-2.117-.218-3.14-.235-1.189-.14-2.356-.097-3.536.007-.208.019-.5.23-.514.606-.04.994-.595 1.66-.552 1.698.109 3.283.42 4.507 1.733.182.195.404.38.645.487 1.36.597 2.501 1.482 3.484 2.581.126.141.242.238.418.097.131-.105.281-.217.207-.416-.57-1.535-.823-3.222-2.156-4.39-.665-.584-1.284-1.095-2.278-1.168-1.134-.083-2.287-.355-3.326-.88-1.155-.582-2.323-1.051-3.642-1.108-.388-.017-.77-.207-1.188-.194-1.921.059-3.636.685-5.2 1.787-.466.329-.635.669-.551 1.27.115.83.149 1.683.01 2.526-.073.442-.219.707-.783.703-.82-.006-1.618.02-2.3-.527-.911 1.841-.947 3.725-.756 5.499.111 1.035.452 1.297 1.54 1.301 3.294.012 6.589.005 9.952.005Zm-64.586-.319h2.325c2.006.003 4.011.011 6.017 0 .197-.001.514.172.586-.18.129-.627.575-1.063.914-1.554 1.308-1.894 2.543-3.846 4.198-5.476.191-.19.36-.407.51-.631.719-1.084 1.642-1.84 2.99-1.989.638-.07 1.27-.19 1.901-.306.332-.061.656-.164.986-.24.334-.077.678-.125 1.161-.4-2.891-.772-5.257-2.105-7.332-4.14-4.57 5.1-9.32 9.931-14.256 14.916Zm10.305.039h16.572c-1.616-1.974-2.35-4.291-3.5-6.386-.125-.226-.197-.472-.036-.669.44-.535.777-1.176 1.583-1.314.552-.094 1.073-.343 1.665-.745-1.138-.348-2.19-.326-3.203-.524-.207-.041-.384.116-.575.162-1.148.281-2.257.737-3.437.86-.815.085-1.606.27-2.405.422-.698.133-1.298.418-1.604 1.144-.114.271-.337.51-.551.723-1.374 1.374-2.45 2.979-3.593 4.534-.369.501-.593 1.048-.916 1.793Zm55.031-7.94c.219.976.009 1.823.184 2.648.316 1.501.391 3.018.384 4.546-.004 1.073.075 1.118 1.171 1.131 3.896.047 7.793.098 11.689.148.882.011 1.764.033 2.646.038.228.001.522.048.617-.235.325-.957 1.12-1.595 1.627-2.43.401-.661.822-1.239.29-2.02-.1-.146-.047-.396-.068-.598l-.216-2.113c-1.263.392-2.521.67-3.682 1.172-1.394.602-2.757 1.308-3.922 2.325-.305.266-.627.509-.92.794-.415.406-.677.305-.925-.238-.222-.487-.544-.91-1.004-1.199-.915-.574-1.753-1.278-2.781-1.662-.46-.171-.828-.474-1.127-.842-.409-.503-.923-.747-1.553-.838-.765-.111-1.523-.267-2.41-.627Zm28.979-10.011c-.839 0-1.506.01-2.172-.002-1.116-.02-1.968.615-2.759 1.242-.652.517-1.09 1.294-1.687 1.892-.996.996-1.73 2.221-2.951 3.04-.52.349-1.042.263-1.539.487-1.552.702-3.21 1.063-4.896 1.31-1.399.205-2.809.19-4.452.23 1.579 1.254 2.039 2.896 2.442 4.692.957-.829 2.019-1.204 3.005-1.716 1.205-.626 2.567-.814 3.859-1.196.31-.092.673.002 1.012-.005.332-.006.451.151.528.473.216.906.383 1.82.558 2.779 3.059-4.337 5.918-8.779 9.052-13.226ZM114.313 91.8c-.286-.602-.08-1.16-.332-1.517-.671-.95-.874-2.03-1.071-3.12-.084-.462-.309-.616-.759-.602-1.252.04-2.506.066-3.759.07-.349 0-.544.155-.755.403-.747.883-1.191 1.966-1.916 2.862-.165.205-.118.446-.044.675.337 1.035.677 2.07 1.032 3.155 1.166-.64 2.226-1.393 3.496-1.67 1.284-.28 2.584-.432 4.108-.256ZM78.425 16.174c-.45.57-.775 1.038-.749 1.658.063 1.476-.017 2.964.394 4.41.213.748.353 1.52.626 2.245.212.561.112.907-.331 1.296-.473.415-.525.46-1.072.089-.515-.35-1.048-.672-1.593-1.02-.803 3.485.596 6.433 1.816 7.427l1.475-3.991c.693-1.876 1.646-3.638 2.431-5.473.45-1.05.363-1.004-.431-1.893-.723-.809-1.525-1.6-1.763-2.75-.135-.654-.442-1.256-.803-1.998Zm8.405 72.33c-2.151 3.836-5.58 5.607-9.862 6.361.926.263 1.6.537 2.428.208a138.586 138.586 0 0 0 8.116-3.529c.555-.263 1.064-.597 1.416-1.14-.547-.746-1.259-1.317-2.098-1.9Z"/><path fill="#FEFFFF" d="M3.585 146.385c-1.26-3.535-1.698-7.154-1.153-10.884.5-3.42 1.668-6.538 3.953-9.192 2.127-2.472 4.785-4.038 7.94-4.814 2.871-.706 5.733-.533 8.578.106.744.168 1.538.031 2.255.477.273.17.74-.224.857-.544.121-.335.286-.854-.155-1.094-.527-.288-.612-.777-.777-1.249-1.05-3.004-.906-5.984.11-8.972 1.385-4.082 3.947-7.3 7.242-9.991a26.489 26.489 0 0 1 11.836-5.552c3.763-.734 7.489-.569 11.084.938.856.36.935.58.288 1.282-1.61 1.747-3.242 3.473-4.86 5.211-.44.472-.863.96-1.3 1.434-.351.379-.627.79-.74 1.309-.067.309-.046.665-.472.818-.242.088-.175.412-.177.643-.022 3.258-.057 6.515-.056 9.773.005 9.51.028 19.02.034 28.53 0 .885.289 1.685.632 2.471.202.462.539.688 1.058.388.306-.178.656-.148.997-.144 13.904.162 27.81.029 41.715.11 4.004.024 8.009.025 12.014.032 2.571.004 5.143-.008 7.714.001 4.551.015 9.102.042 13.653.066.1 0 .2.03.333.051-.117.31-.405.331-.634.403-2.012.626-4.074 1.004-6.166 1.251-.923.109-1.593.656-2.119 1.407-.228.326-.143.529.137.763.734.612 1.531 1.127 2.348 1.614 4.424 2.635 9.254 4.022 14.339 4.551 9.905 1.029 19.33-.649 28.243-5.119.174-.087.328-.239.551-.183a.327.327 0 0 1 .02.381c-.479.82-.126 1.785-.481 2.646-.15.363.135.807.579.956.674.228 1.341.403 2.087.244 2.366-.505 4.624-1.317 6.842-2.259 1.908-.811 3.781-1.713 5.502-2.855 1.103-.732 2.305-1.284 3.38-2.049 2.845-2.027 4.357-4.863 4.965-8.231.62-3.43.297-6.82-.483-10.187-1.439-6.208-4.316-11.746-7.976-16.901-3.101-4.367-6.729-8.25-11.003-11.507-.081-.062-.169-.114-.277-.186 3.799-1.887 11.522-3.225 17.699-3.04.175.205.415.189.652.197 1.205.04 2.437-.166 3.588.389.083.04.2.015.301.017 1.554.034 3.078.275 4.572.694.367.103.725.145 1.098.123l.012.006c.144.247.374.225.607.192l.009.003c-.031.355.247.526.438.757.706.856 1.717 1.287 2.604 1.89 1.078.734 1.889 1.712 2.012 3.015.127 1.337.035 2.696.01 4.044-.006.322-.263.635-.037.97l-.031.06c-.473.059-.473.406-.461.759-.603.777-.972 1.652-1.166 2.615-.111.556.536 1.424 1.069 1.381.212-.017.243-.203.359-.31.188-.175.35-.441.678-.261.83 1.089 1.923 1.93 3.058 2.603 1.271.753 1.995 1.97 3.023 2.915.646.594.945 1.479 1.301 2.267 1.043 2.306 2.265 4.541 2.936 7.004.044.16.117.344.237.446.689.586.596 1.377.429 2.079a13.081 13.081 0 0 0-.346 3.421c.025.939-.208 1.807-.793 2.56a.988.988 0 0 0-.224.554c-.126 1.876-.634 3.65-1.413 5.359-.138.303-.351.56-.433.908-.331 1.41-.754 2.779-1.355 4.12-.787 1.76-1.871 3.291-3.105 4.717-1.048 1.21-1.993 2.47-2.796 3.852-1.138 1.956-2.233 3.956-4.122 5.333-1.063.775-1.889 1.825-3.106 2.439-.649.327-1.311.713-1.895 1.166-1.423 1.102-2.943 2.036-4.598 2.727-1.862.777-3.721 1.073-5.677.121-.876-.426-1.902-.399-2.766.348-1.005.868-2.141 1.548-3.36 2.082-1.677.733-3.335 1.516-5.04 2.179-1.157.45-2.35.749-3.647.744-1.665-.007-3.309-.265-4.973-.268-.617-.002-1.249-.214-1.864-.43-1.345-.471-2.631-1.091-3.977-1.544-2.042-.687-3.821-1.709-5.062-3.519-.222-.324-.466-.534-.878-.613-1.335-.255-2.424-.97-3.35-1.941-.158-.166-.226-.473-.518-.402a.679.679 0 0 0-.537.665c-.007.427-.17.788-.357 1.152-.264.512-.47 1.021-.516 1.627-.051.665-.237 1.349-.658 1.901-.996 1.302-2.077 2.497-3.756 2.956-.615.169-1.178.658-1.826.561-1.128-.168-2.289-.142-3.378-.601-1.152-.486-2.369-.788-3.603-.997-1.107-.187-2-.664-2.667-1.619-.558-.799-1.075-1.715-1.949-2.174a12.295 12.295 0 0 1-1.854-1.207c-.432-.337-.767-.349-1.157.018-.171.16-.389.269-.572.418-1.081.879-2.198 1.7-3.497 2.239-.47.194-.932.406-1.403.597-1.754.711-3.444 1.555-5.314 2.008-1.246.302-2.506.55-3.752.854-1.773.432-3.572.767-5.417.694-.202-.008-.421-.02-.607.044-1.02.348-2.103-.014-3.124.29-1.778-.395-3.635-.315-5.383-.901a5.02 5.02 0 0 0-1.09-.238 10.297 10.297 0 0 1-3.118-.804c-1.38-.601-2.615-1.408-3.769-2.349-1.546-1.26-1.935-3.128-2.462-4.901-.394-1.324-.593-2.694-.78-4.066-.11-.798-.39-.918-1.092-.607-1.758.776-3.474 1.617-5.334 2.183-1.74.529-3.354 1.458-5.045 2.156-1.247.514-2.478 1.052-3.836 1.296-1.197.214-2.424.238-3.596.572-.533.152-1.063.186-1.607.191-2.305.02-4.594-.265-6.888-.351-1.481-.056-2.787-.417-4.065-1.055-1.32-.659-2.832-.784-4.095-1.685-.646-.462-1.388-.802-1.944-1.406-.277-.301-.619-.489-.985-.685-1.044-.557-2.007-1.254-2.93-1.999-.5-.404-1.074-.738-1.45-1.267-.821-1.156-1.908-2.096-2.657-3.376-.522.318-1.002.625-1.496.909-.738.424-1.474.811-2.388.729-.742-.067-1.542-.17-2.233.03-1.18.342-2.303.011-3.421-.102-2.01-.203-4.005-.587-5.99-.979-1.787-.353-3.588-.708-5.32-1.257-2.482-.786-4.64-2.188-6.554-3.953-.249-.229-.506-.456-.637-.785-.167-.422-.475-.735-.79-1.048-.94-.932-1.954-1.775-2.982-2.603-.28-.226-.48-.472-.47-.851.008-.337-.179-.544-.502-.476-.532.111-.881-.247-1.303-.419Z"/><path fill="#DED9FE" d="m132.374 107.207.282-.034c.362.226.245.593.277.92.119 1.224-.19 2.424-.188 3.643.009 5.836.005 11.673.003 17.509-.001 5.158-.004 10.315-.006 15.473-.841.576-1.685 1.049-2.782 1.042-4.688-.029-9.376-.001-14.064.014-7.025.022-14.05.055-21.075.078-5.32.018-10.639.064-15.958.033-8.886-.053-17.77.058-26.656.088-.746.002-1.491-.001-2.222.254-.317-.889-.216-1.764-.22-2.626-.02-5.76-.027-11.52-.051-17.28a8492 8492 0 0 0-.098-17.916c-.004-.573-.049-1.145-.078-1.801.868 0 1.71-.01 2.553.001 12.028.156 24.056.22 36.084.252 6.35.016 12.702.077 19.053.123.814.006 1.628.042 2.442.063.331.258.72.154 1.084.155 2.755.01 5.509.008 8.264.009h13.356Z"/><path fill="#FEA849" d="M98.477 30.523c1.788-.447 3.595-.577 5.422-.314 1.592.23 3.186.448 4.769.73 1.111.198 2.03-.359 3.024-.632.146-.04.19-.177.213-.316.243-1.479 1.118-2.688 1.828-3.935 1.457-2.558 2.861-5.144 4.289-7.718 1.346-2.425 2.832-4.773 4.177-7.198.845-1.524 1.821-2.93 3.001-4.204.666-.719 1.032-1.675 1.811-2.306.115.245.262.48.339.735.821 2.738 1.827 5.412 2.394 8.236.48 2.392.642 4.79.765 7.206.024 1.461.389 2.871.711 4.28.813 3.548 1.68 7.084 2.522 10.625.039.163.049.334.073.5-.07.281.026.454.323.495l.009.013c.171 1.152.796 2.22.645 3.432-.009.066.008.136.021.202.397 2.017.992 3.985 1.069 6.078.039 1.04.154 2.096.1 3.134-.055 1.05-.073 2.149-.768 3.06-.072.094-.044.264-.062.398-1.493-.316-2.98-.656-4.479-.942-3.348-.639-6.721-.956-10.135-.736-2.847.183-5.588.7-8.103 2.387-.732-1.325-1.635-2.488-2.944-3.47.975-.4 1.146-1.144 1.235-1.94.073-.64.163-1.28.25-1.919.038-.273.068-.559-.054-.803-.206-.415-.387-.937-.937-.962-.516-.023-.88.326-1.094.787-.393.845-.495 1.759-.585 2.671-.037.37-.041.743-.059 1.097-.251.17-.406-.029-.571-.11-2.544-1.26-5.211-1.692-8.017-1.212-.134.023-.27.034-.404.056-.394.065-.564-.058-.494-.49.147-.911.08-1.83.025-2.744-.041-.69-.444-1.22-.942-1.287-.484-.066-.911.068-1.073.56-.524 1.588-.845 3.193-.178 4.862-.599.393-1.248.764-1.808 1.262-.615.547-1.154 1.158-1.517 1.896-.211.43-.43.399-.792.194-1.943-1.1-4.031-1.765-6.245-2.063-4.068-.547-7.991-.009-11.788 1.514-1.612.647-3.152 1.435-4.576 2.436-.162.113-.309.258-.583.283.239-1.142.653-2.209 1.056-3.274.935-2.47 1.97-4.904 2.826-7.4.38-1.108.805-2.205 1.228-3.29.583-1.494 1.087-3.037 1.915-4.43.158-.266.277-.538.33-.846.069-.393.326-.766.655-.852.588-.155.666-.612.848-1.034.953-2.208 1.61-4.531 2.63-6.712.53-1.136 1.133-2.243 1.532-3.435.21-.627.398-1.215.081-1.947-.259-.598.128-1.327.346-1.96.452-1.308 1.024-2.57 1.583-3.838.818-1.857 1.49-3.775 2.35-5.617.862-1.845 1.94-3.57 2.858-5.381.214-.422.44-.838.704-1.341 1.783 2.085 2.874 4.474 3.767 6.973-.277 2.36.429 4.624.699 6.93.18 1.538.348 3.079.47 4.62a25.07 25.07 0 0 1 .001 3.662c-.086 1.27-.192 2.551-.67 3.764-.163.414-.606.976.323 1.105.047.007.115.096.119.15.05.67.545.568.979.57.611.001 1.222.002 1.834-.002.268-.001.553.038.729-.243Z"/><path fill="#D9F5FC" d="M3.585 146.385c.422.172.771.53 1.303.419.323-.068.51.139.501.476-.01.379.19.625.47.851 1.029.828 2.044 1.671 2.982 2.603.316.313.624.626.791 1.048.13.329.388.556.637.785 1.914 1.765 4.072 3.167 6.554 3.953 1.732.549 3.533.904 5.32 1.257 1.985.392 3.98.776 5.99.979 1.118.113 2.24.444 3.421.102.691-.2 1.49-.097 2.233-.03.914.082 1.65-.305 2.388-.729.494-.284.974-.591 1.496-.909.75 1.28 1.836 2.22 2.657 3.376.376.529.95.863 1.45 1.267.923.745 1.886 1.442 2.93 1.999.366.196.708.384.985.685.556.604 1.298.944 1.944 1.406 1.262.901 2.776 1.026 4.095 1.685 1.278.638 2.584.999 4.065 1.055 2.294.086 4.583.371 6.888.351.544-.005 1.074-.039 1.607-.191 1.172-.334 2.399-.358 3.596-.572 1.358-.244 2.59-.782 3.836-1.296 1.691-.698 3.305-1.627 5.045-2.156 1.86-.566 3.576-1.407 5.333-2.183.704-.311.983-.191 1.093.607.187 1.372.386 2.742.78 4.066.527 1.773.916 3.641 2.463 4.901 1.153.941 2.387 1.748 3.768 2.349 1.009.44 2.036.694 3.118.804.368.037.739.12 1.09.238 1.747.586 3.605.506 5.383.901 1.021-.304 2.104.058 3.124-.29.186-.064.405-.052.607-.044 1.845.073 3.644-.262 5.417-.694 1.246-.304 2.506-.552 3.752-.854 1.87-.453 3.56-1.297 5.314-2.008.471-.191.933-.403 1.402-.597 1.3-.539 2.417-1.36 3.498-2.239.183-.149.401-.258.572-.418.39-.367.725-.355 1.157-.018.579.451 1.188.858 1.854 1.207.874.459 1.391 1.375 1.949 2.174.667.955 1.56 1.432 2.667 1.619 1.234.209 2.451.511 3.603.997 1.089.459 2.25.433 3.378.601.648.097 1.211-.392 1.826-.561 1.678-.459 2.76-1.654 3.756-2.956.421-.552.607-1.236.658-1.901.046-.606.252-1.115.515-1.627.188-.364.351-.725.358-1.152a.679.679 0 0 1 .537-.665c.292-.071.36.236.518.402.926.971 2.015 1.686 3.35 1.941.412.079.656.289.878.613 1.241 1.81 3.02 2.832 5.062 3.519 1.346.454 2.632 1.073 3.977 1.544.615.216 1.247.428 1.864.43 1.664.003 3.307.261 4.973.268 1.297.005 2.49-.294 3.647-.744 1.705-.663 3.363-1.446 5.04-2.179 1.219-.534 2.354-1.214 3.36-2.082.864-.747 1.89-.774 2.766-.348 1.956.952 3.815.656 5.676-.121 1.656-.691 3.176-1.625 4.599-2.727.584-.453 1.246-.839 1.895-1.166 1.217-.614 2.043-1.664 3.106-2.439 1.889-1.377 2.984-3.377 4.122-5.333.803-1.382 1.748-2.642 2.796-3.852 1.234-1.426 2.318-2.957 3.105-4.717.601-1.341 1.024-2.71 1.355-4.12.082-.348.295-.605.433-.908.779-1.709 1.286-3.483 1.413-5.359a.988.988 0 0 1 .224-.554c.585-.753.818-1.621.793-2.56a13.081 13.081 0 0 1 .346-3.421c.167-.702.26-1.493-.429-2.079-.12-.102-.193-.286-.237-.446-.671-2.463-1.893-4.698-2.936-7.004-.356-.788-.655-1.673-1.301-2.267-1.028-.945-1.752-2.161-3.023-2.915-1.135-.673-2.228-1.514-3.058-2.603 1.545.146 2.976.69 4.314 1.418 2.978 1.619 5.162 4.023 6.718 7.025 2.085 4.021 2.715 8.338 2.63 12.795-.05 2.648-.408 5.265-1.009 7.844-1.378 5.908-3.864 11.323-7.343 16.286-3.153 4.498-7.005 8.282-11.66 11.214a24.597 24.597 0 0 1-5.403 2.564c-.289.095-.581.2-.847.344-1.788.97-3.403.46-4.964-.558-.422-.275-.737-.858-1.252-.8-.519.058-.68.704-1.025 1.066-1.329 1.393-2.942 2.387-4.692 3.148-4.171 1.814-8.566 2.306-13.053 1.957-3.468-.27-6.807-1.127-9.88-2.827-1.22-.675-2.343-1.496-3.314-2.506a13.345 13.345 0 0 0-2.241-1.9c-.306-.204-.566-.485-.821-.755-.465-.492-.605-.523-1.218-.242-.326.149-.484.339-.333.713.127.314.21.644.319.965.376 1.108.538 2.254.414 3.41-.306 2.847-1.83 4.424-4.757 4.861-2.723.408-5.221-.451-7.537-1.884-1.635-1.012-2.952-2.38-4.299-3.72-.941-.936-1.756-1.97-2.534-3.038-.336-.46-.464-.472-.856-.077-.501.504-.882 1.111-1.42 1.59-2.197 1.959-4.681 3.438-7.422 4.499-4.178 1.617-8.521 2.394-12.98 2.697-3.96.27-7.873.002-11.71-.927-3.182-.771-6.19-2.022-8.631-4.324-1.262-1.191-2.138-2.597-2.428-4.348-.11-.662-.366-1.301-.563-1.948-.1-.327-.375-.357-.655-.353-.238.003-.494 0-.557.316-.328 1.642-1.683 2.202-2.99 2.757-2.303.979-4.75 1.352-7.225 1.531-4.93.358-9.841.094-14.701-.758-4.926-.863-9.73-2.172-14.13-4.656-1.767-.998-3.265-2.291-4.308-4.066-.468-.796-.794-.862-1.5-.273-.253.212-.538.293-.814.385-3.21 1.062-6.448 1.045-9.728.296-4.66-1.064-8.571-3.442-12.012-6.675-3.67-3.449-6.335-7.559-8.048-12.288-.022-.06-.004-.134-.005-.202Z"/><path fill="#FEEEE1" d="M114.48 77.901c-1.358 2.12-2.004 4.431-1.89 6.954.033.716.004.733-.703.744-.95.015-1.901.004-2.859.004-.108-.325.178-.484.279-.712.123-.278.307-.534.395-.82.283-.918-.089-1.473-1.009-1.653-1.734-.337-3.47-.624-5.242-.68-.638-.02-1.273-.186-1.907-.3-.519-.095-.807-.479-1.033-.908-.269-.51-.511-1.035-.774-1.548-.387-.757-.776-1.516-1.491-2.028-.184-.131-.233-.326-.337-.496-.444-.73-1.126-1.172-1.941-1.076-.826.096-1.307.748-1.53 1.55-.416 1.504-.903 2.993-1.22 4.518-.17.82-.523 1.31-1.279 1.617a24.65 24.65 0 0 1-3.948 1.229c-.076-.783-.1-1.457-.211-2.116-.345-2.055-1.23-3.87-2.58-5.448-.336-.394-.45-.713-.233-1.218.575-1.337 1.09-2.696 1.412-4.127.11-.494.027-.764-.417-.966-.773-.351-1.436-.87-2.11-1.379-1.052-.794-2.135-1.54-3.147-2.399-1.264-1.074-2.392-2.294-3.7-3.32-.931-.732-1.854-1.485-2.71-2.302-.856-.817-1.618-1.732-2.433-2.593-.9-.951-1.824-1.877-2.958-2.687 3.366-2.738 7.195-4.295 11.451-4.855 4.295-.564 8.379.147 12.254 2.109.11.064.035.172-.035.291-2.022 3.416-1.25 7.268 1.154 9.993 2.25 2.551 5.12 3.837 8.505 4.006a13.774 13.774 0 0 0 3.346-.23c1.322-.192 1.67-.35 2.152-1.035-1.319.47-2.612.693-3.942.665l-1.931-.04-.223-.03c-.233-.214-.516-.196-.801-.165-2.224-.518-4.226-1.484-5.883-3.066-2.044-1.954-3.094-4.384-2.568-7.173.704-3.734 2.552-6.517 6.84-7.418 3.926-.826 7.473.123 10.477 2.85a7.763 7.763 0 0 1 2.338 3.861c.169.65.435 1.265.482 1.964.096 1.462-.493 3.056-1.581 4.95-.114.075.137.139.025.062a.218.218 0 0 1 .048-.075c.929-.667 1.307-1.703 1.724-2.684.604-1.418.597-2.906.255-4.396-.203-.884-.213-.896.572-1.351 1.519-.882 3.182-1.332 4.907-1.575 4.148-.585 8.263-.263 12.358.496 1.4.259 2.8.534 4.157.98-.295.227-.77.049-.994.433-.374.642-1.036 1.077-1.283 1.816-.118.355-.363.644-.634.912-.928.916-1.779 1.889-2.823 2.713-1.075.848-2.177 1.72-3.085 2.78-.417.488-.89.927-1.347 1.38-1.15 1.139-2.563 1.95-3.759 3.04a18.1 18.1 0 0 1-5.858 3.594c-.437.164-.832.454-1.226.718-.451.302-.638.717-.647 1.293-.026 1.632.189 3.234.419 4.841.071.499.403.462.732.506ZM95.94 54.333c-.006 1.036.484 1.619 1.128 2.099.718.536 1.538.851 2.417 1.001 2.964.507 5.867.208 8.721-.682.678-.211 1.351-.432 1.937-.856.198-.143.415-.257.372-.545-.039-.257-.129-.488-.457-.3-1.555.896-3.254 1.325-5.02 1.413-1.485.075-2.978.127-4.467.019-1.747-.127-3.306-.681-4.632-2.15Zm5.993-5.263c-.457.047-.897.076-1.332.14-.569.084-1.168 1.061-.878 1.534.404.658.822 1.332 1.467 1.8.243.175.509.344.842.293 1.38-.211 2.457-.92 3.284-2.021.249-.332.152-.603-.212-.835-.976-.623-2.081-.758-3.171-.91ZM163.646 154.737c-.056-.484.057-.915.272-1.364.453-.946.811-1.936 1.245-2.891.154-.34.089-.572-.139-.82-.275-.298-.503-.052-.72.067-1.04.566-2.049 1.192-3.109 1.717-5.281 2.615-10.866 4.154-16.729 4.763-5.808.603-11.529.226-17.154-1.34-3.015-.839-5.881-2.044-8.52-3.881.243-.334.588-.174.839-.209 6.674-.93 12.641-3.547 18.007-7.561 2.185-1.635 4.029-3.628 5.639-5.834.168.009.256-.057.228-.237l-.015.009c.171.009.279-.026.156-.222l.015-.054c.255.229.429.024.614-.113a8.478 8.478 0 0 1 2.138-1.166c2.32-.85 4.626-1.734 7.081-2.156.794-.137 1.603-.314 2.321-.723 1.894-1.078 3.477-2.574 5.19-3.894.158-.122.265-.307.407-.452 1.389-1.418 2.39-3.117 3.435-4.779.477-.76.95-1.563.858-2.534.17-.286.324-.584.514-.856.262-.373.565-.449.912-.079.436.466.983.829 1.299 1.405.067.614-.32 1.198-.161 1.805.322 1.239.127 2.495.189 3.742.089 1.797-.073 3.589-.245 5.366a20.388 20.388 0 0 1-1.552 6.054c-.29.677-.588 1.349-1.025 1.969-.281.398-.715.775-.805 1.484 2.621-.883 4.842-2.185 6.875-3.903-.476 1.435-.332 2.885-.391 4.318-.063 1.534-.373 3.036-.964 4.432-.938 2.215-2.045 4.366-3.722 6.134-.812.855-1.836 1.454-2.983 1.803Z"/><path fill="#ED751E" d="M168.43 121.533c-.316-.576-.863-.939-1.299-1.405-.347-.37-.65-.294-.912.079-.19.272-.344.57-.514.856-.66.461-1.312.936-1.984 1.38-1.434.946-2.907 1.824-4.21 2.971-.803.705-1.695 1.324-2.622 1.887-2.003 1.215-4.205 1.98-6.324 2.936-1.621.731-3.416 1.028-4.929 2.015-.024.015-.066.002-.1.003.862-3.127.588-6.337.66-9.516.12-5.26.155-10.522.235-15.783.044-2.918.105-5.836.163-8.754.018-.937.354-1.238 1.303-1.112.57.075 1.133.215 1.696.337 4.529.982 8.846 2.57 13.08 4.437 1.76.776 3.127 2.029 4.522 3.245 6.104 5.32 10.869 11.657 14.2 19.046.64 1.419 1.289 2.843 1.617 4.379-.294-.133-.491-.37-.631-.642-.488-.944-1.179-1.736-1.872-2.524-.56-.636-1.066-1.313-1.594-1.973-.72-.901-1.252-1.937-2.057-2.771-.136-.141-.26-.35-.498-.263-.248.09-.196.341-.182.525.116 1.459-.365 2.805-.786 4.157-.553 1.778-1.392 3.442-2.102 5.158-.09.219-.129.54-.511.581-.565-1.112-1.123-2.25-1.425-3.455-.368-1.466-.995-2.805-1.663-4.133-.313-.622-.642-1.259-1.261-1.661Z"/><path fill="#949EE3" d="m132.742 144.718.007-15.473c.001-5.836.005-11.673-.004-17.509-.002-1.219.307-2.419.188-3.643-.032-.327.085-.694-.277-.92.175-.098.339-.233.526-.286.402-.115.672-.288.621-.772-.034-.322.171-.569.344-.825 3.018-4.47 6.031-8.944 9.046-13.415.55-.815 1.106-1.625 1.719-2.525.162.386.106.736.1 1.072-.072 4.172-.152 8.343-.222 12.514-.037 2.171-.017 4.344-.097 6.513-.14 3.76-.075 7.524-.211 11.282-.091 2.54-.223 5.09-.093 7.616.19 3.698-1.16 6.719-3.446 9.451-2.329 2.782-5.036 5.124-8.201 6.92Z"/><path fill="#ECCAA1" d="M168.43 121.533c.619.402.948 1.039 1.26 1.661.669 1.328 1.296 2.667 1.664 4.133.302 1.205.86 2.343 1.424 3.455.383-.041.422-.362.512-.581.71-1.716 1.549-3.38 2.102-5.158.421-1.352.901-2.698.786-4.157-.014-.184-.066-.435.182-.525.238-.087.362.122.498.263.805.834 1.337 1.87 2.057 2.771.528.66 1.034 1.337 1.594 1.973.693.788 1.384 1.58 1.872 2.524.14.272.337.509.631.642.705 1.598 1.009 3.303 1.299 5.002.426 2.489.485 4.998.034 7.492-.392 2.17-1.213 4.155-2.713 5.822-.784.871-1.768 1.493-2.735 2.109-3.769 2.399-7.82 4.207-12.091 5.515-.993.304-2.017.517-3.039.706-.258.048-.239-.246-.122-.443 1.147-.349 2.172-.948 2.983-1.803 1.678-1.768 2.785-3.919 3.723-6.134.591-1.396.9-2.898.964-4.432.059-1.433-.085-2.883.39-4.318-2.033 1.718-4.253 3.02-6.874 3.903.09-.709.524-1.086.805-1.484.437-.62.735-1.292 1.025-1.969a20.388 20.388 0 0 0 1.552-6.054c.172-1.777.333-3.569.245-5.366-.062-1.247.133-2.503-.19-3.742-.158-.607.229-1.191.162-1.805Z"/><path fill="#FEA849" d="M124.998 93.782c-.209-.6-.073-1.209.028-1.796.234-1.369.527-2.728.811-4.088.034-.164.124-.317.068-.489-.07-.215-.055-.492-.371-.541-.289-.045-.425.127-.549.351-.385.694-.565 1.455-.725 2.217a45.76 45.76 0 0 0-.474 2.704c-.064.432-.059.87.113 1.299.131.328-.026.53-.39.502-1.389-.105-2.772-.25-4.127-.6-.353-.09-.498-.31-.542-.645-.044-.335-.177-.677-.143-1.002.153-1.507.002-3.059.664-4.495.226-.49.357-1.024.569-1.522.14-.329.002-.538-.241-.684-.32-.192-.52.044-.647.29-.636 1.238-1.288 2.483-1.353 3.908-.053 1.142-.176 2.283-.028 3.545-.997-.349-1.728-.852-2.296-1.597-.061-.08-.159-.175-.154-.258.066-1.126-.502-2.11-.696-3.179-.194-1.069-.366-2.136-.392-3.225-.058-2.428.538-4.629 2.177-6.491 1.591-1.809 3.668-2.644 5.984-2.933 1.791-.224 3.59-.192 5.359.259.754.688 1.534 1.352 2.257 2.072 1.1 1.095 1.857 2.382 2.037 3.96.019.164.076.328.137.483.422 1.09.265 2.256.451 3.377a.34.34 0 0 1-.023.2c-.519 1.03-.692 2.18-1.161 3.232-.708 1.587-1.706 2.957-2.857 4.25-.395.442-.728.75-1.339.689-.258-.026-.552-.063-.733.22l.011-.006-1.425-.007ZM73.504 93.18c-.209-.131-.194-.356-.184-.545.09-1.709-.512-3.349-.495-5.05a2.422 2.422 0 0 0-.134-.797c-.105-.304-.34-.553-.685-.483-.322.066-.338.358-.314.654.097 1.18.113 2.368.384 3.53.184.792.187 1.603.21 2.48-1.181-.12-2.23-.6-3.254-1.088-1.763-.84-3.224-2.073-4.582-3.489-1.104-1.15-1.19-2.448-1.014-3.828.538-4.197 3.146-6.736 6.858-8.346 2.494-1.081 5.107-1.228 7.768-.953.265.027.522.136.783.207.769 1.294 1.647 2.502 2.18 3.958.46 1.256.637 2.535.881 3.817.05.258.008.544-.042.807-.159.826-.355 1.646-.357 2.495 0 .355-.117.662-.383.906-.144-.87-.377-1.71-.796-2.49-.098-.184-.198-.38-.44-.345-.329.048-.297.347-.286.56.017.333.098.665.164.995.193.96.364 1.92.316 2.906a14.148 14.148 0 0 1-1.808 1.893c-1.365 1.204-2.735 2.434-4.77 2.206Z"/><path fill="#FCE680" d="M92.838 98.316c.147-1.46-.035-2.907-.08-4.359-.025-.776-.248-1.54-.12-2.324.044-.27-.15-.46-.342-.588-1.275-.855-2.207-2.113-3.49-2.956-.198-.13-.39-.272-.6-.379-.68-.346-.65-.333-.49-1.063.17-.768.545-1.186 1.353-1.425 1.515-.448 3.062-.84 4.442-1.682.364-.222.55-.445.6-.843.23-1.856.93-3.6 1.318-5.42.034-.16.136-.312.233-.449.353-.497.716-.498 1.143.001.77.902 1.451 1.87 2.07 2.88.425.693.834 1.398 1.241 2.103.367.636.883.941 1.642 1.007 1.385.12 2.789.015 4.158.317.662.147 1.317.32 1.979.463.441.096.441.36.279.679-.107.21-.232.417-.381.6-.857 1.052-1.71 2.107-2.593 3.137-.291.34-.528.7-.738 1.09-.254.471-.371.89-.043 1.416.222.357.272.835.347 1.267.261 1.5.806 2.935.987 4.454.052.438.076.824-.313 1.092-.381.264-.745.145-1.138-.063-1.709-.907-3.415-1.814-5.055-2.845-.82-.515-.746-.408-1.25.146a6.69 6.69 0 0 1-1.824 1.44c-.662.349-1.024 1.066-1.722 1.406-.502.245-.931.64-1.393.97l-.22-.072Z"/><path fill="#DED9FE" d="M96.17 98.238c.618.836 1.177 1.722 1.603 2.677.688 1.541 1.384 3.072 2.492 4.398-.3.232-.577.156-.828.154-6.412-.031-12.824-.07-19.236-.11-.339-.002-.677-.034-1.016-.051-.21-.011-.465-.049-.525-.247-.225-.741-1-.984-1.38-1.594-.378-.607-.671-1.25-.977-1.89-.508-1.064-1-2.135-1.521-3.254 2.145-.877 4.232-1.756 6.34-2.586a80.878 80.878 0 0 0 7.673-3.486c.689-.357 1.379-.264 2.075-.305.31-.018.438.201.43.545-.03 1.424-.033 2.85-.04 4.275-.003.948.005 1.882.57 2.729.384.577.576.713 1.214.492.775-.268 1.48-.672 2.148-1.143.3-.21.555-.497.978-.604Z"/><path fill="#ECCAA1" d="M114.48 77.901c-.329-.044-.661-.007-.732-.506-.23-1.607-.445-3.21-.419-4.841.009-.576.196-.99.647-1.293.394-.263.789-.554 1.226-.718a18.1 18.1 0 0 0 5.858-3.595c1.196-1.09 2.609-1.9 3.759-3.04.457-.452.93-.891 1.347-1.378.908-1.062 2.01-1.933 3.084-2.781 1.045-.824 1.896-1.797 2.824-2.713.271-.268.516-.557.634-.912.247-.74.909-1.174 1.283-1.816.224-.384.699-.206.994-.434 1.683.402 3.306.988 4.921 1.597.535.203 1.06.432 1.641.67-1.137 1.372-2.349 2.585-3.685 3.648a97.853 97.853 0 0 0-5.08 4.34c-1.354 1.238-2.977 2.105-4.519 3.08-.744.47-1.5.92-2.238 1.4-.223.145-.42.34-.603.536-.491.525-.81 1.23-1.717 1.246-.356.007-.385.49-.14.837.491.696.951 1.414 1.407 2.097-.089.156-.185.166-.284.159-2.843-.201-5.417.584-7.792 2.11-.955.614-1.687 1.459-2.416 2.307Z"/><path fill="#84C1FB" d="M114.642 105.51c-3.363 0-6.658.007-9.952-.005-1.088-.004-1.429-.266-1.54-1.301-.191-1.774-.155-3.658.756-5.499.682.547 1.48.521 2.3.527.564.004.71-.261.783-.703.14-.843.105-1.697-.01-2.527-.083-.6.085-.94.551-1.269 1.564-1.102 3.279-1.728 5.2-1.787.418-.013.8.177 1.188.194 1.32.057 2.487.526 3.642 1.109 1.039.524 2.192.796 3.326.88.994.072 1.613.583 2.278 1.166 1.333 1.169 1.586 2.856 2.156 4.391.074.199-.076.311-.207.416-.176.141-.292.044-.417-.097-.984-1.099-2.125-1.984-3.485-2.581a2.058 2.058 0 0 1-.645-.487c-1.224-1.312-2.809-1.624-4.506-1.733-.667-.043-1.055.511-1.66.552-.212.014-.223.306-.231.514-.043 1.18-.138 2.347.097 3.536.201 1.023.219 2.092.218 3.14 0 .547.095 1.064.158 1.564Z"/><path fill="#ED751E" d="M126.412 93.794c.181-.282.475-.245.733-.219.61.062.944-.247 1.339-.69 1.151-1.292 2.149-2.662 2.857-4.25.469-1.05.642-2.202 1.161-3.23a.34.34 0 0 0 .023-.2c-.186-1.122-.029-2.288-.451-3.378a1.973 1.973 0 0 1-.137-.483c-.18-1.578-.938-2.865-2.037-3.96-.723-.72-1.503-1.384-2.258-2.072 1.192.25 2.381.505 3.49 1.038.212.102.445.178.676.22 1.768.312 3.163 1.35 4.589 2.33.222.153.446.305.667.456.583.4 1.137.836 1.464 1.508.439.9 1.12 1.68 1.286 2.718.185 1.16.235 2.306-.623 3.226-1.156 1.24-2.15 2.615-3.366 3.81-.773.758-1.613 1.352-2.59 1.75-2.182.892-4.445 1.446-6.823 1.426Z"/><path fill="#949EE3" d="M50.056 105.191c4.935-4.985 9.686-9.816 14.256-14.915 2.075 2.034 4.44 3.367 7.332 4.139-.483.275-.827.323-1.161.4-.33.076-.654.179-.986.24-.631.115-1.263.236-1.9.306-1.349.148-2.272.905-2.991 1.989-.15.224-.319.442-.51.63-1.655 1.631-2.89 3.583-4.198 5.477-.34.491-.785.927-.914 1.554-.072.352-.389.179-.586.18-2.006.011-4.011.003-6.017 0h-2.325Z"/><path fill="#D9F5FC" d="M60.361 105.23c.323-.745.547-1.292.916-1.793 1.143-1.555 2.22-3.16 3.593-4.534.214-.213.437-.452.551-.723.306-.726.906-1.011 1.604-1.144.799-.153 1.59-.337 2.405-.422 1.18-.123 2.29-.579 3.437-.86.191-.046.368-.203.575-.162 1.012.198 2.065.176 3.203.524-.592.403-1.113.65-1.664.745-.807.138-1.145.779-1.584 1.314-.161.197-.089.443.035.669 1.152 2.095 1.885 4.412 3.502 6.386H60.36Z"/><path fill="#B7B7BA" d="M115.392 97.29c.887.36 1.645.516 2.41.627.63.091 1.144.335 1.553.838.299.368.667.67 1.128.842 1.027.384 1.866 1.088 2.78 1.662.46.289.782.712 1.004 1.199.249.543.51.644.925.238.293-.285.615-.528.92-.794 1.165-1.017 2.528-1.723 3.922-2.325 1.161-.502 2.419-.78 3.682-1.172l.216 2.113c.021.202-.032.452.068.598.532.781.111 1.359-.29 2.02-.507.835-1.302 1.473-1.626 2.43-.096.283-.39.236-.618.235-.882-.005-1.764-.027-2.646-.038-3.896-.05-7.793-.101-11.689-.148-1.095-.013-1.175-.058-1.171-1.131.007-1.528-.068-3.045-.384-4.546-.175-.825.035-1.672-.184-2.648Z"/><path fill="#FEA849" d="M145.536 132.255c.033-.001.076.012.1-.003 1.513-.987 3.308-1.284 4.929-2.015 2.119-.956 4.321-1.721 6.324-2.936.927-.563 1.819-1.182 2.621-1.887 1.304-1.147 2.777-2.025 4.211-2.971.672-.444 1.324-.919 1.984-1.38.092.971-.381 1.774-.859 2.534-1.044 1.662-2.045 3.361-3.434 4.779-.142.145-.249.331-.407.452-1.714 1.32-3.296 2.816-5.19 3.894-.718.409-1.528.586-2.321.723-2.455.422-4.761 1.306-7.081 2.156a8.46 8.46 0 0 0-2.138 1.166c-.185.137-.36.342-.614.113.006-.432.319-.725.502-1.074.549-1.051 1.016-2.132 1.291-3.29.099-.059.138-.139.089-.251l-.007-.01Z"/><path fill="#949EE3" d="M144.371 87.279c-3.134 4.447-5.993 8.889-9.052 13.226a53.073 53.073 0 0 0-.558-2.78c-.077-.32-.196-.478-.528-.472-.339.007-.702-.087-1.012.005-1.292.382-2.654.57-3.859 1.196-.986.512-2.048.887-3.005 1.716-.403-1.796-.863-3.438-2.441-4.693 1.642-.04 3.052-.024 4.451-.23 1.686-.246 3.344-.607 4.896-1.309.497-.224 1.019-.139 1.539-.487 1.221-.819 1.955-2.044 2.951-3.04.597-.597 1.035-1.375 1.687-1.892.791-.627 1.643-1.262 2.759-1.242.666.011 1.333.002 2.172.002Z"/><path fill="#ED751E" d="M81.124 87.455c.266-.243.383-.551.383-.906.002-.849.198-1.669.357-2.495.05-.263.091-.55.042-.807-.244-1.282-.421-2.56-.881-3.817-.533-1.456-1.412-2.664-2.18-3.958.87.097 1.745.164 2.61.3.758.121 1.434.506 1.921 1.075 2.284 2.662 3.38 5.699 2.61 9.214-.614 2.797-2.397 4.694-5.095 6.167.484-1.718.4-3.245.233-4.773ZM98.477 30.523c-.176.28-.461.242-.73.243-.61.004-1.222.003-1.833.001-.434-.001-.929.101-.979-.569-.004-.054-.071-.143-.119-.15-.93-.129-.486-.691-.323-1.105.478-1.213.584-2.493.67-3.764a25.084 25.084 0 0 0-.001-3.662c-.122-1.541-.29-3.082-.47-4.62-.27-2.305-.976-4.57-.699-6.93.923 1.844 1.353 3.879 2.22 5.742 1.17 2.514 1.8 5.223 2.867 7.775.44 1.052.721 2.173 1.036 3.274.13.456.253.895.714 1.239-.551.162-1 .28-1.439.425-.84.278-1.517 1.19-.914 2.1Z"/><path fill="#FEEEE1" d="M133.846 32.397c-.719-2.994-1.436-5.988-2.158-8.981-.063-.263-.082-.58-.242-.769-.599-.703-.233-1.291.11-1.934.436-.818 1.044-1.498 1.673-2.152.727-.756 1.544-1.425 2.291-2.163.294-.29.67-.303 1.01-.432.272-.103.437.09.529.336-.416.512-.154 1.188-.439 1.747-.943 1.843-1.209 3.934-2.122 5.797-.437.892-.164 1.223.836 1.234.058 0 .116-.056.175-.085.342-.333.796-.487 1.209-.677.741-.341 1.129-.074 1.249.752-.586 1.4-1.182 2.793-1.849 4.16-.488 1-1.251 1.843-1.581 2.923-.113.372-.439.223-.691.244Z"/><path fill="#ED751E" d="M135.152 53.024c.018-.134-.01-.304.062-.398.695-.911.713-2.01.768-3.06.054-1.038-.061-2.094-.1-3.134-.077-2.093-.672-4.06-1.069-6.078-.013-.066-.03-.136-.021-.202.151-1.213-.473-2.28-.645-3.432.643.334.84-.362 1.22-.568.334.133.225.406.289.616.795 2.61 1.295 5.295 2.384 7.837.792 1.847 1.59 3.722 2.089 5.7.312 1.24.833 2.425 1.243 3.64.128.38.202.776.291 1.13-.13.19-.266.154-.389.102-1.879-.782-3.81-1.415-5.765-1.978-.125-.036-.238-.116-.357-.175Z"/><path fill="#949EE3" d="M114.313 91.8c-1.524-.176-2.824-.025-4.108.256-1.27.277-2.33 1.03-3.496 1.67-.355-1.085-.695-2.12-1.032-3.155-.074-.23-.121-.47.044-.674.725-.897 1.169-1.98 1.916-2.863.211-.248.406-.403.755-.404 1.253-.003 2.507-.029 3.759-.069.449-.014.675.14.759.602.197 1.09.4 2.17 1.071 3.12.252.357.046.915.332 1.517Z"/><path fill="#FEEEE1" d="M78.425 16.174c.36.742.668 1.344.803 1.998.238 1.15 1.04 1.941 1.763 2.75.794.889.88.843.431 1.893-.785 1.835-1.738 3.597-2.43 5.473l-1.476 3.991c-1.22-.994-2.62-3.942-1.816-7.427.545.348 1.078.67 1.593 1.02.547.371.6.326 1.072-.089.443-.39.543-.735.331-1.296-.273-.724-.413-1.497-.626-2.245-.41-1.446-.33-2.934-.394-4.41-.026-.62.299-1.087.749-1.658Z"/><path fill="#949EE3" d="M101.939 105.182c-.331.089-.369-.218-.496-.382-.922-1.183-1.624-2.492-2.191-3.878-.398-.975-.943-1.872-1.504-2.762-.166-.263-.423-.423-.66-.702.687-.546 1.314-1.138 2.144-1.474.33-.133.543-.106.824.1.729.535 1.401 1.143 2.186 1.61.613.364.605.467.315 1.146-.821 1.92-1.024 3.905-.65 5.956.024.13.006.268.008.402l.024-.016Z"/><path fill="#ED751E" d="M130.509 20.807c-.123-2.416-.285-4.814-.765-7.206-.567-2.824-1.573-5.498-2.394-8.236-.077-.255-.224-.49-.339-.735.43-.666.469-.669.793-.055.985 1.863 1.64 3.865 2.439 5.806.58 1.408.987 2.883 1.543 4.296.284.72.558 1.433.772 2.177.085.296.09.521-.099.747-.814.97-1.279 2.15-1.95 3.206Z"/><path fill="#949EE3" d="M86.83 88.504c.84.582 1.55 1.154 2.098 1.9-.352.543-.86.877-1.416 1.14a138.59 138.59 0 0 1-8.116 3.529c-.828.329-1.502.055-2.427-.208 4.28-.754 7.71-2.525 9.86-6.36Z"/><path fill="#ECCAA1" d="M133.846 32.397c.252-.02.578.128.691-.244.33-1.08 1.093-1.923 1.581-2.923.667-1.367 1.263-2.76 1.849-4.16.136 1.29-.102 2.52-.442 3.77-.358 1.318-1.096 2.433-1.614 3.659-.392.928-.716 1.881-1.329 2.853-.379-1.009-.489-2.001-.736-2.955Z"/><path fill="#D9F5FC" d="M199.606 111.585c-.225-.335.031-.648.037-.97.026-1.348.118-2.707-.009-4.044-.123-1.303-.934-2.281-2.012-3.015-.887-.603-1.898-1.034-2.604-1.89-.191-.23-.469-.402-.438-.757 1.721.499 3.207 1.376 4.433 2.697 1.652 1.781 2.009 3.842 1.377 6.124-.18.648-.394 1.291-.784 1.855Z"/><path fill="#ED751E" d="M73.504 93.18c2.035.228 3.405-1.002 4.77-2.206a14.143 14.143 0 0 0 1.808-1.893c.214 1.095-.152 2.151-.21 3.228-.012.237-.139.366-.36.428-1.973.547-3.96.91-6.008.443Z"/><path fill="#ECCAA1" d="M135.509 24.995c-.058.03-.117.085-.175.085-1-.011-1.273-.342-.836-1.234.913-1.863 1.18-3.954 2.122-5.797.285-.559.023-1.235.439-1.747.331 1.046-.01 2.06-.183 3.07-.213 1.241-.757 2.384-1.163 3.568a9.774 9.774 0 0 0-.429 1.669c-.036.226.079.3.225.386Z"/><path fill="#949EE3" d="M132.374 107.207h-13.356c-2.754-.001-5.509.001-8.264-.009-.364-.001-.753.103-1.084-.155 1.184-.009 2.368-.026 3.552-.026 6.028.001 12.055.005 18.083.015.361 0 .749-.099 1.069.175Z"/><path fill="#D9F5FC" d="M193.952 100.708a3.281 3.281 0 0 1-1.098-.123 18.363 18.363 0 0 0-4.572-.694c-.101-.002-.218.023-.301-.017-1.151-.555-2.383-.348-3.588-.389-.237-.008-.477.008-.652-.198 3.286-.085 6.519.272 9.688 1.165.186.052.411.045.523.256Z"/><path fill="#758DB4" d="m101.858 66.645 1.931.04c1.33.028 2.623-.194 3.942-.665-.482.684-.83.843-2.152 1.035.001-.467-.33-.306-.561-.277-1.062.135-2.115.124-3.16-.133Z"/><path fill="#ED751E" d="m124.998 93.782 1.425.007c-.476.213-.952.349-1.425-.007Z"/><path fill="#D9F5FC" d="M199.115 112.404c-.012-.353-.012-.7.461-.759-.13.267-.171.589-.461.759Z"/><path fill="#758DB4" d="M100.833 66.45c.286-.03.569-.05.802.166-.296.079-.546-.055-.802-.166Z"/><path fill="#ED751E" d="M134.138 36.708c-.297-.042-.393-.215-.323-.495.158.132.283.286.323.495Z"/><path fill="#D9F5FC" d="M194.571 100.906c-.233.033-.463.055-.607-.192.224-.003.451-.018.607.192Z"/><path fill="#949EE3" d="m101.915 105.198.109.118c-.03.004-.067.022-.087.01-.075-.042-.071-.095.002-.144l-.024.016Z"/><path fill="#ED751E" d="M145.543 132.265c.049.112.01.192-.089.251-.031-.105-.035-.201.089-.251Z"/><path fill="#FEA849" d="M143.645 136.934c.124.196.016.231-.155.222-.038-.137.017-.209.155-.222Z"/><path fill="#FEA849" d="M143.505 137.147c.028.18-.061.246-.229.237.038-.116.069-.239.229-.237Z"/><path fill="#090707" d="M95.94 54.333c1.325 1.468 2.884 2.022 4.631 2.149 1.489.108 2.982.056 4.467-.019 1.766-.088 3.465-.517 5.02-1.412.328-.189.418.042.457.3.043.287-.174.401-.372.544-.586.424-1.259.645-1.937.856-2.854.89-5.757 1.19-8.72.682-.88-.15-1.7-.465-2.418-1.001-.644-.48-1.134-1.063-1.129-2.1Z"/><path fill="#080606" d="M101.933 49.07c1.09.153 2.195.288 3.171.911.364.232.461.503.212.835-.827 1.1-1.904 1.81-3.284 2.02-.333.052-.6-.117-.842-.293-.645-.467-1.063-1.141-1.467-1.799-.29-.472.309-1.45.878-1.533.435-.065.875-.094 1.332-.14Z"/></g><defs><clipPath id="a"><path fill="#fff" d="M0 0h216v185H0z"/></clipPath></defs></svg>
