<!-- This Source Code Form is subject to the terms of the Mozilla Public
   - License, v. 2.0. If a copy of the MPL was not distributed with this
   - file, You can obtain one at http://mozilla.org/MPL/2.0/. -->
<svg xmlns="http://www.w3.org/2000/svg" height="96" viewBox="0 0 216 164" fill="none"><g clip-path="url(#a)"><path fill="#080606" d="M0 85.494c.511.036.766-.239.824-.711.035-.29.171-.493.443-.556 1.076-.25 2.084-.692 3.274-.493 4.599.771 9.216 1.434 13.822 2.164 4.315.683 8.618 1.45 12.94 2.09 3.677.543 7.323 1.263 11.015 1.728 3.936.497 7.848 1.187 11.769 1.803 3.915.616 7.83 1.233 11.742 1.872 2.33.381 4.653.797 6.976 1.214.83.149.852.17.9 1.004.021.357.166.653.374.877.557.599.677 1.334.825 2.088.952 4.855 1.94 9.704 2.886 14.56.896 4.607 1.75 9.222 2.633 13.832.212 1.107.47 2.205.694 3.309.038.184.038.389.288.361 1.935-.217 3.703.559 5.534.939 1.71.356 3.395.827 5.106 1.251.218-.379.064-.739.053-1.083-.155-5.244 1.87-9.441 6.136-12.488 3.034-2.169 6.441-3.169 10.2-2.869.507.041 1.026.409 1.493.163.481-.253.332-.912.584-1.353.466-.817.975-1.603 1.535-2.356.979-1.315 1.567-2.854 2.456-4.222.514-.791 1.023-1.584 1.643-2.296.43-.495.828-.996 1.087-1.612.168-.401.497-.707.806-1.025.913-.94 1.775-1.911 2.291-3.159.259-.626.731-1.155 1.212-1.663 1.182-1.247 2.071-2.7 2.907-4.27-1.829-.888-3.646-1.703-5.346-2.733-2.487-1.508-4.89-3.124-7.114-5.021-1.467-1.252-2.927-2.514-4.389-3.772-1.493-1.285-2.763-2.799-4.102-4.24-1.042-1.12-2.082-2.248-3.18-3.312-1.21-1.173-2.236-2.504-3.292-3.801-.736-.903-.816-2.121-.488-3.197.986-3.235 2.083-6.437 3.148-9.649 1.317-3.971 2.644-7.939 3.97-11.907.187-.56.112-1.05-.255-1.527-1.025-1.33-1.577-2.934-2.487-4.34-.693-1.069-.89-2.373-1.255-3.588-.517-1.723-.575-3.486-.428-5.27.07-.864.403-1.514 1.139-2.002.418-.277.787-.481 1.308-.324.306.092.646.075 1.027.112-.041-.927-.04-1.86-.13-2.783-.194-1.996-.317-4.009-.137-5.99.125-1.37.032-2.87 1.101-4.063.388-.433.483-1.119.925-1.586.971-1.027 2.388-1.075 3.575-.3.999.652 1.592 1.478 1.97 2.582.385 1.128.916 2.206 1.406 3.296.158.35.389.665.656 1.111.661-1.443 1.161-2.797 1.788-4.096 2.543-5.275 5.002-10.591 7.746-15.768.202-.38.297-.816.479-1.208.473-1.025 1.325-1.1 1.978-.2 1.978 2.73 3.455 5.724 4.745 8.826.81 1.948 1.727 3.852 2.532 5.803.47 1.137.806 2.329 1.218 3.49.727 2.05 1.428 4.107 1.978 6.213.357 1.366.761 2.723 1.112 4.085.359 1.391.837 2.771.966 4.218.049.552.339.685.802.544.658-.201 1.344-.265 1.982-.59 1.024-.52 2.192-.559 3.306-.681 2.388-.261 4.79-.319 7.197-.298 1.998.017 3.998-.106 6.017-.167.345-1.26.356-2.537.641-3.772.983-4.256 2.275-8.416 3.787-12.509a107.52 107.52 0 0 1 3.751-8.845c.97-2.045 2.161-3.959 3.443-5.818.163-.237.383-.439.596-.637.682-.635 1.478-.578 2.002.165.924 1.308 1.67 2.717 2.324 4.177.281.626.583 1.245 1.117 1.712a.873.873 0 0 1 .249.356c.474 1.443 1.326 2.71 1.922 4.103.738 1.726 1.427 3.492 2.339 5.148.314.571.52 1.207.995 1.7.535-.48.72-1.182 1.174-1.708 1.09-1.266 3.141-1.045 3.812.502.502 1.159.851 2.385 1.24 3.59.46 1.428.545 2.915.646 4.399.072 1.048.324 2.08.241 3.111.09.07.14.144.196.149 1.528.14 1.97.509 2.157 2.048.229 1.878.291 3.76.006 5.651-.353 2.349-1.025 4.598-1.885 6.801-.066.17-.115.346-.183.515-.402.999-.252 1.806.346 2.794.991 1.639 2.118 3.187 3.142 4.8a235.64 235.64 0 0 1 4.151 6.764c.455.772.876 1.547 1.146 2.435.287.946.894 1.796 1.377 2.717-1.625 2.26-3.071 4.656-4.512 7.048-1.094 1.815-2.43 3.442-3.589 5.2-.161.242-.34.48-.548.682-1.517 1.468-2.842 3.122-4.421 4.53-.271.241-.566.488-.746.794-.566.962-1.451 1.626-2.202 2.408-.844.877-1.734 1.724-2.736 2.428-.284.2-.262.391-.125.646.484.896.964 1.794 1.442 2.693.109.205.274.192.462.15 1.555-.345 3.12-.14 4.68-.06 3.716.193 7.427.474 11.149.585 2.843.084 5.681.315 8.521.478 1.021.06 2.043.135 3.065.155.504.01.805.181 1.011.65.234.53.52 1.045.837 1.531.419.642.425 1.315.188 1.986-.905 2.563-1.586 5.192-2.355 7.795-.761 2.582-1.559 5.153-2.339 7.73-.031.104-.044.213-.082.405.943-.004 1.855.085 2.75.39 2.41.821 4.216 2.4 5.668 4.422 1.489 2.072 2.317 4.424 2.819 6.905.578 2.857.532 5.708-.012 8.565-.711 3.737-2.297 7.05-4.838 9.875-1.811 2.013-3.997 3.502-6.678 4.104-1.849.415-3.704.64-5.603.072-.838-.251-1.759-.268-2.64-.413-1.522-.25-2.86-.781-4.058-1.724-.05-.039-.136-.034-.258-.062-.273 1.338-1.631 1.235-2.478 1.838-.071.051-.128.018-.189-.048-.472-.511-1.097-.299-1.659-.321-2.332-.095-4.666-.232-6.997-.213-2.368.02-4.731-.047-7.095-.111-3.794-.105-7.585-.285-11.379-.337-1.048-.015-1.732-.438-2.285-1.203-.585-.809-1.285-1.578-1.143-2.711.062-.498-.268-.586-.697-.573-1.168.036-2.336.052-3.504.06-5.432.037-10.864.012-16.296-.076-3.23-.053-6.46-.076-9.69-.106-.897-.009-1.806 1.023-1.649 1.915.138.787-.147 1.579.12 2.371.121.361.389.626.41 1.082.046 1.016-.336 1.622-1.21 2.1-1.723.944-3.539 1.671-5.341 2.429-3.895 1.636-7.81 3.224-11.709 4.85-5.006 2.088-10.003 4.194-15.005 6.292-2.483 1.041-4.969 2.073-7.446 3.127-.47.2-.91.381-1.14-.253-.089-.249-.215-.246-.39-.212-.178.035-.35.097-.522.15-.94.289-1.853-.006-2.719-.25-4.063-1.144-8.15-2.195-12.235-3.258-5.742-1.494-11.473-3.032-17.212-4.54-4.295-1.128-8.597-2.227-12.892-3.357-6.415-1.689-12.826-3.395-19.24-5.092-.282-.075-.565-.201-.848-.203-.502-.003-.739-.31-1.065-.628-1.384-1.352-1.64-3.201-2.185-4.895-.933-2.906-1.758-5.849-2.578-8.788-1.025-3.68-2.172-7.323-3.172-11.01-1.133-4.177-2.395-8.318-3.567-12.484-1.112-3.957-2.147-7.937-3.278-11.89-.982-3.43-1.871-6.883-2.794-10.329-.055-.203.017-.58-.419-.39v-.218Zm104.875-63.555c-.472 1.84-.346 3.702-.063 5.54a72.695 72.695 0 0 0 1.714 8.12c.06.221.205.476-.037.693-.285-.008-.494-.137-.668-.34-.69-.8-1.391-1.59-2.067-2.403-.329-.395-.671-.77-1.085-1.074-.271-.198-.565-.381-.905-.189-.313.177-.216.5-.224.785-.056 1.96.408 3.833.982 5.682.884 2.847 2.077 5.53 4.187 7.719.391.405.627.958 1.201 1.311 1.115-2.757 1.903-5.554 2.82-8.305.946-2.45 1.697-4.961 2.359-7.502.173-.663.154-1.283-.103-1.91-.304-.742-.582-1.494-.889-2.234-1.284-3.093-2.463-6.23-3.926-9.249-.323-.668-.771-1.141-1.436-1.415-.46-.188-.822-.136-1.038.417-.547 1.403-1.027 2.812-.822 4.354ZM121.21 9.636l.011-.015c-.302.189-.386.525-.525.814-2.102 4.365-4.377 8.644-6.505 12.995-.927 1.894-1.685 3.905-.394 5.996.074.121.087.279.15.41.377.79.566 1.477.126 2.422-.67 1.438-.829 3.077-1.338 4.6-1.015 3.039-1.935 6.11-2.987 9.138-.405 1.166-.978 2.28-1.168 3.517-.04.257-.039.535-.368.583-.304.045-.408-.179-.558-.41-.504-.777-1.061-1.52-1.833-2.23-2.288 7.335-4.709 14.5-7.006 21.924 1.98-.975 3.852-1.445 5.758-1.788 1.69-.305 3.408-.345 5.113-.505.219.007.438.023.656.02 6.067-.07 12.016.752 17.839 2.43 3.093.892 6.085 2.037 8.829 3.772.632.4 1.171.952 1.915 1.295.967-3.3 3.166-5.557 5.897-7.377-.393-.547-1.053-.705-1.164-1.29-.321-1.684-.647-3.374-.095-5.078.262-.809.936-1.218 1.976-1.197.665.014 1.249.416 1.341 1.205.127 1.088.521 2.123.537 3.228.023 1.742.038 1.74 1.694 1.223 3.19-.996 6.432-1.242 9.727-.655.709.127 1.41.296 2.135.45.11-.34.042-.627.027-.915-.056-1.092-.161-2.186-.063-3.278.089-1.001.68-1.622 1.537-1.7.909-.081 1.766.467 1.902 1.43.238 1.684.512 3.392-.449 4.998-.43.719-.392.782.389 1.265 1.542.955 2.854 2.143 3.907 3.62.226.316.353.719.775.95.379-.651.861-1.192 1.385-1.698.527-.508 1.082-.98 1.692-1.388 5.108-3.41 10.792-5.24 16.823-6.116 1.359-.197 2.731-.244 3.973-.246.21-.223.165-.342.116-.428-.751-1.321-1.415-2.685-2.208-3.987-1.702-2.797-3.508-5.526-5.229-8.308-.863-1.395-2.049-2.675-1.877-4.586.109-1.213-.074-2.471-.288-3.695-.377-2.153-.629-4.337-1.161-6.45-.648-2.574-1.28-5.16-2.183-7.667-.567-1.573-.974-3.205-1.56-4.77-1.461-3.9-3.579-7.502-5.2-11.331-.67-1.583-1.686-2.986-2.384-4.55-.329-.736-.829-1.36-1.173-2.083-.22-.462-.561-.47-.835-.074-.498.72-1.027 1.432-1.414 2.211-1.117 2.251-2.258 4.492-3.241 6.809a107.958 107.958 0 0 0-4.037 11.208c-1.025 3.422-1.833 6.9-2.243 10.46-.083.723-.339.873-1.015.604a4.227 4.227 0 0 0-1.264-.307c-4.687-.361-9.345-.003-13.989.591-1.183.152-2.348.438-3.45.976-.717.349-1.386.81-2.17 1.024-.293.08-.594.188-.722-.211-.398-1.243-1.058-2.395-1.159-3.742-.063-.83-.205-1.679-.479-2.46-.447-1.27-.652-2.597-1.037-3.878-.355-1.182-.554-2.403-.957-3.576-.413-1.2-.8-2.405-1.256-3.593-.651-1.695-1.172-3.435-1.86-5.124-1.155-2.833-2.309-5.666-3.586-8.446-.361-.785-.604-1.684-1.385-2.341-.662 1.523-1.422 2.89-1.956 4.363a.375.375 0 0 0-.18.362l-.032.079c-.177.129-.244.31-.247.52ZM104.835 119.26c-.296-.049-.576.018-.858.104-4.505 1.373-7.504 4.309-9.016 8.746-.683 2.003-.585 4.009.216 5.976.137.337.29.675.364 1.028.338 1.589 1.333 2.726 2.538 3.709 1.22.995 2.561 1.798 4.037 2.362.509.195 1 .477 1.66.506l-.695-1.842c-.108-.646-.219-1.291-.322-1.938-.247-1.56-.223-3.128-.065-4.692.09-.897.455-1.651 1.294-2.121.29.378.058.678-.01.975-.735 3.207-.342 6.298.913 9.311.247.592.643.94 1.278 1.055 2.885.518 5.777.874 8.713.511 1.042-.129 1.074-.162 1.102-1.16.007-.256.025-.515-.008-.766-.206-1.559-.176-3.129-.231-4.695-.036-1.018.063-2.041-.116-3.055-.045-.251.069-.422.317-.495.277-.082.374.097.481.308.275.542.275 1.125.301 1.706.108 2.403.213 4.807.321 7.21.031.678.074.736.681.621 1.47-.277 2.948-.541 4.329-1.145 1.146-.501 2.168-1.139 2.858-2.26.536-.869 1.036-1.756 1.564-2.627.475-.786.686-1.63.653-2.491a10.26 10.26 0 0 0-1.787-5.437c-2.139-3.164-5.068-5.424-8.392-7.204-2.548-1.365-5.161-2.571-8.147-2.579-.072 0-.144-.03-.216-.03-1.267-.001-2.546-.109-3.757.409Zm85.311 10.267c-1.179-.803-2.485-1.27-3.983-1.582-.018 1.414.019 2.713.264 3.994.738 3.846 2.764 6.799 6.204 8.721.654.366 1.254.816 2.023 1.016 1.417.368 2.854.427 4.295.515 1.909.339 3.775.082 5.579-.531 2.847-.967 4.749-3.058 6.183-5.584 1.686-2.969 2.454-6.207 2.497-9.615.037-2.96-.5-5.795-1.97-8.396-1.159-2.049-2.708-3.701-4.995-4.513-.891-.317-1.784-.639-2.698-.87-1.609-.408-3.252-.266-4.878-.13-.666.055-1.391.045-1.971.505-2.049.415-5.037 2.422-5.805 3.933.538-.058.994.221 1.501.241 1.285.302 2.444.922 3.642 1.443.74.321 1.376.812 1.966 1.361.403.375.71.827 1.018 1.278.093.136.1.259-.032.383-.13.121-.255.12-.383.014-.169-.138-.332-.283-.497-.426-.637-.551-1.302-1.076-2.115-1.325-.838-.257-1.627-.621-2.421-.977-.667-.299-1.341-.559-2.081-.595-.161-.078-.316-.18-.485-.232-1.084-.337-1.1-.344-1.74.626-1.462 2.211-2.475 4.595-2.92 7.231-.11.651.125.923.591 1.02 1.043.219 1.962.765 2.979 1.037 1.598.972 3.339 1.785 4.24 3.705-.684.133-1.141-.027-1.485-.432-.693-.817-1.574-1.361-2.523-1.815Zm-26.532-41.214c-1.998 1.563-4.343 2.223-6.804 2.425a17.518 17.518 0 0 1-7.533-1.03 13.83 13.83 0 0 1-5.651-3.812c-.563-.626-.973-1.37-1.498-2.019-1.253-1.548-1.975-3.29-2.24-5.251-.158-1.172-.645-2.154-1.777-2.706a3.65 3.65 0 0 1-.642-.408c-1.736-1.367-3.679-2.368-5.72-3.175-6.839-2.704-13.98-3.791-21.297-3.9-.282-.005-.587-.057-.85.122-.217-.025-.436-.08-.652-.07-2.262.115-4.512.344-6.708.922a14.41 14.41 0 0 0-1.963.68c-.768.327-.807.717-.263 1.335 2.184 2.483 4.645 4.705 6.819 7.194 1.249 1.43 2.681 2.651 4.087 3.912 1.864 1.672 3.716 3.357 5.761 4.804 2.556 1.808 5.203 3.467 8.07 4.766.825.375 1.687.657 2.502 1.061.541.269.595.547.368 1.026-.108.227-.138.495-.338.672-1.316 1.163-2.029 2.753-2.745 4.268-.875 1.85-1.562 3.795-1.754 5.902-.273 2.994-1.134 5.913-1.203 8.949-.014.635.027 1.31-.113 1.942-.402 1.821-.472 3.66-.419 5.515.018.633.226 1.062.749 1.45 1.681 1.245 3.161 2.709 4.369 4.422 1.904 2.699 3.223 5.562 2.336 8.99-.023.09-.006.146.165.208.581-.209 1.259-.2 1.94-.196 2.663.019 5.326-.003 7.988.051 2.477.05 4.956-.019 7.43.151.283.02.585.108.837-.119l-.044-.002c.839.254 1.697.114 2.548.123 3.061-.009 6.118.189 9.181.12.691-.016.92-.224 1.124-.806 1.504-4.295 3.036-8.581 4.563-12.869 3.407-9.573 6.819-19.144 10.218-28.719.157-.442.443-.874.382-1.356-.082-.656.29-1.018.738-1.355.546-.411 1.101-.812 1.635-1.204-.507-1.162-1.427-1.9-2.233-2.724-.335-.344-.455-.681-.143-1.044.759-.884 1.467-1.84 2.352-2.583a33.822 33.822 0 0 0 3.698-3.651c1.365-1.561 2.826-3.031 4.225-4.556 1.534-1.671 2.939-3.44 4.274-5.25 1.547-2.099 2.849-4.378 4.246-6.56-.212-.305-.467-.39-.774-.386-.548.005-1.096-.019-1.644-.006-2.719.066-5.361.618-7.97 1.33-3.75 1.025-7.333 2.449-10.532 4.7-1.165.82-2.235 1.75-2.836 3.118-.159.362-.223.648-.085 1 .638 1.632.774 3.335.616 5.056-.192 2.08-1.069 3.842-2.641 5.238-.164.146-.333.315-.671.303.296-.408.534-.73.765-1.057 2.602-3.686 2.057-8.084-.021-11.088a23.419 23.419 0 0 0-3.113-3.67 8.852 8.852 0 0 0-2.939-1.844c-3.723-1.441-7.506-1.432-11.294-.406-3.158.855-5.951 2.385-8.123 4.908-1.268 1.473-2.284 3.144-2.275 5.086.008 1.8.468 3.6 1.22 5.285.899 2.017 2.302 3.599 4.033 4.952 3.794 2.966 8.095 3.84 12.787 3.252 1.8-.225 3.435-.946 5.094-1.603.157.004.301.036.388.187ZM2.879 86.132l-.181.152c.64.358.782.97.964 1.543.848 2.67 1.687 5.343 2.492 8.025 1.327 4.42 2.64 8.843 3.931 13.273 1.223 4.193 2.36 8.413 3.632 12.591 1.147 3.761 2.133 7.566 3.241 11.337.994 3.384 1.9 6.794 2.846 10.192.113.409.138.832.816.679.394-.089.863.092 1.285.2 6.6 1.689 13.197 3.383 19.794 5.081a5835 5835 0 0 1 13.021 3.365c5.283 1.373 10.561 2.763 15.845 4.13 2.926.758 5.871 1.442 8.785 2.242 1.824.5 3.694.832 5.475 1.487.583.214 1.162.501 1.576-.312.09-.177.44-.229.674-.327a43866.992 43866.992 0 0 1 21-8.681c3.466-1.431 6.933-2.859 10.398-4.291a689.56 689.56 0 0 0 5.246-2.187c.511-.217.823-.95.56-1.435-.26-.481-.746-.263-1.152-.192-.141.024-.272.105-.408.158-10.768 4.2-21.536 8.401-32.305 12.598a320.987 320.987 0 0 1-5.007 1.913c-1.317.489-1.736.264-2-1.045-.549-2.71-1.094-5.422-1.622-8.137-.791-4.072-1.577-8.145-2.345-12.221-.465-2.468-1.028-4.914-1.553-7.369-.835-3.913-1.457-7.872-2.23-11.799-1.04-5.285-1.953-10.592-2.896-15.895-.21-1.183-.437-2.363-.67-3.542-.052-.268-.09-.696-.49-.541-.718.278-1.318-.155-1.974-.201-2.04-.142-4.035-.592-6.054-.878-2.703-.382-5.387-.891-8.083-1.323-2.554-.41-5.121-.746-7.669-1.193-4.698-.825-9.395-1.66-14.11-2.39a3067.541 3067.541 0 0 1-16.73-2.642c-3.201-.514-6.395-1.073-9.592-1.61-1.503-.253-3.006-.503-4.51-.755Zm198.287 25.014c.054-.975.625-1.712.912-2.625.95-3.02 1.822-6.064 2.72-9.1.495-1.67.996-3.338 1.47-5.014.224-.793-.064-1.188-.846-1.232-5.535-.313-11.071-.62-16.606-.937-2.984-.17-5.967-.339-8.948-.552-.553-.04-.747.086-.893.627a70.135 70.135 0 0 1-1.396 4.599c-3.433 9.951-6.89 19.895-10.335 29.843-1.513 4.372-3.016 8.747-4.522 13.122-.392 1.14-.389 1.154.863 1.212 2.185.103 4.37.23 6.556.271 2.404.045 4.804.171 7.212.174 3.537.004 7.074.248 10.611.39.146.006.292.031.437.025.266-.013.95-.721 1.008-1.067.051-.302-.22-.43-.4-.591-.708-.633-1.396-1.28-1.945-2.065-2.066-2.955-2.831-6.245-2.671-9.815.182-4.061 1.425-7.767 3.911-10.947 3.435-4.392 6.948-7.071 12.862-6.318Zm-116.23 45.61 30.551-11.982c-.462-.253-.751-.175-1.03-.163-4.287.184-8.439-.42-12.412-2.098-2.316-.978-4.428-2.249-6.05-4.209-.532-.642-1.001-1.341-1.45-2.045-.267-.419-.571-.534-1.07-.565-.793-.05-1.597-.083-2.384-.284-3.315-.85-6.637-1.673-9.957-2.503-.235-.059-.48-.201-.773.052l4.575 23.797Zm99.92-125.38c-.131-1.44-.346-2.812-.359-4.187-.023-2.318-.541-4.552-.973-6.803-.101-.526-.343-1.044-.609-1.515-.432-.765-1.035-.784-1.522-.045-.46.7-.866 1.437-1.259 2.177-.529 1-.525 1.996.003 3.023.534 1.037.875 2.155 1.222 3.27.487 1.562.803 3.169 1.255 4.736.675 2.346 1.245 4.708 1.636 7.115.124.763.217 1.537.552 2.473.449-1.196.87-2.199 1.201-3.23.613-1.907 1.224-3.82 1.138-5.865-.019-.436-.012-.874-.16-1.296-.244-.694-.589-.822-1.216-.414-.262.171-.395.53-.909.56Zm-65.465 89.751c-.106-1.227.01-2.203.126-3.178.112-.938.311-1.869.377-2.81.067-.982.141-1.96.255-2.938.113-.974.197-1.945.441-2.903.234-.915.346-1.86.538-2.787.464-2.242.47-2.241.192-2.783-.387.757-.955 1.324-1.5 1.911-.248.266-.556.539-.659.865-.25.798-.782 1.389-1.286 2.006a16.45 16.45 0 0 0-1.806 2.713 29.424 29.424 0 0 1-2.305 3.689c-.508.69-1.014 1.421-1.215 2.298-.184.803-.181.882.574 1.106 1.652.49 3.218 1.177 4.737 1.978.443.233.88.478 1.531.833Zm41.032 20.025 17.336-49.512c-1.035.435-1.643 1.047-1.729 2.134-.039.494-.283.975-.454 1.456-1.045 2.948-2.125 5.884-3.141 8.843-3.404 9.912-7.008 19.754-10.507 29.633-.631 1.781-1.254 3.566-1.888 5.346-.252.709-.404 1.392.383 2.1Z"/><path fill="#B7B7BA" d="M2.88 86.132c1.503.252 3.006.502 4.509.755 3.197.537 6.391 1.096 9.592 1.61 5.574.896 11.15 1.776 16.73 2.641 4.715.731 9.412 1.566 14.11 2.391 2.548.447 5.115.783 7.67 1.193 2.695.432 5.38.94 8.082 1.323 2.019.286 4.013.736 6.054.878.656.046 1.256.479 1.975.2.398-.154.437.274.49.542.232 1.179.459 2.359.67 3.542.942 5.303 1.855 10.61 2.895 15.895.773 3.928 1.395 7.886 2.23 11.799.525 2.455 1.088 4.901 1.553 7.369.768 4.077 1.554 8.149 2.346 12.221.527 2.715 1.072 5.427 1.62 8.137.265 1.309.684 1.534 2 1.045a331.717 331.717 0 0 0 5.007-1.912c10.77-4.198 21.538-8.399 32.306-12.599.136-.053.267-.134.408-.158.406-.071.892-.289 1.152.192.263.485-.049 1.218-.56 1.435a689.56 689.56 0 0 1-5.246 2.187c-3.465 1.432-6.932 2.86-10.397 4.291a43866.992 43866.992 0 0 0-21 8.681c-.235.098-.584.15-.674.327-.415.814-.994.526-1.577.312-1.781-.655-3.65-.987-5.475-1.487-2.914-.8-5.859-1.484-8.785-2.242-5.284-1.367-10.562-2.757-15.845-4.13-4.339-1.127-8.68-2.248-13.02-3.365-6.598-1.698-13.196-3.392-19.795-5.081-.422-.108-.891-.289-1.285-.2-.678.153-.703-.27-.816-.679-.946-3.398-1.851-6.808-2.846-10.192-1.107-3.771-2.094-7.576-3.24-11.337-1.274-4.178-2.41-8.398-3.633-12.591a1775.45 1775.45 0 0 0-3.93-13.273 527.86 527.86 0 0 0-2.492-8.025c-.183-.573-.325-1.185-.965-1.543l.181-.152Z"/><path fill="#FEA849" d="M121.669 8.675c.534-1.473 1.294-2.841 1.956-4.364.781.657 1.024 1.556 1.385 2.341 1.277 2.78 2.431 5.613 3.586 8.446.688 1.69 1.209 3.43 1.86 5.124.456 1.188.843 2.393 1.256 3.593.403 1.173.602 2.394.957 3.576.385 1.281.59 2.607 1.036 3.878.275.781.417 1.63.479 2.46.102 1.347.762 2.5 1.16 3.742.128.4.429.29.722.21.783-.213 1.453-.674 2.17-1.023 1.102-.537 2.267-.824 3.45-.975 4.644-.595 9.302-.953 13.989-.592.446.034.851.142 1.264.307.676.269.932.119 1.015-.605.41-3.559 1.218-7.037 2.243-10.459a108.185 108.185 0 0 1 4.036-11.208c.984-2.317 2.125-4.558 3.242-6.809.387-.78.916-1.491 1.414-2.211.274-.397.615-.387.835.074.344.723.844 1.347 1.173 2.084.698 1.563 1.714 2.966 2.384 4.549 1.621 3.829 3.739 7.431 5.199 11.331.587 1.565.994 3.197 1.561 4.77.903 2.508 1.535 5.093 2.183 7.667.532 2.113.784 4.297 1.161 6.45.214 1.224.397 2.482.288 3.695-.172 1.911 1.014 3.19 1.877 4.586 1.721 2.782 3.527 5.511 5.229 8.308.793 1.302 1.457 2.666 2.207 3.986.05.087.095.206-.115.429-1.242.002-2.614.05-3.973.247-6.031.875-11.715 2.706-16.824 6.115-.609.407-1.164.88-1.691 1.388-.524.506-1.006 1.047-1.385 1.698-.422-.231-.549-.634-.775-.95-1.053-1.477-2.365-2.665-3.907-3.62-.781-.483-.819-.546-.389-1.264.961-1.607.687-3.315.449-5-.136-.962-.993-1.51-1.902-1.428-.857.077-1.448.698-1.537 1.699-.098 1.092.007 2.186.063 3.278.015.288.083.575-.028.915-.724-.154-1.425-.323-2.134-.45-3.295-.587-6.537-.341-9.727.655-1.657.518-1.671.52-1.694-1.223-.016-1.105-.41-2.14-.537-3.228-.092-.79-.676-1.191-1.342-1.205-1.039-.021-1.713.388-1.975 1.197-.552 1.704-.226 3.394.095 5.078.111.585.771.743 1.164 1.29-2.731 1.82-4.931 4.077-5.897 7.377-.744-.343-1.283-.895-1.915-1.294-2.744-1.736-5.737-2.88-8.829-3.772a61.487 61.487 0 0 0-17.839-2.43c-.218.002-.437-.014-.656-.021.053-.842-.241-1.646-.248-2.49-.016-1.967.109-3.918.434-5.857.366-2.18.748-4.355 1.1-6.536.118-.73.513-1.355.687-2.066.892-3.632 1.842-7.25 2.72-10.885 1.081-4.48 2.387-8.902 3.319-13.418.103-.502.069-1.006.195-1.51.437-1.758.801-3.534 1.205-5.3.388-1.696.678-3.414 1.082-5.1.31-1.298.519-2.639 1.071-3.877.051-.115-.017-.283-.03-.427l-.01.015c.305-.069.288-.289.245-.52l.033-.08c.146-.078.206-.199.18-.361Z"/><path fill="#FEEEE1" d="M109.602 68.56c.262-.179.568-.127.85-.122 7.317.108 14.458 1.195 21.297 3.9 2.041.807 3.984 1.808 5.72 3.175.199.156.416.297.642.407 1.132.553 1.619 1.535 1.777 2.707.265 1.96.987 3.703 2.24 5.251.525.648.935 1.393 1.498 2.019a13.823 13.823 0 0 0 5.651 3.812 17.516 17.516 0 0 0 7.533 1.03c2.461-.202 4.806-.862 6.804-2.425.522-.23.97-.548 1.217-1.14l-1.605.953c-1.66.657-3.294 1.378-5.094 1.603-4.692.587-8.993-.286-12.788-3.252-1.73-1.353-3.133-2.935-4.032-4.952-.752-1.685-1.212-3.484-1.22-5.285-.009-1.942 1.006-3.613 2.274-5.086 2.173-2.523 4.966-4.052 8.124-4.908 3.788-1.026 7.571-1.035 11.294.406a8.852 8.852 0 0 1 2.939 1.844 23.419 23.419 0 0 1 3.113 3.67c2.078 3.004 2.622 7.401.021 11.088-.231.327-.469.649-.765 1.057.337.012.507-.157.671-.303 1.572-1.396 2.449-3.159 2.641-5.238.158-1.721.022-3.424-.617-5.057-.137-.35-.073-.637.086-1 .601-1.368 1.671-2.298 2.836-3.117 3.199-2.251 6.782-3.675 10.532-4.7 2.609-.712 5.251-1.264 7.97-1.33.548-.013 1.096.011 1.643.006.307-.003.563.08.775.385-1.397 2.183-2.699 4.462-4.246 6.56-1.335 1.81-2.74 3.58-4.274 5.251-1.399 1.525-2.86 2.995-4.225 4.556a33.91 33.91 0 0 1-3.698 3.65c-.885.743-1.593 1.7-2.352 2.584-.312.363-.192.7.143 1.044.806.825 1.726 1.562 2.233 2.724-.534.392-1.089.793-1.635 1.204-.448.337-.82.699-.738 1.355.06.482-.225.914-.382 1.356-3.4 9.575-6.811 19.146-10.219 28.719-1.526 4.288-3.058 8.574-4.562 12.869-.204.582-.434.79-1.124.806-3.063.069-6.12-.129-9.181-.12-.834-.369-1.694-.185-2.549-.123l.045.002c-.653-.201-1.598.239-1.855-.847-.012-.052-.196-.076-.303-.089-.299-.037-.416-.282-.557-.486-.473-.688-.995-1.34-1.356-2.107-.574-1.217-1.157-2.433-1.812-3.607-.523-.936-.797-1.936-1.059-2.957-.308-1.198-.475-2.42-.687-3.633-.337-1.924-.895-3.818-.852-5.799.005-.215-.044-.433-.077-.648-.187-1.253-.38-2.505-.566-3.759-.26-1.755-.477-3.518-.79-5.264-.123-.685-.065-1.369-.207-2.057-.387-1.879-.614-3.793-1.021-5.667-.178-.82-.088-1.657-.373-2.468-.784-2.226-1.991-4.111-4.017-5.406a3.278 3.278 0 0 1-.584-.492c-1.085-1.128-2.217-2.134-3.673-2.848-2.369-1.162-4.209-3.083-6.183-4.8-1.825-1.585-3.033-3.73-4.859-5.314a.472.472 0 0 1-.071-.083c-1.463-2.08-2.843-4.208-3.856-6.556-.359-.831-.809-1.625-1.258-2.413-.264-.463-.958-.053-1.247-.535Zm46.58.503c-.93-.038-1.946-.02-2.935.27-.895.261-1.157 1.122-.581 1.83.745.916 1.699 1.592 2.615 2.31.282.221.653.457 1.003.35.991-.302 2.029-.44 2.828-1.284.647-.684 1.249-1.407 1.886-2.098.391-.424.213-.851-.402-.988-1.423-.315-2.851-.613-4.414-.39Zm-10.754 6.63c.022.498.395.576.644.76.654.484 1.466.64 2.17 1.025 2.909 1.588 6.047 2.07 9.31 1.834 1.57-.114 3.088-.48 4.504-1.222.984-.515 1.637-1.318 2.146-2.262.138-.256.213-.596-.107-.781-.338-.197-.398.154-.539.347a6.029 6.029 0 0 1-2.528 2.02c-.949.41-1.923.583-2.949.71-4.082.508-7.9-.318-11.571-2.053-.318-.15-.617-.373-1.08-.379Z"/><path fill="#949EE3" d="M201.228 111.209c-5.796-.209-9.489 1.863-12.924 6.255-2.486 3.18-3.729 6.886-3.911 10.947-.16 3.57.605 6.86 2.671 9.815.549.785 1.237 1.432 1.945 2.065.18.161.451.289.4.592-.058.345-.742 1.053-1.008 1.066-.145.006-.291-.019-.437-.025-3.537-.142-7.074-.386-10.611-.39-2.408-.003-4.808-.129-7.212-.174-2.186-.041-4.371-.168-6.556-.271-1.252-.058-1.255-.071-.863-1.212 1.506-4.375 3.009-8.75 4.522-13.122 3.445-9.948 6.902-19.892 10.335-29.843a70.135 70.135 0 0 0 1.396-4.599c.146-.54.34-.667.893-.627 2.981.213 5.964.381 8.948.552 5.535.317 11.071.624 16.606.937.782.044 1.07.44.846 1.232-.474 1.676-.975 3.344-1.47 5.014-.898 3.036-1.77 6.08-2.72 9.1-.146.58-.644 2.061-.85 2.688Zm-15.87-13.249c0-.29.053-.593-.009-.87-.375-1.7-1.366-2.664-3.345-1.692-1.952.959-3.111 4.28-2.274 6.277.582 1.388 1.944 1.836 3.227 1.052.342-.209.65-.465.913-.774.982-1.151 1.488-2.48 1.488-3.993Z"/><path fill="#ECCAA1" d="M109.602 68.56c.289.481.983.072 1.247.535.449.788.899 1.582 1.258 2.413 1.013 2.348 2.393 4.475 3.856 6.556.021.03.044.06.071.083 1.826 1.583 3.034 3.728 4.859 5.315 1.974 1.716 3.815 3.637 6.183 4.799 1.456.714 2.588 1.72 3.673 2.848.176.183.371.356.584.492 2.026 1.295 3.233 3.18 4.017 5.406.285.81.195 1.648.373 2.468.407 1.874.634 3.788 1.021 5.667.142.688.084 1.372.207 2.057.313 1.746.53 3.509.79 5.264.186 1.254.379 2.506.566 3.759.033.215.082.433.077.648-.043 1.981.515 3.875.852 5.799.212 1.213.379 2.435.687 3.633.262 1.021.536 2.021 1.059 2.957.655 1.174 1.238 2.39 1.812 3.607.361.767.883 1.419 1.356 2.107.141.204.258.449.557.486.107.013.291.037.303.089.257 1.086 1.202.646 1.855.847-.252.227-.554.139-.837.119-2.474-.17-4.953-.101-7.43-.151-2.662-.054-5.325-.032-7.988-.051-.681-.004-1.36-.013-1.94.196-.171-.062-.188-.118-.165-.208.887-3.428-.432-6.291-2.336-8.99-1.208-1.713-2.688-3.176-4.369-4.422-.523-.388-.731-.817-.749-1.45-.053-1.855.017-3.694.419-5.515.14-.632.099-1.307.113-1.942.069-3.036.93-5.955 1.203-8.949.192-2.107.879-4.051 1.754-5.902.716-1.515 1.429-3.105 2.744-4.268.201-.177.231-.445.339-.672.227-.48.173-.757-.368-1.026-.815-.404-1.677-.686-2.502-1.06-2.867-1.3-5.514-2.959-8.07-4.767-2.045-1.447-3.897-3.132-5.761-4.804-1.406-1.26-2.838-2.481-4.087-3.912-2.174-2.489-4.635-4.71-6.819-7.194-.544-.618-.505-1.008.263-1.335.636-.27 1.295-.504 1.962-.68 2.197-.578 4.447-.807 6.709-.921.216-.01.435.044.652.07Z"/><path fill="#FEA849" d="M191.489 118.389c.74.035 1.414.296 2.081.594.794.356 1.583.72 2.421.977.813.249 1.478.774 2.114 1.325.166.143.329.288.498.426.128.106.253.107.383-.014.132-.124.125-.247.032-.383-.308-.451-.615-.903-1.018-1.278-.59-.549-1.226-1.04-1.966-1.361-1.198-.521-2.357-1.141-3.643-1.443.789-1.033 1.569-2.059 2.693-2.785.59-.381 1.078-.921 1.612-1.389.58-.46 1.305-.45 1.971-.505 1.626-.136 3.269-.278 4.878.13.914.231 1.807.553 2.698.87 2.287.812 3.836 2.464 4.995 4.513 1.47 2.601 2.007 5.436 1.97 8.396-.043 3.408-.811 6.646-2.497 9.615-1.434 2.526-3.336 4.617-6.183 5.584-1.804.613-3.67.87-5.579.531-1.606-.901-2.782-2.306-4.119-3.522-.131-.119-.221-.288-.314-.443-.656-1.092-1.386-2.141-2.109-3.184-1.172-1.691-1.77-3.57-2.261-5.515.949.454 1.829.998 2.523 1.815.344.405.801.565 1.485.432-.901-1.92-2.642-2.733-4.24-3.705-.05-1.033-.107-2.051-.038-3.101.106-1.615.524-3.119.96-4.644.188-.658.646-1.221.653-1.936ZM104.835 119.261c1.21-.518 2.49-.41 3.757-.409.072 0 .144.03.216.03 2.986.008 5.599 1.214 8.147 2.579 3.324 1.78 6.252 4.04 8.392 7.204a10.26 10.26 0 0 1 1.787 5.437 4.418 4.418 0 0 1-.654 2.491c-.527.871-1.027 1.758-1.563 2.627-.691 1.121-1.712 1.759-2.858 2.26-1.381.604-2.859.868-4.329 1.145-.607.115-.65.057-.681-.621-.108-2.403-.213-4.806-.321-7.21-.026-.581-.027-1.164-.301-1.706-.107-.211-.204-.39-.482-.308-.247.073-.361.244-.317.495.18 1.014.081 2.037.117 3.055.054 1.566.025 3.136.231 4.695.033.251.015.51.008.766-.028.998-.06 1.031-1.102 1.16-2.936.363-5.829.008-8.713-.511-.635-.115-1.031-.463-1.278-1.055-1.255-3.013-1.648-6.104-.913-9.311.068-.297.3-.597.01-.975-.84.47-1.204 1.224-1.294 2.121-.158 1.564-.182 3.132.065 4.692.103.647.214 1.292.322 1.938-1.104-.806-1.636-2.022-2.17-3.197-1.02-2.241-1.4-4.602-1.362-7.083.039-2.426.547-4.659 1.826-6.717.209-.338.464-.67.576-1.042.321-1.064 1.093-1.665 2.032-2.106.292-.137.632-.172.852-.444Z"/><path fill="#E6E6E8" d="m84.936 156.756-4.575-23.797c.293-.253.538-.111.773-.052 3.32.83 6.642 1.653 9.957 2.503.787.201 1.59.234 2.385.284.498.031.802.146 1.069.565.449.704.918 1.403 1.45 2.045 1.621 1.961 3.734 3.231 6.05 4.209 3.973 1.678 8.125 2.282 12.412 2.098.279-.012.568-.09 1.03.163l-30.551 11.982Z"/><path fill="#ED751E" d="M121.221 9.621c.013.144.081.312.03.427-.552 1.238-.761 2.58-1.071 3.876-.403 1.687-.694 3.405-1.081 5.1-.405 1.767-.769 3.543-1.206 5.3-.126.505-.091 1.01-.195 1.51-.932 4.517-2.238 8.94-3.319 13.419-.878 3.635-1.827 7.253-2.72 10.885-.174.71-.569 1.336-.687 2.066-.352 2.18-.734 4.357-1.1 6.536-.325 1.939-.45 3.89-.434 5.857.007.844.301 1.648.248 2.49-1.705.16-3.423.2-5.113.504-1.906.344-3.778.814-5.758 1.789 2.297-7.424 4.718-14.588 7.005-21.924.773.71 1.33 1.453 1.834 2.23.15.231.254.455.558.41.329-.048.328-.326.368-.583.19-1.237.763-2.351 1.168-3.517 1.052-3.029 1.972-6.1 2.987-9.139.509-1.522.668-3.161 1.338-4.6.44-.944.251-1.632-.126-2.421-.063-.131-.076-.289-.15-.41-1.291-2.091-.533-4.102.394-5.996 2.128-4.351 4.403-8.63 6.505-12.995.139-.289.223-.625.525-.814Z"/><path fill="#FEEEE1" d="M104.875 21.939c-.205-1.542.275-2.95.822-4.354.216-.553.578-.605 1.038-.417.665.274 1.113.747 1.436 1.415 1.463 3.02 2.642 6.156 3.926 9.25.307.74.585 1.49.889 2.232.257.628.276 1.248.103 1.911-.662 2.54-1.413 5.051-2.359 7.502-.288.007-.448-.164-.61-.383a17.36 17.36 0 0 1-2.873-5.93c-.205-.768-.073-1.676-.843-2.24-.046-.034-.043-.136-.06-.206-.21-.874-.48-1.74-.616-2.625-.276-1.787-.465-3.587-.446-5.402.004-.318.07-.687-.407-.753Z"/><path fill="#ED751E" d="M104.835 119.261c-.22.272-.56.307-.852.444-.938.441-1.711 1.042-2.032 2.106-.112.371-.366.704-.576 1.042-1.278 2.058-1.787 4.291-1.826 6.717-.039 2.481.342 4.842 1.362 7.083.535 1.175 1.066 2.39 2.17 3.197l.695 1.842c-.66-.029-1.151-.311-1.66-.506a14.635 14.635 0 0 1-4.036-2.362c-1.206-.983-2.201-2.12-2.538-3.709-.075-.353-.228-.691-.365-1.028-.8-1.967-.899-3.973-.216-5.976 1.512-4.437 4.511-7.373 9.016-8.746.282-.086.562-.153.858-.104Z"/><path fill="#ECCAA1" d="M104.875 21.939c.477.066.41.435.407.753-.019 1.815.17 3.615.446 5.402.136.886.406 1.75.616 2.625.017.07.014.172.06.206.77.564.638 1.472.843 2.24a17.36 17.36 0 0 0 2.873 5.93c.162.219.322.39.61.383-.917 2.752-1.705 5.548-2.821 8.305-.573-.353-.809-.906-1.2-1.311-2.111-2.19-3.303-4.872-4.187-7.719-.574-1.849-1.039-3.721-.983-5.682.009-.284-.088-.608.225-.785.34-.192.634-.009.905.19.414.303.756.678 1.085 1.073.676.812 1.377 1.603 2.067 2.404.174.202.383.33.667.339.243-.217.098-.472.038-.693a72.695 72.695 0 0 1-1.714-8.12c-.283-1.838-.409-3.7.063-5.54Z"/><path fill="#FEEEE1" d="M184.856 31.376c.514-.03.647-.39.909-.56.627-.41.972-.281 1.216.413.148.422.141.86.16 1.296.086 2.045-.525 3.958-1.138 5.864-.331 1.032-.752 2.035-1.201 3.231-.335-.936-.428-1.71-.552-2.473-.391-2.407-.961-4.77-1.636-7.114-.452-1.568-.768-3.175-1.255-4.737-.347-1.114-.688-2.233-1.222-3.27-.528-1.027-.532-2.024-.003-3.023.393-.74.799-1.478 1.259-2.177.487-.739 1.09-.72 1.522.045.266.471.508.99.609 1.515.432 2.25.95 4.485.973 6.803.013 1.375.228 2.748.359 4.187Z"/><path fill="#ED751E" d="M119.391 121.127c-.651-.355-1.088-.6-1.53-.833-1.52-.801-3.086-1.488-4.738-1.978-.755-.224-.758-.303-.574-1.106.201-.877.707-1.609 1.215-2.298a29.424 29.424 0 0 0 2.305-3.689 16.513 16.513 0 0 1 1.806-2.713c.504-.617 1.036-1.208 1.287-2.006.102-.326.41-.599.658-.865.545-.587 1.113-1.154 1.5-1.911.278.542.272.541-.192 2.783-.192.927-.304 1.872-.537 2.787-.245.958-.329 1.929-.442 2.903a62.793 62.793 0 0 0-.255 2.938c-.066.941-.265 1.872-.376 2.81-.117.975-.232 1.951-.127 3.178ZM190.146 129.528c.491 1.945 1.089 3.824 2.261 5.515.723 1.043 1.453 2.092 2.109 3.184.093.155.183.324.314.443 1.337 1.216 2.513 2.621 4.119 3.522-1.441-.088-2.878-.147-4.295-.515-.769-.2-1.37-.65-2.023-1.016-3.44-1.922-5.466-4.875-6.204-8.721-.245-1.281-.283-2.58-.264-3.994 1.498.312 2.804.779 3.983 1.582Z"/><path fill="#D9F5FC" d="M160.423 141.152c-.787-.708-.635-1.391-.383-2.1.634-1.78 1.257-3.565 1.888-5.346 3.499-9.879 7.103-19.721 10.508-29.633 1.015-2.959 2.095-5.895 3.14-8.843.171-.48.415-.962.454-1.456.086-1.087.694-1.7 1.729-2.134l-17.336 49.512Z"/><path fill="#ED751E" d="M191.489 118.389c-.006.715-.465 1.278-.653 1.936-.436 1.526-.854 3.029-.96 4.644-.069 1.05-.012 2.068.038 3.101-1.017-.272-1.936-.818-2.979-1.037-.466-.097-.701-.369-.591-1.02.445-2.636 1.458-5.02 2.92-7.231.64-.97.657-.963 1.74-.626.17.052.324.154.485.233ZM196.696 113.058c-.534.468-1.022 1.008-1.612 1.389-1.124.726-1.904 1.752-2.693 2.785-.506-.02-.962-.299-1.5-.241.768-1.511 3.756-3.518 5.805-3.933Z"/><path fill="#090707" d="m163.226 88.127 1.605-.953c-.247.592-.695.91-1.217 1.14-.087-.15-.231-.183-.388-.186Z"/><path fill="#ECCAA1" d="M146.821 136.393c.854-.062 1.714-.246 2.548.123-.851-.009-1.709.131-2.548-.123Z"/><path fill="#ED751E" d="M121.457 9.115c.042.232.059.452-.246.52.002-.21.069-.391.246-.52ZM121.669 8.675a.32.32 0 0 1-.179.36.372.372 0 0 1 .179-.36Z"/><path fill="#080606" d="M156.182 69.063c1.563-.223 2.991.075 4.414.39.615.137.793.564.402.988-.637.691-1.239 1.414-1.886 2.098-.799.845-1.837.982-2.828 1.284-.35.107-.721-.129-1.003-.35-.916-.718-1.87-1.394-2.615-2.31-.576-.707-.314-1.569.581-1.83.989-.29 2.005-.308 2.935-.27Z"/><path fill="#090707" d="M145.427 75.692c.464.006.763.229 1.081.379 3.671 1.735 7.489 2.561 11.571 2.054 1.026-.128 2-.3 2.949-.71a6.028 6.028 0 0 0 2.528-2.02c.141-.194.201-.544.539-.348.32.185.245.525.107.781-.509.944-1.162 1.747-2.146 2.262-1.416.742-2.934 1.108-4.504 1.222-3.263.236-6.401-.246-9.31-1.834-.705-.385-1.516-.541-2.17-1.025-.249-.184-.622-.262-.645-.76ZM185.358 97.96c0 1.513-.506 2.842-1.488 3.993a3.773 3.773 0 0 1-.913.774c-1.283.784-2.645.336-3.227-1.052-.837-1.997.322-5.318 2.274-6.277 1.979-.972 2.97-.008 3.345 1.691.062.278.009.58.009.871Zm-4.426 2.175c.01.25-.038.693.16 1.099.252.52.666.637 1.163.341 1.279-.761 2.178-3.28 1.656-4.639-.281-.73-.794-.896-1.461-.454-.339.224-.587.54-.785.89-.452.8-.747 1.647-.733 2.763Z"/><path fill="#758DB4" d="M180.932 100.135c-.013-1.116.281-1.963.733-2.763.198-.35.447-.666.785-.89.667-.442 1.18-.277 1.461.455.522 1.358-.377 3.877-1.656 4.638-.497.296-.911.179-1.163-.341-.198-.406-.15-.849-.16-1.099Z"/></g><defs><clipPath id="a"><path fill="#fff" d="M0 0h216v164H0z"/></clipPath></defs></svg>
