<!-- This Source Code Form is subject to the terms of the Mozilla Public
   - License, v. 2.0. If a copy of the MPL was not distributed with this
   - file, You can obtain one at http://mozilla.org/MPL/2.0/. -->
<svg xmlns="http://www.w3.org/2000/svg" width="22" height="22" fill="none"><path fill="#FFD8CA" d="M9.289 18.639c-4.553-.306-6.936-1.925-9.197-5.989A.59.59 0 0 1 0 12.344h2.597v-1.161a2.673 2.673 0 0 1 2.69-2.689 2.673 2.673 0 0 1 2.688 2.69V16.163c0 1.008.52 1.925 1.314 2.475Zm10.114-6.295v-1.191a2.673 2.673 0 0 0-2.69-2.69c-1.466 0-2.657 1.162-2.688 2.598v5.103c0 1.039-.52 1.925-1.314 2.475 4.553-.306 6.936-1.895 9.197-5.958a.424.424 0 0 0 .061-.337h-2.566Z"/><path fill="#FF6F1F" d="M12.986 18.425c.03 0 .03-.03.061-.03l.184-.184.06-.061c.062-.061.123-.153.184-.214l.03-.03c.062-.092.123-.184.184-.306a.913.913 0 0 0 .122-.306c0-.03.03-.06.03-.091a.568.568 0 0 0 .062-.214c0-.03.03-.061.03-.123.03-.091.03-.152.03-.244 0-.03 0-.061.031-.092 0-.122.031-.244.031-.336V11.03c.03-1.436 1.222-2.597 2.689-2.597a2.673 2.673 0 0 1 2.689 2.69v1.191H22a.616.616 0 0 0-.092-.336A35.007 35.007 0 0 0 19.983 8.8c.49-.367.886-.856 1.223-1.406.916-1.589.855-3.453.03-4.95a.32.32 0 0 0-.275-.152c-1.68 0-3.178.916-4.094 2.505-.123.183-.214.397-.306.58-1.528-.885-3.3-1.405-5.561-1.405s-4.033.55-5.53 1.467a3.483 3.483 0 0 0-.306-.58c-.917-1.59-2.414-2.506-4.095-2.506a.32.32 0 0 0-.275.152 5.017 5.017 0 0 0 .031 4.95c.336.55.733 1.009 1.222 1.406-.703.917-1.344 1.986-1.955 3.147a.616.616 0 0 0-.092.336h2.597v-1.161a2.673 2.673 0 0 1 2.69-2.689 2.673 2.673 0 0 1 2.688 2.69V16.163c0 .122 0 .244.03.336 0 .03 0 .06.031.091 0 .092.03.153.03.245 0 .03.031.061.031.122.03.092.061.153.061.214 0 .03.03.061.03.092.031.091.093.183.123.305.061.092.122.214.183.306l.031.03c.061.092.122.153.183.214l.061.061.184.184c.03 0 .03.03.06.03.093.061.184.153.276.214a2.98 2.98 0 0 0 1.711.52 2.98 2.98 0 0 0 1.711-.52.722.722 0 0 0 .275-.183Z"/><path fill="#2B3B47" d="M10.053 13.964h1.589c.183 0 .305-.03.305-.03a.684.684 0 0 1 .734.641c.03.184-.062.397-.184.52l-.58.641s-.123.122-.306.214a.916.916 0 0 1-.306.122c-.06.03-.122.03-.183.03h-.367c-.06 0-.122-.03-.183-.03a.233.233 0 0 1-.153-.06c-.06 0-.091-.031-.152-.062-.184-.091-.306-.183-.306-.183l-.55-.55a.72.72 0 0 1 0-1.008c.245-.184.458-.275.642-.245ZM9.35 16.806s.642.397 1.65.397 1.65-.397 1.65-.397-.092 1.497-1.65 1.497c-1.558 0-1.65-1.497-1.65-1.497ZM5.286 9.93a.9.9 0 0 1 .917.917v2.078a.9.9 0 0 1-.917.917.9.9 0 0 1-.917-.917v-2.078a.92.92 0 0 1 .917-.916ZM16.744 9.93a.9.9 0 0 1 .917.917v2.078a.9.9 0 0 1-.917.917.9.9 0 0 1-.916-.917v-2.078a.9.9 0 0 1 .916-.916ZM17.508 6.141a8.008 8.008 0 0 1 3.514-3.758v-.03h-.458c-1.558.122-2.903 1.008-3.758 2.475-.123.183-.214.397-.306.58.367.245.703.458 1.008.733ZM4.492 6.141c.336-.275.702-.55 1.1-.763a1.551 1.551 0 0 0-.275-.55 5.058 5.058 0 0 0-4.34-2.475c-.03 0-.03.03 0 .06.46.184 2.415 1.284 3.515 3.728Z"/></svg>
