<!-- This Source Code Form is subject to the terms of the Mozilla Public
   - License, v. 2.0. If a copy of the MPL was not distributed with this
   - file, You can obtain one at http://mozilla.org/MPL/2.0/. -->
<svg width="16" height="16" viewBox="0 0 16 16" fill="none" xmlns="http://www.w3.org/2000/svg">
  <path fill-rule="evenodd" clip-rule="evenodd" d="M14 2.5H12.5V6C12.5 6.19891 12.421 6.38968 12.2803 6.53033L10.8107 8L12.2803 9.46967C12.421 9.61032 12.5 9.80109 12.5 10V13.5H14V15H2V13.5H3.5V10C3.5 9.80109 3.57902 9.61032 3.71967 9.46967L5.18934 8L3.71967 6.53033C3.57902 6.38968 3.5 6.19891 3.5 6V2.5H2V1H14V2.5ZM5 13.5H11V10.3107L9.21967 8.53033C8.92678 8.23744 8.92678 7.76256 9.21967 7.46967L11 5.68934V2.5H5V5.68934L6.78033 7.46967C7.07322 7.76256 7.07322 8.23744 6.78033 8.53033L5 10.3107V13.5Z" fill="context-fill"/>
</svg>
