<!-- This Source Code Form is subject to the terms of the Mozilla Public
   - License, v. 2.0. If a copy of the MPL was not distributed with this
   - file, You can obtain one at http://mozilla.org/MPL/2.0/. -->
<svg xmlns="http://www.w3.org/2000/svg" width="16" height="16" fill="context-fill">
  <path d="M1.5 3a.5.5 0 0 1 .5-.5h9V1H2a2 2 0 0 0-2 2v8h1.5V3z"/>
  <path fill-rule="evenodd" clip-rule="evenodd" d="M3 6a2 2 0 0 1 2-2h9a2 2 0 0 1 2 2v6.5a2 2 0 0 1-2 2H5a2 2 0 0 1-2-2V6zm2-.5a.5.5 0 0 0-.5.5v6.5a.5.5 0 0 0 .5.5h9a.5.5 0 0 0 .5-.5V8H10a.5.5 0 0 1-.5-.5v-2H5z"/>
</svg>
