<!-- This Source Code Form is subject to the terms of the Mozilla Public
   - License, v. 2.0. If a copy of the MPL was not distributed with this
   - file, You can obtain one at http://mozilla.org/MPL/2.0/. -->
<svg xmlns="http://www.w3.org/2000/svg"
     width="20" height="20" viewBox="0 0 20 20">
  <path d="M1.5 4C1.5 3.72421 1.72421 3.5 2 3.5H14V2H2C0.895786 2 0 2.89579 0 4V13H1.5V4Z" fill="context-fill"/>
  <path fill-rule="evenodd" clip-rule="evenodd" d="M3 7C3 5.89579 3.89579 5 5 5H17C18.1042 5 19 5.89579 19 7V15C19 16.1042 18.1042 17 17 17H5C3.89579 17 3 16.1042 3 15V7ZM5 6.5C4.72421 6.5 4.5 6.72421 4.5 7V15C4.5 15.2758 4.72421 15.5 5 15.5H17C17.2758 15.5 17.5 15.2758 17.5 15V9H10C9.724 9 9.5 8.776 9.5 8.5V6.5H5Z" fill="context-fill"/>
</svg>
