<!-- may be protected as a trademark in some jurisdictions -->
<svg xmlns="http://www.w3.org/2000/svg" width="38" height="38" fill="none"><path fill="#FFD21E" d="M0 19.068C0 9.841 7.481 2.36 16.71 2.36h6.504C31.381 2.359 38 8.978 38 17.143s-6.62 14.784-14.784 14.784H5.669l-4.57 4.43A.649.649 0 0 1 0 35.89V19.068Z"/><path fill="#32343D" d="M24.091 13.897c.576.205.805 1.393 1.388 1.082a2.273 2.273 0 0 0-.4-4.172 2.255 2.255 0 0 0-2.824 1.508 2.273 2.273 0 0 0 .167 1.727c.277.521 1.154-.328 1.67-.145Zm-10.646 0c-.576.205-.805 1.393-1.388 1.082a2.273 2.273 0 0 1 .4-4.172 2.255 2.255 0 0 1 2.824 1.508 2.273 2.273 0 0 1-.167 1.727c-.277.521-1.154-.328-1.67-.145Zm5.432 10.889c4.442 0 5.876-3.977 5.876-6.018s-2.63 1.081-5.876 1.081c-3.245 0-5.874-3.122-5.874-1.08 0 2.04 1.433 6.017 5.874 6.017Z"/><path fill="#FF323D" d="M22.443 23.624c-.879.695-2.047 1.163-3.568 1.163-1.43 0-2.546-.413-3.405-1.039a3.936 3.936 0 0 1 2.398-2.036c.181-.054.366.258.557.578.185.308.372.625.563.625.204 0 .405-.313.6-.616.204-.318.403-.626.595-.565l.167.058c.9.335 1.644.992 2.093 1.832Z"/></svg>
