<!-- may be protected as a trademark in some jurisdictions -->
<svg xmlns="http://www.w3.org/2000/svg" width="38" height="38" fill="none"><path fill="#FFD21E" d="M3 18.678c0-7.77 6.3-14.07 14.071-14.07h5.478C29.426 4.607 35 10.181 35 17.057c0 6.876-5.574 12.45-12.45 12.45H7.774l-3.848 3.73A.546.546 0 0 1 3 32.845V18.678Z"/><path fill="#32343D" d="M23.836 14.586c.498.177.696 1.205 1.2.936a1.966 1.966 0 0 0 .807-2.653 1.95 1.95 0 0 0-2.643-.812 1.966 1.966 0 0 0-.808 2.654c.24.451.998-.283 1.444-.125ZM14.628 14.586c-.498.177-.696 1.205-1.2.936a1.966 1.966 0 0 1-.807-2.653 1.95 1.95 0 0 1 2.643-.812 1.966 1.966 0 0 1 .808 2.654c-.24.451-.998-.283-1.444-.125ZM19.326 24.003c3.842 0 5.082-3.439 5.082-5.204 0-1.766-2.275.935-5.082.935-2.806 0-5.08-2.701-5.08-.935 0 1.765 1.239 5.204 5.08 5.204Z"/><path fill="#FF323D" d="M22.41 22.999c-.76.601-1.77 1.005-3.086 1.005-1.236 0-2.202-.357-2.945-.898a3.403 3.403 0 0 1 2.074-1.761c.157-.047.317.223.482.5.16.266.322.54.487.54.176 0 .35-.27.518-.532.177-.275.349-.542.515-.489l.145.05c.778.29 1.422.858 1.81 1.585Z"/></svg>
