<!-- may be protected as a trademark in some jurisdictions -->
<svg xmlns="http://www.w3.org/2000/svg" width="38" height="38" fill="none"><path fill="#000" d="M27.18 2.638h6.546v6.545h-6.545V2.638Z"/><path fill="#F7D046" d="M30.454 2.638H37v6.545h-6.546V2.638Z"/><path fill="#000" d="M1 2.638h6.546v6.545H1V2.638Zm0 6.545h6.546v6.544H1V9.183Zm0 6.544h6.546v6.545H1v-6.544Zm0 6.545h6.546v6.545H1v-6.545Zm0 6.545h6.546v6.545H1v-6.545Z"/><path fill="#F7D046" d="M4.271 2.638h6.546v6.545H4.271V2.638Z"/><path fill="#F2A73B" d="M30.454 9.182H37v6.545h-6.546V9.182Zm-26.183 0h6.546v6.545H4.271V9.182Z"/><path fill="#000" d="M20.638 9.182h6.545v6.545h-6.545V9.182Z"/><path fill="#F2A73B" d="M23.909 9.182h6.545v6.545H23.91V9.182Zm-13.092 0h6.546v6.545h-6.546V9.182Z"/><path fill="#EE792F" d="M17.363 15.728h6.546v6.545h-6.546v-6.545Zm6.546 0h6.545v6.545H23.91v-6.545Zm-13.092 0h6.546v6.545h-6.546v-6.545Z"/><path fill="#000" d="M14.089 22.273h6.545v6.544H14.09v-6.544Z"/><path fill="#EB5829" d="M17.362 22.273h6.546v6.544h-6.546v-6.544Z"/><path fill="#EE792F" d="M30.454 15.728H37v6.545h-6.546v-6.545Zm-26.183 0h6.546v6.545H4.271v-6.545Z"/><path fill="#000" d="M27.18 22.273h6.546v6.544h-6.545v-6.544Z"/><path fill="#EB5829" d="M30.454 22.273H37v6.544h-6.546v-6.544Z"/><path fill="#000" d="M27.18 28.817h6.546v6.545h-6.545v-6.545Z"/><path fill="#EB5829" d="M4.271 22.273h6.546v6.544H4.271v-6.544Z"/><path fill="#EA3326" d="M30.454 28.817H37v6.545h-6.546v-6.545Zm-26.183 0h6.546v6.545H4.271v-6.545Z"/></svg>
