<!-- may be protected as a trademark in some jurisdictions -->
<svg xmlns="http://www.w3.org/2000/svg" width="38" height="38" fill="none"><path fill="#FFD800" d="M10.914 5.555H5.525v5.377h5.389V5.555ZM32.47 5.555h-5.388v5.377h5.389V5.555Z"/><path fill="#FFAF00" d="M16.303 10.932H5.525v5.377h10.778v-5.377ZM32.472 10.932H21.694v5.377h10.778v-5.377Z"/><path fill="#FF8205" d="M32.472 16.309H5.525v5.377h26.947v-5.377Z"/><path fill="#FA500F" d="M10.914 21.687H5.525v5.377h5.389v-5.377ZM21.692 21.687h-5.388v5.377h5.388v-5.377ZM32.47 21.687h-5.388v5.377h5.389v-5.377Z"/><path fill="#E10500" d="M16.306 27.067H.136v5.378h16.17v-5.378ZM37.864 27.067h-16.17v5.378h16.17v-5.378Z"/></svg>
