<!-- This Source Code Form is subject to the terms of the Mozilla Public
   - License, v. 2.0. If a copy of the MPL was not distributed with this
   - file, You can obtain one at http://mozilla.org/MPL/2.0/. -->
<svg width="232" height="273" viewBox="0 0 232 273" fill="none" xmlns="http://www.w3.org/2000/svg">
  <path d="M101.514 21.5837C103.048 21.5837 104.581 21.5837 106.112 21.5837C108.299 22.5664 111.065 21.934 113.438 22.455C115.826 22.9796 118.281 23.8509 120.589 24.6612C125.445 26.3643 129.873 29.1436 133.537 32.7278C147.801 46.6853 150.266 66.9595 153.191 85.6258C154.704 95.2914 156.276 104.916 157.6 114.606C158.286 119.62 158.968 124.629 159.578 129.654C159.903 132.337 160.253 135.017 160.618 137.696C160.868 139.543 160.796 141.84 161.756 143.455V144.594C156.619 144.839 151.481 145.078 146.341 145.257C144.132 145.335 133.515 146.82 132.548 145.058C131.757 143.615 132.139 140.211 132.014 138.612C131.836 136.325 131.671 134.038 131.501 131.749C131.107 126.453 130.697 121.158 130.327 115.862C129.731 107.348 128.873 98.8611 127.461 90.4388C125.957 81.4632 124.72 72.2756 122.448 63.4526C120.566 56.1442 115.788 49.0352 107.239 50.2173C98.903 51.3707 95.4099 58.884 95.272 66.4852C95.1214 74.7782 96.9342 83.2292 98.1064 91.4108C99.3367 99.9966 100.449 108.415 101.841 116.972C103.269 125.758 105.049 134.543 106.24 143.36C106.608 146.084 104.808 145.498 102.436 145.628C99.9519 145.762 97.4677 145.89 94.9817 145.996C91.6155 146.14 86.5328 145.372 83.575 146.869H78.5159C76.7212 134.444 74.9465 122.015 73.1101 109.597C72.152 103.114 71.2175 96.6316 70.4699 90.119C70.1342 87.1889 69.8221 84.2551 69.4827 81.3249C69.2922 79.6792 69.6043 75.831 68.3994 74.6578C68.3994 69.6472 68.3994 64.6348 68.3994 59.6241C69.6098 58.8732 69.3231 54.486 69.6116 53.117C70.0961 50.8084 70.7403 48.4441 71.5677 46.2361C73.2027 41.8831 75.3185 37.6054 78.3326 34.0303C81.2832 30.5306 85.0086 27.9687 89.1259 25.9871C91.1419 25.0169 93.2233 24.1492 95.3446 23.4269C96.8888 22.9023 100.393 22.7173 101.509 21.5801L101.514 21.5837Z" fill="#E3E8E8"/>
  <path d="M42.0911 200.71C41.7536 197.601 41.4106 194.491 41.0804 191.379C40.8336 189.054 40.5868 186.728 40.3636 184.399C39.9735 180.343 39.5815 176.288 39.2331 172.228C39.0879 170.532 39.0916 168.825 38.9609 167.129C38.7813 164.799 38.5381 162.474 38.3276 160.148C38.157 158.268 38.001 156.387 37.8268 154.508C37.5346 151.353 37.2171 148.202 36.9413 145.047C36.816 143.619 36.7943 142.18 36.6727 140.752C36.4803 138.499 36.2336 136.25 36.0285 133.999C35.8525 132.082 35.6674 130.163 35.5458 128.242C35.3571 125.262 35.1865 122.281 35.0686 119.297C34.9561 116.464 36.121 114.005 37.3822 111.538C38.4746 109.4 40.4307 108.345 42.2689 107.081C43.7152 106.087 45.3719 106.434 46.9343 106.335C51.2349 106.064 55.5428 105.902 59.8489 105.746C63.0989 105.627 66.3525 105.604 69.6024 105.494C70.8727 105.451 72.112 105.379 73.1899 106.24C73.3732 106.387 73.6962 106.398 73.9575 106.407C76.6341 106.493 79.3161 106.685 81.989 106.614C85.1899 106.527 88.3873 106.222 91.5828 105.994C93.5245 105.855 95.4661 105.712 97.4005 105.509C98.5691 105.386 99.7268 105.151 100.886 104.952C101.449 104.855 102.002 104.637 102.565 104.623C108.992 104.452 115.421 104.305 121.849 104.168C122.293 104.159 122.876 104.14 123.168 104.388C124.886 105.837 126.888 105.16 128.786 105.218C129.352 105.236 129.922 105.083 130.492 105.072C135.623 104.977 140.757 104.901 145.889 104.812C149.104 104.754 152.32 104.7 155.533 104.591C155.951 104.576 156.35 104.224 156.767 104.052C157.274 103.843 157.783 103.518 158.304 103.493C161.053 103.358 163.808 103.299 166.561 103.218C168.8 103.152 171.041 103.004 173.28 103.044C176.41 103.098 179.537 103.295 182.665 103.417C182.925 103.428 183.195 103.29 183.449 103.317C184.146 103.394 184.837 103.514 185.527 103.64C185.71 103.674 185.87 103.823 186.053 103.863C189.118 104.521 190.96 106.545 192.439 109.148C193.967 111.836 194.371 114.768 194.814 117.718C195.262 120.7 195.727 123.681 196.139 126.667C196.5 129.283 196.852 131.9 197.108 134.527C197.473 138.271 197.698 142.029 198.068 145.773C198.469 149.823 198.95 153.863 199.429 157.904C199.921 162.054 200.47 166.198 200.949 170.35C201.069 171.385 200.964 172.441 201.044 173.483C201.238 176 201.497 178.514 201.697 181.031C201.815 182.499 201.84 183.974 201.962 185.441C202.247 188.86 202.57 192.277 202.867 195.696C203.112 198.515 203.298 201.339 203.59 204.153C203.909 207.225 204.343 210.286 204.686 213.356C204.891 215.193 205.041 217.034 205.174 218.876C205.426 222.375 205.517 225.891 205.925 229.373C206.21 231.804 206.281 234.188 205.112 236.333C204.337 237.756 203.196 239.08 201.946 240.127C200.481 241.352 198.815 242.384 196.745 242.518C194.956 242.635 193.179 242.946 191.394 243.151C185.073 243.871 178.719 243.715 172.377 243.869C167.949 243.977 163.527 244.281 159.103 244.527C153.92 244.814 148.743 245.228 143.557 245.409C139.376 245.555 135.186 245.389 131.002 245.457C128.343 245.501 125.688 245.756 123.03 245.844C121.792 245.885 120.548 245.749 119.306 245.711C118.521 245.687 117.731 245.675 116.946 245.7C112.701 245.835 108.455 245.968 104.211 246.129C100.928 246.255 97.6473 246.408 94.3664 246.58C90.5558 246.782 86.7487 247.047 82.9362 247.224C81.0726 247.31 79.2017 247.224 77.3345 247.267C75.2332 247.315 73.1319 247.439 71.0305 247.497C69.8746 247.529 68.7187 247.477 67.5628 247.497C65.8208 247.527 64.0806 247.604 62.3385 247.631C59.8271 247.669 57.3012 247.858 54.8097 247.649C52.5578 247.461 50.7033 246.367 49.1935 244.518C46.82 241.615 46.0252 238.207 45.4373 234.696C45.0326 232.283 44.7531 229.851 44.4556 227.422C44.2124 225.44 44.0001 223.453 43.8168 221.464C43.4249 217.181 43.0656 212.895 42.6809 208.61C42.445 205.98 42.1909 203.351 41.9459 200.723C41.9949 200.718 42.0421 200.714 42.0911 200.709V200.71Z" fill="#E1D6B8"/>
  <path d="M57.7915 230.028C57.7679 229.807 57.7443 229.588 57.7207 229.367C57.7189 228.295 57.7152 227.224 57.7134 226.151C57.5447 224.121 61.0396 225.734 61.9433 226.06C64.5346 226.992 67.0532 227.978 69.7262 228.688C75.219 230.145 80.837 230.558 86.5022 230.084C91.5759 229.66 97.6312 228.893 102.277 226.719C104.784 225.546 103.445 224.27 102.934 221.875C102.366 219.213 102.115 216.495 101.859 213.789C101.317 208.069 101.128 202.325 101.995 196.623C102.422 193.818 103.262 191.17 104.097 188.468C104.933 185.759 104.204 185.454 101.994 183.842C97.8254 180.806 94.5627 176.809 91.144 173.011C87.8088 169.304 83.8239 165.039 82.5046 160.101C81.7498 157.273 83.9836 155.663 85.8199 153.814C87.9412 151.68 90.1496 149.634 92.4632 147.702C94.6317 145.893 96.8854 144.188 99.2027 142.571C100.618 141.583 105.773 139.201 105.781 137.252C105.688 137.113 105.597 136.975 105.505 136.837C106.345 132.985 106.951 129.09 107.748 125.231C108.049 123.77 108.396 122.03 109.831 121.183C111.86 119.989 112.997 124.096 114.088 125.558C116.331 123.055 122.994 112.276 125.669 118.374C128.053 123.81 128.527 130.389 129.267 136.197C129.302 136.321 129.336 136.443 129.372 136.567C129.509 136.44 129.646 136.312 129.783 136.186C131.953 132.866 134.239 129.246 135.526 125.475C135.6 125.323 135.676 125.17 135.751 125.017C137.3 122.542 138.738 118.945 141.187 117.222C144.506 114.89 146.167 117.773 147.624 120.443C148.315 121.71 148.259 122.213 149.404 122.128C150.614 122.039 151.18 120.325 152.558 121.564C154.438 123.257 153.224 129.236 152.843 131.395C152.864 131.512 152.888 131.629 152.91 131.745C153.035 131.634 153.16 131.523 153.284 131.411C157.317 128.795 157.582 132.302 157.234 135.901C156.878 139.559 155.182 142.613 153.67 145.884C153.01 146.45 153.345 146.84 153.904 147.19C156.936 150.981 160.161 154.682 162.914 158.679C164.051 160.332 164.984 161.759 165.066 163.819C165.149 165.938 163.658 167.201 162.319 168.789C156.345 175.873 149.293 180.871 141.474 185.752C141.218 185.928 140.964 186.106 140.708 186.282C140.899 186.418 141.088 186.557 141.278 186.693C146.637 190.003 151.87 193.105 156.624 197.23C161.66 201.598 166.67 205.981 171.597 210.469C171.989 210.87 172.379 211.27 172.771 211.671C176.16 216.101 179.704 220.503 182.326 225.442C184.727 229.964 186.246 234.742 187.542 239.665C188.209 242.198 189.438 243.607 186.308 243.745C183.479 243.869 180.63 243.817 177.797 243.878C171.827 244.006 165.873 244.341 159.914 244.701C159.595 244.724 159.277 244.747 158.958 244.771C146.375 245.565 133.851 245.543 121.259 245.989C120.8 246.007 120.339 246.025 119.88 246.043C112.723 246.028 105.621 246.124 98.4805 246.672C98.3281 246.688 98.1738 246.704 98.0214 246.72C95.9509 246.779 93.8786 246.837 91.8082 246.896L90.8882 246.943C89.353 247.013 87.8196 247.085 86.2845 247.155L85.8254 247.175C81.3705 247.376 76.9229 247.53 72.4644 247.6C70.7169 247.627 68.3706 248.111 66.6631 247.741C64.9265 247.363 63.9448 245.628 62.8597 244.377C62.6256 244.122 62.3915 243.865 62.1574 243.61C60.9126 241.587 59.5244 239.846 58.8476 237.525C58.1326 235.075 58.2614 232.518 57.7969 230.03L57.7915 230.028Z" fill="#FEAD3B"/>
  <path d="M104.152 236.532C104.869 229.425 109.527 223.541 112.22 217.124C113.494 214.092 115.653 211.632 117.158 208.714C118.767 205.592 120.083 202.259 121.106 198.905C123.184 192.089 123.333 185.025 124.289 178.025C124.765 174.54 124.841 170.997 125.456 167.53C125.929 164.858 126.947 159.731 129.147 157.985C129.198 159.133 128.945 159.724 129.368 160.752C129.51 161.095 129.974 161.098 130.17 161.607C130.354 162.081 129.918 162.641 130.248 163.152C131.93 165.755 133.977 158.729 134.005 157.475C133.117 158.779 131.758 158.021 131.266 156.634C130.758 155.198 132.059 152.371 132.437 151.011C133.62 146.737 135.164 142.567 136.766 138.431C138.452 134.078 140.274 129.779 142.168 125.51C143.509 122.49 146.135 118.683 148.449 123.164C154.628 118.541 152.967 129.04 152.348 132.483C153.263 131.829 154.633 130.373 155.871 130.894C157.357 131.521 157.077 134.247 157.001 135.524C156.896 137.321 156.453 139.09 155.863 140.786C155.261 142.513 153.695 143.813 153.824 145.499C153.943 147.065 155.685 148.485 156.183 149.451C157.451 151.921 158.054 153.156 159.202 154.668C161.291 157.419 165.953 161.118 165.437 164.902C165.033 167.871 159.511 172.145 157.526 174.177C154.597 177.176 151.57 179.824 147.992 182.044C146.239 183.133 144.448 184.15 142.702 185.251C141.016 186.315 139.684 186.448 141.735 187.822C145.206 190.151 149.064 191.945 152.401 194.477C155.455 196.792 158.22 199.563 161.108 202.081C164.138 204.726 167.357 207.216 170.215 210.047C175.737 215.52 179.94 222.171 183.322 229.102C184.995 232.53 185.986 236.188 186.997 239.845C187.252 240.771 188.465 242.781 187.575 243.589C186.628 244.45 181.937 243.566 180.498 243.589C171.705 243.737 163.32 244.017 154.55 244.667C144.838 245.388 135.224 244.741 125.516 245.206C120.834 245.431 116.41 245.111 111.725 245.206C109.747 245.246 107.691 247.254 106.618 245.454C105.495 243.568 104.94 241.085 104.152 239.037C104.152 238.201 104.152 237.366 104.152 236.531V236.532Z" fill="#FE881A"/>
  <path d="M128.783 135.977C129.011 136.938 129.672 137.387 128.42 137.593C127.476 137.748 125.774 137.399 124.674 137.347C122.912 137.263 121.297 137.347 119.515 137.175C119.013 137.126 118.285 137.089 117.684 136.961C117.247 136.869 116.953 136.454 117.011 136.016C117.385 133.188 118.53 130.37 119.891 127.892C121.348 125.242 122.862 122.457 125.605 121.117C127.763 123.582 127.959 127.333 128.238 130.228C128.358 131.46 128.598 132.77 128.625 134.002L128.783 135.977Z" fill="#FE881A"/>
  <path d="M114.084 126.454C113.277 127.944 112.698 128.65 111.725 130.048C110.194 132.25 109.107 134.866 107.552 137.054C107.403 137.264 106.211 137.122 105.989 137.25C105.855 137.327 106.203 132.406 106.612 130.191C107.027 127.933 107.374 125.641 108.08 123.469C108.397 122.491 109.513 121.771 110.268 120.934C110.573 120.934 110.88 120.934 111.184 120.934C112.382 121.253 112.956 122.247 113.556 123.176C113.872 123.663 114.812 125.111 114.084 126.454Z" fill="#FEF9DF"/>
  <path d="M119.891 148.373C125.062 148.855 127.67 149.358 131.974 151.592C135.496 153.583 140.022 158.175 141.461 163.457C142.769 168.263 140.697 173.719 136.676 176.861C133.946 178.996 130.951 180.404 127.499 180.824C126.909 180.896 126.721 181.157 126.893 181.751C128.225 186.349 129.544 190.95 130.856 195.553C132.025 199.656 133.128 203.777 134.355 207.863C135.505 211.691 136.253 215.534 137.492 219.336C137.732 220.07 138.086 220.193 137.307 220.185C134.346 220.16 131.382 220.137 128.423 220.221C126.378 220.279 124.296 220.313 122.302 220.714C117.958 221.588 113.541 222.268 109.515 224.294C108.74 224.684 107.916 224.977 107.114 225.313C106.432 225.6 106.584 225.491 106.644 224.725C106.716 223.786 106.711 222.785 106.825 221.851C107.181 218.939 107.094 216.001 107.493 213.096C108.097 208.7 108.642 204.291 109.388 199.917C110.21 195.095 111.491 190.359 112.451 185.56C112.754 184.046 113.28 182.368 113.721 180.889C114.002 179.949 113.086 179.835 112.358 179.567C110.475 178.872 108.497 178.316 106.773 177.33C102.39 174.82 99.2856 171.189 98.6323 166.066C98.0861 161.775 100.158 157.697 103.196 154.481C105.675 151.857 110.244 149.9 113.721 149.092C115.996 148.562 118.058 148.634 119.891 148.373Z" fill="#FEF9DF"/>
  <path d="M157.501 136.85C157.069 139.621 152.493 146.307 151.647 145.319C150.776 144.304 148.128 132.75 147.588 131.527C146.88 129.923 147.375 128.532 147.99 127.174C148.771 125.451 149.785 123.832 150.642 122.14C150.977 121.477 153.148 121.98 153.311 122.413C154.093 124.492 153.311 130.816 153.079 132.059C153.639 131.674 154.732 128.791 157.737 131.82C157.737 133.338 157.528 136.683 157.501 136.848V136.85Z" fill="#FEC464"/>
  <path d="M136.291 245.722C133.368 245.722 74.2335 247.779 71.5315 247.829C70.2087 247.854 68.8858 247.895 67.563 247.939C66.5305 247.973 65.7302 247.574 65.1042 246.756C63.9483 245.249 62.8287 243.711 61.582 242.279C59.8781 240.325 59.1033 237.986 58.8129 235.535C58.4409 232.387 58.3629 229.208 58.1488 226.042C58.1034 225.379 62.6508 226.342 64.4219 227.057C66.4579 227.878 68.5955 228.478 70.724 229.039C75.2224 230.226 79.817 230.596 84.4625 230.442C88.7232 230.3 100.91 227.594 102.797 226.82C105.046 225.898 114.826 222.37 117.481 221.77C121.965 220.757 130.332 220.236 129.835 220.397C122.068 222.39 114.447 226.342 109.286 231.098C112.449 230.654 117.058 230.167 122.248 231.013C125.877 231.372 127.692 231.911 130.719 232.923C125.514 233.708 122.611 234.786 119.708 235.864C116.804 236.942 114.264 237.84 110.687 239.61C123.518 240.176 131.853 243.494 133.842 243.954C134.056 244.002 135.319 245.319 136.29 245.722H136.291Z" fill="#FEC464"/>
  <path d="M99.019 160.477C99.7212 157.787 101.28 155.621 103.318 153.81C106.773 150.738 110.821 148.903 115.427 148.183C120.223 147.432 124.828 147.993 129.289 149.82C133.384 151.496 136.629 154.254 139.086 157.866C140.447 159.866 141.651 162.016 141.969 164.469C142.141 165.802 142.279 167.219 142.013 168.515C140.793 174.451 136.972 178.186 131.388 180.261C130.013 180.773 128.546 181.044 127.006 181.455C130.664 194.073 134.355 206.808 138.073 219.638L138.216 220.419C137.999 220.647 137.128 220.527 137.128 220.419C137.128 220.06 136.865 219.476 136.865 219.476C133.134 206.523 129.396 193.55 125.627 180.469C127.877 180.253 129.842 179.745 131.736 178.962C136.122 177.151 139.193 174.113 140.702 169.589C141.544 167.068 141.368 164.6 140.29 162.211C138.151 157.464 134.818 153.794 130.114 151.431C126.612 149.672 122.863 148.92 118.956 149.015C114.989 149.112 111.162 149.812 107.687 151.873C105.343 153.264 103.116 154.841 101.674 157.162C98.148 162.829 98.7922 169.057 103.561 173.947C106.256 176.711 109.611 178.182 113.171 179.361C113.594 179.501 114 179.686 114.441 179.86C111.048 194.45 108.651 209.103 107.246 223.924C107.214 224.273 107.212 224.625 107.232 224.975C107.243 225.169 107.225 225.234 107.188 225.27C107.007 225.45 106.582 225.622 106.463 225.629C106.359 225.636 106.1 226.168 106.1 224.551C107.914 207.664 109.15 196.503 113.282 180.365C112.159 179.968 111.023 179.574 109.89 179.165C106.134 177.805 103.1 175.505 100.772 172.28C99.4073 170.388 98.6434 168.256 98.4075 165.969C98.1135 163.111 98.7559 161.479 99.0154 160.48L99.019 160.477Z" fill="#AC6665"/>
  <path d="M63.8921 247.66C62.4948 246.679 61.651 245.298 60.8726 243.819C59.5207 241.25 58.4882 238.573 57.795 235.769C57.3268 233.872 56.8732 231.962 56.7897 230.002C56.7244 228.466 56.5991 226.831 56.8078 224.655C56.8677 224.021 57.452 223.563 58.0889 223.651C58.8529 223.755 59.6404 224.032 60.3554 224.319C63.2932 225.503 66.2692 226.56 69.3014 227.472C72.1776 228.338 75.0973 228.99 78.0968 229.208C80.3651 229.371 82.6515 229.668 84.9071 229.533C87.4639 229.38 90.0442 229.147 92.5339 228.41C94.2433 227.905 95.9944 227.532 97.691 226.989C99.2643 226.488 100.789 225.841 102.433 225.221C99.3296 211.981 99.2171 198.891 103.247 185.868C101.787 184.705 100.333 183.509 98.8397 182.364C96.2411 180.375 93.8622 178.167 91.75 175.674C90.6104 174.326 89.3619 173.067 88.2768 171.678C86.1501 168.953 84.0288 166.215 82.6279 163.017C82.1924 162.024 81.2398 160.412 80.8151 158.258C81.7442 157.279 82.5735 156.379 83.4318 155.507C85.3317 153.58 87.2316 151.652 89.1623 149.755C89.8047 149.124 90.5523 148.603 91.231 148.007C92.748 146.67 94.216 145.274 95.7748 143.988C96.938 143.028 98.21 142.197 99.4367 141.313C101.07 140.134 102.714 138.97 104.34 137.781C104.817 137.43 105.008 136.951 105.027 136.324C105.135 132.919 105.666 129.561 106.477 126.259C106.882 124.619 107.555 123.036 108.579 121.664C109.248 120.765 110.038 120 111.35 119.995C112.544 119.991 113.302 120.616 113.944 121.446C114.244 121.834 114.375 122.35 114.632 122.923C116.429 120.363 118.561 118.151 120.891 116.021C121.914 115.086 123.341 114.671 124.689 115.011C125.061 115.104 125.431 115.254 125.794 115.485C127.062 117.386 127.683 119.56 128.12 121.789C128.706 124.777 129.269 127.772 129.786 130.772C129.978 131.888 130.011 133.032 130.14 134.409C133.127 128.153 136.496 122.337 140.414 116.96C141.383 115.631 143.167 115.126 144.679 115.792C145.606 116.2 146.395 116.87 147.096 117.702C147.644 118.354 147.961 119.201 148.362 119.97C148.654 120.534 148.91 121.116 149.26 121.856L149.422 121.7C150.204 120.947 152.195 120.169 153.646 121.786C155.258 123.581 155.056 125.58 154.917 127.894C154.897 128.227 154.735 129.522 154.735 129.87C155.461 129.511 156.561 129.346 157.094 129.691C158.05 130.309 158.283 131.011 158.546 132.026C159.009 133.816 158.644 135.555 158.197 137.301C157.606 139.613 156.773 141.825 155.45 143.839C155.165 144.273 154.971 144.766 154.722 145.258C155.049 145.675 155.338 146.018 155.597 146.383C156.726 147.967 157.86 149.55 158.965 151.151C160.281 153.057 161.605 154.959 162.859 156.905C164.371 159.251 165.799 161.652 166.989 164.179C167.084 164.381 167.129 164.605 167.241 164.963C165.953 166.563 164.686 168.256 163.289 169.835C161.959 171.337 160.564 172.798 159.068 174.138C157.003 175.988 154.964 177.875 152.668 179.466C151.587 180.216 150.627 181.132 149.58 181.931C148.683 182.614 147.745 183.243 146.82 183.89C145.658 184.7 144.492 185.503 143.169 186.419C144.337 187.163 145.354 187.867 146.424 188.48C150.16 190.619 153.692 193.048 157.02 195.763C159.587 197.858 162.148 199.963 164.641 202.144C166.644 203.896 168.513 205.793 170.305 207.764C171.615 209.205 173.014 210.567 174.331 212.002C175.097 212.838 177.552 215.699 177.962 216.289C179.659 218.734 180.866 219.702 183.95 225.99C184.517 227.144 185.099 228.755 185.584 229.943C186.275 231.635 186.718 232.911 187.311 234.639C188.091 236.912 188.775 239.217 189.481 241.513C189.699 242.219 189.848 242.946 190.06 243.783C189.146 243.715 188.354 243.656 187.467 243.589C187.104 242.361 186.712 240.995 186.298 239.637C184.954 235.235 183.549 230.868 181.316 226.79C180.281 224.903 179.33 222.958 178.098 221.204C176.322 218.676 174.447 216.197 172.422 213.862C169.92 210.976 167.263 208.217 164.585 205.488C163.3 204.18 161.814 203.064 160.415 201.866C158.56 200.278 156.764 198.614 154.828 197.132C152.813 195.591 150.679 194.198 148.565 192.79C146.97 191.726 145.335 190.722 143.7 189.719C142.474 188.968 141.207 188.28 139.979 187.531C139.828 187.44 139.658 187.359 139.5 187.26C138.99 186.94 138.946 186.221 139.393 185.819C139.55 185.677 139.723 185.535 139.908 185.417C143.481 183.167 146.88 180.679 150.193 178.076C152.322 176.403 154.434 174.698 156.448 172.895C158.335 171.204 160.117 169.395 161.876 167.573C162.734 166.684 163.434 165.644 164.302 164.549C163.215 162.704 162.168 160.809 161.008 158.982C159.157 156.07 157.292 153.165 155.318 150.335C154.165 148.682 153.02 146.999 151.496 145.623C151.178 145.335 150.953 144.884 150.823 144.467C150.041 141.947 149.288 139.417 148.545 136.886C147.967 134.91 147.437 132.921 146.845 130.948C146.696 130.454 146.704 129.93 146.854 129.436C147.234 128.198 147.491 126.929 147.874 125.359C147.148 123.55 146.415 121.439 145.441 119.443C145.19 118.931 144.733 118.46 144.12 118.123C143.633 117.853 143.015 117.93 142.617 118.32C142.548 118.389 142.481 118.46 142.421 118.536C141.24 120.04 138.171 125.021 137.636 125.887C135.702 129.024 133.842 132.201 132.419 135.605C132.114 136.334 131.824 137.071 131.504 137.879C131.343 138.285 130.933 138.539 130.496 138.503C128.476 138.338 122.989 137.822 120.446 137.63C119.807 137.581 119.171 137.518 118.51 137.454C118.011 137.405 117.962 136.696 118.452 136.59C118.559 136.566 118.672 136.554 118.782 136.545C119.276 136.501 119.778 136.537 120.274 136.575C122.709 136.757 125.142 136.951 127.679 137.148C127.785 130.487 126.108 124.123 124.605 117.74C124.431 117.481 124.431 117.122 123.752 117.118C123.424 117.293 123.047 117.415 122.773 117.654C121.043 119.174 119.387 120.764 117.995 122.607C117.133 123.748 116.307 124.926 115.344 125.979C112.288 129.317 110.225 133.275 108.194 137.235C107.579 138.433 106.695 139.15 105.664 139.865C104.135 140.926 102.643 142.04 101.159 143.163C99.6218 144.326 98.0939 145.502 96.595 146.713C95.4844 147.611 94.4211 148.569 93.3505 149.516C92.4994 150.269 91.6556 151.029 90.83 151.808C89.2984 153.254 87.7832 154.717 86.2608 156.174C85.3136 157.083 84.3681 157.994 83.4772 158.851C83.7947 159.625 84.0052 160.389 84.3954 161.048C85.3807 162.713 86.4277 164.346 87.4893 165.967C88.2768 167.171 89.0662 168.382 89.959 169.508C92.229 172.375 94.6497 175.119 97.3626 177.591C99.6998 179.721 102.173 181.687 104.783 183.48C105.392 183.898 106.009 184.308 106.713 184.782C105.559 187.007 104.721 190.212 104.345 191.981C103.946 193.868 103.67 195.785 103.44 197.7C103.247 199.282 103.18 200.88 103.091 202.473C102.999 204.122 102.89 205.773 102.897 207.423C102.904 209.097 103.024 210.773 103.126 212.446C103.322 215.656 103.872 218.82 104.541 221.961C104.79 223.13 105.196 224.195 105.641 225.39C105.721 225.39 108.593 224.334 109.954 223.807C111.315 223.281 112.68 222.841 114.075 222.456C116.532 221.781 118.996 221.116 121.484 220.563C123.527 220.108 125.591 219.72 127.703 219.677C129.92 219.634 132.136 219.483 134.352 219.479C138.358 219.474 142.301 220.067 146.21 220.89C151.491 222 156.532 223.786 161.391 226.107C164.73 227.702 167.915 229.558 170.923 231.685C172.941 233.11 174.799 234.756 176.719 236.315C177.146 236.662 177.55 237.034 177.966 237.411C178.164 237.591 178.116 237.916 177.873 238.029C177.498 238.203 177.265 238.113 176.792 237.742C175.837 236.991 174.901 236.214 173.968 235.437C170.951 232.92 167.653 230.812 164.231 228.884C160.144 226.581 155.831 224.779 151.345 223.412C146.566 221.955 141.674 221.104 136.669 220.762C133.345 220.536 130.044 220.631 126.739 220.852C123.39 221.077 120.12 221.808 116.913 222.774C113.934 223.673 110.976 224.643 108.022 225.618C107.234 225.879 106.481 226.249 105.732 226.612C101.963 228.43 97.985 229.668 93.9438 230.697C91.182 231.401 88.3675 231.861 85.5059 231.982C84.9379 232.005 84.37 232.133 83.8074 232.108C81.6517 232.012 79.4959 231.872 77.3402 231.75C74.5946 231.595 71.9689 230.87 69.3286 230.16C66.6884 229.45 64.1425 228.549 61.6474 227.476C60.8961 227.153 60.1249 226.858 59.3084 226.524C59.283 227.965 59.3084 229.677 59.4644 230.659C59.7348 232.364 59.929 233.229 60.2302 234.684C60.4098 235.553 60.8036 236.949 61.1103 237.783C63.6362 244.671 65.6867 246.59 66.242 247.912C66.124 248.162 64.4002 248.018 63.8921 247.662V247.66ZM152.177 124.215C152.015 123.654 151.374 123.385 150.865 123.676C150.445 123.915 150.179 124.296 149.847 124.811C148.974 126.171 148.424 127.626 148.037 129.184C147.827 130.028 147.814 130.796 148.068 131.615C148.89 134.27 149.687 136.931 150.485 139.593C150.948 141.135 151.391 142.682 151.866 144.306C153.097 142.985 154.066 140.991 154.721 139.556C155.41 138.045 155.733 136.721 156 135.08C156.114 134.374 156.163 133.429 156.08 132.684C156.045 132.378 155.793 132.138 155.483 132.109C155.006 132.064 154.813 132.222 154.401 132.538C153.812 132.991 152.617 133.981 152.042 134.455C151.868 134.599 151.616 134.599 151.442 134.455C151.273 134.319 151.197 134.098 151.246 133.887C151.576 132.439 151.928 131.094 152.149 129.728C152.342 128.543 152.44 127.325 152.412 126.126C152.4 125.53 152.356 124.84 152.175 124.215H152.177ZM110.998 122.526C110.867 122.632 110.611 122.772 110.455 123.043C109.515 124.93 108.784 126.874 108.459 128.972C108.259 130.257 108.051 131.556 107.853 132.84C107.708 133.785 107.677 134.748 107.553 135.697C108.519 134.112 109.437 132.499 110.431 130.934C111.362 129.47 112.351 128.041 113.269 126.669C112.858 125.228 112.556 123.807 111.609 122.592C111.462 122.404 111.184 122.377 110.999 122.528L110.998 122.526Z" fill="#5F3012"/>
  <path d="M117.428 160.128C115.483 159.668 113.664 159.041 112.218 157.604C111.271 156.662 110.636 155.61 110.583 154.259C110.571 153.921 110.997 153.745 111.224 153.998C111.331 154.118 111.405 154.26 111.463 154.413C112.501 157.153 114.659 158.549 117.406 159.172C121.651 160.137 125.207 158.723 127.724 155.329C127.808 155.216 127.898 155.108 127.993 154.999C128.229 154.724 128.704 154.866 128.711 155.227C128.715 155.423 128.611 155.62 128.477 155.82C127.436 157.377 126.047 158.515 124.331 159.307C123.053 159.896 121.781 160.423 120.339 160.388C120.266 160.388 118.62 160.412 117.43 160.13L117.428 160.128Z" fill="#5F3011"/>
  <path d="M116.486 150.768C116.49 150.5 116.642 150.252 116.882 150.128C117.835 149.636 118.9 149.676 119.927 149.669C121.242 149.658 122.475 149.789 123.701 150.349C124.286 150.617 124.556 150.777 124.612 151.102C124.692 151.568 124.413 152.02 123.977 152.214C122.865 152.708 121.7 153.077 120.379 152.949C119.237 152.839 118.167 152.601 117.225 151.923C116.813 151.627 116.481 151.296 116.488 150.766L116.486 150.768Z" fill="#5F3011"/>
  <path d="M128.136 145.368C128.621 145.432 129.026 145.794 129.129 146.268C129.329 147.177 128.924 147.998 128.597 148.806C128.34 149.442 127.445 149.793 126.903 149.6C126.335 149.399 125.934 148.763 126.079 148.054C126.211 147.41 126.411 146.749 126.741 146.187C127.144 145.503 127.505 145.283 128.136 145.368Z" fill="#5F3011"/>
  <path d="M117.401 144.573C117.688 144.382 118.078 144.4 118.34 144.627C118.929 145.139 118.793 145.897 118.701 146.565C118.623 147.128 118.323 147.704 117.975 148.166C117.773 148.432 117.283 148.577 116.911 148.603C116.452 148.633 116.184 148.252 116.055 147.835C115.712 146.72 116.329 145.288 117.403 144.575L117.401 144.573Z" fill="#5F3011"/>
  <path d="M206.854 232.605C206.684 235.278 205.913 237.623 203.831 239.549C202.831 240.474 201.901 241.464 200.696 242.095C199.567 242.686 198.455 243.259 197.13 243.519C193.635 244.207 190.077 244.143 186.564 244.579C184.266 244.865 181.909 244.673 179.577 244.718C176.727 244.773 173.874 244.798 171.027 244.931C165.596 245.185 160.165 245.479 154.737 245.808C152.536 245.941 150.346 246.27 148.145 246.399C146.134 246.516 144.114 246.503 142.1 246.511C137.652 246.527 133.205 246.498 128.757 246.528C125.516 246.552 122.277 246.64 119.036 246.705C115.257 246.778 111.477 246.809 107.699 246.949C104.236 247.078 100.78 247.351 97.3191 247.517C95.3902 247.608 93.454 247.569 91.5232 247.655C88.5509 247.788 85.5804 247.982 82.6099 248.14C81.7062 248.188 80.8007 248.219 79.8952 248.241C76.4765 248.323 73.0578 248.431 69.639 248.471C66.3782 248.508 63.1155 248.445 59.8546 248.478C58.4574 248.492 57.0511 248.778 55.6665 248.681C53.2114 248.508 50.9612 247.79 49.2991 245.776C47.8183 243.983 46.3975 242.147 45.835 239.869C45.2343 237.429 44.7153 234.959 44.3542 232.472C43.9205 229.49 43.6901 226.477 43.3725 223.479C43.1094 221.005 42.83 218.533 42.5941 216.057C42.4507 214.555 42.4017 213.044 42.2711 211.54C42.0842 209.397 41.8537 207.257 41.6559 205.114C41.5416 203.876 41.4636 202.635 41.3511 201.395C41.097 198.621 40.8375 195.847 40.5671 193.073C40.3802 191.158 40.1643 189.245 39.9665 187.33C39.7524 185.267 39.531 183.205 39.335 181.141C39.2207 179.935 39.159 178.726 39.061 177.521C38.8396 174.813 38.5874 172.109 38.3896 169.4C38.1936 166.696 38.0975 163.985 37.8688 161.283C37.6511 158.703 37.2754 156.138 37.0486 153.558C36.7528 150.182 36.5532 146.798 36.2774 143.418C36.0778 140.977 35.8165 138.541 35.5897 136.101C35.4536 134.637 35.3338 133.172 35.2013 131.708C34.94 128.843 34.6751 125.977 34.412 123.112C34.196 120.764 34.1616 118.385 34.7477 116.118C35.3393 113.827 36.2139 111.556 37.8325 109.742C39.2915 108.107 41.117 106.883 43.1493 106.03C43.7246 105.787 44.4196 105.784 45.0638 105.753C49.3662 105.552 53.6686 105.358 57.9729 105.194C62.0449 105.04 66.1187 104.927 70.1907 104.799C70.677 104.785 71.1651 104.797 71.7385 104.797C71.6514 104.082 71.568 103.348 71.4736 102.613C71.029 99.167 70.5844 95.723 70.1326 92.279C69.8532 90.1482 69.5501 88.0193 69.2743 85.8886C69.0039 83.7956 68.6864 81.7044 68.5103 79.6024C68.24 76.3776 67.9696 73.1473 67.8879 69.9135C67.7881 65.988 67.9206 62.0733 68.4105 58.1532C68.6918 55.9021 69.0293 53.6816 69.5066 51.47C70.2542 47.9954 71.4845 44.6933 73.0414 41.5008C74.1012 39.3288 75.2534 37.225 76.7323 35.2883C79.0805 32.2162 81.8695 29.6705 85.1848 27.6439C88.4965 25.6192 92.0168 24.0562 95.6823 22.822C98.9069 21.7368 102.222 21.4602 105.665 21.2931C108.1 21.1745 110.442 21.5302 112.818 21.7692C113.901 21.8788 114.97 22.2327 116.017 22.5668C118.113 23.2352 120.239 23.8442 122.256 24.7012C124.4 25.612 126.547 26.6145 128.481 27.8901C130.47 29.1998 132.232 30.8562 134.045 32.4174C136.798 34.7871 138.696 37.8376 140.87 40.6906C143.18 43.7232 144.517 47.1906 146.132 50.5286C147.653 53.6744 148.673 57.0286 149.36 60.469C150.034 63.8268 150.778 67.172 151.424 70.5351C151.828 72.6425 152.079 74.7804 152.454 76.895C152.93 79.5755 153.525 82.2362 153.955 84.922C154.523 88.4703 154.975 92.0382 155.488 95.5954C155.806 97.7944 156.671 102.509 156.731 102.74C159.816 102.92 161.665 102.706 164.126 102.638C167.59 102.545 171.058 102.476 174.524 102.482C177.837 102.487 181.151 102.589 184.464 102.683C184.936 102.695 185.404 102.891 185.87 103.015C186.092 103.073 186.3 103.173 186.522 103.231C189.267 103.937 191.272 105.667 192.699 107.974C194.397 110.717 195.167 113.793 195.529 116.994C195.889 120.151 196.462 123.284 196.86 126.437C197.377 130.531 197.85 134.635 198.279 138.74C198.642 142.218 198.892 145.707 199.239 149.187C199.582 152.626 199.955 156.062 200.364 159.494C200.766 162.884 201.278 166.263 201.645 169.657C201.863 171.682 201.861 173.728 202.019 175.76C202.285 179.199 202.616 182.634 202.884 186.074C203.017 187.761 203.026 189.459 203.165 191.144C203.358 193.472 203.624 195.795 203.851 198.12C204.06 200.263 204.245 202.408 204.466 204.55C204.706 206.869 204.985 209.183 205.225 211.501C205.455 213.743 205.66 215.989 205.873 218.234C206.169 221.35 206.486 224.463 206.744 227.582C206.836 228.696 206.766 229.82 206.807 230.94C206.816 231.198 206.873 232.381 206.858 232.61L206.854 232.605ZM180.472 241.863C184.772 242.035 189.05 241.865 193.29 241.126C194.602 240.898 195.983 240.876 197.219 240.444C198.656 239.942 200.03 239.184 201.316 238.363C202.022 237.912 202.554 237.14 203.053 236.437C203.387 235.966 203.605 235.377 203.741 234.811C204.058 233.494 204.089 232.158 203.978 230.801C203.712 227.564 203.526 224.319 203.278 221.08C203.118 219.012 202.899 216.948 202.714 214.882C202.53 212.82 202.38 210.755 202.176 208.695C201.85 205.387 201.487 202.081 201.149 198.774C201.015 197.457 200.908 196.137 200.777 194.82C200.598 193.02 200.371 191.221 200.233 189.417C200.091 187.571 200.064 185.717 199.926 183.868C199.698 180.817 199.413 177.77 199.168 174.72C199.053 173.286 199.023 171.845 198.877 170.413C198.643 168.081 198.337 165.758 198.083 163.428C197.976 162.449 197.968 161.459 197.841 160.484C197.627 158.847 197.282 157.225 197.119 155.583C196.635 150.662 196.23 145.732 195.758 140.81C195.441 137.506 195.069 134.205 194.702 130.907C194.464 128.765 194.232 126.624 193.936 124.49C193.508 121.398 193.033 118.313 192.561 115.227C192.488 114.747 192.381 114.26 192.205 113.809C191.726 112.58 191.145 111.389 190.703 110.149C189.659 107.226 187.249 106.016 184.486 105.448C182.873 105.115 181.163 105.198 179.496 105.175C175.665 105.121 171.832 105.076 168.002 105.103C165.329 105.121 163.262 105.076 160.359 105.076C158.181 105.076 156.367 105.076 154.341 105.112C154.067 105.017 153.735 105.074 153.431 105.081C149.489 105.162 145.546 105.214 141.607 105.342C138.396 105.446 135.192 105.689 131.982 105.771C130.762 105.802 120.713 106.139 116.87 106.152C114.663 106.159 112.455 106.219 110.25 106.299C108.165 106.377 99.8378 106.522 97.7583 106.553C95.8075 106.58 93.8568 106.704 91.9079 106.806C88.2769 106.995 84.6949 107.117 81.062 107.234C77.8175 107.338 75.6 107.384 72.3519 107.413C70.4193 107.429 67.4071 107.505 65.4763 107.557C62.2717 107.643 59.0671 107.722 55.8625 107.85C53.195 107.956 50.5294 108.166 47.8619 108.249C46.0709 108.304 44.2526 108.206 42.6775 109.226C41.5416 109.963 39.7524 111.504 38.0557 114.781C37.3299 116.578 36.9633 118.106 37.0541 119.842C37.1339 121.383 37.3299 122.919 37.4478 124.459C37.6039 126.518 37.7073 128.582 37.8833 130.639C38.0739 132.862 38.3678 135.075 38.5384 137.297C38.7362 139.863 38.8052 142.437 39.0084 145.003C39.2878 148.499 39.6344 151.99 39.9647 155.482C40.255 158.565 40.5907 161.644 40.8502 164.731C41.244 169.409 41.587 174.091 41.9571 178.771C42.1658 181.394 42.3564 184.019 42.6122 186.638C42.9751 190.353 43.4106 194.06 43.779 197.775C44.0693 200.705 44.3107 203.643 44.5647 206.576C44.7897 209.171 45.0057 211.767 45.2216 214.363C45.3686 216.127 45.492 217.895 45.6589 219.659C45.786 221.01 45.9747 222.354 46.1199 223.703C46.4084 226.389 46.6642 229.077 46.9764 231.759C47.1288 233.06 47.4445 234.342 47.5679 235.645C47.7439 237.51 48.2357 239.256 49.1013 240.921C49.5803 241.841 50.3044 242.528 50.9758 243.289C52.5345 245.061 54.5342 245.781 56.8007 245.862C58.2487 245.912 59.7022 245.738 61.1539 245.738C64.9374 245.738 68.7227 245.831 72.5061 245.786C75.13 245.756 77.7503 245.542 80.3725 245.436C82.1707 245.364 83.9726 245.366 85.7691 245.282C88.589 245.149 91.4035 244.951 94.2234 244.818C98.1484 244.633 102.075 244.466 106.002 244.324C109.399 244.202 112.796 244.109 116.193 244.033C120.392 243.94 124.591 243.882 128.788 243.799C130.389 243.767 131.989 243.665 133.59 243.67C136.841 243.681 140.095 243.756 143.347 243.782C144.791 243.792 146.239 243.805 147.678 243.71C149.683 243.579 151.679 243.325 153.681 243.165C155.376 243.031 157.074 242.964 158.771 242.855C160.896 242.716 163.019 242.524 165.146 242.432C166.886 242.357 168.633 242.445 170.375 242.373C173.741 242.236 177.106 242.039 180.472 241.868V241.863ZM74.7072 106.154C75.6962 106.154 78.233 106.19 79.0623 106.154C82.4647 106.007 84.2194 106.03 87.6218 105.872C90.7575 105.726 93.8913 105.588 97.027 105.433C97.9687 105.387 98.1066 105.178 97.9524 104.206C97.8 103.243 97.6457 102.282 97.5151 101.316C97.1268 98.4448 96.7493 95.5721 96.3664 92.6994C96.0561 90.3854 95.7295 88.0732 95.4337 85.7574C95.1144 83.2548 94.7932 80.754 94.5282 78.246C94.1998 75.1361 93.9439 72.0191 93.6264 68.9092C93.3415 66.1156 93.5756 63.3525 94.1 60.6109C94.6226 57.8765 95.5934 55.329 97.6058 53.2809C99.8142 51.0352 102.36 49.3554 105.474 48.5901C107.45 48.1032 109.466 48.0385 111.455 48.229C112.27 48.3062 112.763 48.4194 113.32 48.7087C114.625 49.386 115.962 49.9788 117.198 50.8322C118.888 51.9982 120.278 53.439 121.332 55.0775C122.482 56.8633 123.344 58.8826 124.021 60.902C124.711 62.9662 125.059 65.1472 125.489 67.2905C125.966 69.6602 126.375 72.0425 126.799 74.4229C127.287 77.1699 127.777 79.9168 128.235 82.6709C128.607 84.9041 128.919 87.1444 129.282 89.3793C129.619 91.4579 130.024 93.5276 130.334 95.6098C130.654 97.7639 130.871 99.9323 131.183 102.086C131.31 102.96 131.57 103.813 131.733 104.521C139.275 104.318 146.671 104.118 154.093 103.917C154.107 103.644 154.149 103.454 154.122 103.272C153.596 99.8228 153.048 96.3769 152.536 92.9257C152.153 90.3531 151.874 87.7624 151.444 85.1987C150.948 82.2469 150.335 79.315 149.781 76.374C148.957 71.9922 148.168 67.6049 147.313 63.2285C146.263 57.8406 144.357 52.7563 141.995 47.7906C140.295 44.2191 138.202 40.9259 135.736 37.8826C133.41 35.0117 130.833 32.3258 127.576 30.4196C125.72 29.3327 123.91 28.1057 121.932 27.2918C119.379 26.2426 116.697 25.4827 114.035 24.7191C112.622 24.3149 111.139 23.9951 109.678 23.9502C108.21 23.9053 104.877 23.8047 104.69 23.8173C101.117 24.0867 97.6621 24.8377 94.3323 26.1851C91.7755 27.2199 89.264 28.2889 86.9141 29.7729C84.8908 31.0502 82.9764 32.4246 81.2961 34.1044C78.2294 37.1729 76.1553 40.8882 74.4514 44.8101C73.3554 47.3325 72.6277 49.9824 71.8365 52.6144C70.7478 56.2363 70.4592 59.9354 70.3667 63.6633C70.2995 66.3725 70.3322 69.0889 70.4647 71.7963C70.6298 75.1577 70.882 78.5173 71.2214 81.8661C71.4337 83.9699 71.9109 86.0449 72.2031 88.1433C72.5007 90.2632 72.7039 92.3975 72.9743 94.5229C73.1993 96.2961 73.437 98.0693 73.7074 99.8371C74.0304 101.953 74.3352 103.867 74.7091 106.159L74.7072 106.154ZM108.459 50.8196C107.737 50.861 106.947 51.0478 106.243 51.1987C104.385 51.6011 102.747 52.4904 101.299 53.6816C100.408 54.4146 99.5874 55.2482 98.8343 56.1231C97.7147 57.4238 97.359 59.0713 96.9489 60.681C96.361 62.986 95.9309 65.3215 96.1215 67.7002C96.4136 71.3759 96.7838 75.0481 97.1885 78.7131C97.5242 81.7511 97.9524 84.7783 98.348 87.8091C98.8361 91.5514 99.268 95.3026 99.8541 99.0305C100.117 100.703 100.291 102.201 100.654 103.818C109.974 103.673 119.506 103.243 128.781 103.1C128.628 102.16 128.51 101.54 128.373 100.581C127.97 97.7872 127.632 94.9828 127.173 92.1963C126.474 87.9546 125.694 83.7273 124.948 79.4928C124.36 76.1548 123.794 72.815 123.177 69.4824C122.896 67.9661 122.54 66.4605 122.174 64.9604C121.825 63.5375 121.466 62.1128 121.014 60.7205C120.715 59.7971 120.239 58.9293 119.851 58.0328C119.309 56.7806 118.256 55.4889 116.986 54.0516C115.971 52.742 114.627 52.2551 113.44 51.5975C113.28 51.5095 113.092 51.443 112.91 51.3927C112.074 51.1628 111.542 50.6382 108.457 50.8178L108.459 50.8196Z" fill="#8A7852"/>
</svg>
