<svg width="175" height="20" viewBox="0 0 175 20" fill="none" xmlns="http://www.w3.org/2000/svg">
<path fill-rule="evenodd" clip-rule="evenodd" d="M27.9304 0H22.6201L19.2898 10.607L16.4336 19.8962H21.7925L27.9304 0Z" fill="#37CFFF"/>
<path fill-rule="evenodd" clip-rule="evenodd" d="M16.0146 0.0897217H11.647L8.70649 10.9373L5.30973 0.0897217H0L6.10919 19.9865H10.9049L13.8162 9.76702L15.6984 16.3092L18.2124 8.17945L16.0146 0.0897217Z" fill="#37CFFF"/>
<path fill-rule="evenodd" clip-rule="evenodd" d="M35 12.1649H44.4989V7.71134H35V4.97134H44.4735V0.0897217H29.5762V19.9865H44.4767V15.1908H35V12.1649Z" fill="#37CFFF"/>
<path fill-rule="evenodd" clip-rule="evenodd" d="M56.036 15.5335H52.6674V11.7362H56.0074C57.2355 11.7362 58.0631 12.5362 58.0631 13.5924C58.0631 14.7054 57.2063 15.5335 56.036 15.5335ZM52.6674 4.48599H55.2939C56.236 4.48599 56.9782 5.22815 56.9782 6.22707C56.9782 7.28329 56.2928 8.02545 55.2939 8.02545H52.6674V4.48599ZM59.2887 9.16702C60.8876 8.5108 61.8298 7.08378 61.8298 5.1708C61.8298 3.71459 61.3157 2.48756 60.2881 1.54594C59.2606 0.575127 58.0043 0.0897217 56.4919 0.0897217H47.2422V19.9865H57.2341C58.9746 19.9865 60.4022 19.4443 61.5438 18.3303C62.7146 17.2173 63.2854 15.7903 63.2854 14.1059C63.2854 11.5654 61.8865 9.70972 59.2887 9.16702Z" fill="#37CFFF"/>
<path fill-rule="evenodd" clip-rule="evenodd" d="M75.2563 9.67049H79.0727C81.0236 9.67049 82.3723 8.32172 82.3723 6.39932C82.3723 4.56224 81.0812 3.24271 79.3595 3.24271H75.2563V9.67049ZM71.6699 20V0H79.4465C81.2535 0 82.7745 0.602876 84.0372 1.83628C85.2998 3.04204 85.9311 4.53382 85.9311 6.34166C85.9311 8.95307 84.4678 11.1054 82.287 12.0235L87.1361 20H83.0906L78.8151 12.884H75.2572V20H71.6699Z" fill="#00BAF5"/>
<path fill-rule="evenodd" clip-rule="evenodd" d="M90.5898 20V0H102.829V3.24273H94.0359V8.00648H102.278V11.2484H94.0359V16.7581H103.022V20H90.5898Z" fill="#00BAF5"/>
<path fill-rule="evenodd" clip-rule="evenodd" d="M110.894 9.75662H114.768C116.375 9.75662 117.897 8.57931 117.897 6.51389C117.897 4.41923 116.375 3.24271 114.768 3.24271H110.894V9.75662ZM107.307 20V0H114.939C116.633 0 118.154 0.602876 119.474 1.80784C120.794 3.0128 121.453 4.5915 121.453 6.51391C121.453 8.37864 120.794 9.9281 119.474 11.1623C118.183 12.3957 116.662 12.9986 114.939 12.9986H110.894V20H107.307Z" fill="#00BAF5"/>
<path fill-rule="evenodd" clip-rule="evenodd" d="M125.184 20V0H128.882V16.7581H137.075V20H125.184Z" fill="#00BAF5"/>
<path fill-rule="evenodd" clip-rule="evenodd" d="M144.786 13.0563H151.444L148.115 4.90677L144.786 13.0563ZM138.242 20L146.592 0H149.634L157.984 20H154.197L152.561 16.0122H143.666L142.03 20H138.242Z" fill="#00BAF5"/>
<path fill-rule="evenodd" clip-rule="evenodd" d="M163.363 20V12.2527L155.994 0H159.958L165.212 8.80926L170.439 0H174.373L167.004 12.2527V20H163.363Z" fill="#00BAF5"/>
</svg>
