<!-- This Source Code Form is subject to the terms of the Mozilla Public
   - License, v. 2.0. If a copy of the MPL was not distributed with this
   - file, You can obtain one at http://mozilla.org/MPL/2.0/. -->
<svg xmlns="http://www.w3.org/2000/svg" viewBox="0 0 938 938" fill="context-fill light-dark(black, white)" fill-opacity="context-fill-opacity" shape-rendering="geometricPrecision" text-rendering="geometricPrecision"><path d="m291.046 216.238-3.466 3.69.428 253.433c.335 198.735.844 253.85 2.36 255.366 2.779 2.778 63.464 4.067 221.958 4.714 126.222.515 133.364.397 136.01-2.248 2.658-2.658 2.792-15.074 2.792-258.263 0-207.509-.381-255.852-2.032-257.503-1.638-1.638-36.205-2.114-178.308-2.455l-176.275-.423-3.467 3.689m342.104 256.67v241.535l-69.178-.001c-38.047-.001-111.915-.468-164.15-1.038l-94.972-1.037V231.373h328.3v241.535M408.043 364.089c-7.78 2.165-7.782 2.191-7.807 102.761-.012 51.698.428 96.249.979 99.004.672 3.36 2.343 5.589 5.081 6.775 4.743 2.056 111.496 2.658 120.787.681 3.142-.668 6.287-2.427 6.99-3.908.703-1.482 1.522-23.765 1.821-49.519l.543-46.826 23.151-28.996c12.732-15.948 24.641-31.458 26.464-34.468 4.034-6.661 4.281-14.283.573-17.639-1.513-1.369-15.497-8.513-31.075-15.875l-28.324-13.386-57.644.156c-31.704.086-59.397.644-61.539 1.24m28.562 36.31c5.35 2.681 9.999 5.123 10.332 5.426.333.302-3.536 5.559-8.598 11.68-5.062 6.122-10.419 12.65-11.905 14.507-2.595 3.244-2.703 2.593-2.736-16.556-.022-12.637.554-19.933 1.573-19.933.885 0 5.985 2.194 11.334 4.876m113.488 16.949c-1.179 1.685-9.18 11.846-17.778 22.579l-15.633 19.515-40.256.089c-22.141.049-40.256-.333-40.256-.85 0-.516 8.149-10.717 18.109-22.668l18.109-21.73h39.925c39.341 0 39.894.045 37.78 3.065m-37.32 100.897v32.048h-89.11v-64.096h89.11v32.048" fill-rule="evenodd"/></svg>
