<!-- This Source Code Form is subject to the terms of the Mozilla Public
   - License, v. 2.0. If a copy of the MPL was not distributed with this
   - file, You can obtain one at https://mozilla.org/MPL/2.0/. -->
<svg xmlns="http://www.w3.org/2000/svg" viewBox="0 0 642 533">
  <defs>
    <style>
      .cls-1 {
        fill:#f7f2ec;
      }
      .cls-2 {
        fill:#f6f0e9;
      }
      .cls-3 {
        fill:#f6f1ea;
      }
      .cls-4 {
        fill:#f9f5f1;
      }
      .cls-12 {
        fill:#c98a08;
      }
      .cls-15 {
        fill:#fe7414;
      }
      .cls-16 {
        fill:#fec66d;
      }
      .cls-18 {
        fill:#feb94c;
      }
      .cls-19 {
        fill:#fead3b;
      }
      .cls-20 {
        fill:#fea955;
      }
      .cls-21 {
        fill:#e6cba0;
      }
      .cls-22 {
        fill:#fef9df;
      }
    </style>
  </defs>
  <path class="cls-2" d="M250 323c-2.3-4.3-20.6-1.1-25-1-10 0-19.8-.2-29.7 0l-14.7-.2c-4.3-.1-12.6-1.7-16.5.6-3 1.8-5.8 7-8.6 9.7-3.6 3.5-7.5 6.8-11.2 10.1a282.3 282.3 0 0 1-26.9 21.3c-3 2-8.3 7.2-11.8 7.8-3.6.6-3.8-5-4-8.3-.7-11 .2-22.2-.3-33.3-.2-5.2.6-7.8-5-7.9l-15.3-.3c-5.3 0-10.6.3-16 .3-3.2 0-10.9 1.6-13.6.1-3-1.6-2.8-7.8-3-10.7l-.4-19.5c-.6-23-1-46-1-69 0-2.7-1.1-8.2 1.2-10.4 2.4-2.3 10.8-.7 14-.7 11.7.2 23.4 0 35.1 0h87.5c5.6 0 13.4 1.3 18.9 0 3.3-.9 2.5-1.2 2.3-4.8-.2-5 0-10 0-15.1 0-22.8-.3-45.5-.8-68.3 0-5.6-.1-11.3-.4-17-.2-5.2-1.1-7.8 4.7-9 4.2-.8 9-.2 13.3-.4h16.6c22.6-.3 45.2-.5 67.7-1.3 45.1-1.4 90.5 0 135.7-.6 10.3-.2 20.6-.6 31-.4 5.5.2 11 .4 16.6.2 5-.2 10.5-1.4 15.4-.7 8.2 1.2 5.7 15.3 5.7 21.6V152c0 22.8 0 45.6.7 68.3l.5 15.5c.2 5.7 1.5 9.7-4.7 11.3-3.8 1-8.7-.3-12.2 1-3.8 1.3-2 5-1.6 8.8l1.6 16.1c.4 3 0 14.2 2.3 16.2 2.1 1.8 10 .3 12.7.3h17.4c23 .2 46 1.3 69 1 4.6 0 11.8-2 16.3-.5 2.9 1 2.2 2.3 4 4.5v19c-2 3.5-2 13 0 16.5v2c-2 2.8-2 10.7 0 13.5v10c-1.8.5-.6 2-1 3v17.8c0 .8.7 1.5 1 2.2v3c-.3.3-1 .7-.8.9 0 .4.5.7.9 1.1v5l-.5 1 .5.5v5.5l-.5 1.5.5 4.5V428c-.4 2 0 4-1.8 5-1.6.9-6.1.2-8 .3-5 .3-14.8-2-16.2 3.4-1.6 6.2.6 15.4.8 21.9.2 6 1.4 14.8-1.8 20-9.1-2.4-17.9-9.9-25.5-15l-26-18c-4.1-3-8.1-6.3-12.4-9-4.6-3-8.6-2.5-13.9-2.5-5.3.1-10.6.1-16 .4-7 .2-3.5 1.1-5.8 6.2-3.2-6.2-5.4-13.3-11.8-17-3-1.8-6.8-3.4-10.2-4.1-2-.5-4.1-.4-6-1-1.8-.6-2.5-1.7-4.6-1.7-7-.3-15.6 6.4-21.6 9.5-7.5 3.8-20 11.4-20.2 11.1 2.8-2.6 1.9-4.5-1.9-4.6-13.6 2.1-13.2-11.8-15-20-1.7-7.4-4.6-14.5-6.3-22a103.7 103.7 0 0 0-17.5-41.8c-1-1.3-5.3-4.7-5.2-6.4.1-1.8 6.2-5.3 7.5-6.4 6-4.7 12-9.6 17.5-15 5.6-5.5 12-10 17.4-15.7 3.4-3.7 4.2-4.7 2.2-9.3L410 285h1.5c1.8 5.6 6.4 4.6 11.6 4.8 7.3.4 14.7-.3 22-.3 8.3 0 16.7 0 25 .2 6 .2 15 1 6.8-5.6-12-9.7-24-19.2-35.3-29.7-2.1-2-4.5-5.3-7.1-6.4-3-1.2-7-.5-10-.5-8.1 0-19-2-26.5.5l-1 .5c-.8-11.3-1.6-22.5-3.3-33.7-.4-3-.4-10-3.8-11.6-4.6-2.3-5.7 5.7-7 8.5-5-10-7.4-21.9-11.4-32.4-.7-1.6-3.4-13-6-13.4-2-.2-6.5 9.5-7.5 11.2a185 185 0 0 0-13.7 28.8l-7.1 17.3c-1.7 4-3.2 10-6.6 12.9-2.4 2-7.6 2.7-10.6 1.4-3.3-1.3-4.4-5-5.9-8-4.6-9.1-7.4-19-13-27.7-2.7-4.1-5.8-7.8-8.8-11.6-1.1-1.4-2.7-4.7-4.2-5.5-2.6-1.4-1.5-1.5-3 1.5-5.2 10.3-5.2 22.9-10.5 33-2-2-5.5-13.2-9.2-11.1-2.9 1.5-1.8 17.7-2.1 21-10.8-5-8.8 4.9-8 12.6.8 9 2.2 17.4 4.5 26.3 2.2 8.4-1.2 18-2.5 26.5-1.5 9.8-3.5 19-6.3 28.5h-1Z"/>
  <path class="cls-2" d="M178.5 45.5c2.6 11.5 1.8 24.3 2 36 .1 13.3-.1 26.5.2 39.7 0 5.7.8 11.5.8 17.1 0 2.3.8 2-1 3.2-1.5 1-7.7 0-9.7 0-12.5.4-24.9.8-37.3 1l-15.3-.1c-5.7-.2-13-1.6-18.6 0-4.9 1.6-9 6.7-13 9.8L73 163c-4 3.2-20.7 17.9-24.5 13.1-2.5-3.2-1-13.3-1-17.1 0-3.7 2-14.2-.2-17-2.8-3.3-12-.5-16-.7-6-.2-4.7-7.9-4.7-12.8l-.3-20.2c-.2-5.1 1-13.8-1.7-18.3v-1c2.1-1.5.7-3 0-4.5v-9a40.7 40.7 0 0 0 0-20v-7c7.8-2 17.6-1.4 25.6-1.5 8.2-.1 16.4 0 24.6 0 16.8 0 34.1.5 50.8-1.5H144c4.4 2.3 11.4 1 16.3 1 5.3 0 11.8 1 16.7-1h1.5Z"/>
  <path class="cls-3" d="M407.5 277.5c-4-1.8-7-15-7.8-19.1l.6-.3c2.5 6.2 6.1 12.8 7.2 19.4ZM411.5 285H410l-2.5-7.5 4 7.5Z"/>
  <path class="cls-4" d="m416.5 437.5.5 1-2 1.5-.3-.4 1.8-2Z"/>
  <path d="m397 248.5 1-.5v2.5h-.5l-.5-2Z" fill="#f8f3ee"/>
  <path class="cls-4" d="M250 323h1l-.5 2.1h-.5V323Z"/>
  <path class="cls-3" d="M399 254.5c.6.6.8 1.3.7 2.2-.8.1-1-.4-.7-1.7v-.5Z"/>
  <path class="cls-1" d="M397.5 250.5h.5l.6 2.5h-.5l-.6-2.5ZM399 254.5v.5-.5Z"/>
  <path d="m493 290-1.8-17.2c-.8-8.7-1.4-17.4-2.3-26-.2-2.3.9-2.7 2.7-2.8l14.8-1c1.4 0 1.6-.6 1.6-1.8v-27.4l-.5-32.3-.6-61v-19c0-2.4-.6-3.2-3-3.1l-21.3.8h-20.7l-24.2.2H430l-73 .7h-31.4c-8.7 0-17.4.2-26 .3-11.2 0-22.4 0-33.6.2-7.2.1-14.3.6-21.5.7-10.1.2-20.2.2-30.4.2h-1c-4.5 0-4.3 0-4.2 4.6.4 9.6.5 19.2.7 28.8l.6 39.6v28.4c0 3.3.4 6.6.5 10 .2 2.2-1.2 3.1-3.4 3-3.5-.2-7-.2-10.5-.2-4.4 0-8.7-.2-13-.1l-16.2.2-26.4.2-34.2-.1H52.5c-1.5 0-1.4.3-1.4 1.4l.4 20.6c0 11 .1 21.9.3 32.8l.9 27.6.5 16.6c0 2 .6 2.7 2.8 2.6h36l11-.1c1.2 0 2 0 2 1.6.2 4.6.6 9.2.7 13.8.3 10.3.4 20.6.5 30.8 0 1.7.5 2.1 2 1l13-9.6c4-2.8 7.8-5.5 11.6-8.4 2-1.5 3.8-3.2 5.6-5 7-6.5 13.9-13.2 20.8-19.8.2-.2.5-.3.5-.5 1.6-4.1 5-4 8.6-4l44.3.1h40c1.3 0 1.5.2 1.5 1.4-.2 3.8-.7 4.2-4.5 4.2l-32-.1H169c-1.4 0-2.6 1.7-4.1.5l-.3.2c-4.9 6.9-11.4 12-17.5 17.6-5 4.5-10 9.2-15.5 13.3-7.6 5.7-15.5 10.9-23.3 16.3l-.8.5c-1.2 1-2.4 3-3.9 2-1.3-1-2.4-3.1-2.6-4.8-.5-3.8-.4-7.7-.5-11.5l-.5-32.9c0-1 0-1.2-1.2-1.2H75.2l-22.8.1c-1.7 0-3.1.2-3.4-2-.4-2.6-1.3-5-1.4-7.6-.6-12.2-1-24.5-1.3-36.7-.3-9.7-.3-19.3-.3-29l-.4-33.7c0-1.3.3-2.3 1.8-2.5 3.2-.3 6.4-1 9.6-1h145.9c1.6 0 2.6.2 2.3-2.5-.7-5.6-.6-11.4-.6-17.1V168a17133.5 17133.5 0 0 0-1.1-67.7c0-1.5.3-2.4 1.7-2.7 2.4-.5 4.8-1.4 7.2-1.5 11.2-.2 22.4 0 33.6-.3 12.5-.2 25-.9 37.5-1 10.4-.2 20.8 0 31.2 0 15.2 0 30.4-.2 45.5-.3h27.3c10.9-.2 21.8-.7 32.7-.8H482c6.2 0 12.5-.4 18.7-.6l7.7.1c1.5 0 3.8 3.3 3.9 5.7a3815.4 3815.4 0 0 1 .3 31.4c0 8.1 0 16.3.2 24.4 0 12.2.3 24.4.4 36.6v21.3a1791.8 1791.8 0 0 0 .7 32.3c0 1.7-.6 2.2-2.1 2.6-5 1.6-10.2 1.6-15.3 1.4-1.4 0-2 .5-1.8 1.9l2.4 22.2 1.2 12.6c.2 2.9.2 3 3 3l26.7.2H565l41.2.3c3 0 6 .3 9 .2 2-.1 2 1 2.2 2.2 1 9 .6 17.8.2 26.7-.3 6.4.1 12.8.1 19.3v32l.2 24.2-.1 32.6v5.7c0 1.4-.4 2-2 2l-21.4 1c-1.5 0-1.7 0-1.7 1.8.3 11.2.4 22.4.5 33.6v3.2c0 2.3.5 4.7-1.8 6.4H590l-.3-.6c-7.2-2-12.6-6.9-18.7-10.8-9.2-6-18.2-12.3-27.2-18.5l-19.1-13.6c-2.4-1.9-5-1.3-7.5-1.2-9 0-18 .1-26.9.3-1.3 0-1.7-.4-1.8-1.6 0-1.3-.3-2.6-.4-3.9h4l30-.5c1.3 0 3 .4 4 1.2 4 2.6 7.6 5.6 11.4 8.2l24.2 16.6 24.6 17c.3.3.7.3 1 .4l.3-1.3v-18.3l-.6-21.2c0-1.7.3-2.7 2.4-2.7 5.4 0 10.9-.3 16.3-.4 1.2 0 2.3-.4 3.5-.4 2.8.3 2.9-1.2 2.9-3.5 0-10.8.3-21.5.3-32.3 0-12.4-.3-24.8-.3-37.1 0-14.9.2-29.7.4-44.6v-14.4c0-1.7-.5-2.3-2.3-2.3l-47.4-.5c-10.6 0-21.1.4-31.7.4-8.8 0-17.5-.3-26.3-.4-1.3 0-2.7.2-4 0-2.9-.2-5.7-.8-8.5-1-1-.1-2 .4-3 .5-2 .3-4 .8-6 .8-13.4 0-26.7-.2-40-.3h-28.8c-1.6 0-4.4-3.7-3.9-5.1.2-.3 1-.4 1.5-.4l21.6.1 44.3.2c.6 0 1.3-.3 1.9-.4-.4-.5-.8-1-1.3-1.3-10.3-8.6-20.7-17-31-25.7-4.4-3.7-8.4-7.9-12.6-11.8-.7-.5-1.7-1-2.6-1H410l-13.2.2c-.5 0-1.2-.7-1.6-1.3-.3-.4 0-1.2-.3-1.7-.8-1.9.2-2.4 1.8-2.5 1.8-.1 3.5-.3 5.3-.3l23.6-.1c3.4 0 6.7-.3 10.1-.5.3 0 .7.1.9.3 5.3 5.1 10.4 10.4 15.9 15.3 7 6.2 14.4 12.2 21.8 18.1 5.9 4.8 12 9.4 18 14.1l.7.4.6.9.2.2v-.4l-.8-1.3Z" fill="#c98a07"/>
  <path class="cls-12" d="M412.7 435.4h-9.3c-.6 0-1.7-.7-1.7-1.2-.1-1-.9-2 .8-2.9 2-1 3.8-1.6 6-1.6 5.7 0 11.4-.3 17-.4.7 0 1.9.4 2 .7 0 1.1.7 2.4-.9 3.3a15 15 0 0 1-8.5 2.2h-5.4v-.1ZM494 291.3l-.2.4-.2-.2.3-.2Z"/>
  <path d="M23.5 48c1.8-1.7 3.5-2.8 6.5-2.3s6.3-.5 9.5-.6l18.3-.1h16.6c12.3 0 24.7-.3 37-.5l30.6-.3 30.8.2c1.3 0 2.5.1 3.7-.2 2-.5 3 .4 3.6 2.3 1 3.7.8 7.4 1 11 .4 12.6.6 25 .6 37.6 0 9.1 0 18.3.3 27.4.3 5.7-.5 11.4 1 17 .3 1.4-.2 1.8-1.7 1.8-6.6.2-13.1.2-19.7.7-14 .8-27.9.3-41.8.4l-17.1-.3c-2.5 0-4.6.5-6.6 2.4-4 3.7-8.3 7-12.5 10.5-6.3 5-12.6 9.9-19 14.7-4.4 3.4-9.5 5.7-14.4 8.4-1 .5-1.7.2-2.1-.7-1-2.2-1.9-4.2-1.8-6.7l.3-28.1c0-1.1-.3-1.6-1.4-1.6-4.8 0-9.5-.6-14.3.5-3 .6-5.4-2-5.4-5.5 0-6.7.4-13.4-.2-20-.7-7.6-.8-15.2-1-22.8-.5-10.8-.3-21.6-.4-32.4V58c0-1.3.6-2.7-.4-4v-.5c.5-1.2 1-2.3 0-3.5v-2ZM52 171.3c3.7-1 5.8-4 8.6-5.7 5.7-3.6 10.8-8 16-12.3l14.2-11.6c3.2-2.5 5.7-5.8 11.1-5.2 5.3.6 10.9.2 16.3.2 10.5 0 21 .1 31.6-.2 8.2-.3 16.4-.2 24.6-.2 1.7 0 2.3-.4 2.2-2.4-.3-4.4-.4-8.9-.5-13.3-.2-8.2 0-16.5-.1-24.7 0-8.8-.3-17.6-.4-26.3V49.4c-1.2.5-2.2.6-3.2.6h-21.3c-7.2 0-14.3.1-21.4-.1-5-.2-9.9.4-14.8.5h-84c-1.6 0-2.2.3-1.8 2 .4 1.7.5 3.4.5 5.1.2 10 .1 20 .5 29.9.2 7.8.2 15.7.7 23.5.3 3.7.3 7.5.5 11.2.3 4.7-.3 9.4.4 14l4.6-.6c4.1-.3 8.3.2 12.4 0 2.5 0 3.4.5 3.2 2.9-.1 1.2.2 2.3.2 3.4.2 9.7.3 19.5 0 29.6Z" fill="#c78700"/>
  <path class="cls-2" d="M52 171.3c.4-10 .3-19.8 0-29.5 0-1.2-.2-2.2-.1-3.4.1-2.4-.7-3-3.2-2.9-4.1.1-8.3-.4-12.4 0l-4.6.6c-.7-4.7-.2-9.3-.4-14-.2-3.7-.2-7.5-.5-11.3-.5-7.8-.5-15.6-.7-23.4-.4-10-.3-20-.5-29.9 0-1.7-.1-3.4-.5-5.1-.4-1.7.2-2 1.7-2h67c5.6-.2 11.3 0 17 0 5-.1 10-.7 14.9-.5 7.1.2 14.2 0 21.3 0l21.4.1c1 0 2-.1 3.2-.6v20.1c0 8.8.3 17.6.4 26.4l.1 24.7c.1 4.4.2 8.9.5 13.3.1 2-.5 2.4-2.2 2.4-8.2 0-16.4 0-24.6.2-10.5.3-21 .2-31.6.2-5.5 0-11 .4-16.3-.2-5.4-.6-7.9 2.7-11.1 5.2l-14.2 11.6c-5.2 4.2-10.3 8.7-16 12.3-2.9 1.8-5 4.6-8.6 5.7Z"/>
  <g id="review_contents">
    <path class="cls-16" d="M120.5 75.5c3.5-2.1 7.3-3.6 11.3-4.6.9-2.4 1.6-4.8 1.8-7.3 0-.3 0-.7.2-1l2-4.4c1-.4 1.7-.1 2.2.9l2.9 5.3 2 4.7c3.7-1 7.4-1 11.3-.4l.8 1.3-6.7 10.5 1.1 10.8-2 .2a22 22 0 0 0-9.3-6.3c-3 2.2-5 5.1-7.6 7.9l-2-2.5 2.3-10c-2-.5-3.7-.9-5.3-1.1-2-.3-3.5-1.4-5-2.5v-1.5Zm12.1 4.4-1.3 8.8c3-2.1 4.5-5.2 7.3-6.2l8.5 5.7c-.1-1-.4-1.9-.4-2.9 0-2-.4-4 .2-5.8.8-2.5 2.3-5 4.2-6.9.6-.5 1.2-1 .8-2-3.2-1-6.4.4-9.7.4-.4-.5-.9-.9-1.1-1.4l-3-6.4-1.3-1.6c-.5 1-1 1.8-1.3 2.7-.3 1-.3 2-.5 3-.5 2-.7 4-2.1 5.5-3.3 1-6.7 1.5-9.8 3.8 3.2 1.5 6.6.7 9.5 3.3ZM583 334.5c-.7-1-1-2-1-3.2.3-2.6.4-5.2.6-8.2l-2.3-1.6.3-.3-5.8-1.5-.3-2.1c1.2-2 3.2-2.4 5-3l5.1-1.7c1-2.6 1.5-5.1 1.5-7.8 0-2.3 1.2-3.7 3.6-4l6.1 11.6c1-.2 2-.5 3-.5 2.1 0 4.3-.7 6.2.8v1.5c-2.1 1.8-4.4 3.4-5 5.8l2 9-2 2.3c-.6-.3-1.4-.5-2-1-1.2-1-2.2-2.2-3.4-3.3-1-1.1-2.4-1.8-4.4-1l-4.2 5.6-2 2.6h-1Zm1.4-5.2.6.2.7-1 3.5-3.9c1.2-1.2 2.7-1.5 4.3-.6 1.2.6 2.3 1.2 3.1 2.3.7.9 1.7 1.5 2.9 2.4v-2.1c0-.5-.3-1-.4-1.4-.5-2.5-2-5 0-8l3.3-3.2-2.8.2-3.2.3c-1.3.1-2.1-.4-2.7-1.6L591 308l-2-4c-1.2 3.7-1 7.5-3 10.9l-2 .6-5.5 1.6c-.4.1-.7.6-1.2 1.1l4.1 1 1.9 1.7c1.4 1.5 2 3.1 1.4 5.2-.2 1-.2 2.1-.3 3.2ZM185.6 221.1h2c2 1.5 2.2 4 3.5 5.9l3.2 5.3 12.5 2 .8 1.7-6.2 4v4.7c-.1 2.8-.2 5.6-.5 8.4 0 .8-.7 1.6-1 2.4-2.5-.3-3.1-2.6-4.7-3.7a12 12 0 0 1-3.8-4.4l-4.5 5.3c-1.5 1.6-3 3.3-5 4.3-1.5-.5-1.8-1.7-1.8-3v-10l-5.6-2.1c-1.3-.6-3-1-2.9-3 2-2.3 4.8-3 7.5-3.8 3.2-.8 4-1.6 4.5-4.8l2-9.2Zm-3 32.4c.3-.1.8-.2 1-.4l6.7-8c1.4-.4 2.6 0 3.2 1.5 1 2.3 3.3 3.5 5 5.8.2-1 .5-1.6.5-2.1v-5c0-1.5.4-3 .3-4.6-.1-1.6 1.2-2.8 2.6-3.6.7-.4.9-.7.5-1.3l-7.8-1.3a3.8 3.8 0 0 1-3.1-2.4l-4.1-8-2.3 9.1c-.4 1.4-1.1 2.6-2.4 3-1.7.9-3.7 1.3-5.6 1.8-1 .2-1.7.7-2.1 1.7 2.4 1.4 5.6.9 7 3.8 0 1.5.4 3 .3 4.4-.3 1.9-.3 3.7.2 5.6l-.2.4.2-.4ZM226.7 248c-2.9 2.4-5 5.5-8.3 7.5l-1.3-1.3c-.4-2.9.5-5.5 1.2-8 .4-1.4.3-2.5-.4-3.5-2.2-1.1-4.8-1.3-6.3-3.6V237c1.1-.5 2.2-1.1 3.3-1.4l4.2-.6c1.8-.2 2.4-.9 3-2.7l3.2-11.1h2.9l2.6 10.9c3.6-.3 7.2-1.3 10.5.7v2.1l-6.5 5.5c.8 4.8.8 9.8-.7 14.6-1 .7-1.8.5-2.5-.2-2-1.9-3.6-4-5-6.7Zm.1-23.4-.5.4c-.6 2.4-1 4.8-1.9 7.1-1.2 3.6-1 4.6-5 5-1.8.2-3.8 0-5.6 1.5l5.2 2.2 1.3 1.6c.9 3.2-.6 6-.9 9.1 3.1-1.6 4.6-5 7.7-6 2.4 1.7 2.7 5.3 5.9 6.8v-13.4l5.7-4.5c-1.4-.9-2.5-1-3.8-.6-2 .4-4 .7-6-.7l-2-8.5ZM547.7 334.3c-.5-.7-.9-1-1.1-1.5-.2-.4-.1-.9 0-1.3l1.2-10.6c-.8-.2-2-.8-3-1a9 9 0 0 1-5.7-2.8v-2c2.6-2.5 6.2-2.7 10-3.9l4.2-10h2.4l.7 1.8 1.6 5.1c.4 1 1.2 2 1.9 3l8.4.7 1.7 2.1-6.1 7c0 .8.3 1.8.3 2.8.1 2.2.2 4.4.1 6.7 0 .6-.5 1.3-.9 2-1-.2-1.8-.5-2.4-1.3-1.2-1.8-2.5-3.5-3.9-5.3l-1-.9c-3.2 2.8-4.8 6.7-8.4 9.4Zm6.7-30-4 9c-3.6.5-7.7 1.8-8.9 2.8.8 1.7 2.5 1.5 3.9 1.8 1.8.5 3.4 1 4.8 2.8-.3 1-.3 2.4-.8 3.6-.5 1.7-.4 3.4-.3 5.7l7.6-9.5c1.6 3.1 3 6 5.6 8.1l-.4-8.3c1.5-2.8 4-4 5.2-6.8h-4.7c-2.6-.2-4.8-1.3-5.9-3.9l-2.1-5.4Z"/>
    <path class="cls-18" d="M90 80.4c-1.1-1.4-2.8-1.6-4.4-2-1-.3-2.1-.5-3-1-2-1-2.1-3.2-.2-4.2 1.1-.6 2.4-.9 3.5-1.2 6.7-1.6 5.8-1.7 7.7-7.6l2-5.3c.3-.5 1.1-.8 1.6-1.2 2 1 2 2.8 2.7 4.3l2.7 6.6c.7 1.5 2 2.1 3.6 2.2l6.2.6c2 .3 2.7 1.6 1.4 3.3-1.2 1.6-2.7 3-4 4.5a5.4 5.4 0 0 0-1.5 5.3c.4 1.6.6 3.4-.6 5-3.4-.3-4.5-4-7.5-4.9-1.4.7-2.4 2-3.3 3.2-2 2.7-2.8 3.4-5.2 4.4-1.5-.3-2.1-1.2-2-2.6 0-1.8.2-3.5.3-5.2v-4.2ZM521 301.5c1.2 1.1 1.3 2.4 1.4 3.7l.4 5.2c.2 1.4 1 2 2.3 2.2 2.5.2 5 .5 7.6 1 .8 0 1.5.7 2.5 1.2-2 3.2-5.5 3.8-8 6.3l1 7 .2.6c.1 1.3-.4 2.8-1.2 3.1-1.3.5-2.2 0-3-1l-4.2-5c-.6.3-1.1.5-1.5.9a498 498 0 0 0-6.5 6.5c-1 1-2 1.9-3.5 1.7-.6-.5-.8-1.1-.6-2 .5-3 .8-5.9 1.1-8.8.3-2.1-.4-3-2.5-3.2a7.7 7.7 0 0 1-4.5-1.7c-.8-.7-1.2-1.4-.8-2.4 1.7-2 4.1-2.4 6.5-2.7 3.3-.4 5.9-1.5 7.6-4.8 1.4-2.7 3.6-5 5.6-7.8ZM272.2 119.8l1.4-7.2 1.2-4c1 .6 1.7.9 2.2 1.4 2 1.6 3.3 3.9 4.6 6l1.4 2.5h9.5c.9 1.3.3 2-.4 2.6-3.9 2.4-3.4 6.1-3.1 9.8l.4 5.7c0 .6-.3 1.3-.5 2-2-.6-3.5-1.4-4.6-2.9-1-1.5-2.3-3.1-4.3-3.7-4 1.5-5.4 6-8.6 8.5l-1-.5-.7-.8.9-9.1c0-2.4-.5-2.9-2.9-3.2-1.2-.1-2.4-.2-3.6-.5-1-.3-1.7-.8-2.5-1.2 0-1.5 1-1.8 1.8-2.1l5.6-2 3.2-1.3ZM61.1 58.7c.7 3.1 1.3 5.8 1.7 8.4.2 1.4.8 2.2 2 2.6 2.4 1 4.7 2 7.2 2.8 1 .3 1.8.7 1.4 2.2l-3.8 1.6-.5.1c-4.2 1.6-5.3 3.4-4.5 7.8l.8 4.4c0 .5-.3 1.3-.7 1.6-.7.5-1.4.2-2-.4-1.4-1.6-2.8-3.3-4.3-4.8-1.6-1.6-3-1.6-4.8 0L48 90.1l-2.4 1.7v-3l2-9.6c.6-3.3-.1-5-2.8-6.7l-1.6-1c-.3-1.2 0-2 1.2-2 1.5-.3 3.1-.6 4.7-.5 2.8.2 4.7-1.2 6.3-3.3l4.6-6.1 1.1-1ZM66.6 257v-3l2-9.7c.6-3.2-.1-5-2.8-6.7l-.9-.5-.8-.5c-.2-1.2.1-2 1.3-2 1.5-.2 3-.6 4.4-.5 3 .3 5-1 6.6-3.2l4.6-6.2 1.1-1 1.4 6.5c0 .7.3 1.3.3 2 0 1.3.8 2 2 2.5 2.4 1 4.7 2 7.2 2.8 1 .4 1.8.8 1.4 2.2l-3.8 1.6-.5.1c-4.2 1.6-5.3 3.5-4.5 7.8l.8 4.4c0 .5-.3 1.3-.7 1.6-.7.5-1.4.2-2-.4-1.4-1.7-2.8-3.3-4.3-4.8-1.7-1.6-3-1.6-4.8 0l-5.6 5.2-2.4 1.7ZM430 333.6l.7-5.2 1.4-6.6c.6-3.3-.1-5-3-6.8l-1.4-.8c-.3-1.2 0-2 1.2-2.2 1.4-.2 3-.5 4.4-.4 2.9.3 5-1 6.6-3.2l4.6-6.2 1-.9.5 1 1.4 7.5c.1 1.2.6 1.9 1.6 2.3l7.4 2.9c1.3.5 1.3.4 1.5 2.1l-3.7 1.7c-.3 0-.5 0-.8.2-3.9 1.5-5 3.3-4.3 7.4l.8 4.6c0 .6-.2 1.3-.6 1.7-.7.5-1.4.3-2-.4-1.3-1.6-2.7-3.1-4.2-4.6-1.8-1.9-3.1-1.9-5-.1-2 1.6-3.7 3.4-5.6 5l-1.8 1.5-.8-.5ZM403.6 118.7l-2.2 1.5a5.4 5.4 0 0 0-2.6 6.1l1.8 9c.1.8.4 1.6.7 2.3-1.3 1.2-1.6 1.3-2.8 0a42.6 42.6 0 0 0-5.6-5.2c-1.9-1.4-3.1-1.4-4.8.2l-4 4.1-.4.7c-.5.7-1.3.9-2 .4-.4-.4-.6-1.2-.6-1.7.2-2 .7-4 .9-6.1.1-3.2-.7-4.3-3.6-5.5l-3.7-1.5c-.8-.2-1.7-.3-1.7-1.4 0-1.2 1-1.3 1.7-1.5 3-.9 6-1.9 8.7-3.8l1.9-9.9c.5.4 1 .5 1.2.8l4.6 6.2c1.7 2.2 3.8 3.4 6.7 3.2 1.1-.2 2.3 0 3.5 0 1.1 0 1.8.5 2.3 2ZM231.4 126.6c-2.5-2-6-2.3-7.5-5.7.8-.3 1.3-.7 2-.8 2-.2 3.9-.5 5.9-.5 1.4 0 2.3-.6 3-1.8l2.8-5.8.9-1.8c.3-.7.8-1.2 1.7-1.1.9.1 1.2.7 1.3 1.5l1 5.1 1.1 3.8 4 1 5.6 1.1c1.5.3 1.7 1.3.6 2.4-1.3 1.4-2.7 2.7-3.9 4.2-.5.6-1 1.4-1 2.1 0 1.5 0 3 .2 4.5.3 1.7.3 3.3-.5 5-1.1.4-2-.2-2.6-1l-2-3-3.3-3.3-4.4 3.3-4.5 4c-.5.4-1.4.8-2 .5-.4-.2-.7-1.1-.8-1.8-.2-2.1.7-4 1.3-6 .6-2 1.7-3.7 1-6ZM122.9 255.7c-1.5.7-2.1-.3-2.8-1-2-2.4-4.7-4-7.6-6l-4 3.1c-1 .7-1.7 1.6-2.7 2.3-.3.3-1 .3-1.9.5l.4-2.6 1.3-6.3c.7-3.5-1.4-5.6-3.6-7.8l-2.4-2.2c.5-1.4 1.3-1.6 2.4-1.6h5.8c1.8 0 3.2-.4 4.1-2 1.2-2.1 3.3-3.6 3.8-6.1.1-.6 1.2-1 2.2-1.8l1.5 5.2.5 3c.3 2.6 1 3.5 3.7 4.1 1.3.3 2.8.4 4.1.6h1c1 .3 2 .5 2.3 1.7.2 1.1-.8 1.5-1.6 2l-5.5 2.9c-1 .5-1.6 1.3-1.5 2.5l.5 6.4v3ZM486.4 333.2c-1.5.6-2.1-.3-2.8-1-2-2.4-4.7-4.1-7.7-6l-6.3 5c-.6.6-1 1-2.2.4l.8-3.9.9-4.6c.6-3.4-1.4-5.6-3.6-7.7l-2.4-2.1c.4-1.5 1.3-1.7 2.5-1.7h6c1.6 0 2.8-.5 3.7-2 1.3-2 3.4-3.6 4-6.2 0-.6 1.1-1 2.1-1.7l1.5 5.2c.3 1.3.4 2.6.5 4 0 1 .6 1.6 1.4 2.1 2 1.1 4 1.4 6.2 1.6a7 7 0 0 1 2.4.5c1.5.7 1.5 2 .1 2.8-1.8 1-3.5 2.1-5.4 3-1.8.7-2.5 1.8-2.3 3.6l.6 5.7v3ZM336.6 121.5a6.5 6.5 0 0 1 4.4-1.4c2.4 0 4.6-.7 6.4-2.4.6-3.4.7-6.8 2.2-10.1.8.3 1.5.6 2.1 1l-.3.2 2.5 4c.3.4.8.8 1 1.3 1.2 2.4 3.2 3.2 5.8 3h5c.7 0 1.4.3 2.8.6l-2.5 2.7-1.7 1.5c-2.7 2.6-2.8 5.8-2 9.2.2 1.4.7 2.7 1 4l.2 2c-.9.6-1.4.3-2-.3l-6.4-5.1-5.3 3.7c-1.7 1.1-2.6 3.3-5.2 3.9l.6-11.4-7.1-4c-1-.5-1.8-1-1.6-2.4ZM324 139c-1.8-1.6-3.6-3.1-5.3-4.8-1.9-1.6-2.4-1.7-4.6-.6a25 25 0 0 0-6.7 5c-1.2 1.2-1.2 1.2-2.6.1l3-11.2c.5-1.8.4-2-1.2-3-1.2-.7-2.6-1.1-3.8-1.7-1.2-.6-2.6-1.1-2.1-3 2.1-1 4.4-1.5 6.9-1.7 1.6-.2 3.1-.9 4.6-1.3 1.4-3 1.2-6.2 3-8.7 1.4-.2 1.7.7 2 1.5l2.3 6.3.8 2.7 8 1c1.3 0 2.2.3 2.7 1.7-.3.4-.5.9-1 1.3l-2.6 2.6c-3.4 3.4-3.6 4.2-2.6 9l.5 3.2c.2 1-.3 1.3-1.3 1.5ZM155.2 233c2 .8 4 1.7 6.3 1.7 1.5 0 3 .5 4.5 1 1.3.4 1.4 1.8.2 2.5-1 .7-2 1-3 1.6l-4 2 3.5 13.3c-1.1 1.1-1.3 1.2-2.5.2l-4.5-3.9c-.9-.7-2-1.1-3-1.7-1.3-.6-2.4-.4-3.4.6l-5 4.5c-.8.8-1.5.9-2 0 .2-2.7.4-5.3.8-7.8.2-1.4-.2-2.6-1.3-3.5l-4-3.9-1.4-1.7c.8-1.5 1.8-1.7 3-1.8l5.4-.6c2.2-.2 2.5-.6 3.2-2.8a93 93 0 0 1 2-6c.4-1 .6-2 2.1-2.2 2 2.3 1.7 5.6 3 8.5Z"/>
    <path class="cls-21" d="M162 108.5c-.2 2.2-1 3-3.3 3l-32 .5h-13.4l-32.2-.6c-4 0-8.1-.4-12.2-.4-7 0-14 .3-21.2.4-1 0-2.7.5-2.6-1.3 0-1.4 1.6-1 2.6-1l12.8-.1c.6 0 1.3-.3 2-.5h.5c.6.2 1.2.5 1.8.5l44.8.5h14.7c2.3 0 4.6.4 7 .4 3.5 0 7.1-.3 10.7-.4l18.2-.5c.4 0 .9-.3 1.3-.5h.5ZM475.8 158.4c-9-.1-18-.4-27-.4-7.1 0-14.3.3-21.4.5-4.4.1-8.8.4-13.2.4-6.5 0-13-.4-19.4-.5l-39.5-.4h-10.7l-19-.6c-6.5-.1-13-.4-19.6-.4-5.4 0-10.8.3-16.2.5l-10.2.5-14 .5-31 1c-2.4 0-4.8.3-7.3.4-.7 0-1.7 0-1.7-1 0-.4.9-.9 1.4-1.3.2-.2.5 0 .7 0l10.7-.5 26-.6 23-1 13.5-.5c8-.2 16-.4 24-.4 5.6 0 11.3.4 17 .5l41.3.4 25.2.5c5.5.2 11 .5 16.5.4 5.4 0 11-.3 16.4-.4 6.5-.2 13-.4 19.4-.4 7.9 0 15.7.3 23.6.4.8 0 2.1-.5 2.1 1 0 1.3-1.2 1.4-2.1 1.4h-8.5ZM597 372.6c-1.8.3-3.6.8-5.3.8l-13.8-.2c-6.2 0-12.5 0-18.7.2-13.2.7-26.4-.3-39.6-.3l-8.5-.2-39.7-1.2-17.7.2c-3.3 0-6.6 0-9.9.3-11.1 1-22.2.5-33.3.4h-21.2c-.8 0-2.1.5-2.2-.9-.2-1.5 1.4-1.4 2.1-1.4h9.5l12.3.2h20.6l11.5-.3 11.4-.3 15-.2c11.4 0 22.9 0 34.4.2 9.7.2 19.4.9 29 1.2 7.7.2 15.4.2 23 .2 3.6 0 7.2-.3 10.7-.3H597v1.6ZM395.9 391.5c.4-1.9 1-2.4 3-2.4l9.2.2 15.2.4 38.4 1c4.4 0 8.7-.4 13-.6h1.3l8.2-.3c.4 0 1 .3 1.1.6.1.4-.2 1.1-.5 1.3-1 .4-2.3 1-3.5.9-13.3 0-26.6-.3-39.9-.4-.6 0-1.3.3-2 .4l-24-.6c-.5-.2-.9-.5-1.3-.5l-15.4-.4c-.4 0-.9.3-1.3.5h-1.5ZM503.3 392.4c0-1 .3-1.7 1.4-2l1.5-.3 24 .3h3.7l14.4.3c1 0 1.9 0 2.8-.2.8-.1 1.5 0 1.7.9.2 1-.5 1.3-1.3 1.4-.9.2-1.8.4-2.7.4l-11-.2c-.6 0-1.3.2-2 .4h-.5c-.8-.8-1.6-.8-2.5-.1h-.5c-.4-.2-.8-.5-1.2-.5-6.8-.3-13.6-.5-20.5-.6-.4 0-.8.3-1.3.4l-6-.2ZM552 354.3l-6-.1h-16.4c-7.5 0-15 0-22.5-.2l-45.9-.8-32-.4c-7.8 0-15.8-.4-23.7 0-7.6.2-15.2.5-22.9.1h-1c-.8 0-1.9 0-1.8-1 0-.5 1.1-1 1.8-1.4h.8c4.3 1.3 8.7.3 13 .2 8.4-.2 16.7-.4 25-.2l37.5.6 42 .7 23.7.2 16.8-.3c7 0 14.1.3 21.1.4h15.2l15.4-.6h1c.9 0 2 .1 1.8 1.3 0 .4-1 .8-1.6 1.2h-.5l-9.4.2h-17.5l-14 .3v-.2ZM224.2 301h-25l-20.3-.6c-3.9 0-7.8-.3-11.7-.4-1.9-.2-3.7-.5-5.6-.5-7.2.1-14.3.4-21.5.4-5.5 0-11-.2-16.7-.4a121 121 0 0 0-16 .4c-2.4.2-4.8 0-7.2 0H87.7c-6.5 0-13-.2-19.5-.5-1.2 0-2.4-.2-3.6-.4-.4-.1-1-.5-1-.9 0-.3.3-1 .6-1 .9-.4 1.8-.6 2.7-.5 2.4 0 4.8.4 7.2.4 9.1.2 18.3.5 27.4.5 8.7 0 17.4-.4 26-.4 6.7 0 13.3.3 20 .4 3.1 0 6.2-.4 9.3-.4 5.1 0 10.2.3 15.3.4l18.7.5 45.7.6h13.7c.6 0 1.3 0 1.6.3.4.4.5 1.2.4 1.6-.1.3-1 .5-1.5.5h-26.5ZM220.2 280.7c-3.5-.3-7-.6-10.4-.7h-24.2c-5.1-.2-10.3-.8-15.5-1h-59.7c-2.3 0-4.7-.5-7-.5-9 .1-18 .4-27 .4-4 0-8-.6-12-1-.3 0-.8-.2-.8-.4 0-.4.1-1 .4-1 .7-.5 1.5-1 2.2-.9 6.1 1 12.3 1 18.4 1l12-.1c1.9 0 3.7-.3 5.6-.4 1 0 2.1 0 3.2.2l1.7.2 61.9.1c4.4 0 8.9.7 13.4.8 3.9.2 7.8.1 11.7.1h14.5l20.7.5c.5 0 1.4.3 1.6.7.4 1-.5 1.3-1.3 1.4-1.1.2-2.3.3-3.4.3h-6v.2ZM332.8 180h-15.5l-26.1-.5c-5.2 0-10.3.4-15.4.5l-41.7.4c-2.2 0-4.4-.2-6.5-.4-.4 0-.9-.4-1-.6 0-.3.2-.9.5-1a3 3 0 0 1 1.5-.7c6.4 0 12.7.3 19 .3H272c5.2 0 10.4-.4 15.7-.5 8.3-.2 16.6-.4 24.9-.4 6.7 0 13.4.3 20.1.4h17.8c1 .2 1 .8.6 1.5-.6 1-1.6 1-2.6 1h-15.8ZM237.8 199.2c11.5.1 23 .3 34.6.3 10.5 0 21-.4 31.4-.4 4 0 8 .6 11.9.9h.5l21.7.5 1.9-.3c.6 0 1.1.3 1.7.5-.4.6-.5 1.4-1 1.7-.8.4-1.8.6-2.7.5-7.8-.1-15.7.1-23.5-.6-11-1-22.1-.8-33.1-.8-11.3 0-22.6.4-33.8.4-5.7 0-11.3-.3-17-.5l-1.2-.1c-.8-.4-.8-1.4 0-1.8.6-.3 1.4-.5 2-.5h6.6v.2ZM396.6 176.6h19.7c8.2 0 16.3.3 24.5.5 5 .1 10 .4 15.1.4 3.8-.1 7.6-.8 11.4-.9 5.7 0 11.5.2 17.2.4h4.7c.4 0 .8.5 1.2.7-.2.3-.4.7-.7.9-.7.6-1.3 1.1-2.4.6-.5-.2-1.1-.2-1.7-.2h-16l-12.6.9c-4.1.2-8.2.1-12.3 0-5.5 0-11-.3-16.5-.4l-46.4-.6c-2.4 0-4.8-.2-7.2-.4-.3 0-.6-.4-1-.6l.6-1c.9-.2 1.8-.4 2.7-.4h19.7Z"/>
  </g>
  <path class="cls-19" d="M441.3 448.9c-3.6-2-6.8-4.4-9.6-7.4l-5.8-6c2.4-2.4 5.5-3.8 8.2-5.6 2.2-1.5 4.2-3.2 6.8-4.2 1.6-.6 3.3-1.5 5-2a44.5 44.5 0 0 1 20.4-3.4c9 1.1 14.8 6.2 19 13.4 1.8 2.8 2.6 6.2 1.8 9.7-.2 1.3.6 2.5-.4 4-2 2.5-4.1 3-7 2.4l1.2-8.7a7 7 0 0 0-.8-4.8c-.4-.5-.7-1.3-1.5-1-.7.3-.5 1-.5 1.6.4 3.8-.2 7.6-.7 11.3-.3 1.7-1.1 2.3-2.9 2.2a242 242 0 0 0-12.6 0c-3.6 0-5.7.6-5.9.6-2.8-.3-10.9-.7-11-.7-.3-.3-3.2-1-3.7-1.4Z"/>
  <path d="m426 435.4 5.7 6c2.8 3 6 5.5 9.6 7.5 5.7 2.1 6.5 1.5 6.7 2.1-2.7.9-11-.7-13.6-.8-7.7-.2-15.4.4-23.7.4a68.2 68.2 0 0 1 15.2-15.2Z" fill="#fd7314"/>
  <path d="M489.5 429c1 2 2.4 3.7 2.6 6 1 4.2 1.6 8.4.4 12.7-1 3.5-2.6 6.3-6 7.8l-1.2.3c-7-.6-13.9.1-20.8 0h-15.2c-6.1 0-12.3-.3-18.5-.2-8 .1-16.2.6-24.3.7-5.8 0-11.5-.5-17.4-.4-6.2.2-12.5.1-18.7 0-2.1 0-3.5 1.5-4.8 2.7a28 28 0 0 1-14.1 7 81 81 0 0 1-25.4 2.2 52 52 0 0 1-22.7-5.7c-3-1.8-4.4-4.8-6.5-7.1-1-1-1.7-1.5-3-1.5-14 .1-28-.1-42 .1-12 .3-24 .2-36.2.7l-10 .5c-2 0-3.9-2.7-3.2-4.5 1.6-4.4 5.4-6.8 8.2-10 5.3-6 11.8-10.8 17.6-16.2 7.2-6.7 13.2-14.2 19.8-21.4 7.6-8.4 14.3-17.5 21.9-26 7.5-8.4 14.7-17.3 23.3-24.8 1.3-1.2 1-1.5-.5-2-9.6-3.2-19.3-6-28.8-9.6-4.6-1.7-9-4-13.7-5.6a2.5 2.5 0 0 1-1.7-2.1c-.3-2.6-1.2-5.2 0-7.8.4-.6.4-1.3.5-2 .3 0 .3-.1.2-.3l.8-6c.6-1.3.8-2.7 1-4.1 1.8-11.5 4.4-22.9 7-34.2.6-2.7 1.2-5.3.6-8.2-1.6-7-3.8-13.9-5-21-1-7-1.7-13.9-.6-20.9.5-3.2 2.5-5.7 4.9-6 1.5 0 2-.4 2-2.2-.1-4.5 0-9 1.3-13.4a5 5 0 0 1 4.4-3.8c1.9-.3 3.3.9 4.4 2.2 1 1.1 1.8 2.5 2.8 3.7.2.4.5 1 1 .8.5-.2.4-.7.5-1.1 1.9-9.3 5.6-17.9 8.8-26.7.8-2 2.4-2.5 4.2-1.4a13 13 0 0 1 4.3 4c2.3 3.5 4.9 6.9 7.3 10.4 4 6 7.7 12.1 11.4 18.3 3.2 5.4 6.3 10.9 9 16.6 1.4 3 2.2 6 6.5 4.3 1.6-.6 2-.8 3.8-3l.1-.2c2.6-4.7 4-9.8 6-14.8 2.9-7.4 6-14.7 9.4-22L354 176c2-4.2 3.6-8.7 8.6-10.9 2.5-1 4.7-1.5 6 .3 2.5 3.5 4.3 7.4 5.8 11.4 2.9 8 6.1 16 8.7 24.1.5 1.5 1.5 1.7 2.7.7 3.1-2.9 7-2.1 8.8 1.8 2 4.6 3.1 9.4 3.6 14.3a188.3 188.3 0 0 1 .5 24.9c-.2 1.7-.6 3.4 0 5-.2.6-.4 1.1.2 1.5 2.9 8.5 5.8 16.9 9.4 25 1.9 4.4 3.6 9 6 13l.3.5 2.4 5.5c-.4.5 0 .7.4 1l3 6.5c.1.5.7 1.1 0 1.8l-2.6 3.2c-3.5 4.2-7.8 7.5-12 11a433.6 433.6 0 0 1-30.6 23.7c-1.1.8-1.2 1.5-.3 2.4 2.1 2 3.8 4.3 5.2 6.8a190.6 190.6 0 0 1 22 61.6c1.2 6 2 12 2.9 18l.7 5.6v.7l-.1.1v.4l1.1 10.7c3.8-4.3 7.3-8.3 11.1-12l7.8-6c1-.4 1.8-.9 2.7-1.4 5.8-4 12.4-6.5 18.8-9.5 6.9-3.3 14.5-4 22.2-2.5 5.5 1 10.3 3.2 14.5 7.3 2.1 2 3.6 4.6 5.7 6.6Zm-129-253.5c-.3.3-.7.5-.8.9-3.3 7.8-7.6 15-11 22.8-2.5 5.8-5 11.6-7.3 17.6-1.4 3.3-2.3 6.8-4 10.1-1.2 2.6-2 5.4-3 8a15.1 15.1 0 0 1-8.4 4.4c-2.8.5-5.5 1.4-8.2 1.8-.8.1-1.8 1.3-2.5-.1-.6-1.1-1.1-2.2.2-3.3.4-.2 1.3-.6.6-1.3-1-1.1-1-2.6-1.7-3.9-4.8-9.1-9.7-18.3-15.2-27-3.4-5.4-6.7-10.9-10.6-16-.4-.4-.6-1.5-1.6-1.2-.7.2-.8 1-1 1.8l-4.6 13.8c-1.1 2.6-1.6 5.5-2.4 8.3-1 3.3-2.8 6.4-3.7 9.6-2.4 7.8-3.8 16-5.7 24.1-2.6 10.6-3.8 21.5-6 32.2-2.5 11.4-5.1 22.8-7 34.4l-2.5 15c.2 1-1.2 2.5.2 3 3.3 1.2 6.5 2.7 9.8 4 9.8 3.6 19.9 6.6 29.8 10 3.2 1.2 6.5 1.7 9.6 3.3 1.2.7 1 1.3.4 2.1a139 139 0 0 0-10.9 9.8l-9.5 10-14.2 16.6-18 21.3a225.5 225.5 0 0 1-20.1 21.2c-6.8 6-14.2 11.4-20.2 18.4-.4.5 10 1.4 15.6 1.3 8.9 0 17.8 0 26.6-.2l24.8-.1h14c2.4.1 2.7-.3 2.4-2.6-.3-2-1-4.2-.7-6.2a30.5 30.5 0 0 1 18.6-25.8c3.2-1.5 6.7-2.2 10.2-3.2 7-2 14.2-1.8 21.3.2 6.6 2 13 4.3 18 9.2 8.2 8.2 10.2 18 6.8 29.1-.4 1.2-.8 1.7 1.2 1.7 5.7-.2 11.4.2 17.1 0 5-.3 9.8.3 14.6-.1.9-.6.5-1.4.4-2-1.3-9.3-2.5-18.6-4-27.8a206.3 206.3 0 0 0-14.7-52.3c-4.2-9.2-8.5-18.4-15.3-26-.3-.4-.9-1-.4-1.3 1.6-1.2 1.5-3.5 3.2-4.7 8-5.7 15.8-11.5 23.5-17.7 6.7-5.4 13.5-10.7 19.3-17.2 1.3-.6.6-1.4.3-2.2l-8.8-18.4c-6.3-13.1-9.8-27.3-14.5-41-2.8-8.3-4.8-17-8-25.2l-8.3-22.5c-2.6-7-5.1-14-8.2-20.7-.3-.8-5.5 4-5.5 4Zm94 274.8h1.1c.2.1.3 0 .3-.2.7-4.7 1.5-9.4.8-14.1 0-.4 0-1 .4-1.1.5-.2 1 .1 1.3.5.5.6.6 1.3.7 2 .7 3.3.2 6.4-.3 9.5-.5 3.6-.5 3.5 3 3.4l12.7.1c1.8 0 2.6-.5 2.9-2.2.5-3.8 1.1-7.5.7-11.3 0-.6-.2-1.3.5-1.6.8-.3 1.1.5 1.5 1a7 7 0 0 1 .8 4.8l-1.2 8.7c2.9.6 5 0 7-2.5 1-1.4.2-2.6.4-4 .8-3.4 0-6.8-1.7-9.6a25.1 25.1 0 0 0-19-13.4c-7.4-1-14 1.2-20.6 3.4-1.6.5-3.3 1.4-5 2-2.5 1-4.5 2.7-6.7 4.2-2.8 1.8-5.8 3.2-8.2 5.5a68 68 0 0 0-15.2 15.2c8.3 0 16-.6 23.7-.4l20.2.1Zm-112.4 6.3c.6-.9.4-1.8.3-2.7-.5-3.2-.2-6.4 0-9.7 0-.7-.3-2 1-1.9.8 0 1 1 1.1 2v2.2l.5 12.9c0 1.1.3 1.5 1.6 1.3 3.5-.4 6.9-1.3 10-2.8a18 18 0 0 0 8.8-8 25 25 0 0 0-8.1-30.7 43.4 43.4 0 0 0-41.8-4.1c-5.7 2-10.3 5.5-14 10.3a24 24 0 0 0-5.3 14.5c0 4.5 1 8.9 4.5 12.4a28.5 28.5 0 0 0 17.1 8.5c1.2.2 1.3-.5 1.2-1.4-.4-4.2-1-8.5-1.3-12.8 0-1.2-.7-3.1.6-3.3 1.8-.3 1.6 1.8 2 3l.1.6c0 4 .8 7.9 1 11.9.2 2.2 1.2 3 3.3 3 4.7.2 9.3.4 14 0 4-.4 4.3-.5 3.6-4.5l-.2-.7ZM263.3 265l.6-2.4c2-12.2 4.9-24.2 7.7-36.3.6-2.4 1.5-4.8-.7-6.9-.4-.4-.2-.9-.2-1.4-.5-3.5-5.1 4.8-4.2 11.7.2 1.5.2 2.8-1.2 3.7-1.5.9-2.3-.4-3.3-1a4.8 4.8 0 0 1-1.7-2.4c-.5-1-1-2-2-3.1a101.8 101.8 0 0 0 5 38.2Zm129.6-26c0-7.3.5-14.6-.5-21.8a53.1 53.1 0 0 0-4-11.4 20 20 0 0 1-2.1 7.2c-1.1 2-.8 3.2-.2 4.8 2.5 7 4.4 14.2 6.8 21.2Z" fill="#462700"/>
  <path class="cls-22" d="M413.4 301.6c-5.7 6.5-12.5 11.7-19.3 17.1-7.6 6.2-15.5 12-23.4 17.8-1.7 1.2-1.6 3.4-3.2 4.6-.5.3.1.9.4 1.2 6.8 7.8 11 16.9 15.3 26.1a192.7 192.7 0 0 1 14.7 52.3c1.5 9.2 2.7 18.5 4 27.8 0 .6.4 1.4-.4 2-1.8-1.5-3.6-3.2-5.6-4.5-6.6-4.4-12.6-9.5-18.3-15-8-7.8-15.1-16.4-22.9-24.4-10-10.4-17.9-22.5-26.4-34.1-5.3-7.3-9.5-15.4-13.9-23.4A439.1 439.1 0 0 1 294 309a98 98 0 0 1-6-17.4l2.8-1.2c1-.5 1.2 0 1.4.6-.1 4.2.5 8.3 2.3 12.1 4.2 8.9 12 13 21.1 14.9 5.6 1 11.3 0 16.8-1.6 5.7-1.6 11.3-3 15.5-7.6 5-5.5 7.5-11.6 6.6-19.1-.4-4-2.3-7.5-3.6-11.2 4.6 0 9.1.5 13.6 1 18.8 2 35.1 9.3 49 22.2Z"/>
  <path class="cls-19" d="M413.4 301.6a83.4 83.4 0 0 0-48.9-22.2c-4.5-.5-9-1-13.6-1-2-3.1-3.6-6.4-6.6-8.6-1.9-1.3-2-2.8-1.6-4.7.3-2.3-.1-4.5-1.3-6.4-.7-1.3-1.7-1-3.4-.7-1.9.3-2.6.2-2.5 2l.5 6c.2 2-1.3-.3-3-.9a34 34 0 0 0-23.4 1.4l-1.1-4.6c-.3-1.3-.8-2.3-2.2-2.4-1.3-.2-2.4.4-3 1.6-.5.8-.9 1.7-1.1 2.5-.7 2.6 1 5.6-.4 7.7-1.4 2.3-3.8 4-5.3 6.2-2.7 4.1-3.8 8.7-4.2 13.4-.3-.6-.6-1.1-1.4-.7l-2.9 1.3a9 9 0 0 1-.5 0c.1-2.4-1-4.5-1.5-6.8-1.4-6.9-2.7-13.7-3.7-20.7s-2-13.9-1.8-21c0-2 0-4.1-.2-6.2-.5-6.7-.3-13.4 0-20 .2-4.4 1.4-8.6 1.2-12.9l4.5-13.8c.2-.7.3-1.6 1-1.8 1-.3 1.2.8 1.6 1.3 4 5 7.2 10.5 10.6 15.9 5.5 8.7 10.4 17.9 15.3 27 .6 1.3.6 2.8 1.6 4 .7.6-.2 1-.5 1.2-1.4 1-.9 2.2-.3 3.3.7 1.4 1.7.3 2.5.1 2.7-.4 5.4-1.2 8.2-1.7 3.2-.6 6.1-2 8.5-4.4 5.2-3.3 9.8-7.5 12.7-13 3.2-5.8 5.4-12 6.8-18.5l2.3-10.2 4.2-17.8c1.5-5.5 2.2-5 3.5-5.5.6-.2 1.7.8 2 1.5 3 6.8 5.6 13.8 8.2 20.8l8.4 22.5c3.1 8.2 5 16.8 8 25.1 4.6 13.8 8.1 28 14.4 41l8.8 18.4c.3.8 1 1.7-.3 2.3Z"/>
  <path class="cls-15" d="M322.5 410.5c-3.5 1-7 1.6-10.2 3.2a30.5 30.5 0 0 0-18.6 25.7c-.2 2 .4 4.2.7 6.2.4 2.4 0 2.8-2.4 2.7l-14-.1-24.8.2c-8.8 0-17.7 0-26.6.2-5.5 0-11 .3-16.6.4-.1-.9.6-1.2 1-1.8 6-7 13.4-12.3 20.2-18.4a223 223 0 0 0 20.1-21.2l18-21.3 14.2-16.5c3-3.5 6.3-6.8 9.5-10 3.5-3.6 7.1-6.7 10.9-9.8.8.2 1 1 1.4 1.6 1.7 3 3 6.3 4 9.7 5 16.2 9 32.7 13.2 49.2Z"/>
  <path class="cls-20" d="M322.5 410.5c-4.1-16.5-8.2-33-13.2-49.2-1-3.4-2.3-6.6-4-9.7-.3-.7-.6-1.4-1.4-1.6.6-.9.8-1.5-.4-2.1-3-1.7-6.4-2.2-9.6-3.3-9.9-3.5-20-6.5-29.8-10.1-3.3-1.3-6.5-2.8-9.8-4-1.4-.5 0-2-.2-3 1-1.3 1.4-2.8 1.8-4.3a32 32 0 0 1 9-15.2c6.7-6.5 14-12.4 22.6-16.5h.5a98 98 0 0 0 6 17.4c5.9 13.9 13.2 27 20.4 40.2 4.4 8 8.6 16 14 23.4 8.4 11.6 16.3 23.7 26.3 34 7.8 8 15 16.7 23 24.5 5.6 5.5 11.6 10.6 18.2 15 2 1.3 3.8 3 5.6 4.5-4.8.4-9.7-.1-14.6 0-5.7.3-11.4 0-17.2 0-1.9.2-1.5-.3-1.1-1.6 3.4-11 1.4-20.9-6.8-29a40.2 40.2 0 0 0-18-9.3c-7.1-2-14.2-2.1-21.4-.1Z"/>
  <path class="cls-19" d="M315.5 415.1c14.7-6 28.6-4.2 41.8 4.1a24.9 24.9 0 0 1 8 30.8 18 18 0 0 1-8.7 7.9 33.5 33.5 0 0 1-10 2.8c-1.3.2-1.6-.1-1.6-1.3l-.5-12.9v-2.2c0-.9-.3-2-1.2-2-1.2 0-.9 1.2-1 2-.1 3.2-.5 6.4 0 9.6.2 1 .4 1.9-.2 2.7a46 46 0 0 1-9-8.5c-8-9.8-13.5-21-17.6-33Z"/>
  <path class="cls-15" d="M287.5 291.5a87.3 87.3 0 0 0-22.6 16.5 32 32 0 0 0-9 15.2c-.3 1.5-.8 3-1.8 4.3l2.5-15c1.9-11.6 4.6-23 7-34.4 2.2-10.7 3.4-21.5 6-32.2 1.9-8 3.3-16.2 5.7-24.1 1-3.2 2.7-6.3 3.7-9.6.8-2.8 1.3-5.6 2.5-8.3.2 4.3-1 8.5-1.2 12.8a157 157 0 0 0 0 20.1c.2 2 .2 4.2.2 6.3-.2 7 .8 14 1.8 21 1 6.9 2.3 13.8 3.7 20.6.4 2.3 1.6 4.4 1.5 6.8ZM315.5 415.1c4 12 9.5 23.2 17.5 33a46 46 0 0 0 9.1 8.5l.2.7c.7 4 .4 4.1-3.6 4.5-4.7.5-9.4.2-14 0-2.1 0-3.2-.8-3.3-3-.2-4-1-8-1-12v-.4c-.5-1.3-.3-3.4-2-3.1-1.5.2-.8 2.1-.7 3.3l1.3 12.8c0 .9 0 1.6-1.2 1.4a28.5 28.5 0 0 1-17.2-8.5c-3.5-3.5-4.5-8-4.4-12.4.2-5.3 2-10.3 5.3-14.5 3.7-4.8 8.3-8.3 14-10.3Z"/>
  <path class="cls-20" d="M263.3 265.2c-3.7-12.7-6.2-25-5-38.2a9.3 9.3 0 0 1 2 3.1c.3 1 .8 1.8 1.7 2.4 1 .6 1.8 2 3.3 1 1.4-.9 1.4-2.2 1.2-3.7a67.2 67.2 0 0 1-.5-20c.1-.4.6-.6 1-.3 2.5 2.2 4.8 10 5 10.5 1 3 .2 4-.4 6.5-2.8 12-5.7 24-7.7 36.2l-.6 2.5Z"/>
  <path d="m360.5 175.5-4.2 17.8-2.3 10.1a71.5 71.5 0 0 1-6.8 18.6c-3 5.5-7.5 9.7-12.7 13 1-2.7 1.7-5.5 3-8 1.6-3.3 2.5-6.8 3.9-10.2 2.3-6 4.9-11.8 7.4-17.6 3.3-7.7 7.6-15 10.9-22.8.1-.4.5-.6.8-1Z" fill="#fe7314"/>
  <path d="M392.9 239.1c-2.4-7-4.3-14.2-6.8-21.2-.6-1.6-1.6-3.7-1.1-5.9.8-3 3.4-7 4-7 .5 0 .9.6 1 1 1.3 3.7 1.8 7.5 2.4 11.3 1 7.3.5 14.5.5 21.8Z" fill="#fdf8de"/>
  <path d="M405 429c4.7-.6 9.4-.4 14.1-.4 2.2 0 4.4-.7 6.6 0l-7.8 6h-12.2l-.7-5.6Z" fill="#c78701"/>
  <path d="M292.3 291c.4-4.8 1.5-9.4 4.2-13.5 1.5-2.3 3.9-4 5.3-6.2.2-.3-.3-5 .4-7.6.2-1 .6-1.8 1-2.6.7-1.1 1.8-1.8 3.1-1.6 1.4.1 2.4 1.3 2.7 2.5.3 1.5.2 2.9.6 4.6A34 34 0 0 1 333 265c1.7.6 2.2 1 2-1.1v-3c0-1.8 1-4.1 2.8-4.4 1.7-.3 2.9.8 3.6 2 1.2 2 1.6 4.2 1.3 6.5-.2 1-.3 1.8 0 2.5s.6 1.5 1.6 2.2c3 2.2 4.7 5.5 6.6 8.6 1.4 3.7 3.2 7.2 3.7 11.2.8 7.4-1.6 13.6-6.7 19-4.2 4.7-9.8 6-15.5 7.7a36 36 0 0 1-16.8 1.6c-9-1.8-16.9-6-21-15a25.6 25.6 0 0 1-2.3-12Zm2.4 1 .1 1.3c.5 13.6 11.5 21 23.3 22.5 7.6 1 15-1.5 22-4.3 7.9-3.2 11.6-9.7 12.3-17.8a29 29 0 0 0-6-18.3c-5-7.6-13.2-8.4-21-9.1-5.1-.5-10.1.4-14.9 3-4 2.2-7.6 4.5-10.5 7.9-3.7 4.2-5.1 9.3-5.3 14.9Z" fill="#472902"/>
  <path class="cls-22" d="M294.7 292a23 23 0 0 1 5.2-14.9c3-3.3 6.7-5.7 10.6-7.8 4.8-2.6 9.8-3.5 14.8-3 7.9.7 16 1.5 21 9a29 29 0 0 1 6.1 18.3c-.7 8.1-4.4 14.7-12.3 17.8-7 2.9-14.4 5.4-22 4.4-11.8-1.5-22.8-8.9-23.3-22.5l-.1-1.2Zm25.5-24c-2.3 0-6 .9-7.4 1.7-1.1.6-2 1.3-1.3 2.7 1 2.1 5.6 4.7 8 4.3 2.6-.3 5.4-3 6-5.6 0-1 0-2-1.1-2.2-1.5-.2-2.9-1-4.2-.8Z"/>
  <path d="M320.2 268c1.3-.1 2.7.7 4.2 1 1 0 1.2 1.1 1 2.1a7.7 7.7 0 0 1-6 5.6c-2.3.4-7-2.2-8-4.3-.5-1.4.3-2.1 1.4-2.7 1.4-.8 5.1-1.6 7.4-1.6Z" fill="#472801"/>
  <path d="M303.4 282.2c-.4-1 .8-1.8 1.6-1.1 1 .9 2 6 13 4.9 10-1 11-2 13-3 4-2 4-4 5-5s2-1 2 0-.5 2.5-3 5-6 4-16 5-11.4-.4-13-2a12 12 0 0 1-2.6-3.8Z" fill="#4a2c06"/>
</svg>
