<!-- This Source Code Form is subject to the terms of the Mozilla Public
   - License, v. 2.0. If a copy of the MPL was not distributed with this
   - file, You can obtain one at https://mozilla.org/MPL/2.0/. -->
<svg xmlns="http://www.w3.org/2000/svg" viewBox="0 0 549 533">
  <defs>
    <style>
      .cls-5 {
        fill:#2e7295;
      }
      .cls-12 {
        fill:#feb45c;
      }
      .cls-14 {
        fill:#feb94b;
      }
      .cls-15 {
        fill:#fead3b;
      }
      .cls-17 {
        fill:#e6cba1;
      }
      .cls-20 {
        fill:#fe7f19;
      }
      .cls-21 {
        fill:#fef9df;
      }
    </style>
  </defs>
  <g>
    <path d="M242 125s-9 12-11 21-5 66 37 75 64-5 66-13 12-81-21-85-35-14-71 2Z" fill="#fffbff" stroke-width="0"/>
    <path d="M437.5 254.5c5.1 5.1 11.3 9 16.4 14.3.6.6 1.5 1 2.4 1.5l.6.6c4.4 1.8 7.2 5.5 10.8 8.4 4.5 3.6 9.3 7 13.7 10.7a195.7 195.7 0 0 1 39.2 43.6c6.6 9.6 10.8 20.2 14.2 31.2 2 6.3 3.6 12.7 4.4 19.3.2 1.1-.4 2.3.3 3.4.1 3.3-.3 6.7 0 10-.2 4.9-1.6 9.6-1.7 14.5l-.3 2c-2 7-3.9 14-7.3 20.4-3.7 7-7.9 13.7-12.5 20.2a121 121 0 0 1-31 29.8c-8.2 5.5-17 10-26 13.9a248.7 248.7 0 0 1-40.4 13.4c-7.8 1.8-15.7 3.5-23.7 4.6-7 .8-14 1.8-21.2 2.2-5.4.3-11 .5-16.4.2-6.5-.5-13-.6-19.5-1.3-1.9-.2-15.1-1.5-19.7-2.8-5.8-1.5-11.5-2.9-17.2-4.5-3.9-1.1-7.6-2.6-11.4-4.2l-24-10.5c-7.4-3.3-14.5-7.4-21.3-11.8-5.7-3.6-12.1-5.8-17.8-9.3s-12-6.5-18.5-8.9c-7.4-2.6-14.6-6.1-22.1-8.5l-11.8-3.9c-4.7-1.4-11.7-2-17.7-2-4.2 0-14-2-10.8-6.5 1-2.2 2.9-3.8 4.4-5.7 7.7-9.3 14.6-19.2 23-28 4.4-4.5 9.1-8.6 14-12.7 3.4-3 11.4-10 11.3-9.7-3.7 0-7 2-10.6 2.4-2.2.1-8.4 2-9.1 1.1-.7-.8 4.2-7 6.3-9.3 2.5-3 5.6-5.2 8.8-7.4 6-4 11.8-8.3 18.1-11.9 5.7-3.2 11.6-6 17.7-8.4 4-1.6 8-3.2 12.2-4.4 5.8-1.6 11.5-3.3 17.5-4.4 6.1-1 12.3-1.6 18.4-2.4 1.5-.2 3-.2 4.5-.2 1.2 0 1.6-.1 1.4-1.6-1.2-9.4-2.9-18.7-4-28-.7-6.4-1.6-12.7-2.1-19-.8-8.1-1.1-16.3-1.7-24.4l-1-19.9c-.2-5.1.2-10.3.4-15.5l.3-.6c2-1 4.4.2 5.6.2-.1.8-.2 8.5-.5 11.7 2-2.9 3.3-6.2 6-8.5 2.3-2 5.1-3.2 7.9-4.4 3.7-1.3 7.7-1 11.5-1.5v.4c-2.5.8-5.3 1-7.7 1.8a33 33 0 0 0-10.7 6.1c-.8.7-1.4 1.5-1.6 2.5.7.2 1 0 1.4 0 4.6-1.9 9.3-2.5 14.2-1.8.7.1 1.8 0 2 1 0 1.1-1.1.9-2 1.2-.3.2-.7.3-1 .2-5.4-1.2-10.2 1-15 2.6a3.9 3.9 0 0 0-2.6 2.5A46.6 46.6 0 0 0 283 263c2-1 3.5-2.1 5.3-3 4.8-2 10-1.6 15.1-2.4.4 0 .8.1 1 .7 0 .4-.3.7-.6 1-1.4 1.1-3 1.2-4.8 1.3-4.7.2-9.3 1-13.4 3.8-1.2.8-1.5 1.4-1.3 2.8.7 5.5 3.5 9.6 7 13.7a33.5 33.5 0 0 0 19.7 11.7 64.8 64.8 0 0 0 21.8.5c1.2-.2 2.4 0 3.5 0 .9 0 1.1.5 1 1.3-2.6 1-5.3 1.8-8 1.8 1.4 5 2.2 10 2.9 15 .3 2.3-.6 3.3-3 3.8-3.6.7-7.2 1.2-10.8 2-5.6 1.4-11.3 1.4-17 2-.6 0-1.6.3-1.6-.7.2-2.3-1-4.3-1.4-6.6-1.2-6.6-2.4-13.2-3.4-19.8-.4-2.2-.5-4.6-2.6-6.3-3.6-3-6.3-6.7-8.8-10.8-.4 2.2.2 4.2.3 6.2.2 7.8 1.1 15.6 2 23.3.6 4.7 1.1 9.3 1.8 13.9l2 13.4c.6 4.4 2 8.7 3.1 13 .4 1.3 1 1.4 2.1 1.4 6 0 12-.5 18 .3 4.9.6 9.9 1.4 14.7 3 3.2 1.2 6.7 1.8 10.2 2.8-.7-1-1.2-1.7-1.8-2.3-4-5-8.3-10-14.3-12.7-1-.5-1.2-1.3-1-2.4l1-.2c6.9-1 13.7.5 20.4 2 8.3 1.8 16 5.4 23.5 9.1 1 1 2.5 1.4 3.7 2a107 107 0 0 1 18 13.3c6.2 5.5 12.6 10.6 18.7 16.3 4.5 4.1 9 8.3 14 11.8a123 123 0 0 0 22.6 14c1.3.7 8 4.3 10.2 5A68.3 68.3 0 0 0 501 406c3-1.9 1.4.7 1.2 1-2.2 3.1-12.5 5-13.2 5.1-9.6 2.4-19 2.7-28.8.5-12.2-2.5-23.4-9.6-24-10l-9.3-5.4a148.6 148.6 0 0 1-20.8-16.5c-7.7-7-15.7-13.8-23.7-20.5a102.4 102.4 0 0 0-50.2-23c-1.8-.3-3.6-1-5.8-.3 2.2 1.4 3.8 3 5.5 4.6 3 2.8 5.6 5.8 7.4 9.6 1 2.1.6 2.7-1.8 3-.6.2-1.3.3-2 0-2.8-.7-5.8-1.3-8.6-2.3-5.9-1.9-11.9-2.9-18-3.2-5-.3-10 0-15 0-.7 0-1.5-.1-2.2.3-1.3.9-2.7 1-4.2.3-.8-.3-1.8-.2-2.7 0-4.6.3-9.1.8-13.6 1.3-8.5.8-16.6 2.9-24.7 5.1-4 1-7.8 2.6-11.7 4a125 125 0 0 0-31.3 17c-3.2 2.2-6.5 4.4-9.5 7.3 4.7-1 9.1-2.4 13.7-2.8 1.6-.1 3-.6 4.3-1 1.1-.3 1.9.6 2.7 1.5 1 1 .6 2 0 3a10 10 0 0 1-3 3.1c-1.9 1.3-3.9 2.5-5.7 3.9-5 3.8-10 7.8-14.9 12a178.8 178.8 0 0 0-25.2 26.7l-9.5 11.9c-.8 1-.2 2.6 1.2 2.8 1.5.3 3.4.4 4.4.5 4.8.1 9.6.5 14.2 1.8 8.8 2.5 17.4 5.6 25.9 9 7.4 3 14.6 6.6 21.9 10 8.7 4.1 17.2 8.6 25.7 13 2.3 1.2 4.6 2.3 6.6 3.9 2.7 2.1 5.9 3.4 9 4.5 2.3 1.6 4.8 2.8 7.3 3.8 6.6 2.7 13.1 5.8 19.8 8.5 4.8 2 9.6 4 14.7 5.3 4.9 1.2 9.8 2.3 14.6 3.8 5 1.5 19.6 2.8 21.6 3.2a93.1 93.1 0 0 0 18.7 1 247.4 247.4 0 0 0 53.6-6.6c6.9-1.5 13.6-3.5 20.3-5.5 9.6-2.8 18.8-6.6 27.8-10.6a131 131 0 0 0 23.4-13.4c6-4.3 11.7-9.1 16.7-14.7 6.4-7 12-14.7 16.8-22.8 3.6-6 7.5-11.8 9-19 1.5-7 3.5-14 3.9-21.3.3-6.7.3-13.4-1-20-1.5-8.6-4.4-16.9-7.5-25a97.3 97.3 0 0 0-11.4-20.7c-4-5.8-8-11.7-12.7-17a284 284 0 0 0-16.2-16.1c-6.8-6.4-14.5-11.7-21.4-17.9-4.9-4.4-10.4-8-15.6-12-10-7.9-19.9-15.8-29-24.6-7.2-6.9-14.4-13.6-21.4-20.5-3.4-3.3-6.8-6.6-9.9-10.2-7.2-8.2-15.1-15.9-21.8-24.6-.3-.5-2.6-1.7-3.6-3.7s.8-4 2.7-5.2c3.1-2.2 5.7-5 8.7-7.3 4.5-3.5 8.4-7.7 12.5-11.6 4.3-4.2 9.1-8 13.3-12.2 1-1-.2-4.4-.3-5-2.5-7.3-4.8-14.6-7.9-21.6-4-9-8-18-11.2-28-1.3 2.8-2 4.4-2.8 7-.3 1-2.3 1.8-3.1 1-.5-.5-1-1.1-1.2-1.8a153.6 153.6 0 0 1-11.9-32c-.8-3.8-1.2-7.2 1.3-10.4.3-.4-1.7-5-2.1-6.3l-2.5-7.2c-2.3-6.8-8.5-23.4-10.1-22.2-.8.6-1.4 2.8-2.3 4.8-2.2 4.4-3.6 9.1-5.5 13.6-2.7 6.3-4.9 12.8-7.3 19.1l-9 24c-1 2.5-8.8 1-10.6 1.2-1.7.1-4.5-1.3-5-2.6-2.5-7.6-4.8-15.2-7.4-22.7-3.2-9.3-6.5-18.5-10.4-27.5-.7-1.8-1.2-3.7-2.5-5.6-.2-.3-.6-.2-.7 0l-1.5 3.5c-2.6 6-4.3 12.3-6.5 18.4-2 6-2.6 10.6-5.6 16.6l-2.8 5.6c-.8 2.5-1.4 5-2 7.4l-4.7 17.6c-.3 1.2-.8 2.6.3 3.8-4.8 1.6-5-.2-5.3 0-2-1.4-2.2-3.6-2.7-5.8a109 109 0 0 1-2.2-23.2c0-3.7.2-7.4 1-11 .6-2.8 1.8-5.6 3.9-7.9.5-.5 3-.6 3.6-.5 1.5.2 5.4 3.6 7.2 5.4.4.3 1 .3 1.2-.2 1-1.5 1-3.4 1.4-4.9 2-7 4.2-13.8 7-20.5 1.5-3.4 3.4-6.7 5.1-10 .5-1 1-2.2 2.3-2.4h.8c1.1 0 2.1.5 2.8 1.4 2 2.4 3.7 6.9 4.5 8.6 3 6.9 6 13.8 8.6 21 2 5.6 3.6 11.3 5.8 16.8 1.4 3.4 2.4 7 3.1 10.5.5 2.4 1 2.4 2.8 2.7 5.2.6 4.7-1.7 5.6-4.2 2.6-7 5.3-14 7.8-21.1 3-8.2 6-16.3 9.3-24.2 1.8-4.4 3.9-8.7 5.8-13 .7-1.7 2.3-4 5.6-3s5 5.4 6.3 8.9c3 7.7 6.4 15.3 9 23.2l.7 1c1.6-2.8 3-5.5 5-8a12 12 0 0 1 4.9-3.4c2-1 5.6 1.7 5.8 4 .6 4.3 1.2 8.7.5 13.2-.2 1.2.2 1.3 1.1.9 3.3-1.6 5.8-1 8.5 2.5 2 2.5 2.1 5.4 2 8.4a64.6 64.6 0 0 1-5 20.5c-1 2.3-1.2 4.8-2.8 6.9-.4.6.3.8.4 1.2 1.4 5.2 4 10 6.2 15 5 11.3 9.5 22.8 13.3 34.7.8 2.6.8 4.8.2 7.1-.7 2.5-2 3-4.3 6-5.1 3.6-9.6 8-14 12.4-5 4.9-10.2 9.5-15.6 13.8l-2.3 1.9c2.6 1.6 3.7 4.3 5.5 6.3 3 3.6 6.4 6.9 9.6 10.3 2.2 2.2 4.2 4.6 6.4 7 7.5 8 15.5 15.6 23.4 23.2a705 705 0 0 0 20 18.7 38.7 38.7 0 0 0 3.8 3.1v-.2ZM374.8 99.7 376 98c2.7-5 5.1-10 7-15.4 2.1-5.7 3.7-11.5 4-17.6 0-1.6-.2-3.3-1.7-4.4-.5-.3-.9-.7-1.3-.2-2 2.7-4.3 5.2-5.3 8.4-.3 1-.5 1.7-1.3 1.7-1.1 0-2.8-.1-3-1.4-.2-1.9-2-3.8-.2-5.8.3-.3.2-1 .3-1.4l.8-7.1c.2-3.7.5-7.4-.4-11.2-2.1 2.3-3.2 5-4.5 7.5-1.1 2-1.9 4.5-3.5 6.2-2 2.3-3 5-4.2 7.6-.4.7-.3 1.8 0 2.7C364.8 77 368 86 372 94.9c.8 1.7 1.2 3.5 2.7 4.8ZM297.4 290c0 1.1 0 2 .2 2.9 1.3 7.2 2.4 14.4 3.9 21.5.3 1.8 1 2.2 2.7 2 2.5-.4 5-.4 7.6-.8 6-1 11.8-2 17.7-3.2.5 0 1.1-.2.8-1.1-1.6-4.3-2.2-8.8-2.8-13.4-.1-1.1-.6-1.8-1.9-1.8h-2.2c-6 .1-11.7-.3-17.4-2.2-3-1-5.6-2.3-8.6-4ZM262 91l6.8-22.1c.4-1.3.5-2.4-.8-4.9-1-2-2-4-5-6-.7-.4-1.8.4-2 1-1 3-.9 4-1.1 6.2-.6 5.4-.5 10.7-.3 16 .3 4.4 1.1 5.6 2.4 9.8Z" fill="#462700" stroke-width="0"/>
    <path d="M241.7 241.3c.9 2.3.9 4.8 1.4 7.2l5 19.4c2.3 7.9 4.2 15.9 6.6 23.7 1.5 5.3 2.6 10.7 4.2 16 1 3.6 2 7.2 2.5 10.9.4 3.1 1.6 6 2.2 9 .7 3.7 1.4 7.3 2.3 10.9.5 2.3-.7 3.3-3.2 2.7-.5 0-10-.3-14.2.2-4.4.5-8.8.1-13.2.3-7.2.3-14.3.4-21.5.3l-15.7-.1c-7-.3-14 .5-21 .6-5.4.2-10.8.5-16 .4-8.2-.1-16.2.3-24.3.2-3.2 0-6.4.3-9.6.4-.8 0-1.2.4-1.7 1.2-6.2 9.6-13 18.8-19.2 28.5-3.6 5.6-7.8 10.8-11.1 16.7-.5.9-3.6 5.1-4.8 4.2a10.3 10.3 0 0 1-3.5-5.3c-2.9-9.5-6.3-18.7-9.4-28-1.5-4.5-2.9-9-4.5-13.4-.4-1.3-1-2-2.6-1.9-5.9.2-11.8 0-17.6.3-1 0-1.8.1-2.7.3-3 .8-4.8-.7-5.8-3.6-.7-1.8-1.6-3.6-2.2-5.4-1.8-5.5-3.3-11-5-16.5-2.3-7.3-5-14.3-7.4-21.5-2.2-6.6-4.6-13.1-6.5-19.8-2-6.8-4.3-13.6-6.4-20.4-1.6-5-3.6-10-5-15-1.2-4 7.6-3.8 9.6-3.9h16.4c9.1 0 18.2-.2 27.2-.6 11-.5 21.9-.8 32.8-1 5.3 0 10.7-.5 16-.4l12.9.2 12-.3 34.2-.7c10.7-.3 21.3-.3 31.9-.9 6-.3 12-.2 18-.4l15-.5c2.8 0 3.5 5 4 6Zm17 93.7c-.2-3-1-5.8-1.7-8.5-1.5-5.7-2.3-11.5-4-17.1-1.4-5.2-2.3-10.5-4-15.6-1-3.2-2-6.4-2.7-9.7-1.2-5.6-3-11-4.4-16.5-1.5-5.7-3.2-11.3-4.4-17.1a54 54 0 0 0-2.4-8.3c-.3-.7-.7-.6-1.3-.6-3.5 0-7 0-10.6.2-5.7.2-11.5.2-17.3.5-11.8.5-23.6.4-35.4.8l-21.1.7c-10.4.3-20.8.4-31.2.2-12.8-.2-25.5.4-38.3.8l-26.8 1c-10.8.2-21.7 0-32.5 0-1.6-.1-2 .4-1.3 1.9 2.1 5 3.4 10.3 5.2 15.5 3.4 9.9 6 20 9.5 29.9 2.8 7.6 5.5 15.4 8 23.1 1.9 5.6 3.4 11.2 5.2 16.8.5 1.7.7 3.9 2 4.9a8.1 8.1 0 0 0 6.7 1.7c.8-.2 1.7-.2 2.5-.2 5.2.3 10.4 0 15.6-.2 2-.1 3 .3 3.4 2.2 1 4.2 2.6 8.3 4 12.4l5.2 15.5 4.8 14.2c1.4-.5 1.6-1.8 2.2-2.7a5637.2 5637.2 0 0 0 28.3-41.7c1.2-1.7 2.5-2.9 4.7-1.8l1 .1c7-.1 13.9-.6 20.8-.5 5.3 0 10.7-.5 16-.3 5.9.2 11.7.2 17.5-.2 9.7-.6 19.3-.6 29-.5h16.3c5 0 9.9-.5 14.8-.5 5.5 0 11-.2 16.7-.4Z" fill="#c78600" stroke-width="0"/>
    <path d="M263.8 101.4c6.3-2 12.9-3.2 19.5-4 3.3-.4 10-.4 10-.4 13.7 0 22.9 5.1 31.1 10.5a80.3 80.3 0 0 1 17.2 14.3 84.7 84.7 0 0 1 10.4 15.8l3.6 9.4c.7 2.6 1.3 5.2 1.7 8 .8 7 1.1 14.1.3 21.2-.4 3.9-3.2 12.2-3.2 12.8-2.3 5.2-4.6 10.5-7.7 15.3-2.2 3.4-4.9 6.4-7.3 9.7a67 67 0 0 1-20.2 14.5c-3.8 1.3-7.7 2.5-11.7 3.5-3.8.4-7.8.2-11.5 1.5-4 .5-7 .5-11 1l-2.4.2c-1.2 0-3.7-1.2-5.6-.2-4.5-.9-8.9-1.7-13.1-3.3-8-3-15.2-7.3-21.2-13.4-6.9-7-12-15.3-16.2-24.2-1.5-3.1-2.3-6.5-3-10a96 96 0 0 1-3.3-17.6c-.3-5.5.4-11 1.6-16.3a56.5 56.5 0 0 1 6.7-17.8c2.6-8.9 8.6-15 15.6-20.4a79 79 0 0 1 14.1-8.8c.7-.3 2.8-.7 5.6-1.3Zm91.7 66.5a82 82 0 0 0-1-13.9c-.3-1.5-.1-3.3-1.1-4.6a10.9 10.9 0 0 1-2-5.2c-.5-2.3-1.2-4.5-2.2-6.6a65.2 65.2 0 0 0-25-27.3 98.3 98.3 0 0 0-16.1-7.8 44 44 0 0 0-14.8-3c-9.4-.4-18.5 1.6-27.5 3.7-1 .2-2 .5-2.6 1.4a12.8 12.8 0 0 1-5.9 5c-4.2 2-7.6 5.3-11.4 8a29.4 29.4 0 0 0-6.2 6.2c-3.9 5-7 10.5-9.2 16.5a86.6 86.6 0 0 0-4.4 19.3c-.5 4.4 0 8.9 1 13.3 1.4 6.5 2.6 13 5.2 19.2 1.8 4.2 4.3 8 6.7 11.6a53 53 0 0 0 25.8 21.6c6.6 2 13.2 4 20.1 4.6 11 .9 21.7.3 32.1-3.5 3.3-1.2 6.4-2.8 9.2-4.9 1.7-1.2 2.7-3 4.6-4 3.1-1.7 5.5-4.4 7.8-7 4.9-5.3 7.9-12 11.3-18.1 4-7.5 5.9-15.7 5.6-24.5Z" fill="#2842c6" stroke-width="0"/>
    <path d="M339.4 214c2.4-3.2 5.1-6.2 7.3-9.6 3.1-5 5.4-10.2 7.7-15.5.1 1.1.6 1.1 1.5.7a53.8 53.8 0 0 1 6.3-2.5c1.9 1 3 3.1 3.4 3.6 6.6 8.7 14.5 16.3 21.8 24.6 3 3.5 6.5 6.8 9.8 10.2 7 6.9 14.3 13.6 21.4 20.4 9.2 8.8 19 16.8 29 24.6 5.3 4 10.8 7.7 15.7 12 6.9 6.3 14.5 11.6 21.3 18 5.6 5.2 11 10.5 16.2 16.1 4.8 5.3 8.8 11.2 12.8 17a96.3 96.3 0 0 1 11.4 20.6c3 8.2 6 16.5 7.5 25.1a85 85 0 0 1 1 20c-.5 7.3-2.4 14.3-4 21.4-1.5 7-5.4 12.8-8.9 18.8a137.3 137.3 0 0 1-16.8 23 131 131 0 0 1-40.1 28c-9 4-18.3 7.8-27.8 10.6-6.8 2-13.5 4-20.3 5.5a247.4 247.4 0 0 1-53.6 6.6c-6.2 0-12.5.1-18.7-1-2-.4-4.2-.3-6.3-.5a69 69 0 0 1-15.4-2.7c-4.8-1.5-9.7-2.6-14.6-3.8-5-1.3-9.8-3.4-14.6-5.3-6.7-2.7-13.2-5.8-19.9-8.5-2.5-1-5-2.2-7.2-3.8l1 .1a58 58 0 0 0 10.8 2.5c2.6.3 5.2.3 7.7.6 4.2.4 8.5 0 13.2 0l-4.1-2.3c-7-4.1-14.5-7.7-20.9-13a132.4 132.4 0 0 1-19-18.3c-3.5-4.4-7-8.9-9.6-13.9-.5-.9-1.5-2-.7-3 .7-.8 2-.3 3-.1 6.7 1.2 13.3 2.8 20 4.3 8 1.8 16.2 3.4 24.4 5l4.6 1 4.4 1a186.2 186.2 0 0 1-45.1-39c.2-.3.4-.4.8-.5 4.2-1 8.6-.6 12.8-.9 5.2-.3 10.5.4 15.6.9 6.3.5 12.3 1.7 18.2 3.7 1.2.5 2.5 1 3.8 1.3 10 1.7 19.5 5 29.2 7.8 11.8 3.6 23.1 8.6 35 12 10 2.9 20 5.1 30.7 4.7 7.6-.3 15.2-.2 22.9 0 3.8.2 7.5-.4 11.2-1.3 10.4-2.5 20.7-5.6 31-9a37.4 37.4 0 0 0 19-12.3c2-2.6 4.8-4.9 6.3-7.4 2.5-.5 5-1.5 7.5-2.5 1.4-.5 3.3-2.6 3-3-.5-.5-4.2 1.6-6 2a68 68 0 0 1-43.2 0c-2.2-.6-8.9-4.3-10.2-5a123 123 0 0 1-22.6-14c2.4-1.5 3.5-4 5-6.4a46.1 46.1 0 0 0 4.8-26.6c-.2-4-.2-8-.7-12.1-.7-6-2.1-11.9-3.8-17.6a160.4 160.4 0 0 0-14.4-32.2c-1.1-2.1-2.1-4.3-4-6 .8-.1 1.7.4 2.4-.4-.1-1-.9-1.3-1.5-2-7-7-14.7-13.6-22.2-20.2-7.7-6.7-15.8-13-23.6-19.4-2.2-1.8-4.1-3.6-6.5-5.1-4.3-2.7-9-5-13.5-7.4.8-.7.3-1.4.1-2.2a131 131 0 0 1-2.7-17.3Z" fill="#fe7e19" stroke-width="0"/>
    <path class="cls-15" d="M407 288c1.8 1.7 2.8 4 4 6 5.7 10.4 11 20.8 14.3 32.2 1.7 5.8 3.2 11.6 3.8 17.6.5 4 .5 8.1.7 12.2.5 9.1 0 18.3-4.8 26.6-1.4 2.3-2.6 4.8-5 6.4-5-3.4-9.5-7.7-14-11.9-6-5.6-12.5-10.8-18.7-16.2-5.6-5-11.5-9.5-18-13.2-1.2-.7-2.6-1-3.6-2 .6-.7 0-1.1-.3-1.6-9.4-15-17.8-30.4-24.4-46.8-.6-1.7-1.7-2.8-3.6-2.9 0-.8-.2-1.3-1-1.4h-3.5c-7.3 1.2-14.6.9-21.8-.4-8-1.5-14.5-5.6-19.8-11.8-3.4-4-6.3-8.2-7-13.6-.2-1.4.1-2 1.3-2.8 4-2.8 8.7-3.6 13.5-3.9 1.6 0 3.3-.1 4.7-1.2.3-.3.6-.6.5-1 0-.6-.5-.8-.9-.7-5 .8-10.3.3-15.1 2.5-1.8.8-3.4 1.8-5.2 3a46.4 46.4 0 0 1 1.5-14.6c.4-1.3 1.1-2.1 2.4-2.6 4.9-1.6 9.6-3.7 15-2.6.4.1.8 0 1.2-.1.8-.3 2-.1 1.8-1.2-.1-1-1.2-1-2-1-4.8-.8-9.5-.2-14 1.7-.5.1-.8.3-1.5 0 .2-1 .8-1.8 1.6-2.4a33 33 0 0 1 10.7-6.1c2.4-.8 5.2-1 7.7-1.8.3 0 .7 0 1-.2a43 43 0 0 1 18.2-.4 84 84 0 0 1 36.6 17.6c2.5 2 4.8 4.2 7.1 6.3 8.6 7.4 17.2 14.6 25.6 22.3 3.7 3.3 7 7 11 10Z"/>
    <path class="cls-21" d="M156.4 444.6c-.6.1-1.1.2-1.7-.3l11.2-14.1a178.8 178.8 0 0 1 25.2-26.7c4.8-4.2 9.8-8.2 14.9-12 1.9-1.5 4-2.7 6-4a9 9 0 0 0 2.8-3.2c.5-1 .8-1.8-.1-2.8-.8-1-5.5-.7-7-.5-4.6.4-9 1.7-13.7 2.8 3-3 6.3-5 9.5-7.3a135.4 135.4 0 0 1 31.3-17c3.9-1.4 7.7-3 11.7-4 8-2.2 16.2-4.3 24.6-5.1l13.7-1.4 9-.6c5 0 10-.2 15 0 6.2.4 12.2 1.4 18 3.3 3 1 5.9 1.6 8.7 2.4.7.2 1.4 0 2 0 2.4-.4 2.8-1 1.8-3.2a32.3 32.3 0 0 0-7.4-9.5c-1.7-1.6-3.3-3.2-5.5-4.6 2.2-.7 4 0 5.8.3 18.8 3 35.5 10.8 50.2 23 8 6.7 16 13.4 23.6 20.5-1.3.7-2.1-.5-3-1-5-2.5-9.5-5.5-15-6.7a137.5 137.5 0 0 0-35.7-2.8c-.8 0-1.5 0-2.2.7 6.9 6.1 13.6 12.3 20.6 18.3 7.1 6 13.1 13 19 20.2-.7.3-1 0-1.4-.1a202 202 0 0 0-26.9-7.4c-11.4-2.4-22.9-4-34.5-4.9-4.4-.3-8.8-.2-13.2-.6-3.6-.3-7.2-.1-10.7.4-6.4 1-12.7 2.5-19 4-5.1 1.2-10.3 1.8-15.2 4l-13.8 6.2c-1.3.3-2.2 1.2-3.7 1.3-2.7 0-5.4.7-8 1.3-8 1.8-15.9 4.1-23.4 7-8.8 3.3-16.9 8.1-24.5 13.8-1 .8-2.2 1.8-3.8 2.2a20 20 0 0 1 2.6-7.3l3.8-6.4c-1-.3-1.8.2-2.5.5-9.2 4.1-18.4 8.4-27 13.8-4 2.5-8.4 4.5-12 7.5Z"/>
    <path class="cls-15" d="m255 411 13.8-6.4c33.2-11.6 62.2-9.6 92.6-2.9a202 202 0 0 1 26.9 7.5c.4.1.7.3 1.4 0a150 150 0 0 0-19-20.1c-7-6-13.7-12.2-20.6-18.3.7-.6 1.4-.7 2.2-.7 12-.5 24 .2 35.7 2.8 5.5 1.2 10 4.2 15 6.7.9.5 1.7 1.7 3 1 6.6 6 13.3 11.7 21 16.4 3 2 6 3.7 9.1 5.5.7.3 14.7 8 23.9 9.5a62.2 62.2 0 0 0 29.3-.2l2.2-.4c-1.5 3-4.2 4.9-6.2 7.5a37.3 37.3 0 0 1-19.1 12.2 353.5 353.5 0 0 1-31 9c-40.2 7.9-55.2-.6-64.8-3.4-11.8-3.4-23.2-8.3-35-12-9.6-2.8-45-12.2-51.1-12.8-5.2-.4-10.4-1.2-15.6-.8-4.3.3-8.7 0-12.9.9-.3 0-.6.2-.8.5-.9-.5 0-1 0-1.6Z"/>
    <path class="cls-12" d="M255 411c0 .5-.9 1 0 1.5a186.4 186.4 0 0 0 45.1 39l-4.4-1c-1.5-.3-21-4.2-29-6-6.6-1.5-13.2-3-19.9-4.3-1-.2-2.4-.7-3 .2-.8.9.1 2 .6 3 2.7 5 6.1 9.4 9.7 13.8 5.5 7 12.2 12.6 19 18.3 6.3 5.3 13.8 8.8 20.8 13l4.2 2.4c-4.8 0-9 .3-13.3-.2-2.5-.2-5-.2-7.6-.5-3.7-.5-7.3-1.3-10.9-2.5l-1-.1a31.7 31.7 0 0 1-9-4.6c-2-1.6-4.3-2.6-6.6-3.8-8.5-4.5-17-8.9-25.7-13-7.3-3.4-14.5-7-21.9-10-8.5-3.4-17.1-6.5-26-9a59.4 59.4 0 0 0-14.1-1.9c-1.9 0-3.8-.2-5.6-.7 3.7-3 8-5 12-7.5 8.7-5.4 28.6-14.7 29.6-14.4-1.3 2.2-6 11-6.4 13.8 1.7-.4 2.7-1.4 3.8-2.3 7.6-5.6 15.7-10.4 24.5-13.8 7.6-2.8 15.4-5 23.3-7L255 411Z"/>
    <path class="cls-15" d="M352 137.6a84 84 0 0 0-10.4-15.8 80.4 80.4 0 0 0-17.2-14.3A68.7 68.7 0 0 0 293.2 97c-3.3 0-6.6 0-10 .4-6.5.9-13 2-19.4 4-1-1.2-.5-2.6-.2-3.8l4.6-17.6c.6-2.4 1.2-5 2-7.4C273 64 276 56 278 50c2.1-6.1 7.8-22.1 8.9-22s3.3 4 4.1 6c3.8 9 6 18.3 9.3 27.6 2.6 7.5 4.8 15.1 7.3 22.7C309 87 322 88 323.3 85.7c1.7-7.7 6-16 9-24 2.4-6.3 4.6-12.8 7.2-19a279 279 0 0 0 6-14.7c.6-.2.8-.2 1 .7 1 4.2 1 8.5 1.4 12.7l1.6 18.8c.6 7 .4 14 1 21.1.4 4.7-.1 9.5.4 14.2.5 4.6.4 9.3.5 13.9.1 9 1 18 .6 26.9v1.3Z"/>
    <path class="cls-20" d="M352 137.6v-1.3c.3-9-.5-18-.6-26.9-.1-4.6 0-9.3-.5-14-.5-4.6 0-9.4-.4-14-.6-7.1-.4-14.2-1-21.2l-1.6-18.8c-.3-4.2-.4-8.5-1.4-12.8-.2-.8-.4-.9-1-.7v-.5c.3-1.3 1-3 1.8-3.2 1.2-.3 2.2 1.9 2.7 2.8 3.3 6.3 5.1 12.6 7.4 19.4.9 2.4 1.8 4.8 2.5 7.2.4 1.3 2.5 6 2.2 6.3-2.6 3.2-2.1 6.6-1.3 10.3a154 154 0 0 0 12 32.4c.2.6 2.2 1.9 3.2.4 1.4-2.2 2.4-4 3.8-6.9 3.2 10 7.2 19 11.2 28 3.1 7 5.4 14.3 7.8 21.6.2.6.4 1.1.3 1.7-2.5 0-5 .3-7.5 0-5.5-.8-11.2-1-16.7-1.3-4.7-.4-9.5 0-14.2-.1-1.8 0-3.5.3-5 1l-3.7-9.4Z"/>
    <path class="cls-21" d="M337.3 294.4c2 0 3 1.2 3.7 2.9 6.5 16.4 15 31.9 24.4 46.8.3.5.9.9.2 1.5-7.6-3.7-15.3-7.3-23.5-9.1-6.8-1.5-13.5-3-20.5-2l-1 .2c-.1 1 0 2 1 2.4 6.1 2.8 10.3 7.6 14.4 12.7.6.6 1.1 1.3 1.8 2.3-3.6-1-7-1.6-10.2-2.8a74.3 74.3 0 0 0-14.8-3c-6-.7-12-.2-17.9-.3-1.1 0-1.7-.2-2-1.4-1.3-4.3-2.6-8.6-3.3-13l-2-13.4L286 304c-1-7.8-1.5-15.6-2-23.4-.2-1.9-.7-3.7-.3-5.8 2.5 4.1 5.2 7.9 8.8 10.8 2.1 1.7 2.2 4 2.5 6.3l3.4 19.8c.4 2.3 1.7 4.3 1.5 6.6 0 1 1 .7 1.6.7 5.7-.6 11.4-.6 17-2 3.6-.8 7.2-1.3 10.8-2 2.4-.5 3.3-1.5 3-3.9-.7-5-1.5-9.9-3-14.9 2.8 0 5.5-.9 8.1-1.8Z"/>
    <path class="cls-12" d="M355.6 147c1.6-.7 3.3-1 5-1 4.8 0 9.6-.3 14.3 0 5.6.5 11.2.6 16.7 1.4 2.5.3 5 0 7.5 0 0 .3 0 .5.3.6.8 1 .8 1.6-.2 2.7-4.2 4.3-9 8-13.3 12.2-4.1 4-8 8-12.6 11.5-3 2.4-5.5 5.2-8.7 7.4-1.8 1.2-1.6 3.5-2.6 5.2-2 .6-4.3 1.7-6 2.6-1 .4-1.5.4-1.6-.7v.1s2.8-8.9 3.2-12.8a92.2 92.2 0 0 0-2-29.2Z"/>
    <path class="cls-21" d="M374.8 99.7c-1.5-1.3-2-3.1-2.7-4.8-4-8.8-7.2-18-9.4-27.4-.2-1-.4-2 0-2.7C364 62.2 367.9 53 369 51c3-6 5-10 7-9s.1 11.4 0 15c0 1.5-1.8 10.1-1.5 12 1.5 3 6.5-6.4 8.5-9 2-2 2.6-1.3 3-1 1.6 1.1 2 5.4 2 7-.3 6-2.9 10.8-5 16.5-1.9 5.3-4.3 10.4-7 15.4l-1.2 1.8Z"/>
    <path d="M297.4 290c3 1.5 5.7 3 8.6 4a53.2 53.2 0 0 0 17.4 2.2h2.2c1.3-.1 1.8.6 2 1.7.5 4.6 1 9 2.7 13.4.3 1-.3 1-.8 1.1l-17.7 3.2c-2.5.4-5.1.4-7.7.7-1.6.2-2.3-.1-2.6-1.9-1.5-7.1-2.6-14.3-3.9-21.5-.2-.9-.2-1.8-.3-3Z" fill="#3355fe" stroke-width="0"/>
    <path d="M407 288c-4-3-7.4-6.7-11-10-8.4-7.6-17-14.9-25.6-22.3-2.3-2-4.6-4.3-7-6.2a84 84 0 0 0-36.7-17.7 43 43 0 0 0-18.2.5l-1 .1v-.5c4-.9 7.9-2 11.7-3.4l7.4.8c5.4.7 10.4 2.6 15.4 4.3 4.6 2.3 9.2 4.6 13.6 7.4 2.3 1.4 4.3 3.3 6.4 5 7.9 6.5 16 12.7 23.6 19.5 7.6 6.6 15.2 13.1 22.3 20.3.6.5 1.4 1 1.5 1.9-.7.8-1.6.3-2.4.4Z" fill="#492901" stroke-width="0"/>
    <path d="M262.2 92.5c-.2.6-1 .7-1.3 0A73.4 73.4 0 0 1 259 66c.2-2.1 1-7 3-8 2.8-1.4 7.4 7.7 7 9-2 9-4.4 17.4-6.8 25.4Z" fill="#fdf8de" stroke-width="0"/>
    <path d="m282.6 234.7 2.4-.3c1.7.6 3.4 1.2 3 3.5-2.6 2.3-4 5.6-5.9 8.5l.4-11.7Z" fill="#fcf7de" stroke-width="0"/>
    <path d="M288 238c.4-2.4-1.3-3-3-3.6 4-.4 7-.4 11-1a33.3 33.3 0 0 0-8 4.5Z" fill="#3556fb" stroke-width="0"/>
    <path class="cls-20" d="M399.4 148c-.2-.1-.3-.3-.3-.6.2 0 .4.3.3.5Z"/>
    <path d="M258.7 335c-5.7.2-11.2.5-16.7.4-5 0-9.9.4-14.8.5h-16.4a353 353 0 0 0-28.9.5c-5.8.4-11.6.4-17.5.2-5.3-.2-10.7.4-16 .3-7 0-13.9.4-20.8.5l-1-.1c-2.2-1.1-3.5 0-4.7 1.8a2208.4 2208.4 0 0 1-28.3 41.7c-.6.9-.8 2.2-2.2 2.7l-4.8-14.2-5.2-15.5c-1.4-4.1-3-8.2-4-12.4-.4-2-1.4-2.3-3.4-2.2-5.2.3-10.4.5-15.6.2-.8 0-1.7 0-2.5.2-2.5.6-4.9-.3-6.7-1.7-1.3-1-1.5-3.2-2-4.9L42 316.2c-2.5-7.7-5.2-15.5-8-23.2-3.5-9.8-6.1-20-9.5-29.8-1.8-5.2-3-10.5-5.2-15.5-.6-1.6-.3-2 1.3-2 10.8.1 21.7.3 32.5 0 9-.2 17.9-.5 26.8-.9 12.8-.4 25.5-1 38.3-.8 10.4.2 20.8.1 31.2-.2l21.1-.7c11.8-.4 23.6-.3 35.4-.8 5.8-.3 11.6-.3 17.3-.5 3.6-.1 7-.3 10.6-.2.6 0 1-.2 1.3.6a56 56 0 0 1 2.4 8.3c1.2 5.8 2.9 11.4 4.4 17.1 1.4 5.5 3.3 11 4.4 16.5.6 3.3 1.7 6.5 2.8 9.7 1.6 5.1 2.5 10.4 4 15.6 1.6 5.6 2.4 11.4 4 17 .6 2.8 1.4 5.5 1.6 8.6Z" stroke-width="0" fill="#f6f0e9"/>
    <path d="M355.5 168c.3 8.7-1.5 17-5.6 24.4-3.4 6.2-6.4 12.8-11.3 18.1-2.3 2.6-10.7 9.9-12.3 11-2.9 2-6 3.7-9.3 5a74.7 74.7 0 0 1-32 3.4c-7-.5-13.6-2.6-20.2-4.6a52.8 52.8 0 0 1-25.8-21.6 76.1 76.1 0 0 1-6.7-11.5 66 66 0 0 1 33.5-89c9-2.1 18.1-4 27.5-3.7a44 44 0 0 1 14.8 3c5.6 2.1 11 4.7 16 7.8a65.1 65.1 0 0 1 31.4 57.6ZM241 177c-.7 1.4-.5 3-.7 4.4a34 34 0 0 0 2.3 19c2 4.2 4 8.5 8.7 10.7-.3-.8-.8-1.4-.9-2.1-.1-.7-.7-1.3-1.1-2a33 33 0 0 1-6.7-22.5l.4.6c3.1 8 8 14.8 14.4 20.6 3.4 3.1 7.4 4.2 11.8 4.3a8 8 0 0 0 4.4-1.6c2.5-1.7 2.7-3.8.7-5.9a10 10 0 0 1-2-2.5c-1.5-3-3.4-5.5-5.1-8.3-.8-1.1-2.2-3.7-3.2-6.2s-1.3-7.1-2.1-10.6a37.2 37.2 0 0 1-.5-15.9c.1-.7.3-1.5-.4-2 3.8-2.6 8.3-3.4 12.7-4 8.5-1 16.6 1 24.5 4 5.8 2.4 10.2 6.1 13.4 11.5 2 3.5 3.3 7.2 4.5 11 1.8 5.8 1.4 11.6.3 17.4a31 31 0 0 1-9.8 18 38 38 0 0 1-20.2 9.5c-.7 0-1.4 0-1.6 1 1 .5 2.1.6 3.2.6a33 33 0 0 0 19.9-8.8c6-5.3 9.7-12 11-19.8a44 44 0 0 0 0-18.2c-1-3.6-2.4-6.9-3.9-10.2l1.5-.3c6.3-1.5 12.7-3 19.3-2.8 2 .1 4 0 6.1.2 1.7.1 3-1.1 3-2.7 0-3.8 0-7.5-.8-11-1.4-6-4.6-11.2-7.2-16.7-1.7-3.6-4.9-6.2-7.8-8.9-1.6-1.4-3-3-4.7-4.4-3-2.7-6.8-4.2-10-6.4a45.1 45.1 0 0 0-23.6-7 53.3 53.3 0 0 0-38.4 14.3c-3.7 3.3-6.6 7.4-10 11-3.7 4.3-6 9.3-7.6 14.7-1.2 4.5-1.8 9-2.2 13.5-.4 3.8 0 7.7.8 11.6.2.5 0 1 1 1.1 2 .2 4 .6 6-.3.2.7-.2 1.5.5 2Zm23-20.2c-1.8 1.6-2 2.8-.4 4.6 2 2.3 4.6 3.5 7.4 4.4l1 .1c3.8-.5 9-5.8 9.4-9.6.2-1-.3-1.2-1-1.3-1.7-.1-15.3 1-16.4 1.8Z" fill="#d2f3f2" stroke-width="0"/>
    <path class="cls-12" d="M342 233.6c-5-1.7-10-3.6-15.4-4.3l-7.4-.8a67 67 0 0 0 14-8.8l6.2-5.7c.6 5.8 1.5 11.6 2.8 17.3.2.8.6 1.6-.2 2.3Z"/>
    <path d="M240.5 175c-2 .9-4 .5-6.1.3-.9-.1-.8-.6-1-1.2-.8-3.8-1.2-7.7-.8-11.6.4-4.5 1-9 2.2-13.4a36.3 36.3 0 0 1 7.6-14.7c3.4-3.7 6.3-7.7 10-11a53.4 53.4 0 0 1 38.4-14.4c8.4.4 16.4 2.3 23.5 7 3.3 2.2 7 3.8 10.1 6.4 1.7 1.4 3.1 3 4.7 4.5 3 2.7 6.1 5.2 7.8 8.9 2.6 5.4 5.8 10.6 7.2 16.6.8 3.6.9 7.3.9 11 0 1.7-1.4 2.9-3 2.7-2.1-.2-4.2 0-6.2-.1-6.6-.3-13 1.3-19.3 2.8l-1.5.2c-2.1-3-3.8-6.4-6.9-8.7-.7-.6-1.9-1.1-2.1-2-.2-.7.7-1.6 1.3-2.3l.2-.7c0-4.6.2-9.1-2.8-13-.8-1.1-1.5-2.3-3.1-2.1-1.7.2-2.9 1-3.6 2.7-1.6 3.7-2 7.4 0 11.3-4.5-1.4-8.7-3-13.2-3.4-4.5-.4-9-1-13.5 0-3.2.8-6.3 3.2-6.3.2 0-.5 2.2-3.9 2.3-4.1 1.2-2.7 2.8-5.1 4.8-7.3.9-1 1-2.2.7-3.5-1.7-6.7-9.3-9.7-15.8-5.7-8 4.9-13 12.2-15.5 21.2a62.1 62.1 0 0 0-1 23.4Z" fill="#d2e0b2" stroke-width="0"/>
    <path class="cls-5" d="M261 157a32 32 0 0 0-18.4 27.5c-.8 8.4 2 15.8 6.7 22.6l.8 1.4c.4.8-.5 1.6-1.3 1-3-2.3-4.6-5.7-6.1-9.1a34 34 0 0 1-2.4-19c.2-1.5 0-3 .7-4.4.2-1.4 1-2.6 1.5-4 1.1-3.2 3-6 5.4-8.6 2.6-2.8 5-5.6 8.1-7.6 1.2-.8 1.6-1.4 1.1-3-1-3.3-1-6.7 1-9.8 1.2-2 3.7-2.4 5.5-.8a7 7 0 0 1 2.5 3.9s1 2.9 0 4.9l5.2-1.1c4.5-1.1 9-.5 13.6-.2 4.4.4 8.6 2.1 13.1 3.5-2-4-1.5-7.6 0-11.3.8-1.7 2-2.5 3.6-2.7 1.6-.3 2.6.7 3.4 1.8 5.3 8.8 2 15 1 16.3.3.8 1.4 1.4 2.2 2 3 2.3 4.7 5.7 6.8 8.7 1.5 3.4 3 6.7 4 10.2a44 44 0 0 1 0 18.2c-1.4 7.8-5 14.6-11.1 19.8A33 33 0 0 1 288 226a8 8 0 0 1-3.2-.5c-.8-1.5 1-1 1.7-1.1a38 38 0 0 0 20.1-9.5 31 31 0 0 0 9.9-18c1-5.7 1.4-11.6-.4-17.4a53.4 53.4 0 0 0-4.5-11 26.1 26.1 0 0 0-13.3-11.4c-8-3.2-16-5-24.6-4-4.4.6-8.8 1.4-12.7 4Z"/>
    <path class="cls-5" d="M280.4 155c.7 0 1.2.3 1 1.3-.4 3.8-5.6 9.1-9.4 9.6h-1c-2.8-1-5.5-2.2-7.4-4.4-1.6-1.9-1.4-3.1.4-4.7 1-.9 5.6-1.7 7-1.8 2.5-.3 6 0 9.4 0Z"/>
    <path d="M255.9 182c1.2 2 3 5.7 12.1 5 10 0 13 2 25.8-5.8l.4-.4c7.8-6.8 7.8-9.8 9.8-8.8s-3 7-7 10-15 10.3-26.5 7.4c-1-.2-1.9-.2-2.8 0-1.9.3-5.5.7-9.7-1.4-3.5-1.8-4.3-3.9-4.3-5.3 0-1.2 1.5-1.7 2.2-.7Z" fill="#307496"/>
  </g>
  <g id="TRACE_REWORK">
    <path class="cls-17" d="m233 305.5 2 1c-.2 1.7-1.5 1.5-2.6 1.5H208l-70.2.5c-11 0-22-.5-32.9-.4-6.3 0-12.6.3-18.9 1-8 .9-16-.2-24.1-.1h-1.5v-1.5l4.1-.5h21.8c6.4-.3 12.9-.8 19.3-1h17.7c.9 0 1.7-.3 2.6-.5h3l.3.4 12 .5 6.7-.3c6.6 0 13 .3 19.6.4h17l21.6-.5c.4 0 .9-.3 1.3-.5H233ZM99.2 322.5c1-2.2 2.4-2 3.7-2H134l53.1-.4h54.2c.2 1.7-.8 2.4-2 2.3-3.5 0-6.9-.2-10.3-.3H223c-6 0-11.8.3-17.7.4h-106Z"/>
    <path class="cls-14" d="M81.9 274c1.9-2.2 4.4-2.5 6.6-3.3 2.5-.8 2.6-.7 2.6-3.4 0-1.6-.3-3.2-.4-4.9l.2-3.2c2.4.4 3.6 2.2 5.2 3.3 1.1.7 2.1 1.7 2.9 2.7 1.7 2.5 4 3.2 6.9 2.8 1.5-.2 3 0 4.5 0 1.7.2 2.2 1.1 1 2.3-2.3 2.2-2.3 4.6-1 7.4.9 2 1.5 4 2.2 6 .3.8.4 1.6.6 2.6-2.6-.1-4.3-1.5-6-2.8-1-.9-2.2-1.7-3.3-2.5-1.2-.8-2.3-.7-3.1.4l-3 4.3-1.3 2.7c-1.5-.2-2.3-.6-2.5-2l-1-5.7c-.7-3.2-.8-4.5-4.9-4.8-1.3 0-2.6-.2-3.9-.5-.8-.2-1.5-.8-2.3-1.3ZM225.5 284.8c-1.7.5-2.5-.6-3.5-1.1l-6.6-4.5c-2-1.4-3.8-1-5.3 1.2-.6.7-1 1.5-1.5 2.2l-1.6 2.2c-1.4 0-2-.5-2-2l-1.1-6c-.3-1.8-1.4-3-3-3.7l-6.4-2.2c-.7-.2-1.3-.7-2-1v-.7c1.7-.6 3.3-1.2 5-2 1.5-.6 3-1.5 4.4-2.3l-.9-9.2 1.9 1 6 5.4c2.3 2 4.8 3.4 8.1 2.7a10 10 0 0 1 4 .3c.5.2 1 .9 1.7 1.4L221 268c-2 1.6-2.5 3.2-1.3 5.5l5.3 10.1.6 1.3ZM43.6 270.7c2.5-.4 4.9-.8 7.3-1 1.7-.2 2.4-1 2.7-2.5.4-2 .8-3.8 1.4-5.7.1-.6.7-1.4 1.1-1.4.6 0 1.4.5 1.8 1 1 1.6 2 3.3 2.6 5 1.2 3.2 3.5 4.2 6.5 4.4 2 .1 4 .5 5.9 1 1.7.3 2 1.3.9 2.6l-2.1 2.4a3.5 3.5 0 0 0-1 4.1c.7 1.6 1.4 3 1.9 4.6.3.9.3 1.7.4 2.6-2 .6-2.8-.7-3.8-1.5l-4-3.4c-1.7-1.4-2.4-1.4-4 .2-1.4 1.2-2.5 2.6-3.8 4-.8.8-1.4 2.3-3 1.8-1.4-.4-1.5-1.8-1.5-3v-4l.1-2.7c0-2.5-.6-3.2-2.8-4.1-1.8-.7-3.5-1.5-5.3-2.4-.6-.3-1-.9-1.5-1.4l.2-.6ZM187 284.6l-1.7-.8-6-3.6c-1.2-.9-2.4-.8-3.5.2l-4.4 4.5-1.4 1.6c-1.8-.7-1.6-2.1-1.9-3.4l-.5-4.2c-.2-2.3-1.5-3.6-3.7-4.4-2.1-.7-4.2-1.7-6.2-2.6l-1.3-1c.4-1.5 1.4-1.7 2.7-1.9 1.8-.3 3.7-.7 5.5-1.2 1.2-.4 1.6-1.3 1.5-2.6l-1-7.4c1.5-.7 2.4.1 3.3 1 2 2.1 4 4.2 6.3 6 .8.7 2 1 3.2 1.1 2 .1 4 0 6-.2 1-.1 2 0 2.7 1l-2.9 4.2a4.5 4.5 0 0 0-.4 5.1l3.5 6.6.6 1.5-.4.5ZM131 258c1.8 0 2.5 1.2 3.2 2.2 1.3 1.8 2.5 3.7 3.6 5.6.9 1.4 1.8 2.2 3.6 2.2 2.1 0 4.3.4 6.4.5 1.3 0 2.3.4 2.7 1.8l-3.8 5c-.8 1-1 2-.4 3l3.2 7.9c-1.1-.4-2-.5-2.7-1-1.8-1-3.5-2.1-5.2-3.4-1.7-1.3-3.3-1.3-5.2 0-1.9 1-3.2 2.7-4.7 4.2-.5.5-1.2.7-1.9 1-.2-.7-.7-1.3-.7-2v-8.2c.1-2-.6-3.2-2.4-3.8l-4.2-1.5c-1-.3-2-.6-2.6-1.9 1.4-1.8 3.4-1.7 5.3-2 1-.2 2.2-.3 3.2-.6 2.6-.9 2.8-1.5 2.5-4.4V258Z"/>
  </g>
</svg>
