<!-- This Source Code Form is subject to the terms of the Mozilla Public
   - License, v. 2.0. If a copy of the MPL was not distributed with this
   - file, You can obtain one at https://mozilla.org/MPL/2.0/. -->
<svg xmlns="http://www.w3.org/2000/svg" viewBox="0 0 549 533">
  <defs>
    <style>
      .cls-1{fill:#7c1600}.cls-3{fill:#3355fe}.cls-5{fill:#ac3501}.cls-11{fill:#feb776}.cls-12{fill:#fead3b}.cls-14{fill:#fff}.cls-15{fill:#fe7711}
    </style>
  </defs>
  <path class="cls-14" d="M162.1 141 150 117s-13-25.8-20.5-26.9C122 89 115 92 115 92l-11 13s-3 19.1-3.5 28.6 0 51.3 0 51.3L119 296l10-10 3.4-26.4L122 215l-8.8-66 1.8-34 7-9 8.4 4 10.6 21 16 25.7 25.4 67.5L194 284l15 57 21 9 13.7-2.7-22.7-92L162 141Zm287-43.2c-1.7-8.2-7.1-45.8-28-54.3-20.9-8.4-39.1 5.5-47.3 11.6-8.2 6-19.8 40-20.3 40.7L342 137l14.3 20.6S371 89 376 80s16-25 35-23 21 33 22 64-10 73-10 73l9 25s8-19 12-36 7-77 5.2-85.2Z"/>
  <path class="cls-14" d="M166.8 57.8 176 64l20 25 78.2 35.5L302 123l41.3-60.3L348 54l6-2.6 3.9 3.7 1.7 25.3 4.4-.4 3.4 9.5 1.8 8.3L365 130l33.2 44.4 10.3 7 3.5 6.6-11 14-22 22-21 19-1 2.7-1 24.3-72 30.5-39-42.5-61-106-19-72 1.8-22.2z"/>
  <path d="M297.5 328.5a61 61 0 0 0 17.8 9.6 96.8 96.8 0 0 0 29 4.1c5.7-.1 11.4-.8 16.9-2.6 5-1.7 9.6-4 13.5-7.8 1-1 2-2 3.3-2.3-.3 2-1.8 3.3-2.7 5a419.4 419.4 0 0 1-19.4 28.9l-23 30.7-24 31.7c-7.1 9.5-14.3 19-19.5 29.7-.2.5 4 2.2 3.6 2.5-1.4 1-3.1 2.4-3 4 0 1-3 5-3 6-1-2-.6-8.4-.9-10.5l-2.2-26-1.8-22.3c-.5-6.7-.8-13.4-1.1-20.2 0-1.2 0-2.5-.9-3.8-.8 5.5-.8 10.9-.7 16.2.2 7.7.7 15.4 1.5 23l2.7 31.7c.6 7.8 1.4 15.5 2.2 23.3.7 7.9 1.4 15.7 2.3 23.6.4 3.2 1.6 8.7 1.9 12 0 .7-1.4-1-2-1a4 4 0 0 1-1.6-.7l-9.8-6.4c-6.6-4.2-13.3-8.4-19.8-12.7L240 482c-8.9-6.3-17.7-12.7-26.5-19.2l-13.1-9.6a970 970 0 0 1-34.3-26.6c-2-1.7-4.1-3.2-6.3-4.6-2.5-1.7-4-4.1-5.2-6.6l-7.4-14.8c-4.7-9.7-9.5-19.4-14-29.3-4.6-9.7-9.3-19.4-13.7-29.3-2.7-5.8-5-11.8-7.6-17.6L106 311a669 669 0 0 1-10.3-25c-1.4-3.7-2.4-7.7-4.5-10.9-3-4.7-4.6-9.9-6.6-14.9a695 695 0 0 1-20.7-58c3 1.7 5.1 4 7.5 5.8 10 7.8 19.9 15.6 30.2 22.9 4 2.9 8 6 12 8.8 1.1.8 1.6 1.8 2 3a354 354 0 0 0 8 29.5c.8 2.4 1.5 5 3.4 6.9v2.2c.2 9 3.4 16.7 10.1 22.5 3.3 2.8 7 5.3 11 7.1 3.7 1.6 7.3 3.3 11 4.6 8.6 3 17.2 5.3 26.4 4.6 7.6-.6 15-1.6 22-4.7 1.2 4.4 2 8.9 3.2 13.3 1.6 5.8 3.5 11.6 10 14.3 2.5 1 5.1 1.2 6.7-.3.5-.5.8-1 .4-1.5-.3-.5-.7-.1-1 0v-.5c1-.1 1.4-.8 1.1-1.7-2.1-7.4-2.4-15.2-5.1-22.5a46.2 46.2 0 0 1-2.2-10l18.9 11.4c8.4 5.2 17.2 9.7 25.8 14.5l15.5 9c1 .6 1.9.8 2.9-.1l13.8-12.9Z" fill="#648afe"/>
  <path d="M287 463.6c0-1 2.2-7.6 2.4-8 5.2-10.8 12.4-20.3 19.5-29.8l24-31.7 23-30.8c6.9-9.3 13.3-19 19.4-28.9 1-1.6 2.4-3 2.7-5 .6-1.1 1.8-1.7 2.6-2.6a30.4 30.4 0 0 0 7.4-16.2c.6-3.1 1-6.2 1.4-9.3a21 21 0 0 0-.8-7.9 84.3 84.3 0 0 0-4.2-13c-.2-.5-1.7-.7-1.4-1.4 6.3-3.2 13.5-7 20-9.9 8.5-3.9 17-7.6 25.8-11 18-7.4 36.5-14 54.3-22.1l3.2-1.8c-.2 2.3-1.5 4-2.3 5.9l-8.6 20c-4 9.3-7.9 18.7-12.1 28-2.1 4.6-4.5 9.1-6.7 13.7-3.3 7-7 13.9-10.2 21-2.6 5.6-6 11-9 16.4-4.5 8.1-8.7 16.4-12.8 24.6-4.7 9.4-9.7 18.6-14.2 28-4.2 8.7-8.5 17.4-12.4 26.4-2.3 5.2-4.7 10.4-6.6 15.7-2 5.1-3.7 10.3-5.1 15.5-1 3.5-2.3 6.9-3.2 10.4-.2.7-.7 1-1.3 1.4-5.4 3.6-10.8 7.2-16.5 10.5-5.3 3-10.4 6.4-15.6 9.4-8.6 4.8-16.8 10.1-25.4 15-6.6 3.8-13.2 7.5-19.6 11.6-3.6 2.2-5.7 5.8-9.7 7.3-.5.2-2 0-2.8.1-1-2.2-.8-4.6-1-7-1-7-1.5-14-2.2-21l-2-21.2c-.2-.8-.2-1.5 0-2.2Z" fill="#9dc8fe"/>
  <path class="cls-11" d="M290 286.6c-.8 3.7-2.2 7.4-2.6 11.3-1.1 10 .5 19 7.1 27 .5.6 1.1 1.2 1.3 2-4.1 3.7-8.4 7.3-12.2 11.3-1 1-1.8 1-3 .4-4.4-2.2-8.4-5-12.6-7.4-7.3-4.1-14.8-7.9-22-12.2l-17.7-10.5-6.8-4c-1-.6-.7-1.1-.2-1.8 2-2.6 3-5.6 3.5-8.7a55 55 0 0 0-.5-23c-2-7.6-4.1-15-9-21.1-3.7-4.6-8.1-8-13.7-10-1-3.1-1.5-6.5-3-9.4-4-7-6-14.6-8.4-22.1-3-9.6-6.5-19-10.1-28.4 3.2.2 6.4-.3 9.6-.7 4.9-.4 9.7-1 14.6-1.2 8.5-.4 17.1 0 25.7 0a54.5 54.5 0 0 0-3.2 12c-.7 6 .3 11.9 3 17.3 4.7 9.3 13 14.5 22 18.6a54 54 0 0 0 26.7 3.2c2.9-.2 5.7-.9 8.6-1.2l-3.2 3.6c-4 4.3-7.4 9.3-12.4 12.7-1.4 1-1 2-.5 3 3.7 8.4 7.6 16.7 11.6 24.9 2.3 4.6 5.3 9 6.8 14l.6.3Z"/>
  <path class="cls-3" d="M382.5 277c-1.2-.6-.7-2-1.2-2.9a20 20 0 0 0-6-5.6c-5.2-3.7-10.8-7-17-8.8-1.1-.3-1.4-.8-1.3-1.8l1-12.4c.1-1 .8-1.6 1.4-2.2l20.1-18.5a308.1 308.1 0 0 0 32-33.3c2-2.5 2.1-3.7.5-6.3-4-6.5-9.1-12.2-13.8-18.2l-5.5-7.3c-.2-.3-.5-.5-.2-.8l23.9 17.2c3.5 2.6 6.7 5.6 10.1 8.3 1.3 1 3 1.4 4.3 2.4l10.1 8.2c4 3.5 8.3 6.6 12.4 10 5 4.3 10.3 8.5 15.4 12.8l9.3 8 7.2 7c-4.9 2-9.4 3.7-14 5.7-17.4 7.5-35.3 13.6-52.7 21.1a447.8 447.8 0 0 0-32 15l-4 2.3Z"/>
  <path class="cls-15" d="M230 178c-8.6 0-17.2-.3-25.7.1-4.9.2-9.7.8-14.6 1.3-3.2.3-6.4.8-9.6.6-3-6.6-5.4-13.4-8-20l-4.1-10.5c0-.4 0-.8-.5-1 .9-2.2 2.7-3.8 4-5.7 1.2-1.7 8-13.2 8.5-15.8 1-4.6 2-8.7 2.6-13.3.4-3.4.9-6.7 1.5-10 .9-5 2.3-10 3.4-15 1-5.2 2.7-10.2 4.2-15.2l5.5-17.3c1.2-3.7 2.4-7.5 3.9-11.2 2-4.8 3.2-10 6-14.5 1 2.6.4 5.4.7 8a363.7 363.7 0 0 0 8.4 50.3c3.3 14 6.8 27.8 12 41.2 2.2 6 3.4 12.3 6.9 17.7 2 3.3 3.9 6.7 6.3 10.1l.2-1.8c.7 1.3 2.3 2 3.4 3 1.4 1.3-1.5 2.9-2.5 3.9-2 2-4.4 3.7-6.3 6-2.6 2.7-4.2 6-6.3 9.1Z"/>
  <path class="cls-3" d="M63.2 198.3c7.6-7 16-12.6 24.2-18.4 4-2.8 8.2-5.4 12.4-8.2 1.8-1.1 2-1 2.2 1 .8 7.5 2.2 14.8 3.5 22.1 1.7 9.4 3.2 18.8 5 28.2 1 4.6 2.6 9 3.5 14a939.4 939.4 0 0 1-50.8-38.7Z"/>
  <path class="cls-12" d="M219 301a121 121 0 0 0-4.1-17.4l-12-40.1c.3-.3.6-.1.9 0 2 .4 3 2.5 4.7 3.5 3 1.8 4.9 4.4 6.7 7.3 2.3 3.7 3.8 7.7 5.1 11.8 3 9.4 3.8 18.9 1.6 28.5-.5 2.2-.8 4.7-2.9 6.4Z"/>
  <path d="M166 132.1a25 25 0 0 0 4.3 5.6c.7.7.9 1.2.4 1.9-1.5 1.8-2.5 3.8-4.2 5.5l-3.7-9.7c-.4-1-.1-1.5.6-1.9.8-.4 1.8-.7 2.5-1.4Z" fill="#3354fc"/>
  <path class="cls-1" d="M167.5 148.5c.5.2.5.6.5 1-.4-.2-.5-.6-.5-1Z"/>
  <path class="cls-12" d="M245 159c0 .3 2 2.4 1 2-.5-.2-3.7-1.4-4.6-3.1-2.4-3.5-4.2-6.9-6.3-10.2A70.5 70.5 0 0 1 227 131c-5-13.4-7.5-28.3-10.8-42.2a365.3 365.3 0 0 1-5.7-29.9c-1-6.7-1.9-13.5-2.6-20.3-.3-2.7.2-5.5-.9-8.1l.1-.5c.4-.2.4-.6.4-1 .3-.7 1-1.2 1.2-2.2 2 3.4 4.1 6.4 6.3 9.5a381.8 381.8 0 0 1 31 51.4c2.6 5.3 5.2 10.6 8 15.9 1 1.7 3 2.8 4.8 2.3 2.3-.7 4.6-.4 7-.6 4.7-.5 9.5-.3 14.3-.3 1.5 0 3-.6 4.4-1 .8-.2 1-1 1-1.8 0-1-.7-1.4-1.4-1.6-2-.6-4-.6-6.4-.5l3-9c2.3-6 4.4-12.2 7-18l4.3-9.2c3.8-7.6 7.3-15.2 11.2-22.7 3.8-7.2 7.7-14.3 12.2-21 1-1.5 1.2-1.5 2.2 0 4.2 7.3 8.4 14.6 12 22.3 3.5 7.6 6.2 15.6 9.3 23.4l6 14c5.4 12.8 10 26 15.3 38.8a56.4 56.4 0 0 0 10.4 17.3c6 6.5 11.3 13.7 16.6 20.9 5.4 7.2 11 14.3 16.7 21.3 1.7 2.2 3.5 4.2 4.6 6.8-4.3-.7-8.6-1.5-13-2.1a370.9 370.9 0 0 0-48.8-4.5c-10.3-.7-20.7-1.9-31-.8-1.3-2-2.3-4-3.8-5.8-3.5-4.5-6.5-9.4-11.8-12-1.3-.6-.8-1.7-.6-2.7 1-4.8 1-9.2-3-12.9-1.7-1.5-4.3-1.5-5.6.5-1.8 2.7-3.4 5.6-1.7 9.2-4.7-1-9.3-1.4-13.9-1.8-7.2-.6-14 .7-20.7 3.5-2.3 1-2.6.8-2.5-1.9 0-1.8-.5-3.4-1.1-5-.7-1.7-2.9-3.3-4.2-3.2-2 .2-3 1.4-3.7 3.2-.7 1.9 0 4.3 0 6.3l2 4Zm55 115.5a38.7 38.7 0 0 1 21-12.5 82.8 82.8 0 0 1 17.7-2.4c4.9 0 9.8.3 14.5 1.5 3.6 1 7.3 1.4 10.6 3.4 3.3 1.9 6.7 3.5 9.9 5.7 2.2 1.5 3.6 3.9 5.3 6.1 3.8 5.2 5.2 11.2 7 17.1 1.5 5 .8 10-.2 15-.7 3.8-1.4 7.6-3.4 11-8 .2-16 .3-24.1-.9-1.4-.2-1.9-.8-1.9-2 .2-2-.1-3.8.5-5.7.1-.4 0-.8-.1-1.2-.3-.5-.5-1.1-1.2-1-.6 0-.8.6-.9 1l-.8 6.4c-.5.4-.4 1-.4 1.5-2.6-.6-5.2-1.4-7.7-2.5-5-2-10.2-3.7-14.7-6.6a92.7 92.7 0 0 1-31-33.9Z"/>
  <path class="cls-15" d="M300 274.5a92.7 92.7 0 0 0 31 33.9c4.7 2.9 9.8 4.6 14.8 6.6a52 52 0 0 0 7.7 2.5c-.5 7-1.7 14-3.8 20.7-.3.8-.6 1.3-1.6 1.3-7.9 0-15.9.5-23.7-1.6.1-.5.8-.8.6-1.3-1-2.5-.2-5.2-.9-7.7-.3-1-.2-2.3 0-3.5.6-4 .2-8.2.4-12.3 0-1-.4-2-.7-2.9-.2-.4-.6-1-1.1-.9-.6.1-.7.7-.7 1.2v.5c.3 5.8-.7 11.6-.5 17.4.1 3 .2 6 1.3 9-2.1.1-4.1-.8-6-1.5-5.1-1.8-10.3-3.6-14.5-7-4.4-3.7-8.9-7.5-10.6-13.2a40.3 40.3 0 0 1-1.8-15.9 55 55 0 0 1 4.7-17.4c1.3-2.9 3-5.7 5.4-7.9Z"/>
  <path class="cls-11" d="m181.4 107.5-4.4 22.1c-.2 1.3-1 2.3-1.6 3.3-.7 1.3-1.6.5-2.1-.3-1.4-2-2.8-3.9-4-5.9-2.7-4.4-5.5-8.8-7.2-13.7a50.9 50.9 0 0 1-2.7-10.4c-.1-1-.5-2.3.6-3 1-.5 2.1.2 3 .7 1.1.5 1.8 1.5 2.5 2.4 1.4 2 3.7 2.4 5.7 3.2 1.1.4 1.7-.6 2.4-1 .9-.6.3-1.5 0-2.3-1.3-3.9-2.9-7.7-3.9-11.7a86 86 0 0 1-2.4-23.5c0-1-.3-2 .2-3l.4.7a200 200 0 0 0 9.2 32.3c1.3 3.4 2.4 6.9 4.3 10Z"/>
  <path class="cls-15" d="M356.4 316.5c0 1.2.5 1.8 1.9 2 8 1.2 16 1 24.1 1-1.4 3.7-4.4 6.2-7.3 8.8-3.9 3.6-8 6.5-13 8.2a58 58 0 0 1-9.9 2.5c.7-2.8 1.3-5.3 1.8-8 .8-4.6 2-9.2 2-13.9 0-.2.3-.4.4-.6Z"/>
  <path class="cls-11" d="M359.6 110.5c.8-4 1.2-8 2.5-11.8 1-2.5 1.9-5 2.2-7.6.3-1.8.2-3.8.8-5.6.6 1.4 1 2.8 1 4.3 0 4.8.3 9.7-.1 14.6-.5 4.8-.8 9.7-2.4 14.9-1.1-3.3-3.6-5.6-4-8.8Z"/>
  <path class="cls-15" d="M353.5 317.5c0-.5-.1-1 .4-1.5 0 .6.2 1.1-.4 1.5ZM207.5 29c0 .4 0 .8-.4 1 0-.4 0-.7.4-1Z"/>
  <path class="cls-11" d="M168 63.6c0 .2-.1.4-.4.4 0-.3.1-.4.4-.4Z"/>
  <path class="cls-3" d="M136.5 253c-1.2-1-2.4-2-3.8-2.8-1.7-.9-2.4-2.2-2.7-4l-5.2-25.6a869.5 869.5 0 0 1-6.4-35.5l-2.8-20.4c-.3-2.3 1.2-3.7 2.8-4.7l14.3-8.9c4-2.3 8-4.5 11.8-7.1l1.2-.9c2-1 2.6-.9 3.6 1.2l7.3 14.7c-5.2 8.2-10.8 16-16.4 23.8-.4.4-.8.9-1 1.4-.8 1.4-2.8 2.6-2.4 3.9.3 1.3 1.5 2.6 2.4 3.9a351.8 351.8 0 0 0 25.4 32.9c3 3.4 5.7 7.1 8.7 10.9-1.4.6-2.6.6-3.8.7-10.5 1.1-20.1 4.3-28 11.5-1.8 1.6-3.3 3.3-5 5Z"/>
  <path class="cls-12" d="m186 239.5 4.8 15.4c2.9 9.3 5.8 18.7 8.2 28 1.7 6.6 3.5 13 5 19.5.7 3 1.7 6 2.5 9.1 0 .4 0 .8.4 1-.5.7-1.2 1-2 1.1l-2.4-.5a51.8 51.8 0 0 1-18.8-11.7c-2.9-2.6-5.6-5.5-8.2-8.4v-4c0-.9-.5-1.7-1.3-1.8-1.2 0-.5 1.2-.8 1.8-1 0-1.2-.7-1.6-1.4a82.2 82.2 0 0 1-12.5-25.5c-2-7-2-14 .2-21a59.6 59.6 0 0 1 26.5-1.6Z"/>
  <path class="cls-15" d="M159.5 241c-2.3 7-2.2 14-.2 21a82.6 82.6 0 0 0 12.5 25.7c.4.6.7 1.3 1.6 1.3-.5 6-1.4 12.2-.5 18.3l1 7.6c.4 2 0 2.3-2 1.8-5.6-1.4-11.3-3-16.6-5.5l-1-.2a7 7 0 0 1-5-4.6c-2.3-6-2-12-1.5-18.1.2-2.3.3-4.7 1.4-6.8.5-.8 0-1.6-.6-1.9-1-.4-1.4.4-1.7 1.1-.8 3-1.7 6-1.8 9-.2 4.3-.4 8.6.4 13 .2 1.5 1.2 2.8 1.3 4.6-5.2-2.5-9.9-5.3-12.6-10.4-2-3.9-3.8-7.7-4.4-12-.5-3.8.2-7.3.7-11a37.4 37.4 0 0 1 19.2-28.8c3-1.8 6.5-2.8 9.8-4Z"/>
  <path class="cls-11" d="M166 181.5c2.3 5.3 4 10.8 6 16.3l12.6 37.7c-.1.5-.2 1-1 .8-.9-.4-2-.4-2.9-.2-3 .5-5-.9-6.6-3.2-6.3-8.8-13.9-16.6-20.4-25.1-4-5.3-7.8-10.6-11.6-16l-1.3-1.7c-1.6-2-1.6-2 .1-3.7l7.7-1.7c5.8-1.3 11.5-2.7 17.4-3.2Z"/>
  <path class="cls-15" d="M175.6 293a104 104 0 0 0 8 8.4c5.6 5 11.7 9.3 19 11.7.8.3 1.6.4 2.4.5-2.8 1.8-6 2.3-9.2 2.8-5.7 1-11.4 1.4-17.2 1.2-1.5 0-2-.4-2.2-2a95 95 0 0 1-1.1-14.4c0-2.8.2-5.5.3-8.2ZM166 181.5c-5.9.5-11.6 2-17.4 3.2l-7.6 1.7 9-13 6.1-9c.6-.8.9-1.9 1.9-2.3 2.6 6 5.3 11.9 7.6 18 .2.4.5.8.4 1.4Z"/>
  <path d="M132 260c-.1-1.8-.6-5.5-.5-7.4 1.5.3 3.3 1 4.5 1.4-.5 1.4-2.8 5.2-4 6Z" fill="#9dc0f1"/>
  <path class="cls-5" d="M207 312.5c-.5-.2-.5-.6-.4-1 .3.2.4.6.3 1Z"/>
  <path class="cls-11" d="M260.3 226c5.7 1 11.3 1.3 17 .9 2.6-.2 5.3 0 7.7-1.3l-2.7-2.2a35.9 35.9 0 0 1-8.9-9.6c-5.4-8.7-9.4-18-12.3-27.7-6.2-.3-12-2-17-5.6-1.1-.8-2-1.6-2.4-2.8-.2-.5-.3-1 .2-1.3.6-.5 1-.2 1.5.2a26 26 0 0 0 17.1 6.9l-.7-1.9c-1.5-7-3-14-2.9-21.1 0-1 .1-2-.4-3a50 50 0 0 0-10.2 5.6 39 39 0 0 0-16.6 24.7c-1.8 9.5.5 17.8 7.1 25 4.7 5 10.3 8.3 16.4 11 1.8.8 3.8 2.2 5.8 2.2h1.3Z"/>
  <path d="M273.3 168c-3.8.4-6.5-2.4-9.4-4.4-1.4-1-1.3-2.7 0-3.9a9 9 0 0 1 3.6-2c4.6-1.4 9.2-1.2 13.7 0 2.8.6 3.5 2.6 2.3 5.3-1.4 3.2-5.7 5.4-10.2 5Z" fill="#ac3401"/>
  <path d="M261 186c-6.1-.2-11.9-1.9-17-5.5-1-.8-1.9-1.6-2.3-2.8-.2-.5-.3-1 .2-1.3.6-.5 1-.2 1.5.2a26 26 0 0 0 17.1 6.9c7.7.5 15.4.1 23-1 7.1-1.2 14-3.2 20-7.7.3-.2.5-.6 1-.4.5.3.5.8.5 1.3 0 1.4-1 2-2 2.6-6 3.5-12.6 5.6-19.4 6.6-7.5 1.1-15 1.5-22.5 1.2Z" fill="#ad3703"/>
  <path class="cls-1" d="M361 68c2.3-4.1 5.7-9 8.8-12.7a51 51 0 0 1 21.5-14.6c1.2-.4 2.4-.4 3.6-.7 2.6-.7 5.2-1 7.8-1.8 2.4-.7 4.8.5 7.2.5 3.5 0 6.7 1 10 2a32 32 0 0 1 16.7 12.6A74.4 74.4 0 0 1 448 79.1a129 129 0 0 1 4 25.7c.5 8.1.7 16.2.5 24.4-.2 6-.5 12.1-1.2 18.2-.8 7.9-1.7 15.8-3 23.7-1 5.9-1.6 11.8-2.9 17.7-.1.9-.5 2 .7 2.9l17.5 14c5.3 4.3 10.4 8.8 15.6 13.2 4.2 3.6 7.9 7.7 12.2 11.2 1 .8 1 1.9 1 3.2.2 3.6-2 6.3-3.3 9.3l-8.7 20.6-5.9 13.4a796.2 796.2 0 0 1-16.6 35.5c-4.1 8.2-8 16.5-12.5 24.5-5.9 10.4-11 21-16.5 31.6a1280.3 1280.3 0 0 0-28.3 58.4c-2.6 6-5.1 12.2-7.3 18.4-1 2.8-2.3 5.5-3.3 8.3a44 44 0 0 0-1.6 7.4c-.6 3.3-2.6 4.9-5 6.4-6 3.7-11.8 7.6-17.9 11.1l-16.3 9.8c-9.5 5.7-19 11.3-28.7 16.8-6.5 3.7-12.8 7.8-19.3 11.5a50.6 50.6 0 0 1-8 3.7c-1.2.4-3.7-.4-4-.5-2.8-.7-5.4-1.6-7.8-3.5-3.4-2.7-7.6-4.2-11.4-6.5a398.3 398.3 0 0 1-27.1-18.1c-6-4.4-12.2-8.7-18.2-13.2L205.1 464c-6.3-4.7-12.7-9.2-18.9-13.9-3.7-2.8-7.2-5.8-10.9-8.5-5.2-3.9-10-8.1-15-12.1-2.1-1.8-4-3.8-6.4-5.4-3.9-2.7-5-7-7-11l-8-15.7c-2.3-4.6-4.3-9.3-6.5-13.9-4.7-10-9.5-20-14-30-4.2-9-8.2-18.3-12.1-27.5l-9-21.5-8.3-18.6c-3.8-8.5-7.4-17.1-10.8-25.9s-7.2-18-10.4-27c-3-8.6-5.7-17.4-8.6-26.2-.3-.9-2.2-6.8-2.3-9.3 1.1-3.5 6.2-6.6 9.7-9.5 3.7-3 7.7-5.8 11.6-8.6l14.9-10 4.6-3.2c.5-.3.8-.4.7-1a43 43 0 0 1-.7-5.8 203.9 203.9 0 0 1 .7-35.4 96 96 0 0 1 3.7-18.3A35 35 0 0 1 112.4 90a15 15 0 0 1 9.5-3.3c4.1-.2 7.6 1.6 11 3.7 3.5 2.3 6.4 5.3 8.8 8.8 3.6 5.5 7.5 10.9 10.6 16.7 2.1 4 4.5 8 6.8 12 .6 1.1 1.2 1.6 2.2.5.3-.3.7-.3 1.1-.5 2.1.6 2.5 2.7 3.6 4.2-.8.7-1.7 1-2.6 1.4-.7.4-1 1-.6 1.8l3.7 9.7c.5 2 .5 3 1 3.4 0 .5.1.9.5 1l4.1 10.5c2.7 6.7 5 13.5 8 20.1 3.6 9.4 7.2 18.7 10.2 28.3 2.3 7.6 10.3 28.5 11.3 31.6.4 2 .7 2.5 1.3 3.6 4 13.4 8.1 26.7 12 40.1 1.7 5.7 3.3 11.4 4.2 17.3 0 3.6 0 3.8 2.4 3.5l6.8 4.1 17.8 10.5c7.2 4.3 14.7 8 22 12.2 4.2 2.4 8.2 5.2 12.6 7.4 1.2.6 2 .6 3-.4 3.8-4 8-7.7 12.2-11.3.7.3 1.3.8 1.6 1.6l-13.8 12.8c-1 1-1.9.7-3 .1l-15.4-9c-8.6-4.8-17.4-9.3-25.8-14.4-6.2-3.9-12.5-7.6-18.9-11.5.5 3.5 1 6.9 2.2 10 2.7 7.3 3 15.1 5.1 22.5.3 1 0 1.6-1.2 1.7a6 6 0 0 1-1.6-3.3c-.9-4.5-1.5-9.1-2.8-13.6-3-10.2-4.8-20.6-7.5-30.9l-8-29.6c-1.7-6.2-4.5-11.9-6.5-18-3.8-12-8-24-12.5-36-4.7-12.5-9.3-25.2-13.8-37.8a210 210 0 0 0-16.9-35.6c-2.6-4.4-4.8-9.2-7.4-13.7-2.1-3.8-4.5-7.5-6.7-11.2-2.2-3.9-5.2-7.2-8-10.6-1.3-1.5-2.3-3.3-3.8-4.5a15.6 15.6 0 0 0-8.2-3.3c-2.2-.2-4.5.3-6.5 1.6-2.3 1.6-3.6 4-5.1 6.1-3 4-4.2 8.8-5.4 13.6-2 8.4-2.8 17-3.4 25.5-.5 8.6.9 17.2 1.3 25.8.2 3.6.2 7.2.9 10.8l5.4 30.6c1.1 6.3 1.9 12.7 3.5 18.8l8 32.7c1.6 6.3 3.8 12.5 5.3 18.9v3c-1.8-2-2.6-5.3-3.4-7.7-3.2-9.7-5.7-19.6-8-29.5a4.8 4.8 0 0 0-2-3l-12-8.9c-10.3-7.3-20.2-15-30.2-22.8-2-1.6-3.8-3.5-6.2-5-.5-.3-1 .1-1 .6 1.2 4.2 2.5 8.1 3.8 12a833.6 833.6 0 0 0 16.6 44.6c2 5 3.6 10.2 6.6 14.8 2.1 3.3 3.1 7.3 4.5 11a694 694 0 0 0 10.3 25c1.9 4.4 3.7 8.9 5.8 13.3 2.7 5.8 5 11.9 7.6 17.7l13.6 29.3c4.6 9.8 9.4 19.5 14.1 29.3l7.4 14.8c1.2 2.4 2.7 4.9 5.2 6.5 2.2 1.5 4.4 3 6.4 4.6a617.1 617.1 0 0 0 34.2 26.6l13.1 9.6A1653 1653 0 0 0 240 482c5.6 4 11.1 8.2 16.9 12.1 6.5 4.4 13.1 8.5 19.7 12.8l9.8 6.3c.6.4 1 .6 1.6.7a1 1 0 0 0 1.2-1l-1-10c-1-7.8-1.7-15.7-2.4-23.5l-2.2-23.3c-1-10.6-1.6-21.2-2.7-31.8-.7-7.6-1.2-15.3-1.4-23-.2-5.3-.3-16 .6-16.1s.9 2.5 1 3.8c.2 6.7.5 13.4 1 20.1.5 7.5 1.2 15 1.9 22.4.7 8.6 1.3 17.3 2.2 26l.7 8.3 2 21.3c.8 7 1.4 14 2.3 21 .2 2 0 4.2.7 6.1.1.5.7.7 1.1.5 2.4-1.2 8.7-5.2 11.7-7 6.4-4.1 13-7.9 19.6-11.7 8.6-4.8 16.8-10.1 25.4-15 5.3-3 10.4-6.3 15.6-9.4 5.7-3.2 11-6.8 16.5-10.5.6-.3 1.1-.6 1.3-1.4.9-3.5 2.3-6.9 3.2-10.3a194 194 0 0 1 5-15.5c2-5.3 4.4-10.5 6.7-15.8 3.9-8.9 8.3-17.6 12.5-26.4 4.4-9.4 9.4-18.6 14-27.9 4.2-8.2 8.4-16.5 12.8-24.6 3-5.5 6.5-10.8 9-16.5 3.3-7 7-13.9 10.3-20.9 2.2-4.6 4.6-9 6.7-13.7 4.2-9.3 8-18.7 12-28l8.7-20c.7-1.8 2-3.4 2.3-5.5 0-.2-.2-.3-.4-.2-1 .5-1.8 1.1-2.8 1.5-17.8 8.2-36.2 14.8-54.3 22-8.7 3.6-17.3 7.3-25.8 11.2-6.4 3-17.9 9-19 9.5s-.8.6-1 .4c-.3-.3-.3-1.6-.5-2l4-2.5a439.2 439.2 0 0 1 32-14.9c17.4-7.5 35.4-13.6 52.8-21 4.3-2 8.7-3.7 13.3-5.6.3-.1.4-.5.2-.7-2.4-2.3-4.5-4.4-6.8-6.4-3-2.8-6.1-5.5-9.3-8.1-5-4.3-10.3-8.5-15.4-12.8-4-3.5-8.4-6.5-12.3-10a186 186 0 0 0-10.2-8.2c-1.3-1-3-1.4-4.3-2.4-3.4-2.7-6.6-5.7-10-8.3l-24-17.2c-2.7-3-5.2-6.3-7.8-9.5-.5-.6-4.7-3.4-3.7-3.4s5 1 7.7 3.1c2.6 2.5 5.9 4.1 8.7 6.3 7.4 5.6 15 10.8 22.7 16.1 2 1.3 3.4 3.3 5.9 4l.7-6.4c1.3-7.5 2.6-15.1 2.8-22.8.2-4.9.8-9.7 1-14.5l.5-12.6c.1-5.6-.2-11.1-.9-16.6-.4-4.2-1.6-8.2-2.1-12.3-1-7.4-3.1-14.7-6.7-21.3-1.8-3.4-4.2-6.7-8.4-7.7-1.4-.4-2.9.1-4.2-.3-4.2-1.2-8 .2-11.7 1.8A44.8 44.8 0 0 0 377.6 83c-2 3.4-4.8 10.5-6.6 14-.1-.2.7-3.7.7-4-.7-2-1-4.1-2.4-5.8l.2-.7a64.5 64.5 0 0 1 17.3-24.1c6.6-5 13.8-8 22.5-7.5 4.7.2 8.8 1.1 12 4.9 1.8 2 3.6 4.1 5 6.5a74.4 74.4 0 0 1 7 20.2c1 4.6 1.7 9.2 2.4 13.9 1.5 10 .9 20.1.6 30.2-.2 3.6-.8 7.1-1 10.7-.2 6.5-.7 13-1.6 19.5l-3.2 21.3c-.1.7-.5 1.5.3 2l8.5 6.2c1-5.6 2-10.9 2.6-16.2.5-3.6 1.2-7.1 1.6-10.7l1.3-12a235.4 235.4 0 0 0 .6-54c-.2-2.2-.3-4.5-.8-6.7-.5-2.4-1.4-4.7-2-7a66.3 66.3 0 0 0-10-26.1c-3-4.4-6.6-8.1-11.4-10.3a36.6 36.6 0 0 0-18.2-3 38 38 0 0 0-13.7 3.3c-5.5 2.6-10.5 6-14.6 10.7A61 61 0 0 0 363 78.9c-.3 0-1 .5-1 .1 0-3.9-1-7.2-1-11ZM64.4 199.3c16 13.2 32.6 25.5 49.6 37.8-1-5-2.5-9.5-3.4-14-1.9-9.5-3.4-18.9-5-28.3-1.4-7.3-2.8-14.7-3.6-22-.3-2.8-.5-2-4.4.3-3.2 2-6.4 4.1-9.5 6.3-8 5.7-16.3 11.1-23.8 17.9-.6.5-.5 1.5 0 2Z"/>
  <path class="cls-1" d="M186 239.5c0-.5-1-1.5-1.4-4-4.2-12.6-8.3-25.1-12.7-37.7-1.8-5.5-3.6-11-5.9-16.3 0-.6-.2-1-.4-1.4-2.3-6.1-5-12-7.7-18-.2-1.1-.2-2.4-1.3-3l-7.3-14.8c-1-2-1.6-2.3-3.6-1.2l-1.2.9c-3.8 2.6-7.9 4.7-11.8 7.1-4.8 3-9.6 5.8-14.3 8.9-1.6 1-3.1 2.4-2.8 4.7 1 6.8 1.7 13.6 2.8 20.4a887 887 0 0 0 6.4 35.5l5.2 25.5c.3 1.9 1 3.2 2.7 4.1 1.4.8 2.6 1.8 3.8 2.8-.3.7.2 1.6-.5 2-1-.5-3-2.1-4.5-2.4-.1 2 .6 3.3 1 5.4s0 2.3-.5 3c-.5.9-1 1-1.3-1-1.5-5.1-2.5-10.4-3.6-15.7-2-9.5-4-19-5.8-28.5-1.9-9.8-3.5-19.6-5.2-29.4-1.5-8.4-2-17-3.5-25.4-.4-2.4-3.4-20 .8-46 .4-2 1.2-4 2.4-5.6a23 23 0 0 1 2.2-2.4c-1.4.3-4.1 1.9-5 2.6-.6.5-1.5 0-1.4-.7.1-.7.6-1.3 1.1-1.8 2.7-2.7 9-5 13.5-3 .5.2.9.6 1.2.8 2.6 2.1 2.4 2.6 3.8 3.7 2.8 2.2 4.1 5.5 6 8.3 4 5.9 6.8 12.4 10.2 18.6a389.4 389.4 0 0 1 15.8 32.8c5 11.7 9 24 13.3 36 5.9 16.7 11 33.6 16.3 50.5a777 777 0 0 1 11 37.8c1.8 6.8 3.7 13.5 5.2 20.5s3 13.4 5.2 20c1 2.6 2.2 5.2 5.1 6.6 2.4 1.1 4.7 2.2 7.4 1.6.3-.2.8-.5 1 0 .5.5.1 1-.3 1.5-1.6 1.5-4.3 1.3-6.7.3-6.5-2.7-8.4-8.5-10-14.4-1.3-4.3-2-8.8-3.2-13.2.3-1 .2-2-.6-3 .1-.4 0-.7-.4-1-.8-3-1.8-6-2.5-9-1.5-6.6-3.3-13-5-19.5-2.5-9.4-5.3-18.8-8.2-28l-4.8-15.5Zm-43-101.3c-2-2.9-3.4-6-4.9-9a68 68 0 0 0-12.4-18c-1.7-1.6-3.6-1.7-5.2 0-1.4 1.5-1.7 3.1-2 5.3-.5 3.5-1.7 10.3-2 14.6a123 123 0 0 0-.1 20.6c.2 2.4.5 2.5 2.5 1.3l10-6.1 14.1-8.7Z"/>
  <path class="cls-5" d="M127.2 276.9c1-4 1.5-8.2 2.9-12.1.5-1.6 1-3.6 1.5-4.5l.7-1.2c.2-.7.7-2 4.2-6.1l4.9-5c8-7.1 17.6-10.4 28-11.5 1.3 0 2.5 0 3.9-.7-3-3.8-5.7-7.5-8.7-10.9a350.1 350.1 0 0 1-25.4-32.9c-1-1.3-2.1-2.6-2.5-4-.3-1.2 1.7-2.4 2.4-3.8l1-1.4c5.7-7.8 11.3-15.6 16.5-23.8 1.1.8 1 2 1.3 3.1-1 .5-1.3 1.5-1.8 2.3l-6.2 9-9 13c-1.8 1.8-1.8 1.8-.1 3.7l1.2 1.8c4 5.3 7.7 10.7 11.7 15.9 6.5 8.6 14 16.3 20.4 25.1 1.6 2.4 3.5 3.8 6.6 3.2 1-.2 2-.1 3 .2.7.3.8-.3.9-.8.4.4 1.4 3.5 1.4 4a59.4 59.4 0 0 0-26.5 1.6c-3.4 1.2-6.8 2.3-9.8 4a37.5 37.5 0 0 0-19.3 29c-.4 3.5-1.2 7-.6 10.7.6 4.4 2.4 8.3 4.4 12 2.7 5.3 7.4 8 12.5 10.5 0-1.8-1-3-1.3-4.6-.7-4.3-.5-8.7-.4-13 .1-3 1-6 1.9-9 .2-.7.7-1.4 1.6-1 .7.3 1.1 1 .7 1.9-1.2 2-1.2 4.4-1.4 6.7a39 39 0 0 0 1.5 18.1 7 7 0 0 0 5 4.6c.3.1.7.1 1 .3a91 91 0 0 0 16.6 5.5c1.4.3 2.2-.5 2-1.9l-1-7.5c-.9-6.2 0-12.3.5-18.4.3-.6-.4-1.7.7-1.7.8 0 1.3.9 1.4 1.8v4.3l-.3 7.8c0 4.9.5 9.7 1.2 14.5.2 1.5.7 1.9 2.1 1.9 5.8.2 11.6-.2 17.3-1.1 3.1-.6 6.3-1 9.1-2.8a3.4 3.4 0 0 0 2-1c.8.8 1 1.7.6 2.8a66.6 66.6 0 0 1-48.4.2c-3.8-1.4-7.4-3-11-4.7-4-1.8-7.8-4.3-11-7.1a29.4 29.4 0 0 1-10.1-22.5l-.1-2.2.3-2.3ZM243 160c-1.2-1-.7-2.8-1.4-4.1"/>
  <path d="M219 301c2-1.7 2.4-4.2 2.9-6.4a53.2 53.2 0 0 0-1.6-28.5 50.2 50.2 0 0 0-5.1-11.8 21.5 21.5 0 0 0-6.7-7.3c-1.7-1-2.6-3-4.7-3.5-.4-.1-.6-.3-.9 0-.6-1.1-.9-1.5-1.3-3.5 5.6 1.9 10 5.3 13.7 9.9 5 6.2 7 13.5 9 21 2 7.7 1.8 15.4.5 23-.5 3.2-1.6 6.2-3.5 8.8-.5.7-.7 1.2.2 1.8-2.4.2-2.5 0-2.5-3.5Z" fill="#ad3602"/>
  <path d="M178 134c-1 2-2.4 3.4-3 4-2 2-2.3 3.1-3.5 4.8-1.3 2-3.1 3.5-4 5.7-.5-.5-.5-1.5-1-3.4 1.7-1.7 2.7-3.7 4.2-5.5.5-.7.3-1.2-.4-1.9a25 25 0 0 1-4.4-5.6c-1-1.5-1.4-3.6-3.5-4.2.4-.8 0-1.3-.3-2a71.1 71.1 0 0 1-8-19.7 13 13 0 0 1 1-9.2c1.3-2.6 3.6-3.7 6.5-2.7 1 .2 1.8.8 2.9.7 0-2.2-.7-4.1-1.2-6-2-8.1-2.1-16.3-1.7-24.5.2-2.9 1.2-5.7 3.7-7.7 2-1.6 4.7-1.3 7.2.2 5.7 3.3 9.9 8 12.7 14l.7.6 3.6-11.3A249 249 0 0 1 205 21.5c.6-1.3 4-1.3 5.7-.1 2.5 1.7 4.3 4 5.8 6.6 2.3 3.7 5 7 7.4 10.6 3.5 5.2 7.1 10.3 10.3 15.8 3.5 5.8 7.3 11.6 10.4 17.6 3.2 6 6.4 11.8 9.1 18l5 9.7c.3.5.3.7.9.5 3.4-.7 6.9-.5 10.3-.1 1.3.1 1.8-.1 2.2-1.5A374.6 374.6 0 0 1 294.1 46c4.7-9.2 9.5-18.4 15.2-27l3-4.8c1.3-2.4 3.4-3 5.9-2.9.3 0 .8 0 .8.4.3 2.6 3 3.7 3.9 6 1 2.2 2.3 4.3 3.6 6.4 1.2 2.1 2.7 4.2 3.8 6.4 3.8 7.8 7.7 15.5 10.6 23.7.5 1.7 1.4 3.3 1.9 5.4l2.5-4.8c1.4-2.7 3.7-4.2 6.5-5 2.4-.8 4.2.7 5.9 2.2a9 9 0 0 1 2.8 5.8c.4 2.9 1 5.7 1.1 8.6l.6 12.1c0 .4.5.4.8.4 1.6.2 2.6 1 3.2 2.5.4 1 1 2 1.3 3.2.3 1.1 1.7 2.4 1.8 2.5 1.5 1.7 1.6 4 2.3 5.9 0 .2.2 10.2-.5 15-.8 5.7-1 11.5-3.1 17-.9 2.1-.7 3.6.9 5.2 4.3 4.3 8 9.3 11.8 14 1.4 1.6 2.9 3.8 4 5.2 2.5 3.2 5 6.4 7.8 9.4-.3.4 0 .6.2.9l5.5 7.3c4.7 6 9.8 11.6 13.8 18.2 1.7 2.6 1.6 3.8-.4 6.3a310 310 0 0 1-32 33.2l-20.2 18.5c-.6.7-1.3 1.2-1.4 2.3l-1 12.4c0 1 .2 1.4 1.2 1.7a59.8 59.8 0 0 1 17.2 8.9c2.2 1.5 4.4 3.2 5.9 5.6l3.1 6.3c1.8 4.2 3.1 8.6 4.2 13a21 21 0 0 1 .8 7.8c-.4 3.1-.8 6.3-1.4 9.3-1.2 6-3 11.7-7.4 16.2-.8 1-2 1.5-2.6 2.7-1.4.4-2.3 1.4-3.3 2.4-3.9 3.7-8.5 6-13.5 7.7a66.6 66.6 0 0 1-22.4 2.7 74 74 0 0 1-25.3-4.8c-5.8-2.2-11.1-5.1-16-9-.4-.7-.9-1.2-1.6-1.5-.2-.9-.9-1.5-1.4-2-6.6-8-8.2-17.1-7.1-27 .4-4 1.8-7.6 2.6-11.4l.8-1.8c3.5-9.4 10-16.2 18.6-21a64.1 64.1 0 0 1 30.3-6.5c4.9-.1 9.8.5 14.7 1.5.7-4 .9-8 1.2-12 .2-2.4 1-4.4 2.8-6L380 221a350.2 350.2 0 0 0 29.8-30.8c1-1.3 1.1-2.3.3-3.6l-1.5-1.7c-1-2.6-2.9-4.6-4.6-6.7-5.7-7-11.3-14.1-16.7-21.4-5.3-7.1-10.6-14.4-16.6-20.8a56.7 56.7 0 0 1-10.4-17.4c-5.4-12.8-10-26-15.4-38.9-2-4.6-4-9.2-5.9-14-3.1-7.7-5.8-15.7-9.3-23.3-3.6-7.7-7.8-15-12-22.2-1-1.6-1.2-1.6-2.2-.1-4.5 6.7-8.4 13.8-12.2 21-3.9 7.5-7.4 15.2-11.2 22.7l-4.3 9.2c-2.6 5.8-4.7 12-7 18l-3 9c2.4-.1 4.4 0 6.4.6.7.2 1.5.5 1.4 1.5-.1.8-.2 1.6-1 1.8-1.5.4-3 1-4.4 1-4.8 0-9.6-.2-14.4.3-2.3.2-4.6-.1-6.9.6-1.7.5-3.9-.6-4.8-2.3-2.8-5.2-5.4-10.6-8-15.9a381.8 381.8 0 0 0-31-51.4c-2.2-3-4.4-6.1-6.3-9.5-.2 1-1 1.5-1.2 2.3-.5.2-.5.5-.4 1v.4c-2.8 4.5-4 9.7-6 14.6-1.5 3.6-2.7 7.4-4 11.1l-5.4 17.3c-1.5 5-3.2 10-4.3 15.2-1 5-2.4 10-3.3 15-.6 3.3-1.2 6.7-1.5 10a143 143 0 0 1-2.4 13.8M167.6 64c-.1.2-.2.3 0 .5-.6 1-.3 2-.3 3a86 86 0 0 0 2.4 23.5c1 4 2.6 7.7 4 11.6.2.8.8 1.7 0 2.3-.7.5-1.4 1.4-2.5 1-2-.8-4.2-1.2-5.7-3.2-.6-.9-1.3-2-2.4-2.4-1-.5-2-1.2-3-.6-1.2.6-.8 1.9-.7 2.9.4 3.6 1.5 7 2.7 10.4 1.7 5 4.5 9.3 7.2 13.7 1.2 2 2.6 4 4 6 .5.7 1.5 1.5 2 .3.6-1.1 1.5-2 1.7-3.3l4.4-22.2c1.3-8.1 3.7-16 4.6-24.2.1-1.2 0-2.3-1.2-3-2.2-1.3-3.2-3.4-4-5.7a26.9 26.9 0 0 0-9.3-11.6c-2-1.4-2-1.3-3.5.6-.3 0-.4.2-.4.5ZM365 85.5c0-.9-.5-1.6-.8-2.3-1-2-3.3-2.2-4.6-.5-.6.8-1 1.6-1.2 2.5l-1.1 4c-.2.5-.4.9-.9.7-.4 0-.4-.4-.5-.8v-1.7c.1-3.3.1-6.5.3-9.7.3-4.7-.3-9.3-.8-14-.3-2.4-.5-5-1.5-7.2-.7-1.7-1.6-1.8-2.8-.6-1.1 1-2.8 2.7-3.2 4.1-.8 2.4-1.4 3.6-2 6-.5 1.8-2.1 5-1.8 5.7 5.3 13 10.5 25.8 15.4 38.8.4 3.3 2.9 5.5 4 8.8 1.6-5.2 1.9-10 2.3-15 .5-4.8.1-9.6 0-14.5 0-1.5-.3-3-.9-4.3Zm-11.6 232c.6-.3.5-1 .4-1.5l.8-6.3c0-.5.2-1 .9-1.1.7-.1.9.5 1.1 1 .2.4.3.8.2 1.2-.6 1.9-.3 3.8-.5 5.7-.1.2-.4.4-.4.6 0 4.7-1.2 9.3-2 14l-1.8 8c3.5-.6 6.7-1.5 9.8-2.6 5-1.7 9.2-4.6 13-8.1 3-2.7 6-5.2 7.4-9 2-3.4 2.7-7.2 3.4-11 1-5 1.7-10 .2-15-1.8-5.9-3.2-11.9-7-17-1.7-2.3-3.1-4.7-5.3-6.2-3.2-2.1-6.6-3.8-9.9-5.7-3.3-2-7-2.4-10.6-3.3a51.5 51.5 0 0 0-14.5-1.5c-6 0-11.9.9-17.7 2.3-8.3 2-15.4 6-21 12.5-2.4 2.2-4.1 5-5.4 8-2.6 5.4-4.1 11.2-4.8 17.3-.5 5.5.4 10.8 1.9 15.9 1.7 5.7 6.2 9.5 10.6 13.1 4.2 3.5 9.4 5.3 14.4 7 2 .8 4 1.7 6.1 1.5-1.1-3-1.2-5.9-1.3-8.9-.2-5.8.7-11.6.5-17.4v-.5c0-.5 0-1.1.6-1.2.5 0 1 .4 1.1.9.4 1 .8 1.8.7 2.9-.2 4 .3 8.2-.4 12.3a8.5 8.5 0 0 0 .1 3.5c.7 2.5 0 5.2.8 7.7.2.5-.4.8-.5 1.3 7.8 2 15.8 1.6 23.7 1.6 1 0 1.3-.5 1.5-1.3a97 97 0 0 0 4-20.7Z" fill="#ab3400"/>
  <path class="cls-5" d="M242.3 156.3c-.3-1.5-.4-3 0-4.6.1-1 .4-2 .7-3 .7-1.8 1.8-3 3.8-3.2 1.3-.1 3.5 1.5 4.2 3.1.6 1.6 1.1 3.3 1 5 0 2.7.3 3 2.6 2 6.7-2.8 13.5-4.1 20.7-3.5 4.6.3 9.2.8 13.9 1.8-1.7-3.6 0-6.5 1.7-9.3 1.3-2 3.9-2 5.6-.4 4 3.6 4 8.1 3 12.9-.2 1-.7 2 .6 2.7 5.3 2.6 8.3 7.5 11.8 12 1.4 1.8 2.4 3.9 3.7 5.8 3.4 7 4 14.5 2.3 22a38.9 38.9 0 0 1-6.6 15 29 29 0 0 1-5.5 5A47.2 47.2 0 0 1 294 226c-2.7 1.2-12.7 3-15.6 3.2-9 .5-18.2.8-26.7-3.2-8.9-4.1-17.3-9.3-21.9-18.6a30.3 30.3 0 0 1-3-17.4c.5-4.2 1.7-8 3.1-12 2-3 3.7-6.4 6.3-9.2 1.9-2.2 4.2-3.9 6.3-5.9.9-.9 1.6-1.3 1-2.3-.4-.4-.6-.8-.7-1.3l-.6-3Zm18 69.8c5.7 1 11.3 1.2 17 .8a103 103 0 0 0 20.1-4.5 29.8 29.8 0 0 0 13.4-12c3-5.2 5.6-10.6 5.6-16.8a33 33 0 0 0-6.8-20.8c-7-9.3-15.3-16-27.2-17.6a45.9 45.9 0 0 0-36 8 39 39 0 0 0-16.7 24.6c-1.8 9.5.5 17.8 7.1 25a48.5 48.5 0 0 0 23.5 13.3Z"/>
  <path class="cls-5" d="M243 160.1c-1.2-1-.7-2.8-1.4-4.1"/>
  <path class="cls-5" d="M243 160.1c-1.2-1-.7-2.8-1.4-4.1"/>
</svg>
