<!-- This Source Code Form is subject to the terms of the Mozilla Public
   - License, v. 2.0. If a copy of the MPL was not distributed with this
   - file, You can obtain one at http://mozilla.org/MPL/2.0/. -->
<svg width="352" height="196" fill="none" xmlns="http://www.w3.org/2000/svg">
  <g clip-path="url(#a)">
    <path d="M0 0h352v196H0V0Z" fill="#fff"/>
    <path d="M0 0h352v196H0V0Z" fill="#E7DFFF"/>
    <g clip-path="url(#b)" fill="#8F8F9D">
      <path d="m65.9 130.3.4-1.7c.1-.8 1.3-.8 1.4 0l.4 1.7c0 .3.3.5.6.6l1.7.4c.8.1.8 1.3 0 1.4l-1.7.4c-.3 0-.5.3-.6.6l-.4 1.7c-.1.8-1.3.8-1.4 0l-.4-1.7c0-.3-.3-.5-.6-.6l-1.7-.4c-.8-.1-.8-1.3 0-1.4l1.7-.4c.3 0 .5-.3.6-.6ZM65.9 154.3l.4-1.7c.1-.8 1.3-.8 1.4 0l.4 1.7c0 .3.3.5.6.6l1.7.4c.8.1.8 1.3 0 1.4l-1.7.4c-.3 0-.5.3-.6.6l-.4 1.7c-.1.8-1.3.8-1.4 0l-.4-1.7c0-.3-.3-.5-.6-.6l-1.7-.4c-.8-.1-.8-1.3 0-1.4l1.7-.4c.3 0 .5-.3.6-.6Z"/>
      <path fill-rule="evenodd" clip-rule="evenodd" d="M83.5 131.7a2.7 2.7 0 0 0-5 0l-2.5 6.4c-.2.4-.5.7-1 .9l-6.3 2.5a2.7 2.7 0 0 0 0 5l6.4 2.5c.4.2.7.5.9 1l2.5 6.3c.9 2.3 4.1 2.3 5 0l2.5-6.4c.2-.4.5-.7 1-.9l6.3-2.5c2.3-.9 2.3-4.1 0-5l-6.4-2.5c-.4-.2-.7-.5-.9-1l-2.5-6.3Zm-4.7 7.5 2.2-5.7 2.2 5.7c.5 1.2 1.4 2 2.6 2.6l5.7 2.2-5.7 2.2a4.6 4.6 0 0 0-2.6 2.6l-2.2 5.7-2.3-5.7c-.4-1.2-1.3-2-2.5-2.6l-5.7-2.2 5.7-2.3a4.6 4.6 0 0 0 2.6-2.5Z"/>
    </g>
    <g clip-path="url(#c)">
      <path d="M298 110.9a3.1 3.1 0 0 1-2.9-2c-.2-.7-.2-1.3 0-2l1.6-6.4-5.2-4.3a3.1 3.1 0 0 1 0-5l1.8-.6 6.7-.4 2.5-6.3c.5-1.2 1.6-2 3-2 1.2 0 2.4.8 2.8 2l2.5 6.3 6.7.4a3.1 3.1 0 0 1 2.8 4c-.1.6-.5 1.2-1 1.6l-5.1 4.3 1.6 6.5a3.1 3.1 0 0 1-1.2 3.3 3.1 3.1 0 0 1-3.5 0l-5.7-3.5-5.7 3.6c-.5.3-1 .5-1.6.5Zm7.4-26.5a.7.7 0 0 0-.7.4l-2.7 7-1 .7-7.5.5a.7.7 0 0 0-.7.5.7.7 0 0 0 .3.8l5.7 4.8.4 1.2-1.8 7.3a.7.7 0 0 0 .2.7c.2.1.5.3.9 0l6.3-4h1.3l6.3 4a.7.7 0 0 0 .8 0 .7.7 0 0 0 .3-.7l-1.9-7.3.4-1.2 5.8-4.8a.7.7 0 0 0 .2-.8.7.7 0 0 0-.6-.5l-7.5-.5-1-.7-2.8-7a.7.7 0 0 0-.7-.4Z" fill="#8F8F9D"/>
    </g>
    <g clip-path="url(#d)">
      <g clip-path="url(#e)" fill="#8F8F9D">
        <path d="M66.6 47.4v-2.1L65 43.7h-2.1v-2.6h2c2.4 0 4.3 1.9 4.3 4.2v2.1h-2.6ZM46.6 53.7v2.1l1.6 1.6h2.1V60h-2a4.2 4.2 0 0 1-4.3-4.2v-2.1h2.6ZM65 57.4h-2.1V60h2c2.4 0 4.3-1.9 4.3-4.2v-2.1h-2.6v2.1L65 57.4Z"/>
        <path fill-rule="evenodd" clip-rule="evenodd" d="M39.8 39c0-2.3 1.9-4.2 4.2-4.2h12.6c2.3 0 4.2 1.9 4.2 4.2v6.3c0 2.3-1.9 4.2-4.2 4.2H44a4.2 4.2 0 0 1-4.2-4.2V39Zm12.6-1.6H44c-.9 0-1.6.7-1.6 1.6v6.3c0 .9.7 1.6 1.6 1.6h8.4v-9.5Zm4.2 1.6c.9 0 1.6.7 1.6 1.6v3.1a1.6 1.6 0 0 1-3.2 0v-3.1c0-.9.7-1.6 1.6-1.6Z"/>
        <path fill-rule="evenodd" clip-rule="evenodd" d="M44 55.8v-4.2h2.6v4.2c0 .9.7 1.6 1.6 1.6H65c.9 0 1.6-.7 1.6-1.6V45.3c0-.9-.7-1.6-1.6-1.6h-2.1v-2.6h2c2.4 0 4.3 1.9 4.3 4.2v10.5c0 2.3-1.9 4.2-4.2 4.2H68a3.1 3.1 0 0 1 0 6.3h-23a3.1 3.1 0 0 1 0-6.3h3.1a4.2 4.2 0 0 1-4.2-4.2Zm9.5 5.8c0-1 .7-1.6 1.5-1.6h3.2a1.6 1.6 0 0 1 0 3.1H55c-.8 0-1.5-.7-1.5-1.5Z"/>
        <path d="M46.1 37.4H44L42.4 39v2.1h-2.6v-2c0-2.4 1.9-4.3 4.2-4.3h2.1v2.6ZM42.4 43.2v2.1L44 47h2.1v2.6h-2a4.2 4.2 0 0 1-4.3-4.2v-2h2.6Z"/>
      </g>
    </g>
    <g clip-path="url(#f)">
      <path fill-rule="evenodd" clip-rule="evenodd" d="M247.1 52.3h2a2.7 2.7 0 0 0 2.6-2l.7-2.3 1.3-.7 2.4.6a2.7 2.7 0 0 0 3-1.3l1-1.8c.5-1 .4-2.3-.4-3.1l-1.7-1.9a5.7 5.7 0 0 0 0-1.4l1.7-1.8c.8-.8 1-2.1.3-3.1l-1-1.8a2.7 2.7 0 0 0-3-1.3l-2.3.6-1.3-.7-.7-2.4c-.3-1.1-1.3-1.9-2.5-1.9h-2a2.7 2.7 0 0 0-2.6 2l-.7 2.3-1.3.7-2.4-.6a2.7 2.7 0 0 0-3 1.3l-1 1.8a2.7 2.7 0 0 0 .4 3.1l1.7 1.8a6 6 0 0 0 0 1.4l-1.7 1.9a2.7 2.7 0 0 0-.3 3.1l1 1.8a2.7 2.7 0 0 0 3 1.3l2.3-.6 1.3.7.7 2.4a2.7 2.7 0 0 0 2.5 1.9Zm-3.6-7-1-.1-2.8.7a.6.6 0 0 1-.6-.3l-1-1.8a.6.6 0 0 1 0-.7l2-2.2.3-.8v-1.9l-.2-.9-2-2a.6.6 0 0 1-.2-.8l1-1.8a.6.6 0 0 1 .7-.3l3 .7.8-.2 1.6-1 .6-.6.8-2.8a.6.6 0 0 1 .6-.4h2a.6.6 0 0 1 .7.4l.8 2.8.6.7c.6.2 1.1.5 1.6 1l.9.1 2.9-.7a.6.6 0 0 1 .6.3l1 1.8a.6.6 0 0 1 0 .7l-2 2.1-.3.9V40l.2.8 2 2.2a.6.6 0 0 1 .2.7l-1 1.8a.6.6 0 0 1-.7.3l-2.9-.7-.9.1c-.6.5-1 .8-1.6 1l-.6.7-.8 2.8a.6.6 0 0 1-.6.4h-2a.6.6 0 0 1-.7-.4l-.8-2.8-.6-.7c-.6-.2-1.1-.6-1.6-1Zm7.5-6.2a2.9 2.9 0 1 0-5.7 0 2.9 2.9 0 0 0 5.7 0Zm-6.3-3.4a5 5 0 1 1 7 7 5 5 0 0 1-7-7Z" fill="#8F8F9D"/>
    </g>
    <g clip-path="url(#g)">
      <path fill-rule="evenodd" clip-rule="evenodd" d="M262.6 160.8a11.5 11.5 0 1 0-23 0 11.5 11.5 0 0 0 23 0ZM245.8 148a13.8 13.8 0 1 1 10.5 25.5 13.8 13.8 0 0 1-10.5-25.5Zm10.2 17a1.2 1.2 0 1 0 1.2-2l-5-2.8v-5.7a1.2 1.2 0 0 0-2-.8c-.2.2-.3.5-.3.8v6.4l.6 1 5.5 3.2Z" fill="#8F8F9D"/>
    </g>
    <g filter="url(#h)">
      <rect x="130" y="52" width="92" height="92" rx="22.4" fill="#fff"/>
      <g clip-path="url(#i)">
        <g clip-path="url(#j)" fill="#5B5B66">
          <path d="M182.1 72h-19V77h18l17.4 17.5L202 91l-18.2-18.2c-.4-.5-1-.8-1.7-.8ZM170.6 98.4l3.5-3.5-3.5-3.4-3.4 3.4 3.4 3.5Z"/>
          <path fill-rule="evenodd" clip-rule="evenodd" d="M157 84.2c0-1.3 1-2.4 2.3-2.4H179c.6 0 1.2.2 1.7.7L197 98.9a6.5 6.5 0 0 1 0 9.2l-13.8 13.8a6.5 6.5 0 0 1-9.2 0l-16.4-16.5c-.4-.4-.7-1-.7-1.7V84.2Zm4.8 2.4v16.1l15.7 15.7c.6.6 1.6.6 2.3 0l13.8-13.8c.6-.6.6-1.6 0-2.3l-15.8-15.7h-16Z"/>
        </g>
      </g>
    </g>
  </g>
  <defs>
    <clipPath id="a">
      <path fill="#fff" d="M0 0h352v196H0z"/>
    </clipPath>
    <clipPath id="b">
      <rect x="63" y="128" width="32" height="32" rx="4" fill="#fff"/>
    </clipPath>
    <clipPath id="c">
      <rect x="290.4" y="81.4" width="30.9" height="30.9" rx="3.9" fill="#fff"/>
    </clipPath>
    <clipPath id="d">
      <rect x="37.7" y="32.7" width="33.6" height="33.6" rx="4.2" fill="#fff"/>
    </clipPath>
    <clipPath id="e">
      <path fill="#fff" transform="translate(37.7 32.7)" d="M0 0h33.6v33.6H0z"/>
    </clipPath>
    <clipPath id="f">
      <rect x="235.1" y="26.1" width="26.3" height="26.3" rx="3.3" fill="#fff"/>
    </clipPath>
    <clipPath id="g">
      <rect x="236.8" y="145.8" width="29.5" height="29.5" rx="3.7" fill="#fff"/>
    </clipPath>
    <clipPath id="i">
      <rect x="150" y="72" width="51.9" height="51.9" rx="6.5" fill="#fff"/>
    </clipPath>
    <clipPath id="j">
      <path fill="#fff" transform="translate(150 72)" d="M0 0h51.9v51.9H0z"/>
    </clipPath>
    <filter id="h" x="106.6" y="35.9" width="138.9" height="138.9" filterUnits="userSpaceOnUse" color-interpolation-filters="sRGB">
      <feFlood flood-opacity="0" result="BackgroundImageFix"/>
      <feColorMatrix in="SourceAlpha" values="0 0 0 0 0 0 0 0 0 0 0 0 0 0 0 0 0 0 127 0" result="hardAlpha"/>
      <feOffset dy="7.3"/>
      <feGaussianBlur stdDeviation="8.8"/>
      <feColorMatrix values="0 0 0 0 0.227451 0 0 0 0 0.223529 0 0 0 0 0.266667 0 0 0 0.2 0"/>
      <feBlend in2="BackgroundImageFix" result="effect1_dropShadow_14063_68005"/>
      <feBlend in="SourceGraphic" in2="effect1_dropShadow_14063_68005" result="shape"/>
    </filter>
  </defs>
</svg>
