<!-- This Source Code Form is subject to the terms of the Mozilla Public
   - License, v. 2.0. If a copy of the MPL was not distributed with this
   - file, You can obtain one at http://mozilla.org/MPL/2.0/. -->
<svg xmlns="http://www.w3.org/2000/svg" width="108" height="103" fill="none"><path fill="#FFFBFF" d="M47.606 24.157s-1.77 2.318-2.163 4.058c-.394 1.739-.984 12.754 7.278 14.493 8.263 1.74 12.59-.966 12.984-2.512.393-1.546 2.36-15.653-4.131-16.426-6.492-.773-6.886-2.706-13.968.387Z"/><path fill="#462700" d="M86.065 49.178c1.007.995 2.229 1.741 3.22 2.756.132.135.303.218.472.303.05.025.08.093.128.112.862.346 1.422 1.069 2.119 1.62.89.705 1.828 1.352 2.7 2.075a50.68 50.68 0 0 1 3.882 3.58c1.458 1.485 2.64 3.16 3.828 4.848 1.305 1.851 2.127 3.897 2.802 6.02.389 1.224.7 2.463.863 3.739.028.214-.084.442.061.645.02.647-.063 1.295 0 1.942-.039.941-.314 1.855-.352 2.798-.004.11-.029.284-.061.39-.389 1.346-.755 2.706-1.42 3.949a33.468 33.468 0 0 1-2.461 3.888 23.504 23.504 0 0 1-2.573 2.966 23.282 23.282 0 0 1-3.518 2.796c-1.619 1.06-3.34 1.917-5.112 2.685-1.338.577-2.72 1.047-4.104 1.505-1.27.421-2.557.794-3.862 1.084-1.54.344-3.082.686-4.658.883-1.385.172-2.77.348-4.163.429-1.074.062-2.156.101-3.236.035-1.28-.079-2.563-.102-3.84-.236-.368-.038-2.972-.3-3.879-.539-1.121-.294-2.25-.558-3.364-.877-.77-.22-1.513-.51-2.246-.812-1.584-.65-3.148-1.341-4.714-2.029-1.464-.644-2.858-1.426-4.21-2.275-1.105-.695-2.374-1.134-3.494-1.797a21.621 21.621 0 0 0-3.645-1.716c-1.46-.521-2.864-1.19-4.351-1.662-.771-.245-1.537-.514-2.312-.738-.932-.268-2.297-.392-3.478-.392-.826 0-2.754-.387-2.128-1.264.202-.417.562-.734.857-1.086 1.513-1.801 2.886-3.718 4.54-5.403.86-.876 1.789-1.681 2.73-2.474.676-.568 2.252-1.915 2.242-1.872-.734.004-1.375.402-2.097.458-.42.033-1.649.388-1.788.226-.14-.162.828-1.347 1.243-1.809.504-.56 1.113-.991 1.731-1.414 1.17-.799 2.327-1.62 3.572-2.308a26.53 26.53 0 0 1 3.467-1.629c.794-.3 1.581-.618 2.4-.844 1.139-.317 2.274-.646 3.444-.85 1.204-.211 2.422-.302 3.63-.466.289-.039.584-.033.877-.031.238.002.319-.033.282-.321-.23-1.81-.575-3.606-.791-5.417-.146-1.221-.31-2.44-.42-3.666-.141-1.567-.212-3.138-.32-4.705a132.717 132.717 0 0 1-.203-3.846c-.04-.995.046-1.996.08-2.993 0-.044.034-.087.052-.13.382-.18.874.049 1.1.049-.014.143-.041 1.635-.089 2.25.392-.554.646-1.185 1.175-1.628.464-.383 1.009-.624 1.554-.864.736-.25 1.509-.205 2.266-.292v.087c-.498.151-1.035.195-1.515.354a6.534 6.534 0 0 0-2.11 1.171.866.866 0 0 0-.313.489c.132.043.208.01.283-.02a5.275 5.275 0 0 1 2.78-.33c.153.023.358 0 .383.191.03.22-.204.172-.366.24a.358.358 0 0 1-.214.027c-1.056-.224-1.999.18-2.959.5a.757.757 0 0 0-.486.493c-.159.522-.236 1.061-.297 1.599-.043.386-.074.788 0 1.207.368-.216.681-.419 1.027-.572.952-.419 1.985-.32 2.979-.477.082-.014.163.025.18.124.016.09-.045.149-.108.2-.273.217-.598.23-.928.244-.943.04-1.845.205-2.654.74-.226.151-.283.273-.248.543.132 1.056.697 1.855 1.381 2.64 1.045 1.198 2.32 1.98 3.882 2.265 1.416.257 2.852.311 4.288.093.222-.035.456-.008.685 0 .169.006.218.114.198.266-.521.174-1.044.339-1.581.348.275.963.434 1.921.568 2.881.065.462-.106.657-.592.752-.702.137-1.414.232-2.113.39-1.103.252-2.229.265-3.346.368-.122.011-.325.058-.313-.12.028-.456-.212-.845-.29-1.274-.233-1.279-.457-2.558-.67-3.84-.069-.422-.086-.879-.497-1.211-.707-.568-1.238-1.297-1.734-2.08-.08.424.042.803.054 1.185.045 1.512.218 3.015.407 4.515.112.892.214 1.785.336 2.676.118.864.26 1.724.39 2.584.13.856.391 1.68.623 2.514.07.25.191.276.411.278 1.175.015 2.353-.089 3.522.056.981.12 1.96.273 2.907.588.642.214 1.312.344 2.017.525l-.358-.446c-.801-.972-1.633-1.91-2.823-2.449-.193-.087-.236-.25-.199-.456l.189-.036c1.373-.217 2.703.08 4.023.374 1.63.362 3.145 1.046 4.638 1.769.203.195.48.264.718.398 1.283.71 2.432 1.6 3.532 2.55 1.223 1.058 2.498 2.059 3.696 3.145.883.802 1.755 1.623 2.752 2.295 1.356 1.1 2.89 1.914 4.444 2.698.262.132 1.576.843 2.01.978 1.173.361 2.371.597 3.603.636 1.646.052 3.708-.257 5.868-1.053.596-.362.281.13.246.204-.437.592-2.46.944-2.601.978-1.898.468-3.753.524-5.665.093-2.4-.48-4.614-1.86-4.736-1.932-.605-.346-1.215-.688-1.811-1.052-1.49-.908-2.81-2.033-4.106-3.182-1.515-1.363-3.085-2.661-4.658-3.956-2.874-2.365-6.162-3.863-9.866-4.454-.352-.056-.71-.192-1.143-.056.439.268.752.589 1.078.892.58.541 1.108 1.127 1.452 1.848.199.415.124.54-.346.605-.126.017-.254.038-.388 0-.564-.157-1.143-.275-1.7-.455a13.709 13.709 0 0 0-3.548-.626c-.98-.048-1.964-.011-2.943-.01-.146 0-.293-.015-.43.07-.263.168-.532.178-.831.068-.16-.058-.358-.04-.535-.025-.893.083-1.787.18-2.68.264-1.654.155-3.257.555-4.853.988-.779.21-1.536.508-2.3.771-1.07.37-2.077.874-3.082 1.382-1.078.545-2.081 1.22-3.073 1.903-.63.435-1.28.845-1.869 1.415.93-.207 1.794-.456 2.697-.543.305-.03.569-.12.846-.192.215-.054.366.112.527.288.191.21.126.37.006.57a1.933 1.933 0 0 1-.594.619c-.374.245-.765.47-1.121.736a58.393 58.393 0 0 0-2.933 2.334c-.96.82-1.889 1.67-2.754 2.588-.775.821-1.487 1.69-2.2 2.564l-1.867 2.298a.34.34 0 0 0 .223.55c.313.043.672.076.87.082.944.03 1.886.11 2.793.361 1.733.482 3.427 1.083 5.099 1.743 1.463.578 2.876 1.264 4.3 1.927 1.712.796 3.392 1.656 5.072 2.514.442.226.9.435 1.3.744.529.41 1.147.653 1.772.878.435.313.93.535 1.419.728 1.312.524 2.589 1.129 3.903 1.647.95.374 1.886.77 2.887 1.02.959.24 1.923.456 2.87.736.984.292 3.87.543 4.264.615 1.221.222 2.455.216 3.678.195 1.907-.033 3.81-.143 5.707-.396a56.56 56.56 0 0 0 4.834-.872c1.343-.3 2.665-.686 3.991-1.067 1.883-.54 3.687-1.27 5.467-2.05a25.883 25.883 0 0 0 4.61-2.59c1.177-.838 2.299-1.764 3.284-2.832a26.652 26.652 0 0 0 3.307-4.422c.693-1.161 1.462-2.28 1.761-3.648.299-1.368.688-2.715.765-4.122.071-1.297.055-2.594-.183-3.87-.313-1.669-.871-3.269-1.485-4.85-.555-1.427-1.351-2.734-2.235-3.984-.795-1.123-1.573-2.267-2.514-3.278a55.368 55.368 0 0 0-3.183-3.128c-1.338-1.225-2.84-2.253-4.202-3.45-.966-.85-2.046-1.56-3.067-2.338-1.973-1.505-3.92-3.042-5.726-4.742-1.4-1.318-2.815-2.624-4.198-3.96-.663-.64-1.33-1.277-1.946-1.967-1.418-1.59-2.974-3.063-4.28-4.752-.07-.089-.51-.327-.707-.713-.196-.387.152-.767.516-1.015.615-.417 1.123-.962 1.713-1.412.885-.677 1.66-1.475 2.465-2.238.854-.808 1.788-1.529 2.617-2.362.202-.202-.032-.844-.067-.952-.476-1.409-.929-2.83-1.54-4.188-.786-1.743-1.57-3.484-2.208-5.393-.267.53-.393.84-.545 1.327-.065.209-.46.356-.62.203-.1-.095-.18-.209-.24-.332-.95-2.008-1.85-4.03-2.33-6.211-.156-.711-.25-1.378.259-1.992.059-.072-.352-.97-.427-1.212-.144-.474-.322-.935-.488-1.403-.456-1.3-1.664-4.514-1.99-4.277-.144.105-.264.536-.457.914-.429.855-.704 1.769-1.078 2.644-.52 1.214-.958 2.456-1.432 3.685-.596 1.542-1.165 3.094-1.767 4.634-.193.491-1.735.201-2.09.228-.323.023-.892-.24-.982-.504-.496-1.457-.935-2.932-1.448-4.383-.634-1.79-1.289-3.57-2.044-5.31-.148-.34-.238-.717-.508-1.086-.035-.049-.11-.037-.134.017-.137.307-.2.44-.297.659-.511 1.158-.848 2.375-1.267 3.563-.409 1.158-.527 2.047-1.117 3.206-.151.296-.45.849-.535 1.085-.17.47-.283.954-.413 1.433-.309 1.129-.614 2.26-.903 3.394-.061.238-.163.5.043.732-.946.311-.987-.044-1.037.018-.377-.286-.434-.71-.533-1.129-.342-1.482-.417-2.99-.43-4.497a9.624 9.624 0 0 1 .196-2.126c.12-.542.354-1.085.764-1.514.094-.101.586-.132.72-.113.283.039 1.058.702 1.414 1.048.069.067.187.056.236-.027.173-.292.195-.663.275-.951.38-1.349.82-2.676 1.38-3.962.289-.666.654-1.3.995-1.946.102-.193.195-.411.46-.45h.152c.214.004.42.097.553.265.377.475.725 1.33.873 1.658.606 1.34 1.19 2.682 1.698 4.062.397 1.078.716 2.184 1.152 3.25.268.655.469 1.334.608 2.026.093.465.171.473.55.521 1.026.128.92-.328 1.097-.81.503-1.364 1.05-2.713 1.542-4.08a85.307 85.307 0 0 1 1.82-4.675c.362-.847.767-1.682 1.149-2.524.14-.311.454-.773 1.085-.56.632.212.992 1.043 1.254 1.708.588 1.497 1.253 2.964 1.77 4.489.02.058.071.106.132.197.31-.545.606-1.069.978-1.546.255-.328.613-.508.966-.663.399-.178 1.1.329 1.154.765.106.85.236 1.7.09 2.555-.038.234.042.265.221.178.645-.315 1.141-.18 1.664.48.386.484.417 1.052.384 1.63-.077 1.378-.472 2.682-.99 3.954-.18.442-.226.937-.529 1.332-.088.115.051.158.073.237.281 1.01.795 1.93 1.218 2.883.975 2.205 1.88 4.433 2.624 6.73.16.49.163.92.034 1.373-.136.476-.376.582-.852 1.137-1.002.715-1.873 1.574-2.754 2.415a41.47 41.47 0 0 1-3.065 2.663c-.152.118-.197.164-.447.367.517.307.73.827 1.082 1.227.6.684 1.25 1.324 1.883 1.975.429.44.838.9 1.259 1.347 1.473 1.563 3.049 3.024 4.605 4.505a137.826 137.826 0 0 0 3.938 3.602c.244.214.506.398.772.578-.044 0-.052.01-.028.025a.306.306 0 0 1 .02-.035l-.018-.008Zm-12.34-29.906c.078-.116.165-.228.234-.35a20.33 20.33 0 0 0 1.396-2.982c.404-1.104.71-2.22.762-3.393.013-.315-.022-.646-.33-.859-.081-.056-.16-.143-.249-.03-.395.508-.847.997-1.032 1.613-.06.195-.107.33-.272.33-.218 0-.54-.019-.574-.266-.05-.361-.407-.729-.044-1.115.055-.058.042-.184.052-.28.055-.458.123-.916.155-1.376.05-.71.108-1.42-.073-2.16-.42.44-.625.96-.887 1.445-.22.406-.37.875-.679 1.204-.409.436-.586.968-.844 1.466-.074.145-.039.345 0 .522.427 1.83 1.067 3.59 1.846 5.303.143.319.236.672.533.926l.006.002Zm-15.229 36.76c.02.229.02.403.051.569.26 1.385.469 2.779.758 4.158.07.339.21.412.527.371.502-.063 1.011-.07 1.51-.148 1.16-.186 2.314-.396 3.47-.605.1-.018.227-.045.159-.222-.32-.831-.43-1.709-.54-2.582-.029-.228-.125-.358-.371-.352-.148.004-.293.006-.441.008-1.163.013-2.307-.07-3.425-.43-.574-.185-1.104-.457-1.696-.768l-.002.002ZM51.54 17.587c.482-1.629.823-2.668 1.33-4.276.08-.257.099-.452-.15-.941-.196-.387-.393-.773-.983-1.16-.128-.083-.352.074-.393.194-.197.58-.175.78-.223 1.194-.12 1.037-.102 2.073-.047 3.111.045.84.213 1.069.466 1.878Z"/><path fill="#C78600" d="M47.546 46.632c.179.445.177.926.285 1.384.299 1.26.633 2.51.993 3.757.439 1.522.813 3.063 1.275 4.58.31 1.024.527 2.07.838 3.092.209.686.378 1.391.48 2.098.089.605.319 1.168.437 1.759.14.7.285 1.397.452 2.09.108.451-.145.64-.63.528-.09-.021-1.947-.073-2.793.031-.855.107-1.733.021-2.598.054a87.84 87.84 0 0 1-4.22.066c-1.029-.01-2.062.016-3.087-.023-1.388-.052-2.766.096-4.147.125-1.052.022-2.108.082-3.157.068-1.591-.02-3.177.066-4.766.048-.628-.005-1.256.055-1.885.078-.165.005-.246.077-.336.216-1.22 1.863-2.56 3.647-3.776 5.515-.708 1.086-1.544 2.091-2.187 3.222-.098.172-.704.999-.944.821-.354-.26-.569-.647-.687-1.034-.56-1.824-1.247-3.608-1.853-5.416-.287-.86-.559-1.728-.873-2.58-.095-.257-.209-.371-.524-.362-1.152.035-2.307-.021-3.462.053a3.2 3.2 0 0 0-.525.067c-.582.14-.954-.147-1.151-.703-.122-.348-.307-.688-.423-1.044-.346-1.06-.657-2.131-.993-3.194-.443-1.397-.972-2.765-1.45-4.15-.437-1.267-.893-2.53-1.275-3.818-.391-1.325-.838-2.636-1.261-3.953-.315-.976-.708-1.925-.997-2.907-.229-.771 1.518-.732 1.896-.734 1.08-.008 2.16-.012 3.24-.008 1.784.006 3.567-.033 5.349-.116 2.146-.1 4.296-.158 6.444-.187 1.055-.014 2.11-.095 3.166-.087.838.005 1.676.046 2.514.044.789-.002 1.58-.046 2.368-.064 2.247-.048 4.491-.089 6.738-.139 2.087-.046 4.178-.054 6.262-.164 1.184-.062 2.37-.039 3.554-.087.984-.04 1.973-.048 2.96-.085.536-.02.672.962.753 1.161l-.004-.002Zm3.348 18.11c-.041-.602-.193-1.127-.335-1.649-.297-1.096-.456-2.22-.777-3.31-.293-.994-.464-2.02-.786-3.007-.203-.619-.424-1.237-.551-1.873-.219-1.082-.579-2.123-.864-3.184-.295-1.102-.631-2.194-.856-3.313a10.314 10.314 0 0 0-.472-1.594c-.057-.154-.145-.133-.26-.133-.692-.004-1.386.025-2.077.05-1.139.04-2.28.043-3.419.089-2.315.096-4.637.073-6.954.166-1.385.054-2.77.072-4.153.122-2.042.073-4.09.08-6.136.046-2.512-.038-5.022.072-7.532.16-1.76.063-3.52.13-5.28.177-2.13.056-4.261.011-6.393-.008-.307-.002-.374.085-.25.378.41.974.674 1.999 1.02 2.994.666 1.913 1.175 3.874 1.877 5.776a157.144 157.144 0 0 1 1.57 4.481c.36 1.073.663 2.163 1.01 3.241.104.327.137.746.399.94.364.27.822.448 1.326.338.157-.035.324-.043.488-.035 1.024.046 2.051.004 3.072-.052.388-.022.579.055.667.423.199.823.514 1.611.785 2.411.338.996.677 1.993 1.02 2.988.312.912.63 1.824.95 2.746.267-.104.306-.352.43-.528 1.11-1.582 2.211-3.169 3.311-4.755.76-1.096 1.515-2.192 2.264-3.293.228-.335.476-.565.917-.354.055.027.128.025.193.025 1.365-.027 2.728-.118 4.098-.102 1.048.011 2.096-.087 3.145-.058 1.15.033 2.298.037 3.447-.035 1.896-.116 3.79-.126 5.689-.093 1.07.02 2.142-.01 3.214-.015.974-.006 1.944-.085 2.92-.08 1.08.006 2.16-.05 3.28-.079l.003-.001Z"/><path fill="#2842C6" d="M51.895 19.593c1.247-.395 2.53-.607 3.828-.767.653-.082 1.955-.076 1.955-.076 2.713-.004 4.523.982 6.144 2.027 1.235.796 2.404 1.654 3.38 2.762.818.931 1.463 1.965 2.047 3.041l.71 1.817c.132.51.254 1.022.317 1.546.168 1.368.233 2.734.077 4.108-.084.75-.631 2.362-.633 2.47v-.016c-.463 1.015-.903 2.04-1.52 2.982-.43.66-.961 1.239-1.425 1.87-.407.366-.809.741-1.224 1.097-.826.705-1.778 1.217-2.748 1.7-.76.261-1.529.485-2.312.669-.757.085-1.53.042-2.266.292-.783.104-1.373.104-2.162.187l-.48.054c-.226 0-.718-.228-1.1-.048-.87-.163-1.742-.319-2.578-.622-1.576-.572-2.979-1.413-4.16-2.596-1.358-1.362-2.372-2.953-3.196-4.669-.295-.612-.437-1.273-.602-1.924-.283-1.123-.56-2.25-.627-3.413-.061-1.07.069-2.124.316-3.165.28-1.171.63-2.314 1.283-3.345a.292.292 0 0 0 .035-.09c.496-1.706 1.686-2.894 3.067-3.928.868-.65 1.777-1.25 2.77-1.71.144-.066.553-.136 1.104-.253Zm18.035 12.86c.035-.875-.08-1.784-.205-2.692-.039-.297-.013-.643-.208-.881-.25-.307-.336-.647-.401-1.013a4.822 4.822 0 0 0-.43-1.27c-1.107-2.237-2.769-3.982-4.917-5.285-1.003-.606-2.064-1.093-3.163-1.513a8.806 8.806 0 0 0-2.906-.583c-1.851-.056-3.637.313-5.422.719-.185.042-.385.096-.495.282-.274.456-.677.732-1.167.962-.83.39-1.497 1.034-2.245 1.554-.474.33-.879.746-1.227 1.192a12.07 12.07 0 0 0-1.81 3.187c-.454 1.208-.69 2.46-.854 3.722-.11.856-.013 1.727.181 2.576.29 1.256.52 2.53 1.043 3.722.35.796.83 1.519 1.31 2.24.692 1.037 1.473 1.996 2.504 2.738.805.577 1.625 1.153 2.58 1.432 1.294.376 2.58.784 3.953.889 2.158.166 4.267.056 6.313-.68a7.673 7.673 0 0 0 1.814-.942c.326-.228.525-.593.901-.79.612-.325 1.072-.839 1.534-1.34.957-1.033 1.543-2.303 2.213-3.505.801-1.436 1.165-3.022 1.102-4.725l.002.004Z"/><path fill="#FE7E19" d="M66.772 41.358c.464-.631.995-1.211 1.426-1.87.616-.941 1.059-1.965 1.52-2.982.019.215.12.21.292.13.344-.165.779-.362 1.153-.486a.118.118 0 0 1 .092.008c.368.203.594.603.661.69 1.306 1.689 2.862 3.16 4.28 4.752.617.69 1.284 1.328 1.946 1.967 1.383 1.336 2.798 2.642 4.198 3.96 1.806 1.7 3.754 3.237 5.727 4.742 1.023.78 2.101 1.488 3.067 2.338 1.361 1.197 2.864 2.225 4.202 3.45a56.67 56.67 0 0 1 3.183 3.128c.942 1.011 1.719 2.155 2.514 3.278.885 1.248 1.68 2.555 2.235 3.985.613 1.58 1.172 3.18 1.485 4.848.24 1.277.254 2.574.183 3.87-.077 1.408-.466 2.755-.765 4.123-.299 1.368-1.069 2.487-1.761 3.648a26.558 26.558 0 0 1-3.307 4.422c-.985 1.068-2.105 1.994-3.285 2.833a25.88 25.88 0 0 1-4.61 2.59c-1.78.78-3.584 1.508-5.466 2.05-1.324.38-2.646.767-3.992 1.066a56.6 56.6 0 0 1-4.833.872c-1.897.253-3.8.363-5.707.396-1.224.021-2.455.027-3.679-.195-.393-.072-.822-.054-1.233-.081a13.796 13.796 0 0 1-3.03-.534c-.948-.282-1.912-.496-2.87-.736-1-.25-1.938-.647-2.888-1.02-1.314-.518-2.589-1.123-3.903-1.647-.487-.195-.983-.415-1.418-.728.065.006.132 0 .193.019.696.228 1.402.383 2.134.477.502.066 1.007.068 1.507.114.826.08 1.664.022 2.603.022l-.813-.462c-1.395-.798-2.862-1.484-4.111-2.507-1.33-1.09-2.648-2.199-3.738-3.532-.692-.849-1.365-1.718-1.89-2.684-.097-.178-.292-.39-.138-.572.138-.163.397-.076.604-.037 1.31.241 2.606.541 3.905.83 1.597.356 3.21.652 4.815.975.303.06.602.13.905.195l.864.184c-3.392-2.066-6.344-4.561-8.876-7.533.037-.056.09-.081.16-.097.833-.183 1.687-.112 2.531-.17 1.021-.071 2.048.075 3.069.164 1.222.107 2.412.333 3.57.725.246.083.49.193.744.238 1.961.336 3.846.956 5.742 1.52 2.324.69 4.556 1.65 6.893 2.31 1.972.556 3.953.991 6.03.916a63.771 63.771 0 0 1 4.509.006c.757.027 1.481-.093 2.205-.263a71.628 71.628 0 0 0 6.087-1.755c1.461-.487 2.819-1.107 3.77-2.356.382-.5.92-.942 1.215-1.44.491-.082.989-.277 1.475-.469.275-.108.653-.508.59-.58-.088-.102-.826.306-1.18.387-1.586.363-3.242.694-4.889.644-1.231-.04-2.43-.273-3.602-.636-.434-.136-1.75-.847-2.01-.978-1.554-.785-3.089-1.598-4.444-2.698.464-.31.698-.794.97-1.248.958-1.596 1.044-3.372.954-5.142-.04-.775-.042-1.56-.132-2.343-.134-1.167-.417-2.288-.751-3.404-.656-2.198-1.706-4.225-2.825-6.217-.227-.404-.425-.833-.78-1.156.152-.02.325.077.46-.077-.02-.18-.176-.26-.286-.37-1.397-1.377-2.9-2.637-4.383-3.92-1.507-1.303-3.093-2.51-4.645-3.757-.415-.334-.806-.696-1.267-.98-.856-.53-1.757-.976-2.66-1.42.15-.141.062-.286.026-.443a24.908 24.908 0 0 1-.537-3.339l.01-.008Z"/><path fill="#FEAD3B" d="M80.07 55.666c.353.322.552.753.778 1.155 1.12 1.995 2.168 4.02 2.825 6.217.333 1.117.616 2.238.752 3.405.09.78.092 1.565.132 2.342.09 1.77.001 3.544-.955 5.142-.271.452-.505.938-.97 1.249-.999-.67-1.868-1.494-2.752-2.296-1.198-1.088-2.47-2.09-3.696-3.144-1.102-.951-2.25-1.84-3.531-2.551-.24-.133-.516-.203-.718-.398.126-.12.004-.203-.051-.29-1.847-2.89-3.508-5.873-4.794-9.05-.132-.324-.345-.54-.722-.554.02-.151-.03-.26-.2-.267-.227-.008-.461-.035-.684 0-1.436.218-2.87.164-4.288-.093-1.562-.284-2.837-1.065-3.881-2.265-.683-.784-1.25-1.584-1.381-2.64-.034-.27.021-.392.247-.542.807-.534 1.712-.698 2.654-.74.33-.014.657-.028.929-.244.063-.05.126-.108.108-.201-.018-.099-.099-.135-.181-.124-.994.157-2.026.058-2.979.478-.346.152-.659.355-1.026.572-.075-.42-.044-.822 0-1.208.06-.54.137-1.08.299-1.606.076-.253.226-.4.484-.487.954-.32 1.89-.72 2.94-.504.075.015.168 0 .24-.03.16-.061.384-.019.355-.235-.026-.191-.23-.168-.384-.191a5.275 5.275 0 0 0-2.78.33c-.074.029-.151.062-.283.02a.856.856 0 0 1 .313-.49c.63-.52 1.348-.92 2.11-1.17.48-.16 1.016-.202 1.516-.354.064-.008.131-.008.192-.023a8.615 8.615 0 0 1 3.59-.093c2.721.489 5.052 1.77 7.202 3.416.488.373.929.806 1.397 1.204 1.68 1.428 3.376 2.837 5.02 4.306.726.647 1.401 1.35 2.174 1.946l-.002.008Z"/><path fill="#FEF9DF" d="M30.77 85.917c-.112.022-.224.033-.344-.065.736-.907 1.471-1.815 2.209-2.72.71-.873 1.424-1.742 2.2-2.564a34.898 34.898 0 0 1 2.753-2.587 58.439 58.439 0 0 1 2.934-2.335c.373-.28.784-.514 1.176-.773.234-.154.411-.361.55-.6.113-.192.166-.35-.017-.551-.161-.176-1.07-.126-1.373-.097-.903.087-1.767.336-2.697.543.586-.568 1.24-.98 1.869-1.415.991-.684 1.992-1.356 3.072-1.903 1.006-.508 2.013-1.013 3.083-1.382.765-.263 1.52-.56 2.3-.77 1.593-.432 3.199-.834 4.853-.988.893-.083 1.786-.182 2.68-.265.176-.015 1.65-.112 1.795-.112.982 0 1.966-.039 2.943.01 1.206.058 2.394.253 3.55.626.556.18 1.134.297 1.699.454.134.037.261.017.387 0 .473-.064.545-.19.347-.605-.345-.72-.872-1.306-1.452-1.847-.327-.306-.642-.625-1.078-.893.434-.136.792 0 1.143.056 3.706.591 6.991 2.089 9.865 4.454 1.574 1.295 3.144 2.594 4.659 3.956-.264.137-.423-.091-.61-.184-.96-.479-1.865-1.068-2.943-1.302-2.316-.505-4.658-.64-7.021-.543-.148.006-.291.02-.437.139 1.356 1.184 2.69 2.386 4.064 3.538 1.391 1.166 2.58 2.505 3.734 3.904-.132.048-.203.004-.28-.023a40.309 40.309 0 0 0-5.289-1.436 56.089 56.089 0 0 0-6.789-.936c-.867-.065-1.737-.032-2.599-.115a8.56 8.56 0 0 0-2.1.08c-1.258.194-2.505.468-3.742.758-1 .234-2.032.35-2.982.77-.91.401-1.814.811-2.723 1.217-.248.058-.437.226-.726.237-.533.024-1.062.142-1.587.261a35.78 35.78 0 0 0-4.59 1.345c-1.723.646-3.323 1.573-4.812 2.665-.22.163-.43.358-.755.431a3.81 3.81 0 0 1 .505-1.412c.244-.412.5-.816.762-1.243-.21-.058-.35.044-.49.104-1.824.796-3.634 1.625-5.331 2.665-.79.483-1.633.88-2.367 1.451l.002.002Z"/><path fill="#FEAD3B" d="M50.158 79.41c.907-.406 1.812-.818 2.723-1.218 6.53-2.25 12.234-1.863 18.214-.56a40.3 40.3 0 0 1 5.29 1.435c.077.027.148.072.28.024-1.153-1.4-2.343-2.739-3.734-3.904-1.375-1.152-2.707-2.354-4.064-3.538.145-.118.289-.132.436-.14 2.363-.096 4.706.04 7.021.543 1.078.236 1.981.824 2.943 1.303.187.093.346.32.61.184 1.296 1.15 2.616 2.272 4.106 3.182.596.364 1.204.706 1.811 1.052.124.07 2.888 1.553 4.696 1.84 1.912.432 3.864.432 5.762-.035.142-.035.29-.05.435-.076-.3.565-.832.94-1.214 1.44-.952 1.25-2.31 1.869-3.771 2.356-2.005.666-4.027 1.27-6.087 1.754-7.912 1.515-10.86-.127-12.743-.657-2.337-.659-4.57-1.62-6.893-2.31-1.897-.561-8.835-2.374-10.057-2.48-1.023-.09-2.048-.236-3.069-.165-.842.06-1.697-.011-2.531.17-.07.016-.122.039-.16.097-.173-.098-.014-.199-.004-.3v.002Z"/><path fill="#FEB45C" d="M50.16 79.412c-.01.1-.169.201.004.3 2.534 2.974 5.487 5.466 8.876 7.532l-.863-.183c-.301-.064-4.122-.814-5.719-1.17-1.3-.287-2.595-.589-3.905-.83-.206-.039-.466-.126-.604.036-.153.182.04.395.138.572.525.967 1.196 1.834 1.89 2.684 1.09 1.334 2.408 2.443 3.738 3.533 1.25 1.024 2.717 1.71 4.112 2.507l.812.461c-.938 0-1.778.058-2.603-.02-.5-.05-1.005-.051-1.507-.115a11.427 11.427 0 0 1-2.134-.477c-.059-.02-.128-.014-.193-.02-.625-.224-1.243-.467-1.772-.877-.4-.307-.858-.518-1.3-.744-1.68-.858-3.36-1.718-5.072-2.514-1.424-.661-2.837-1.349-4.3-1.927-1.672-.66-3.366-1.262-5.1-1.743-.906-.251-1.849-.33-2.793-.361-.368-.012-.735-.037-1.092-.145.732-.572 1.578-.968 2.367-1.451 1.698-1.038 5.61-2.828 5.821-2.77-.262.428-1.182 2.107-1.267 2.656.325-.076.535-.269.755-.431 1.488-1.092 3.087-2.02 4.812-2.665a35.174 35.174 0 0 1 4.59-1.345c.525-.12 2.065-.44 2.313-.499l-.004.006Z"/><path fill="#FEAD3B" d="M69.255 26.578c-.584-1.078-1.23-2.112-2.048-3.041-.973-1.107-2.144-1.963-3.38-2.762-1.62-1.045-3.824-1.837-6.143-2.027a12.263 12.263 0 0 0-1.955.076c-1.299.16-2.581.373-3.828.767-.207-.232-.105-.495-.044-.733.29-1.134.594-2.265.903-3.393.13-.48.244-.964.413-1.434.535-1.664 1.112-3.212 1.519-4.37.419-1.188 1.532-4.274 1.749-4.262.216.011.645.798.808 1.17.758 1.742 1.192 3.541 1.828 5.33.513 1.452.954 2.926 1.448 4.383.265.53 2.823.723 3.072.277.34-1.486 1.171-3.094 1.767-4.634.474-1.23.913-2.472 1.432-3.685.374-.876 1.173-2.754 1.16-2.835l.005-.008c.128-.037.177-.03.216.137.195.814.2 1.648.27 2.472.098 1.21.196 2.42.305 3.627.12 1.355.08 2.719.196 4.077.077.91-.02 1.825.089 2.74.104.89.073 1.794.09 2.689.032 1.733.19 3.463.128 5.198-.002.081.002.16.004.241h-.004Z"/><path fill="#FE7F19" d="M69.251 26.58c0-.08-.007-.16-.003-.241.06-1.736-.095-3.465-.128-5.199-.016-.894.015-1.8-.09-2.688-.109-.916-.01-1.83-.09-2.74-.115-1.357-.076-2.72-.196-4.077-.106-1.21-.205-2.418-.305-3.628-.067-.823-.075-1.658-.27-2.471-.039-.166-.088-.174-.216-.137.004-.033.006-.064.012-.097.051-.251.187-.576.36-.62.236-.06.427.357.523.535.66 1.213 1.011 2.44 1.468 3.741.163.468.344.93.488 1.403.072.242.486 1.14.427 1.212-.512.612-.417 1.279-.26 1.992.482 2.197 1.393 4.232 2.35 6.254.056.117.455.37.644.088.285-.43.472-.79.742-1.327.637 1.907 1.42 3.65 2.207 5.393.614 1.359 1.064 2.78 1.54 4.188.038.108.073.214.051.33-.49 0-.985.056-1.465-.01-1.094-.146-2.198-.175-3.295-.252-.927-.064-1.861-.012-2.792-.018a2.573 2.573 0 0 0-.995.188c-.236-.605-.472-1.212-.71-1.817l.003-.002Z"/><path fill="#FEF9DF" d="M66.365 56.895c.378.014.59.23.723.555 1.286 3.175 2.946 6.16 4.794 9.05.055.086.177.168.05.29-1.492-.724-3.007-1.408-4.638-1.769-1.32-.294-2.65-.591-4.023-.375-.063.01-.126.023-.189.037-.035.203.006.367.199.456 1.192.54 2.022 1.476 2.823 2.448.11.134.216.269.358.447-.706-.18-1.375-.311-2.017-.526-.948-.315-1.925-.468-2.907-.587-1.169-.143-2.347-.04-3.521-.056-.22-.004-.343-.031-.412-.279-.232-.832-.493-1.656-.623-2.514-.13-.862-.27-1.722-.39-2.583-.125-.914-.228-1.832-.346-2.748-.19-1.502-.303-3.01-.403-4.519-.024-.357-.126-.715-.05-1.109.496.783 1.026 1.511 1.734 2.08.411.33.427.786.498 1.211.21 1.281.434 2.56.668 3.84.08.43.32.816.291 1.273-.011.18.193.132.313.12 1.118-.104 2.243-.116 3.347-.367.696-.158 1.41-.253 2.112-.39.486-.095.657-.29.593-.752-.134-.96-.294-1.919-.57-2.881.538-.01 1.061-.176 1.583-.348l.004-.004Z"/><path fill="#FEB45C" d="M69.959 28.398c.318-.13.649-.19.995-.187.93.006 1.865-.048 2.792.017 1.097.077 2.2.104 3.295.253.48.064.977.01 1.465.01H78.5c0 .054.026.089.08.1.139.192.147.317-.056.522-.83.835-1.763 1.554-2.616 2.362-.805.761-1.58 1.561-2.465 2.237-.588.45-1.098.996-1.714 1.413-.364.248-.313.675-.515 1.015-.384.12-.84.328-1.2.5-.171.081-.272.085-.291-.13v.016s.546-1.72.631-2.47c.156-1.373.09-2.742-.077-4.108a12.176 12.176 0 0 0-.316-1.546l-.002-.004Z"/><path fill="#FEF9DF" d="M73.724 19.27c-.297-.252-.39-.607-.533-.926-.777-1.712-1.416-3.473-1.845-5.303-.041-.177-.077-.377 0-.521.258-.5 1.025-2.26 1.245-2.665.59-1.16.984-1.933 1.377-1.74.394.194.02 2.205 0 2.9-.008.285-.354 1.959-.305 2.32.305.578 1.287-1.233 1.682-1.741.394-.386.51-.25.59-.193.31.212.408 1.037.394 1.352-.051 1.173-.567 2.082-.972 3.185a20.528 20.528 0 0 1-1.397 2.982c-.068.122-.155.234-.234.35h-.002Z"/><path fill="#3355FE" d="M58.494 56.027c.592.31 1.12.584 1.696.77 1.117.359 2.262.442 3.425.428.147 0 .293-.003.44-.007.246-.006.343.123.372.351.112.874.22 1.751.54 2.582.068.178-.06.205-.16.222-1.155.21-2.31.42-3.468.605-.498.08-1.01.083-1.511.15-.315.04-.457-.034-.527-.372-.29-1.38-.498-2.773-.758-4.159-.031-.168-.031-.342-.05-.568l.001-.002Z"/><path fill="#492901" d="M80.068 55.668c-.773-.595-1.45-1.299-2.174-1.946-1.644-1.469-3.34-2.878-5.02-4.306-.468-.398-.909-.83-1.397-1.203-2.148-1.647-4.481-2.928-7.202-3.417a8.615 8.615 0 0 0-3.59.093c-.063.015-.13.015-.193.023v-.087a23.906 23.906 0 0 0 2.312-.669c.484.05.968.091 1.45.155 1.05.139 2.037.506 3.035.833.903.444 1.802.889 2.66 1.42.46.284.85.648 1.267.98 1.552 1.246 3.137 2.454 4.644 3.757 1.483 1.283 2.986 2.543 4.383 3.92.11.109.266.19.287.37-.136.156-.309.058-.46.077h-.002Z"/><path fill="#FDF8DE" d="M51.583 17.866c-.038.123-.213.137-.264.019-.55-1.247-.476-4.18-.368-5.13.048-.414.197-1.353.59-1.547.557-.272 1.458 1.482 1.378 1.74-.394 1.739-.868 3.352-1.336 4.918Z"/><path fill="#FCF7DE" d="m55.585 45.355.48-.054c.33.114.672.22.605.678-.529.443-.782 1.075-1.174 1.627.047-.616.073-2.106.089-2.25v-.001Z"/><path fill="#3556FB" d="M56.672 45.979c.067-.458-.275-.562-.606-.678.79-.083 1.38-.083 2.162-.188-.544.242-1.09.483-1.554.864l-.002.002Z"/><path fill="#FE7F19" d="M78.583 28.59c-.053-.013-.077-.046-.08-.098.058.01.082.045.08.099Z"/><path fill="#F6F0E9" d="M50.894 64.741c-1.121.03-2.203.085-3.281.08-.976-.006-1.946.073-2.92.079-1.072.006-2.144.035-3.214.015-1.898-.035-3.795-.025-5.69.093-1.146.07-2.295.066-3.446.035-1.046-.03-2.097.07-3.145.058-1.367-.016-2.73.077-4.098.102-.065 0-.138 0-.193-.025-.439-.21-.688.02-.916.354a895.457 895.457 0 0 1-5.575 8.049c-.125.175-.162.423-.431.527-.32-.924-.638-1.834-.95-2.746-.343-.995-.681-1.99-1.02-2.988-.271-.8-.586-1.588-.785-2.411-.088-.367-.279-.445-.666-.423-1.023.055-2.048.098-3.073.052-.162-.008-.33 0-.488.034-.504.11-.962-.067-1.326-.338-.262-.195-.293-.612-.4-.939-.346-1.076-.65-2.168-1.008-3.24-.504-1.5-1.021-2.998-1.57-4.482-.703-1.902-1.212-3.863-1.877-5.776-.346-.995-.61-2.018-1.021-2.993-.124-.294-.057-.383.25-.38 2.13.02 4.263.064 6.393.008 1.76-.046 3.52-.113 5.28-.175 2.51-.09 5.02-.2 7.533-.16 2.046.03 4.093.024 6.135-.047 1.383-.05 2.77-.066 4.153-.122 2.318-.09 4.639-.07 6.954-.166 1.14-.047 2.28-.048 3.42-.089.69-.025 1.384-.054 2.077-.05.114 0 .202-.021.26.133.192.522.361 1.047.471 1.594.225 1.12.56 2.211.856 3.313.285 1.063.645 2.104.864 3.184.128.636.35 1.255.55 1.873.323.987.495 2.014.788 3.007.32 1.09.48 2.214.777 3.31.141.522.293 1.047.334 1.649l-.002.001Z"/><path fill="#D2F3F2" d="M69.93 32.456c.061 1.702-.302 3.289-1.101 4.725-.669 1.202-1.257 2.471-2.213 3.505-.463.5-2.11 1.9-2.436 2.13-.56.392-1.166.709-1.813.94-2.048.737-4.155.847-6.313.681-1.373-.104-2.66-.512-3.954-.889-.952-.278-1.775-.854-2.58-1.432-1.03-.742-1.811-1.698-2.504-2.738-.481-.72-.962-1.444-1.31-2.24-.523-1.194-1.444-3.316-1.223-6.298.163-1.262.399-2.514.853-3.721a12.018 12.018 0 0 1 1.81-3.187c1.838-2.286 3.215-3.06 5.135-3.993 1.784-.405 3.57-.774 5.421-.718a8.806 8.806 0 0 1 2.906.583c1.1.42 2.162.905 3.163 1.513 2.15 1.303 3.81 3.048 4.918 5.285.754 1.228 1 2.866 1.039 3.162.122.906.24 1.817.205 2.692h-.003Zm-22.532 1.747c-.118.27-.092.566-.132.848-.175 1.262-.075 2.507.465 3.674.377.815.773 1.65 1.705 2.067-.059-.148-.15-.257-.177-.403-.023-.132-.134-.252-.218-.367-.945-1.31-1.478-2.739-1.324-4.37.03.039.07.072.086.114.608 1.558 1.578 2.862 2.827 3.987.671.605 1.46.815 2.331.823.317.002.61-.137.868-.305.482-.317.523-.736.122-1.127a1.937 1.937 0 0 1-.382-.498c-.293-.559-.677-1.06-1.013-1.59a8.559 8.559 0 0 1-.623-1.209c-.197-.485-.266-1.372-.416-2.054-.222-1.014-.322-2.03-.098-3.059.03-.135.069-.288-.079-.396.758-.49 1.627-.646 2.497-.752 1.68-.203 3.277.16 4.831.77 1.135.446 2.005 1.166 2.624 2.21.4.67.648 1.39.882 2.122.36 1.12.281 2.253.075 3.37-.25 1.353-.876 2.528-1.942 3.47-1.141 1.01-2.46 1.605-3.962 1.833-.146.021-.287.017-.327.212.219.08.425.107.638.095 1.519-.085 2.783-.754 3.905-1.7 1.192-1.007 1.908-2.312 2.173-3.823.205-1.163.286-2.344-.007-3.513-.173-.688-.476-1.328-.76-1.975.097-.016.193-.025.288-.048 1.25-.294 2.5-.596 3.804-.541.397.017.799-.012 1.202.029.32.03.602-.21.604-.526 0-.729-.02-1.432-.181-2.13-.268-1.155-.893-2.158-1.4-3.208-.343-.705-.967-1.2-1.545-1.718-.315-.282-.596-.59-.923-.865-.604-.507-1.331-.81-1.98-1.235-1.407-.92-2.971-1.276-4.623-1.355-.752-.037-1.494.052-2.237.18-2.034.352-3.797 1.225-5.322 2.582-.731.649-1.308 1.434-1.96 2.15-.739.808-1.195 1.78-1.498 2.833-.246.855-.354 1.722-.444 2.594-.08.75.003 1.503.169 2.243.023.11.01.203.18.22.406.041.807.119 1.2-.055.03.13-.047.284.097.386v.01Zm4.538-3.9c-.358.302-.391.549-.084.899.384.44.9.674 1.452.844.06.02.13.025.192.018.758-.099 1.77-1.127 1.867-1.865.026-.188-.06-.228-.204-.24-.339-.029-3.02.174-3.223.344Z"/><path fill="#FEB45C" d="M67.286 45.14c-.997-.327-1.985-.693-3.035-.834-.482-.063-.966-.104-1.45-.154.97-.483 1.922-.995 2.748-1.7.417-.356.816-.731 1.224-1.096.1 1.124.287 2.237.537 3.339.035.156.124.301-.026.442l.002.002Z"/><path fill="#D2E0B2" d="M47.303 33.813c-.394.174-.795.099-1.2.056-.17-.017-.156-.11-.181-.22-.165-.74-.248-1.494-.17-2.243.091-.872.2-1.74.445-2.594.303-1.053.76-2.023 1.497-2.833.653-.717 1.232-1.501 1.962-2.15 1.526-1.357 3.287-2.23 5.321-2.582.744-.128 1.485-.217 2.237-.18 1.652.08 3.216.435 4.623 1.355.649.425 1.377.726 1.98 1.234.325.273.608.584.923.866.579.518 1.202 1.01 1.544 1.718.508 1.051 1.134 2.052 1.401 3.208.162.7.183 1.403.181 2.131a.537.537 0 0 1-.602.524c-.405-.04-.806-.011-1.206-.029-1.304-.056-2.553.248-3.804.541-.095.022-.193.033-.287.049-.42-.586-.756-1.235-1.35-1.686-.155-.115-.376-.224-.423-.378-.041-.138.14-.313.254-.458a.217.217 0 0 0 .043-.134c0-.879.043-1.764-.549-2.523-.163-.21-.3-.441-.612-.398a.844.844 0 0 0-.702.523c-.317.717-.397 1.434-.008 2.19-.893-.267-1.707-.6-2.59-.669-.888-.07-1.775-.182-2.66.023-.632.145-1.242.609-1.242.03 0-.11.441-.754.463-.803.236-.514.543-.985.93-1.407.175-.19.207-.415.142-.674-.33-1.3-1.82-1.876-3.102-1.107-1.578.947-2.55 2.36-3.057 4.093-.44 1.495-.349 3.012-.201 4.531v-.004Z"/><path fill="#2E7295" d="M51.343 30.334c-2.18 1.13-3.444 2.864-3.621 5.313-.156 1.63.38 3.059 1.324 4.37.033.045.092.152.157.275.08.157-.11.313-.252.205-.598-.454-.913-1.123-1.216-1.778-.539-1.167-.64-2.411-.464-3.673.04-.282.012-.578.132-.849.041-.274.209-.5.299-.757.226-.64.598-1.175 1.072-1.68.498-.53.966-1.082 1.593-1.468.239-.145.31-.265.213-.564-.207-.642-.189-1.303.179-1.9a.706.706 0 0 1 1.088-.16c.23.2.439.429.5.746 0 .015.184.57-.012.956 0 0 .554-.108 1.044-.222.886-.205 1.773-.093 2.66-.023.881.07 1.696.402 2.59.668-.389-.755-.31-1.472.009-2.19a.843.843 0 0 1 .702-.523c.31-.042.506.149.669.358 1.04 1.698.393 2.898.195 3.155.047.155.27.261.422.38.597.45.931 1.099 1.35 1.684.283.648.588 1.287.76 1.975.293 1.17.212 2.35.007 3.513-.265 1.514-.98 2.816-2.174 3.823-1.12.947-2.386 1.615-3.904 1.7a1.582 1.582 0 0 1-.638-.094c-.153-.29.18-.192.327-.213 1.503-.228 2.823-.823 3.962-1.832 1.066-.943 1.691-2.118 1.941-3.47.207-1.117.286-2.25-.074-3.37-.236-.733-.484-1.452-.882-2.123-.62-1.043-1.489-1.766-2.624-2.21-1.554-.61-3.151-.972-4.831-.77-.87.105-1.741.262-2.497.752l-.006-.004Z"/><path fill="#2E7295" d="M55.161 29.956c.146 0 .23.052.205.24-.097.74-1.11 1.766-1.867 1.864a.501.501 0 0 1-.193-.017c-.55-.17-1.066-.406-1.452-.845-.307-.351-.275-.597.085-.898.202-.17 1.107-.321 1.373-.348.502-.05 1.18 0 1.85.004Z"/><path fill="#307496" d="M50.331 35.168c.248.373.582 1.106 2.388.968 1.956 0 2.55.381 5.066-1.13a.621.621 0 0 0 .093-.068c1.534-1.323 1.53-1.895 1.923-1.702.394.193-.59 1.353-1.377 1.932-.786.58-2.956 2-5.217 1.436a1.254 1.254 0 0 0-.549-.013 2.967 2.967 0 0 1-1.906-.265c-.696-.342-.844-.75-.85-1.028-.004-.234.297-.327.427-.132l.002.002Z"/><path fill="#E6CBA1" d="M45.83 59.035c.125.06.249.118.38.182-.025.348-.289.3-.505.3-.917.003-1.835 0-2.754 0-.673 0-1.344 0-2.017.003-4.6.031-9.202.076-13.805.087-2.16.006-4.32-.08-6.478-.07-1.238.006-2.481.059-3.712.19-1.59.17-3.168-.033-4.75-.015l-.294.003v-.29c.273-.032.544-.083.818-.092.376-.016.751 0 1.13 0 1.046-.002 2.094.015 3.14-.018 1.27-.038 2.538-.14 3.807-.174 1.16-.03 2.323-.005 3.484-.015.17 0 .339-.056.508-.087h.59c.021.023.041.066.063.068.779.04 1.558.09 2.339.106.448.008.897-.07 1.345-.064 1.283.014 2.566.056 3.848.074 1.112.013 2.223.02 3.335.005 1.418-.019 2.837-.06 4.255-.098.086-.002.171-.058.258-.091h5.016v-.004ZM19.508 62.323c.2-.421.47-.389.726-.389 2.048 0 4.097.008 6.145-.005 3.482-.02 6.964-.062 10.448-.078 3.45-.015 6.903-.01 10.354-.011.094 0 .189.02.293.03.04.32-.15.441-.398.44-.669-.006-1.337-.045-2.006-.064-.41-.012-.819-.022-1.228-.014-1.16.023-2.32.074-3.48.083-1.654.014-3.31 0-4.965 0-5.046 0-10.09.006-15.136.008h-.753Z"/><path fill="#FEB94B" d="M16.102 52.956c.377-.437.867-.503 1.308-.644.488-.156.513-.145.505-.653-.006-.319-.059-.636-.072-.955-.008-.197.017-.394.03-.622.489.08.721.425 1.034.634a2.3 2.3 0 0 1 .562.537c.345.474.791.617 1.36.541.289-.038.59-.02.883 0 .332.023.433.21.207.43-.46.442-.463.904-.207 1.443.18.377.303.777.44 1.17.052.144.07.298.113.494-.518-.028-.836-.294-1.165-.55-.216-.17-.438-.334-.667-.488-.222-.15-.442-.13-.605.087-.203.268-.39.549-.573.833-.102.16-.181.336-.273.51-.292-.027-.46-.116-.5-.394-.05-.366-.11-.729-.189-1.088-.136-.617-.157-.866-.956-.92a4.301 4.301 0 0 1-.773-.108c-.157-.041-.295-.159-.462-.255v-.002ZM44.355 55.026c-.338.114-.494-.1-.675-.213-.44-.274-.861-.58-1.3-.86-.417-.264-.752-.189-1.055.223-.106.143-.196.295-.297.44-.1.143-.204.284-.304.425-.282-.007-.39-.11-.413-.378-.034-.396-.132-.787-.203-1.18-.063-.347-.276-.583-.602-.704-.411-.153-.834-.277-1.247-.426-.138-.05-.262-.14-.392-.212 0-.04.004-.081.004-.122.323-.122.653-.226.968-.37.307-.138.594-.314.873-.465l-.163-1.77c.165.093.28.133.364.207.394.338.775.69 1.167 1.03.458.398.96.645 1.609.525.246-.046.52.006.769.06.118.026.212.159.352.27-.16.119-.262.192-.362.27-.395.307-.476.618-.248 1.057.343.655.7 1.302 1.049 1.955.035.068.059.143.102.246l.004-.008ZM8.58 52.3c.48-.067.957-.158 1.438-.197.323-.025.46-.174.52-.465.077-.377.167-.75.275-1.117.032-.107.15-.267.22-.263a.498.498 0 0 1 .35.195c.196.313.386.638.514.98.228.6.683.796 1.283.837.387.027.775.104 1.156.183.329.068.388.253.178.516-.13.162-.27.317-.42.462-.233.23-.29.493-.17.792.12.298.251.592.356.895.053.155.05.327.074.489-.373.114-.539-.133-.736-.28-.273-.205-.515-.447-.783-.657-.342-.269-.483-.273-.806.023-.264.24-.49.518-.738.773-.161.166-.275.45-.578.36-.281-.086-.307-.352-.315-.598a13.94 13.94 0 0 1-.01-.76c.002-.175.038-.351.036-.527-.006-.475-.114-.61-.56-.79-.347-.14-.69-.294-1.026-.46-.118-.058-.208-.172-.31-.261.017-.044.035-.087.05-.131l.002.002ZM36.783 54.987c-.112-.046-.232-.081-.336-.141-.392-.23-.783-.462-1.165-.71-.257-.167-.491-.156-.706.05-.291.281-.57.573-.852.86-.098.101-.188.208-.28.312-.351-.13-.328-.412-.369-.651-.045-.267-.08-.537-.108-.808-.047-.452-.299-.711-.734-.858-.415-.14-.812-.33-1.213-.508-.097-.043-.176-.128-.262-.191.086-.29.287-.33.531-.364.366-.05.73-.14 1.088-.24.238-.065.32-.25.291-.488-.061-.474-.118-.95-.179-1.442.29-.12.46.035.637.21.402.397.797.8 1.232 1.16.16.132.415.193.631.203.388.02.781-.02 1.17-.046.205-.014.39-.004.544.206-.187.267-.368.543-.567.804-.242.317-.263.644-.08.988.224.423.458.844.684 1.267.051.095.085.2.126.3l-.079.087h-.004ZM25.762 49.865c.366-.008.497.22.631.404.258.352.496.717.718 1.09.162.27.35.437.697.437.423 0 .843.06 1.267.083.247.013.446.081.52.352-.249.33-.491.662-.749.983-.147.186-.173.352-.069.574.215.464.396.941.63 1.511-.226-.071-.397-.094-.533-.174a12.524 12.524 0 0 1-1.02-.663c-.345-.253-.65-.255-1.022-.027-.368.228-.64.538-.937.833-.09.091-.238.126-.36.186-.053-.124-.145-.248-.149-.375-.014-.53-.022-1.063.008-1.59.02-.377-.116-.615-.478-.735-.278-.093-.551-.195-.828-.286-.203-.067-.404-.13-.506-.369.27-.353.675-.34 1.05-.4.207-.033.421-.05.62-.114.506-.164.553-.282.504-.833-.026-.29.002-.583.008-.889l-.002.002Z"/></svg>