<!-- This Source Code Form is subject to the terms of the Mozilla Public
   - License, v. 2.0. If a copy of the MPL was not distributed with this
   - file, You can obtain one at http://mozilla.org/MPL/2.0/. -->
<svg xmlns="http://www.w3.org/2000/svg" width="16" height="16" fill="context-fill" fill-opacity="context-fill-opacity"><g clip-path="url(#a)"><path d="M8 1.5c3.584 0 6.5 2.916 6.5 6.5s-2.916 6.5-6.5 6.5A6.508 6.508 0 0 1 1.5 8c0-3.584 2.916-6.5 6.5-6.5zM8 0a8 8 0 1 0 0 16A8 8 0 0 0 8 0z"/><path d="m4.783 10.036.137.092c.605.41.908.616 1 .715.321.352-.188 1.242-.543 1.989.78.426 1.674.668 2.623.668.95 0 1.843-.242 2.624-.667-.354-.747-.864-1.638-.542-1.99.09-.098.393-.303 1-.714l.136-.092c.66-.447 1.34-.951 1.34-1.316 0-.63-2.03-5.237-2.475-5.682-.446-.445-1.614 3.042-1.848 3.343h-.47c-.234-.301-1.402-3.788-1.847-3.343-.445.445-2.474 5.052-2.474 5.682 0 .364.68.869 1.34 1.315z"/></g><defs><clipPath id="a"><path fill="#fff" d="M0 0h16v16H0z"/></clipPath></defs></svg>
