<!-- This Source Code Form is subject to the terms of the Mozilla Public
   - License, v. 2.0. If a copy of the MPL was not distributed with this
   - file, You can obtain one at http://mozilla.org/MPL/2.0/. -->
<svg xmlns="http://www.w3.org/2000/svg" width="16" height="16" fill="context-fill" fill-opacity="context-fill-opacity"><path fill-rule="evenodd" d="M14.667 8A6.675 6.675 0 0 0 8 1.333 6.675 6.675 0 0 0 1.333 8 6.675 6.675 0 0 0 8 14.667 6.675 6.675 0 0 0 14.667 8ZM2.343 2.343a8 8 0 1 1 11.314 11.314A8 8 0 0 1 2.343 2.343ZM8 3.2a2.667 2.667 0 1 0 0 5.333A2.667 2.667 0 0 0 8 3.2Zm0 9.867c2.04 0 3.81-1.107 4.788-2.74a2.126 2.126 0 0 0-1.593-.727h-6.39c-.635 0-1.2.285-1.593.726.979 1.633 2.749 2.74 4.788 2.74Z" clip-rule="evenodd"/></svg>
