<!-- This Source Code Form is subject to the terms of the Mozilla Public
   - License, v. 2.0. If a copy of the MPL was not distributed with this
   - file, You can obtain one at http://mozilla.org/MPL/2.0/. -->
<svg xmlns="http://www.w3.org/2000/svg" width="16" height="16" fill="context-fill" fill-opacity="context-fill-opacity"><g clip-path="url(#a)"><path d="m4.783 10.036.137.092c.605.411.908.616.999.715.322.352-.187 1.242-.542 1.989.78.426 1.674.668 2.623.668.949 0 1.843-.242 2.624-.667-.354-.747-.864-1.638-.542-1.989.09-.099.393-.304.999-.715l.137-.092c.659-.447 1.339-.951 1.339-1.316 0-.629-2.029-5.237-2.474-5.682-.446-.445-1.614 3.042-1.848 3.343h-.47c-.234-.301-1.402-3.788-1.847-3.343-.445.445-2.474 5.052-2.474 5.682 0 .364.68.869 1.339 1.315z"/><path d="M11.125 13.75c0-.019.005-.038.006-.057A6.461 6.461 0 0 1 8 14.5 6.508 6.508 0 0 1 1.5 8c0-3.584 2.916-6.5 6.5-6.5s6.5 2.916 6.5 6.5a6.47 6.47 0 0 1-.223 1.662 4.193 4.193 0 0 1 1.098-.162c.162 0 .315.03.472.048A8 8 0 1 0 8 16a7.96 7.96 0 0 0 3.406-.769 4.214 4.214 0 0 1-.281-1.481z"/></g><defs><clipPath id="a"><path fill="#fff" d="M0 0h16v16H0z"/></clipPath></defs></svg>
