<!-- This Source Code Form is subject to the terms of the Mozilla Public
   - License, v. 2.0. If a copy of the MPL was not distributed with this
   - file, You can obtain one at http://mozilla.org/MPL/2.0/. -->
<svg xmlns="http://www.w3.org/2000/svg" width="16" height="16" stroke="context-stroke" fill="context-fill" fill-opacity="context-fill-opacity"><path fill-rule="evenodd" d="M8 0a8 8 0 1 0 3.917 14.975 4.33 4.33 0 0 1-.256-1.406 6.658 6.658 0 0 1-.729.417 72.506 72.506 0 0 0-.153-.506c-.25-.816-.496-1.625-.393-1.728.163-.163.517-.399.918-.667.829-.552 1.863-1.242 1.863-1.718 0-.708-2.281-5.886-2.781-6.386-.275-.275-1.116 1.526-1.68 2.734-.249.532-.444.95-.513 1.023H7.69c-.078-.1-.248-.514-.462-1.035-.507-1.237-1.262-3.074-1.614-2.722-.5.5-2.78 5.678-2.78 6.386 0 .476 1.033 1.166 1.862 1.718.402.268.755.504.918.667.103.103-.144.912-.393 1.728l-.153.506A6.675 6.675 0 0 1 1.333 8 6.675 6.675 0 0 1 8 1.333a6.675 6.675 0 0 1 6.514 8.088c.439-.16.91-.25 1.401-.26a8.004 8.004 0 0 0-2.258-6.818A8 8 0 0 0 8 0Z" clip-rule="evenodd"/></svg>
