<!-- This Source Code Form is subject to the terms of the Mozilla Public
   - License, v. 2.0. If a copy of the MPL was not distributed with this
   - file, You can obtain one at http://mozilla.org/MPL/2.0/. -->
<svg xmlns="http://www.w3.org/2000/svg" width="16" height="16" fill="context-fill" fill-opacity="context-fill-opacity"><path d="m4.783 10.036.137.092c.605.411.908.616.999.715.322.352-.187 1.242-.542 1.989.78.426 1.674.668 2.623.668.949 0 1.843-.242 2.624-.667-.354-.747-.864-1.638-.542-1.989.09-.099.393-.304.999-.715l.137-.092c.659-.447 1.339-.951 1.339-1.316 0-.629-2.03-5.237-2.474-5.682-.446-.445-1.614 3.042-1.848 3.343h-.47c-.234-.301-1.402-3.788-1.847-3.343-.445.445-2.474 5.052-2.474 5.682 0 .364.68.869 1.339 1.315z"/><path d="M10.835 13.84A6.455 6.455 0 0 1 8 14.5 6.508 6.508 0 0 1 1.5 8c0-3.584 2.916-6.5 6.5-6.5s6.5 2.916 6.5 6.5c0 .273-.022.541-.055.806.183-.024.365-.056.555-.056.328 0 .644.046.951.116A8 8 0 1 0 8 16c1.218 0 2.367-.28 3.4-.767a4.226 4.226 0 0 1-.565-1.393z"/></svg>
