<!-- This Source Code Form is subject to the terms of the Mozilla Public
   - License, v. 2.0. If a copy of the MPL was not distributed with this
   - file, You can obtain one at http://mozilla.org/MPL/2.0/. -->
<svg xmlns="http://www.w3.org/2000/svg" width="16" height="16" stroke="context-stroke" fill="context-fill" fill-opacity="context-fill-opacity"><path fill-rule="evenodd" d="M8 1.333a6.675 6.675 0 0 1 6.514 8.088c.439-.16.91-.25 1.401-.26a8.004 8.004 0 0 0-2.258-6.818 8 8 0 1 0-1.74 12.632 4.33 4.33 0 0 1-.256-1.406A6.628 6.628 0 0 1 8 14.667 6.675 6.675 0 0 1 1.333 8 6.675 6.675 0 0 1 8 1.333ZM6.114 3.981a2.667 2.667 0 1 1 3.772 3.771 2.667 2.667 0 0 1-3.772-3.77Zm6.674 6.345c-.979 1.633-2.748 2.74-4.788 2.74s-3.81-1.107-4.788-2.74A2.128 2.128 0 0 1 4.805 9.6h6.39a2.126 2.126 0 0 1 1.593.726Z" clip-rule="evenodd"/></svg>
