<!-- This Source Code Form is subject to the terms of the Mozilla Public
   - License, v. 2.0. If a copy of the MPL was not distributed with this
   - file, You can obtain one at http://mozilla.org/MPL/2.0/. -->
<svg xmlns="http://www.w3.org/2000/svg" width="16" height="16" fill="context-fill" fill-opacity="context-fill-opacity"><g clip-path="url(#a)"><path d="M8 4a2.38 2.38 0 0 0-2.293 3.008 2.35 2.35 0 0 0 1.661 1.661A2.376 2.376 0 1 0 8 4z"/><path d="M11.125 13.75c0-.019.005-.038.006-.057A6.461 6.461 0 0 1 8 14.5 6.508 6.508 0 0 1 1.5 8c0-3.584 2.916-6.5 6.5-6.5s6.5 2.916 6.5 6.5a6.47 6.47 0 0 1-.223 1.662 4.193 4.193 0 0 1 1.098-.162c.162 0 .315.03.472.048A8 8 0 1 0 8 16a7.96 7.96 0 0 0 3.406-.769 4.214 4.214 0 0 1-.281-1.481z"/><path d="M12.469 10.665A1.975 1.975 0 0 0 11 10H5a2 2 0 0 0-1.667.897A5.498 5.498 0 0 0 8 13.5a5.447 5.447 0 0 0 3.393-1.188 4.246 4.246 0 0 1 1.076-1.647z"/></g><defs><clipPath id="a"><path fill="#fff" d="M0 0h16v16H0z"/></clipPath></defs></svg>
