<!-- This Source Code Form is subject to the terms of the Mozilla Public
   - License, v. 2.0. If a copy of the MPL was not distributed with this
   - file, You can obtain one at http://mozilla.org/MPL/2.0/. -->
<svg xmlns="http://www.w3.org/2000/svg" width="16" height="16" fill="context-fill" fill-opacity="context-fill-opacity"><path d="M8 4a2.38 2.38 0 0 0-2.293 3.008 2.35 2.35 0 0 0 1.66 1.661A2.376 2.376 0 1 0 8 4z"/><path d="M10.835 13.84A6.455 6.455 0 0 1 8 14.5 6.508 6.508 0 0 1 1.5 8c0-3.584 2.916-6.5 6.5-6.5s6.5 2.916 6.5 6.5c0 .273-.022.541-.055.806.183-.024.365-.056.555-.056.328 0 .644.046.951.116A8 8 0 1 0 8 16c1.218 0 2.367-.28 3.4-.767a4.226 4.226 0 0 1-.565-1.393z"/><path d="M11.832 10.195A1.972 1.972 0 0 0 11 10H5a2 2 0 0 0-1.667.897A5.498 5.498 0 0 0 8 13.5a5.443 5.443 0 0 0 2.776-.762 4.21 4.21 0 0 1 1.056-2.543z"/></svg>
