<!-- This Source Code Form is subject to the terms of the Mozilla Public
   - License, v. 2.0. If a copy of the MPL was not distributed with this
   - file, You can obtain one at http://mozilla.org/MPL/2.0/. -->
   <svg width="20" height="20" fill="context-fill" fill-opacity="context-fill-opacity" xmlns="http://www.w3.org/2000/svg"><g clip-path="url(#a)"><path fill-rule="evenodd" clip-rule="evenodd" d="M12.968 1.216a2.41 2.41 0 0 1 3.41 0l2.406 2.406a2.41 2.41 0 0 1 0 3.41l-2.44 2.438 1.067 1.066-1.238 1.238-1.065-1.066-8.546 8.546a.875.875 0 0 1-.619.256H1.365a.875.875 0 0 1-.875-.875v-4.578c0-.232.092-.455.256-.619l8.546-8.546-1.066-1.065 1.238-1.238 1.066 1.066 2.438-2.439zM2.24 14.42l8.29-8.29 3.34 3.341-8.29 8.29H2.24v-3.34z"/></g><defs><clipPath id="a"><path fill="#fff" d="M0 0h20v20H0z"/></clipPath></defs></svg>