<!-- This Source Code Form is subject to the terms of the Mozilla Public
   - License, v. 2.0. If a copy of the MPL was not distributed with this
   - file, You can obtain one at http://mozilla.org/MPL/2.0/. -->
<svg width="20" height="20" xmlns="http://www.w3.org/2000/svg"><g clip-path="url(#a)" fill="context-fill" fill-opacity="context-fill-opacity"><path fill-rule="evenodd" clip-rule="evenodd" d="M5 2.125h9.656c1.388 0 2.614.885 3.054 2.201l2.145 6.436a2.751 2.751 0 0 1-.382 2.504 2.75 2.75 0 0 1-2.254 1.153H13.23v2.243a2.843 2.843 0 0 1-2.842 2.838 1.774 1.774 0 0 1-1.687-1.216l-.994-2.982a1.809 1.809 0 0 0-.197-.408l-1.845-2.813H5v.044a1 1 0 0 1-1 1H1a1 1 0 0 1-1-1v-10.5a1 1 0 0 1 1-1h3a1 1 0 0 1 1 1v.5zm0 1.75h9.656c.633 0 1.193.403 1.394 1.005l2.145 6.435c.105.318.055.656-.141.928a1.02 1.02 0 0 1-.835.427H11.48v3.992c0 .6-.488 1.088-1.089 1.088l-1.025-3.005a3.55 3.55 0 0 0-.393-.81L6.61 10.331H5V3.875z"/></g><defs><clipPath id="a"><path fill="#fff" d="M0 0h20v20H0z"/></clipPath></defs></svg>