<!-- This Source Code Form is subject to the terms of the Mozilla Public
   - License, v. 2.0. If a copy of the MPL was not distributed with this
   - file, You can obtain one at http://mozilla.org/MPL/2.0/. -->
<svg width="20" height="20" xmlns="http://www.w3.org/2000/svg" fill="context-fill" fill-opacity="context-fill-opacity"><g clip-path="url(#a)"><path fill-rule="evenodd" clip-rule="evenodd" d="M5 18h9.656a3.217 3.217 0 0 0 3.054-2.201l2.145-6.436a2.751 2.751 0 0 0-.382-2.504 2.75 2.75 0 0 0-2.254-1.153H13.23V3.463A2.843 2.843 0 0 0 10.388.625c-.768 0-1.446.489-1.687 1.216l-.994 2.982a1.809 1.809 0 0 1-.197.408L5.665 8.044H5V8a1 1 0 0 0-1-1H1a1 1 0 0 0-1 1v10.5a1 1 0 0 0 1 1h3a1 1 0 0 0 1-1V18zm0-1.75h9.656c.633 0 1.193-.403 1.394-1.005l2.145-6.435a1.022 1.022 0 0 0-.141-.928 1.02 1.02 0 0 0-.835-.427H11.48V3.463c0-.6-.488-1.088-1.089-1.088L9.366 5.38a3.55 3.55 0 0 1-.393.81L6.61 9.794H5v6.456z"/></g><defs><clipPath id="a"><path fill="#fff" d="M0 0h20v20H0z"/></clipPath></defs></svg>