<svg width="34" height="28" viewBox="0 0 34 28" fill="none" xmlns="http://www.w3.org/2000/svg">
<path fill-rule="evenodd" clip-rule="evenodd" d="M22.4768 5.75003L29.919 13.5529L22.4768 21.3557V5.75003ZM33.4391 12.1725C34.1761 12.9452 34.1761 14.1605 33.4391 14.9332L22.424 26.4821C21.1784 27.788 18.9768 26.9064 18.9768 25.1017V2.00403C18.9768 0.199318 21.1784 -0.682292 22.424 0.62365L33.4391 12.1725ZM11.5151 21.363L4.07288 13.5601L11.5151 5.75729L11.5151 21.363ZM0.552737 14.9405C-0.184246 14.1678 -0.184246 12.9524 0.552738 12.1798L11.5678 0.630909C12.8134 -0.675034 15.0151 0.206573 15.0151 2.01128L15.0151 25.109C15.0151 26.9137 12.8134 27.7953 11.5678 26.4893L0.552737 14.9405Z" fill="url(#paint0_linear)"/>
<defs>
<linearGradient id="paint0_linear" x1="3.03499" y1="1.93664" x2="23.7482" y2="31.079" gradientUnits="userSpaceOnUse">
<stop stop-color="#236EFF"/>
<stop offset="1" stop-color="#71E5FF"/>
</linearGradient>
</defs>
</svg>
