<!-- This Source Code Form is subject to the terms of the Mozilla Public
   - License, v. 2.0. If a copy of the MPL was not distributed with this
   - file, You can obtain one at https://mozilla.org/MPL/2.0/. -->
<svg xmlns="http://www.w3.org/2000/svg" width="400" height="550" fill="none"><g clip-path="url(#a)"><path fill="#fff" d="M0 0h400v550H0z"/><path fill="#fff" d="M0 0h400v550H0V0Z"/><path fill="url(#b)" fill-opacity=".25" d="M0 0h400v550H0V0Z"/><g filter="url(#c)"><path stroke="#fff" stroke-linecap="round" d="M27.282 268.006c-1.262-21.243 11.994-27.357 20.128-24.83 4.008 1.245 4.577 5.327 2.44 7.08-2.137 1.753-5.47.7-7.148-2.192-6.16-10.619-1.473-27.192 24.546-25.039m0 0-6.15-5.332m6.15 5.332-6.387 5.602"/></g><g filter="url(#d)"><g clip-path="url(#e)"><path fill="#F9F9FB" fill-opacity=".72" d="M80 115.308A7.308 7.308 0 0 1 87.308 108H400v442H80V115.308Z" shape-rendering="crispEdges"/><g clip-path="url(#f)"><path fill="#5B5B66" d="M104.094 128H93.747l3.935-3.936a.572.572 0 0 0-.808-.808l-4.998 5v.63l4.998 4.999a.562.562 0 0 0 .623.125.571.571 0 0 0 .185-.933l-3.935-3.935h10.347a.573.573 0 0 0 .404-.975.572.572 0 0 0-.404-.167ZM125.333 128h10.348l-3.936-3.936a.574.574 0 0 1 .011-.798.573.573 0 0 1 .798-.01l4.998 5v.63l-4.999 4.999a.566.566 0 0 1-.808 0 .574.574 0 0 1 0-.808l3.936-3.935h-10.348a.57.57 0 0 1 0-1.142ZM166.517 126.173h3.647l.274-.274v-3.648a.45.45 0 0 0-.281-.422.454.454 0 0 0-.499.099l-1.333 1.333a6.346 6.346 0 0 0-4.281-1.656 6.404 6.404 0 0 0-6.395 6.395 6.404 6.404 0 0 0 6.395 6.395 6.37 6.37 0 0 0 6.365-5.776.574.574 0 0 0-.513-.623.583.583 0 0 0-.623.514 5.232 5.232 0 0 1-5.229 4.743 5.258 5.258 0 0 1-5.253-5.253 5.258 5.258 0 0 1 5.253-5.253 5.217 5.217 0 0 1 3.476 1.32l-1.326 1.326a.458.458 0 0 0 .323.78Z"/><rect width="29.233" height="29.233" x="182.314" y="113.384" fill="#CFCFD8" rx="5.481"/><g fill="#5B5B66" clip-path="url(#g)"><path fill-rule="evenodd" d="M202.412 122.519c1.008 0 1.827.818 1.827 1.827v7.308a1.828 1.828 0 0 1-1.827 1.827h-10.963a1.828 1.828 0 0 1-1.827-1.827v-7.308c0-1.009.819-1.827 1.827-1.827h10.963Zm.456 1.827a.457.457 0 0 0-.456-.457h-10.963c-.456 0-.456 0-.456.457v7.308c0 .252.204.457.456.457h10.963a.457.457 0 0 0 .456-.457v-7.308Z" clip-rule="evenodd"/><path d="M195.103 123.433v9.135h-4.568v-9.135z"/></g><path fill="#E0E0E6" d="M288.283 116.654a3.654 3.654 0 0 1 3.654-3.654h108.346v30H291.937a3.654 3.654 0 0 1-3.654-3.654v-22.692Z"/><path fill="#5B5B66" d="M304.726 135.308c-.278 0-.551-.067-.797-.196-1.61-.84-3.089-2.2-4.164-3.83-.515-.78-.879-1.73-1.08-2.823l-.558-3.038a1.827 1.827 0 0 1 .927-1.936l4.817-2.576a1.802 1.802 0 0 1 1.706-.003l4.817 2.623a1.83 1.83 0 0 1 .93 1.943l-.557 2.996c-.201 1.085-.563 2.031-1.077 2.81-1.075 1.631-2.556 2.993-4.168 3.835a1.725 1.725 0 0 1-.796.195Zm-.312-13.396-4.838 2.588-.331.694.563 3.058c.173.942.479 1.75.909 2.401.971 1.472 2.3 2.696 3.741 3.447l.535.001.001-.001c1.444-.752 2.774-1.978 3.744-3.451.429-.651.735-1.455.907-2.39l.561-3.015-.335-.7-4.834-2.632h-.623ZM333.959 127.087v-2.741a3.658 3.658 0 0 0-3.655-3.654 3.658 3.658 0 0 0-3.654 3.654v2.741c-.484 0-.949.193-1.292.535a1.831 1.831 0 0 0-.535 1.292v4.568c0 .484.193.949.535 1.292.343.342.808.535 1.292.535h7.309a1.827 1.827 0 0 0 1.827-1.827v-4.568a1.828 1.828 0 0 0-1.827-1.827Zm-6.167-2.741a2.515 2.515 0 0 1 2.512-2.512 2.515 2.515 0 0 1 2.513 2.512v2.741h-5.025v-2.741Zm6.852 9.273-.548.548h-7.583l-.548-.548v-4.842l.548-.548h7.583l.548.548v4.842Z"/></g><g filter="url(#h)"><rect width="190.012" height="27.406" x="87.308" y="149.827" fill="#fff" rx="7.308" shape-rendering="crispEdges"/><path fill="#2B3B47" fill-rule="evenodd" d="M97.813 160.257c-.302.162-.58.371-.836.581-.837-1.859-2.323-2.695-2.672-2.835-.023-.023-.023-.046 0-.046 1.301 0 2.579.674 3.299 1.882.093.116.162.255.209.418Zm9.059.581a6.09 6.09 0 0 1 2.672-2.858v-.023H109.195c-1.184.093-2.206.767-2.857 1.882a2.78 2.78 0 0 0-.181.335l-.051.106.093.062c.243.161.467.31.673.496Zm-9.292 2.88c.395 0 .697.302.697.697v1.58a.684.684 0 0 1-.697.697.684.684 0 0 1-.697-.697v-1.58c0-.395.326-.697.697-.697Zm4.344 5.529c-.766 0-1.254-.302-1.254-.302s.069 1.138 1.254 1.138 1.255-1.138 1.255-1.138-.488.302-1.255.302Zm5.065-4.832a.685.685 0 0 0-.697-.697.685.685 0 0 0-.697.697v1.58c0 .395.302.697.697.697a.685.685 0 0 0 .697-.697v-1.58Z" clip-rule="evenodd"/><path fill="#fff" d="m96.977 160.838-1.04.468a1.14 1.14 0 0 0 1.762.414l-.722-.882Zm.836-.581.54 1.004a1.14 1.14 0 0 0 .556-1.317l-1.096.313Zm-3.508-2.254-.806.807c.109.109.24.195.383.252l.423-1.059Zm3.299 1.836-.98.584c.027.044.057.087.09.128l.89-.712Zm11.94-1.859.536 1.006a1.14 1.14 0 0 0 .604-1.006h-1.14Zm-2.672 2.858-.762.847c.27.244.641.344.997.268.357-.075.656-.315.805-.647l-1.04-.468Zm2.672-2.881h1.14c0-.63-.51-1.14-1.14-1.14v1.14Zm-.349 0v-1.14l-.089.003.089 1.137Zm-2.857 1.882.949.632a.698.698 0 0 0 .036-.058l-.985-.574Zm-.181.335-1.028-.494 1.028.494Zm-.051.106-1.02-.51a1.14 1.14 0 0 0 .389 1.46l.631-.95Zm.093.062.684-.913-.053-.037-.631.95Zm0 0-.684.912.053.038.631-.95Zm-5.529 8.603.6-.97a1.142 1.142 0 0 0-1.739 1.04l1.139-.07Zm2.509 0 1.138.07a1.142 1.142 0 0 0-1.739-1.04l.601.97Zm-5.48-7.225c.234-.192.448-.348.654-.459l-1.08-2.008a6.434 6.434 0 0 0-1.019.702l1.445 1.765Zm-3.817-2.658c-.003-.001.021.009.072.036.049.026.113.062.19.11.153.097.348.237.56.423.421.372.893.919 1.233 1.675l2.08-.936c-.984-2.186-2.731-3.203-3.288-3.425l-.847 2.117Zm.423-2.245a1.156 1.156 0 0 0-1.158 1.155c0 .452.253.739.352.838l1.613-1.613c.076.076.316.34.316.775a1.126 1.126 0 0 1-1.123 1.125v-2.28Zm4.278 2.438a4.985 4.985 0 0 0-4.278-2.438v2.28c.912 0 1.811.474 2.32 1.326l1.958-1.168Zm.326.689a2.322 2.322 0 0 0-.415-.818l-1.78 1.425a.076.076 0 0 1-.008-.011c0 .002.005.011.01.03l2.193-.626Zm10.098-2.97a7.237 7.237 0 0 0-3.175 3.396l2.08.936a4.957 4.957 0 0 1 2.168-2.32l-1.073-2.012Zm-.604.983v.023h2.281v-.023h-2.281Zm1.071 1.14h.07v-2.28h-.07v2.28Zm-.093 0h.093v-2.28h-.093v2.28Zm-.139 0h.139v-2.28h-.139v2.28Zm-.047 0h.047v-2.28h-.047v2.28Zm-1.872 1.316c.482-.825 1.186-1.258 1.962-1.319l-.179-2.274c-1.594.125-2.933 1.039-3.753 2.444l1.97 1.149Zm-.138.255c.06-.125.084-.17.102-.197l-1.898-1.265c-.122.183-.212.376-.26.474l2.056.988Zm-.059.122.059-.122-2.056-.988-.043.09 2.04 1.02Zm-.296-1.398-.093-.062-1.262 1.9.093.062 1.262-1.9Zm.053.037-1.369 1.825h.001l1.368-1.825Zm.752.561c-.279-.251-.575-.445-.806-.598l-1.261 1.9c.255.169.408.273.542.393l1.525-1.695Zm-8.218 4.425a1.825 1.825 0 0 0-1.837-1.837v2.281a.447.447 0 0 1-.31-.134.447.447 0 0 1-.133-.31h2.28Zm0 1.58v-1.58h-2.28v1.58h2.28Zm-1.837 1.837a1.824 1.824 0 0 0 1.838-1.837h-2.281c0-.101.041-.218.133-.31a.447.447 0 0 1 .31-.134v2.281Zm-1.837-1.837c0 1.025.812 1.837 1.837 1.837v-2.281c.101 0 .218.042.31.134a.447.447 0 0 1 .134.31h-2.281Zm0-1.58v1.58h2.28v-1.58h-2.28Zm1.837-1.837a1.84 1.84 0 0 0-1.837 1.837h2.28c0 .26-.21.444-.443.444v-2.281Zm3.09 6.367-.6.97.001.001h.001l.003.002.007.004a.099.099 0 0 0 .015.009l.041.023a3.246 3.246 0 0 0 .498.22c.314.108.755.213 1.288.213v-2.28c-.233 0-.42-.046-.541-.088a.986.986 0 0 1-.129-.053l.007.004.004.002.002.002.002.001-.599.97Zm1.254-.002c-.105 0-.121-.023-.097-.008.017.011.02.02.011.006a.39.39 0 0 1-.032-.094l-.001-.006.001.008.001.011v.007l.001.004v.003l-1.138.071-1.139.071v.001a.03.03 0 0 0 0 .003l.001.005.001.012a1.335 1.335 0 0 0 .012.11 2.575 2.575 0 0 0 .322.941c.342.588 1.007 1.136 2.057 1.136v-2.281Zm1.255.002-1.139-.071v-.001l.001-.002v-.011l.001-.011.001-.008-.001.006-.003.015a.298.298 0 0 1-.029.079c-.009.014-.006.005.012-.006.023-.015.007.008-.098.008v2.281c1.05 0 1.715-.548 2.057-1.136a2.543 2.543 0 0 0 .332-1.021l.002-.03.001-.012v-.005l.001-.003v-.001l-1.138-.071Zm-1.255 1.442c.533 0 .974-.105 1.288-.213a3.348 3.348 0 0 0 .555-.252l.006-.004.003-.002h.001l.001-.001-.599-.97-.6-.97h.001l.001-.001.002-.002.005-.002.007-.004a.046.046 0 0 1 .006-.004 1.662 1.662 0 0 1-.677.145v2.28Zm4.368-5.528a.447.447 0 0 1-.31-.134.447.447 0 0 1-.134-.31h2.281a1.824 1.824 0 0 0-1.837-1.837v2.281Zm.443-.444a.446.446 0 0 1-.133.31.447.447 0 0 1-.31.134v-2.281a1.824 1.824 0 0 0-1.837 1.837h2.28Zm0 1.58v-1.58h-2.28v1.58h2.28Zm-.443-.444c.101 0 .218.042.31.134a.446.446 0 0 1 .133.31h-2.28c0 1.025.812 1.837 1.837 1.837v-2.281Zm-.444.444c0-.101.042-.218.134-.31a.447.447 0 0 1 .31-.134v2.281a1.824 1.824 0 0 0 1.837-1.837h-2.281Zm0-1.58v1.58h2.281v-1.58h-2.281Z"/><path fill="#FFD8CA" d="M100.624 170.339c-3.462-.232-5.274-1.463-6.993-4.553a.45.45 0 0 1-.07-.232h1.975v-.883c0-1.138.906-2.044 2.044-2.044 1.139 0 2.045.906 2.045 2.044V168.457c0 .767.395 1.464.999 1.882Zm7.689-4.785v-.906a2.032 2.032 0 0 0-2.045-2.044c-1.115 0-2.021.882-2.044 1.974v3.879a2.27 2.27 0 0 1-.999 1.882c3.462-.232 5.274-1.44 6.993-4.53a.323.323 0 0 0 .046-.255h-1.951Z"/><path fill="#FF6F1F" d="M103.434 170.177c.024 0 .024-.024.047-.024l.139-.139.047-.047c.046-.046.093-.116.139-.162l.023-.023c.047-.07.093-.14.14-.233a.714.714 0 0 0 .093-.232c0-.023.023-.046.023-.07a.431.431 0 0 0 .046-.162c0-.023.024-.047.024-.093.023-.07.023-.116.023-.186 0-.023 0-.046.023-.07 0-.093.023-.186.023-.255v-3.926c.023-1.092.929-1.975 2.044-1.975 1.139 0 2.045.906 2.045 2.045v.906h1.974a.474.474 0 0 0-.069-.256 26.754 26.754 0 0 0-1.464-2.416c.372-.279.674-.65.929-1.068a3.813 3.813 0 0 0 .023-3.764.245.245 0 0 0-.209-.116c-1.277 0-2.416.697-3.112 1.905-.093.139-.163.302-.233.441-1.161-.673-2.509-1.068-4.228-1.068-1.719 0-3.066.418-4.204 1.115a2.666 2.666 0 0 0-.233-.442c-.696-1.208-1.835-1.904-3.112-1.904a.243.243 0 0 0-.21.116 3.813 3.813 0 0 0 .024 3.763c.255.418.557.767.93 1.069-.535.696-1.023 1.51-1.488 2.392a.471.471 0 0 0-.07.256h1.975v-.883c0-1.138.906-2.044 2.044-2.044 1.139 0 2.045.906 2.045 2.044v3.787c0 .092 0 .185.023.255 0 .023 0 .047.023.07 0 .069.023.116.023.186 0 .023.024.046.024.093.023.069.046.116.046.162 0 .023.023.047.023.07.023.07.07.139.093.232.047.07.093.163.14.232l.023.024c.046.069.093.116.139.162l.047.047.139.139c.023 0 .023.023.046.023.07.047.14.116.21.163.371.255.813.395 1.3.395.488 0 .93-.14 1.301-.395.07-.023.14-.07.209-.139Z"/><path fill="#2B3B47" d="M101.204 166.785h1.208c.14 0 .233-.023.233-.023a.519.519 0 0 1 .557.487.49.49 0 0 1-.139.395l-.442.488s-.092.093-.232.163a.723.723 0 0 1-.232.093c-.047.023-.093.023-.14.023h-.278c-.047 0-.093-.023-.14-.023a.179.179 0 0 1-.116-.047c-.046 0-.069-.023-.116-.046-.139-.07-.232-.14-.232-.14l-.418-.418a.546.546 0 0 1 0-.766c.185-.14.348-.209.487-.186ZM100.67 168.945s.488.302 1.254.302c.767 0 1.255-.302 1.255-.302s-.07 1.139-1.255 1.139c-1.185 0-1.254-1.139-1.254-1.139ZM97.58 163.719c.395 0 .697.302.697.697v1.579a.684.684 0 0 1-.697.697.684.684 0 0 1-.697-.697v-1.579c0-.395.326-.697.697-.697ZM106.292 163.719c.395 0 .697.302.697.697v1.579a.685.685 0 0 1-.697.697.685.685 0 0 1-.697-.697v-1.579c0-.395.302-.697.697-.697ZM106.872 160.838a6.09 6.09 0 0 1 2.672-2.858v-.023H109.195c-1.184.093-2.206.767-2.857 1.882-.093.139-.162.302-.232.441.279.186.534.348.766.558ZM96.977 160.838c.255-.21.534-.419.836-.581a1.175 1.175 0 0 0-.21-.418 3.845 3.845 0 0 0-3.298-1.882c-.023 0-.023.023 0 .046.349.14 1.835.976 2.672 2.835Z"/><rect width="141" height="4" x="120.195" y="161.53" fill="#CFCFD8" rx="2"/></g><g filter="url(#i)"><path fill="#fff" d="M87.308 191.849a7.308 7.308 0 0 1 7.308-7.308h175.396a7.308 7.308 0 0 1 7.308 7.308v12.789a7.308 7.308 0 0 1-7.308 7.309H94.616a7.308 7.308 0 0 1-7.308-7.309v-12.789Z" shape-rendering="crispEdges"/><circle cx="101.999" cy="197.805" r="7" fill="#CFCFD8"/><rect width="141" height="4" x="120.195" y="196.244" fill="#CFCFD8" rx="2"/></g><g filter="url(#j)"><path fill="#fff" d="M87.308 226.563a7.308 7.308 0 0 1 7.308-7.308h175.396a7.308 7.308 0 0 1 7.308 7.308v12.789a7.307 7.307 0 0 1-7.308 7.308H94.616a7.308 7.308 0 0 1-7.308-7.308v-12.789Z" shape-rendering="crispEdges"/><circle cx="101.999" cy="232.519" r="7" fill="#CFCFD8"/><rect width="141" height="4" x="120.195" y="230.958" fill="#CFCFD8" rx="2"/></g><g filter="url(#k)"><path fill="#fff" d="M87.308 261.277a7.308 7.308 0 0 1 7.308-7.308h175.396a7.308 7.308 0 0 1 7.308 7.308v12.789a7.308 7.308 0 0 1-7.308 7.308H94.616a7.308 7.308 0 0 1-7.308-7.308v-12.789Z" shape-rendering="crispEdges"/><circle cx="101.999" cy="267.232" r="7" fill="#CFCFD8"/><rect width="141" height="4" x="120.195" y="265.672" fill="#CFCFD8" rx="2"/></g><g filter="url(#l)"><path fill="#fff" d="M87.308 295.991a7.308 7.308 0 0 1 7.308-7.308h175.396a7.308 7.308 0 0 1 7.308 7.308v12.789a7.308 7.308 0 0 1-7.308 7.308H94.616a7.308 7.308 0 0 1-7.308-7.308v-12.789Z" shape-rendering="crispEdges"/><circle cx="101.999" cy="301.946" r="7" fill="#CFCFD8"/><rect width="141" height="4" x="120.195" y="300.386" fill="#CFCFD8" rx="2"/></g><g filter="url(#m)"><path fill="#fff" d="M87.308 330.704a7.308 7.308 0 0 1 7.308-7.308h175.396a7.307 7.307 0 0 1 7.308 7.308v12.789a7.308 7.308 0 0 1-7.308 7.308H94.616a7.308 7.308 0 0 1-7.308-7.308v-12.789Z" shape-rendering="crispEdges"/><circle cx="101.999" cy="336.659" r="7" fill="#CFCFD8"/><rect width="141" height="4" x="120.195" y="335.099" fill="#CFCFD8" rx="2"/></g><path fill="#fff" d="M286 155.113a7.308 7.308 0 0 1 7.308-7.308H400v402H286V155.113Z"/></g></g></g><defs><filter id="c" width="45.311" height="55.313" x="24.698" y="216.192" color-interpolation-filters="sRGB" filterUnits="userSpaceOnUse"><feFlood flood-opacity="0" result="BackgroundImageFix"/><feColorMatrix in="SourceAlpha" result="hardAlpha" values="0 0 0 0 0 0 0 0 0 0 0 0 0 0 0 0 0 0 127 0"/><feOffset dy="1"/><feGaussianBlur stdDeviation="1"/><feColorMatrix values="0 0 0 0 0.227451 0 0 0 0 0.223529 0 0 0 0 0.266667 0 0 0 0.2 0"/><feBlend in2="BackgroundImageFix" result="effect1_dropShadow_14469_16493"/><feBlend in="SourceGraphic" in2="effect1_dropShadow_14469_16493" result="shape"/></filter><filter id="d" width="374.811" height="496.811" x="52.594" y="88.816" color-interpolation-filters="sRGB" filterUnits="userSpaceOnUse"><feFlood flood-opacity="0" result="BackgroundImageFix"/><feColorMatrix in="SourceAlpha" result="hardAlpha" values="0 0 0 0 0 0 0 0 0 0 0 0 0 0 0 0 0 0 127 0"/><feOffset dy="8.222"/><feGaussianBlur stdDeviation="13.703"/><feComposite in2="hardAlpha" operator="out"/><feColorMatrix values="0 0 0 0 0 0 0 0 0 0 0 0 0 0 0 0 0 0 0.25 0"/><feBlend in2="BackgroundImageFix" result="effect1_dropShadow_14469_16493"/><feBlend in="SourceGraphic" in2="effect1_dropShadow_14469_16493" result="shape"/></filter><filter id="h" width="197.32" height="36.541" x="83.654" y="145.26" color-interpolation-filters="sRGB" filterUnits="userSpaceOnUse"><feFlood flood-opacity="0" result="BackgroundImageFix"/><feColorMatrix in="SourceAlpha" result="hardAlpha" values="0 0 0 0 0 0 0 0 0 0 0 0 0 0 0 0 0 0 127 0"/><feOffset/><feGaussianBlur stdDeviation="1.827"/><feComposite in2="hardAlpha" operator="out"/><feColorMatrix values="0 0 0 0 0 0 0 0 0 0 0 0 0 0 0 0 0 0 0.25 0"/><feBlend in2="BackgroundImageFix" result="effect1_dropShadow_14469_16493"/><feBlend in="SourceGraphic" in2="effect1_dropShadow_14469_16493" result="shape"/></filter><filter id="i" width="197.32" height="36.541" x="83.654" y="179.974" color-interpolation-filters="sRGB" filterUnits="userSpaceOnUse"><feFlood flood-opacity="0" result="BackgroundImageFix"/><feColorMatrix in="SourceAlpha" result="hardAlpha" values="0 0 0 0 0 0 0 0 0 0 0 0 0 0 0 0 0 0 127 0"/><feOffset/><feGaussianBlur stdDeviation="1.827"/><feComposite in2="hardAlpha" operator="out"/><feColorMatrix values="0 0 0 0 0 0 0 0 0 0 0 0 0 0 0 0 0 0 0.25 0"/><feBlend in2="BackgroundImageFix" result="effect1_dropShadow_14469_16493"/><feBlend in="SourceGraphic" in2="effect1_dropShadow_14469_16493" result="shape"/></filter><filter id="j" width="197.32" height="36.541" x="83.654" y="214.688" color-interpolation-filters="sRGB" filterUnits="userSpaceOnUse"><feFlood flood-opacity="0" result="BackgroundImageFix"/><feColorMatrix in="SourceAlpha" result="hardAlpha" values="0 0 0 0 0 0 0 0 0 0 0 0 0 0 0 0 0 0 127 0"/><feOffset/><feGaussianBlur stdDeviation="1.827"/><feComposite in2="hardAlpha" operator="out"/><feColorMatrix values="0 0 0 0 0 0 0 0 0 0 0 0 0 0 0 0 0 0 0.25 0"/><feBlend in2="BackgroundImageFix" result="effect1_dropShadow_14469_16493"/><feBlend in="SourceGraphic" in2="effect1_dropShadow_14469_16493" result="shape"/></filter><filter id="k" width="197.32" height="36.541" x="83.654" y="249.402" color-interpolation-filters="sRGB" filterUnits="userSpaceOnUse"><feFlood flood-opacity="0" result="BackgroundImageFix"/><feColorMatrix in="SourceAlpha" result="hardAlpha" values="0 0 0 0 0 0 0 0 0 0 0 0 0 0 0 0 0 0 127 0"/><feOffset/><feGaussianBlur stdDeviation="1.827"/><feComposite in2="hardAlpha" operator="out"/><feColorMatrix values="0 0 0 0 0 0 0 0 0 0 0 0 0 0 0 0 0 0 0.25 0"/><feBlend in2="BackgroundImageFix" result="effect1_dropShadow_14469_16493"/><feBlend in="SourceGraphic" in2="effect1_dropShadow_14469_16493" result="shape"/></filter><filter id="l" width="197.32" height="36.541" x="83.654" y="284.115" color-interpolation-filters="sRGB" filterUnits="userSpaceOnUse"><feFlood flood-opacity="0" result="BackgroundImageFix"/><feColorMatrix in="SourceAlpha" result="hardAlpha" values="0 0 0 0 0 0 0 0 0 0 0 0 0 0 0 0 0 0 127 0"/><feOffset/><feGaussianBlur stdDeviation="1.827"/><feComposite in2="hardAlpha" operator="out"/><feColorMatrix values="0 0 0 0 0 0 0 0 0 0 0 0 0 0 0 0 0 0 0.25 0"/><feBlend in2="BackgroundImageFix" result="effect1_dropShadow_14469_16493"/><feBlend in="SourceGraphic" in2="effect1_dropShadow_14469_16493" result="shape"/></filter><filter id="m" width="197.32" height="36.541" x="83.654" y="318.828" color-interpolation-filters="sRGB" filterUnits="userSpaceOnUse"><feFlood flood-opacity="0" result="BackgroundImageFix"/><feColorMatrix in="SourceAlpha" result="hardAlpha" values="0 0 0 0 0 0 0 0 0 0 0 0 0 0 0 0 0 0 127 0"/><feOffset/><feGaussianBlur stdDeviation="1.827"/><feComposite in2="hardAlpha" operator="out"/><feColorMatrix values="0 0 0 0 0 0 0 0 0 0 0 0 0 0 0 0 0 0 0.25 0"/><feBlend in2="BackgroundImageFix" result="effect1_dropShadow_14469_16493"/><feBlend in="SourceGraphic" in2="effect1_dropShadow_14469_16493" result="shape"/></filter><clipPath id="a"><path fill="#fff" d="M0 0h400v550H0z"/></clipPath><clipPath id="e"><path fill="#fff" d="M80 115.308A7.308 7.308 0 0 1 87.308 108H400v442H80V115.308Z"/></clipPath><clipPath id="f"><path fill="#fff" d="M80 108h320v40H80z"/></clipPath><clipPath id="g"><path fill="#fff" d="M189.622 120.692h14.616v14.616h-14.616z"/></clipPath><linearGradient id="b" x1="400" x2="-123.243" y1="0" y2="380.541" gradientUnits="userSpaceOnUse"><stop stop-color="#722291"/><stop offset="1" stop-color="#054096"/></linearGradient></defs></svg>