<!-- This Source Code Form is subject to the terms of the Mozilla Public
   - License, v. 2.0. If a copy of the MPL was not distributed with this
   - file, You can obtain one at https://mozilla.org/MPL/2.0/. -->
<svg xmlns="http://www.w3.org/2000/svg" width="400" height="550" fill="none"><g clip-path="url(#a)"><g clip-path="url(#b)"><path fill="#fff" d="M0 0h400v550H0V0Z"/><path fill="url(#c)" fill-opacity=".25" d="M0 0h400v550H0V0Z"/><g filter="url(#d)"><g clip-path="url(#e)"><rect width="1545.89" height="1058" x="274" y="-562" fill="#F9F9FB" rx="10.964"/><path fill="#F9F9FB" d="M274-61.3h66v497h-66z"/><g filter="url(#f)"><rect width="43.855" height="43.855" x="284.964" y="302.786" fill="#fff" rx="5.482"/><g clip-path="url(#g)"><path fill="#5B5B66" fill-rule="evenodd" d="m299.527 315.535-.25 1.163a.52.52 0 0 1-.401.402l-1.164.249c-.551.119-.551.906 0 1.024l1.164.251a.516.516 0 0 1 .401.401l.25 1.164c.119.551.905.551 1.023 0l.251-1.164a.52.52 0 0 1 .402-.401l1.162-.251c.551-.119.551-.906 0-1.024l-1.164-.249a.525.525 0 0 1-.401-.402l-.25-1.163c-.119-.551-.906-.551-1.023 0Zm10.105 17.402a2.223 2.223 0 0 1-2.213-1.789l-.489-2.284a1.884 1.884 0 0 0-1.447-1.446l-2.285-.489a2.224 2.224 0 0 1-1.788-2.215 2.22 2.22 0 0 1 1.788-2.213l2.285-.49a1.892 1.892 0 0 0 1.447-1.447l.49-2.285a2.219 2.219 0 0 1 2.212-1.788c1.094 0 1.983.718 2.214 1.788l.489 2.285a1.887 1.887 0 0 0 1.447 1.446l2.285.489a2.223 2.223 0 0 1 1.788 2.215 2.22 2.22 0 0 1-1.788 2.213l-2.285.489a1.893 1.893 0 0 0-1.447 1.449l-.491 2.283a2.217 2.217 0 0 1-2.212 1.789Zm0-14.733c-.134 0-.453.041-.537.433l-.49 2.286a3.608 3.608 0 0 1-2.763 2.763l-2.285.489c-.392.085-.434.405-.434.539s.042.453.434.538l2.285.49a3.603 3.603 0 0 1 2.763 2.763l.49 2.285c.084.392.403.434.537.434.135 0 .454-.042.538-.434l.49-2.284a3.602 3.602 0 0 1 2.763-2.764l2.285-.49c.392-.085.434-.404.434-.538s-.042-.454-.434-.539l-2.285-.489a3.604 3.604 0 0 1-2.763-2.763l-.49-2.286c-.084-.392-.403-.433-.538-.433Zm-10.355 12.199.25-1.164c.117-.551.904-.551 1.023 0l.25 1.164a.524.524 0 0 0 .401.401l1.164.25c.551.117.551.904 0 1.023l-1.164.25a.524.524 0 0 0-.401.401l-.25 1.164c-.118.551-.904.551-1.023 0l-.25-1.164a.524.524 0 0 0-.401-.401l-1.164-.25c-.551-.118-.551-.904 0-1.023l1.164-.25a.524.524 0 0 0 .401-.401Z" clip-rule="evenodd"/></g></g><g clip-path="url(#h)"><g fill="#5B5B66" clip-path="url(#i)"><path d="M314.771 369.939v-1.381l-1.017-1.017h-1.381v-1.713h1.37a2.74 2.74 0 0 1 2.741 2.741v1.37h-1.713ZM301.752 374.051v1.381l1.017 1.017h1.381v1.713h-1.37a2.74 2.74 0 0 1-2.741-2.741v-1.37h1.713ZM313.743 376.449h-1.37v1.713h1.37a2.74 2.74 0 0 0 2.741-2.741v-1.37h-1.713v1.381l-1.017 1.017h-.011Z"/><path fill-rule="evenodd" d="M297.298 364.457a2.74 2.74 0 0 1 2.741-2.74h8.223a2.741 2.741 0 0 1 2.741 2.74v4.112a2.741 2.741 0 0 1-2.741 2.741h-8.223a2.74 2.74 0 0 1-2.741-2.741v-4.112Zm8.223-1.027h-5.482c-.568 0-1.028.46-1.028 1.027v4.112c0 .568.46 1.028 1.028 1.028h5.482v-6.167Zm2.741 1.027c.567 0 1.027.461 1.027 1.028v2.056a1.027 1.027 0 1 1-2.055 0v-2.056c0-.567.46-1.028 1.028-1.028Z" clip-rule="evenodd"/><path fill-rule="evenodd" d="M300.039 375.421v-2.741h1.713v2.741c0 .568.46 1.028 1.028 1.028h10.963c.568 0 1.028-.46 1.028-1.028v-6.852c0-.568-.46-1.028-1.028-1.028h-1.37v-1.713h1.37a2.74 2.74 0 0 1 2.741 2.741v6.852a2.74 2.74 0 0 1-2.741 2.741h2.056a2.057 2.057 0 0 1 0 4.112h-15.075a2.057 2.057 0 0 1 0-4.112h2.056a2.74 2.74 0 0 1-2.741-2.741Zm6.167 3.769c0-.568.46-1.028 1.028-1.028h2.055a1.028 1.028 0 1 1 0 2.056h-2.055c-.568 0-1.028-.46-1.028-1.028Z" clip-rule="evenodd"/><path d="M301.409 363.43h-1.381l-1.017 1.017v1.381h-1.713v-1.371a2.74 2.74 0 0 1 2.741-2.74h1.37v1.713ZM299.011 367.198v1.382l1.017 1.017h1.381v1.713h-1.37a2.74 2.74 0 0 1-2.741-2.741v-1.371h1.713Z"/></g></g><g clip-path="url(#j)"><path fill="#5B5B66" fill-rule="evenodd" d="M314.943 417.905c0-4.722-3.843-8.565-8.565-8.565-4.723 0-8.566 3.843-8.566 8.565 0 4.723 3.843 8.566 8.566 8.566 4.722 0 8.565-3.843 8.565-8.566Zm-12.499-9.496a10.281 10.281 0 0 1 11.202 2.228 10.281 10.281 0 0 1 0 14.536 10.278 10.278 0 1 1-11.202-16.764Zm7.616 12.703a.844.844 0 0 0 .947-.063.856.856 0 0 0-.089-1.419l-3.684-2.127v-4.223a.857.857 0 1 0-1.713 0v4.716l.427.743 4.112 2.373Z" clip-rule="evenodd"/></g><g clip-path="url(#k)"><path fill="#5B5B66" fill-rule="evenodd" d="M306.039 475.465h1.713a2.246 2.246 0 0 0 2.137-1.592l.582-1.97a8.255 8.255 0 0 0 1.04-.627l1.983.493a2.231 2.231 0 0 0 2.467-1.047l.857-1.484a2.242 2.242 0 0 0-.314-2.647l-1.432-1.509c.023-.19.042-.382.042-.581 0-.209-.019-.414-.044-.616l1.419-1.467a2.237 2.237 0 0 0 .324-2.66l-.856-1.484a2.25 2.25 0 0 0-1.05-.93 2.25 2.25 0 0 0-1.398-.123l-2.025.487a8.089 8.089 0 0 0-1.013-.609l-.582-1.968a2.246 2.246 0 0 0-2.137-1.593h-1.713a2.227 2.227 0 0 0-2.139 1.613l-.557 1.937a8.154 8.154 0 0 0-1.043.62l-2.024-.487a2.247 2.247 0 0 0-2.449 1.053l-.856 1.484a2.228 2.228 0 0 0 .326 2.659l1.415 1.468a5.207 5.207 0 0 0-.043.616c.002.195.016.389.043.581l-1.432 1.509a2.242 2.242 0 0 0-.314 2.647l.857 1.483a2.241 2.241 0 0 0 2.465 1.048l1.985-.493c.339.239.697.453 1.069.638l.556 1.938a2.24 2.24 0 0 0 2.141 1.613Zm-3.067-5.8-.724-.149-2.375.591a.522.522 0 0 1-.569-.242l-.856-1.484a.515.515 0 0 1 .073-.611l1.713-1.805.228-.692-.03-.239-.009-.066a3.42 3.42 0 0 1-.041-.467c.004-.2.023-.4.057-.597l.029-.206-.234-.704-1.705-1.767a.51.51 0 0 1-.076-.612l.857-1.485a.53.53 0 0 1 .566-.242l2.408.578.714-.149a6.452 6.452 0 0 1 1.388-.822l.493-.555.667-2.318a.509.509 0 0 1 .185-.267.51.51 0 0 1 .308-.104h1.713a.51.51 0 0 1 .493.368l.694 2.34.488.545c.484.215.94.488 1.358.814l.714.148 2.409-.578a.515.515 0 0 1 .565.242l.856 1.483a.517.517 0 0 1-.075.614l-1.705 1.767-.234.703.028.205c.029.198.058.395.058.599 0 .183-.027.358-.056.532l-.03.239.229.692 1.713 1.805a.513.513 0 0 1 .072.611l-.856 1.484a.522.522 0 0 1-.57.241l-2.373-.591-.725.15c-.5.381-.94.645-1.384.833l-.486.546-.694 2.339a.501.501 0 0 1-.184.267.502.502 0 0 1-.308.102h-1.713a.516.516 0 0 1-.493-.372l-.665-2.317-.492-.554a6.442 6.442 0 0 1-1.414-.843Zm6.318-5.164a2.401 2.401 0 0 0-2.399-2.398 2.401 2.401 0 0 0-2.398 2.398 2.401 2.401 0 0 0 2.398 2.399 2.401 2.401 0 0 0 2.399-2.399Zm-5.306-2.907a4.112 4.112 0 1 1 5.814 5.815 4.112 4.112 0 0 1-5.814-5.815Z" clip-rule="evenodd"/></g><g filter="url(#l)"><path fill="#fff" d="M340-1.3h61v496.999h-61v-497Z"/></g></g></g><g filter="url(#m)"><path stroke="#fff" stroke-linecap="round" d="M199.8 288.688c5.307 24.7 35.397 21.628 41.2 18.312 3.5-2 4.684-5.068 2.5-6.5-2.184-1.432-6.156 1.253-7.224 3.649-3.921 8.798 1.224 19.851 25.089 18.3m0 0L253.5 328.5m7.865-6.051L254.5 317"/></g><g filter="url(#n)"><rect width="70.057" height="70.057" x="92.972" y="187" fill="#fff" rx="3.503"/><path fill="url(#o)" d="M143.701 221.966c-2.162 0-4.159-.411-6.06-1.217a16.172 16.172 0 0 1-4.984-3.376c-1.406-1.406-2.542-3.084-3.377-4.984-.807-1.901-1.216-3.9-1.216-6.062a.062.062 0 0 0-.063-.062.062.062 0 0 0-.062.062c0 2.162-.423 4.159-1.256 6.062a15.66 15.66 0 0 1-3.337 4.984c-1.406 1.406-3.084 2.542-4.984 3.376-1.901.808-3.9 1.217-6.062 1.217a.062.062 0 0 0-.062.062c0 .034.028.063.062.063 2.162 0 4.159.423 6.062 1.256a15.64 15.64 0 0 1 4.984 3.336 15.684 15.684 0 0 1 3.337 4.987 14.851 14.851 0 0 1 1.256 6.059c0 .034.028.063.062.063a.062.062 0 0 0 .063-.063c0-2.162.409-4.159 1.216-6.059a16.195 16.195 0 0 1 3.377-4.987 15.64 15.64 0 0 1 4.984-3.336 14.86 14.86 0 0 1 6.06-1.256.062.062 0 0 0 .062-.063.062.062 0 0 0-.062-.062Z"/></g><g filter="url(#p)"><rect width="63.065" height="63.065" x="225.967" y="216" fill="#fff" rx="3.153"/><path fill="#000" d="M267.765 245.359a5.97 5.97 0 0 0-.513-4.905 6.039 6.039 0 0 0-6.504-2.897 5.973 5.973 0 0 0-4.504-2.008 6.04 6.04 0 0 0-5.76 4.181 5.975 5.975 0 0 0-3.993 2.896 6.04 6.04 0 0 0 .743 7.081 5.97 5.97 0 0 0 .513 4.905 6.04 6.04 0 0 0 6.504 2.897 5.969 5.969 0 0 0 4.504 2.007 6.04 6.04 0 0 0 5.763-4.184 5.968 5.968 0 0 0 3.992-2.896 6.042 6.042 0 0 0-.744-7.079l-.001.002Zm-9.009 12.591a4.478 4.478 0 0 1-2.875-1.04c.037-.019.1-.054.142-.08l4.772-2.756a.779.779 0 0 0 .393-.679v-6.729l2.017 1.165a.074.074 0 0 1 .039.056v5.571a4.497 4.497 0 0 1-4.488 4.492Zm-9.65-4.122a4.471 4.471 0 0 1-.535-3.009c.035.021.097.059.141.084l4.773 2.757a.78.78 0 0 0 .784 0l5.827-3.365v2.33a.075.075 0 0 1-.029.062l-4.824 2.785a4.497 4.497 0 0 1-6.136-1.644h-.001Zm-1.256-10.417a4.48 4.48 0 0 1 2.338-1.97l-.002.165v5.514c-.002.28.148.54.391.678l5.827 3.364-2.017 1.165a.074.074 0 0 1-.068.006l-4.825-2.788a4.497 4.497 0 0 1-1.644-6.134Zm16.573 3.856-5.827-3.364 2.017-1.164a.069.069 0 0 1 .068-.006l4.825 2.785a4.493 4.493 0 0 1-.693 8.106v-5.678a.776.776 0 0 0-.39-.679Zm2.007-3.021-.142-.085-4.772-2.756a.777.777 0 0 0-.785 0l-5.826 3.364v-2.329a.075.075 0 0 1 .029-.062l4.824-2.784a4.492 4.492 0 0 1 6.67 4.652h.002Zm-12.621 4.151-2.018-1.164a.072.072 0 0 1-.039-.056v-5.571a4.493 4.493 0 0 1 7.366-3.45 2.417 2.417 0 0 0-.141.08l-4.773 2.756a.775.775 0 0 0-.392.679l-.003 6.725v.001Zm1.095-2.362 2.596-1.499 2.595 1.498v2.997l-2.595 1.498-2.596-1.498v-2.996Z"/></g><g filter="url(#q)"><rect width="77.073" height="77.073" x="169.963" y="147" fill="#fff" rx="3.854"/><path fill="#D97757" d="m199.72 190.305 5.687-3.188.093-.28-.093-.155h-.282l-.953-.058-3.249-.087-2.812-.116-2.734-.145-.688-.145-.64-.855.062-.421.578-.391.828.073 1.828.13 2.75.188 1.984.116 2.953.305h.468l.063-.189-.156-.116-.125-.116-2.844-1.927-3.077-2.03-1.61-1.174-.859-.594-.437-.551-.188-1.217.781-.87 1.063.072.265.073 1.078.826 2.297 1.783 3 2.203.437.363.176-.119.027-.084-.203-.334-1.625-2.942-1.734-3.001-.781-1.246-.203-.739a3.377 3.377 0 0 1-.125-.885l.89-1.217.5-.16 1.203.16.5.435.75 1.71 1.203 2.682 1.875 3.652.547 1.087.296 1.001.11.304h.187v-.174l.157-2.058.281-2.522.281-3.247.094-.913.453-1.102.906-.594.703.333.578.826-.078.537-.344 2.232-.672 3.493-.437 2.348h.25l.297-.304 1.187-1.566 1.984-2.493.875-.985 1.031-1.087.656-.522h1.25l.906 1.362-.406 1.406-1.281 1.624-1.062 1.377-1.524 2.04-.945 1.641.085.136.228-.02 3.437-.739 1.859-.333 2.218-.377 1 .464.11.478-.391.971-2.375.58-2.781.565-4.141.975-.046.037.055.08 1.867.169.797.044h1.953l3.64.275.953.623.562.769-.093.594-1.469.739-1.969-.464-4.608-1.101-1.578-.392h-.219v.131l1.312 1.29 2.422 2.174 3.015 2.812.156.696-.39.55-.406-.057-2.656-2.001-1.031-.898-2.313-1.957h-.156v.203l.531.782 2.828 4.247.141 1.305-.203.42-.735.261-.796-.145-1.672-2.333-1.703-2.609-1.375-2.349-.166.105-.818 8.737-.375.449-.875.334-.734-.551-.391-.899.391-1.782.469-2.32.374-1.84.344-2.291.21-.765-.018-.051-.168.028-1.727 2.368-2.624 3.552-2.078 2.217-.5.203-.859-.449.078-.797.484-.711 2.875-3.652 1.734-2.276 1.118-1.306-.011-.189-.062-.005-7.638 4.979-1.359.174-.594-.551.078-.899.281-.29 2.297-1.58Z"/></g><g filter="url(#r)"><rect width="65.482" height="65.482" x="19.818" y="227" fill="#fff" rx="3.274"/><path fill="#FFD21E" d="M39.463 259.478c0-6.361 5.157-11.518 11.518-11.518h4.484c5.628 0 10.191 4.563 10.191 10.191 0 5.629-4.563 10.192-10.191 10.192H43.371l-3.15 3.052a.447.447 0 0 1-.758-.321v-11.596Z"/><path fill="#32343D" d="M56.519 256.128c.407.145.57.986.981.767a1.61 1.61 0 0 0 .662-2.172 1.597 1.597 0 0 0-2.164-.665 1.61 1.61 0 0 0-.661 2.172c.196.37.817-.231 1.182-.102ZM48.982 256.128c-.408.145-.57.986-.982.767a1.61 1.61 0 0 1-.661-2.172 1.596 1.596 0 0 1 2.163-.665 1.61 1.61 0 0 1 .661 2.172c-.195.37-.817-.231-1.181-.102ZM52.827 263.837c3.144 0 4.159-2.815 4.159-4.261 0-1.445-1.862.766-4.16.766-2.296 0-4.159-2.211-4.159-.766 0 1.446 1.015 4.261 4.16 4.261Z"/><path fill="#FF323D" d="M55.352 263.014c-.622.492-1.45.822-2.526.822-1.012 0-1.803-.291-2.411-.734a2.786 2.786 0 0 1 1.697-1.442c.128-.038.26.183.395.409.13.219.263.442.399.442.144 0 .285-.22.424-.435.144-.225.285-.443.421-.4l.118.041a2.786 2.786 0 0 1 1.483 1.297Z"/></g><g filter="url(#s)"><rect width="57.561" height="57.561" x="46.72" y="162" fill="#fff" rx="2.878"/><path fill="#000" d="M84.92 180.315h-4.187v4.186h4.186v-4.186Z"/><path fill="#F7D046" d="M87.012 180.315h-4.186v4.186h4.186v-4.186Z"/><path fill="#000" d="M68.174 180.315h-4.186v4.186h4.186v-4.186ZM68.174 184.501h-4.186v4.186h4.186v-4.186ZM68.174 188.688h-4.186v4.186h4.186v-4.186ZM68.174 192.874h-4.186v4.186h4.186v-4.186ZM68.174 197.06h-4.186v4.186h4.186v-4.186Z"/><path fill="#F7D046" d="M70.267 180.315h-4.186v4.186h4.186v-4.186Z"/><path fill="#F2A73B" d="M87.012 184.501h-4.186v4.186h4.186v-4.186ZM70.267 184.501h-4.186v4.186h4.186v-4.186Z"/><path fill="#000" d="M80.733 184.501h-4.187v4.186h4.187v-4.186Z"/><path fill="#F2A73B" d="M82.826 184.501H78.64v4.186h4.186v-4.186ZM74.453 184.501h-4.186v4.186h4.186v-4.186Z"/><path fill="#EE792F" d="M78.64 188.688h-4.187v4.186h4.186v-4.186ZM82.826 188.688H78.64v4.186h4.186v-4.186ZM74.453 188.688h-4.186v4.186h4.186v-4.186Z"/><path fill="#000" d="M76.546 192.874H72.36v4.186h4.186v-4.186Z"/><path fill="#EB5829" d="M78.64 192.874h-4.187v4.186h4.186v-4.186Z"/><path fill="#EE792F" d="M87.012 188.688h-4.186v4.186h4.186v-4.186ZM70.267 188.688h-4.186v4.186h4.186v-4.186Z"/><path fill="#000" d="M84.92 192.874h-4.187v4.186h4.186v-4.186Z"/><path fill="#EB5829" d="M87.012 192.874h-4.186v4.186h4.186v-4.186Z"/><path fill="#000" d="M84.92 197.06h-4.187v4.186h4.186v-4.186Z"/><path fill="#EB5829" d="M70.267 192.874h-4.186v4.186h4.186v-4.186Z"/><path fill="#EA3326" d="M87.012 197.06h-4.186v4.186h4.186v-4.186ZM70.267 197.06h-4.186v4.186h4.186v-4.186Z"/></g></g></g><defs><filter id="d" width="1628.11" height="1140.23" x="232.886" y="-590.78" color-interpolation-filters="sRGB" filterUnits="userSpaceOnUse"><feFlood flood-opacity="0" result="BackgroundImageFix"/><feColorMatrix in="SourceAlpha" result="hardAlpha" values="0 0 0 0 0 0 0 0 0 0 0 0 0 0 0 0 0 0 127 0"/><feOffset dy="12.334"/><feGaussianBlur stdDeviation="20.557"/><feComposite in2="hardAlpha" operator="out"/><feColorMatrix values="0 0 0 0 0 0 0 0 0 0 0 0 0 0 0 0 0 0 0.25 0"/><feBlend in2="BackgroundImageFix" result="effect1_dropShadow_14467_62275"/><feBlend in="SourceGraphic" in2="effect1_dropShadow_14467_62275" result="shape"/></filter><filter id="f" width="109.637" height="109.637" x="252.073" y="283.6" color-interpolation-filters="sRGB" filterUnits="userSpaceOnUse"><feFlood flood-opacity="0" result="BackgroundImageFix"/><feColorMatrix in="SourceAlpha" result="hardAlpha" values="0 0 0 0 0 0 0 0 0 0 0 0 0 0 0 0 0 0 127 0"/><feOffset dy="13.705"/><feGaussianBlur stdDeviation="16.446"/><feColorMatrix values="0 0 0 0 0.227451 0 0 0 0 0.223529 0 0 0 0 0.266667 0 0 0 0.2 0"/><feBlend in2="BackgroundImageFix" result="effect1_dropShadow_14467_62275"/><feBlend in="SourceGraphic" in2="effect1_dropShadow_14467_62275" result="shape"/></filter><filter id="l" width="1562.33" height="1437.62" x="331.777" y="-6.782" color-interpolation-filters="sRGB" filterUnits="userSpaceOnUse"><feFlood flood-opacity="0" result="BackgroundImageFix"/><feColorMatrix in="SourceAlpha" result="hardAlpha" values="0 0 0 0 0 0 0 0 0 0 0 0 0 0 0 0 0 0 127 0"/><feOffset dy="2.741"/><feGaussianBlur stdDeviation="4.111"/><feColorMatrix values="0 0 0 0 0.227451 0 0 0 0 0.223529 0 0 0 0 0.266667 0 0 0 0.2 0"/><feBlend in2="BackgroundImageFix" result="effect1_dropShadow_14467_62275"/><feBlend in="SourceGraphic" in2="effect1_dropShadow_14467_62275" result="shape"/></filter><filter id="m" width="66.876" height="44.813" x="197.3" y="287.188" color-interpolation-filters="sRGB" filterUnits="userSpaceOnUse"><feFlood flood-opacity="0" result="BackgroundImageFix"/><feColorMatrix in="SourceAlpha" result="hardAlpha" values="0 0 0 0 0 0 0 0 0 0 0 0 0 0 0 0 0 0 127 0"/><feOffset dy="1"/><feGaussianBlur stdDeviation="1"/><feColorMatrix values="0 0 0 0 0.227451 0 0 0 0 0.223529 0 0 0 0 0.266667 0 0 0 0.2 0"/><feBlend in2="BackgroundImageFix" result="effect1_dropShadow_14467_62275"/><feBlend in="SourceGraphic" in2="effect1_dropShadow_14467_62275" result="shape"/></filter><filter id="n" width="80.566" height="80.565" x="87.717" y="183.497" color-interpolation-filters="sRGB" filterUnits="userSpaceOnUse"><feFlood flood-opacity="0" result="BackgroundImageFix"/><feColorMatrix in="SourceAlpha" result="hardAlpha" values="0 0 0 0 0 0 0 0 0 0 0 0 0 0 0 0 0 0 127 0"/><feOffset dy="1.751"/><feGaussianBlur stdDeviation="2.627"/><feColorMatrix values="0 0 0 0 0.227451 0 0 0 0 0.223529 0 0 0 0 0.266667 0 0 0 0.2 0"/><feBlend in2="BackgroundImageFix" result="effect1_dropShadow_14467_62275"/><feBlend in="SourceGraphic" in2="effect1_dropShadow_14467_62275" result="shape"/></filter><filter id="p" width="72.525" height="72.525" x="221.237" y="212.847" color-interpolation-filters="sRGB" filterUnits="userSpaceOnUse"><feFlood flood-opacity="0" result="BackgroundImageFix"/><feColorMatrix in="SourceAlpha" result="hardAlpha" values="0 0 0 0 0 0 0 0 0 0 0 0 0 0 0 0 0 0 127 0"/><feOffset dy="1.577"/><feGaussianBlur stdDeviation="2.365"/><feColorMatrix values="0 0 0 0 0.227451 0 0 0 0 0.223529 0 0 0 0 0.266667 0 0 0 0.2 0"/><feBlend in2="BackgroundImageFix" result="effect1_dropShadow_14467_62275"/><feBlend in="SourceGraphic" in2="effect1_dropShadow_14467_62275" result="shape"/></filter><filter id="q" width="88.634" height="88.634" x="164.183" y="143.146" color-interpolation-filters="sRGB" filterUnits="userSpaceOnUse"><feFlood flood-opacity="0" result="BackgroundImageFix"/><feColorMatrix in="SourceAlpha" result="hardAlpha" values="0 0 0 0 0 0 0 0 0 0 0 0 0 0 0 0 0 0 127 0"/><feOffset dy="1.927"/><feGaussianBlur stdDeviation="2.89"/><feColorMatrix values="0 0 0 0 0.227451 0 0 0 0 0.223529 0 0 0 0 0.266667 0 0 0 0.2 0"/><feBlend in2="BackgroundImageFix" result="effect1_dropShadow_14467_62275"/><feBlend in="SourceGraphic" in2="effect1_dropShadow_14467_62275" result="shape"/></filter><filter id="r" width="75.304" height="75.305" x="14.907" y="223.726" color-interpolation-filters="sRGB" filterUnits="userSpaceOnUse"><feFlood flood-opacity="0" result="BackgroundImageFix"/><feColorMatrix in="SourceAlpha" result="hardAlpha" values="0 0 0 0 0 0 0 0 0 0 0 0 0 0 0 0 0 0 127 0"/><feOffset dy="1.637"/><feGaussianBlur stdDeviation="2.456"/><feColorMatrix values="0 0 0 0 0.227451 0 0 0 0 0.223529 0 0 0 0 0.266667 0 0 0 0.2 0"/><feBlend in2="BackgroundImageFix" result="effect1_dropShadow_14467_62275"/><feBlend in="SourceGraphic" in2="effect1_dropShadow_14467_62275" result="shape"/></filter><filter id="s" width="66.195" height="66.195" x="42.403" y="159.122" color-interpolation-filters="sRGB" filterUnits="userSpaceOnUse"><feFlood flood-opacity="0" result="BackgroundImageFix"/><feColorMatrix in="SourceAlpha" result="hardAlpha" values="0 0 0 0 0 0 0 0 0 0 0 0 0 0 0 0 0 0 127 0"/><feOffset dy="1.439"/><feGaussianBlur stdDeviation="2.159"/><feColorMatrix values="0 0 0 0 0.227451 0 0 0 0 0.223529 0 0 0 0 0.266667 0 0 0 0.2 0"/><feBlend in2="BackgroundImageFix" result="effect1_dropShadow_14467_62275"/><feBlend in="SourceGraphic" in2="effect1_dropShadow_14467_62275" result="shape"/></filter><clipPath id="a"><path fill="#fff" d="M0 0h400v550H0z"/></clipPath><clipPath id="b"><path fill="#fff" d="M0 0h400v550H0z"/></clipPath><clipPath id="e"><rect width="1545.89" height="1058" x="274" y="-562" fill="#fff" rx="10.964"/></clipPath><clipPath id="g"><rect width="21.927" height="21.927" x="295.928" y="313.75" fill="#fff" rx="2.741"/></clipPath><clipPath id="h"><rect width="21.927" height="21.927" x="295.928" y="360.346" fill="#fff" rx="2.741"/></clipPath><clipPath id="i"><path fill="#fff" d="M295.928 360.346h21.927v21.927h-21.927z"/></clipPath><clipPath id="j"><rect width="21.927" height="21.927" x="295.928" y="406.942" fill="#fff" rx="2.741"/></clipPath><clipPath id="k"><rect width="21.927" height="21.927" x="295.928" y="453.538" fill="#fff" rx="2.741"/></clipPath><linearGradient id="c" x1="400" x2="-123.243" y1="0" y2="380.541" gradientUnits="userSpaceOnUse"><stop stop-color="#722291"/><stop offset="1" stop-color="#054096"/></linearGradient><linearGradient id="o" x1="122.248" x2="136.509" y1="226.877" y2="214.853" gradientUnits="userSpaceOnUse"><stop stop-color="#217BFE"/><stop offset=".27" stop-color="#078EFB"/><stop offset=".78" stop-color="#A190FF"/><stop offset="1" stop-color="#BD99FE"/></linearGradient></defs></svg>
