<!-- This Source Code Form is subject to the terms of the Mozilla Public
- License, v. 2.0. If a copy of the MPL was not distributed with this
- file, You can obtain one at https://mozilla.org/MPL/2.0/. -->
<svg xmlns="http://www.w3.org/2000/svg" width="400" height="400" fill="none" viewBox="0 0 400 400"><g clip-path="url(#a)"><path fill="url(#b)" fill-rule="evenodd" d="m97 115.5 3.5 65 6.5 40 3.5 8v5.5l45 54 17.5 17.5h6l108-51 18-12.5 2-13.5v-8l-44.5-30v-55l-2-30-2-10.5-47.5 3-76.5 7.5L102 111l-5 4.5Zm18 1-2 5.5v20l3.5 40.5 2 20 6 4 24-2 48.5-10 45-12 12.5-5.5 2-13-2-36.5-3-23-9.5-1.5-64 5.5-49 4.5-14 3.5Z" clip-rule="evenodd"/><path fill="#fff" d="M224.462 185.171c-1.298.445-2.726.637-4.02 1.112-1.865.686-3.946.608-5.686 1.671-.03.02-.058.046-.087.051-2.241.151-4.472.989-6.723.147-1.412-.531-1.683-1.915-2.119-3.126-.579-1.596-.821-3.308-1.647-4.83-.368-.679-.097-1.461-.283-2.182-.494-1.916-.938-3.846-1.417-5.766-.082-.334-.148-.654-.07-.996-1.351-1.675-1.376-2.923-.2-4.822 1.158-1.879 1.829-3.984 2.639-6.021.105-.272.175-.562.339-.815.514-.8.864-1.649.733-2.628-1.221.114-2.043 1.004-3.018 1.571-1.424.827-2.834 1.666-4.308 2.409-1.17.589-2.258 1.4-3.25 2.266-1.049.912-2.075 1.911-2.855 3.046-.869 1.267-1.984 2.325-2.807 3.618-.518.812-1.334 1.364-1.891 2.191-.861 1.281-1.408 2.635-1.768 4.111-.148.605-.543 1.137-.624 1.774.688 1.411.78 3.071.278 4.333-.442 1.113-1.818 1.947-3.169 2.383-1.186.383-2.469.642-3.431 1.457-.503.422-.898.783-1.587.786-.881.007-1.581-.208-2.149-.966-.342-.454-.719-.98-1.357-1.135-.782-.433-1.468.088-2.172.249-.875.204-1.733.035-2.582.077-1.53.069-3.083.07-4.591.571-.824.276-1.778.144-2.649.315-1.341.259-2.667.599-3.988.93-1.794.445-3.584 1.007-5.278 1.736-1.458.63-2.86 1.409-4.256 2.197-1.461.822-2.591 2.081-4.089 2.808-.284.138-.411.331-.442.618.424.471.963.183 1.453.207 2.726.114 5.478.007 8.135.759.545.156.986-.121 1.537-.032 1.023.163 2.006.868 3.059.52.826-.271 1.519-.055 2.254.202.517.179 1.169.043 1.429-.248.709-.778.981.094 1.379.277.507.229.315.671.171 1.128-.319 1.007-.443 2.063-.822 3.063-.624 1.646-.986 3.37-1.277 5.106-.005.024-.007.044-.013.065l67.243-18.02c.057-1.262.265-2.507.74-3.715a187.628 187.628 0 0 0-4.764 1.548Zm-43.856 7.64c-1.077.447-2.196.782-3.385.737-2.244-.022-3.012-.576-3.505-2.357-.159-.565-.009-.985.35-1.294.377-.33.866-.283 1.331-.035.433.228.801.563 1.328.635.848.114 1.625.169 2.443-.306 1.316-.755 1.988-.502 2.597.76.339.7-.051 1.4-1.159 1.86Z"/><path fill="#F69322" d="M181.764 190.951c.339.7-.05 1.401-1.159 1.86-1.076.448-2.195.782-3.385.737-2.244-.022-3.012-.576-3.505-2.357-.159-.565-.008-.985.351-1.294.376-.329.865-.282 1.33-.035.433.229.802.564 1.328.635.848.114 1.626.169 2.443-.306 1.316-.755 1.988-.502 2.597.76Z"/><path fill="#F69322" d="M231.439 170.293c.18 2.275.359 4.578.627 6.861.2 1.759.17 3.514-.057 5.309a143.879 143.879 0 0 1-.6 4.092l-2.923.783c.057-1.262.265-2.507.74-3.714a187.605 187.605 0 0 0-4.764 1.547c-1.298.445-2.726.638-4.02 1.112-1.865.686-3.946.609-5.686 1.672-.03.019-.058.046-.087.05-2.241.151-4.472.989-6.723.148-1.412-.532-1.683-1.916-2.119-3.127-.579-1.595-.821-3.308-1.647-4.829-.368-.68-.097-1.461-.283-2.182-.494-1.917-.938-3.846-1.417-5.767-.082-.334-.148-.653-.07-.996-1.351-1.675-1.376-2.923-.2-4.822 1.158-1.879 1.829-3.983 2.639-6.02.105-.273.175-.562.339-.816.514-.8.864-1.648.733-2.628-1.221.114-2.043 1.004-3.018 1.572-1.424.827-2.834 1.665-4.308 2.409-1.17.589-2.258 1.399-3.25 2.265-1.049.913-2.075 1.912-2.855 3.046-.869 1.267-1.984 2.325-2.807 3.618-.518.813-1.334 1.365-1.891 2.192-.861 1.28-1.408 2.635-1.768 4.11-.148.605-.543 1.137-.624 1.775.688 1.411.78 3.071.278 4.332-.442 1.114-1.818 1.947-3.169 2.383-1.186.384-2.469.642-3.431 1.458-.503.421-.898.783-1.587.785-.881.008-1.581-.207-2.149-.965-.342-.455-.719-.981-1.357-1.135-.782-.433-1.468.087-2.172.249-.875.203-1.733.034-2.582.076-1.53.069-3.083.071-4.591.572-.824.275-1.778.143-2.649.315-1.341.258-2.667.598-3.988.929-1.794.446-3.584 1.007-5.278 1.736-1.458.631-2.86 1.409-4.256 2.198-1.461.821-2.591 2.081-4.089 2.807-.284.139-.411.331-.442.618.424.471.963.184 1.453.207 2.726.114 5.478.008 8.135.76.545.156.986-.121 1.537-.033 1.023.164 2.006.869 3.059.521.826-.272 1.519-.055 2.254.201.517.179 1.169.043 1.429-.247.709-.779.981.093 1.379.277.507.228.315.671.171 1.128-.319 1.007-.443 2.062-.822 3.062-.624 1.647-.986 3.371-1.277 5.106-.005.025-.007.045-.013.066l-1.431.383c-.214-.063-.375-.201-.402-.531-.024-.292-.059-.569.005-.877.355-1.71.656-3.436 1.014-5.147.129-.62-.077-.897-.68-.934-2.512-.14-5.021-.311-7.537-.408-1.46-.058-2.832-.554-4.269-.699-1.402-.144-2.869-.777-4.182-.328-2.117.726-3.917-.267-5.854-.546-.455-.064-.575-.295-.63-.613-.231-1.34-.517-2.681-.619-4.032-.119-1.63-.395-3.252-.224-4.909.203-1.933.376-3.873.537-5.802.115-1.379.361-2.727.498-4.095.128-1.286-.949-1.953-1.492-2.865-.544-.916-1.11-1.86-1.751-2.703-1.328-1.751-2.08-3.761-3.032-5.694-.866-1.758-1.569-3.572-2.353-5.356-1.016-2.303-1.826-4.689-3.029-6.923-.78-1.437-1.082-3.129-1.195-4.764-.06-.844-.573-1.4-.774-2.136-.755-2.76 1.382-4.727 3.896-4.727 3.244-.002 6.469.338 9.584 1.312 2.104.656 4.141 1.566 6.274 2.095 1.704.419 3.06 1.391 4.543 2.171.956.503 1.747.434 2.72-.214 1.308-.869 2.797-1.497 4.186-2.256 1.374-.752 2.888-1.057 4.309-1.624 1.252-.502 2.689-.658 4.052-.935 2.002-.404 3.8-1.324 5.678-2.048.386-.15.395-.566.359-.874-.225-2.082.604-4.031.743-6.055.13-1.902.43-3.787.563-5.689.096-1.362.654-2.646 1.296-3.879.376-.721.836-1.433.801-2.341-.046-1.316 1.188-3.111 2.249-3.577.887-.389 1.575-.147 2.153.507a49.51 49.51 0 0 1 2.061 2.488c1.508 1.927 3.21 3.682 4.813 5.518.915 1.045 1.954 1.986 2.54 3.394.893 2.162 2.001 4.258 3.107 6.316 1.066 1.984 2.331 3.903 3.541 5.829a11.744 11.744 0 0 1 1.337 3.096c.538 1.978 1.689 2.878 3.609 3.15 2.302.324 4.516 1.07 6.773 1.558 2.031.439 3.671 1.432 5.367 2.454.655.393.561 1.359-.238 2.279-.966 1.107-1.451 2.344-1.477 3.838-.011.654-.397 1.323-.686 1.95-.932 2.043-1.905 4.062-2.847 6.096a8.37 8.37 0 0 0-.71 2.568c-.09.806.175 1.475.847 2.019.574.466 1.027 1.073 1.559 1.596.532.528 1.082.512 1.554-.083.266-.335.5-.707.691-1.091 1.325-2.73 2.708-5.459 3.475-8.391.548-2.075 1.584-3.933 2.201-5.965.273-.902.067-1.819.335-2.681.685-2.185 1.345-4.388 3.414-5.759 1.424-.943 3.649-.719 4.929.329.804.659 1.586 1.294 2.288 2.078.625.7.994 1.426 1.227 2.297.178.661.507 1.282.749 1.925.416 1.105.957 2.141.895 3.413-.04.847.357 1.678.693 2.513 1.192 2.976 1.892 6.065 2.143 9.313Z"/><path fill="#F69322" d="M206.325 151.916c-2.298-.829-4.73-1.029-7.086-1.586-1.687-.397-3.45-.501-5.184-.672-.723-.069-1.297-.302-1.45-1.017-.283-1.318-1.041-2.238-2.157-2.919-.85.093-1.433-.476-2.06-.881-1.056-.673-2.278-.799-3.43-1.164-.379.377-.764.747-1.14 1.123-.503.506-1.054 1.006-1.813.761-.83-.266-1.387-.884-1.556-1.775-.092-.502-.141-1.016-.208-1.525l-1.166.011c-.31 1.027-1.191.989-1.989 1.005-.55.012-.624-.522-.765-.934-.767-2.242-.956-4.592-1.318-6.912-.367-2.337-.103-4.705-.246-7.06-.599 2.043-1.049 4.092-1.257 6.235-.212 2.214-.123 4.483-.895 6.646-.336.942-1.107 1.42-1.816 1.505-2.502.287-4.817 1.302-7.263 1.714-1.574.267-3.059.824-4.649 1.064-1.67.254-3.289 1.005-4.477 2.381-.402.468-.953.681-1.551.745-.282.033-.425.191-.637.341-2.105 1.451-3.76 2.646-6.384.847-.489-.337-1.063-.195-1.6-.264-1.627-.203-3.249-.663-4.654-1.483-.979-.575-2.012-.325-2.99-.679-1.313-.48-2.72-.715-4.008-1.315-1.08-.504-2.271-.092-3.453-.225.844.49 1.651 1.072 2.54 1.457 3.122 1.348 6.05 3.065 8.98 4.766a27.234 27.234 0 0 1 4.906 3.654c.531.493 1.304.704 1.452 1.574.112.648.01 1.206-.608 1.472-.478.21-1.026.275-1.521-.068-.243-.171-.498-.328-.747-.49l-.621 2.944c.18.253.383.49.54.757.728 1.227-.263 2.402-1.988 2.438-.408 2.395-1.274 4.668-1.958 6.985-.089.303-.094.59-.135.884 1.235 1.486.907 3.239.412 4.762-.461 1.413-.313 2.818-.473 4.201-.308 2.638-.033 5.326-.081 7.995-.022 1.188-.036 2.407.16 3.602.144.898.562 1.491 1.601 1.538.792.036 1.575.372 2.355-.042.032-.288.158-.48.443-.618 1.497-.727 2.627-1.987 4.088-2.808 1.396-.788 2.798-1.567 4.256-2.198 1.695-.729 3.484-1.29 5.278-1.736 1.321-.33 2.647-.67 3.988-.929.872-.172 1.825-.04 2.65-.315 1.507-.501 3.06-.503 4.591-.572.848-.041 1.707.127 2.582-.076.704-.162 1.389-.682 2.171-.249-.084-.907.385-1.629.848-2.314 1.465-2.163 3.664-3.306 5.959-4.382 1.577-.736 3.052-.709 4.608-.162.081-.638.477-1.17.624-1.775.36-1.475.907-2.83 1.769-4.11.556-.827 1.373-1.379 1.891-2.192.823-1.293 1.937-2.351 2.806-3.617.781-1.135 1.806-2.134 2.855-3.047.992-.866 2.08-1.676 3.251-2.265 1.473-.743 2.883-1.582 4.307-2.409.975-.567 1.798-1.458 3.018-1.572l.004-.001c.071-.123.138-.25.197-.378.058-.128.118-.252.172-.383l.104-.26c.066-.173.127-.352.18-.529.276-.891.436-1.813.663-2.714.083-.328-.46-.62-.915-.785Zm-40.101 21.149c-.347 1.537-1.32 2.011-2.901 1.951-2.863-.062-3.78-1.954-3.93-4.249-.14-2.081 2.856-3.097 4.666-2.211 1.204.591 2.463 3.194 2.165 4.509Zm17.634-10.039c.006 1.439-1.17 2.947-2.496 3.287-.971.248-1.594-.483-2.178-.958-1.191-.963-1.672-2.395-1.779-3.895-.077-1.022.851-1.836 1.907-1.887 1.816-.087 3.986 1.333 4.427 2.834.07.233.102.453.119.619Z"/><path fill="#383431" d="M228.896 173.434c.002-.001.005-.001.008.001l.003.012-.011-.013Z"/><path fill="#000" d="M231.439 170.293c.18 2.275.359 4.578.627 6.861.2 1.759.17 3.514-.057 5.309a143.879 143.879 0 0 1-.6 4.092l-.268 1.687c-.238 1.497-.607 2.029-1.732 1.978-.485-.021-.871-.2-.901-.703a20.067 20.067 0 0 1-.022-2.179c.057-1.262.265-2.507.74-3.714.079-.254.202-.504.23-.759.316-3.04-.282-6.067-.166-9.103.01-.282-.168-.323-.386-.327-.019-.056-.051-.118-.052-.179-.128-2.286-.662-4.509-.991-6.764.446-.503-.214-.883-.143-1.371.244-1.677-.405-3.245-.762-4.823-.541-2.38-1.321-4.727-2.504-6.873-.558-1.012-.984-2.153-1.982-2.916-.997-.759-1.745-.659-2.701.081-1.353 1.049-1.854 2.534-2.191 4.023-.585 2.569-1.238 5.106-2.342 7.49-.635 1.371-1.02 2.74-.97 4.241-.117.241-.296.471-.341.723-.329 1.776-1.528 3.17-2.122 4.84-.482 1.353-1.914 2.151-2.523 3.492-.087.193-.257.181-.424.195-1.693.128-3.103-.482-4.142-1.787-.719-.904-1.224-1.98-2.304-2.555-1.351-1.675-1.376-2.923-.2-4.822 1.158-1.879 1.829-3.983 2.639-6.02.105-.273.175-.562.339-.816.514-.8.864-1.648.733-2.628l-.001-.003c.071-.124.138-.251.201-.376.059-.128.118-.252.172-.383l.105-.26c.066-.173.127-.352.18-.529.276-.891.436-1.813.663-2.714.082-.328-.461-.62-.916-.785-2.297-.829-4.729-1.029-7.086-1.586-1.686-.397-3.449-.501-5.183-.672-.724-.069-1.298-.303-1.45-1.017-.284-1.318-1.042-2.238-2.157-2.919-.02-.231.058-.577-.071-.682-1.138-.965-1.163-2.492-1.861-3.692-1.055-1.816-1.85-3.799-2.817-5.685-.754-1.471-1.695-2.83-2.552-4.235-.843-1.385-2.011-2.563-2.879-3.965-.619-.996-1.51-1.822-2.486-2.962-.012 2.83-.081 5.335-.011 7.834.06 2.206.25 4.402.719 6.584.231 1.096.693 2.185.584 3.352-.309 1.028-1.191.99-1.988 1.006-.551.012-.624-.522-.765-.934-.768-2.242-.956-4.592-1.318-6.912-.367-2.338-.103-4.705-.246-7.06-.599 2.043-1.049 4.092-1.257 6.235-.213 2.214-.123 4.483-.895 6.646-.337.942-1.107 1.419-1.816 1.505-2.503.287-4.817 1.302-7.263 1.714-1.575.267-3.06.824-4.649 1.063-1.671.255-3.29 1.006-4.478 2.382-.401.468-.952.681-1.551.745-.281.032-.425.191-.636.341-2.106 1.451-3.761 2.645-6.384.847-.49-.338-1.063-.196-1.601-.265-1.627-.203-3.249-.663-4.653-1.483-.979-.574-2.012-.324-2.99-.678-1.314-.481-2.721-.715-4.008-1.315-1.08-.505-2.271-.093-3.453-.225.844.49 1.65 1.072 2.54 1.457 3.122 1.347 6.049 3.065 8.98 4.766a27.269 27.269 0 0 1 4.906 3.654c.531.493 1.304.704 1.452 1.574.112.648.009 1.206-.608 1.472-.479.21-1.027.275-1.521-.069-.244-.171-.499-.327-.747-.489-1.536-1.393-3.289-2.503-5.05-3.538-3.042-1.783-6.318-3.156-9.307-5.046-.18-.11-.36-.333-.637-.255-.197.161-.151.451-.066.552.881 1.018.85 2.39 1.32 3.565.625 1.568 1.086 3.245 1.664 4.837.514 1.411 1.016 2.88 2.003 4.18.734.961 1.211 2.251 1.749 3.42.945 2.035 2.332 3.801 3.386 5.769.142.268.34.618.776.524 1.234 1.485.906 3.239.412 4.761-.462 1.414-.314 2.819-.474 4.202-.307 2.638-.032 5.326-.08 7.995-.023 1.187-.037 2.407.16 3.602.144.898.562 1.491 1.601 1.538.792.036 1.575.372 2.355-.043.424.471.963.184 1.453.207 2.726.114 5.478.008 8.135.76.545.156.986-.121 1.537-.033 1.023.164 2.006.869 3.059.521.826-.272 1.519-.055 2.254.201.517.179 1.169.043 1.429-.247.709-.779.981.093 1.379.277.507.228.315.671.171 1.128-.319 1.007-.443 2.062-.822 3.062-.624 1.647-.986 3.371-1.277 5.106-.005.025-.007.045-.013.066-.12.504-.558.432-.938.429a1.967 1.967 0 0 1-.493-.046c-.214-.063-.375-.201-.402-.531-.024-.292-.059-.569.005-.877.355-1.71.656-3.436 1.014-5.147.129-.62-.077-.897-.68-.934-2.512-.14-5.021-.311-7.537-.408-1.46-.058-2.832-.554-4.269-.699-1.402-.143-2.869-.777-4.182-.328-2.117.726-3.917-.267-5.854-.546-.455-.064-.575-.295-.63-.613-.231-1.34-.517-2.681-.619-4.032-.119-1.63-.395-3.252-.224-4.909.203-1.933.376-3.873.537-5.802.115-1.379.361-2.727.498-4.095.128-1.286-.949-1.953-1.492-2.865-.544-.916-1.11-1.86-1.751-2.703-1.328-1.751-2.08-3.761-3.032-5.694-.866-1.758-1.569-3.572-2.353-5.356-1.016-2.303-1.826-4.689-3.029-6.923-.78-1.437-1.082-3.129-1.195-4.764-.06-.844-.573-1.4-.774-2.136-.755-2.76 1.382-4.727 3.896-4.727 3.244-.002 6.469.338 9.584 1.312 2.104.656 4.141 1.566 6.274 2.095 1.704.419 3.06 1.391 4.543 2.171.956.503 1.747.434 2.72-.214 1.308-.869 2.797-1.497 4.186-2.256 1.374-.752 2.888-1.057 4.309-1.624 1.252-.502 2.689-.658 4.052-.935 2.002-.404 3.8-1.324 5.678-2.048.386-.15.395-.566.359-.874-.225-2.082.604-4.031.743-6.055.13-1.902.43-3.787.563-5.689.096-1.362.654-2.646 1.296-3.879.376-.721.836-1.433.801-2.341-.046-1.316 1.188-3.111 2.249-3.577.887-.389 1.575-.147 2.153.507a49.51 49.51 0 0 1 2.061 2.488c1.508 1.927 3.21 3.682 4.813 5.518.915 1.045 1.954 1.986 2.54 3.394.893 2.162 2.001 4.258 3.107 6.316 1.066 1.984 2.331 3.903 3.541 5.829a11.744 11.744 0 0 1 1.337 3.096c.538 1.978 1.689 2.878 3.609 3.15 2.302.324 4.516 1.07 6.773 1.558 2.031.439 3.671 1.432 5.367 2.454.655.393.561 1.359-.238 2.279-.966 1.107-1.451 2.344-1.477 3.838-.011.654-.397 1.323-.686 1.95-.932 2.043-1.905 4.062-2.847 6.096a8.37 8.37 0 0 0-.71 2.568c-.09.806.175 1.475.847 2.019.574.466 1.027 1.073 1.559 1.596.532.528 1.082.512 1.554-.083.266-.335.5-.707.691-1.091 1.325-2.73 2.708-5.459 3.475-8.391.548-2.075 1.584-3.933 2.201-5.965.273-.902.067-1.819.335-2.681.685-2.185 1.345-4.388 3.414-5.759 1.424-.943 3.649-.719 4.929.329.804.659 1.586 1.294 2.288 2.078.625.7.994 1.426 1.227 2.297.178.661.507 1.282.749 1.925.416 1.105.957 2.141.895 3.413-.04.847.357 1.678.693 2.513 1.192 2.976 1.892 6.065 2.143 9.313Z"/><path fill="#F69322" d="M229.29 173.762c-.116 3.036.483 6.063.166 9.103-.028.255-.151.505-.23.759a187.534 187.534 0 0 0-4.763 1.547c-1.298.445-2.726.638-4.02 1.112-1.865.686-3.946.608-5.687 1.671-.03.02-.057.047-.087.051-2.241.151-4.471.989-6.722.148-1.413-.532-1.683-1.916-2.12-3.127-.579-1.595-.821-3.308-1.647-4.83-.368-.679-.097-1.461-.283-2.181-.494-1.917-.937-3.847-1.417-5.767-.082-.334-.148-.653-.069-.996 1.079.575 1.584 1.651 2.303 2.555 1.039 1.305 2.45 1.915 4.142 1.786.167-.013.337-.001.425-.195.608-1.34 2.041-2.138 2.522-3.491.594-1.67 1.793-3.064 2.123-4.841.044-.252.223-.482.34-.722.74.301 1.427.655 2.024 1.22.658.621 1.434 1.161 2.351 1.287 1.383.191 2.783-.006 4.157-.166 1.015-.117 2.068-.608 2.763-1.282.719-.696 1.442-.847 2.3-.911.329 2.255.863 4.478.991 6.763.001.062.033.123.052.18.218.004.396.045.386.327Z"/><path fill="#000" d="M185.678 182.285c-.442 1.114-1.818 1.947-3.169 2.383-1.186.384-2.469.642-3.431 1.458-.503.421-.898.783-1.587.785-.881.008-1.581-.207-2.149-.965-.342-.455-.719-.981-1.357-1.135-.084-.907.384-1.629.847-2.315 1.466-2.162 3.665-3.305 5.96-4.381 1.576-.736 3.051-.71 4.608-.162.688 1.411.78 3.071.278 4.332ZM180.606 192.811c-1.076.448-2.195.782-3.385.737-2.244-.022-3.012-.576-3.505-2.357-.159-.565-.008-.985.351-1.294.376-.329.865-.282 1.33-.035.433.229.802.564 1.328.635.848.114 1.626.169 2.443-.306 1.316-.755 1.988-.502 2.597.76.339.7-.05 1.401-1.159 1.86Z"/><path fill="#fff" d="M139.964 172.256c-.436.092-.634-.256-.777-.523-1.053-1.968-2.44-3.735-3.384-5.772-.54-1.166-1.018-2.458-1.748-3.418-.989-1.299-1.49-2.768-2.004-4.181-.578-1.592-1.04-3.269-1.666-4.837-.469-1.175-.436-2.545-1.318-3.567-.085-.098-.131-.387.066-.55.276-.079.457.144.635.256 2.992 1.891 6.266 3.263 9.307 5.047 1.762 1.034 3.517 2.145 5.05 3.537l-.62 2.944c-.138.108-.262.048-.353-.056a35.095 35.095 0 0 0-3.727-3.69c-.417-.355-.913-.418-1.339-.265-.463.165-.744.541-.723 1.173.037 1.114.718 1.831 1.479 2.362.761.532.498.822-.002 1.183-.624.45-.315 1.117-.46 1.677.627.008.529 1.167 1.494.83.65-.228 1.45-.029 2.183-.021-.409 2.397-1.274 4.667-1.958 6.988-.088.301-.094.589-.135.883ZM179.076 142.27c.11-1.166-.352-2.255-.586-3.351-.467-2.183-.657-4.378-.719-6.586-.07-2.498.001-5 .011-7.833.977 1.143 1.868 1.968 2.486 2.963.871 1.401 2.037 2.582 2.881 3.966.857 1.404 1.798 2.765 2.552 4.235.966 1.885 1.761 3.869 2.815 5.685.698 1.201.725 2.726 1.864 3.691.126.106.051.449.069.683-.85.093-1.431-.477-2.061-.88-1.055-.675-2.279-.801-3.43-1.165.178-.311.366-.616.53-.934.405-.786-.034-1.734-.861-1.86-.513-.078-.984.084-1.438.308-.064-.443-.144-.87-.183-1.301-.043-.456-.042-.916-.069-1.374-.057-.978-.657-1.725-1.406-1.76-.642-.029-1.31.779-1.464 1.607-.246 1.321.174 2.596.175 3.897l-1.166.009Z"/><path fill="#000" d="M163.323 175.015c-2.862-.062-3.779-1.954-3.931-4.247-.139-2.08 2.858-3.099 4.667-2.212 1.207.591 2.466 3.195 2.167 4.509-.35 1.536-1.319 2.012-2.903 1.95ZM183.856 163.025c.006 1.439-1.168 2.947-2.493 3.286-.973.249-1.592-.481-2.178-.955-1.191-.965-1.671-2.395-1.781-3.896-.074-1.024.853-1.838 1.906-1.888 1.819-.086 3.99 1.335 4.43 2.835.068.233.099.453.116.618ZM180.241 142.261c0-1.301-.421-2.576-.174-3.897.154-.828.822-1.636 1.464-1.607.749.035 1.349.782 1.406 1.76.026.457.026.917.068 1.374.04.431.12.858.184 1.301.453-.225.925-.387 1.438-.308.827.126 1.266 1.074.861 1.86-.164.318-.353.623-.53.934-.38.374-.763.745-1.139 1.123-.502.506-1.056 1.004-1.813.761-.831-.268-1.388-.885-1.554-1.776-.094-.504-.142-1.017-.21-1.525h-.001ZM142.056 164.385c-.733-.008-1.533-.207-2.183.021-.964.338-.866-.821-1.493-.83.144-.559-.165-1.227.459-1.677.501-.36.764-.651.002-1.182-.761-.532-1.441-1.249-1.478-2.362-.022-.633.259-1.008.723-1.174.426-.152.922-.089 1.339.265a35.285 35.285 0 0 1 3.727 3.69c.09.104.215.164.352.056.181.252.383.491.54.757.726 1.226-.263 2.402-1.988 2.436Z"/><path fill="#fff" d="M224.452 153.425c-.558-1.012-.984-2.153-1.982-2.916-.998-.758-1.745-.659-2.701.082-1.353 1.048-1.854 2.533-2.191 4.022-.585 2.569-1.238 5.106-2.342 7.49-.635 1.371-1.02 2.74-.97 4.241.739.301 1.427.656 2.023 1.22.659.621 1.435 1.161 2.351 1.287 1.384.191 2.783-.006 4.158-.165 1.014-.117 2.068-.609 2.762-1.283.72-.696 1.442-.847 2.301-.911.446-.503-.214-.883-.143-1.371.244-1.676-.405-3.245-.762-4.823-.541-2.38-1.321-4.727-2.504-6.873Zm-6.62 4.446c.009-1.152.423-1.542 1.65-1.515.625.208.868.043.534-.681-.08-.168-.022-.401-.034-.603-.024-.555-.003-1.141.547-1.413.439-.214.843.154 1.188.402.489.349.637.887.565 1.456-.106.846-.527 1.342-1.474 1.177-.662-.117-.893.383-.513.715.635.562.177 1.052-.024 1.37-.339.528-1.053.448-1.577.286a1.203 1.203 0 0 1-.862-1.194Zm7.586 4.896c.038.706-.536.817-1.114.887-.637.082-1.267.231-1.901.351l-.011.003c-.012.011-.022.017-.035.028l-.145.109a1.213 1.213 0 0 1-.004-.119c-.001-.003.002-.004.001-.008l-.001-.004c-1.14-.008-2.183-.402-3.233-.795-.637-.236-.789-.776-.675-1.287.104-.465.387-.897 1.006-1.044 1.118-.265 2.222-.15 3.249.199.609.208 1.19.033 1.793.216.826.251 1.032.804 1.07 1.464Zm-.504-5.26c.003 1.049-.319 1.437-1.249 1.423-.805.061-1.345-.309-1.225-1.221.091-.686.048-1.569 1.078-1.656.689-.057 1.392.715 1.396 1.454Z"/><path fill="#383431" d="m228.898 173.433-.063.051.074-.037-.011-.014Z"/><path fill="#000" d="M222.209 164.014c-1.141-.008-2.184-.4-3.233-.793-.638-.239-.79-.779-.676-1.29.103-.463.386-.898 1.006-1.044 1.12-.265 2.224-.148 3.25.2.61.208 1.19.033 1.793.216.825.25 1.031.804 1.068 1.463.04.707-.534.816-1.112.889-.642.081-1.276.233-1.913.354l.016.03-.015-.144-.199.129.015-.01ZM219.484 156.357c.624.208.865.042.532-.681-.078-.17-.022-.401-.031-.603-.027-.554-.005-1.141.544-1.412.44-.217.844.151 1.191.4.486.348.635.887.563 1.456-.106.846-.526 1.343-1.473 1.177-.663-.116-.894.381-.515.715.636.56.179 1.051-.024 1.369-.338.53-1.054.448-1.577.287a1.204 1.204 0 0 1-.862-1.193c.009-1.152.422-1.543 1.652-1.515ZM223.665 158.932c-.803.058-1.343-.311-1.224-1.223.09-.685.047-1.572 1.078-1.657.688-.057 1.392.714 1.394 1.454.004 1.052-.316 1.439-1.248 1.426Z"/><path fill="#383431" d="m222.392 164.009-.182.135-.003-.129-.014.009.215.015-.016-.03Z"/><path fill="#fff" d="m222.409 164.039-.215-.015.2-.13.015.145Z"/><path fill="#000" d="M319.558 136.981c-.958.188-1.914.391-2.875.561-.974.172-1.961.276-2.929.473-1.523.311-3.033.682-4.551 1.017-1.229.27-2.477.467-3.688.8-1.553.428-3.064 1.004-4.617 1.432-1.191.329-2.43.487-3.629.793-2.325.592-4.635 1.24-6.953 1.855-1.625.431-3.248.869-4.882 1.26-1.501.36-3.009.693-4.526.98-1.175.222-2.398-.612-2.349-1.627.039-.795.692-1.293 1.369-1.503 1.557-.482 3.243-.638 4.715-1.288 2.068-.913 4.307-1.151 6.405-1.96 1.913-.739 4.058-.859 6.07-1.374 2.918-.747 5.802-1.624 8.712-2.402.96-.257 1.964-.344 2.933-.57 2.078-.484 4.138-1.039 6.22-1.502 1.108-.246 2.254-.32 3.368-.543a164.54 164.54 0 0 0 5.504-1.206c.572-.134 1.098-.476 1.671-.586.652-.125.985.194.995.922.033 2.263-.564 2.958-3 3.494-1.144.252-2.265.606-3.398.908-.182.049-.372.071-.558.105l-.007-.039ZM50.642 195.126c1.202-.27 2.401-.558 3.609-.806a63.168 63.168 0 0 1 3.477-.634c1.366-.202 2.76-.222 4.032-.89.31-.163.75-.081 1.13-.111.299-.024.61-.003.895-.079 1.019-.272 2.02-.608 3.043-.861a420.526 420.526 0 0 1 6.367-1.516c.912-.211 1.836-.365 2.748-.578.786-.183 1.355.198 1.694.784.372.644-.02 2.101-.598 2.368-.98.454-1.98.916-3.022 1.179-1.593.403-3.237.601-4.844.955-2.234.492-4.446 1.083-6.682 1.561-1.125.241-2.295.273-3.426.496-2.11.415-4.2.926-6.309 1.35-1.993.401-4.007.702-5.996 1.122-1.704.36-3.375.875-5.08 1.231-1.596.333-3.227.504-4.826.827-1.482.299-2.933.756-4.418 1.042-.78.15-1.63.213-2.398.062-.422-.083-.973-.656-1.035-1.071-.05-.342.45-.957.851-1.143 2.101-.975 4.28-1.721 6.58-2.142 2.842-.52 5.668-1.135 8.482-1.792 1.766-.413 3.495-.981 5.244-1.469.144-.04.309-.005.464-.005l.018.12ZM82.167 216.427c1.039.08 1.933 1.009 1.59 1.899-.303.784-.799 1.584-1.424 2.137-1.468 1.299-3.116 2.395-4.598 3.681a394.315 394.315 0 0 0-8.244 7.377c-1.7 1.56-3.296 3.232-4.983 4.807-1.37 1.279-2.81 2.485-4.212 3.732-2.546 2.265-5.084 4.538-7.63 6.803-1.013.901-2.02 1.81-3.066 2.674-.662.548-1.307 1.089-2.335.898-.707-.131-.87-.444-.765-1.021.171-.942.554-1.733 1.345-2.391 1.03-.858 1.907-1.899 2.877-2.833 1.034-.996 2.09-1.971 3.154-2.935 2.363-2.141 4.726-4.283 7.114-6.397.766-.678 1.65-1.226 2.404-1.916.592-.543 1.032-1.246 1.604-1.815.618-.615 1.324-1.142 1.968-1.732 2.033-1.864 4.048-3.746 6.082-5.608 1.28-1.172 2.564-2.34 3.878-3.475a92.441 92.441 0 0 1 3.676-3.025c.464-.36 1.04-.578 1.565-.86ZM276.792 123.682c.058-1.071.832-1.764 1.507-2.44.989-.989 2.103-1.856 3.169-2.769 1.382-1.184 2.778-2.353 4.153-3.546 2.035-1.765 4.04-3.563 6.09-5.31 1.147-.978 2.375-1.862 3.536-2.825 1.146-.952 2.258-1.945 3.378-2.928.702-.616 1.368-1.273 2.09-1.863 2.042-1.669 4.085-3.337 6.171-4.95.564-.437 1.264-.716 1.929-1.005.698-.302 1.829.123 2.156.748.347.668.05 1.671-.561 2.154-1.709 1.348-3.396 2.726-5.092 4.09-.379.305-.772.592-1.141.908-1.522 1.307-3.031 2.627-4.556 3.931-1.215 1.04-2.446 2.062-3.67 3.093-1.965 1.656-3.939 3.301-5.892 4.97-1.94 1.657-3.82 3.387-5.803 4.99-1.271 1.029-2.689 1.877-4.027 2.827-.427.303-.777.715-1.212 1.004-1.129.751-2.102.268-2.225-1.079ZM83.132 165.423c-.07.811-1.011 1.695-1.77 1.647-.812-.051-1.63-.061-2.433-.17-2.359-.318-4.709-.7-7.069-1.009-1.072-.14-2.16-.154-3.24-.246-1.498-.127-2.995-.404-4.49-.385-2.672.034-5.239-.941-7.948-.642-1.036.114-2.128-.37-3.205-.501-1.401-.17-2.814-.243-4.219-.392-.931-.099-1.853-.284-2.784-.385-1.227-.133-2.474-.138-3.682-.36a3.838 3.838 0 0 1-1.836-.919c-.472-.443-.754-1.265-.19-1.789.479-.445 1.245-.856 1.866-.83 2.269.093 4.53.37 6.794.587 2.273.219 4.548.421 6.817.68 2.618.3 5.224.699 7.844.97 1.99.207 4 .229 5.99.429 1.945.196 3.873.542 5.815.763.908.104 1.845-.017 2.746.113a30.92 30.92 0 0 1 3.934.813c.724.205 1.17.796 1.06 1.626ZM135.292 229.204c-.58-.091-1.21-.39-1.485-.194-.633.451-1.114.012-1.519-.163-.425-.185-.99-.82-.931-1.163.083-.487.602-1.038 1.079-1.282.504-.258 1.184-.153 1.775-.27a21.664 21.664 0 0 0 2.083-.526c1.4-.423 2.784-.901 4.187-1.31 1.603-.467 3.225-.871 4.831-1.329 1.206-.343 2.396-.743 3.605-1.075.161-.044.392.169.516.228 1.345-1.251 3.188-.935 4.725-1.579l.227.771c.136-.147.198-.201.246-.267.177-.24.303-.632.529-.701 1.488-.453 2.994-.847 4.499-1.241 2.111-.552 4.222-1.107 6.342-1.623 1.838-.447 3.695-.819 5.534-1.264 1.415-.342 2.811-.761 4.223-1.118a353.903 353.903 0 0 1 6.077-1.488c1.111-.26 2.242-.433 3.354-.691.662-.155 1.296-.434 1.957-.597a300.072 300.072 0 0 1 6.617-1.582c1.425-.319 2.87-.555 4.307-.822.844-.157 1.694-.282 2.53-.472.161-.036.269-.305.416-.485l.176.277c.548-.138.981-.258 1.419-.354.706-.155 1.42-.274 2.122-.442 1.55-.372 3.086-.806 4.644-1.137 1.837-.391 3.694-.685 5.537-1.049 1.455-.288 2.899-.632 4.353-.927 1.3-.263 2.602-.512 3.909-.73 1.178-.197 2.452-.125 3.528-.556 2.126-.853 4.451-.67 6.569-1.481.449-.171 1.021-.025 1.765-.025.761-.214 1.78-.559 2.825-.78 1.059-.224 2.143-.326 3.177-.502.717-.11 1.441-.191 2.152-.336 1.9-.389 3.794-.807 5.691-1.21.363-.077.728-.142 1.093-.209 1.714-.311 3.417-.71 5.144-.912 2.864-.334 5.755-.7 8.386 1.037.805.531 1.8.817 2.511 1.439 1.266 1.108 2.704 1.94 4.061 2.903a98.753 98.753 0 0 1 6.161 4.758c.661.552 1.068 1.422 1.535 2.181.116.188.053.519.003.77-.477 2.378-2.194 3.512-4.308 4.259-.705.25-1.381.577-2.077.852-1.228.486-2.411.965-3.799 1.08-1.325.11-2.598.842-3.894 1.297-.409.143-.815.299-1.233.406a205.61 205.61 0 0 1-3.867.951c-1.143.268-2.308.459-3.435.782-.978.279-1.903.738-2.875 1.039-1.359.419-2.757.715-4.107 1.157-1.624.531-3.21 1.176-4.825 1.738-1.022.356-2.066.651-3.102.968-.168.052-.354.052-.515.117-1.524.607-2.996 1.424-4.574 1.79-2.631.61-5.008 1.869-7.579 2.627-2.335.688-4.573 1.704-6.854 2.575-1.754.67-3.49 1.395-5.268 1.992-1.372.46-2.862.609-4.181 1.172-1.359.58-2.669 1.157-4.146 1.442-1.084.209-2.076.876-3.121 1.309-.931.386-1.882.721-2.817 1.096-1.72.691-3.431 1.406-5.153 2.091-1.961.78-3.936 1.528-5.897 2.31-1.552.619-3.08 1.302-4.641 1.898-2.386.91-4.803 1.742-7.186 2.661-1.537.593-3.011 1.356-4.561 1.91-1.563.558-3.304.729-4.746 1.487-1.173.616-2.4.897-3.604 1.31-1.03.354-2.114.552-3.176.811-.667.162-1.367.235-2 .48-1.207.47-2.359.012-3.522-.117-1.566-.173-2.862-.864-3.96-2.06-1.003-1.092-2.222-1.984-3.314-2.999-.378-.352-.637-.828-.991-1.209-.273-.295-.615-.524-.916-.793-.606-.542-1.198-1.1-1.809-1.636-.81-.71-1.684-1.354-2.437-2.118-.848-.859-1.585-1.826-2.382-2.735-.962-1.098-1.977-2.153-2.89-3.29-.585-.728-1.04-1.563-1.529-2.365-.319-.523-.566-1.09-.893-1.608-1-1.581-1.43-3.2-.301-5.149Zm52.059-13.129c-1.359.355-2.818.768-4.292 1.114-1.983.464-3.982.857-5.965 1.318-1.815.423-3.62.889-5.425 1.351-1.344.343-2.68.716-4.023 1.065-1.731.448-3.459.912-5.2 1.319-1.638.383-3.295.688-4.938 1.049-.719.158-1.431.349-2.136.558-1.874.554-3.737 1.145-5.615 1.683-1.593.456-3.238.757-4.789 1.32-1.049.381-1.951.843-2.614-.189-.279.377-.501.991-.834 1.058-.676.137-1.223.238-1.494.968-.105.281-.376.519-.614.729-1.181 1.036-1.354 1.992-.516 3.372.728 1.2 1.418 2.437 2.283 3.534 1.299 1.646 2.716 3.203 4.123 4.762a68.238 68.238 0 0 0 3.145 3.265c.924.897 1.961 1.678 2.873 2.585.956.951 1.747 2.075 2.749 2.968 1.093.974 2.24 2.009 3.888 1.894 1.166-.082 2.397-.017 3.472-.385 1.062-.363 2.064-.852 3.21-.938.391-.03.788-.138 1.158-.275.839-.311 1.648-.704 2.496-.987 1.21-.404 2.457-.703 3.662-1.123.542-.189.994-.631 1.534-.835.854-.324 1.752-.527 2.621-.814a62.064 62.064 0 0 0 3.14-1.1c.792-.309 1.543-.722 2.331-1.046.897-.369 1.821-.674 2.72-1.038.999-.403 1.972-.869 2.977-1.255.775-.298 1.601-.47 2.372-.778 1.945-.777 3.868-1.608 5.806-2.402a826.96 826.96 0 0 1 6.628-2.685 423.263 423.263 0 0 1 6.214-2.441c1.222-.467 2.441-1.081 3.71-1.236.879-.108 1.407-.69 2.163-.892.717-.191 1.406-.485 2.115-.711 1.031-.328 2.077-.609 3.101-.959.986-.337 1.953-.735 2.927-1.108 1.267-.485 2.527-.987 3.8-1.456 1.813-.668 3.635-1.312 5.453-1.967.638-.23 1.268-.482 1.912-.692 1.66-.541 3.334-1.04 4.988-1.599 2.2-.744 4.38-1.544 6.579-2.289.742-.251 1.536-.355 2.272-.621 1.029-.372 1.999-.923 3.044-1.235 1.626-.487 3.299-.819 4.942-1.255.815-.216 1.596-.56 2.412-.772 2.669-.696 5.347-1.355 8.019-2.037.455-.116.9-.277 1.349-.417 1.26-.392 2.554-.702 3.769-1.201 1.088-.447 2.387-.577 3.144-1.64-.795-.779-1.486-1.561-2.283-2.214-1.231-1.008-2.533-1.929-3.808-2.883-.552-.413-1.092-.845-1.671-1.218-.921-.595-1.926-1.074-2.794-1.735-1.257-.958-2.511-1.794-4.197-1.582-2.12.267-4.25.47-6.361.792-1.325.202-2.618.608-3.938.855-1.231.23-2.539.196-3.705.592-1.906.649-3.949.605-5.829 1.343-.552.216-1.245.045-1.854.154-1.49.266-2.963.62-4.452.885-1.574.28-3.164.474-4.74.749-2.267.396-4.532.803-6.788 1.257-1.922.387-3.831.844-5.744 1.277-1.191.27-2.371.6-3.572.819-1.56.285-3.146.431-4.7.739-1.547.308-3.058.787-4.602 1.109-1.933.404-3.896.666-5.821 1.098-2.035.456-4.036 1.058-6.061 1.56-.749.185-1.524.268-2.259.393.714 1.229 1.288 2.306 1.945 3.329.999 1.554 1.859 1.878 3.273 1.437 1.137-.355 2.295-.644 3.447-.95.865-.231 1.736-.443 2.805-.714-.327-.403-.531-.628-.704-.874-.381-.542-.068-1.44.531-1.39.555.047 1.213-.055 1.561.745.19.435.863.92 1.322.925.888.009 1.787-.274 2.667-.494 2.723-.679 5.434-1.406 8.159-2.074 1.205-.296 1.5-1.22.714-2.254-.189-.249-.147-.674-.211-1.018.5-.015.975-.774 1.471-.159.464.574.919 1.214 1.147 1.901.224.677.571.588 1.035.46.305-.084.602-.2.908-.276 2.574-.635 5.149-1.265 7.713-1.894-.041-.212-.042-.283-.068-.344-.382-.864-.061-1.518.742-1.827.643-.248.887.272 1.189.81.243.433.636.998 1.488.612.812-.368 1.765-.429 2.657-.619 1.086-.232 2.172-.461 3.259-.686 1.337-.276 2.675-.544 4.012-.82.701-.145 1.396-.32 2.1-.446.848-.152 1.288-.533.878-1.405l1.067-.749 1.152 1.539c1.406-.276 2.782-.598 4.174-.803 1.018-.15 2.068-.254 3.084-.16.425.039 1.015.588 1.128 1.012.1.372-.241 1.092-.6 1.306-.69.413-1.52.613-2.311.833-1.108.308-2.234.553-3.432.845.464.844.81 1.692 1.348 2.395.575.751 1.244 1.499 2.03 2.001.794.507.049.888.042 1.291-.003.198-.542.516-.866.556-.878.107-1.801-.035-2.651.158-1.33.303-2.61.819-3.922 1.208-1.806.536-3.621 1.042-5.435 1.552-.802.226-1.774.256-2.139 1.137-.308.747-.793.709-1.26.429-.749-.448-1.459-.102-2.161-.017-.652.078-1.273.398-1.915.589-1.848.551-3.684 1.155-5.557 1.605-.929.223-1.564.446-1.177 1.514-.745.552-1.449.884-2.138.061-.379-.452-.831-.466-1.324-.3-.616.207-1.213.475-1.836.651-1.201.34-2.418.619-3.621.953-1.148.318-2.281.694-3.431 1.004-.673.181-1.368.282-2.057.42.086.335.085.41.121.459.561.764.382 1.58-.278 2.009-.588.383-1.402.445-1.999-.36-.567-.765-1.274-1.44-2.378-.862-.212.111-.402.3-.624.348-1.577.339-3.162.639-4.734.999-.113.025-.246.462-.185.649.224.692.687 1.345.746 2.038.045.531-.307 1.157-.643 1.626-.127.177-.874.192-1.049.007-.767-.804-1.564-1.636-2.075-2.602-.32-.603-.681-.598-1.102-.524-.55.096-1.065.386-1.613.509-1.245.278-2.514.455-3.743.788-.292.079-.708.675-.641.918.212.774.507 1.582.989 2.211.566.737.313 1.216-.259 1.615-.494.345-1.105.638-1.65.009-.448-.518-.913-1.027-1.313-1.582-.462-.642-.861-1.33-1.158-1.794l-5.902 1.518c.061.181.155.499.277.805.137.343.317.669.448 1.014.253.671-.152 1.938-.659 2.113-.855.297-2.274-.424-2.551-1.294-.3-.944-1.242-1.508-2.19-1.249-1.162.318-2.303.705-3.462 1.031-1.045.294-2.108.529-3.151.83-.219.063-.387.302-.538.427 1.074 1.896 2.866 3.349 2.785 5.731h-1.51l.512-.47c-.537-.233-1.19-.348-1.587-.728-.638-.61-1.105-1.398-1.651-2.106-.206-.267-.522-.487-.629-.785-.336-.936-.952-1.026-1.796-.768-1.132.347-2.267.709-3.426.937-1.658.327-3.339.538-4.91.783l-.408-1.229c1.326-.323 2.731-.625 4.053-1.258 1.391-.666 2.884-1.118 4.23-1.625-.768-1.156-1.376-2.096-2.011-3.017-.249-.361-.591-.66-.833-1.025-.492-.744-.913-1.537-1.438-2.257-.121-.166-.573-.221-.82-.149-1.325.384-2.613.915-3.953 1.225-2.267.525-4.559.945-6.849 1.362-.975.177-1.793-.437-1.515-1.14.166-.419.761-.774 1.24-.943 1.195-.425 2.445-.694 3.652-1.087 1.213-.394 2.405-.852 3.598-1.303.81-.306 1.606-.649 2.52-1.021l-2.62-3.815 1.127-.542 2.754 3.142c.405.463.693.893 1.511.47 1.02-.528 2.174-.826 3.296-1.126 1.997-.533 4.013-.993 6.014-1.483-.245-1.319-1.19-2.492-.274-3.786 1.754.175 2.322 1.654 3.207 2.981l7.95-1.884c-1.216-1.554-1.37-2.495-.471-3.299.537.635 1.225 1.193 1.553 1.913.298.658.629.95 1.279.841.821-.137 1.63-.351 2.444-.535.901-.203 1.8-.414 2.702-.613.762-.167 1.527-.321 2.166-.455l-2.275-5.121Zm-13.068 18.962c-1.061-1.922-2.043-3.733-3.07-5.517-.108-.187-.509-.353-.727-.307-1.671.353-3.341.727-4.993 1.163-1.464.387-2.905.861-4.347 1.294.113.177.358.544.584.922.326.544.509 1.281.981 1.608 1.151.798 1.837 1.888 2.513 3.047.23.394.613.724 1.311.419 1.45-.635 2.975-1.103 4.479-1.61 1.083-.365 2.183-.682 3.269-1.019Zm30.274-13.82c.887 1.458 1.637 2.771 2.487 4.016.161.236.758.351 1.091.269 1.59-.392 3.156-.88 4.735-1.318 1.659-.46 3.329-.883 4.982-1.366.407-.119.794-.374 1.127-.644.121-.098.138-.581.062-.621-1.134-.587-1.295-1.856-1.993-2.737-.16-.203-.497-.451-.697-.41-1.093.224-2.166.549-3.253.808-2.831.673-5.665 1.33-8.541 2.003Zm39.793-9.328-12.953 2.717-.12.35c.847.948 1.669 1.92 2.56 2.824.184.186.65.218.947.151 1.114-.251 2.213-.569 3.315-.869 2.69-.733 5.379-1.469 8.03-2.194l-1.779-2.979Zm-70.149 16.259 3.816 5.909c.13-.206.171-.357.249-.379 1.597-.456 3.203-.88 4.793-1.356.311-.093.671-.326.804-.595.09-.181-.171-.542-.292-.816-.053-.12-.162-.215-.221-.334-.574-1.164-1.115-2.346-1.735-3.485-.119-.22-.566-.428-.815-.384-.988.177-1.954.475-2.936.693-1.154.256-2.317.475-3.663.747Zm19.625 1.051c-.1-.299-.168-.648-.328-.948-.495-.931-.992-1.865-1.557-2.754-.277-.436-.662-1.021-1.08-1.098-.585-.108-1.251.173-1.873.327-1.248.309-2.476.718-3.738.951-1.339.248-1.4.269-.729 1.502.153.282.362.532.532.805.442.712.964 1.392 1.287 2.155.282.669.793 1.03 1.515.825.597-.169 1.214-.267 1.821-.396a2.413 2.413 0 0 0-.058-.082l4.208-1.287Zm3.448-6.139-.045-.165c-.814.187-1.651.313-2.429.597-.236.086-.526.731-.424.911.646 1.127 1.436 2.171 2.094 3.292.34.578.713.688 1.31.515 1.57-.456 3.152-.869 4.723-1.32 1.486-.428 1.529-.46 1.011-1.679a19.143 19.143 0 0 0-1.456-2.766c-.176-.277-.712-.519-1.037-.47-.828.125-1.632.417-2.442.655-.439.13-.87.286-1.305.43Zm31.075-7.633-8.981 2.172 2.537 3.936 8.96-2.536-2.516-3.572ZM252.328 242.075c.291-.222.637.031 2.125 1.633.687.739 1.477 1.396 2.086 2.191.647.847 1.136 1.814 1.623 2.611-.216.514-.279 1.084-.596 1.342-1.341 1.091-2.706 2.17-4.162 3.097-1.479.941-3.073 1.704-4.623 2.532-2.048 1.095-4.087 2.209-6.16 3.256-1.719.869-3.485 1.643-5.222 2.478-1.511.727-2.998 1.503-4.515 2.217-1.787.842-3.601 1.625-5.389 2.462-2.249 1.054-4.441 2.239-6.737 3.175-1.911.778-3.955 1.225-5.903 1.922-1.279.457-1.984-.404-2.656-1.081-.765-.773-1.324-1.76-1.916-2.69-.536-.844-.98-1.745-1.494-2.603-.67-1.121-1.299-2.276-2.071-3.325-1.419-1.928-2.955-3.77-4.393-5.684-1.145-1.524-2.269-3.07-3.307-4.667-.848-1.305-1.595-2.681-2.292-4.073-.143-.286.003-.94.251-1.151.592-.504 1.3-.894 2.006-1.236.535-.259 1.143-.368 1.715-.553 1.145-.37 2.281-.766 3.432-1.115.938-.284 1.899-.496 2.838-.777.877-.262 1.734-.59 2.611-.855.564-.169 1.15-.267 1.721-.414.332-.086.653-.213.982-.312 1.319-.396 2.637-.797 3.959-1.181 2.272-.659 4.553-1.286 6.818-1.966 1.552-.467 3.081-1.006 4.623-1.503 1.121-.361 2.253-.687 3.368-1.064.956-.322 1.869-.834 2.847-1.014 1.994-.366 3.786-1.872 5.954-1.159.659.216 1.266.673 1.814 1.121 1.498 1.223 2.927 2.528 4.428 3.746 1.165.945 2.394 1.811 3.599 2.706.847.629 1.702 1.249 2.636 1.934Zm1.614 6.304c-.218-.67-.232-1.327-.568-1.624-.8-.707-1.791-1.194-2.631-1.862-.816-.649-1.975-.792-2.526-1.874-.204-.4-.911-.519-1.329-.842-1.346-1.041-2.662-2.121-3.995-3.179-.858-.681-1.693-1.396-2.596-2.011-.917-.624-1.896-1.203-3.091-.806-.461.153-.889.405-1.348.561-1.472.499-2.958.959-4.428 1.465-1.888.65-3.755 1.361-5.651 1.986-1.278.421-2.59.746-3.89 1.104-1.243.342-2.49.674-3.737 1.006-.647.173-1.3.323-1.943.509-.918.265-1.823.578-2.746.823-.75.198-1.545.251-2.275.5-1.914.652-3.781 1.445-5.709 2.05-1.511.475-3.089.732-4.624 1.138-.269.07-.506.371-.674.621-.037.057.275.354.437.531.31.337.649.65.938 1.004 1.56 1.911 3.054 3.879 4.676 5.737 1.546 1.769 3.154 3.451 4.196 5.617.812 1.687 1.991 3.196 2.846 4.865.931 1.818 1.001 1.923 2.866 1.286 1.382-.473 2.818-.821 4.149-1.407 2.584-1.136 5.118-2.387 7.659-3.617 1.513-.732 2.983-1.553 4.506-2.263 1.331-.621 2.731-1.095 4.061-1.718 1.753-.822 3.469-1.722 5.195-2.598 1.925-.977 3.852-1.951 5.764-2.952 1.597-.836 3.2-1.665 4.749-2.584.659-.39 1.186-1.002 1.719-1.466ZM163.823 206.077c-.421.68-1.069.957-2.139.898-1.06-.058-2.147.438-3.229.657-1.341.271-2.745.854-4.018.651-1.016-.162-1.68.542-2.644.371-.855-.151-1.809.343-2.731.449-.884.102-1.788.026-2.674.115-.691.07-1.362.341-2.053.404-1.576.144-3.163.175-4.738.327-1.232.119-2.449.388-3.68.519-.809.086-1.632.049-2.448.06-1.129.017-2.259.003-3.386.046-1.046.04-2.088.185-3.133.195-.693.006-1.386-.186-2.082-.217-1.485-.068-2.879-.394-4.083-1.301-.974-.733-1.838-1.541-2.187-2.792-.121-.436-.562-.772-.791-1.19-1.066-1.95-1.394-4.116-1.707-6.266-.373-2.557-.646-5.129-.922-7.699-.3-2.796-.572-5.596-.823-8.397-.201-2.231-.31-4.471-.539-6.698-.186-1.817-.492-3.621-.74-5.431-.291-2.12-.612-4.236-.855-6.362-.19-1.665-.299-3.339-.415-5.012a550.848 550.848 0 0 1-.398-6.417c-.12-2.055-.222-4.111-.337-6.167-.091-1.627-.221-3.254-.275-4.883-.051-1.527-.011-3.057-.034-4.586-.026-1.71-.039-3.421-.133-5.127-.075-1.363-.273-2.718-.395-4.079a6.98 6.98 0 0 1 0-1.252c.181-2.041.326-4.089.617-6.115.057-.395.7-.707.874-.87.121-.553.087-1.01.299-1.251.796-.904 1.572-1.887 2.553-2.547.699-.471 1.705-.564 2.592-.665 2.186-.248 4.384-.382 6.574-.602 2.65-.265 5.297-.56 7.942-.866.729-.085 1.443-.304 2.173-.377 1.234-.124 2.477-.163 3.714-.273.755-.067 1.502-.223 2.257-.296 1.458-.142 2.926-.2 4.377-.392 1.52-.202 3.02-.556 4.539-.772.715-.102 1.462.024 2.182-.06 2.066-.238 4.127-.531 6.189-.802.067-.009.152-.032.2-.002 1.124.682 2.155-.088 3.22-.22.811-.1 1.568-.216 2.428-.106 1.022.131 2.108-.345 3.176-.448 1.801-.174 3.613-.224 5.413-.4.957-.094 1.891-.398 2.847-.511 1.823-.217 3.653-.388 5.483-.536a546.54 546.54 0 0 1 8.181-.596c1.067-.07 2.143-.008 3.206-.108 1.301-.123 2.588-.404 3.889-.52 1.429-.128 2.872-.098 4.301-.227.973-.088 1.926-.415 2.898-.483 1.171-.082 2.36.084 3.528-.017 1.124-.097 2.224-.438 3.346-.593.836-.114 1.694-.062 2.535-.154 1.961-.215 3.916-.496 5.878-.703 1.123-.118 2.26-.101 3.383-.22 1.543-.164 3.076-.414 4.617-.595.515-.061 1.042-.013 1.563-.036a96.336 96.336 0 0 0 2.341-.135c.377-.025.754-.073 1.131-.113.958-.103 1.916-.212 2.875-.308.452-.046.906-.074 1.36-.099 1.67-.089 3.34-.227 5.012-.247 2.047-.025 4.111-.093 6.137.13 1.658.182 3.287.712 4.894 1.2.438.133.781.647 1.115 1.031.326.375.681.77.856 1.22.371.96.747 1.942.918 2.949.388 2.281.763 4.574.94 6.877.247 3.198.309 6.41.446 9.617.033.763.045 1.527.074 2.29.068 1.775.148 3.55.209 5.325.068 1.994.113 3.988.183 5.982.076 2.17.109 4.343.274 6.506.123 1.609.467 3.2.634 4.807.104.998.024 2.013.096 3.016.092 1.262.263 2.518.385 3.778.092.946.19 1.894.233 2.843a173.7 173.7 0 0 1 .12 4.332c.04 2.154.249 4.327.048 6.459-.21 2.218-.638 4.457-1.317 6.577-.55 1.717-1.688 3.126-3.281 4.254-2.124 1.506-4.605 1.922-6.93 2.806a80.42 80.42 0 0 1-5.776 1.944c-1.162.343-2.393.446-3.577.723-1.136.265-2.26.588-3.374.935-.96.3-1.891.693-2.848 1.002-1.631.525-3.272 1.021-4.911 1.522-1.928.588-3.86 1.161-5.787 1.753-1.7.524-3.387 1.089-5.094 1.589-.875.256-1.782.4-2.67.613-1.242.298-2.478.62-3.72.919-1.002.242-2.011.452-3.011.697-1.366.335-2.717.732-4.092 1.023-1.473.313-2.969.52-4.45.799-1.16.219-2.309.498-3.469.714-1.146.213-2.26.398-3.39.825-1.793.677-3.763.885-5.654 1.309-2.1.47-4.204.924-6.288 1.454-1.304.331-2.567.821-3.865 1.179-.617.17-1.281.157-1.909.294-1.396.306-2.776.683-4.175.976-1.02.213-2.056.37-3.093.484-.289.032-.604-.179-.985-.304Zm-41.185-87.81c-.193.138-.46.486-.754.511-1.11.095-2.23.066-3.344.126-.404.021-1.009.026-1.169.269-.994 1.506-2.247 2.842-2.718 4.693-.494 1.938-.536 3.892-.581 5.85-.049 2.136.04 4.275.077 6.413.044 2.489.071 4.979.153 7.466.064 1.945.194 3.888.307 5.831.083 1.416.195 2.831.275 4.247.03.514-.033 1.035.021 1.545.028.263.3.503.321.765.104 1.288.123 2.584.243 3.87.144 1.532.36 3.058.546 4.586.197 1.616.4 3.231.592 4.848.077.651.15 1.304.193 1.958.018.264-.085.536-.066.799.03.414.183.826.166 1.234-.026.612.239 1.151.208 1.812-.069 1.465.377 2.951.568 4.434.101.783.089 1.58.161 2.368.171 1.871.347 3.741.548 5.609.164 1.533.367 3.062.555 4.593.292 2.377.488 4.772.905 7.128.447 2.529.996 5.074 2.897 7.017.391.4.923.883 1.42.921 1.59.119 3.194.045 4.792.049 1.656.004 3.315.071 4.968 0 1.248-.054 2.492-.255 3.731-.437 1.365-.201 2.715-.522 4.085-.671 1.639-.179 3.322-.074 4.929-.386 1.467-.284 2.971-.237 4.424-.713 1.282-.419 2.667-.546 4.015-.732 1.173-.162 2.37-.155 3.536-.348 1.868-.309 3.726-.691 5.576-1.098 1.55-.342 3.078-1.051 4.625-1.081 2.117-.04 3.959-.966 5.966-1.321 2.429-.43 4.799-1.194 7.2-1.789a111.75 111.75 0 0 1 4.096-.927c1.383-.287 2.781-.502 4.162-.801 1.381-.3 2.746-.678 4.124-.991.419-.095.875-.034 1.29-.139.971-.246 1.916-.601 2.893-.817 1.022-.227 2.08-.294 3.103-.519 1.846-.406 3.684-.851 5.513-1.327 2.71-.707 5.415-1.435 8.11-2.195 1.266-.358 2.501-.827 3.758-1.22 1.327-.415 2.66-.813 3.998-1.194 1.174-.334 2.311-.776 3.462-1.167 2.246-.763 4.568-1.306 6.866-1.915 1.474-.39 2.972-.695 4.438-1.113 1.232-.351 2.425-.838 3.65-1.213 1.842-.564 3.709-1.047 5.542-1.637.977-.314 1.894-.808 2.857-1.173 1.931-.734 3.029-2.139 3.533-4.103.567-2.213.408-4.474.549-6.716.202-3.214-.049-6.402-.398-9.592-.13-1.196-.151-2.405-.226-3.607-.067-1.083-.142-2.166-.207-3.249-.015-.255-.002-.512-.002-.768-.008-.337-.257-.668-.307-1.027-.133-.955-.188-1.921-.261-2.884-.17-2.28-.325-4.562-.503-6.841-.056-.715-.234-1.425-.244-2.139-.035-2.745-.033-5.49-.029-8.235.003-1.409.086-2.82.051-4.228-.044-1.73-.17-3.459-.269-5.188-.024-.413-.034-.836-.133-1.234-.282-1.131-.094-2.291-.325-3.444-.435-2.171-.552-4.405-.972-6.579-.251-1.303-.572-2.748-2.356-2.919-.565-.054-1.126-.179-1.692-.193-1.931-.049-3.865-.129-5.794-.071-1.782.053-3.559.354-5.341.387-1.683.031-3.34.17-5.007.405-1.809.255-3.645.327-5.468.489-1.909.17-3.818.342-5.725.533-1.452.145-2.899.339-4.352.48-.918.088-1.843.102-2.762.18-1.791.151-3.579.332-5.369.486-1.268.109-2.539.189-3.807.292-1.326.107-2.652.328-3.976.309-1.207-.017-2.358.668-3.632.126-.44-.187-1.129.276-1.715.34-1.222.135-2.452.195-3.678.297-1.34.111-2.681.215-4.018.356-1.597.169-3.185.423-4.785.551-2.217.178-4.447.212-6.661.42-2.199.207-4.382.588-6.579.828-2.346.255-4.701.422-7.049.653-1.911.187-3.818.419-5.728.618-1.32.138-2.645.238-3.964.387-1.385.157-2.762.382-4.149.523-1.415.145-2.844.173-4.256.348-1.584.196-3.152.53-4.735.744-1.325.18-2.663.261-3.993.41-1.025.115-2.043.29-3.069.398-1.089.115-2.186.155-3.275.277-1.32.147-2.632.364-3.953.505-.186.02-.401-.222-.602-.343Z"/><path fill="#000" d="m259.65 214.39-1.037.612c-.451-.578-.908-1.191-1.393-1.78-.446-.54-.976-1.019-1.373-1.59-.531-.765-.997-1.578-1.442-2.397-.543-.998-1.135-1.988-1.51-3.05-.215-.606-.039-1.35-.039-2.062l1.058-.33c.963 1.714 1.851 3.514 2.945 5.181 1.129 1.722 2.466 3.309 2.791 5.416Z"/><path fill="#000" d="m316.826 197.728-.987-.136c-.245-.033-.495-.043-.735-.097-1.33-.299-2.644-.391-3.911-1.229-.728-.481-1.554-1.061-2.152-1.602-.801-.726-1.11-2.024-1.548-3.11-.699-1.735-.768-3.529-.462-5.375.194-1.17.536-2.144 1.609-2.815.431-.27.635-.879 1.043-1.209 1.073-.871 2.228-1.642 3.303-2.51 1.482-1.198 2.922-2.449 4.379-3.678.403-.339.812-.671 1.206-1.021a15.502 15.502 0 0 0 3.816-5.182c.751-1.658.663-3.518-.208-5.266-.688-1.38-1.383-2.76-2.529-3.8-.989-.897-2.019-1.865-3.213-2.393-1.563-.69-3.282-1.224-4.974-1.371-1.689-.147-3.451.143-5.135.472a15.384 15.384 0 0 0-3.984 1.371c-1.333.678-2.519 1.643-3.759 2.498-.463.319-.913.662-1.341 1.027-1.037.886-2.124 1.728-3.065 2.708-.796.827-1.486 1.78-2.095 2.756-.716 1.145-1.07 2.405-1.345 3.77-.378 1.881.774 3.24 1.085 4.858.139.729 1.034 1.283 1.446 1.996.889 1.537 1.481 3.292 2.58 4.648 1.186 1.464 1.307 3.263 2.121 4.818.313.598.181 1.414.438 2.056.653 1.631-.021 3.193-.167 4.771-.045.488-.589.936-.918 1.392-1.674 2.323-5.763 3.093-8.264 1.547-1.683-1.041-3.286-2.232-5.046-3.118-1.569-.79-3.34-1.119-4.928.036-.628.457-.546 1.293-.525 2.062.019.692-.208 1.391-.367 2.32 1.402.921 3.23 1.878 4.751 3.189 1.458 1.256 3.17 2.055 4.68 3.168 1.525 1.123 3.336 1.854 4.711 3.057 1.372 1.2 3.039 1.768 4.451 2.827 1.975 1.482 4.171 2.666 6.214 4.064 1.601 1.096 3.061 2.399 4.679 3.467 1.339.885 1.679 2.219 2.101 3.583.514 1.665.495 3.336.427 5.061-.056 1.394.449 2.8.544 4.211.177 2.629.212 5.245-1.489 7.537-.588.793-.912 1.784-1.52 2.556-.604.767-1.43 1.358-2.13 2.054-1 .994-1.926 2.067-2.973 3.008-1.211 1.09-2.369 2.242-3.944 2.899-.97.405-1.774 1.191-2.681 1.759-1.337.837-2.71 1.617-4.049 2.452-1.072.669-2.066 1.479-3.183 2.058-1.734.9-3.553 1.635-5.316 2.482-1.384.664-2.73 1.408-4.109 2.087-1.097.54-2.223 1.023-3.326 1.553-1.743.837-3.464 1.724-5.223 2.526-.924.421-1.93.663-2.863 1.068-.769.334-1.468.825-2.228 1.183a328.156 328.156 0 0 1-5.692 2.606c-1.084.485-2.196.91-3.279 1.398-.969.436-1.9.958-2.878 1.371-.714.301-1.506.424-2.212.74-.96.43-1.871.969-2.805 1.458-1.196.627-2.385 1.268-3.592 1.871a253.85 253.85 0 0 1-5.598 2.737c-1.191.559-2.43 1.016-3.63 1.557-1.728.779-3.434 1.608-5.163 2.386-.985.443-2.002.817-2.997 1.239a492.928 492.928 0 0 0-4.359 1.877c-1.869.812-3.752 1.597-5.598 2.459-1.433.67-2.803 1.474-4.233 2.151-.911.431-1.891.711-2.819 1.108-.692.296-1.366.643-2.018 1.019-1.344.775-2.59 1.795-4.023 2.317-1.227.448-2.176 1.537-3.667 1.459-.492-.025-.986.758-1.54 1.06-1.732.946-3.498 1.829-5.241 2.756-1.576.839-3.124 1.732-4.71 2.55a135.96 135.96 0 0 1-5.338 2.625 33.95 33.95 0 0 1-3.484 1.359c-.455.152-1.005.154-1.485.071-1.099-.191-2.193-.172-3.301-.179-.773-.005-1.592-.278-2.303-.616-.788-.375-1.533-.894-2.194-1.469-.899-.782-1.63-1.762-2.558-2.502-1.467-1.17-2.215-3.041-3.952-3.925-.059-.03-.15-.049-.169-.096-.589-1.521-2.038-2.327-2.99-3.549-.919-1.181-1.984-2.249-2.97-3.378-1.007-1.153-1.988-2.328-3-3.476-.255-.289-.614-.486-.877-.769a210.601 210.601 0 0 1-3.69-4.048c-.562-.639-1.01-1.378-1.573-2.016-.377-.428-.912-.716-1.294-1.141-2.006-2.229-3.98-4.487-5.981-6.721-.364-.406-.847-.709-1.197-1.123-.733-.866-1.256-2.021-2.161-2.593-.854-.541-1.212-1.356-1.839-1.997-1.151-1.177-2.159-2.492-3.292-3.689-.906-.955-1.94-1.79-2.856-2.737-.484-.501-.806-1.154-1.253-1.694-1.1-1.327-2.442-2.51-3.272-3.984-.544-.967-1.359-1.572-1.966-2.403-.407-.556-.699-1.196-1.116-1.742-.952-1.244-1.967-2.44-2.921-3.682-.515-.67-.922-1.422-1.44-2.089-.939-1.208-1.948-2.36-2.879-3.574-.566-.738-1.042-1.545-1.553-2.324-.699-1.062-1.483-2.081-2.067-3.203-.761-1.463-1.335-3.014-1.433-4.696-.048-.821-.166-1.641-.166-2.461 0-.225.308-.451.573-.808l-.686-.277c.065-.089.268-.338.256-.349-1.075-.962-.536-2.623-1.601-3.604-.704-.649-.813-1.747-1.347-2.399-.848-1.034-.842-2.251-1.277-3.35-.528-1.335-.813-2.771-1.14-4.178-.131-.562-.039-1.174-.144-1.746-.476-2.609-1.004-5.209-1.475-7.819-.161-.89-.174-1.807-.321-2.701-.181-1.095-.47-2.173-.645-3.268-.352-2.201-.664-4.408-.982-6.614-.131-.903-.509-1.884-.287-2.696.298-1.084-.4-1.863-.406-2.815-.006-1.001-.125-2.003-.224-3.001-.282-2.838-.623-5.671-.854-8.512-.124-1.517-.038-3.05-.109-4.573-.03-.645-.286-1.28-.321-1.925-.113-2.026-.14-4.057-.263-6.081-.052-.858-.301-1.703-.389-2.561-.108-1.058-.137-2.125-.209-3.188-.068-1-.188-1.998-.21-2.998-.018-.857.097-1.717.103-2.575.004-.706-.052-1.414-.108-2.119-.084-1.054-.222-2.105-.283-3.16-.119-2.063-.21-4.127-.295-6.192-.041-1.015-.005-2.034-.072-3.047-.068-1.021-.224-2.037-.337-3.056-.282-2.546-.56-5.093-.843-7.639-.212-1.905-.497-3.804-.63-5.714-.17-2.45-.006-4.89.936-7.197.573-1.403 2.013-1.495 3.224-1.9.154-.051.33-.039.554-.063l-.132-.67c.81-.278 1.592-.677 2.416-.804 2.28-.353 4.584-.55 6.867-.89 1.799-.268 3.576-.678 5.37-.984.997-.169 2.007-.259 3.013-.376 2.806-.325 5.616-.619 8.417-.979 1.322-.17 2.622-.515 3.943-.688 1.33-.174 2.677-.21 4.011-.35.874-.093 1.736-.354 2.608-.379 1.251-.036 2.402-.553 3.738-.383 1.164.149 2.412-.484 3.639-.668 1.839-.276 3.692-.456 5.538-.686.718-.089 1.432-.208 2.149-.304 2.256-.302 4.514-.584 6.767-.904 1.666-.237 3.322-.544 4.99-.774.846-.117 1.71-.109 2.561-.198 2.004-.21 4.005-.445 6.007-.671.443-.05.887-.099 1.328-.162 1.531-.215 3.056-.478 4.592-.645 1.806-.197 3.622-.302 5.432-.465 1.435-.13 2.867-.282 4.3-.432 1.938-.203 3.875-.413 5.812-.62 1.611-.171 3.22-.356 4.833-.509 2.174-.206 4.367-.284 6.521-.613 1.527-.234 3.096-.098 4.6-.647.677-.247 1.511-.05 2.272-.088.909-.045 1.817-.135 2.727-.19 2.336-.14 4.679-.213 7.009-.422 1.859-.167 3.703-.493 5.553-.75.1-.014.206-.076.296-.057 2.151.466 4.25-.566 6.422-.191.739.127 1.565-.344 2.363-.434 1.135-.128 2.282-.137 3.42-.232 1.098-.092 2.193-.227 3.288-.346 1.95-.212 3.901-.418 5.849-.642 1.961-.225 3.915-.53 5.88-.685a29.678 29.678 0 0 1 4.492-.038c.895.066 1.663 1.228 1.794 2.213.247 1.87.724 3.738.708 5.603-.01 1.171.408 2.227.391 3.375a31.05 31.05 0 0 0 .263 4.468c.25 1.896.7 3.765.972 5.659a32.16 32.16 0 0 1 .324 4.088c.016 1.153-.224 2.309-.22 3.463.003 1.226.188 2.45.243 3.677.075 1.67.083 3.342.155 5.013.066 1.537.2 3.072.268 4.61.1 2.244.159 4.49.252 6.735.062 1.524.198 3.046.215 4.57.017 1.586-.09 3.172-.102 4.759-.009 1.037.092 2.075.074 3.111-.019 1.012-.339 2.065-.145 3.023.282 1.397.095 2.771.155 4.15.095 2.177.008 4.362.066 6.542.074 2.83.218 5.658.327 8.487.075 1.933.105 3.869.222 5.8.122 2.002.37 3.996.469 5.998.037.756-.189 1.525-.302 2.341 1.472.999 3.056 1.991 4.545 3.109 1.26.947 2.405 2.045 3.613 3.062.126.107.384.211.489.152.147-.081.331-.36.288-.479-.437-1.22.315-2.231.83-3.089.451-.75 1.507-1.285 2.406-1.585a8.687 8.687 0 0 1 3.833-.397c1.699.204 3.197.793 4.627 1.61 1.155.661 2.186 1.54 3.352 2.175.667.362 1.499.594 2.25.578.552-.012 1.11-.496 1.637-.816 1.073-.651.93-1.859 1.105-2.837.124-.697-.225-1.511-.474-2.235a25.255 25.255 0 0 0-1.227-2.985c-.403-.817-.962-1.556-1.42-2.348-.999-1.726-2.065-3.421-2.937-5.21-.736-1.511-1.328-3.108-1.815-4.717-.481-1.588-.237-3.136.42-4.717.512-1.233.851-2.546 1.651-3.634.867-1.178 1.819-2.294 2.747-3.426.317-.388.673-.744 1.013-1.113a15.85 15.85 0 0 1 4.312-3.312c.639-.336 1.147-.926 1.793-1.242a27.996 27.996 0 0 1 3.477-1.434c1.17-.387 2.384-.657 3.594-.909.789-.164 1.603-.239 2.409-.292 1.004-.066 2.046-.244 3.012-.061 1.802.34 3.687.365 5.369 1.27 1.147.617 2.48.964 3.491 1.741 1.083.831 1.926 1.992 2.798 3.07.556.687.999 1.471 1.444 2.239.181.311.213.705.35 1.046.657 1.641 1.097 3.316.941 5.107-.147 1.69-.323 3.344-1.465 4.754-.563.694-.87 1.589-1.403 2.313-.356.482-.934.795-1.358 1.235-.235.244-.292.67-.542.885a263.84 263.84 0 0 1-5.22 4.401 85.005 85.005 0 0 1-3.759 2.927c-1.032.754-1.908 1.555-2.129 2.909-.291 1.783.301 3.205 1.413 4.59.9 1.12 2.217 1.506 3.319 2.242.65.435 1.645.531 2.462.47.4-.03.923-.705 1.087-1.189.535-1.579 1.471-2.791 2.841-3.717.844-.569 1.653-1.189 2.482-1.781 1.73-1.235 3.656-1.977 5.704-2.574 1.697-.495 3.379-.873 5.13-.943 2.727-.107 5.411.247 8.032.983 1.475.414 2.914.959 4.367 1.455.573.196 1.317.264 1.664.665.526.607 1.223.746 1.845 1.071.817.426 1.695.734 2.516 1.151 1.837.934 3.645 1.924 5.487 2.846.651.326 1.404.452 2.043.793 1.446.773 2.987 1.458 4.229 2.49 1.111.924 1.983 2.197 2.759 3.441.926 1.483 1.223 3.211 1.62 4.915.624 2.681.765 5.37.569 8.07-.131 1.807-.529 3.606-.939 5.379-.28 1.211-.656 2.44-1.236 3.532-.419.789-1.153 1.496-1.906 2.007a40.894 40.894 0 0 1-4.494 2.626c-.838.423-1.992.348-2.688.896-1.13.89-2.469.788-3.682 1.103-2.176.564-4.423.91-6.719.329-1.426-.36-2.931-.398-4.377-.694-1.681-.344-3.367-.718-4.994-1.25-1.765-.578-3.446-1.405-5.2-2.025-1.241-.439-2.536-.736-3.818-1.055-.795-.198-1.476-.43-2.008-1.175-.386-.541-1.125-.832-1.71-1.23-1.353-.923-2.783-1.753-4.038-2.794-.812-.674-1.414-1.623-2.027-2.505-.69-.995-1.415-1.998-1.892-3.098-.705-1.624-1.433-3.297-1.731-5.022-.374-2.157-.412-4.386-.414-6.585-.001-.953.451-1.907.781-3.187Zm-214.235-50.583-.084-2.912-.351.017c0 .921-.007 1.843.014 2.763.002.07.206.134.316.201-.058.315-.17.632-.158.944.015.401.19.798.189 1.197-.002 1.06-.11 2.122-.085 3.181.027 1.154.184 2.305.225 3.459.013.353-.166.713-.195.827.168 1.092.359 2.025.447 2.968.121 1.284.143 2.577.249 3.863.056.676.262 1.343.294 2.019.061 1.285.008 2.576.072 3.861.066 1.325.212 2.646.326 3.968.089 1.026.207 2.051.268 3.078.095 1.568.156 3.137.224 4.706.049 1.127-.151 2.334.193 3.361.386 1.149.237 2.256.329 3.38.033.404-.021.816.008 1.221.034.486.115.969.191 1.582.531.204.745-.078.674-.865a203.61 203.61 0 0 1-.474-6.337c-.133-2.265-.185-4.535-.324-6.8-.111-1.824-.324-3.643-.443-5.467-.098-1.503-.093-3.012-.19-4.515-.131-2.025-.341-4.046-.47-6.071-.125-1.969-.186-3.942-.284-5.913-.069-1.384-.086-2.776-.252-4.15-.145-1.2-.466-2.378-.709-3.566Zm35.159 102.729c1.533.118 1.692 1.933 2.771 2.788.444.351.675.96 1.043 1.419 1.123 1.402 2.278 2.779 3.398 4.183.653.82 1.226 1.704 1.901 2.505 1.137 1.348 2.35 2.633 3.486 3.982 1.12 1.329 2.167 2.718 3.276 4.057.843 1.019 1.749 1.987 2.599 3.001 1.222 1.457 2.382 2.967 3.635 4.396 1.419 1.617 2.929 3.154 4.362 4.759.567.635.893 1.6 1.574 1.993 1.345.775 2.121 2.032 3.138 3.079 1.079 1.111 2.028 2.356 3.164 3.401.994.914 2.087 1.686 2.15 3.194.002.051.085.099.134.146 1.001.949 2.268 1.268 3.523.962 1.548-.377 3.048-.994 4.525-1.612 2.452-1.025 4.868-2.135 7.302-3.205 1.89-.832 3.782-1.659 5.676-2.483.604-.263 1.233-.476 1.818-.774 1.235-.631 2.431-1.338 3.676-1.949 2.199-1.08 4.433-2.092 6.632-3.173 1.057-.519 2.063-1.14 3.101-1.7 1.009-.545 2.024-1.08 3.045-1.602.728-.372 1.473-.71 2.206-1.072.717-.354 1.43-.714 2.141-1.077a831.99 831.99 0 0 0 3.763-1.929c1.331-.687 2.666-1.365 3.981-2.081.772-.42 1.478-.963 2.264-1.348 1.53-.752 3.096-1.43 4.645-2.142 1.234-.568 2.489-1.098 3.693-1.724 1.25-.651 2.434-1.427 3.677-2.092 1.274-.68 2.611-1.243 3.872-1.944 1.847-1.027 3.658-2.115 5.655-2.845.252-.092.486-.237.72-.37 2.073-1.176 4.131-2.377 6.221-3.52.863-.473 1.819-.775 2.687-1.239 1.505-.805 2.969-1.685 4.46-2.518 1.02-.569 2.054-1.111 3.082-1.664 1.137-.611 2.266-1.236 3.413-1.827 1.02-.525 2.083-.97 3.085-1.527 1.826-1.014 3.613-2.098 5.429-3.128 1.177-.668 2.4-1.258 3.564-1.947 1.316-.779 2.573-1.659 3.889-2.441 1.215-.722 2.478-1.363 3.71-2.058 2.659-1.499 5.309-3.015 7.969-4.513.759-.427 1.551-.796 2.31-1.223 1.15-.647 2.277-1.335 3.431-1.977.519-.289 1.156-.413 1.597-.781.572-.479 1.369-1.112 1.393-1.705.025-.618.162-1.129.348-1.678.267-.785-.719-3.204-1.347-3.571a98.47 98.47 0 0 1-4.367-2.688c-1.306-.86-2.533-1.838-3.839-2.698-1.092-.72-2.259-1.326-3.371-2.017-1.164-.723-2.298-1.493-3.45-2.233-1.577-1.013-3.166-2.007-4.736-3.031a126.641 126.641 0 0 1-3.857-2.593c-.734-.517-1.34-1.257-2.127-1.649-1.637-.814-2.693-2.343-4.331-3.193-1.196-.62-2.048-1.868-3.139-2.727-1.051-.828-2.251-1.468-3.314-2.283-.777-.596-1.335-1.545-2.177-1.968-.947-.476-1.569-1.153-2.238-1.897-.471-.523-1.133-.996-1.798-1.186-.52-.149-1.188.128-1.768.291-1.013.283-1.992.703-3.016.922-1.419.305-2.873.441-4.3.716-1.835.354-3.658.775-5.486 1.164-2.155.458-4.303.948-6.467 1.359-2.143.406-4.208 1.23-6.434 1.195-.152-.003-.308.051-.459.09-1.058.276-2.106.603-3.176.821-1.996.407-4.009.727-6.006 1.129-1.645.332-3.274.747-4.917 1.094-1.052.223-2.119.378-3.174.593-.315.064-.601.269-.916.339-2.006.44-4.017.854-6.022 1.294-.369.081-.71.306-1.08.36-1.014.146-2.048.179-3.054.365-1.082.199-2.139.535-3.214.783-.703.163-1.421.261-2.128.412-1.004.215-2 .472-3.006.672-.707.141-1.435.183-2.14.332-1.194.253-2.37.601-3.569.827-1.297.245-2.605.491-3.896.713-1.182.204-2.374.734-3.618 1.009-2.692.595-5.338 1.394-8.009 2.083-1.239.319-2.525.487-3.732.894-.729.245-1.406.608-2.2.689-.642.065-1.277.231-1.904.397-.458.122-.885.38-1.347.47-2.572.501-5.178.815-7.686 1.652-1.028.343-2.163.356-3.24.568-1.772.348-3.534.752-5.307 1.104-2.487.494-4.981.949-7.468 1.446-1.508.302-3.001.679-4.51.972-1.597.31-3.211.531-4.807.847-1.247.247-2.475.59-3.718.857-.109.023-.272-.207-.411-.32l.038.271c-5.075 1.117-10.18 2.094-15.216 2.986.965 1.015 1.912 1.982 2.826 2.98 1.659 1.813 3.448 3.534 4.897 5.503 1.138 1.547 2.332 3.045 3.469 4.585.826 1.12 1.495 2.334 2.584 3.256.453.383.78.918 1.143 1.4.392.522.725 1.092 1.145 1.59.754.895 1.568 1.738 2.327 2.627.556.652 1.05 1.357 1.597 2.017.73.881 1.5 1.731 2.216 2.622.126.156.075.453.116.761Zm-32.69-117.735c.048.161.226.551.275.956.141 1.164.237 2.334.338 3.503.117 1.359.239 2.718.327 4.079.128 1.98.216 3.963.346 5.944.062.949.193 1.893.268 2.842.062.787.061 1.58.136 2.367.077.813.266 1.619.306 2.433.06 1.195-.143 2.429.08 3.586.365 1.899.203 3.804.351 5.701.098 1.263-.09 2.587.229 3.784.434 1.626-.099 3.278.488 4.916.376 1.05.061 2.336.108 3.514.089 2.265.222 4.528.324 6.793.041.928-.159 1.924.12 2.768.352 1.06.365 2.113.467 3.179.128 1.348.239 2.698.381 4.045.187 1.764.41 3.523.593 5.287.204 1.972.378 3.947.57 5.921.349 3.586.617 7.183 1.108 10.749.137.999.317 2.205 1.297 2.914.594.429 1.311.707 1.852 1.188.883.785 1.694.648 2.565.057.074-.05.185-.046.28-.064 2.246-.428 4.497-.829 6.736-1.288 2.694-.553 5.372-1.187 8.069-1.72 1.115-.221 2.206-.509 3.385-.53 1.089-.019 2.156-.617 3.255-.853 1.623-.349 3.268-.6 4.902-.902.612-.113 1.212-.304 1.828-.373.842-.093 1.705-.028 2.536-.169.986-.167 1.942-.503 2.92-.723.569-.127 1.171-.115 1.733-.261 1.419-.368 2.828-.777 4.233-1.194 1.844-.548 3.798-.452 5.646-1.073 1.376-.463 2.877-.544 4.302-.881 1.031-.243 2.016-.675 3.043-.941 1.995-.517 4.009-.962 6.008-1.466.999-.252 1.974-.601 2.975-.846 1.913-.468 3.88-.766 5.741-1.385 1.016-.339 2.077-.314 3.104-.734.924-.377 2.093-.26 3.078-.754.184-.093.454-.004.682-.024.521-.047 1.207.077 1.526-.205.673-.596 1.305-.546 2.07-.385.278.058.626-.164.929-.289.277-.113.523-.335.806-.392 1.494-.298 3.001-.535 4.494-.837a459.432 459.432 0 0 0 7.981-1.678c.659-.146 1.322-.707 1.916-.62 1.23.181 2.279-.32 3.395-.546 1.376-.279 2.722-.696 4.095-.992 2.067-.447 4.142-.855 6.22-1.252 1.49-.285 2.985-.55 4.486-.767.459-.067 1.191.263 1.376.05.87-1.007 2.144-.625 3.182-1.032 1.654-.649 3.499-.818 5.265-1.181 2.203-.454 4.409-.895 6.612-1.349 1.513-.312 3.023-.637 4.534-.957 1.548-.328 3.087-.708 4.646-.97 1.36-.228 2.78-.177 4.101-.525 1.074-.283 2.043-.968 3.049-1.493.086-.045.129-.231.137-.355.029-.454.076-.913.042-1.364-.161-2.113-.386-4.222-.513-6.337-.138-2.293-.215-4.59-.275-6.886-.039-1.497-.056-2.998.015-4.493.128-2.719-.252-5.43.038-8.159.173-1.626-.063-3.293-.087-4.942-.035-2.3-.027-4.601-.068-6.9-.052-2.88-.102-5.76-.215-8.638-.124-3.185-.345-6.366-.474-9.55-.09-2.211-.076-4.427-.148-6.639-.042-1.327-.171-2.651-.238-3.977-.036-.716.021-1.439-.041-2.152-.157-1.826-.355-3.648-.541-5.471-.203-1.999-.436-3.995-.613-5.996-.228-2.588-.414-5.181-.621-7.814-.417-.323-.942-.756-1.495-1.149-.387-.275-.818-.712-1.22-.7-1.346.038-2.689.24-4.032.387-.708.077-1.439.08-2.115.272-1.213.343-2.476.086-3.708.525-.978.348-2.129.216-3.204.29a24.35 24.35 0 0 1-1.247.048c-.748.012-1.503-.05-2.242.035-1.952.225-3.893.542-5.845.764-1.084.123-2.184.094-3.271.195-1.707.16-3.407.39-5.113.551-.717.068-1.448-.013-2.164.057-1.612.157-3.216.397-4.828.548-2.151.2-4.307.34-6.46.522-1.956.166-3.91.361-5.867.53-1.83.159-3.668.255-5.492.462-2.241.255-4.467.632-6.707.889-1.552.179-3.14.12-4.671.397-1.42.258-2.855.263-4.278.506-2.108.36-4.27.407-6.408.591-1.491.129-2.987.219-4.47.408-1.578.201-3.138.536-4.716.743-1.544.203-3.104.279-4.649.482-2.139.281-4.267.658-6.406.939-1.674.22-3.361.331-5.036.539-1.377.171-2.743.436-4.12.613-.4.051-.839-.147-1.229-.074-.711.134-1.388.451-2.1.575-1.316.23-2.649.359-3.97.564-1.155.179-2.294.47-3.453.597-2.506.276-5.025.444-7.53.729-.952.109-1.882.238-2.851.276-1.587.063-3.144.681-4.734.934-2.142.341-4.301.578-6.457.823-2.838.324-5.679.623-8.521.91-.881.089-1.917-.168-2.623.211-1.283.688-1.864 2.127-2.211 3.454-.228.872.151 1.909.29 2.868.132.904.375 1.796.434 2.703.041.626-.148 1.267-.216 1.77.186.407.445.757.499 1.135.119.833.119 1.682.196 2.522.124 1.349.292 2.695.394 4.045.027.353-.119.72-.22 1.262Zm73.936 164.914.535 6.534c.461-.097.807-.108 1.095-.241 1.596-.738 3.216-1.436 4.755-2.281 1.532-.842 2.973-1.834 4.629-2.463.908-.345 1.741-.898 2.585-1.394.813-.477 1.564-1.068 2.403-1.491 1.698-.858 3.447-1.616 5.157-2.45a280.627 280.627 0 0 0 5.958-2.988c1.015-.526 1.896-1.226 3.107-1.457.858-.164 1.584-.953 2.409-1.387.516-.272 1.335-.238 1.62-.629.696-.958 1.86-.84 2.724-1.428 1.108-.754 2.545-1.015 3.812-1.555.844-.359 1.619-1.141 2.457-1.19 1.448-.084 2.28-1.192 3.498-1.615 1.716-.597 3.381-1.342 5.045-2.077 1.117-.494 2.193-1.083 3.29-1.625.821-.405 1.637-.821 2.472-1.196.819-.367 1.67-.664 2.486-1.036.609-.278 1.172-.654 1.779-.938.893-.417 1.824-.757 2.707-1.193.942-.465 1.829-1.044 2.774-1.503 1.251-.608 2.547-1.125 3.802-1.727.649-.312 1.322-.43 1.94-1.02.685-.654 1.967-.643 2.925-1.065 2.007-.886 3.958-1.899 5.959-2.8 1.88-.846 3.799-1.606 5.692-2.423 1.321-.57 2.634-1.161 3.94-1.765 1.089-.503 2.165-1.036 3.244-1.561.387-.189.764-.397 1.147-.594.896-.459 1.783-.937 2.693-1.369 1.153-.548 2.34-1.025 3.483-1.591 1.169-.58 2.298-1.237 3.45-1.85a401.404 401.404 0 0 1 4.005-2.105c.448-.232.904-.455 1.373-.639.43-.169 1.12-.147 1.281-.438.62-1.114 1.843-1.323 2.742-1.993 1.577-1.177 3.407-2.034 4.907-3.29 1.097-.919 2.35-1.671 3.225-2.928.826-1.188 2.136-2.031 3.122-3.126.651-.723 1.287-1.557 1.607-2.456.493-1.381.54-2.869.308-4.342-.065-.412-.093-.831-.127-1.147-2.221 1.162-4.455 2.347-6.705 3.5-.886.454-1.847.77-2.703 1.269-1.348.785-2.606 1.724-3.957 2.502-1.673.964-3.428 1.786-5.099 2.752-2.036 1.176-3.995 2.485-6.037 3.651-2.323 1.326-4.703 2.552-7.053 3.832-1.611.878-3.209 1.778-4.82 2.657a871.97 871.97 0 0 1-6.239 3.375c-1.739.931-3.478 1.863-5.24 2.748-.675.339-1.681.347-2.073.858-1.044 1.365-2.721 1.586-3.994 2.519-1.195.875-2.673 1.362-4.013 2.046-.948.483-1.864 1.029-2.813 1.511-1.295.658-2.616 1.265-3.909 1.927-.949.486-1.842 1.086-2.81 1.526-1.272.577-2.581 1.038-3.701 1.938-.513.412-1.27.517-1.905.787-.726.309-1.467.599-2.152.986-.918.518-1.753 1.187-2.685 1.673-1.608.84-3.278 1.562-4.897 2.382-1.332.675-2.621 1.432-3.942 2.129-1.66.876-3.335 1.721-4.996 2.594-.812.427-1.562 1.119-2.419 1.281-1.514.285-2.587 1.378-4.018 1.829-1.335.422-2.481 1.411-3.748 2.079-1.434.755-2.9 1.45-4.369 2.136-1.153.538-2.333 1.018-3.498 1.531-1.647.725-3.299 1.442-4.936 2.19-.949.435-1.855.965-2.811 1.384a343.536 343.536 0 0 1-6.823 2.896c-.259.107-.601.015-.916.015-.493 1.319-2.104.6-2.734 1.329Zm151.804-77.14c.834.191 1.663.299 2.433.574 1.409.502 2.762 1.161 4.176 1.645 1.547.53 3.134.943 4.707 1.395 1.235.356 2.463.912 3.715.977 1.174.06 2.192.78 3.463.476 1.101-.263 2.308-.06 3.465-.125 2.381-.134 4.608-.895 6.765-1.837 1.248-.545 2.576-1.074 3.594-1.932 1.35-1.138 2.245-2.69 2.649-4.471.46-2.033.714-4.097.688-6.169a46.823 46.823 0 0 0-.441-5.671c-.268-1.979-1.146-3.836-2.605-5.115-1.666-1.461-3.54-2.756-5.677-3.561-.851-.321-1.673-.718-2.499-1.101a76.795 76.795 0 0 1-2.326-1.134c-.652-.33-1.292-.682-2.002-1.059-2.49 1.225-5.216 2.394-7.413 4.451-.417.348-.865.696-1.256 1.1-1.111 1.147-2.261 2.265-3.278 3.492-.861 1.037-1.549 2.215-2.329 3.32-.425.603-.657 1.438-1.032 1.89-1.186 1.428-1.7 3.084-2.272 4.745-.326.948-.522 1.94-.816 2.9-.441 1.442-.916 2.874-1.38 4.309-.07.215-.155.425-.329.901Zm-216.717 5.863-.294.198c.097.531.213 1.059.288 1.592.091.648.156 1.299.217 1.949.08.856.011 1.735.429 2.532.458.871.864 1.775 1.389 2.603.694 1.094 1.503 2.114 2.222 3.191.605.906 1.103 1.885 1.741 2.765.547.753 1.244 1.396 1.836 2.12.33.402.578.871.868 1.307.706 1.062 1.353 2.169 2.137 3.17.914 1.169 1.979 2.218 2.923 3.365 1.464 1.779 2.861 3.613 4.327 5.39.746.905 1.615 1.71 2.365 2.613.631.761 1.175 1.595 1.748 2.403.467.659.917 1.33 1.381 1.99.053.076.15.175.224.174.97-.021 1.233.934 1.798 1.407 1.133.949 2.007 2.201 3.018 3.3.477.519 1.066.937 1.533 1.464 1.032 1.162 1.991 2.39 3.032 3.544 1.287 1.427 2.646 2.79 3.941 4.211 1.789 1.964 3.552 3.953 5.319 5.938.883.992 1.741 2.007 2.63 2.994 1.328 1.477 2.68 2.932 4.007 4.409.578.644 1.096 1.341 1.683 1.976.715.772 1.497 1.483 2.209 2.258.854.929 1.639 1.921 2.503 2.841.908.967 1.871 1.883 2.815 2.816.923.911 1.844 1.826 2.79 2.713.143.133.419.162.633.161.075 0 .21-.235.214-.366.044-1.654.093-3.309.069-4.963-.003-.205-.383-.476-.644-.595-1.089-.493-2.463-.689-3.218-1.481-.606-.635-1.11-1.545-1.693-2.31-.689-.905-1.313-1.869-2.081-2.701-1.319-1.431-2.745-2.764-4.091-4.171-.742-.775-1.406-1.623-2.116-2.428-.866-.98-1.742-1.95-2.618-2.92-.858-.951-1.739-1.882-2.577-2.85-.835-.965-1.613-1.98-2.447-2.947-.62-.719-1.318-1.371-1.925-2.099-.366-.44-1.122-.658-.929-1.457-1.221-.043-1.117-1.317-1.767-1.898-.407-.364-.714-.837-1.086-1.242-.576-.628-1.209-1.208-1.747-1.865-.803-.98-1.517-2.032-2.32-3.011-.692-.845-1.496-1.6-2.18-2.451-.889-1.105-1.674-2.283-2.655-3.328-.949-1.01-1.697-2.205-2.558-3.299-1.404-1.783-2.799-3.574-4.251-5.318-1.325-1.591-2.731-3.115-4.074-4.691-.249-.292-.309-.746-.563-1.031-.639-.72-1.336-1.39-2.014-2.074-.247-.249-.637-.44-.737-.734-.28-.82-.771-1.396-1.369-2.039-1.279-1.376-2.283-3.008-3.393-4.54-.49-.677-.936-1.387-1.449-2.046a298.993 298.993 0 0 0-4.13-5.203c-.399-.49-.906-.893-1.363-1.336Zm214.888-7.493c.065-1.143.019-2.148.199-3.112.37-1.992.823-3.971 1.325-5.935.162-.637.607-1.198.884-1.812.505-1.119.885-2.305 1.498-3.359.505-.87 1.288-1.577 1.919-2.38.985-1.253 1.946-2.525 2.956-3.84-.522-.344-1.191-.976-1.985-1.264-1.441-.522-2.944-.893-4.443-1.229-2.375-.533-4.786-.913-7.144-1.507-.928-.234-1.579-.258-2.043.639-.087.168-.06.408-.17.551-.842 1.099-1.551 2.248-1.83 3.639a29.552 29.552 0 0 0-.527 3.834c-.175 2.584.097 5.081 1.121 7.471.199.465.487.896.769 1.321.769 1.159 1.421 2.436 2.371 3.427 1.313 1.368 2.931 2.418 4.554 3.419.211.13.505.128.546.137Zm-2.383-27.611c.675.192 1.381.64 1.957.512 1.942-.433 3.608.545 5.26 1.071 2.047.654 4.183 1.385 5.93 2.772.543.431.904.455 1.397-.047.389-.396.897-.674 1.348-1.011 1.359-1.014 2.716-2.03 4.152-3.105-.873-.355-1.807-.738-2.744-1.113-2.178-.874-4.414-1.529-6.774-1.64-1.738-.081-3.443-.002-5.192.313-2.052.37-3.878.972-5.334 2.248Zm-220.705 1.234-.37-.025.144 2.569.226.014v-2.558Z"/></g><defs><linearGradient id="b" x1="97" x2="307" y1="95" y2="95" gradientUnits="userSpaceOnUse"><stop stop-color="#9059FF"/><stop offset=".521" stop-color="#FF4AA2"/><stop offset="1" stop-color="#FFBD4F"/></linearGradient><clipPath id="a"><rect width="341" height="215" fill="#fff" transform="translate(29 92)"/></clipPath></defs></svg>
