<!-- This Source Code Form is subject to the terms of the Mozilla Public
   - License, v. 2.0. If a copy of the MPL was not distributed with this
   - file, You can obtain one at https://mozilla.org/MPL/2.0/. -->
<svg xmlns="http://www.w3.org/2000/svg" fill="none" viewBox="0 0 328 380"><g clip-path="url(#a)"><path fill="#000" d="M23.148 347.261c-4.161.887-9.6 2.406-13.222-.661-2.346-1.988-5.762 1.396-3.398 3.398 5.208 4.411 11.74 3.21 17.898 1.897 3.023-.645 1.743-5.279-1.278-4.634Z"/><path fill="#939393" d="M9.252 348.168c11.247 1.899 22.706-2.497 34.029-3.239 14.311-2.485 29.143-3.339 43.208-6.267a.773.773 0 0 0 .21.261c-.93.144-1.452.752-1.62 1.463-15.751 1.712-31.854 3.239-47.316 6.682-9.86.397-19.881 4.784-29.626 2.333l1.115-1.233Z"/><path fill="#000" d="M104.188 317.739c-.95-5.083-5.413-9.339-10.492-10.228-7.418 1.035-14.942 1.879-22.263 3.404-15.452 2.03-31.208 4.758-46.853 7.047.01-.081.015-.163.02-.246-11.086 2.218-28.152 1.024-23.948 17.565-.1-.03-.193-.06-.281-.089 1.237 4.421 1.533 10.405 5.647 13.264l-.108.021c4.58 2.15 9.452 1.042 14.185.053l-.115-.056c.494-.519 1.569.308 1.777-.527 19.659-2.112 39.54-6.067 59.315-8.696 4.742-.79 9.685-.934 14.247-2.44 1.628-.515 2.914-2.485 4.615-.81-8.647 5.117-19.502 3.755-29.069 6.174-15.804 1.087-31.676 4.194-47.267 7.024.246.429.339.946.283 1.443 18.964-2.794 38.068-5.372 57.13-7.937 17.63-2.297 26.798-4.44 23.177-24.966Zm-5.393 14.452c-2.123.985-4.129 3.345-6.51 3.455-3.06.399-6.244 1.163-9.349 1.578-13.972 2.323-28.385 3.723-42.14 6.599-10.043.784-20.625 3.171-30.855 4.005-3.937-.166-6.232-4.171-6.749-7.852-.053-2.849-2.68-15.462 2.054-14.328 3.465-5.512 10.98-3.41 16.047-5.06.44-.458.875-.698 1.542-.484 1.061-.153 2.255-.93 3.401-.392 17.981-3.674 37.261-5.254 55.035-8.747 5.867-.034 13.205-3.641 17.343 2.342 1.27 5.96 3.237 13.07.18 18.884Zm4.518-9.941c.034 4.366-.144 8.829-2.261 12.772l-1.327-1.157c3.058-4.361 2.837-9.678 2.055-14.752-.261-1.354-.937-2.568-.069-3.886.983 2.267 1.535 4.597 1.602 7.023Z"/><path fill="#fff" d="m13.15 349.716.256-.046c-.718.073-1.436.153-2.153.233.63.007 1.263-.16 1.896-.187ZM46.466 333.468l-.012-.104c4.424-1.511 19.135-.178 20.307-4.619-.043-4.67-1.61-4.999-5.818-3.994-10.06 1.764-20.279 2.262-30.285 4.346-2.786.272-1.016 3.626-.89 5.374 1.314 2.381 13.175-1.458 16.698-1.003Zm-33.955-3.682c-.964-1.036-1.725-.929-2.346.309-6.66 9.834 8.117 18.938 14.271 8.617 3.538-5.466-.435-10.553-4.988-13.448-2.124-1.409-3.163 4.068-4.348 5.412-.624-1.555-1.54-2.571-2.588-.89Zm79.009-12.244c-1.492.421-1.731 3.592-3.204 3.418-4.666-3.834-5.786-1.162-.863 1.559-4.447 5.736-2.088 7.653 1.343 1.005 1.955.672 2.89 2.859 4.886 2.932.572-2.739-5.363-3.466-2.421-6.215.38-.825 1.664-1.526.259-2.699Z"/><path fill="#fff" d="M98.972 314.477c2.498 13.426 3.577 20.686-12.534 22.062-15.022 2.971-30.743 4.059-45.644 7.283-10.043.785-20.624 3.175-30.854 4.006-3.937-.165-6.23-4.172-6.746-7.851-.056-2.846-2.68-15.467 2.052-14.327 3.461-5.518 10.981-3.408 16.045-5.062.44-.457.877-.696 1.542-.485 1.064-.147 2.254-.931 3.401-.391 17.984-3.673 37.255-5.255 55.039-8.747 5.85-.063 14.982-3.997 17.7 3.512Z"/><path fill="#939393" d="M98.516 335.135c-10.246 5.014-22.481 4.052-33.549 6.555-14.428 1.679-28.892 5.071-43.21 6.257a.77.77 0 0 1-.127.309c.933-.126 1.606.309 1.968.943 15.59-2.83 31.464-5.937 47.267-7.025 9.567-2.418 20.422-1.056 29.07-6.173l-1.42-.866ZM101.711 315.227c2.519 6.247 2.185 13.719-.659 19.795l-1.327-1.157c3.058-4.361 2.837-9.678 2.055-14.752-.26-1.354-.937-2.568-.069-3.886Z"/><path fill="#000" d="M46.466 333.469c-3.585-.448-15.339 3.377-16.698 1.003-.142-1.747-1.881-5.104.89-5.375 10.006-2.083 20.225-2.582 30.285-4.346 4.156-1.001 5.803-.679 5.817 3.994-1.085 4.417-15.943 3.124-20.306 4.619l.012.105Zm-15.08.207c11.077-1.322 22.231-2.73 33.298-4.373 1.003-.335.625-3.481-.34-3.38-4.651.688-9.27 1.577-13.907 2.264-3.63 1.858-22.076.137-19.052 5.489ZM23.076 327.942c-1.675-.03-3.587-4.197-5.123-2.54-1.49 2.999-3.03 3.003-.069 5.254l.07.011c-.133.526-.524.865-.743 1.368a636.86 636.86 0 0 1-1.205-.598v-.001c-1.507-.504-1.77-4.241-3.494-1.65-2.02-2.242-2.647 1.506-3.56 2.751-2.224 4.397 2.006 9.429 6.179 10.695 7.995 1.829 14.303-9.69 7.945-15.29Zm-5.062 4.905c4.22 2.662-1.066 6.283-2.636 2.439.364-1.386 2.219-.869 2.636-2.439Zm5.596-1.45c2.4 4.899-2.052 9.148-6.394 10.815-4.772-.364-10.18-7.084-5.795-11.062.992 1.863 1.581-.166 2.428-.366-.193.717.59 1.778 1.485 2.15-3.59 2.151-.258 5.81 2.696 5.669 2.988-.437 4.098-4.159 1.913-6.165 2.084-2.042-1.128-2.862-2.66-3.571 1.207-3.623 3.215-1.563 4.25.873.74.551 1.946.377 2.077 1.657ZM91.52 317.542c1.405 1.173.12 1.874-.26 2.699-2.94 2.752 2.993 3.473 2.422 6.215-1.997-.073-2.93-2.26-4.886-2.932-3.448 6.669-5.777 4.706-1.343-1.005-4.932-2.729-3.794-5.387.863-1.559 1.472.175 1.712-2.999 3.204-3.418Z"/><path fill="url(#b)" d="M17.284 328.868c1.203-3.618 3.214-1.569 4.249.872.74.553 1.946.375 2.076 1.657 2.402 4.898-2.052 9.148-6.393 10.815-4.772-.364-10.18-7.084-5.795-11.062.992 1.863 1.581-.166 2.428-.365-.193.716.59 1.777 1.485 2.149-3.59 2.151-.258 5.81 2.696 5.669 2.987-.436 4.098-4.159 1.913-6.164 2.084-2.043-1.127-2.863-2.66-3.571Z"/><path fill="#6E62EB" d="M18.014 332.847c4.22 2.662-1.066 6.283-2.636 2.44.364-1.386 2.22-.87 2.636-2.44Z"/><path fill="#fff" d="m17.954 330.667-.743 1.368-1.206-.598c.4-1.006 1.15-.909 1.949-.77Z"/><path fill="#000" d="M145.646 133.007c-3.566-1.074-17.253-1.948-14.62-7.478 1.162-1.326.61-3.124.728-4.787-25.985-5.802-25.756-11.709-39.655-32.664-5.214-8.362-14.98-14.74-15.928-25.378-.435-3.11.977-6.084.032-9.104-.062-3.582.433-8.31 2.622-11.311 9.244-12.135 20.824-19.09 25.04-35.256-1.733.806-3.236 1.293-4.49 2.146-3.105 2.096-6.293-1.195-2.228-2.793 2.533-.855 5.098-1.617 7.633-2.467.999-.41.464-1.738.753-2.482.938-2.692 3.718-1.13 4.457.916 5.337-2.993 10.476 2.07 15.814 2.245 9.952 2.848 23.809-1.955 31.497 3.953 13.201-9.544 14.217 24.892 16.437 31.944 1.101 6 1.765 12.12 3.508 17.98.831 1.198 3.256 1.232 4.713 1.36-1.507-2.79-.264-6.135 2.587-7.48 2.74.924 3.831-5.092 8.302-3.582 2.801-.436 5.841-4.957 8.939-1.88 4.207 1.621 5.834 1.94 6.922 6.708 3.263 2.494 3.694 6.408 3.767 10.042 1.07 1.892 1.268 3.813.665 5.858-2.917 2.497-.027 6.795-5.442 8.115-5.608 4.4-3.892 4.238-11.472 2.402-.925 7.096-4.752 11.853-10.198 15.794.6 2.352.307 5.516 1.334 7.781 6.279 5.969 9.849 14.266 10.742 22.7-.495 11.471-2.1 23.242-2.107 34.808 8.924 15.527 16.042 32.697 21.853 49.888 4.647 13.664 7.811 27.832 10.405 42.013-.368 4.334 9.532 3.136 12.909 4.335 8.371.759 16.685 1.998 25.068 2.711 3.74.843 8.856-1.055 11.825 1.543 2.755-1.452 6.125-1.837 9.18-2.054 3.245.099-.954-3.957 7.26-6.393 5.873-3.888 14.898 11.42 20.83 14.048 3.592 2.912 8.199 5.295 10.121 9.566 1.907.718 1.107 2.561 1.334 3.8 1.47 4.135 2.153 11.113-4.023 11.368-9.689 2.853-14.488-8.738-23.441-8.834-4.267-1.317-7.173-1.401-10.562-4.578-2.895-.573-6.09.644-9.129.362-1.558.067-1.88.67-1.399 2.423.556-.232.809 3.467 1.38 4.512.934 1.546 1.195 4.029-.265 5.253-14.402 10.458-42.466 2.763-58.207-2.522-17.727-7.994-23.103-28.371-30.104-44.795-.575 10.883-2.91 22.195-1.733 32.92 4.297 10.788 5.709 22.238 8.218 33.638 2.245 9.717 5.386 19.253 7.404 28.926.906 3.314-9.35 4.639-11.762 6.477-1.219.601-.261 2.111-.458 3.135-.522 1.657-.609 3.364-.506 5.106l.356-.218c4.412 5.735 4.988 16.875-1.148 21.393-5.623 2.228-11.122-.997-16.852.041-2.393.538-4.661.668-6.987-.003-1.588 1.033-3.358.54-5.046.623-5.413-.252-13.137 1.817-17.279-2.016-2.74-2.871-.349-7.022.407-10.323 2.473-5.659 9.845-7.002 15.352-6.816 1.343.683 2.409-.28 3.682-.69 3.031-1.198 5.852-2.437 8.3-4.508.939-.8 1.243-4.166.506-5.203-7.514-1.166-7.47-2.738-9.804-9.43-4.95-15.584-6.532-31.917-8.695-48.051-1.643-23.142-6.08-46.296-4.615-69.565-.306-16.046 3.218-31.783 5.833-47.507.659-1.888.847-3.68-.234-5.345-3.685-11.245-14.333-20.938-10.326-33.32Zm-8.642-27.075c1.747-1.565 2.969-4.258 5.77-3.044 4.86 1.555 10.358 3.871 15.32 1.097 2.096-.104 4.281-.745 6.314-1.053.534-7.346-6.59-9.559-6.637-16.566-.158-2.578-5.697-3.984-1.558-8.096 4.197-2.847 3.062-8.93 6.553-12.497.294-.348.349-.984.344-1.485-.261-11.564-.314-22.667.456-34.31-17.499 9.984-35.086 19.964-53.494 28.303-6.074 2.497-11.843 5.612-17.866 8.25-1.551.668.515 3.022.338 4.412.17 1.965 1.688 2.673 3.058 3.834 7.136 8.164 15.64 16.075 23.649 22.958 5.844 2.254 12.017 3.136 18.294 4.093.05-.102 3.022.827 3.149.866-.439 1.752-3.333 2.118-3.771 3.871v-2.099c-17.49-1.404-20.965-5.094-33.047-16.74-8.702-7.775-14.128-14.395-17.248-25.818-1.291.631-1.166 1.593-1.042 2.582.104.824.14 1.49-.999 1.833-1.96.408-3.723-6.01-5.672-7.02-.615 12.812 11.933 20.038 17.403 30.28 4.016 7.197 9.302 13.544 14.172 20.169 6.229 5.056 15.49 5.784 23.074 8.5.814-4.362 2.84-8.081 3.44-12.32Zm22.243 64.581c-7.279 34.282-7.834 69.1-2.726 103.724 2.609 22.407 3.698 45.466 11.756 66.735 1.877 3.94 14.268 1.492 18.692 2.655 3.309.326 13.232-2.446 14.706-5.21-4.757-16.933-8.36-33.844-11.984-51.078-4.005-9.701-4.272-15.687-3.12-25.964 1.288-3.356 1.014-39.184 6.358-23.153 7.812 25.776 16.278 50.277 46.999 52.163 11.884 2.376 26.438 6.179 37.139-1.352 1.718-1.477-1.422-3.474-1.397-5.197-1.899-6.791-.321-13.828-1.397-20.565-15.261-.37-30.37-2.943-45.471-4.995-4.048 1.566-5.23-20.853-7.224-24.739-6.284-23.189-14.089-46.561-26.072-67.405-4.383-.726-8.971 3.042-13.739 2.75-7.506.64-14.966 1.377-22.52 1.631Zm-1.017-38.676c-.196.232-.607.592-.557.677.897 1.976-6.426 1.514-7.725 1.071-.485-.131-1.347-.538-1.633.571-3.269 11.758 7.331 21.064 10.443 31.777.612 3.109 4.578.905 6.901 1.385 9.383-.55 19.051-.859 27.91-4.228-1.613-16.166 5.765-34.035-1.984-49.037-3.593-5.772-4.43-9.911-12.188-7.652-3.379.471-7.231 1.042-10.272-.765-1.977.818-3.979-.844-6.116.427-7.532 2.236-15.603 2.421-22.859-1.132-1.638 5.92-5.196 19.347-5.335 18.785l-1.596 2.53c6.732 3.769 14.191 4.493 21.718 4.684 1.106.108 2.555-.743 3.293.907ZM83.252 60.573c4.685-3.979 6.438.272 7.6 4.778 13.492-8.5 28.263-14.324 42.357-21.644 9.623-4.894 20.002-12.465 29.625-15.586.362-3.797-1.849-3.61-4.466-4.928-4.513-1.857-.44-4.78 2.489-5.197l-3.458-8.309c-20.618 10.852-43.19 18.865-63.359 30.895-3.293 1.658-19.853 9.625-14.247 13.937 1.386 1.855 2.34 4.222 3.46 6.054Zm100.521-4.945c6.785 17.126-2.276 2.418-11.088 7.085-5.918 1.197-7.462 7.995-7.439 13.272-.393 2.47 2.154 1.695 3.688 2.342 2.323 1.35 2.828 5.049 1.13 7.155-1.293 6.416 9.335 9.639 14.436 7.36 1.823-.237 2.72-2.022 3.852-3.038 2.086-.86 2.558-2.986 3.496-4.539 3.51-3.736-1.341-11.91 3.513-10.94l1.068 3.328c1.457-.695 2.539-.727 3.803.145 4.267 2.759 1.854-4.144 5.763-3.054 5.81.544-.664-7.008 4.852-7.115-.199-2.706-4.105-5.558-1.428-7.34-.052-4.674-5.523-4.312-4.284-7.099.847-3.402-4.191-1.58-5.195-3.627-.21-.33-1.053-.651-1.305-.494-1.309.818-2.637 1.674-3.727 2.751-1.866 1.854-4.697-2.048-5.895 1.403-.89 2.75-2.74 2.086-5.24 2.405ZM106.465 8.653c-2.529 6.923-5.668 13.724-10.305 19.31-4.737 5.734-13.193 10.56-15.993 17.408 22.919-14.242 47.714-24.817 72.173-36.187-5.824-1.907-12.236-.182-18.308-.817-7.535.238-14.301-2.784-21.386-4.573-4.205-.4-1.47 6.574-6.181 4.859Zm54.864 12.14c.579 1.536 3.534 1.29 3.73 3.519.856 3.45 1.794 6.802 1.05 10.374-.32 9.243-.861 18.618-.751 27.848a646.123 646.123 0 0 0 9.338-3.494c-2.499-7.72-2.819-16.135-5.221-23.935-1.271-7.434-.826-15.04-4.895-21.76-.841-2.501-1.235-3.059-3.935-3.586.2 3.488 6.864 9.758.684 11.034Zm30.61 343.383c-3.712.822-23.514 4.917-20.412-2.219l.329.552c.97-1.938 4.839-3.546 4.075-5.758-2.102-1.471-5.945.467-7.721 1.851l-.713-.642.438.626c-6.416 3.689-19.37-.674-19.833 9.725 8.343-.98 16.959.101 25.489-.35 3.588-.208 19.494 1.726 18.348-3.785ZM182.665 96.19c-6.872 2.21-16.963-4.184-15.794-11.524.842-1.007 1.798-2.035 1.046-3.403-.637-.518-2.061.075-2.809.38-3.944.896-1.835-5.486-2.759-7.755-1.461 1.861-1.34 4.756-3.701 5.924-2.698.757 2.814 6 2.402 9.182 1.841 7.184 10.285 2.863 8.675 14.281 4.936 1.128 9.699.915 14.384-.878l-1.444-6.207Zm110.714 164.604-.336.416c1.781 3.032 9.277 7.665 8.901 10.721-3.603 3.08-12.198-5.112-12.678 2.928 2.748 1.271 3.988 4.414 7.378 4.042 3.19.02 6.15 2.046 9.297 2.333 4.162 1.232 6.487 5.392 11.294 4.685-1.346-4.963-6.691-8.734-10.133-12.599-4.503-4.107-9.036-8.458-13.723-12.526ZM176.982 361.961c1.418 1.14 2.508-.113 3.871.01 3.312.559 6.575-.919 9.973-.873 2.375-1.956-1.838-4.356-1.839-6.586-.577-2.255 1.214-8.105-1.058-8.912-3.322-.444-6.597-.169-9.862.477-1.795.859-.508 4.147-1.022 5.896-.007.436.066 1.157.314 1.266 3.009 1.764 2.823 7.028-.377 8.722Zm116.626-105.18c5.967 4.564 10.7 9.935 16.288 14.682 3.81 5.201 14.496 10.817 8.828 17.922 1.941-.557 5.959.276 5.777-2.652-.802-3.646-.227-8.251-3.757-10.604-2.666-2.64-5.751-4.928-8.708-7.23-3.833-3.095-7.537-6.462-11.143-9.765-1.573-3.074-3.961-3.978-7.285-2.353Zm-3.796 5.454c-3.577 1.279-11.924.186-12.282 5.056.144 8.586-.994 9.581 8.243 7.835 1.008-4.847 3.265-7.467 8.367-7.215-1.126-1.964-3.348-3.557-4.328-5.676ZM160.609 372.218l.051-.131-13.04-1.597-.188.33c3.494 2.918 8.886.803 13.177 1.398Zm26.341-1.474c.12 2.209 2.995 1.068 4.383 1.134l-.099-1.134h-4.284Z"/><path fill="#fff" d="M83.252 60.573c-1.12-1.83-2.073-4.199-3.459-6.055-5.65-4.27 11.041-12.334 14.247-13.936 20.169-12.03 42.742-20.044 63.359-30.895l3.458 8.31c-2.931.418-7.002 3.338-2.489 5.196 2.618 1.317 4.827 1.131 4.466 4.928-9.623 3.122-20.002 10.692-29.626 15.585-14.093 7.321-28.864 13.145-42.355 21.645-1.164-4.514-2.919-8.752-7.6-4.778Z"/><path fill="#A67C52" d="M183.773 55.628c2.499-.318 4.348.344 5.24-2.405 1.203-3.452 4.027.452 5.895-1.402 1.09-1.078 2.418-1.934 3.727-2.752.252-.157 1.095.164 1.305.494 1.003 2.043 6.044.228 5.196 3.627-1.237 2.774 4.248 2.46 4.283 7.1-2.676 1.78 1.228 4.633 1.428 7.339-5.514.105.957 7.66-4.852 7.115-3.908-1.09-1.497 5.814-5.763 3.054-1.264-.872-2.346-.84-3.803-.145l-1.068-3.329c-4.849-.98.001 7.161-3.514 10.941-.937 1.553-1.409 3.68-3.494 4.54-1.136 1.007-2.027 2.81-3.853 3.038-5.103 2.284-15.742-.961-14.436-7.361 1.698-2.106 1.193-5.805-1.13-7.155-1.522-.647-4.096.128-3.688-2.342-.022-5.273 1.519-12.08 7.44-13.273 8.825-4.66 17.866 10.035 11.087-7.084Z"/><path fill="#E8BE95" d="m136.923 106.565-.016-.041c-.767 3.964-2.51 7.58-3.343 11.728-7.577-2.71-16.85-3.448-23.075-8.498-4.869-6.627-10.155-12.974-14.171-20.171-5.468-10.237-18.022-17.474-17.403-30.279 1.959 1.022 3.7 7.412 5.672 7.02 1.139-.344 1.103-1.01 1-1.834-.125-.988-.25-1.95 1.042-2.582 3.075 11.34 8.602 18.12 17.247 25.82 12.039 11.624 15.632 15.358 33.047 16.738v2.099ZM161.329 20.793c6.178-1.282-.482-7.538-.683-11.034 2.699.527 3.093 1.085 3.935 3.587 4.069 6.722 3.622 14.322 4.894 21.76 2.402 7.799 2.722 16.215 5.221 23.934a646.123 646.123 0 0 1-9.338 3.494c-.11-9.231.431-18.605.751-27.848.744-3.572-.194-6.925-1.049-10.375-.197-2.226-3.152-1.983-3.731-3.518Z"/><path fill="#000" d="M191.939 364.176c1.196 5.492-14.793 3.588-18.348 3.788-8.532.448-17.144-.633-25.489.347.468-10.401 13.411-6.034 19.833-9.725l-.438-.626.713.642c1.773-1.384 5.621-3.322 7.72-1.852.766 2.214-3.105 3.819-4.074 5.759l-.329-.552c-3.083 7.132 16.65 3.047 20.412 2.219Z"/><path fill="#E8BE95" d="m182.666 96.19 1.443 6.207c-4.685 1.793-9.448 2.006-14.384.878 1.593-11.459-6.82-7.07-8.675-14.28.406-3.225-5.095-8.384-2.402-9.183 2.363-1.167 2.24-4.061 3.701-5.924.739 3.062-1.046 10.08 4.261 7.227.438-.069 1.209-.065 1.307.148.752 1.37-.204 2.394-1.046 3.403-1.165 7.343 8.917 13.73 15.795 11.524Z"/><path fill="#000" d="M293.379 260.793c4.687 4.069 9.221 8.42 13.723 12.527 3.443 3.866 8.786 7.635 10.133 12.599-4.815.704-7.126-3.45-11.294-4.686-3.147-.286-6.107-2.312-9.296-2.332-3.393.371-4.629-2.77-7.379-4.042.489-8.042 9.066.152 12.677-2.927.386-3.048-7.123-7.693-8.9-10.722l.336-.417Z"/><path fill="#E8BE95" d="M176.982 361.961c3.196-1.69 3.389-6.96.377-8.723-.248-.108-.321-.829-.313-1.265.507-1.756-.768-5.028 1.021-5.896 3.265-.646 6.54-.921 9.861-.476 2.275.775.48 6.68 1.06 8.911.004 2.227 4.212 4.634 1.838 6.585-3.399-.045-6.661 1.432-9.973.875-1.362-.127-2.453 1.131-3.871-.011Z"/><path fill="#fff" d="M293.608 256.781c3.324-1.625 5.712-.721 7.285 2.353 3.607 3.304 7.31 6.67 11.143 9.766 2.957 2.301 6.042 4.589 8.708 7.228 3.531 2.355 2.953 6.958 3.758 10.605.183 2.937-3.84 2.083-5.778 2.652 5.669-7.104-5.02-12.722-8.827-17.923-5.588-4.746-10.323-10.117-16.289-14.681Z"/><path fill="#E8BE95" d="M289.812 262.235c.982 2.121 3.201 3.711 4.328 5.676-5.113-.253-7.352 2.371-8.367 7.216-9.234 1.74-8.102.756-8.241-7.836.353-4.872 8.702-3.774 12.28-5.056Z"/><path fill="#000" d="M106.147 59.41c-3.86 1.84-8.75 4.502-13.005 2.376-2.759-1.378-5.195 2.766-2.425 4.15 6.111 3.052 12.168.335 17.856-2.375 2.79-1.33.354-5.475-2.426-4.15Z"/><path fill="#939393" d="M92.895 63.495c11.381-.77 21.503-7.71 32.343-11.065 13.341-5.745 27.567-10.024 40.566-16.143.096.106.183.17.265.204-.871.357-1.237 1.07-1.235 1.8-14.921 5.328-30.228 10.558-44.465 17.503-9.497 2.68-18.223 9.277-28.27 9.16l.796-1.46Z"/><path fill="#000" d="M178.151 11.821c-2.106-4.722-7.436-7.824-12.582-7.507-6.974 2.732-14.095 5.303-20.861 8.488-14.557 5.568-29.246 11.886-43.93 17.75a3.465 3.465 0 0 0-.038-.243C90.475 35.044 73.599 37.85 81.535 52.96a8.907 8.907 0 0 1-.295-.02c2.231 4.01 3.911 9.762 8.577 11.586l-.1.046c4.954 1.026 9.435-1.185 13.809-3.248-.042-.009-.083-.019-.126-.027.361-.62 1.598-.066 1.606-.927 18.629-6.626 37.045-15.096 55.667-22.252 4.428-1.87 9.202-3.16 13.288-5.685 1.464-.88 2.256-3.096 4.301-1.862-7.22 6.988-18.095 8.188-26.836 12.765-15.118 4.733-29.833 11.446-44.338 17.824.339.36.55.842.61 1.338 17.795-7.128 35.776-14.078 53.718-21.006 16.732-6.5 24.984-10.293 16.735-29.672Zm-1.884 15.31c-1.835 1.452-3.237 4.214-5.527 4.875-2.884 1.1-5.802 2.582-8.726 3.709-13.048 5.508-26.741 10.222-39.45 16.218-9.585 3.098-19.322 7.88-29.077 11.071-3.868.754-7.032-2.608-8.39-6.067-.725-2.606-6.167-14.654-1.335-14.413 2.088-6.167 9.886-5.87 14.43-8.653.32-.548.688-.883 1.387-.83.997-.395 1.977-1.428 3.218-1.171 16.632-7.756 35.017-13.777 51.491-21.307 5.698-1.397 11.996-6.612 17.412-1.756 2.621 5.502 6.188 11.959 4.567 18.324Zm2.082-10.72c1.05 4.239 1.914 8.622.772 12.949l-1.56-.817c1.961-4.953.509-10.072-1.432-14.826-.568-1.256-1.509-2.279-.97-3.763 1.483 1.976 2.562 4.114 3.19 6.458Z"/><path fill="#fff" d="m97.046 64.095.239-.105c-.681.238-1.36.483-2.04.727.614-.14 1.191-.45 1.801-.622ZM125.671 40.544a108.82 108.82 0 0 0-.036-.1c3.951-2.497 18.568-4.623 18.676-9.214-1.128-4.532-2.729-4.488-6.588-2.531-9.373 4.055-19.196 6.916-28.444 11.27-2.646.912-.145 3.763.385 5.433 1.831 2.01 12.474-4.482 16.007-4.858Zm-33.88 4.315c-1.18-.784-1.895-.502-2.21.846-4.19 11.113 12.298 16.532 15.883 5.062 2.127-6.308-2.794-10.042-7.979-11.92-2.393-.876-2.13 4.693-2.97 6.276-.968-1.368-2.095-2.143-2.724-.264Zm73.994-30.283c-1.353.756-.848 3.896-2.321 4.07-5.43-2.644-5.898.215-.477 1.717-2.991 6.613-.251 7.928 1.54.665 2.058.198 3.476 2.109 5.434 1.715-.08-2.797-6.022-2.124-3.8-5.481.177-.892 1.264-1.872-.376-2.686Z"/><path fill="#fff" d="M172.32 9.862c5.552 12.477 8.29 19.287-7.059 24.372-13.92 6.383-28.956 11.097-42.699 17.698-9.585 3.1-19.32 7.885-29.077 11.072-3.867.756-7.029-2.608-8.386-6.066-.727-2.603-6.168-14.66-1.336-14.412 2.082-6.172 9.887-5.869 14.427-8.655.323-.546.69-.88 1.387-.83 1-.39 1.976-1.43 3.217-1.17 16.637-7.755 35.012-13.777 51.495-21.308 5.675-1.422 13.642-7.373 18.031-.701Z"/><path fill="#939393" d="M176.681 30.06c-8.799 7.259-20.922 9.169-31.105 14.177-13.642 4.989-26.919 11.652-40.57 16.134a.759.759 0 0 1-.052.33c.879-.338 1.635-.072 2.134.46 14.504-6.378 29.22-13.091 44.337-17.825 8.743-4.576 19.616-5.776 26.837-12.764l-1.581-.512ZM175.158 9.954c3.903 5.49 5.316 12.835 3.963 19.406l-1.56-.817c1.961-4.953.509-10.072-1.432-14.826-.568-1.256-1.508-2.279-.971-3.763Z"/><path fill="#000" d="M125.671 40.544c-3.591.398-14.133 6.852-16.007 4.86-.544-1.667-3.016-4.528-.385-5.435 9.248-4.354 19.071-7.215 28.445-11.27 3.809-1.94 5.486-2.01 6.585 2.53-.027 4.549-14.779 6.747-18.674 9.216l.036.099Zm-14.619 3.709c10.466-3.862 20.987-7.826 31.369-11.997.897-.56-.202-3.532-1.117-3.209-4.364 1.751-8.649 3.69-12.999 5.437-3.086 2.656-21.406 5.237-17.253 9.769ZM101.636 40.609c-1.636.36-4.464-3.248-5.572-1.28-.768 3.388-2.268 3.572 1.155 5.126l.07-.005c-.008.543-.308.963-.405 1.503l-1.311-.3v-.002c-1.583-.14-2.708-3.713-3.782-.792-2.486-1.711-2.224 2.08-2.822 3.503-1.14 4.794 4.143 8.704 8.496 8.965 8.202-.08 11.658-12.75 4.171-16.718Zm-3.782 5.947c4.724 1.608.425 6.36-1.996 2.986.031-1.433 1.956-1.361 1.996-2.986Zm5.105-2.711c3.475 4.206.132 9.374-3.703 12.005-4.725.755-11.549-4.522-8.209-9.411 1.399 1.582 1.5-.529 2.277-.92-.021.742.986 1.592 1.944 1.745-2.992 2.927 1.1 5.71 3.94 4.887 2.805-1.12 3.019-4.998.427-6.44 1.553-2.472-1.762-2.522-3.417-2.855.33-3.805 2.763-2.268 4.336-.14.848.364 1.98-.086 2.405 1.129ZM165.785 14.576c1.64.814.553 1.794.376 2.686-2.22 3.36 3.718 2.681 3.8 5.481-1.959.393-3.376-1.516-5.434-1.715-1.802 7.288-4.524 5.92-1.54-.665-5.431-1.508-4.943-4.358.477-1.718 1.473-.172.968-3.314 2.321-4.07Z"/><path fill="url(#c)" d="M96.218 42.856c.329-3.798 2.762-2.273 4.336-.14.848.366 1.98-.087 2.405 1.13 3.475 4.204.132 9.374-3.703 12.005-4.725.755-11.549-4.523-8.209-9.412 1.398 1.582 1.5-.529 2.277-.92-.021.742.986 1.592 1.944 1.745-2.992 2.927 1.1 5.71 3.94 4.887 2.804-1.12 3.019-4.999.427-6.44 1.553-2.472-1.762-2.522-3.417-2.855Z"/><path fill="#6E62EB" d="M97.854 46.557c4.724 1.607.425 6.358-1.996 2.985.031-1.433 1.956-1.362 1.996-2.985Z"/><path fill="#fff" d="m97.288 44.45-.403 1.503-1.312-.3c.154-1.072.906-1.153 1.716-1.203Z"/><path fill="#000" d="M25.845 374.504c-4.615.185-10.154.734-13.42-3.191-1.98-2.38-5.363 1.036-3.398 3.398 4.135 4.971 10.913 4.835 16.818 4.599 3.082-.123 3.097-4.929 0-4.806Z"/><path fill="#939393" d="M11.758 373.056c10.764 3.776 22.801 1.384 34.086 2.57 14.526-.025 29.287 1.645 43.646 1.142a.773.773 0 0 0 .163.292c-.942-.015-1.56.495-1.844 1.167-15.814-.98-31.943-2.202-47.765-1.427-9.785-1.278-20.404 1.349-29.593-2.717l1.307-1.027Z"/><path fill="#000" d="M110.476 359.143c-.076-5.17-3.753-10.12-8.608-11.856-7.486-.236-15.045-.678-22.518-.416-15.573-.616-31.563-.595-47.37-.989.024-.078.043-.158.061-.239-11.301.31-27.918-3.758-26.576 13.256a7.583 7.583 0 0 1-.262-.135c.47 4.566-.25 10.515 3.32 14.028l-.11.003c4.148 2.895 9.138 2.628 13.97 2.455-.034-.025-.068-.051-.104-.075.576-.428 1.494.569 1.841-.219 19.733 1.248 39.997.717 59.931 1.474 4.808.026 9.703.72 14.454.009 1.692-.233 3.293-1.956 4.686-.017-9.388 3.579-19.857.398-29.695 1.162-15.76-1.605-31.929-1.231-47.773-1.082.169.465.173.99.034 1.471 19.163.456 38.428 1.151 57.648 1.851 17.765.723 27.164.163 27.071-20.681Zm-7.762 13.331c-2.259.611-4.636 2.598-7.001 2.303-3.084-.126-6.35.088-9.481-.028-14.164-.077-28.606-1.138-42.65-.633-10.03-.928-20.863-.367-31.087-1.277-3.852-.831-5.436-5.167-5.321-8.882.43-2.817-.023-15.693 4.45-13.774 4.348-4.845 11.4-1.501 16.672-2.269.51-.377.98-.54 1.601-.216 1.073.029 2.38-.535 3.42.19 18.343-.576 37.612 1.131 55.72.699 5.789.96 13.631-1.352 16.696 5.245.242 6.089.977 13.429-3.019 18.642Zm6.136-9.033c-.705 4.309-1.637 8.678-4.391 12.205l-1.112-1.365c3.752-3.78 4.435-9.058 4.523-14.191-.027-1.378-.489-2.689.591-3.842.584 2.401.734 4.791.389 7.193Z"/><path fill="#fff" d="M15.337 375.243c.087 0 .174-.002.26-.003-.719-.049-1.44-.091-2.16-.135.619.114 1.271.057 1.9.138ZM50.925 364.872l.006-.106c4.615-.739 18.887 3.065 20.795-1.113-.076-1.407.82-4.204-1.042-4.639-11.479-.499-23.069-1.236-34.6-1.128-2.791-.203-1.615 3.402-1.787 5.146.892 2.57 13.232.794 16.628 1.84Zm-32.841-9.38c-.776-1.184-1.544-1.208-2.365-.093-8.229 8.565 4.792 20.04 12.606 10.909 4.44-4.959 1.386-10.33-2.64-14.098-1.854-1.748-3.806 3.474-5.2 4.598-.352-1.639-1.083-2.795-2.401-1.316Zm79.94 1.313c-1.542.162-2.314 3.246-3.736 2.826-3.95-4.568-5.506-2.126-1.115 1.391-5.353 4.899-3.354 7.189 1.154 1.217 1.813.993 2.364 3.307 4.319 3.717 1.028-2.602-4.7-4.324-1.334-6.535.514-.749 1.899-1.222.712-2.616Z"/><path fill="#fff" d="M105.888 355.046c.188 13.655.022 20.993-16.09 19.621-15.307.383-30.985-1.206-46.217-.552-10.031-.927-20.864-.364-31.087-1.277-3.852-.829-5.434-5.166-5.32-8.88.427-2.815-.02-15.697 4.45-13.773 4.345-4.852 11.4-1.499 16.67-2.272.512-.375.982-.537 1.602-.216 1.073.035 2.379-.536 3.418.191 18.346-.575 37.607 1.129 55.725.7 5.776.928 15.443-1.403 16.849 6.458Z"/><path fill="#939393" d="M101.94 375.328c-10.947 3.207-22.842.186-34.174.779-14.504-.788-29.333.106-43.646-1.151a.771.771 0 0 1-.178.283c.941.035 1.531.577 1.78 1.263 15.844-.149 32.015-.523 47.774 1.081 9.839-.763 20.306 2.418 29.695-1.161l-1.251-1.094ZM108.461 356.248c1.424 6.584-.171 13.892-4.002 19.398l-1.112-1.365c3.753-3.78 4.435-9.058 4.523-14.191-.027-1.378-.488-2.689.591-3.842Z"/><path fill="#000" d="M50.925 364.872c-3.458-1.049-15.69.731-16.628-1.839.157-1.746-.989-5.349 1.787-5.147 8.94-.48 17.83.866 26.755.719 4.35.517 10.476-1.735 8.886 5.047-1.817 4.17-16.242.379-20.794 1.114-.002.035-.005.07-.006.106Zm-14.899-2.35c11.142.574 22.373 1.074 33.559 1.33 1.045-.161 1.205-3.326.237-3.389-4.7-.11-9.403-.016-14.09-.124-3.906 1.208-21.812-3.592-19.706 2.183ZM28.807 355.464c-1.645-.314-2.823-4.744-4.618-3.371-1.977 2.703-3.494 2.446-.957 5.166l.066.023c-.22.496-.662.764-.963 1.223l-1.087-.794v-.001c-1.4-.752-1.026-4.479-3.164-2.218-1.611-2.552-2.864 1.037-3.974 2.108-2.936 3.958.38 9.633 4.278 11.588 7.57 3.156 15.738-7.129 10.42-13.724Zm-5.819 3.977c3.709 3.338-2.114 6.012-3.01 1.958.593-1.305 2.333-.481 3.01-1.958Zm5.76-.482c1.538 5.235-3.57 8.668-8.132 9.577-4.641-1.168-8.834-8.706-3.838-11.884.662 2.004 1.587.104 2.455.051-.312.673.28 1.852 1.1 2.37-3.903 1.511-1.238 5.682 1.696 6.043 3.019.076 4.744-3.405 2.93-5.751 2.4-1.66-.627-3.012-2.017-3.97 1.803-3.367 3.433-.996 4.04 1.58.637.668 1.855.7 1.767 1.984ZM98.024 356.804c1.187 1.395-.198 1.868-.712 2.617-3.364 2.214 2.361 3.93 1.334 6.535-1.956-.41-2.506-2.724-4.32-3.717-4.527 5.99-6.49 3.659-1.153-1.217-4.398-3.526-2.826-5.953 1.115-1.392 1.422.423 2.195-2.665 3.736-2.826Z"/><path fill="url(#d)" d="M22.942 355.395c1.799-3.361 3.434-1.001 4.04 1.58.636.67 1.855.699 1.766 1.985 1.538 5.234-3.571 8.668-8.132 9.576-4.641-1.168-8.834-8.706-3.838-11.884.662 2.004 1.587.104 2.455.051-.312.673.28 1.852 1.1 2.37-3.903 1.511-1.238 5.682 1.696 6.043 3.019.076 4.744-3.405 2.93-5.751 2.4-1.66-.627-3.012-2.017-3.97Z"/><path fill="#6E62EB" d="M22.988 359.441c3.709 3.338-2.114 6.012-3.01 1.957.592-1.304 2.334-.481 3.01-1.957Z"/><path fill="#fff" d="m23.298 357.282-.963 1.222-1.087-.793c.563-.924 1.287-.702 2.05-.429Z"/><path fill="#000" d="M43.842 353.355c-4.485-.685-10.246-1.178-12.664-5.598-1.484-2.715-5.636-.292-4.15 2.425 3.122 5.707 9.643 6.906 15.536 7.807 3.026.463 4.33-4.167 1.278-4.634Z"/><path fill="#939393" d="M30.108 349.209c9.847 5.757 22.12 5.702 32.973 9.015 14.265 2.741 28.438 7.192 42.629 9.432.02.142.057.243.105.318-.921-.194-1.625.19-2.033.795-15.338-3.974-30.939-8.245-46.619-10.497-9.362-3.119-20.287-2.562-28.534-8.304l1.48-.759Z"/><path fill="#000" d="M129.669 354.351c.91-5.09-1.757-10.65-6.192-13.278-7.304-1.658-14.641-3.531-22.027-4.697-15.17-3.571-30.873-6.595-46.315-9.992.038-.072.072-.148.106-.223-11.154-1.849-26.692-9.006-28.614 7.952a7.313 7.313 0 0 1-.232-.183c-.408 4.572-2.249 10.275.587 14.404l-.109-.018c3.522 3.631 8.471 4.32 13.249 5.07l-.089-.093c.647-.311 1.359.843 1.85.136 19.133 4.982 39.127 8.32 58.553 12.86 4.714.941 9.388 2.555 14.187 2.761 1.706.094 3.606-1.293 4.604.876-9.898 1.725-19.57-3.391-29.373-4.514-15.165-4.577-31.11-7.289-46.693-10.16a2.387 2.387 0 0 1-.247 1.449c18.726 4.099 37.506 8.449 56.241 12.797 17.494 4.022 26.452 5.52 30.514-15.147Zm-10.159 11.608c-2.334.17-5.045 1.668-7.311.928-3.004-.711-6.251-1.123-9.303-1.833-13.89-2.773-27.865-6.565-41.747-8.744-9.67-2.82-20.413-4.334-30.276-7.174-3.623-1.549-4.352-6.108-3.533-9.733.959-2.683 2.967-15.41 6.992-12.674 5.192-3.928 11.477.697 16.8.947.572-.273 1.065-.343 1.613.094 1.047.233 2.438-.072 3.32.837 18.117 2.928 36.709 8.274 54.568 11.298 5.499 2.045 13.639 1.269 15.391 8.329-.921 6.024-1.598 13.369-6.514 17.725Zm7.744-7.698c-1.513 4.095-3.26 8.207-6.635 11.145l-.832-1.552c4.404-2.996 6.079-8.047 7.143-13.07.236-1.358.033-2.733 1.312-3.659.117 2.469-.192 4.844-.988 7.136Z"/><path fill="#fff" d="m33.205 352.037.257.048c-.698-.186-1.397-.365-2.096-.545.586.23 1.237.298 1.84.497ZM70.117 348.633l.025-.102c4.672.153 17.959 6.606 20.627 2.868 1.613-4.384.264-5.246-4.028-5.795-10.032-1.911-19.766-5.062-29.863-6.655-2.702-.731-2.233 3.032-2.734 4.712.386 2.692 12.838 3.299 15.973 4.972Zm-30.454-15.462c-.535-1.311-1.285-1.48-2.304-.542-9.709 6.841.888 20.586 10.298 13.111 5.303-4.024 3.328-9.878.094-14.344-1.488-2.069-4.399 2.686-5.982 3.524-.033-1.676-.53-2.95-2.106-1.749Zm78.228 16.513c-1.545-.135-2.891 2.746-4.207 2.063-3.007-5.237-5-3.136-1.359 1.153-6.154 3.733-4.587 6.393.901 1.414 1.59 1.32 1.69 3.698 3.532 4.472 1.505-2.359-3.79-5.14-.065-6.669.647-.638 2.097-.839 1.198-2.433Z"/><path fill="#fff" d="M125.945 349.455c-2.416 13.441-3.977 20.613-19.531 16.198-15.102-2.539-30.19-7.086-45.267-9.344-9.671-2.821-20.413-4.33-30.275-7.174-3.624-1.547-4.35-6.107-3.53-9.73.954-2.682 2.968-15.415 6.99-12.674 5.19-3.936 11.476.699 16.798.945.573-.271 1.066-.341 1.613.092 1.047.239 2.438-.073 3.32.839 18.12 2.93 36.703 8.27 54.571 11.299 5.494 2.011 15.428 1.564 15.311 9.549Z"/><path fill="#939393" d="M118.207 368.614c-11.357 1.063-22.46-4.167-33.697-5.744-14.089-3.536-28.817-5.482-42.628-9.442a.776.776 0 0 1-.228.245c.917.212 1.392.857 1.507 1.578 15.582 2.871 31.528 5.584 46.693 10.16 9.804 1.124 19.474 6.24 29.373 4.515l-1.02-1.312ZM128.242 351.125c.144 6.735-2.813 13.605-7.623 18.281l-.832-1.552c4.404-2.996 6.079-8.047 7.144-13.07.235-1.358.032-2.733 1.311-3.659Z"/><path fill="#000" d="M70.116 348.633c-3.194-1.688-15.541-2.27-15.972-4.971.486-1.684.047-5.44 2.734-4.713 10.097 1.593 19.83 4.744 29.864 6.655 4.24.535 5.667 1.419 4.026 5.794-2.577 3.747-16.016-2.721-20.626-2.867l-.026.102Zm-14.178-5.144c10.829 2.685 21.76 5.316 32.691 7.697 1.057.041 1.817-3.035.878-3.282-4.593-1.003-9.227-1.806-13.807-2.805-4.064.442-20.73-7.68-19.762-1.61ZM50.196 335.185c-1.556-.621-1.869-5.194-3.892-4.188-2.456 2.277-3.896 1.736-1.924 4.889l.06.036c-.31.444-.795.623-1.178 1.016l-.916-.986.001-.001c-1.23-1.004-.154-4.593-2.684-2.78-1.096-2.812-3.008.472-4.302 1.313-3.637 3.326-1.462 9.528 1.992 12.19 6.831 4.54 16.808-4.001 12.843-11.489Zm-6.47 2.797c3.005 3.983-3.22 5.499-3.329 1.348.831-1.168 2.383-.028 3.329-1.348Zm5.746.624c.512 5.432-5.156 7.829-9.807 7.852-4.334-2.03-7.015-10.228-1.505-12.397.269 2.094 1.538.405 2.4.517-.434.602-.078 1.872.629 2.536-4.12.741-2.298 5.343.514 6.256 2.95.65 5.305-2.439 3.971-5.088 2.673-1.172-.04-3.076-1.223-4.281 2.411-2.962 3.56-.324 3.666 2.32.497.777 1.686 1.041 1.355 2.285ZM117.89 349.684c.9 1.594-.55 1.795-1.197 2.433-3.725 1.533 1.569 4.307.064 6.669-1.841-.775-1.941-3.151-3.532-4.472-5.511 4.993-7.033 2.301-.9-1.414-3.646-4.299-1.641-6.382 1.359-1.154 1.315.686 2.663-2.198 4.206-2.062Z"/><path fill="url(#e)" d="M44.451 334.001c2.406-2.957 3.562-.329 3.666 2.32.496.779 1.687 1.04 1.355 2.285.513 5.431-5.157 7.83-9.807 7.852-4.334-2.03-7.014-10.229-1.505-12.397.269 2.094 1.538.405 2.4.517-.434.602-.078 1.872.629 2.536-4.12.741-2.298 5.343.514 6.256 2.95.65 5.306-2.439 3.971-5.088 2.673-1.172-.04-3.076-1.223-4.281Z"/><path fill="#6E62EB" d="M43.725 337.982c3.005 3.983-3.22 5.499-3.328 1.348.83-1.168 2.383-.028 3.328-1.348Z"/><path fill="#fff" d="m44.44 335.922-1.178 1.016-.916-.986c.73-.799 1.397-.444 2.095-.03ZM148.565 368.513c12.599 1.018 29.543 4.387 41.539-1.02 1.965.293 5.166 5.531-2.036 5.458-10.137-.18-20.979-.169-30.846-.801-6.402.437-7.202 1.528-9.021.219-1.819-1.31-1.455-3.929.364-3.856Z"/></g><defs><linearGradient id="b" x1="15.836" x2="18.391" y1="328.022" y2="341.462" gradientUnits="userSpaceOnUse"><stop stop-color="#FFEF4A"/><stop offset=".687" stop-color="#FF4A38"/><stop offset="1" stop-color="#E4066A"/></linearGradient><linearGradient id="c" x1="94.613" x2="100.225" y1="42.37" y2="54.847" gradientUnits="userSpaceOnUse"><stop stop-color="#FFEF4A"/><stop offset=".687" stop-color="#FF4A38"/><stop offset="1" stop-color="#E4066A"/></linearGradient><linearGradient id="d" x1="21.659" x2="21.901" y1="354.316" y2="367.995" gradientUnits="userSpaceOnUse"><stop stop-color="#FFEF4A"/><stop offset=".687" stop-color="#FF4A38"/><stop offset="1" stop-color="#E4066A"/></linearGradient><linearGradient id="e" x1="43.396" x2="41.03" y1="332.698" y2="346.172" gradientUnits="userSpaceOnUse"><stop stop-color="#FFEF4A"/><stop offset=".687" stop-color="#FF4A38"/><stop offset="1" stop-color="#E4066A"/></linearGradient><clipPath id="a"><path fill="#fff" d="M0 0h327.784v380H0z"/></clipPath></defs></svg>

