<!-- This Source Code Form is subject to the terms of the Mozilla Public
   - License, v. 2.0. If a copy of the MPL was not distributed with this
   - file, You can obtain one at https://mozilla.org/MPL/2.0/. -->
<svg width="70" height="56" viewBox="0 0 70 56" fill="none" xmlns="http://www.w3.org/2000/svg">
<path d="M1.25 6.1001V12.3501H68.75V6.1001C68.75 3.33868 66.5114 1.1001 63.75 1.1001H6.25C3.48858 1.1001 1.25 3.33868 1.25 6.1001ZM21.87 8.6001H10.7131C9.78047 8.6001 8.91918 7.95855 8.77423 7.03727C8.5891 5.86061 9.4903 4.8501 10.62 4.8501H21.7584C22.6942 4.8501 23.5661 5.48352 23.7225 6.40612C23.9211 7.57789 23.0172 8.6001 21.87 8.6001ZM40.62 8.6001H29.4631C28.5305 8.6001 27.6692 7.95855 27.5242 7.03727C27.3391 5.86061 28.2403 4.8501 29.37 4.8501H40.5084C41.4442 4.8501 42.3161 5.48352 42.4725 6.40612C42.6711 7.57789 41.7672 8.6001 40.62 8.6001ZM59.37 8.6001H48.2131C47.2805 8.6001 46.4192 7.95855 46.2742 7.03727C46.0891 5.86061 46.9903 4.8501 48.12 4.8501H59.2584C60.1942 4.8501 61.0661 5.48352 61.2225 6.40612C61.4211 7.57789 60.5172 8.6001 59.37 8.6001Z" fill="url(#paint0_linear_3760_17024)"/>
<path d="M5.6015 0.95752H64.3985C66.9398 0.95752 69 3.07004 69 5.67597V50.2391C69 52.845 66.9398 54.9575 64.3985 54.9575H5.6015C3.06016 54.9575 1 52.845 1 50.2391V5.67597C1 3.07004 3.06016 0.95752 5.6015 0.95752Z" stroke="#8F8F9D"/>
<defs>
<linearGradient id="paint0_linear_3760_17024" x1="1.23132" y1="6.84821" x2="75.9626" y2="6.59452" gradientUnits="userSpaceOnUse">
<stop stop-color="#9059FF"/>
<stop offset="0.52083" stop-color="#FF4AA2"/>
<stop offset="1" stop-color="#FFBD4F"/>
</linearGradient>
</defs>
</svg>
