<!-- This Source Code Form is subject to the terms of the Mozilla Public
   - License, v. 2.0. If a copy of the MPL was not distributed with this
   - file, You can obtain one at https://mozilla.org/MPL/2.0/. -->
<svg width="70" height="56" viewBox="0 0 70 56" fill="none" xmlns="http://www.w3.org/2000/svg">
<path d="M6.10602 1.12061C3.35602 1.12061 1.13605 3.35059 1.13605 6.09058V49.8206C1.13605 52.5706 3.35602 54.7906 6.10602 54.7906H24.136V1.12061H6.10602ZM18.506 25.3006H7.25604C6.22601 25.3006 5.38604 24.4606 5.38604 23.4306C5.38604 22.3906 6.22601 21.5506 7.25604 21.5506H18.506C19.546 21.5506 20.386 22.3906 20.386 23.4306C20.386 24.4606 19.546 25.3006 18.506 25.3006ZM18.506 17.8006H7.25604C6.22601 17.8006 5.38604 16.9606 5.38604 15.9306C5.38604 14.8906 6.22601 14.0506 7.25604 14.0506H18.506C19.546 14.0506 20.386 14.8906 20.386 15.9306C20.386 16.9606 19.546 17.8006 18.506 17.8006ZM18.506 10.3006H7.25604C6.22601 10.3006 5.38604 9.46063 5.38604 8.4306C5.38604 7.39062 6.22601 6.5506 7.25604 6.5506H18.506C19.546 6.5506 20.386 7.39063 20.386 8.4306C20.386 9.46063 19.546 10.3006 18.506 10.3006Z" fill="url(#paint0_linear_3760_17025)"/>
<path d="M5.73529 0.95752H64.5323C67.0736 0.95752 69.1338 3.07004 69.1338 5.67597V50.2391C69.1338 52.845 67.0736 54.9575 64.5323 54.9575H5.73529C3.19395 54.9575 1.13379 52.845 1.13379 50.2391V5.67597C1.13379 3.07004 3.19395 0.95752 5.73529 0.95752Z" stroke="#8F8F9D"/>
<defs>
<linearGradient id="paint0_linear_3760_17025" x1="-1.43686" y1="5.15009" x2="30.708" y2="53.2924" gradientUnits="userSpaceOnUse">
<stop stop-color="#9059FF"/>
<stop offset="0.52083" stop-color="#FF4AA2"/>
<stop offset="1" stop-color="#FFBD4F"/>
</linearGradient>
</defs>
</svg>
