<!-- This Source Code Form is subject to the terms of the Mozilla Public
   - License, v. 2.0. If a copy of the MPL was not distributed with this
   - file, You can obtain one at http://mozilla.org/MPL/2.0/. -->
<svg xmlns="http://www.w3.org/2000/svg" width="16" height="16" viewBox="0 0 16 16" fill="context-fill" fill-opacity="context-fill-opacity">
  <path d="M13.1944 3.61165H12.3805C12.9771 2.70165 12.8767 1.46449 12.0772 0.665708C11.191 -0.221903 9.64544 -0.221903 8.75783 0.665708C8.7015 0.722764 8.65022 0.786319 8.60183 0.854931C8.55778 0.794264 8.51083 0.73793 8.45956 0.687375C7.54378 -0.228403 6.056 -0.228403 5.14022 0.687375C4.34722 1.48037 4.24394 2.70382 4.82606 3.61165H3.80556C2.80817 3.61165 2 4.41982 2 5.41721V6.13943C2 6.73237 2.28961 7.25382 2.73089 7.58243L2.72222 7.58387V11.9172C2.72222 12.9146 3.53039 13.7228 4.52778 13.7228H12.4722C13.4696 13.7228 14.2778 12.9146 14.2778 11.9172V7.58387L14.2691 7.58243C14.7104 7.25382 15 6.73237 15 6.13943V5.41721C15 4.41982 14.1918 3.61165 13.1944 3.61165ZM13.3389 4.69499L13.9167 5.27276V6.28387L13.3389 6.86165H9.04167V4.69499H13.3389ZM9.52411 1.43199C10.0029 0.953875 10.8349 0.954597 11.3116 1.43199C11.8049 1.92526 11.8049 2.72621 11.3116 3.21949C11.0148 3.51704 9.97694 3.61671 9.15578 3.59649C9.15867 3.44482 9.15867 3.27582 9.15289 3.09454C9.17744 2.39037 9.28361 1.67249 9.52411 1.43199ZM5.9065 3.24043C5.41322 2.74715 5.41322 1.94621 5.9065 1.45293C6.15278 1.20665 6.47633 1.08387 6.79989 1.08387C7.12344 1.08387 7.447 1.20738 7.69328 1.45365C7.93161 1.69199 8.03778 2.39832 8.06378 3.09599C8.05944 3.28376 8.06017 3.4571 8.06378 3.61165H7.51922C6.8295 3.58493 6.14122 3.47515 5.9065 3.24043ZM3.08333 5.27276L3.66111 4.69499C3.66111 4.69499 7.9215 4.70365 7.95833 4.70293V6.86165H3.66111L3.08333 6.28387V5.27276ZM4.38333 12.6394L3.80556 12.0617V7.94499H7.95833V12.6394H4.38333ZM13.1944 12.0617L12.6167 12.6394H9.04167V7.94499H13.1944V12.0617Z"/>
</svg>
