<!-- This Source Code Form is subject to the terms of the Mozilla Public
   - License, v. 2.0. If a copy of the MPL was not distributed with this
   - file, You can obtain one at http://mozilla.org/MPL/2.0/. -->
<svg width="16" height="16" viewBox="0 0 16 16" fill="none" xmlns="http://www.w3.org/2000/svg">
  <path d="M15.9522 15.2999L11.5874 10.9354L13.7815 8.74143C14.0243 8.49923 14.1896 8.19036 14.2564 7.85404C14.3233 7.51772 14.2887 7.16912 14.157 6.85251C14.0264 6.53547 13.8044 6.26445 13.5193 6.07395C13.2342 5.88345 12.8989 5.78207 12.5559 5.78273H10.5816L7.19494 2.39419C7.17254 2.37179 7.14267 2.36219 7.11814 2.34299L7.88506 1.57612C7.94698 1.51421 7.99609 1.44072 8.0296 1.35983C8.0631 1.27894 8.08035 1.19224 8.08035 1.10469C8.08035 1.01714 8.0631 0.930443 8.0296 0.849555C7.99609 0.768667 7.94698 0.69517 7.88506 0.633261C7.82315 0.571352 7.74965 0.522243 7.66876 0.488738C7.58786 0.455233 7.50116 0.437988 7.4136 0.437988C7.32604 0.437988 7.23934 0.455233 7.15845 0.488738C7.07756 0.522243 7.00405 0.571352 6.94214 0.633261L0.342747 7.23328C0.217707 7.35831 0.147461 7.52789 0.147461 7.70471C0.147461 7.88153 0.217707 8.05111 0.342747 8.17614C0.467786 8.30117 0.637376 8.37141 0.814208 8.37141C0.991041 8.37141 1.16063 8.30117 1.28567 8.17614L2.05259 7.40927C2.07073 7.4338 2.08033 7.4626 2.10273 7.48606L5.49149 10.8735V12.8467C5.49149 13.5507 5.91175 14.1789 6.56135 14.4477C6.878 14.5792 7.22659 14.6137 7.5629 14.5469C7.89921 14.48 8.2081 14.3148 8.45039 14.0722L10.6445 11.8783L15.0093 16.2427C15.1343 16.3677 15.3039 16.438 15.4807 16.438C15.6575 16.438 15.8271 16.3677 15.9522 16.2427C16.0772 16.1177 16.1475 15.9481 16.1475 15.7713C16.1475 15.5945 16.0772 15.4249 15.9522 15.2999ZM6.48775 3.5749L9.77198 6.85784L10.4365 7.11596H12.5559C12.797 7.11596 12.8941 7.28874 12.9261 7.36234C12.9579 7.43509 12.9665 7.51586 12.9509 7.5937C12.9353 7.67154 12.8961 7.74269 12.8386 7.7975L7.50747 13.1283C7.45274 13.1859 7.38158 13.2252 7.3037 13.2408C7.22581 13.2565 7.145 13.2477 7.07227 13.2158C6.99815 13.1868 6.93474 13.1358 6.89065 13.0696C6.84656 13.0034 6.82395 12.9252 6.82588 12.8456V10.721L6.55921 10.0544L3.28351 6.77892V6.17416L5.96082 3.49811L6.48775 3.5749Z" fill="context-fill"/>
</svg>
