<svg height="16" viewBox="0 0 16 16" width="16" xmlns="http://www.w3.org/2000/svg">
    <path fill="context-fill" fill-opacity="context-fill-opacity" d="m11 7.00250628c-.5522847 0-1-.44771525-1-1v-1h-7v8.00000002c0 .5522847.44771525 1 1 1h2c.55228475 0 1 .4477152 1 1 0 .5522847-.44771525 1-1 1h-3c-1.1045695 0-2-.8954305-2-2v-10.00000002c0-1.1045695.8954305-2 2-2h1.05c.23659623-1.16516199 1.26105919-2.00250628 2.45-2.00250628s2.21340377.83734429 2.45 2.00250628h1.05c1.1045695 0 2 .8954305 2 2v2c0 .55228475-.4477153 1-1 1zm-1-3v-1h-1.051c-.47526862.000097-.88494628-.33433374-.98-.8-.14293517-.69793844-.7570756-1.19905191-1.4695-1.19905191s-1.32656483.50111347-1.4695 1.19905191c-.09505372.46566626-.50473138.800097-.98.8h-1.05v1zm-3.5-2c.27614237 0 .5.22385763.5.5 0 .27614238-.22385763.5-.5.5s-.5-.22385762-.5-.5c0-.27614237.22385763-.5.5-.5zm-2 5c-.27614237 0-.5-.22385762-.5-.5 0-.27614237.22385763-.5.5-.5h4c.27614237 0 .5.22385763.5.5 0 .27614238-.22385763.5-.5.5zm0 2c-.27614237 0-.5-.22385762-.5-.5 0-.27614237.22385763-.5.5-.5h2c.27614237 0 .5.22385763.5.5 0 .27614238-.22385763.5-.5.5zm0 2.00000002c-.27614237 0-.5-.2238576-.5-.5s.22385763-.5.5-.5h1c.27614237 0 .5.2238576.5.5s-.22385763.5-.5.5zm2.5 1c0-2.20913902 1.790861-4.00000002 4-4.00000002 2.2080947.00251922 3.9974808 1.79190534 4 4.00000002 0 2.209139-1.790861 4-4 4s-4-1.790861-4-4zm4-.5714286c-.3155913 0-.5714286.2558373-.5714286.5714286v1.7142857c0 .3155913.2558373.5714286.5714286.5714286s.5714286-.2558373.5714286-.5714286v-1.7142857c0-.3155913-.2558373-.5714286-.5714286-.5714286zm-.6788571-1.1428571c0 .3749224.3039347.6788571.6788571.6788571s.6788571-.3039347.6788571-.6788571c0-.1800441-.0715222-.35271411-.1988326-.48002452s-.2999804-.19883266-.4800245-.19883266c-.3749224 0-.6788571.3039347-.6788571.67885718z"/>
</svg>