<!-- This Source Code Form is subject to the terms of the Mozilla Public
   - License, v. 2.0. If a copy of the MPL was not distributed with this
   - file, You can obtain one at http://mozilla.org/MPL/2.0/. -->
<svg xmlns="http://www.w3.org/2000/svg" viewBox="0 0 16 16" width="16" height="16" fill="context-fill" fill-opacity="context-fill-opacity">
  <path fill-rule="evenodd" clip-rule="evenodd" d="M1.58579 1.58579C1.96086 1.21071 2.46957 1 3 1H13C13.5304 1 14.0391 1.21071 14.4142 1.58579C14.7893 1.96086 15 2.46957 15 3V9C15 9.53043 14.7893 10.0391 14.4142 10.4142C14.0391 10.7893 13.5304 11 13 11H3C2.46957 11 1.96086 10.7893 1.58579 10.4142C1.21071 10.0391 1 9.53043 1 9V3C1 2.46957 1.21071 1.96086 1.58579 1.58579ZM13.15 9.75L13.75 9.15V2.85L13.15 2.25H2.85L2.25 2.85V9.15L2.85 9.75H13.15ZM2.85 13.75L2.25 13.15V12.625C2.25 12.4592 2.18415 12.3003 2.06694 12.1831C1.94973 12.0658 1.79076 12 1.625 12C1.45924 12 1.30027 12.0658 1.18306 12.1831C1.06585 12.3003 1 12.4592 1 12.625V13C1 13.5304 1.21071 14.0391 1.58579 14.4142C1.96086 14.7893 2.46957 15 3 15H13C13.5304 15 14.0391 14.7893 14.4142 14.4142C14.7893 14.0391 15 13.5304 15 13V12.625C15 12.4592 14.9342 12.3003 14.8169 12.1831C14.6997 12.0658 14.5408 12 14.375 12C14.2092 12 14.0503 12.0658 13.9331 12.1831C13.8158 12.3003 13.75 12.4592 13.75 12.625V13.15L13.15 13.75H2.85Z"/>
</svg>
