<!-- This Source Code Form is subject to the terms of the Mozilla Public
   - License, v. 2.0. If a copy of the MPL was not distributed with this
   - file, You can obtain one at http://mozilla.org/MPL/2.0/. -->
<svg width="17" height="18" viewBox="0 0 17 18" fill="context-fill" xmlns="http://www.w3.org/2000/svg">
<path d="M2.50049 4C1.97006 4 1.46135 4.21071 1.08627 4.58579C0.711202 4.96086 0.500488 5.46957 0.500488 6L0.500488 16C0.500488 16.5304 0.711202 17.0391 1.08627 17.4142C1.46135 17.7893 1.97006 18 2.50049 18H14.5005C15.0309 18 15.5396 17.7893 15.9147 17.4142C16.2898 17.0391 16.5005 16.5304 16.5005 16V6C16.5005 5.46957 16.2898 4.96086 15.9147 4.58579C15.5396 4.21071 15.0309 4 14.5005 4H2.50049ZM15.2505 16.15L14.6505 16.75H2.35049L1.75049 16.15V5.85L2.35049 5.25H14.6505L15.2505 5.85V16.15Z" fill="context-fill"/>
<path d="M7.24704 2.68094L7.24653 2.69368L7.24654 2.70642L7.25108 8.78996L5.82554 8.78995L5.82292 8.78996C5.60124 8.79089 5.38477 8.8573 5.2007 8.98083C5.01663 9.10437 4.87316 9.27954 4.78831 9.48434C4.70346 9.68914 4.681 9.91445 4.72377 10.132C4.76653 10.3495 4.87261 10.5495 5.02867 10.707L5.0306 10.7089L7.8466 13.5249L8.02966 13.708H8.28854H8.71154H8.97043L9.15348 13.5249L11.9695 10.7089L11.9714 10.707C12.1275 10.5495 12.2336 10.3495 12.2763 10.132C12.3191 9.91445 12.2966 9.68914 12.2118 9.48434C12.1269 9.27954 11.9835 9.10437 11.7994 8.98083C11.6153 8.8573 11.3988 8.79089 11.1772 8.78996L11.1772 8.78996H11.1745H9.74808L9.74354 2.70549L9.74353 2.69321L9.74304 2.68094C9.73013 2.3586 9.593 2.05376 9.36036 1.83026C9.12773 1.60676 8.81764 1.48193 8.49504 1.48193C8.17244 1.48193 7.86235 1.60676 7.62972 1.83026C7.39709 2.05376 7.25995 2.3586 7.24704 2.68094Z" fill="context-fill" stroke="currentcolor" stroke-width="0.5"/>
<line x1="1.5" y1="14.375" x2="15.5" y2="14.375" stroke="context-fill" stroke-width="1.25"/>
</svg>


