<!-- This Source Code Form is subject to the terms of the Mozilla Public
   - License, v. 2.0. If a copy of the MPL was not distributed with this
   - file, You can obtain one at http://mozilla.org/MPL/2.0/. -->
<svg viewBox="0 0 207 169" fill="none" xmlns="http://www.w3.org/2000/svg">
    <g id="no connection v5">
        <path id="Vector" d="M177.182 127.895H176.863L176.541 127.899C176.548 127.008 176.555 126.118 176.559 125.227C176.768 125.227 176.973 125.227 177.182 125.234V127.895Z" fill="#FEF4E5"/>
        <path id="Vector_2" d="M173.952 130.754C161.202 131.814 141.676 131.235 127.679 131.153C119.912 131.111 109.114 130.68 101.347 130.754C100.447 130.761 97.8048 142.063 89.4321 141.109C82.717 140.342 75.9133 140.635 69.1557 140.296C66.3188 140.155 64.2646 138.678 62.8904 136.062C59.037 128.729 55.0207 121.477 51.1141 114.172C48.7872 109.818 45.497 105.641 44.5265 100.99C43.3755 95.4769 43.6127 93.9996 35.9591 90.1086C28.3479 86.2388 25.8191 78.1846 25.1391 70.1481C23.8782 55.2342 28.0185 41.9602 38.5835 30.9586C44.6328 24.6573 49.0068 17.2569 52.4954 9.29817C54.7338 4.18788 56.7597 3.86981 62.0333 5.65099C72.0599 9.04018 78.7326 17.6775 80.4503 28.2691C81.1161 32.3722 79.2638 39.9952 79.3878 44.1725C79.3878 44.1725 82.3558 41.4654 85.0546 39.9316C85.0546 39.9316 86.3083 39.709 86.1171 41.6987C85.8869 44.0877 82.4833 52.1066 82.5753 53.3612C84.3143 53.0219 88.7415 54.7677 89.6588 53.7146C94.0966 48.6184 108.391 30.121 111.033 27.7991C113.481 25.6469 114.122 25.873 114.805 28.976C116.693 37.5143 118.772 50.0851 120.472 58.6623C121.017 61.4189 123.727 63.2743 126.493 65.0237C129.45 66.8967 131.809 69.5579 134.285 72.0918C134.285 72.0918 153.509 70.4414 162.264 69.9714C166.029 69.7699 168.937 70.3283 167.577 73.8589C165.271 79.835 161.22 87.2071 158.368 92.9429C156.594 96.5124 154.508 98.1239 153.056 101.778C153.056 101.778 152.319 107.857 152.347 110.967C152.347 111.172 166.447 113.275 170.764 116.621C174.055 119.173 176.077 125.81 173.952 130.758V130.754Z" fill="#FEA619"/>
        <path id="Vector_3" d="M63.8047 137.469C73.4524 136.79 81.4602 133.398 89.6168 128.743C102.757 121.244 114.806 115.204 132.061 102.252C142.431 92.427 152.964 82.9804 163.331 73.1486C164.404 72.1308 165.449 70.8832 166.618 69.9679C166.522 71.5264 166.876 73.2935 166.253 74.6082C162.626 82.263 158.975 89.9214 154.909 97.35C153 100.838 151.374 106.334 151.997 110.613C152.305 112.73 164.939 113.052 169.352 115.915C173.032 118.304 175.649 121.774 175.373 126.517C175.114 130.938 173.485 131.093 168.906 131.182C163.462 131.288 158.011 131.203 152.564 131.171C136.021 131.069 119.477 130.991 102.934 130.79C101.099 130.768 100.426 131.419 99.8701 132.995C98.0249 138.215 93.9625 140.689 88.657 140.731C81.6763 140.784 74.6884 140.448 67.7148 140.077C66.0856 139.989 63.7516 137.741 63.8082 137.476L63.8047 137.469Z" fill="#FE7D04"/>
        <path id="Vector_4" d="M26.9706 52.2973C30.6292 60.7049 37.7481 65.2922 46.4855 66.2641C47.4985 66.3771 49.0462 66.4019 49.2835 66.7871C49.2835 66.7871 48.2387 68.6071 47.7924 69.4483C43.7265 77.1172 42.5648 93.2998 42.2 93.2927C30.8877 88.9988 25.7203 80.3863 24.4914 68.9075C23.868 61.387 26.7899 51.8839 26.9706 52.2973Z" fill="#FE7E05"/>
        <path id="Vector_5" d="M42.7448 93.8583C43.1096 93.8653 43.4779 93.8724 43.8427 93.876C45.4825 95.7879 47.0975 97.721 48.7692 99.6047C55.1018 106.747 62.7662 110.931 72.637 110.426C74.8328 110.313 77.0925 110.511 79.2423 110.956C80.1525 111.143 81.3 112.211 81.5692 113.105C82.7415 117.01 82.2351 117.53 78.031 117.77C74.6026 117.964 71.1813 118.36 67.7494 118.441C64.0589 118.533 60.7438 119.155 58.5232 122.516C57.3048 124.357 56.4442 123.661 55.5269 122.057C52.6864 117.105 49.4634 112.352 46.8957 107.27C45.2877 104.086 44.5758 100.449 43.4991 97.0071C43.1768 95.9787 42.9891 94.9114 42.7412 93.8618L42.7448 93.8583Z" fill="#FE8008"/>
        <path id="Vector_6" d="M148.654 131.15C148.427 131.15 148.204 131.143 147.978 131.139C147.981 130.033 147.988 128.927 147.992 127.821C148.211 127.824 148.434 127.828 148.654 127.824V131.15Z" fill="#FEF6E9"/>
        <path id="Vector_7" d="M148.806 131.108C135.054 131.108 119.41 131.143 105.657 131.136C100.95 131.136 101.032 131.09 99.3316 126.715C98.4993 124.573 97.2066 122.94 94.9718 121.615C89.6733 118.473 83.9322 118.166 78.1237 117.872C74.9149 117.71 69.8432 117.89 66.6344 118.031C64.5164 118.123 65.2743 117.353 65.6321 115.102C66.4573 109.907 67.1019 104.673 68.2069 99.5375C68.9188 96.2296 69.2482 93.0843 68.4159 89.7658C67.0275 84.2279 65.8127 78.6475 64.5766 73.0743C64.3641 72.1166 64.3004 70.5333 64.5129 69.6144C64.6333 69.0843 72.1878 71.4133 75.1381 72.7951C86.4716 78.0962 91.43 87.9917 93.9092 101.068C93.9092 101.068 95.9599 100.474 99.9302 101.068C107.014 102.128 116.222 108.489 115.514 115.558C115.514 115.558 122.781 113.836 126.847 114.144C134.77 114.741 142.303 119.166 145.973 125.806C146.238 126.291 148.81 130.001 148.806 131.108Z" fill="#FEEDD3"/>
        <path id="Vector_8" d="M80.0961 37.4542C77.7905 33.1356 75.9771 29.909 72.1698 26.6965C69.8251 32.8599 66.9917 36.7474 62.3875 41.3417C61.325 37.4542 60.4218 34.6729 59.1999 31.7997C57.6841 28.2374 55.6582 25.0849 55.6582 25.0849C55.6582 25.0849 52.6902 26.9262 49.8214 28.1384C46.772 29.4283 38.0487 32.7963 37.2412 32.8599C37.5316 32.0966 45.1676 22.0951 47.7849 17.9178C49.7612 14.7619 51.355 11.2985 52.6159 7.79266C53.5828 5.09969 54.6488 5.66514 57.0749 5.29406C61.6083 4.60491 73.721 9.53496 76.9086 17.6634C79.3205 23.8162 81.1764 29.5344 80.0961 37.4542Z" fill="#FEEDD4"/>
        <path id="Vector_9" d="M148.448 127.322C148.671 127.322 148.894 127.323 149.117 127.319V130.57C148.894 130.606 148.667 130.641 148.444 130.68L148.451 130.489C148.451 129.436 148.451 128.379 148.451 127.326L148.448 127.322Z" fill="#FEC7C4"/>
        <path id="Vector_10" d="M148.444 130.676C148.667 130.641 148.894 130.606 149.117 130.567V131.217C148.894 131.037 148.667 130.857 148.444 130.676Z" fill="#FEF2F2"/>
        <path id="Vector_11" d="M147.744 130.754C147.744 131.807 119.42 131.217 105.261 131.175C101.807 131.164 100.352 130.913 99.5762 127.573C100.865 127.496 103.38 127.573 104.577 127.262C110.233 125.789 114.281 121.113 115.868 115.558C116.233 114.285 125.881 113.409 131.098 114.497C137.88 115.911 148.098 124.039 147.744 130.754Z" fill="#FE9A94"/>
        <path id="Vector_12" d="M71.9506 117.646C71.5078 117.646 66.0182 118.038 65.5754 118.031C65.5754 118.031 65.3452 110.21 66.9921 110.256C67.3215 110.267 68.4088 110.61 70.1797 110.256C72.5031 109.793 74.1429 109.433 75.1381 109.903C75.1381 109.903 75.8004 112.08 76.909 114.851C77.6173 116.618 78.6799 118.031 78.6799 118.031C77.2773 118.233 73.385 117.597 71.9506 117.597C71.9506 117.614 71.9506 117.632 71.9506 117.65V117.646Z" fill="#FE9A94"/>
        <path id="Vector_13" d="M34.7801 89.6526C29.9739 90.7023 26.2268 91.5116 22.4832 92.3421C21.7323 92.5082 18.4739 92.5859 17.4114 94.7064C16.7916 95.9469 17.3264 96.8516 18.4739 97.5337C19.6852 98.2546 23.0534 99.7319 24.4063 100.22C28.0047 101.517 30.2714 103.559 30.1617 106.369C30.0412 109.334 26.8643 113.472 23.7936 114.271C20.3794 115.158 17.6452 115.391 14.2239 116.264C13.3738 116.48 11.773 117.219 11.0363 117.678C7.27144 120.018 7.25373 121.707 10.7919 124.386C11.4082 124.852 11.9324 125.474 12.6017 125.838C14.2309 126.725 15.9522 127.747 17.7656 127.223C18.2933 127.072 18.52 126.488 19.1362 126.107C25.3484 122.237 32.2973 121.77 39.3029 124.174C42.4515 125.255 43.9957 127.665 43.4963 130.432C43.0075 133.132 41.0277 134.875 37.6772 134.786C32.9313 134.663 31.0081 134.574 26.2622 134.292C25.2634 134.232 20.5954 133.231 20.5954 133.231C20.5954 133.231 20.9177 137.013 21.3038 137.826C23.0251 141.459 25.7097 142.795 29.3612 143.975C38.9806 147.092 48.908 148.732 58.9807 149.541C69.9176 150.421 80.8509 151.382 91.7984 152.107C92.6732 152.164 94.4157 152.623 95.3295 152.312C96.091 152.05 99.2148 149.739 99.9338 149.485C104.892 147.718 107.832 147.477 113.038 147.364C113.587 147.354 113.038 157.613 113.038 161.147C113.038 161.147 103.121 162.914 95.3295 157.26C94.692 156.797 92.5599 156.864 91.6921 156.821C85.9262 156.535 79.8309 156.284 74.0791 155.846C57.9572 154.623 44.4986 153.853 29.0991 148.424C23.8928 146.59 17.7939 144.208 16.3489 138.176C16.2214 137.642 15.6406 131.814 15.6406 131.814C13.2641 130.814 8.3623 128.634 6.43205 126.867C3.14179 123.852 1.92697 119.36 5.22078 116.342C8.4048 113.43 12.1484 111.677 16.4374 111.013C17.9604 110.776 19.4798 110.32 20.9248 109.903C29.4568 107.429 23.2907 104.266 22.0192 103.542C20.1067 102.45 18.0808 101.821 15.9983 101.068C13.9866 100.343 11.9359 98.866 11.7482 96.4734C11.5357 93.7911 13.983 91.4409 16.3524 90.4655C21.2365 88.4581 24.4488 87.3555 29.5808 86.1539C30.8027 85.8676 32.6373 88.1401 34.7872 89.6562L34.7801 89.6526ZM33.6573 130.804C33.6573 130.832 37.3478 130.542 37.5993 130.397C38.6051 129.825 38.6618 128.63 38.6618 128.63C37.7976 127.934 35.8922 127.093 34.9749 127.022C32.1131 126.796 31.6102 126.637 28.745 126.863C27.987 126.923 23.7936 128.061 23.0782 128.63C23.8113 129.143 25.4759 129.574 26.2657 129.69C28.6635 130.037 31.2383 130.627 33.6573 130.804Z" fill="#94B0ED"/>
        <path id="Vector_14" d="M176.187 123.096C180.232 124.743 183.986 126.269 187.737 127.8C188.65 128.174 189.557 128.57 190.478 128.927C192.748 129.803 195.153 130.461 197.264 131.585C208.303 137.469 204.245 146.908 196.12 151.542C189.975 155.047 183.338 155.726 176.431 156.199C174.104 156.359 166.16 157.26 166.16 157.26C161.747 160.391 157.66 161.501 150.223 161.501L148.806 159.027C147.343 158.493 144.666 158.938 143.493 158.673C142.753 158.504 143.04 155.8 142.785 154.786C142.711 154.485 148.048 155.266 148.452 155.139C148.452 155.139 148.175 154.199 149.008 153.856C148.222 153.464 144.326 152.485 143.493 152.312V149.485C143.493 149.485 148.165 149.714 149.16 149.131C149.16 149.131 149.291 146.855 150.577 146.657C155.181 145.951 164.035 147.718 166.515 151.959C167.212 153.153 181.935 150.591 188.098 149.361C190.821 148.817 193.556 147.368 195.815 145.7C199.701 142.837 199.137 138.239 194.848 136.055C191.406 134.302 187.421 132.641 183.869 131.107C181.935 130.273 177.32 128.718 175.369 127.927C175.369 127.927 175.291 126.492 176.187 123.096Z" fill="#93AFED"/>
        <path id="Vector_15" d="M156.243 97.8872C156.955 94.9751 159.077 93.2928 159.077 93.2928C162.098 94.3107 167.694 95.6536 170.669 96.7562C174.264 98.0921 177.741 99.0958 181.035 101.068C183.727 102.679 185.271 107.086 183.869 109.903C182.137 113.388 181.035 114.144 177.139 116.264C176.304 116.72 172.889 117.325 172.889 117.325C171.972 116.929 169.085 114.812 168.285 114.144C169.039 113.621 170.747 113.144 171.572 112.787C172.889 112.221 177.494 112.377 178.556 109.196C179.619 106.016 177.975 104.333 176.137 103.552C171.118 101.421 166.514 99.6542 161.598 99.0569C159.873 98.8484 157.975 98.3925 156.243 97.8872Z" fill="#94B0ED"/>
        <path id="Vector_16" d="M155.677 97.0778C156.452 95.6677 157.228 94.2576 157.688 93.42C164.747 94.3495 170.453 96.8658 176.739 98.5657C175.372 98.9474 174.664 101.421 174.664 102.835C174.664 102.835 172.712 102.001 171.179 101.425C166.465 99.6506 161.425 98.7424 156.52 97.4666C156.24 97.3393 155.96 97.2086 155.677 97.0814V97.0778Z" fill="#5375D3"/>
        <path id="Vector_17" d="M29.4495 86.2246C29.9418 86.0868 30.172 85.9914 30.6182 86.3271C32.0279 87.3909 33.3489 88.5713 34.6417 89.6562C29.6655 90.7058 24.739 91.918 19.7381 92.6602C19.5291 91.5222 19.1749 90.1086 16.1113 90.5503C16.2707 90.1863 25.3198 87.3697 29.4459 86.2211L29.4495 86.2246Z" fill="#5576D4"/>
        <path id="Vector_18" d="M17.4072 127.22C18.4662 126.068 20.995 124.969 21.6573 124.746C25.1742 123.562 25.3903 123.728 29.0135 122.979C29.8351 122.81 31.6414 124.22 31.9248 125.209C32.5446 127.361 31.9389 126.305 30.8658 126.513C28.4433 126.983 25.9074 127.22 23.4282 128.634C23.4282 128.634 20.2406 128.28 17.4072 127.22Z" fill="#5375D3"/>
        <path id="Vector_19" d="M180.848 130.284C175.103 128.001 174.94 127.093 175.014 122.272C177.997 123.198 180.851 124.824 183.943 125.785C182.098 126.513 181.39 126.867 180.848 130.28V130.284Z" fill="#5173D3"/>
        <path id="Vector_20" d="M181.028 156.397C176.948 156.684 169.89 157.405 165.806 157.613C165.806 157.613 165.696 157.362 166.142 155.376C166.514 153.726 167.97 154.033 168.877 154.121C172.95 154.517 176.994 155.189 181.049 155.761C181.071 155.973 181.064 156.185 181.028 156.397Z" fill="#5B7BD5"/>
        <path id="Vector_21" d="M177.494 115.413C173.881 117.703 171.788 117.579 168.342 114.861C172.004 111.355 175.482 111.568 177.494 115.413Z" fill="#5677D4"/>
        <path id="Vector_22" d="M20.2413 132.875C20.2413 135.327 21.658 136.568 21.658 138.882C18.4704 137.822 17.4079 138.882 16.3454 139.236C15.5733 138.236 15.1447 133.394 15.9912 132.168C15.9912 132.168 18.6723 132.981 20.2413 132.875Z" fill="#5879D5"/>
        <path id="Vector_23" d="M154.969 97.0779C155.248 97.2051 155.528 97.3359 155.812 97.4631C155.369 97.562 154.926 97.661 154.483 97.76C154.646 97.5338 154.806 97.3041 154.969 97.0779Z" fill="#AFBEEA"/>
        <path id="Vector_24" d="M161.885 111.324C161.711 111.419 161.538 111.585 161.364 111.585C161.191 111.585 161.017 111.416 160.844 111.324C161.017 111.228 161.191 111.062 161.364 111.062C161.538 111.062 161.711 111.232 161.885 111.327V111.324Z" fill="#EBEFF9"/>
        <path id="Vector_25" d="M181.028 156.044C181.06 155.832 181.067 155.624 181.05 155.408C181.556 155.45 182.059 155.496 182.565 155.539C182.565 155.673 182.562 155.811 182.558 155.945C182.048 155.977 181.538 156.009 181.028 156.041V156.044Z" fill="#AFBEEA"/>
        <path id="Vector_26" d="M41.4739 95.3249C38.5342 93.2928 35.8 91.4303 33.0941 89.529C27.9586 85.9207 25.6034 80.5666 24.254 74.7671C22.4087 66.826 23.3119 59.0263 25.5077 51.1806C27.438 44.2856 30.8912 38.4049 35.3785 32.9942C37.3442 30.6228 39.2886 28.2267 41.3676 25.9543C46.1064 20.7804 48.5644 14.3236 51.5784 8.17783C52.1097 7.0964 52.5807 5.9867 53.0022 5.05724C58.8531 2.32185 64.0984 4.12777 68.6071 7.19536C74.242 11.0298 78.701 16.1083 80.3904 23.0952C81.3856 27.2054 81.9133 31.319 81.6194 35.5387C81.5131 37.0584 81.2369 39.2955 81.1554 40.9883C82.5721 39.9281 85.7738 38.2282 86.8222 37.8076C87.8847 38.161 87.0311 42.9533 86.4999 45.2045C85.9686 47.4486 85.2426 49.6468 84.5165 52.156C85.9757 52.2656 87.2472 52.361 88.6887 52.4706C91.2635 49.0602 93.7675 45.5897 96.4344 42.2464C99.8132 38.0091 103.266 33.8282 106.805 29.7216C108.933 27.2513 110.198 25.0849 113.385 24.0247C115.032 24.7244 115.68 28.5943 116.183 30.2623C118.344 37.4542 119.76 44.8758 120.763 52.3292C120.996 54.0786 121.885 59.0086 121.885 59.0086C121.885 59.0086 122.831 59.8851 123.755 60.712C127.46 64.0341 131.282 67.2218 135.39 70.7418C145.958 69.1126 158.184 68.7168 169.344 69.2575C169.344 71.0245 169.004 73.1944 168.137 75.4598C164.761 84.2738 159.449 94.4131 153.881 102.517C153.733 104.874 153.577 107.387 153.424 109.846C157.388 110.734 161.191 111.37 164.857 112.469C168.473 113.554 172.068 115.144 174.129 118.48C176.223 121.869 177.526 125.58 176.045 129.743C175.241 132.002 173.736 132.864 171.519 132.853C166.522 132.832 161.521 132.843 156.523 132.74C151.094 132.627 145.668 132.281 140.242 132.249C127.488 132.175 114.735 132.224 101.967 132.224C100.716 134.444 99.3599 136.826 98.0353 139.222C97.2101 140.717 95.9528 141.388 94.2669 141.547C87.5057 142.183 80.7516 142.523 73.9763 141.731C72.1063 141.512 70.215 141.466 68.3343 141.314C65.3664 141.077 64.5093 140.996 64.5093 140.996C61.7432 135.833 56.2323 126.701 53.3528 121.601C50.8028 117.084 47.8631 112.776 45.4583 108.189C43.9885 105.39 43.1243 102.262 42.1397 99.2336C41.7041 97.8871 41.6474 96.4169 41.4703 95.3178L41.4739 95.3249ZM94.4688 100.499C105.742 99.2901 115.16 106.012 116.222 114.494C130.035 112.02 140.15 114.66 147.573 126.64C149.21 118.063 150.658 109.603 151.044 101.411C157.349 92.0347 162.548 82.5456 165.966 71.8374C154.933 70.9962 144.524 72.7456 134.476 73.6115C129.174 69.2963 124.209 65.2533 119.19 61.1644C116.516 41.3028 114.451 33.2062 112.68 27.9051C111.972 28.2585 111.079 29.1915 110.81 29.5237C105.218 36.3834 99.6184 43.2324 94.0792 50.1345C92.9069 51.5941 91.5043 53.1208 91.051 54.8384C90.4277 57.2098 88.9508 58.3689 87.0063 59.2807C83.8046 60.7827 80.5604 62.1999 77.3587 63.709C73.9905 65.2958 70.4488 66.6069 67.3958 69.5331C84.0207 73.4984 91.7983 84.9241 94.4652 100.492L94.4688 100.499ZM41.0241 91.0133C42.1114 85.486 42.9047 80.252 44.2152 75.1523C45.4866 70.2081 47.7888 65.8577 52.1593 62.6275C58.5131 57.9343 65.4337 54.7288 73.1688 53.2551C75.9668 52.7215 78.8002 52.3857 81.6937 51.9475C82.604 48.7527 83.4646 45.7417 84.5307 41.9955C82.1683 43.6459 80.5108 44.8051 78.6124 46.1304C77.9714 45.936 77.982 44.6567 78.0068 44.169C78.1272 41.5396 78.2512 38.9067 78.5204 36.2915C79.5545 26.2724 76.7743 17.7022 68.9152 11.0899C64.9166 7.72547 60.3336 6.21995 55.1166 7.18829C54.0576 9.57027 52.9774 11.8462 52.0247 14.1752C49.2232 21.0136 45.1891 27.1205 40.0501 32.3369C34.3125 38.161 30.2997 44.7344 28.118 52.6225C26.2303 59.4539 25.4369 66.2394 26.8501 73.2121C28.5465 81.5773 33.1118 87.6489 41.0205 91.0098L41.0241 91.0133ZM89.6591 117.752C95.9315 119.364 101.198 121.901 101.616 128.948C116.867 129.132 131.735 129.309 146.66 129.489C144.892 119.297 129.617 111.543 116.339 116.049C114.809 121.53 110.786 126.291 107.633 126.216C106.663 126.16 110.559 124.746 113.038 120.859C114.968 117.834 115.698 113.07 113.58 110.179C111.274 107.037 108.494 104.379 104.736 102.927C101.365 101.626 97.3447 101.05 93.5585 102.128C92.496 95.7667 90.9908 92.0135 89.5635 88.6808C85.1859 78.4532 77.086 72.8658 66.181 70.5015C66.9779 74.1098 67.7004 77.4141 68.4406 80.715C69.1879 84.0547 69.9423 87.3944 70.7179 90.7271C71.5148 94.1587 72.5171 97.5514 73.1086 101.015C73.6682 104.298 75.3115 107.366 75.4922 110.91C72.7969 110.249 72.2586 109.811 71.5963 107.496C70.7781 104.637 70.0733 101.743 69.3225 98.8661L68.8762 98.8873C67.9129 104.793 66.9495 110.695 65.9614 116.77C73.5974 115.165 80.78 117.116 88.1078 117.187C87.913 114.49 87.2507 112.009 88.4124 109.716C88.547 109.451 88.9543 109.55 88.9543 109.85C88.9614 112.313 89.0358 114.575 89.6626 117.759L89.6591 117.752ZM62.6995 67.7272C70.9233 63.6877 79.0445 59.7013 87.1657 55.7148C84.2402 55.2377 81.4565 54.9479 78.7541 55.2908C70.4275 56.3545 62.5436 58.8708 55.6337 63.7549C52.8747 65.7057 50.1121 67.8615 48.6282 71.0599C44.6437 79.6442 44.5091 88.7974 44.796 97.9967C44.8102 98.4208 45.0829 98.8307 45.1325 99.2619C45.5752 102.909 47.8313 105.754 49.4746 108.846C51.8724 113.356 54.6704 119.138 57.0787 123.329C59.2038 120.502 61.3288 118.735 64.4951 117.664C65.6214 110.631 66.8504 103.121 67.9979 95.597C68.1608 94.5333 68.0864 93.3811 67.8633 92.3245C66.8433 87.4651 65.6993 82.6269 64.6651 77.7711C63.9816 74.5657 63.4007 71.3391 62.6995 67.7237V67.7272ZM82.9334 139.232C85.2213 139.232 87.6651 139.36 89.6697 139.36C91.6141 135.462 90.7783 131.136 90.7252 127.217C92.1419 126.863 92.496 135.345 91.4335 139.232C92.4854 139.123 93.5444 138.943 94.4759 138.639C94.7698 138.543 95.0248 138.356 95.2054 138.105C95.974 137.02 96.6965 136.08 97.3022 135.066C100.022 130.514 99.0482 124.096 93.3885 122.12C90.7075 121.184 87.8989 120.47 85.0867 120.081C78.4141 119.159 71.7167 118.339 64.9626 119.466C61.6653 120.018 59.3206 121.696 57.7623 124.99C60.5107 129.471 63.2555 133.945 65.9224 138.299C71.3342 138.6 76.2643 138.875 81.6194 139.172V127.853C81.5167 126.856 82.225 127.209 82.3419 127.835C83.3017 131.503 82.9334 136.751 82.9334 139.225V139.232ZM172.461 130.217C174.781 126.036 173.492 120.703 169.553 118C164.676 114.653 159.116 113.472 153.003 113.172C152.04 118.572 151.087 123.923 150.074 129.616C155.868 129.39 161.308 130.326 166.777 129.811C167.393 126.23 165.813 122.265 164.496 119.781C168.293 120.145 167.556 126.616 168.64 129.955C169.954 130.044 171.14 130.125 172.461 130.213V130.217Z" fill="black"/>
        <path id="Vector_27" d="M103.118 95.7666C101.347 95.4132 101.453 94.4413 101.347 93.2928C101.701 89.7587 105.717 87.1434 107.251 89.688C108.784 92.2325 105.193 96.1801 103.118 95.7666Z" fill="black"/>
        <path id="Vector_28" d="M125.264 101.283C126.139 103.188 122.763 107.723 120.553 107.047C118.343 106.372 119.225 102.941 121.421 100.881C122.576 99.7991 124.385 99.3821 125.264 101.287V101.283Z" fill="black"/>
        <path id="Vector_29" d="M108.49 112.119H104.088C103.666 110.878 103.213 109.535 102.728 108.108C102.65 107.878 102.823 107.641 103.068 107.641C105.884 107.652 108.062 109.14 108.844 111.638C108.919 111.875 108.742 112.119 108.494 112.119H108.49Z" fill="black"/>
        <path id="Vector_30" d="M97.3875 117.176C100.589 116.961 103.38 117.869 106.295 118.445C106.543 118.494 106.557 118.841 106.313 118.904C104.209 119.473 100.274 118.894 97.3202 117.512C97.1537 117.434 97.2033 117.187 97.3875 117.176Z" fill="black"/>
        <path id="Vector_31" d="M94.5144 151.899C81.7465 150.835 68.674 149.944 55.651 148.587C46.8392 147.668 38.0876 146.135 29.6547 143.244C26.5451 142.176 23.74 140.597 22.04 137.681C21.4344 136.642 21.2821 135.341 20.7933 133.737C23.6055 134.2 25.7588 134.765 27.9335 134.864C31.9073 135.041 35.959 135.384 39.8585 134.829C44.1865 134.214 45.6279 129.902 43.3577 126.167C42.1995 124.262 40.3578 123.562 38.4311 123.064C30.7987 121.099 23.6905 122.248 17.3508 126.845C13.8445 126.368 10.5684 124.531 8.76207 121.718C8.62394 121.502 8.59207 121.226 8.69478 120.993C9.25083 119.692 10.6888 118.06 12.0913 117.321C13.4938 116.582 20.4108 115.54 24.5263 114.483C26.7505 113.911 28.4258 112.497 29.2156 110.239C31.4964 107.026 31.376 104.118 28.5533 101.867C27.1259 100.729 25.3551 99.9723 23.6692 99.1948C21.6363 98.2582 18.1087 97.1733 17.8502 95.9257C17.7545 93.9926 21.1298 92.8582 23.439 92.5012C25.5109 92.1796 27.5262 91.4975 29.591 91.1088C31.6204 90.7306 33.6817 90.5221 35.7323 90.2429C35.3782 89.5397 35.0559 89.218 34.8115 89.2675C29.6299 90.3419 24.4094 91.282 19.3129 92.6709C17.6483 93.1232 16.3414 94.3601 17.0462 97.1697C17.4003 97.8766 21.3388 99.3715 23.825 100.237C27.9972 101.686 30.8377 104.938 29.2758 108.355C28.9818 109.002 28.5285 109.631 28.1778 110.115C28.1637 110.122 28.1495 110.136 28.1353 110.154C26.2724 112.988 23.3788 113.727 20.2727 114.289C17.7404 114.748 15.2753 115.547 12.7961 116.254C9.96272 117.314 7.1435 120.177 7.81288 121.788C9.03832 124.241 10.7206 125.987 13.1821 126.694C18.0627 128.093 22.9361 129.637 27.9193 130.535C30.8979 131.072 34.1457 131.154 37.2305 131.097C38.7747 130.79 39.0297 130.15 39.2528 129.341C39.3166 129.111 39.2741 128.86 39.1182 128.68C36.2282 125.29 29.2651 125.245 22.6209 128.323C21.6327 128.015 19.6281 127.57 18.4558 127.209C18.4558 127.209 18.81 126.856 19.2137 126.52C19.6175 126.185 22.9361 124.729 24.8982 124.188C29.6689 122.87 34.4821 122.477 39.2387 124.407C41.8773 125.478 43.7225 128.217 43.3152 130.567C42.9539 132.656 41.2681 133.571 37.8893 133.896C29.1943 134.726 20.8358 133.207 12.7784 130.157C8.60269 128.577 2.87217 123.675 3.53802 120.739C3.93469 119.081 5.33722 117.646 6.79995 116.484C10.1788 113.798 13.9613 111.801 18.4452 111.384C19.9539 111.242 21.4698 110.698 22.8794 110.097C24.5901 109.369 27.3137 106.712 25.6597 105.454C24.4236 104.641 22.9644 103.503 21.3458 102.676C19.5856 101.775 17.6695 101.167 15.8278 100.421C12.0559 98.8944 11.2802 95.901 13.9861 92.9571C14.7866 92.0842 15.7959 91.2183 16.8868 90.819C20.1983 89.5997 23.5842 88.5713 26.963 87.5429C28.4789 87.0799 30.0443 86.7866 31.5885 86.4155C30.9616 85.7264 30.402 85.4967 29.9452 85.6274C25.3728 86.9068 20.765 88.0977 16.2882 89.6563C14.8326 90.1617 13.4974 91.494 12.5128 92.7592C9.99105 96 11.0784 99.7779 14.8538 101.432C16.8833 102.319 19.0012 103.019 20.9917 103.98C22.2029 104.567 23.818 105.408 24.6184 106.143C24.7565 106.27 24.8167 106.461 24.7636 106.638C23.8994 109.486 19.9752 109.808 17.4322 110.221C12.6651 110.999 8.5779 112.942 5.08575 116.201C2.19924 118.894 1.62902 122.827 4.04448 125.365C5.68785 127.089 7.66413 128.552 9.66521 129.874C11.3794 131.005 13.3451 131.768 15.1407 132.666C14.6059 137.289 15.8384 141.374 18.6152 143.597C21.4663 145.877 24.5121 147.817 28.068 148.979C37.9141 152.199 48.0753 153.977 58.3215 154.994C69.4638 156.101 80.6769 156.514 91.8581 157.288C93.0375 157.369 94.6065 157.606 94.6065 157.606C97.4328 159.903 101.534 161.147 104.892 161.646C107.647 162.056 110.962 161.847 113.732 161.847C113.378 157.96 113.732 149.831 113.764 147C106.145 146.845 99.1718 147.979 94.5038 151.892L94.5144 151.899ZM38.1761 128.56C38.7003 130.079 36.9649 130.355 36.6001 130.394C34.9177 130.125 33.2354 130.168 31.5637 130.058C29.4281 129.917 24.1332 128.634 24.1332 128.634C29.9062 126.075 34.5175 126.99 38.1761 128.56ZM112.46 160.79C106.085 160.66 100.171 160.734 95.1024 156.154C89.2125 155.903 83.0003 155.776 76.8093 155.334C70.4094 154.874 64.0166 154.228 57.645 153.443C51.6206 152.701 45.5819 151.923 39.6424 150.704C33.5967 149.464 27.5014 148.213 22.0931 144.894C17.7156 142.205 15.7889 138.197 16.738 132.751C17.6766 132.938 18.6116 133.122 19.5502 133.309C19.6848 133.709 19.8406 134.002 19.876 134.309C20.3542 138.36 22.3942 141.275 26.159 142.989C30.4941 144.965 34.8717 146.707 39.6708 147.357C48.0115 148.492 56.3063 149.973 64.6612 151.015C69.053 151.563 73.5262 151.46 77.9569 151.718C83.822 152.061 89.6871 152.475 95.5734 152.86C100.482 148.534 107.364 148.425 112.46 148.198V160.79Z" fill="black"/>
        <path id="Vector_32" d="M198.295 143.463C198.546 143.162 198.684 142.784 198.702 142.392C198.844 138.582 197.434 136.395 193.882 134.886C188.094 132.426 182.29 130.001 176.478 127.595C175.914 127.361 175.259 127.347 174.646 127.231C175.086 127.945 175.606 128.369 176.201 128.616C180.575 130.443 184.981 132.2 189.345 134.055C191.275 134.875 193.248 135.691 195.001 136.815C198.422 139.006 198.5 142.788 195.351 145.311C194.551 145.954 193.772 146.629 192.986 147.29C195.475 146.926 196.889 145.156 198.298 143.466L198.295 143.463Z" fill="black"/>
        <path id="Vector_33" d="M177.78 105.372C178.559 106.369 178.559 106.722 178.598 107.779C177.968 110.366 176.165 111.14 174.161 111.674C173.194 111.932 172.209 112.137 171.267 112.465C170.339 112.79 168.643 113.08 167.934 114.14C168.048 114.374 168.777 114.098 168.891 114.328C172.376 112.585 177.132 113.6 179.388 109.125C179.668 107.323 179.696 105.454 178.092 104.273C176.643 103.209 175.17 102.061 173.389 101.693C172.988 101.488 172.478 101.276 171.83 101.061C165.809 99.2937 160.936 98.5197 155.907 97.3959C155.8 97.3711 155.627 97.6645 155.255 98.0426C160.748 99.2265 169.705 101.414 173.601 102.828C173.615 102.828 176.434 104.241 177.78 105.365V105.372Z" fill="black"/>
        <path id="Vector_34" d="M169.617 96.583C169.617 96.583 166.344 95.6252 169.617 96.5794C172.889 97.5336 176.112 99.131 179.041 100.637C181.637 101.969 183.433 103.976 183.869 106.722C183.649 109.528 182.533 111.903 180.334 113.504C180.309 113.522 180.288 113.543 180.267 113.564C179.739 113.964 178.514 114.819 176.785 115.557C174.306 116.618 172.294 116.671 172.294 116.671L172.939 117.713C172.939 117.713 174.66 117.321 177.139 116.614C179.619 115.907 182.342 113.221 182.353 113.211C184.51 111.433 185.639 106.719 184.683 104.528C180.961 99.2689 175.553 97.2332 169.822 95.8125C167.817 94.4448 159.077 92.9358 159.077 92.9358L158.368 93.6426C158.368 93.6426 159.873 94.102 161.202 94.3494C161.814 94.5297 169.613 96.5794 169.613 96.5794L169.617 96.583Z" fill="black"/>
        <path id="Vector_35" d="M200.869 133.228C199.888 132.252 195.582 130.206 194.987 129.952C191.951 128.641 188.817 127.559 185.764 126.287C182.591 124.965 177.841 123.166 175.015 121.919C175.847 123.509 177.912 124.326 180.678 125.435C184.167 126.831 187.701 128.118 191.222 129.432C192.642 129.962 194.066 130.478 195.49 130.994C205.828 135.705 203.621 143.639 200.77 146.908C198.946 148.997 196.488 150.856 193.935 151.934C189.26 153.906 184.319 155.238 179.155 155.486C174.508 155.708 170.148 156.274 165.806 156.56C161.553 161.448 155.889 160.801 150.46 161.031C149.869 160.094 149.284 159.013 149.16 158.68C147.389 158.68 145.264 158.327 143.848 158.327C143.848 158.327 143.493 157.267 143.493 155.5C145.842 155.387 147.053 155.602 149.16 155.5C149.266 154.341 149.405 154.224 149.514 153.026C147.389 152.672 145.973 152.319 144 151.856C144.17 150.955 144.113 150.315 144.202 149.845C146.022 149.676 147.807 149.665 149.366 149.517C149.869 148.432 149.869 148.078 150.577 147.018C157.306 147.018 162.286 147.262 166.161 152.672C172.536 152.319 178.153 151.648 184.138 150.676C187.142 150.188 192.461 148.576 194.849 146.311C194.048 146.488 191.08 147.711 190.326 147.997C182.615 150.93 174.554 151.17 166.667 151.315C161.875 146.41 156.116 145.77 149.904 146.304C149.543 147.089 149.235 147.76 148.951 148.386C147.078 148.502 145.232 148.619 143.168 148.75C143.054 150.206 142.966 151.365 142.863 152.676C144.768 153.051 146.401 153.372 148.034 153.694C148.006 153.892 147.974 154.09 147.945 154.288H142.424C142.523 155.963 142.612 157.504 142.714 159.256C144.822 159.401 146.557 159.518 148.381 159.642C148.792 160.377 149.199 161.108 149.617 161.854C155.836 161.84 162.045 162.342 166.132 157.79C173.085 157.097 179.446 156.917 185.608 155.729C193.386 154.231 201.008 151.916 204.213 143.374C205.831 137.822 201.252 133.451 200.873 133.228H200.869Z" fill="black"/>
    </g>
</svg>
