<!-- This Source Code Form is subject to the terms of the Mozilla Public
   - License, v. 2.0. If a copy of the MPL was not distributed with this
   - file, You can obtain one at http://mozilla.org/MPL/2.0/. -->
<svg data-name="Layer 1" xmlns="http://www.w3.org/2000/svg" width="160" height="144"><defs><linearGradient id="a" x1="-847.73" x2="-847.5" y1="494.44" y2="494.34" gradientTransform="matrix(-160 0 0 -144 -135563 71273)" gradientUnits="userSpaceOnUse"><stop offset="0" stop-color="#fe82a4"/><stop offset="1" stop-color="#fe7fa3" stop-opacity="0"/></linearGradient><linearGradient id="c" x1="-836.2" x2="-836.52" y1="500.5" y2="500.76" gradientTransform="matrix(135 0 0 144 112987 -72007)" gradientUnits="userSpaceOnUse"><stop offset="0" stop-color="#fc4ca0"/><stop offset="1" stop-color="#ffa769"/></linearGradient><linearGradient id="d" x1="-832.4" x2="-832.55" y1="500.18" y2="501.08" gradientTransform="matrix(84 0 0 141.76 70045 -70893.72)" gradientUnits="userSpaceOnUse"><stop offset="0" stop-color="#7542e5"/><stop offset=".15" stop-color="#8b4ee5"/><stop offset=".62" stop-color="#ff4aa2"/><stop offset="1" stop-color="#ff778e"/></linearGradient><linearGradient id="e" x1="127.96" x2="180.84" y1="-14.46" y2="145.81" gradientUnits="userSpaceOnUse"><stop offset="0" stop-color="#8c58ff"/><stop offset=".23" stop-color="#9057fa"/><stop offset=".5" stop-color="#9f54ed"/><stop offset=".79" stop-color="#b650d7"/><stop offset="1" stop-color="#cd4dc3"/></linearGradient><linearGradient id="f" x1="191.06" x2="137.54" y1="132.07" y2="81.76" gradientTransform="matrix(1 0 0 -1 0 146)" gradientUnits="userSpaceOnUse"><stop offset="0" stop-color="#20123a"/><stop offset=".23" stop-color="#20123a" stop-opacity=".49"/><stop offset="1" stop-color="#20123a" stop-opacity="0"/></linearGradient></defs><path fill="url(#a)" fill-rule="evenodd" d="M160 144H0V0h160z"/><path fill="url(#c)" fill-rule="evenodd" d="M160 0v144h-20.78C80.28 130.93 34.07 73 25 0z"/><path fill="url(#d)" fill-rule="evenodd" d="M160 0v141.76C112.93 119.62 78.9 64.93 76 0z"/><path fill="url(#e)" fill-rule="evenodd" d="m154.86 127.49-.39-1L109 10.45A56.7 56.7 0 0 1 106 0h54v137a50.8 50.8 0 0 1-5.14-9.51"/><path fill="url(#f)" fill-rule="evenodd" d="m154.86 127.49-.39-1L109 10.45A56.7 56.7 0 0 1 106 0h54v137a50.8 50.8 0 0 1-5.14-9.51"/><path fill="#20123a" fill-rule="evenodd" d="M145 0h15v28a130.6 130.6 0 0 0-15-28"/></svg>