<!-- This Source Code Form is subject to the terms of the Mozilla Public
   - License, v. 2.0. If a copy of the MPL was not distributed with this
   - file, You can obtain one at http://mozilla.org/MPL/2.0/. -->
<svg xmlns="http://www.w3.org/2000/svg" width="160" height="144"><defs><linearGradient id="a" x1="-873.01" x2="-873.01" y1="609.76" y2="608.76" gradientTransform="matrix(160 0 0 -144 139761 87805)" gradientUnits="userSpaceOnUse"><stop offset=".6" stop-color="#fff"/><stop offset="1" stop-color="#fff" stop-opacity="0"/></linearGradient><linearGradient id="c" x1="-837.37" x2="-837.08" y1="500.49" y2="500.61" gradientTransform="matrix(160 0 0 144 134037 -72007)" gradientUnits="userSpaceOnUse"><stop offset="0" stop-color="#fc56a1"/><stop offset="1" stop-color="#fc56a1" stop-opacity="0"/></linearGradient><linearGradient id="f" x1="-836.45" x2="-836.04" y1="500.56" y2="500.82" gradientTransform="matrix(135 0 0 144 112961.93 -72007)" gradientUnits="userSpaceOnUse"><stop offset="0" stop-color="#fc4ca0"/><stop offset="1" stop-color="#ffa769"/></linearGradient><linearGradient id="g" x1="-835.48" x2="-834.73" y1="500.18" y2="500.85" gradientTransform="matrix(111 0 0 144 92730 -72007)" gradientUnits="userSpaceOnUse"><stop offset="0" stop-color="#4e27a4"/><stop offset=".34" stop-color="#8b4ee5"/><stop offset=".73" stop-color="#ff4ad9"/><stop offset="1" stop-color="#ff778e"/></linearGradient><linearGradient id="h" x1="-834.87" x2="-833.96" y1="499.94" y2="501.12" gradientTransform="matrix(102 0 0 144 85143.01 -72007)" gradientUnits="userSpaceOnUse"><stop offset="0" stop-color="#20123a" stop-opacity=".5"/><stop offset=".11" stop-color="#3f2574" stop-opacity=".5"/><stop offset=".24" stop-color="#5f39b0" stop-opacity=".5"/><stop offset=".34" stop-color="#7245d6" stop-opacity=".5"/><stop offset=".39" stop-color="#7a4ae4" stop-opacity=".5"/><stop offset=".45" stop-color="#7a4ae4" stop-opacity=".48"/><stop offset=".53" stop-color="#7949e4" stop-opacity=".44"/><stop offset=".63" stop-color="#7948e4" stop-opacity=".37"/><stop offset=".74" stop-color="#7846e4" stop-opacity=".28"/><stop offset=".86" stop-color="#7745e5" stop-opacity=".16"/><stop offset=".99" stop-color="#7542e5" stop-opacity="0"/><stop offset="1" stop-color="#7542e5" stop-opacity="0"/></linearGradient><mask id="b" width="160" height="144.05" x="0" y="0" maskUnits="userSpaceOnUse"><path fill="url(#a)" stroke-width="0" d="M0 0h160v144H0z"/></mask></defs><g fill-rule="evenodd" mask="url(#b)"><path fill="url(#c)" d="M0 0h160v144H0z"/><path fill="url(#f)" d="M72 0c36.11 10.62 63 50.61 63 98.31a119.9 119.9 0 0 1-8.85 45.69H0V21A77.5 77.5 0 0 1 33.72 0z"/><path fill="url(#g)" d="M70.51 0C94.74 17.55 111 50.05 111 87.23A117.9 117.9 0 0 1 96.88 144H0V0z"/><path fill="url(#h)" d="m38.32 0 52.76 75.05c14 19.89 14.37 48.66 2.11 69H21.64L0 113.23V0z"/><path fill="#20123a" d="M25.59 73 28 76.33C42.91 95.86 52.22 119.42 56 144H0V14.59C4.07 35.79 12.59 56 25.59 73"/></g></svg>