<!-- This Source Code Form is subject to the terms of the Mozilla Public
   - License, v. 2.0. If a copy of the MPL was not distributed with this
   - file, You can obtain one at http://mozilla.org/MPL/2.0/. -->
<svg width="329" height="101" viewBox="0 0 329 101" fill="none" xmlns="http://www.w3.org/2000/svg">
<g clip-path="url(#clip0_11610_4488)">
<rect width="328" height="100" transform="translate(0.5 0.0820312)" fill="#FFEDD6"/>
<path d="M176.282 14.1094H289.964C291.759 14.1094 293.214 15.5645 293.214 17.3594V117.503C293.214 119.298 291.759 120.753 289.964 120.753H176.282C174.487 120.753 173.032 119.298 173.032 117.503V17.3594C173.032 15.5645 174.487 14.1094 176.282 14.1094Z" fill="white" stroke="black" stroke-width="1.5"/>
<rect x="178.402" y="19.7373" width="109.304" height="36.3146" rx="2" fill="#FFDCBC" style="mix-blend-mode:darken"/>
<rect x="178.404" y="63.1055" width="85.6405" height="3.7606" rx="1.8803" fill="#FFDCBC" style="mix-blend-mode:darken"/>
<rect x="178.404" y="90.8838" width="109.304" height="3.7606" rx="1.8803" fill="#FFDCBC" style="mix-blend-mode:darken"/>
<rect x="178.402" y="73.6172" width="57.4693" height="3.7606" rx="1.8803" fill="#FFDCBC" style="mix-blend-mode:darken"/>
<line x1="177.917" y1="83.6309" x2="287.221" y2="83.6309" stroke="#FFECD8"/>
<circle cx="115.026" cy="47.1201" r="30.5" fill="#FFCBA2" fill-opacity="0.5"/>
<ellipse cx="117.293" cy="52.4327" rx="9.22852" ry="9.15044" fill="#FFEDD6"/>
<path d="M23.1 49.5125C19.14 49.5125 16.84 47.0725 16.84 42.4125C16.84 37.7525 19.14 35.3125 23.1 35.3125C26.54 35.3125 28.68 37.0925 29.14 40.4525H26.24V40.0125C26.24 38.7725 25.36 37.5125 23.1 37.5125C20.86 37.5125 19.84 38.7525 19.84 41.4725V43.3525C19.84 46.0725 20.86 47.3125 23.1 47.3125C25.36 47.3125 26.24 46.0325 26.24 44.6925V44.2125H29.16C28.74 47.6725 26.58 49.5125 23.1 49.5125ZM32.9648 49.3125C31.8648 49.3125 31.2648 48.7125 31.2648 47.5925V34.8725H34.0248V47.3325H36.0848V49.3125H32.9648ZM38.0525 49.3125V40.6125H36.7725V38.6325H40.8325V49.3125H38.0525ZM37.8925 37.1725V34.9125H40.9125V37.1725H37.8925ZM48.0928 49.5125C44.8128 49.5125 42.8928 47.5325 42.8928 43.9725C42.8928 40.4125 44.8128 38.4325 48.0928 38.4325C50.8328 38.4325 52.6128 39.8125 53.0328 42.3325H50.2328V42.1325C50.2328 41.5125 49.6528 40.5525 48.0928 40.5525C46.5328 40.5525 45.8128 41.4325 45.8128 43.3725V44.5725C45.8128 46.5125 46.5328 47.3925 48.0928 47.3925C49.6528 47.3925 50.2328 46.4325 50.2328 45.6925V45.4525H53.0728C52.6928 48.0725 50.8928 49.5125 48.0928 49.5125ZM55.1325 49.3125V34.8725H57.9125V43.4725L61.9725 38.6325H65.2525L60.8525 43.6925L65.4725 49.3125H62.0925L57.9125 44.1125V49.3125H55.1325ZM73.9467 49.5125C71.8467 49.5125 70.5667 48.3525 70.5667 46.4525C70.5667 44.5125 71.8867 43.3925 74.4067 43.1525L77.2667 42.8725V42.5525C77.2667 41.1725 76.6867 40.5525 75.4467 40.5525C74.1867 40.5525 73.6867 41.1925 73.6867 41.5725V41.6525H70.8667C71.3667 39.5125 72.9467 38.4325 75.5067 38.4325C78.4667 38.4325 80.0267 39.8525 80.0267 42.5125V49.3125H77.4867V47.4925H77.1067C76.6267 48.7925 75.6067 49.5125 73.9467 49.5125ZM73.4067 46.2725C73.4067 47.0325 74.0667 47.4525 75.1867 47.4525C76.5467 47.4525 77.2667 46.8725 77.2667 45.7725V44.6325L75.2467 44.8125C73.9467 44.9525 73.4067 45.3125 73.4067 46.0925V46.2725ZM82.6134 49.3125V38.6325H85.1534V40.5325H85.5334C86.0334 39.1725 87.0334 38.4325 88.6134 38.4325C90.8134 38.4325 91.9934 39.7925 91.9934 42.3525V49.3125H89.2134V42.8725C89.2134 41.2725 88.6134 40.5525 87.2934 40.5525C85.9934 40.5525 85.3734 41.2725 85.3734 42.8725V49.3125H82.6134ZM98.1866 49.5125C95.6666 49.5125 94.0066 47.4125 94.0066 43.9725C94.0066 40.5325 95.6266 38.4325 98.1866 38.4325C99.7066 38.4325 100.767 39.1525 101.207 40.3925H101.607C101.547 39.3525 101.527 38.7125 101.527 38.0925V34.8725H104.307V49.3125H101.767V47.3725H101.387C100.867 48.6925 99.7666 49.5125 98.1866 49.5125ZM96.9266 44.5725C96.9266 46.4925 97.6466 47.3925 99.2266 47.3925C100.807 47.3925 101.527 46.4925 101.527 44.5725V43.3725C101.527 41.4525 100.807 40.5525 99.2266 40.5525C97.6466 40.5525 96.9266 41.4525 96.9266 43.3725V44.5725ZM111.891 49.3125V34.8725H114.651V38.0525C114.651 38.6725 114.651 39.3125 114.591 40.3525H114.971C115.411 39.1125 116.351 38.4325 117.891 38.4325C120.091 38.4325 121.271 39.7925 121.271 42.3525V49.3125H118.491V42.8725C118.491 41.2725 117.891 40.5525 116.571 40.5525C115.271 40.5525 114.651 41.2725 114.651 42.8725V49.3125H111.891ZM128.564 49.5125C125.224 49.5125 123.244 47.5125 123.244 43.9725C123.244 40.4325 125.224 38.4325 128.564 38.4325C131.904 38.4325 133.864 40.4325 133.864 43.9725C133.864 47.5125 131.904 49.5125 128.564 49.5125ZM126.164 44.5525C126.164 46.4925 126.924 47.3925 128.564 47.3925C130.204 47.3925 130.944 46.4925 130.944 44.5525V43.3925C130.944 41.4525 130.204 40.5525 128.564 40.5525C126.924 40.5525 126.164 41.4525 126.164 43.3925V44.5525ZM137.633 49.3125C136.533 49.3125 135.933 48.7125 135.933 47.5925V34.8725H138.693V47.3325H140.753V49.3125H137.633ZM145.921 49.5125C143.401 49.5125 141.741 47.4125 141.741 43.9725C141.741 40.5325 143.361 38.4325 145.921 38.4325C147.441 38.4325 148.501 39.1525 148.941 40.3925H149.341C149.281 39.3525 149.261 38.7125 149.261 38.0925V34.8725H152.041V49.3125H149.501V47.3725H149.121C148.601 48.6925 147.501 49.5125 145.921 49.5125ZM144.661 44.5725C144.661 46.4925 145.381 47.3925 146.961 47.3925C148.541 47.3925 149.261 46.4925 149.261 44.5725V43.3725C149.261 41.4525 148.541 40.5525 146.961 40.5525C145.381 40.5525 144.661 41.4525 144.661 43.3725V44.5725Z" fill="#0062FA"/>
<path d="M16 52.5725H153.381V54.3125H16V52.5725Z" fill="#0062FA"/>
<path d="M119.954 83.107C119.218 82.1603 118.297 80.2407 116.693 77.8477C115.773 76.5329 113.511 74.0347 112.828 72.7462C112.335 71.9631 112.192 71.0097 112.433 70.1165C112.846 68.4183 114.457 67.2918 116.194 67.4869C117.537 67.7567 118.771 68.4151 119.744 69.3802C120.423 70.0197 121.047 70.7146 121.611 71.4576C122.031 71.9836 122.137 72.1939 122.61 72.7988C123.083 73.4036 123.399 74.0084 123.162 73.1143C122.978 71.7995 122.663 69.5906 122.215 67.6184C121.874 66.1195 121.795 65.8828 121.479 64.752C121.164 63.6213 120.98 62.6746 120.638 61.3861C120.325 60.1201 120.079 58.8386 119.901 57.5468C119.57 55.8946 119.811 54.1788 120.585 52.682C121.504 51.8178 122.852 51.5897 124.004 52.1034C125.162 52.959 126.026 54.1536 126.475 55.522C127.165 57.206 127.625 58.9749 127.843 60.7813C128.264 63.4109 129.079 67.2502 129.105 68.0391C129.105 67.0661 128.921 65.015 129.105 64.0946C129.288 63.1351 129.954 62.3388 130.867 61.9909C131.65 61.7506 132.479 61.6966 133.286 61.8331C134.102 62.0036 134.824 62.4725 135.311 63.148C135.92 64.6821 136.258 66.3104 136.31 67.9602C136.381 66.5154 136.628 65.0848 137.047 63.7002C137.486 63.081 138.128 62.6346 138.861 62.438C139.73 62.279 140.621 62.279 141.491 62.438C142.204 62.6763 142.827 63.1256 143.279 63.7265C143.836 65.1211 144.173 66.5937 144.278 68.0917C144.278 68.4598 144.462 67.0661 145.041 66.1458C145.341 65.2532 146.095 64.5889 147.019 64.403C147.942 64.2171 148.894 64.5379 149.517 65.2445C150.139 65.9511 150.338 66.9362 150.037 67.8287C150.037 69.538 150.037 69.4591 150.037 70.6162C150.037 71.7732 150.037 72.7988 150.037 73.7717C149.941 75.3105 149.73 76.84 149.406 78.3473C148.948 79.6809 148.311 80.9459 147.513 82.1077C146.236 83.5276 145.181 85.1323 144.383 86.8674C144.186 87.7294 144.097 88.6129 144.12 89.497C144.118 90.3139 144.224 91.1275 144.436 91.9163C143.361 92.03 142.277 92.03 141.202 91.9163C140.176 91.7585 138.914 89.7074 138.572 89.0763C138.403 88.7374 138.057 88.5233 137.678 88.5233C137.299 88.5233 136.953 88.7374 136.784 89.0763C136.205 90.0756 134.917 91.89 134.023 91.9952C132.261 92.2056 128.632 91.9952 125.765 91.9952C125.765 91.9952 126.239 89.3655 125.161 88.4189C124.083 87.4722 122.978 86.3677 122.163 85.6314L119.954 83.107Z" fill="white"/>
<path fill-rule="evenodd" clip-rule="evenodd" d="M119.954 83.107C119.218 82.1603 118.297 80.2407 116.693 77.8477C115.773 76.5329 113.511 74.0347 112.828 72.7462C112.335 71.9631 112.192 71.0097 112.433 70.1165C112.846 68.4183 114.457 67.2918 116.194 67.4869C117.537 67.7567 118.771 68.4151 119.744 69.3802C120.423 70.0197 121.047 70.7146 121.611 71.4576C122.031 71.9836 122.137 72.1939 122.61 72.7988C123.083 73.4036 123.399 74.0084 123.162 73.1143C122.978 71.7995 122.663 69.5906 122.215 67.6184C121.874 66.1195 121.795 65.8828 121.479 64.752C121.164 63.6213 120.98 62.6746 120.638 61.3861C120.325 60.1201 120.079 58.8386 119.901 57.5468C119.57 55.8946 119.811 54.1788 120.585 52.682C121.504 51.8178 122.852 51.5897 124.004 52.1034C125.162 52.959 126.026 54.1536 126.475 55.522C127.165 57.206 127.625 58.9749 127.843 60.7813C128.264 63.4109 129.079 67.2502 129.105 68.0391C129.105 67.0661 128.921 65.015 129.105 64.0946C129.288 63.1351 129.954 62.3388 130.867 61.9909C131.65 61.7506 132.479 61.6966 133.286 61.8331C134.102 62.0036 134.824 62.4725 135.311 63.148C135.92 64.6821 136.258 66.3104 136.31 67.9602C136.381 66.5154 136.628 65.0848 137.047 63.7002C137.486 63.081 138.128 62.6346 138.861 62.438C139.73 62.279 140.621 62.279 141.491 62.438C142.204 62.6763 142.827 63.1256 143.279 63.7265C143.836 65.1211 144.173 66.5937 144.278 68.0917C144.278 68.4598 144.462 67.0661 145.041 66.1458C145.341 65.2532 146.095 64.5889 147.019 64.403C147.942 64.2171 148.894 64.5379 149.517 65.2445C150.139 65.9511 150.338 66.9362 150.037 67.8287C150.037 69.538 150.037 69.4591 150.037 70.6162C150.037 71.7732 150.037 72.7988 150.037 73.7717C149.941 75.3105 149.73 76.84 149.406 78.3473C148.948 79.6809 148.311 80.9459 147.513 82.1077C146.236 83.5276 145.181 85.1323 144.383 86.8674C144.186 87.7294 144.097 88.6129 144.12 89.497C144.118 90.3139 144.224 91.1275 144.436 91.9163C143.361 92.03 142.277 92.03 141.202 91.9163C140.176 91.7585 138.914 89.7074 138.572 89.0763C138.403 88.7374 138.057 88.5233 137.678 88.5233C137.299 88.5233 136.953 88.7374 136.784 89.0763C136.205 90.0756 134.917 91.89 134.023 91.9952C132.261 92.2056 128.632 91.9952 125.765 91.9952C125.765 91.9952 126.239 89.3655 125.161 88.4189C124.083 87.4722 122.978 86.3677 122.163 85.6314L119.954 83.107Z" stroke="black" stroke-width="1.77897" stroke-linecap="round" stroke-linejoin="round"/>
<path d="M142.253 84.5432V75.4662C142.253 74.9229 141.812 74.4824 141.267 74.4824C140.723 74.4824 140.281 74.9229 140.281 75.4662V84.5432C140.281 85.0865 140.723 85.5269 141.267 85.5269C141.812 85.5269 142.253 85.0865 142.253 84.5432Z" fill="black"/>
<path d="M137.047 84.5398L136.995 75.4582C136.992 74.9162 136.548 74.4793 136.003 74.4824C135.458 74.4856 135.019 74.9275 135.022 75.4695L135.075 84.5512C135.078 85.0932 135.522 85.53 136.067 85.5269C136.611 85.5238 137.05 85.0819 137.047 84.5398Z" fill="black"/>
<path d="M129.763 75.479L129.815 84.5419C129.818 85.0891 130.263 85.5301 130.807 85.5269C131.352 85.5237 131.791 85.0775 131.788 84.5303L131.735 75.4675C131.732 74.9203 131.288 74.4792 130.743 74.4824C130.198 74.4856 129.76 74.9318 129.763 75.479Z" fill="black"/>
<circle cx="289.996" cy="25.3457" r="21.1182" fill="#FFEDD6"/>
<path d="M290.118 22.2046C290.088 22.6672 288.453 24.2625 287.881 24.2625C282.593 24.2625 281.734 27.4614 281.734 27.4614C281.969 30.1552 283.844 32.3736 286.115 33.5474C286.219 33.6009 286.324 33.6493 286.429 33.6971C286.609 33.7768 286.791 33.8513 286.975 33.9205C287.754 34.1962 288.57 34.3535 289.395 34.3872C298.665 34.822 300.46 23.3057 293.771 19.9615C295.484 19.6635 297.262 20.3525 298.255 21.0501C296.629 18.2089 293.593 16.292 290.106 16.292C289.886 16.292 289.67 16.3102 289.453 16.3252C287.587 16.4534 285.804 17.1408 284.335 18.2977C284.618 18.5376 284.938 18.8582 285.613 19.5225C286.874 20.7659 290.111 22.0535 290.118 22.2046Z" fill="#FFEDD6"/>
<path d="M307.061 18.6627C306.253 16.7184 304.616 14.6193 303.33 13.9559C304.376 16.007 304.982 18.0646 305.213 19.6002C305.213 19.6033 305.215 19.6108 305.217 19.6312C303.114 14.3895 299.548 12.2759 296.636 7.67374C296.489 7.44104 296.342 7.20771 296.198 6.96178C296.125 6.83617 296.057 6.70782 295.993 6.577C295.872 6.34343 295.779 6.09655 295.715 5.84135C295.716 5.82927 295.712 5.81746 295.704 5.80824C295.696 5.79902 295.685 5.79305 295.673 5.79152C295.662 5.78824 295.65 5.78824 295.638 5.79152C295.635 5.79244 295.632 5.79546 295.629 5.79655C295.625 5.79817 295.62 5.80189 295.615 5.80428C295.617 5.8015 295.622 5.79523 295.623 5.79376C290.951 8.52989 289.366 13.5914 289.22 16.1238C289.437 16.1088 289.653 16.0906 289.874 16.0906C293.36 16.0906 296.397 18.0075 298.023 20.8487C297.03 20.1512 295.251 19.4622 293.538 19.7601C300.228 23.1044 298.432 34.6206 289.162 34.1858C288.337 34.1522 287.521 33.9948 286.742 33.7191C286.558 33.6499 286.376 33.5754 286.196 33.4958C286.091 33.448 285.986 33.3996 285.883 33.346C285.886 33.3486 285.892 33.3515 285.895 33.3538C285.804 33.31 285.714 33.2651 285.624 33.2189C285.711 33.2604 285.793 33.3059 285.883 33.3457C283.611 32.1719 281.736 29.9536 281.501 27.2597C281.501 27.2597 282.36 24.0609 287.649 24.0609C288.22 24.0609 289.855 22.4655 289.885 22.0029C289.878 21.8518 286.641 20.5643 285.379 19.3209C284.705 18.6566 284.385 18.3363 284.101 18.096C283.948 17.9661 283.787 17.8447 283.62 17.7323C283.196 16.2493 283.178 14.6796 283.567 13.1872C281.657 14.0571 280.171 15.4322 279.091 16.6464H279.082C278.345 15.7126 278.397 12.6321 278.439 11.9889C278.43 11.949 277.889 12.2698 277.818 12.3182C277.167 12.7826 276.559 13.3036 276 13.8752C275.365 14.5201 274.784 15.2168 274.264 15.9582C274.264 15.9591 274.264 15.9602 274.263 15.9611C274.263 15.9601 274.264 15.9591 274.264 15.9582C273.068 17.653 272.22 19.5679 271.769 21.5924C271.76 21.6328 271.752 21.6745 271.743 21.7152C271.709 21.8789 271.551 22.7098 271.529 22.8881C271.527 22.9018 271.531 22.8744 271.529 22.8881C271.386 23.7467 271.294 24.6132 271.255 25.4829C271.255 25.5146 271.253 25.546 271.253 25.5778C271.253 35.8478 279.58 44.1734 289.851 44.1734C299.05 44.1734 306.688 37.4957 308.183 28.7244C308.214 28.4864 308.24 28.2471 308.267 28.007C308.637 24.8178 308.226 21.4657 307.061 18.6627ZM305.216 19.6177C305.217 19.6243 305.218 19.6312 305.219 19.6378L305.219 19.6358L305.216 19.6177Z" fill="#FE7802"/>
</g>
<defs>
<clipPath id="clip0_11610_4488">
<rect width="328" height="100" fill="white" transform="translate(0.5 0.0820312)"/>
</clipPath>
</defs>
</svg>
