<!-- This Source Code Form is subject to the terms of the Mozilla Public
   - License, v. 2.0. If a copy of the MPL was not distributed with this
   - file, You can obtain one at http://mozilla.org/MPL/2.0/. -->
<svg width="328" height="100" viewBox="0 0 328 100" fill="none" xmlns="http://www.w3.org/2000/svg">
<rect width="328" height="100" fill="#FFEDD6"/>
<path d="M18.1221 23.3025C18.1221 20.8961 20.0729 18.9453 22.4793 18.9453H158.643C161.049 18.9453 163 20.8961 163 23.3026V76.6787C163 79.0852 161.049 81.036 158.643 81.036H22.4793C20.0729 81.036 18.1221 79.0852 18.1221 76.6787V23.3025Z" fill="white"/>
<path d="M158.643 79.5361V81.0361H22.4795V79.5361H158.643ZM161.5 76.6787V23.3027C161.5 21.8235 160.376 20.6065 158.936 20.46L158.643 20.4453H22.4795C20.9015 20.4453 19.6221 21.7247 19.6221 23.3027V76.6787C19.6221 78.2567 20.9015 79.5361 22.4795 79.5361V81.0361L22.2549 81.0303C20.0271 80.9172 18.241 79.131 18.1279 76.9033L18.1221 76.6787V23.3027C18.1221 20.9716 19.9527 19.068 22.2549 18.9512L22.4795 18.9453H158.643L158.867 18.9512C161.169 19.0679 163 20.9715 163 23.3027V76.6787L162.994 76.9033C162.881 79.1311 161.095 80.9174 158.867 81.0303L158.643 81.0361V79.5361C160.221 79.5361 161.5 78.2567 161.5 76.6787Z" fill="#161616"/>
<path d="M19.6279 74.751H161.513V77.3137C161.513 78.5384 160.52 79.5312 159.295 79.5312H22.0181C20.698 79.5312 19.6279 78.4611 19.6279 77.1411V74.751Z" fill="#D9D9D9"/>
<path d="M137.683 40.3019C138.112 40.3073 138.518 40.4956 138.799 40.8195L148.884 52.462C149.268 52.9059 149.358 53.5335 149.114 54.0675C148.87 54.6013 148.337 54.9433 147.75 54.9435H144.568V64.6779C144.568 65.506 143.896 66.1778 143.068 66.1779H131.734C130.906 66.1779 130.235 65.5061 130.234 64.6779V54.9435H127.053C126.459 54.9435 125.921 54.5933 125.681 54.0499C125.441 53.5065 125.544 52.8728 125.944 52.4337L136.557 40.7911L136.67 40.6788C136.948 40.4328 137.309 40.2972 137.683 40.3019ZM143.068 64.6779V53.4435H147.75L137.665 41.8019L127.053 53.4435H131.734V64.6779H143.068Z" fill="#161616"/>
<path d="M176.172 52.3916V50.2041H186.836V52.3916H176.172ZM180.41 56.542V46.0537H182.598V56.542H180.41Z" fill="black"/>
<rect x="201" y="29.3975" width="91.1343" height="12.6773" rx="6.33864" fill="#0062FA"/>
<path d="M201 64.4453C201 60.8555 203.91 57.9453 207.5 57.9453H245.189C248.779 57.9453 251.689 60.8555 251.689 64.4453C251.689 68.0352 248.779 70.9453 245.189 70.9453H207.5C203.91 70.9453 201 68.0352 201 64.4453Z" fill="#FFCD9E"/>
<path d="M265.336 64.4453C265.336 60.8555 268.246 57.9453 271.836 57.9453H310.5C314.09 57.9453 317 60.8555 317 64.4453C317 68.0352 314.09 70.9453 310.5 70.9453H271.836C268.246 70.9453 265.336 68.0352 265.336 64.4453Z" fill="#FFCD9E"/>
<path d="M233.886 65.1206C233.265 64.3224 232.489 62.7038 231.136 60.686C230.36 59.5774 228.453 57.471 227.877 56.3845C227.461 55.7243 227.34 54.9203 227.544 54.1672C227.892 52.7353 229.25 51.7855 230.715 51.95C231.847 52.1775 232.888 52.7326 233.708 53.5464C234.281 54.0856 234.807 54.6715 235.282 55.298C235.637 55.7415 235.726 55.9189 236.125 56.4289C236.524 56.9388 236.79 57.4488 236.591 56.6949C236.435 55.5863 236.169 53.7238 235.792 52.0608C235.504 50.797 235.438 50.5974 235.172 49.644C234.905 48.6905 234.75 47.8923 234.462 46.8059C234.199 45.7384 233.991 44.6578 233.841 43.5686C233.562 42.1755 233.765 40.7288 234.418 39.4666C235.192 38.738 236.329 38.5457 237.3 38.9788C238.277 39.7002 239.005 40.7076 239.384 41.8613C239.965 43.2812 240.353 44.7727 240.537 46.2959C240.892 48.5132 241.579 51.7504 241.602 52.4156C241.602 51.5952 241.446 49.8657 241.602 49.0897C241.755 48.2806 242.318 47.6092 243.087 47.3158C243.748 47.1132 244.446 47.0677 245.127 47.1828C245.815 47.3265 246.423 47.7219 246.834 48.2914C247.348 49.585 247.633 50.9579 247.677 52.3491C247.736 51.1309 247.945 49.9245 248.298 48.7571C248.668 48.235 249.209 47.8586 249.828 47.6928C250.561 47.5587 251.312 47.5587 252.045 47.6928C252.646 47.8937 253.172 48.2726 253.553 48.7792C254.022 49.9552 254.307 51.1968 254.395 52.4599C254.395 52.7703 254.551 51.5952 255.038 50.8191C255.292 50.0666 255.928 49.5064 256.706 49.3497C257.485 49.1929 258.288 49.4634 258.812 50.0592C259.337 50.655 259.505 51.4856 259.251 52.2382C259.251 53.6794 259.251 53.6129 259.251 54.5885C259.251 55.5641 259.251 56.4289 259.251 57.2493C259.17 58.5468 258.993 59.8364 258.719 61.1073C258.333 62.2318 257.796 63.2984 257.123 64.278C256.046 65.4753 255.156 66.8283 254.484 68.2913C254.317 69.0182 254.243 69.7631 254.262 70.5086C254.26 71.1974 254.35 71.8834 254.528 72.5485C253.622 72.6444 252.708 72.6444 251.801 72.5485C250.936 72.4155 249.872 70.686 249.584 70.1538C249.441 69.8681 249.149 69.6876 248.83 69.6876C248.511 69.6876 248.219 69.8681 248.076 70.1538C247.588 70.9964 246.502 72.5263 245.748 72.615C244.262 72.7924 241.203 72.615 238.786 72.615C238.786 72.615 239.185 70.3978 238.276 69.5995C237.367 68.8013 236.435 67.87 235.748 67.2492L233.886 65.1206Z" fill="white"/>
<path d="M258.501 52.2391C258.501 52.1578 258.515 52.0769 258.541 51.9999C258.688 51.5636 258.622 51.0874 258.37 50.7108L258.251 50.5555C257.903 50.1609 257.371 49.9821 256.855 50.0858C256.339 50.1897 255.917 50.5608 255.75 51.0594C255.74 51.0874 255.729 51.1148 255.716 51.1415L255.674 51.2196C255.49 51.5126 255.352 51.914 255.256 52.2528C255.233 52.3336 255.213 52.4072 255.196 52.4725C255.18 52.5329 255.163 52.6003 255.15 52.6483C255.143 52.6712 255.133 52.7068 255.12 52.743C255.114 52.76 255.101 52.7949 255.082 52.8348C255.08 52.838 255.014 52.9905 254.857 53.1092C254.759 53.1836 254.535 53.3093 254.24 53.244C253.961 53.1823 253.817 52.9928 253.766 52.912C253.675 52.7675 253.658 52.6253 253.657 52.6151C253.651 52.5773 253.65 52.5409 253.649 52.5126L253.648 52.5135C253.567 51.3627 253.312 50.231 252.894 49.1561C252.621 48.8212 252.261 48.5674 251.853 48.4217C251.239 48.3162 250.611 48.3173 249.997 48.4256C249.594 48.5394 249.239 48.7767 248.979 49.1024C248.707 50.0325 248.531 50.9876 248.455 51.953L248.426 52.3866C248.407 52.7884 248.074 53.1028 247.671 53.0995C247.319 53.0964 247.024 52.8512 246.947 52.5204L246.928 52.3739C246.888 51.1033 246.632 49.8491 246.173 48.6639C245.875 48.285 245.455 48.0206 244.982 47.9198C244.432 47.83 243.869 47.8668 243.334 48.0262C242.819 48.2309 242.443 48.6845 242.339 49.2303L242.337 49.2372C242.28 49.5266 242.274 50.0662 242.293 50.7137C242.311 51.2845 242.349 51.9495 242.351 52.3739C242.351 52.3798 242.352 52.3857 242.352 52.3915H242.351C242.351 52.3999 242.352 52.4086 242.352 52.4169L242.348 52.4921C242.311 52.8661 241.998 53.1594 241.615 53.1659C241.231 53.1723 240.909 52.8898 240.859 52.5174L240.853 52.4413C240.849 52.3352 240.812 52.0613 240.737 51.6171C240.665 51.1927 240.567 50.6621 240.458 50.077C240.294 49.2044 240.106 48.2114 239.946 47.2967L239.797 46.4149C239.796 46.4055 239.795 46.396 239.793 46.3866C239.639 45.112 239.336 43.8607 238.89 42.6581L238.691 42.1464C238.684 42.13 238.678 42.1133 238.672 42.0965C238.351 41.1182 237.741 40.2605 236.924 39.6356C236.284 39.3803 235.555 39.4944 235.025 39.9315C234.532 40.9434 234.362 42.0811 234.536 43.1913L234.577 43.4217L234.584 43.4667C234.731 44.5298 234.934 45.5849 235.191 46.6268H235.19C235.335 47.176 235.448 47.6533 235.555 48.1024C235.663 48.5566 235.765 48.982 235.894 49.4432C236.094 50.1596 236.184 50.4592 236.339 51.1053L236.524 51.8954V51.8964L236.664 52.5399C236.971 54.0354 237.193 55.5845 237.329 56.5555C237.35 56.6371 237.368 56.712 237.381 56.7792C237.393 56.8418 237.415 56.9632 237.407 57.0907C237.404 57.1412 237.392 57.3153 237.274 57.4901C237.205 57.5924 237.095 57.7007 236.937 57.7674C236.781 57.8334 236.631 57.836 236.519 57.8182C236.326 57.7875 236.197 57.6908 236.159 57.662C236.104 57.6204 236.062 57.5783 236.037 57.5516C235.949 57.459 235.852 57.3223 235.787 57.2323C235.706 57.1208 235.624 57.0054 235.535 56.8915C235.324 56.6227 235.194 56.4395 235.077 56.2743C235.02 56.1941 234.966 56.1188 234.906 56.038L234.697 55.7674C234.693 55.7625 234.689 55.7569 234.685 55.7518C234.348 55.307 233.983 54.8834 233.593 54.4842L233.195 54.0936C233.19 54.0892 233.185 54.0845 233.18 54.0799C232.472 53.3772 231.575 52.8957 230.599 52.6932C229.59 52.5949 228.655 53.2055 228.331 54.1503L228.273 54.3456L228.269 54.3641C228.139 54.846 228.189 55.3562 228.408 55.7997L228.512 55.9862L228.54 56.034L228.647 56.2215C228.931 56.6868 229.439 57.342 230.016 58.0575C230.487 58.6415 230.998 59.2593 231.396 59.7772L231.751 60.2567L231.759 60.2694C232.45 61.2996 232.993 62.2265 233.434 62.9842C233.883 63.755 234.2 64.3005 234.47 64.6503L236.288 66.7264C236.632 67.0392 237.034 67.4232 237.446 67.8143C237.878 68.2239 238.328 68.6482 238.771 69.037C239.147 69.3667 239.349 69.806 239.461 70.204C239.575 70.6068 239.614 71.0279 239.622 71.3915C239.625 71.5604 239.622 71.7226 239.615 71.8719C240.61 71.8848 241.667 71.9154 242.629 71.9325C243.892 71.9548 244.977 71.9525 245.66 71.871H245.661L245.707 71.8495C245.746 71.8295 245.81 71.7924 245.899 71.7225C246.061 71.5952 246.247 71.4092 246.443 71.1805C246.736 70.8382 247.015 70.4408 247.233 70.0985L247.427 69.7792C247.704 69.2628 248.242 68.9383 248.831 68.9383C249.426 68.9384 249.97 69.2706 250.244 69.7977L250.374 70.0253C250.534 70.2963 250.782 70.6809 251.064 71.035C251.252 71.2711 251.44 71.4743 251.613 71.619C251.698 71.6905 251.77 71.7401 251.828 71.7714C251.856 71.7866 251.878 71.796 251.893 71.8016C251.899 71.8036 251.903 71.8045 251.907 71.8055C252.475 71.8644 253.047 71.8823 253.618 71.8612C253.548 71.421 253.513 70.9757 253.513 70.5292L253.51 70.2264C253.514 69.5194 253.595 68.8146 253.753 68.1249L253.775 68.0506C253.783 68.0264 253.793 68.0026 253.803 67.9794C254.499 66.4662 255.416 65.0653 256.525 63.8231C257.143 62.9189 257.637 61.9368 257.996 60.9022C258.254 59.6909 258.423 58.4625 258.501 57.2264V52.2391ZM260.001 57.2499C260.001 57.2654 260.001 57.2812 260.001 57.2967C259.917 58.6315 259.734 59.9581 259.453 61.2655C259.446 61.2944 259.439 61.3234 259.429 61.3514C259.072 62.3917 258.593 63.3854 258.001 64.3114L257.741 64.704C257.722 64.7306 257.703 64.7561 257.681 64.7801C256.672 65.9027 255.836 67.1697 255.199 68.538C255.058 69.1786 254.995 69.8343 255.012 70.4901L255.013 70.5116C255.011 71.1337 255.092 71.7536 255.253 72.3544C255.31 72.5663 255.271 72.7926 255.147 72.9735C255.023 73.1544 254.826 73.2717 254.608 73.2948C253.649 73.3962 252.682 73.3961 251.723 73.2948L251.688 73.2909C251.272 73.2268 250.915 72.9908 250.649 72.7684C250.37 72.535 250.112 72.2477 249.89 71.9686C249.556 71.5491 249.269 71.104 249.08 70.784L248.925 70.5116C248.921 70.5044 248.917 70.4974 248.914 70.4901C248.898 70.4587 248.866 70.4384 248.831 70.4383C248.813 70.4383 248.796 70.4432 248.782 70.452L248.748 70.4901L248.726 70.5301C248.465 70.9809 248.046 71.6138 247.583 72.1551C247.351 72.4253 247.093 72.6914 246.825 72.9022C246.572 73.1004 246.23 73.3148 245.836 73.3612L245.835 73.3602C245.033 73.4558 243.845 73.4545 242.603 73.4325C241.334 73.41 239.987 73.3661 238.787 73.3661C238.564 73.3661 238.353 73.267 238.21 73.0965C238.068 72.9262 238.009 72.7017 238.048 72.4833V72.4823C238.049 72.48 238.049 72.4756 238.05 72.4696C238.052 72.4571 238.055 72.4366 238.059 72.41C238.067 72.3567 238.078 72.2772 238.088 72.1786C238.109 71.9795 238.129 71.7103 238.123 71.4237C238.116 71.1332 238.085 70.8496 238.018 70.6122C237.95 70.3702 237.861 70.2333 237.782 70.1639C237.315 69.7545 236.846 69.314 236.413 68.9032C236.194 68.6955 235.986 68.4967 235.791 68.3124L235.246 67.8065L235.184 67.744L233.322 65.6151C233.312 65.6043 233.303 65.5932 233.294 65.5819C232.945 65.133 232.565 64.4738 232.137 63.7391C231.698 62.9851 231.177 62.0963 230.517 61.1112C230.148 60.5848 229.509 59.8187 228.848 58.9989C228.295 58.3125 227.711 57.5695 227.353 56.9794L227.214 56.7372C226.711 55.9088 226.567 54.91 226.821 53.9725C227.251 52.24 228.861 51.0743 230.627 51.1903L230.799 51.2059L230.863 51.2157C232.133 51.4708 233.3 52.0914 234.222 53.0008H234.223C234.666 53.4181 235.082 53.8631 235.47 54.3309C235.352 53.6399 235.217 52.9152 235.061 52.2274V52.2264C234.777 50.9831 234.715 50.7977 234.45 49.8465C234.312 49.3545 234.204 48.9039 234.096 48.4491C233.988 47.9925 233.879 47.531 233.738 46.9989L233.734 46.9862C233.468 45.908 233.259 44.8166 233.106 43.7167L233.054 43.4237C232.824 41.955 233.066 40.448 233.751 39.1229L233.82 39.0155C233.845 38.9818 233.873 38.9498 233.904 38.9208C234.837 38.0435 236.178 37.7723 237.37 38.2001L237.606 38.2948L237.678 38.3319C237.702 38.3455 237.725 38.3607 237.747 38.3768L237.95 38.5331C238.943 39.3279 239.686 40.3942 240.088 41.6044C240.685 43.0699 241.086 44.6078 241.279 46.1786L241.423 47.0409C241.453 47.2102 241.484 47.3825 241.515 47.5565C241.855 47.1408 242.303 46.8136 242.821 46.6161L242.868 46.5995L243.16 46.5194C243.746 46.3763 244.353 46.3364 244.954 46.4022L245.252 46.4442L245.281 46.4491L245.443 46.4872C246.193 46.6809 246.86 47.1141 247.342 47.7206L247.443 47.8534L247.493 47.9315C247.508 47.9586 247.52 47.9867 247.532 48.0155L247.662 48.3651C247.67 48.3514 247.678 48.3372 247.687 48.3241C248.159 47.6596 248.847 47.1807 249.634 46.9696L249.694 46.9559C250.413 46.8244 251.148 46.8074 251.872 46.9061L252.18 46.9559L252.284 46.9823L252.558 47.0858C253.099 47.3133 253.58 47.6607 253.967 48.1014L254.153 48.329L254.207 48.413C254.223 48.4417 254.237 48.4712 254.25 48.5018C254.424 48.94 254.574 49.3874 254.7 49.8407C255.131 49.2156 255.793 48.7693 256.558 48.6151C257.599 48.4055 258.673 48.7675 259.376 49.5643L259.501 49.7176C260.076 50.464 260.262 51.44 260.001 52.3475V57.2499Z" fill="black"/>
<path d="M252.688 66.3317V58.6781C252.688 58.22 252.316 57.8486 251.857 57.8486C251.398 57.8486 251.025 58.22 251.025 58.6781V66.3317C251.025 66.7898 251.398 67.1612 251.857 67.1612C252.316 67.1612 252.688 66.7898 252.688 66.3317Z" fill="black"/>
<path d="M248.298 66.3289L248.254 58.6714C248.251 58.2144 247.877 57.846 247.418 57.8486C246.958 57.8513 246.588 58.2239 246.591 58.6809L246.635 66.3385C246.638 66.7955 247.012 67.1638 247.471 67.1612C247.931 67.1586 248.301 66.7859 248.298 66.3289Z" fill="black"/>
<path d="M242.156 58.689L242.201 66.3306C242.203 66.792 242.578 67.1639 243.037 67.1612C243.496 67.1585 243.866 66.7823 243.864 66.3209L243.819 58.6792C243.817 58.2178 243.442 57.846 242.983 57.8486C242.524 57.8513 242.154 58.2276 242.156 58.689Z" fill="black"/>
<ellipse cx="29.4449" cy="29.8594" rx="21.4292" ry="21.1016" fill="#FFEDD6"/>
<path d="M29.7803 25.9502C29.7484 26.4347 28.0366 28.1055 27.4379 28.1055C21.8991 28.1055 21 31.4557 21 31.4557C21.2453 34.277 23.2095 36.6003 25.5883 37.8297C25.6968 37.8858 25.8066 37.9364 25.9166 37.9865C26.105 38.0699 26.2958 38.1479 26.4887 38.2204C27.3043 38.5092 28.1587 38.6739 29.0232 38.7092C38.7313 39.1646 40.6122 27.1034 33.6061 23.6009C35.4003 23.2889 37.2627 24.0105 38.3027 24.7411C36.5997 21.7654 33.4195 19.7578 29.7682 19.7578C29.5372 19.7578 29.311 19.7769 29.084 19.7926C27.1301 19.9269 25.262 20.6468 23.7232 21.8584C24.0202 22.1096 24.3554 22.4455 25.0616 23.1412C26.3829 24.4434 29.7731 25.7919 29.7803 25.9502Z" fill="#FFEDD6"/>
<path d="M47.5026 22.2406C46.656 20.2043 44.9414 18.0059 43.595 17.311C44.6908 19.4593 45.325 21.6142 45.5673 23.2225C45.5673 23.2256 45.5686 23.2335 45.5712 23.2549C43.3686 17.7652 39.6339 15.5515 36.5843 10.7317C36.4303 10.488 36.2759 10.2436 36.1255 9.98601C36.0489 9.85447 35.9773 9.72004 35.911 9.58304C35.7843 9.33842 35.6866 9.07985 35.6198 8.81258C35.6203 8.79992 35.616 8.78755 35.6078 8.7779C35.5996 8.76824 35.5881 8.76199 35.5755 8.76038C35.5636 8.75696 35.5509 8.75696 35.539 8.76038C35.5362 8.76135 35.5322 8.76451 35.5293 8.76565C35.525 8.76735 35.5195 8.77124 35.515 8.77375C35.5172 8.77084 35.5217 8.76427 35.5231 8.76273C30.6301 11.6283 28.9702 16.9294 28.8177 19.5816C29.0446 19.5658 29.2709 19.5468 29.5019 19.5468C33.1535 19.5468 36.3337 21.5544 38.0365 24.5301C36.9964 23.7995 35.1341 23.0779 33.3399 23.3899C40.3459 26.8924 38.465 38.9536 28.7569 38.4982C27.8924 38.463 27.0381 38.2982 26.2224 38.0094C26.0295 37.9369 25.8387 37.8589 25.6503 37.7755C25.5404 37.7254 25.4306 37.6748 25.322 37.6187C25.3259 37.6214 25.3313 37.6244 25.3352 37.6268C25.2401 37.581 25.1455 37.5339 25.0516 37.4855C25.1427 37.529 25.2283 37.5766 25.3218 37.6184C22.943 36.389 20.9788 34.0657 20.7335 31.2444C20.7335 31.2444 21.6326 27.8942 27.1714 27.8942C27.7702 27.8942 29.4821 26.2233 29.5138 25.7388C29.5065 25.5806 26.1164 24.2321 24.7948 22.93C24.0886 22.2342 23.7533 21.8988 23.4564 21.6471C23.2952 21.511 23.1268 21.3839 22.9518 21.2662C22.5079 19.7129 22.489 18.069 22.8972 16.506C20.8962 17.4171 19.3399 18.8572 18.2085 20.1289H18.1995C17.4273 19.1509 17.4818 15.9246 17.5258 15.251C17.5165 15.2093 16.9498 15.5452 16.8755 15.5959C16.1942 16.0822 15.5572 16.6279 14.972 17.2266C14.3063 17.902 13.6981 18.6317 13.1536 19.4081C13.1536 19.4091 13.1531 19.4102 13.1528 19.4112C13.1528 19.4101 13.1533 19.4091 13.1536 19.4081C11.9011 21.1831 11.0128 23.1886 10.54 25.3089C10.5307 25.3512 10.5229 25.3949 10.5138 25.4375C10.4771 25.609 10.3123 26.4792 10.2893 26.6659C10.2875 26.6802 10.291 26.6516 10.2893 26.6659C10.1389 27.5651 10.043 28.4727 10.002 29.3835C10.002 29.4167 10 29.4496 10 29.4829C10 40.2389 18.7209 48.9583 29.4782 48.9583C39.1121 48.9583 47.1113 41.9647 48.6774 32.7784C48.7104 32.5291 48.7368 32.2785 48.7659 32.027C49.1531 28.6869 48.7229 25.1763 47.5026 22.2406ZM45.5703 23.2408C45.5712 23.2477 45.5725 23.2549 45.5735 23.2618L45.5729 23.2597L45.5703 23.2408V23.2408Z" fill="#FE7802"/>
<path d="M84.225 65.13C82.08 65.13 80.949 64.272 80.611 62.322H82.275V62.452C82.275 63.232 82.834 63.856 84.225 63.856C85.473 63.856 86.188 63.401 86.188 62.621V62.478C86.188 61.906 85.811 61.594 84.875 61.399L82.99 61.009C81.352 60.658 80.637 59.93 80.637 58.604C80.637 56.862 81.898 55.9 84.186 55.9C86.305 55.9 87.423 56.758 87.748 58.708H86.11V58.578C86.11 57.811 85.551 57.174 84.186 57.174C82.951 57.174 82.262 57.616 82.262 58.409V58.552C82.262 59.124 82.626 59.449 83.549 59.631L85.434 60.021C87.072 60.372 87.813 61.087 87.813 62.426C87.813 64.168 86.539 65.13 84.225 65.13ZM95.333 65V61.074H91.615V65H89.99V56.03H91.615V59.774H95.333V56.03H96.958V65H95.333ZM99.1191 65V63.7H100.133V57.33H99.1191V56.03H102.785V57.33H101.758V63.7H102.785V65H99.1191ZM104.944 65V56.03H111.262V57.33H106.569V59.8H110.209V61.048H106.569V65H104.944ZM115.146 65V57.33H112.416V56.03H119.475V57.33H116.758V65H115.146Z" fill="#15141A"/>
</svg>
