<!-- This Source Code Form is subject to the terms of the Mozilla Public
   - License, v. 2.0. If a copy of the MPL was not distributed with this
   - file, You can obtain one at http://mozilla.org/MPL/2.0/. -->
<svg xmlns="http://www.w3.org/2000/svg" width="328" height="101" fill="none" viewBox="0 0 328 101">
  <path fill="#FFEDD6" d="M0 .055h328v100H0z"/>
  <path fill="#fff" d="M18.122 23.357A4.357 4.357 0 0 1 22.48 19h136.164A4.357 4.357 0 0 1 163 23.357v53.376a4.357 4.357 0 0 1-4.357 4.358H22.479a4.357 4.357 0 0 1-4.357-4.358V23.357Z"/>
  <path fill="#161616" d="M158.643 79.59v1.5H22.48v-1.5h136.163Zm2.857-2.857V23.357a2.858 2.858 0 0 0-2.564-2.842l-.293-.015H22.48a2.858 2.858 0 0 0-2.858 2.857v53.376a2.858 2.858 0 0 0 2.858 2.858v1.5l-.225-.006a4.358 4.358 0 0 1-4.127-4.127l-.006-.225V23.357a4.357 4.357 0 0 1 4.133-4.351L22.48 19h136.163l.224.006A4.357 4.357 0 0 1 163 23.357v53.376l-.006.225a4.357 4.357 0 0 1-4.127 4.127l-.224.006v-1.5a2.857 2.857 0 0 0 2.857-2.858Z"/>
  <path fill="#D9D9D9" d="M19.628 74.806h141.885v2.562a2.218 2.218 0 0 1-2.218 2.218H22.018a2.39 2.39 0 0 1-2.39-2.39v-2.39Z"/>
  <path fill="#161616" d="M137.683 40.357a1.5 1.5 0 0 1 1.116.517l10.085 11.643a1.501 1.501 0 0 1-1.134 2.481h-3.182v9.735a1.5 1.5 0 0 1-1.5 1.5h-11.334a1.501 1.501 0 0 1-1.5-1.5v-9.735h-3.181a1.5 1.5 0 0 1-1.109-2.51l10.613-11.642.113-.112a1.501 1.501 0 0 1 1.013-.377Zm5.385 24.376V53.498h4.682l-10.085-11.641-10.612 11.641h4.681v11.235h11.334Z"/>
  <path fill="#000" d="M176.172 52.446V50.26h10.664v2.187h-10.664Zm4.238 4.15V46.109h2.188v10.489h-2.188Z"/>
  <rect width="91.134" height="12.677" x="201" y="29.452" fill="#0062FA" rx="6.339"/>
  <path fill="#FFCD9E" d="M201 64.5a6.5 6.5 0 0 1 6.5-6.5h37.689a6.5 6.5 0 1 1 0 13H207.5a6.5 6.5 0 0 1-6.5-6.5Zm64.336 0a6.5 6.5 0 0 1 6.5-6.5H310.5a6.5 6.5 0 1 1 0 13h-38.664a6.5 6.5 0 0 1-6.5-6.5Z"/>
  <path fill="#fff" d="M233.886 65.175c-.621-.798-1.397-2.416-2.75-4.434-.776-1.109-2.683-3.215-3.259-4.302a2.79 2.79 0 0 1-.333-2.217 2.927 2.927 0 0 1 3.171-2.217 5.9 5.9 0 0 1 2.993 1.596 14.11 14.11 0 0 1 1.574 1.752c.355.443.444.62.843 1.13.399.51.665 1.02.466.267-.156-1.109-.422-2.971-.799-4.635-.288-1.263-.354-1.463-.62-2.416-.267-.954-.422-1.752-.71-2.838a31.492 31.492 0 0 1-.621-3.238 6.254 6.254 0 0 1 .577-4.102 2.638 2.638 0 0 1 2.882-.488 5.853 5.853 0 0 1 2.084 2.883c.581 1.42.969 2.911 1.153 4.435.355 2.217 1.042 5.454 1.065 6.12 0-.821-.156-2.55 0-3.327a2.371 2.371 0 0 1 1.485-1.773 4.436 4.436 0 0 1 2.04-.134c.688.144 1.296.54 1.707 1.11a12.01 12.01 0 0 1 .843 4.057c.059-1.219.268-2.425.621-3.592.37-.522.911-.899 1.53-1.064a6.159 6.159 0 0 1 2.217 0c.601.2 1.127.58 1.508 1.086.469 1.176.754 2.417.842 3.68 0 .311.156-.864.643-1.64a2.225 2.225 0 0 1 3.774-.76c.525.596.693 1.426.439 2.179v5.01a25.986 25.986 0 0 1-.532 3.859 13.126 13.126 0 0 1-1.596 3.17 15.967 15.967 0 0 0-2.639 4.014 8.89 8.89 0 0 0-.222 2.217 7.804 7.804 0 0 0 .266 2.04c-.906.096-1.82.096-2.727 0-.865-.133-1.929-1.862-2.217-2.394a.844.844 0 0 0-1.508 0c-.488.842-1.574 2.372-2.328 2.46-1.486.178-4.545 0-6.962 0 0 0 .399-2.217-.51-3.015s-1.841-1.73-2.528-2.35l-1.862-2.129Z"/>
  <path fill="#000" d="M258.501 52.294a.76.76 0 0 1 .04-.24 1.473 1.473 0 0 0-.171-1.288l-.119-.156a1.474 1.474 0 0 0-2.501.504.806.806 0 0 1-.034.082l-.042.078c-.184.293-.322.695-.418 1.033a9.96 9.96 0 0 0-.06.22l-.046.176c-.007.023-.017.058-.03.095a.973.973 0 0 1-.038.091c-.002.004-.068.156-.225.275a.753.753 0 0 1-1.2-.494c-.006-.038-.007-.074-.008-.103l-.001.001a11.49 11.49 0 0 0-.754-3.357 2.371 2.371 0 0 0-1.041-.735 5.41 5.41 0 0 0-1.856.004 1.997 1.997 0 0 0-1.018.677c-.272.93-.448 1.885-.524 2.85l-.029.434a.749.749 0 0 1-1.479.134l-.019-.146a11.254 11.254 0 0 0-.755-3.71 2.062 2.062 0 0 0-1.191-.745 3.687 3.687 0 0 0-1.648.107 1.623 1.623 0 0 0-.995 1.204l-.002.007c-.057.29-.063.829-.044 1.476.018.571.056 1.236.058 1.66l.001.018h-.001l.001.026-.004.075a.75.75 0 0 1-1.489.025l-.006-.076a9.009 9.009 0 0 0-.116-.824c-.072-.425-.17-.955-.279-1.54-.164-.873-.352-1.866-.512-2.78l-.149-.882-.004-.029a16.368 16.368 0 0 0-.903-3.728l-.199-.512a.851.851 0 0 1-.019-.05 5.1 5.1 0 0 0-1.748-2.46 1.888 1.888 0 0 0-1.899.295 5.498 5.498 0 0 0-.489 3.26l.041.23.007.045c.147 1.063.35 2.119.607 3.16h-.001c.145.55.258 1.027.365 1.476.108.454.21.88.339 1.34.2.717.29 1.017.445 1.663l.185.79v.001l.14.644c.307 1.495.529 3.044.665 4.015.021.082.039.157.052.224.012.063.034.184.026.311a.767.767 0 0 1-1.248.571.974.974 0 0 1-.122-.11c-.088-.092-.185-.229-.25-.319-.081-.111-.163-.227-.252-.34a14.058 14.058 0 0 1-.458-.618c-.057-.08-.111-.156-.171-.236l-.209-.27-.012-.017a13.346 13.346 0 0 0-1.092-1.267l-.398-.39-.015-.014a5.149 5.149 0 0 0-2.581-1.387 2.175 2.175 0 0 0-2.268 1.457l-.058.195-.004.019c-.13.482-.08.992.139 1.435l.104.187.028.048.107.187c.284.465.792 1.12 1.369 1.836.471.584.982 1.202 1.38 1.72l.355.48.008.012a48.303 48.303 0 0 1 1.675 2.715c.449.77.766 1.316 1.036 1.666l1.818 2.076c.344.313.746.697 1.158 1.088.432.41.882.834 1.325 1.223.376.33.578.769.69 1.167.114.403.153.824.161 1.187.003.17 0 .331-.007.48.995.013 2.052.044 3.014.061 1.263.023 2.348.02 3.031-.061h.001l.046-.022a1.19 1.19 0 0 0 .192-.127c.162-.127.348-.313.544-.542.293-.342.572-.74.79-1.082l.194-.32a1.593 1.593 0 0 1 2.817.02l.13.227c.16.27.408.656.69 1.01.188.236.376.439.549.584.085.071.157.12.215.152.028.015.05.025.065.03l.014.004c.568.06 1.14.077 1.711.056a8.48 8.48 0 0 1-.105-1.332l-.003-.303a9.655 9.655 0 0 1 .243-2.101l.022-.075a.893.893 0 0 1 .028-.071 16.75 16.75 0 0 1 2.722-4.156 12.35 12.35 0 0 0 1.471-2.921 25.29 25.29 0 0 0 .505-3.676v-4.987Zm1.5 5.01v.047a26.939 26.939 0 0 1-.548 3.97c-.007.028-.014.057-.024.085a13.828 13.828 0 0 1-1.428 2.96l-.26.393a.803.803 0 0 1-.06.076 15.246 15.246 0 0 0-2.482 3.758 8.107 8.107 0 0 0-.187 1.952l.001.021a7.033 7.033 0 0 0 .24 1.843.75.75 0 0 1-.645.94c-.959.102-1.926.102-2.885 0l-.035-.003c-.416-.065-.773-.3-1.039-.523a5.58 5.58 0 0 1-.759-.8c-.334-.42-.621-.864-.81-1.184l-.155-.273-.011-.021a.094.094 0 0 0-.132-.038l-.034.038-.022.04c-.261.45-.68 1.084-1.143 1.625a5.6 5.6 0 0 1-.758.747c-.253.198-.595.413-.989.459l-.001-.001c-.802.095-1.99.094-3.232.072-1.269-.022-2.616-.066-3.816-.066a.753.753 0 0 1-.739-.883v-.001l.002-.013.009-.06a6.098 6.098 0 0 0 .064-.986 3.371 3.371 0 0 0-.105-.811c-.068-.242-.157-.38-.236-.448a47.98 47.98 0 0 1-1.369-1.261c-.219-.208-.427-.407-.622-.59l-.545-.507-.062-.062-1.862-2.13a.579.579 0 0 1-.028-.032c-.349-.45-.729-1.109-1.157-1.843a47.257 47.257 0 0 0-1.62-2.628c-.369-.526-1.008-1.293-1.669-2.112-.553-.687-1.137-1.43-1.495-2.02l-.139-.242a3.542 3.542 0 0 1-.393-2.765 3.676 3.676 0 0 1 3.806-2.782l.172.016.064.01a6.647 6.647 0 0 1 3.359 1.785h.001c.443.417.859.862 1.247 1.33a40.381 40.381 0 0 0-.409-2.104c-.284-1.244-.346-1.43-.611-2.38a34.714 34.714 0 0 1-.354-1.398 52.798 52.798 0 0 0-.358-1.45l-.004-.013a32.136 32.136 0 0 1-.628-3.27l-.052-.293a7.005 7.005 0 0 1 .697-4.3l.069-.108a.704.704 0 0 1 .084-.095 3.39 3.39 0 0 1 3.466-.72l.236.094.072.038a.71.71 0 0 1 .069.044l.203.157a6.598 6.598 0 0 1 2.138 3.071 17.918 17.918 0 0 1 1.191 4.574l.144.863.092.515c.34-.415.788-.743 1.306-.94l.047-.017.292-.08a5.184 5.184 0 0 1 1.794-.117l.298.042.029.005.162.038c.75.194 1.417.627 1.899 1.233l.101.133.05.078a.832.832 0 0 1 .039.084l.13.35.025-.041a3.5 3.5 0 0 1 1.947-1.355l.06-.013a6.914 6.914 0 0 1 2.178-.05l.308.05.104.026.274.104a3.873 3.873 0 0 1 1.409 1.015l.186.228.054.084c.016.028.03.058.043.088.174.439.324.886.45 1.34a2.97 2.97 0 0 1 4.676-.277l.125.153c.575.747.761 1.723.5 2.63v4.903Z"/>
  <path fill="#000" d="M252.688 66.386v-7.653a.831.831 0 0 0-1.663 0v7.653a.831.831 0 0 0 1.663 0Zm-4.39-.002-.044-7.658a.83.83 0 0 0-.836-.823.83.83 0 0 0-.827.833l.044 7.657a.83.83 0 0 0 .836.823.829.829 0 0 0 .827-.832Zm-6.142-7.64.045 7.641a.833.833 0 0 0 .836.83.834.834 0 0 0 .827-.84l-.045-7.641a.833.833 0 0 0-.836-.83.834.834 0 0 0-.827.84Z"/>
  <ellipse cx="29.445" cy="29.914" fill="#FFEDD6" rx="21.429" ry="21.102"/>
  <path fill="#FFEDD6" d="M29.78 26.005c-.032.484-1.743 2.155-2.342 2.155-5.539 0-6.438 3.35-6.438 3.35.245 2.822 2.21 5.145 4.588 6.374a9.796 9.796 0 0 0 .901.391 8.65 8.65 0 0 0 2.534.489c9.708.455 11.59-11.606 4.583-15.108 1.794-.312 3.657.41 4.697 1.14-1.703-2.976-4.883-4.983-8.535-4.983-.23 0-.457.018-.684.034a9.746 9.746 0 0 0-5.36 2.066c.296.251.631.587 1.338 1.283 1.32 1.302 4.711 2.65 4.718 2.809Z"/>
  <path fill="#F07300" d="M47.503 22.295c-.847-2.036-2.562-4.234-3.908-4.93 1.096 2.149 1.73 4.304 1.972 5.912l.004.033c-2.202-5.49-5.937-7.704-8.987-12.524a25.787 25.787 0 0 1-.459-.745 5.959 5.959 0 0 1-.214-.403 3.543 3.543 0 0 1-.291-.77.05.05 0 0 0-.044-.053.066.066 0 0 0-.037 0l-.01.005-.014.008.008-.01c-4.893 2.865-6.553 8.166-6.705 10.818.227-.015.453-.034.684-.034 3.652 0 6.832 2.007 8.534 4.983-1.04-.73-2.902-1.452-4.696-1.14 7.006 3.502 5.125 15.563-4.583 15.108a8.651 8.651 0 0 1-2.535-.489 10.8 10.8 0 0 1-.572-.234c-.11-.05-.22-.1-.328-.157l.013.008a9.294 9.294 0 0 1-.283-.14c.09.043.176.09.27.132-2.379-1.23-4.343-3.553-4.588-6.374 0 0 .899-3.35 6.437-3.35.6 0 2.311-1.671 2.343-2.155-.008-.159-3.398-1.507-4.72-2.81-.705-.695-1.04-1.03-1.338-1.282a5.797 5.797 0 0 0-.504-.381 9.025 9.025 0 0 1-.055-4.76c-2 .91-3.557 2.35-4.688 3.623h-.01c-.772-.978-.717-4.205-.673-4.878-.01-.042-.576.294-.65.345a14.189 14.189 0 0 0-1.904 1.63 17.064 17.064 0 0 0-1.818 2.182l-.001.003v-.003a16.44 16.44 0 0 0-2.613 5.9c-.01.043-.017.087-.026.13a32.068 32.068 0 0 0-.225 1.228c-.002.014.002-.015 0 0a22.71 22.71 0 0 0-.287 2.717l-.002.1c0 10.756 8.72 19.475 19.478 19.475 9.634 0 17.633-6.994 19.2-16.18.032-.25.059-.5.088-.751.387-3.34-.043-6.851-1.263-9.787Zm-1.933 1 .004.021-.001-.002-.003-.018Z"/>
</svg>
