<!-- This Source Code Form is subject to the terms of the Mozilla Public
   - License, v. 2.0. If a copy of the MPL was not distributed with this
   - file, You can obtain one at http://mozilla.org/MPL/2.0/. -->
<svg xmlns="http://www.w3.org/2000/svg" width="336" height="188" fill="none"><path fill="#42414D" d="M8 .5h320a7.5 7.5 0 0 1 7.5 7.5v172a7.5 7.5 0 0 1-7.5 7.5H8A7.5 7.5 0 0 1 .5 180V8A7.5 7.5 0 0 1 8 .5Z"/><path stroke="#52525E" d="M8 .5h320a7.5 7.5 0 0 1 7.5 7.5v172a7.5 7.5 0 0 1-7.5 7.5H8A7.5 7.5 0 0 1 .5 180V8A7.5 7.5 0 0 1 8 .5Z"/><rect width="263" height="14" x="30.27" y="37.27" fill="#FBFBFE" rx="2"/><rect width="270" height="14" x="30.27" y="67.27" fill="#FBFBFE" rx="2"/><rect width="169" height="14" x="30.27" y="97.27" fill="#FBFBFE" rx="2"/><rect width="271" height="24" x="26" y="32" fill="#0DF" opacity=".4" rx="1"/><rect width="278" height="24" x="26" y="62" fill="#0DF" opacity=".4" rx="1"/><rect width="178" height="24" x="26" y="92" fill="#0DF" opacity=".4" rx="1"/><g filter="url(#a)"><rect width="38" height="38" x="209" y="105" fill="#15141A" rx="5"/><rect width="37" height="37" x="209.5" y="105.5" stroke="#52525E" rx="4.5"/><path fill="#0DF" d="M230.799 135.266a3.021 3.021 0 0 1-3.014-2.436l-.667-3.111a2.57 2.57 0 0 0-1.971-1.97l-3.112-.666c-1.458-.316-2.436-1.527-2.436-3.017s.978-2.701 2.436-3.015l3.112-.666a2.571 2.571 0 0 0 1.971-1.971l.669-3.112c.311-1.458 1.523-2.436 3.012-2.436 1.49 0 2.702.978 3.015 2.436l.667 3.112a2.569 2.569 0 0 0 1.971 1.969l3.112.666c1.458.316 2.436 1.527 2.436 3.017s-.978 2.701-2.436 3.015l-3.112.666a2.578 2.578 0 0 0-1.971 1.973l-.669 3.11a3.018 3.018 0 0 1-3.013 2.436Zm0-20.067c-.182 0-.617.056-.731.59l-.669 3.114a4.908 4.908 0 0 1-3.763 3.763l-3.112.666c-.534.116-.591.551-.591.734 0 .183.057.618.591.734l3.112.666a4.902 4.902 0 0 1 3.763 3.763l.669 3.114c.114.534.549.59.731.59.183 0 .618-.056.732-.59l.669-3.112a4.91 4.91 0 0 1 3.763-3.765l3.112-.666c.534-.116.591-.551.591-.734 0-.183-.057-.618-.591-.734l-3.112-.666a4.908 4.908 0 0 1-3.763-3.763l-.669-3.114c-.114-.534-.549-.59-.732-.59ZM216.695 131.815l.339-1.585c.161-.751 1.232-.751 1.395 0l.34 1.585a.705.705 0 0 0 .547.547l1.584.339c.751.161.751 1.232 0 1.395l-1.584.34a.704.704 0 0 0-.547.547l-.34 1.584c-.161.751-1.232.751-1.395 0l-.339-1.584a.713.713 0 0 0-.547-.547l-1.585-.34c-.751-.161-.751-1.232 0-1.395l1.585-.339a.714.714 0 0 0 .547-.547ZM216.695 113.148l.339-1.585c.161-.751 1.232-.751 1.395 0l.34 1.585a.705.705 0 0 0 .547.547l1.584.339c.751.161.751 1.232 0 1.395l-1.583.341a.714.714 0 0 0-.547.547l-.341 1.585c-.161.751-1.232.751-1.395 0l-.339-1.585a.714.714 0 0 0-.547-.547l-1.585-.341c-.751-.161-.751-1.232 0-1.395l1.585-.339a.714.714 0 0 0 .547-.547Z"/></g><path fill="#FBFBFE" d="M199.781 97.677c0-.27.138-.518.367-.662l1.385-.865a.783.783 0 0 1 .414-.119H204V94.47h-2.053c-.44 0-.868.124-1.242.356l-1.385.866c-.119.074-.219.169-.32.261-.103-.092-.201-.187-.32-.26l-1.386-.867a2.35 2.35 0 0 0-1.241-.356H194v1.562h2.053c.146 0 .289.041.414.119l1.385.865c.23.144.368.391.368.662v12.645a.778.778 0 0 1-.368.663l-1.386.865a.788.788 0 0 1-.415.119H194v1.562h2.053c.44 0 .868-.123 1.242-.356l1.385-.865c.12-.075.219-.17.32-.261.101.091.201.186.32.261l1.386.866c.374.233.803.357 1.243.357H204v-1.563h-2.053a.781.781 0 0 1-.414-.119l-1.385-.865a.776.776 0 0 1-.367-.662V97.677Z"/><defs><filter id="a" width="50" height="50" x="203" y="101" color-interpolation-filters="sRGB" filterUnits="userSpaceOnUse"><feFlood flood-opacity="0" result="BackgroundImageFix"/><feColorMatrix in="SourceAlpha" result="hardAlpha" values="0 0 0 0 0 0 0 0 0 0 0 0 0 0 0 0 0 0 127 0"/><feOffset dy="2"/><feGaussianBlur stdDeviation="3"/><feColorMatrix values="0 0 0 0 0.227451 0 0 0 0 0.223529 0 0 0 0 0.266667 0 0 0 0.2 0"/><feBlend in2="BackgroundImageFix" result="effect1_dropShadow_13708_46255"/><feBlend in="SourceGraphic" in2="effect1_dropShadow_13708_46255" result="shape"/></filter></defs></svg>
