<!-- This Source Code Form is subject to the terms of the Mozilla Public
- License, v. 2.0. If a copy of the MPL was not distributed with this
- file, You can obtain one at http://mozilla.org/MPL/2.0/. -->
<svg xmlns="http://www.w3.org/2000/svg" id="historyEmpy_1" viewBox="0 0 1174.8 1189.87"><defs><style>.cls-1{fill:#5c2e2e}.cls-1,.cls-3,.cls-4,.cls-5,.cls-6,.cls-7,.cls-8{stroke-width:0}.cls-3{fill:#1533fc}.cls-4{fill:#c8e0fe}.cls-5{fill:#e26c2a}.cls-6{fill:#e2975c}.cls-7{fill:#feb574}.cls-8{fill:#f1ecf0}</style></defs><path id="_01_baseShadow" fill="#3774fe" stroke-width="0" d="M234 1103.5c-.16-2.93-1.74-4.53-1.73-7.2 0-.69 1.12-1.55 1.14-2.37.05-1.98-1.37-3.9-2.08-5.68-3.07-7.72-4.48-16.24-4.18-24.55.55-15.3 6.16-31.58 12.77-45.27 7.03-14.55 17-25.73 30.48-34.52 6.15-4.01 12.52-7.69 19.14-10.85 4.29-2.04 17.76-4.98 19.2-9.52 1.01-3.18-.08-7.98-.03-11.4.07-4.56.29-9.07.91-13.6 1.15-8.38 2.99-16.6 6.14-24.47 5.85-14.6 14.95-24.29 26.77-34.27 2.34-1.98 4.61-3.17 4.69-6.31.08-3.07-3.18-8.29-4.15-11.47-2.42-7.93-4.53-16.06-5.34-24.33-.8-8.14-.32-16.02 2.14-23.85 2.45-7.8 8.68-14.76 6.83-22.99-3.31-14.77-11.22-36.98.29-50.25 5.29-6.1 14.01-6.36 21.22-3.85 8.09 2.82 11.36 8.06 16.56 14.29 4.88-16.13 6.92-32.99 12.06-49.03 1.96-6.1 4.87-15.24 10.88-18.49 7.68-4.14 14.32 2.12 19.29 7.31 11.1 11.57 21.46 24.51 29.84 38.19 4.11 6.72 8.22 13.45 12.21 20.24 2.09 3.54 6.43 14.92 10.81 15.38 1.62.17 6.74-2.16 8.49-2.53 3.43-.72 6.26-2.18 9.54-3.3 2.91-1 6.18-1.14 9.03-2.27 4.78-1.88 3.35-6.03 3.49-10.58.23-7.59 1.31-15.13 1.69-22.71.42-8.4-.37-15.96.79-24.44 1.18-8.62 2.38-17.24 3.75-25.83.83-5.21 2.06-15.05 6.85-18.33 4.86-3.32 13.87 1.62 17.19 5.13 4.99 5.28 9.13 12.16 13 18.29 9.22 14.58 16.01 30.12 23.05 45.83 6.08 13.58 13.98 26.14 20.82 39.4 15.98 30.97 31.4 62.19 46.52 93.57 3.02 6.26 3.42 9.62 11.42 7.9 7.32-1.57 14.91-5.64 22.14-7.97 7.84-2.52 15.8-4.61 23.67-7.01 4.18-1.27 8.3-2.73 12.48-3.99 3.04-.92 8.75-1.03 10.84-3.4 1.86-2.11 1.89-9.03 2.34-11.65.7-4.13 1.44-8.24 2.19-12.36 1.52-8.38 3.15-16.74 4.8-25.1 3.35-17 6.47-34.02 9.73-51.03 12.86-67.08 26.19-134.13 41-200.82 7.18-32.34 13.84-64.98 21.94-97.12 3.67-14.56 5.93-31.03 15.69-42.87 9.63-11.68 21.1-21.88 36.79-23.68 15.37-1.76 29.93 3.45 44.41 7.54 5.97 1.69 11.14 8.44 15.48 12.66 5.92 5.75 7.83 14.13 9.35 22.02 6.44 33.34.74 68.42-4.86 101.41-5.79 34.15-11.99 68.4-19.64 102.19-7.65 33.75-16.15 67.26-24.05 100.95-7.72 32.94-12.77 66.23-18.38 99.56-2.91 17.27-6.18 34.49-8.98 51.77-1.2 7.38-3.26 15.47-3.5 22.88-.12 3.63.72 7.19.56 10.87-.24 5.48-.95 10.98-1.59 16.42-1.93 16.46-3.93 33.54-7.58 49.7-3.41 15.08-6.76 32.85-14.78 46.26-8.04 13.45-14.47 24.19-28.29 32.58-14.48 8.8-29.94 13.98-45.67 20-3.57 1.37-16.97 5.03-18.31 8.77-.81 2.26 1.9 8.69 2.64 10.76 1.12 3.18 2.81 6.06 3.57 9.34H234Z"/><g id="_02_clock"><path d="M446.5 1103c.92-7.93 1.76-15.87 2.49-23.82.4-4.37.74-8.75 1.02-13.13.24-3.65 2.25-11.21 1-14.76-1.2-3.41-3.58-2.18-7.05-2.16-4.37.03-8.66-.57-12.96-1.3-7.67-1.3-16.44-1.67-23.36-5.24-5.93-3.05-11.99-6.1-16.18-11.47-5.33-6.83-8.65-15.83-10.38-24.24-3.08-14.93.54-32.76 11.91-43.88 11.28-11.04 38.55-18.51 53-24 4.29-1.63-2.9-3.5-4-8-.96-3.9-3.92-5.91-4.61-9.88-1.51-8.68-1.56-17.84 1.5-26.19 2.83-7.74 8.01-14.73 12.97-21.23 2.44-3.2 4.09-4.72 4.04-8.71-.08-6.23-2.17-4.93-6.83-6.76-6.45-2.54-10.46-9.91-13.96-15.47-4.43-7.04-8.48-14.31-10.63-22.4-2.02-7.62-3.06-16.75-1.86-24.55.49-3.18.94-7.15 2.69-9.92 2.78-4.39 2.95-4.15 1.59-9.88-2.92-12.33-5.47-34.88 7.12-43.05 3.5-2.27 3.8-1.44 6.61 1.61 2.52 2.75 5.13 5.45 7.38 8.43 1.69 2.25 9.45 20.24 12.09 18.78 1.45-.8 1.52-9.56 1.78-11.52.57-4.29 1.15-8.57 1.72-12.86 1.28-9.6 2.18-19.25 3.58-28.83 1.31-8.98 3.23-17.86 4.99-26.76.8-4.01 1.49-8.08 2.72-11.99.53-1.69 2.76-9.63 4.79-10.29 2.42-.79 11.51 7.47 13.18 9.39 6.02 6.93 10.58 15.49 14.93 23.51 8.02 14.77 13.75 30.52 21.71 45.35 3.94 7.35 7.59 14.83 11.13 22.37 2.41 5.13 2.04 4.73 6.8 2.68 3.44-1.48 6.22-.07 8.11-3.06.94-1.49.52-6.49.68-8.29.25-2.76.5-5.52.8-8.28.58-5.36 1.36-10.7 1.94-16.06 1.07-9.75 2.17-19.52 2.9-29.3 1.48-19.65 1.91-39.2 8.89-57.95.96-2.58 2.78-9.98 5.58-10.67 1.38-.34 5.51 2.19 6.66 2.79 7.21 3.8 14.48 15.21 18.96 21.77 11.28 16.53 20.87 30.55 30.04 48.23 1.55-7.82 5.74-41.98 19.73-36.34 6.71 2.7 7.13 17.28 7.79 23.21.5 4.53.82 9.09.97 13.64.12 3.86-.74 8.52.41 12.19 2.25-4.56 4.2-10.63 9.64-6.03 4.96 4.2 6.61 10.54 6.87 16.76.6 14.38 1.07 30.87-2.78 44.84-.8 2.88-2.39 5.65-1.97 8.72.49 3.55 2.9 7.37 4.27 10.61 1.51 3.57 3.5 7.28 4.62 10.98.69 2.27.47 4.22 2.74 5.62 1.54.95 3.42.51 5.08.86 3.27.68 6.54 2.06 9.73 3.07 7.51 2.37 11.85 4.5 17.09 10.44 4.32 4.9 8.2 10.2 10.79 16.23 1.03 2.39 1.51 7.01 3.05 8.93.73.9.42 1.36 1.42 1.89 1.12.59 5.71-1.89 7.02-2.33 14.45-4.92 29.02-9.47 43.62-13.94 3.58-1.1 7.16-2.2 10.75-3.29 2.3-.7 7.41-1.32 9.11-3.07 1.74-1.8 1.9-7.07 2.43-9.47.97-4.4 1.96-8.8 3.06-13.17 3.83-15.13 8.91-29.48 11.22-45 2.19-14.78 6.93-28.82 9.27-43.53 2.36-14.81 6.66-26.01 9.09-40.81 5.15-31.46 13.54-65.33 18.68-96.78 10.11-61.82 24.22-122.84 36.49-184.25 5.85-29.29 15.08-64.61 27.83-91.97 9-17 35.84-22.12 42.66-20.84 7.33 1.37 14.35-.16 21.34 3.38 26.79 13.56 26.8 47.8 21.55 73.6-5.99 29.45-12.46 58.73-18.59 88.15-3.18 15.24-5.2 30.65-8.11 45.92-2.94 15.42-6.83 30.64-9.85 46.05-6.19 31.59-12.72 63.08-19.34 94.58-6.48 30.83-12.13 61.86-18.85 92.63-6.83 31.3-13.27 61.92-18.8 93.53-2.66 15.23-4.67 31.14-9 46-3.82 13.11-9.95 27.3-20.11 37.19-4.68 4.56-10.63 8.12-15.88 12.02-5.5 4.08-10.9 7.83-17.49 9.79-6.55 1.94-13.19 3.07-19.75 4.93-7.32 2.07-14.37 4.73-21.9 5.94-14.58 2.35-28.16 9.04-42.56 12.47-6.93 1.65-13.31 3.64-19.91 6.34-2.49 1.02-5.21 1.34-5.56 4.28-.36 2.99 1.84 8.42 2.17 11.49 1.62 14.99 3.97 29.89 5.37 44.92 1.38 14.81-.14 29.45.34 44.27.51 15.49 1.51 30.86 1.78 46.37h-303Z" class="cls-4"/><path d="M1069 196.5c-10.33-2.78-20.72-5.25-31.14-7.67-10.33-2.39-20.87-5.95-31.34-7.56-10.22-1.57-20.84-.84-31.14-2.28-5.04-.71-9.97-1.89-15-2.64-4.66-.69-9.54-.64-14.05-2.08 1.29-.21 1.95-.31 2.67-.43-1.06-1.23-8.92-.64-10.42-.7-3.38-.13-6.77-.26-10.15-.43-8.44-.41-16.86-1.15-25.29-1.79-16.18-1.24-32.5-2.46-48.72-2.48-33.58-.03-67.05-.54-100.25 5.15-15.59 2.67-31.14 5.88-46.45 9.86-7.2 1.87-14.36 5.38-21.55 6.9-3.44.73-3.61-1-6.66-1.28-3.49-.33-9.82 3.12-13.05 4.2-31.25 10.44-61.68 21.47-91.4 35.85-29.33 14.2-58.74 28.67-86.07 46.5-26.62 17.36-47.54 32.7-70.99 54.38-12.1 11.19-30.3 24.78-41.67 36.72-5.56 5.84-10.96 11.83-16.35 17.83-4.43 4.93-8.85 8.7-12.4 14.43-8.41 13.57-18.35 26.05-26.97 39.46-8.95 13.93-17.15 28.32-26.07 42.27-9.72 15.19-18.02 30.81-26.43 46.74-8.44 15.98-16.89 31.44-23.46 48.31-6.75 17.33-12.8 34.19-17.93 52.1-2.36 8.24-5.67 16.06-8.41 24.17-2.81 8.33-8.06 18.49-8.45 27.25.86-.66 1.81-1.16 2.85-1.48-1.39 6.24-4.68 12.18-6.33 18.44-1.88 7.13-2.89 14.44-3.94 21.72-1.92 13.25-3.66 26.43-5.1 39.74-1.5 13.82-3.89 27.58-5.11 41.43-1.21 13.76-.86 27.7-1.08 41.5-.45 28.97 2.02 57.7 4.67 86.52 2.56 27.83 5.66 55.68 11.49 83.06 6.67 31.33 16.85 61.75 24.68 92.79h-84c-6.87-18.97-13.06-38.07-17.92-57.68-4.74-19.13-9.9-38.81-12-58.44-1.99-18.57-1.95-37.34-6.49-55.57-2.42-9.73-3.15-19.18-3.39-29.19-.25-10.07 1.15-21.24-.69-31.13v-15c1.79-5.06.73-12.03.93-17.37.18-4.93.81-9.84.92-14.78.48-22.63.87-45.21 5.28-67.55 4.43-22.43 6.44-45.4 11.34-67.72 2.47-11.24 6.67-22.01 8.64-33.38 1.87-10.82 5.25-21 8.69-31.4 7.37-22.29 14.27-44.88 22.97-66.69 8.2-20.55 19.11-39.52 27.41-59.94 8.76-21.55 17.95-42.58 29.6-62.72 5.65-9.76 10.44-19.71 17.01-28.94 6.41-9 13.36-17.6 20.47-26.06 6.82-8.11 12.57-16.95 19.41-25.07 7.43-8.82 15.18-17.32 22.98-25.81 16.1-17.53 31.28-35.32 48.9-51.43 16.03-14.65 33.07-28.18 50.43-41.23 18.59-13.97 36.92-30.03 57.38-41.05 19.79-10.65 39.45-22.02 59.72-31.77 42.16-20.28 84.32-39.44 130.27-49.16 45.64-9.65 92.01-19.1 138.66-21.99 23.96-1.48 47.95-2.86 71.93-3.89 12.1-.52 23.81.84 35.82 2.06 11.27 1.15 22.53.78 33.82 1.37 46.95 2.46 93.12 13.35 138.92 22.98v82Z" class="cls-4"/></g><g id="_03_foxMain"><path d="M577.5 629.5c2.71 1.39 4.9 1.88 7.5 3.5 3.06 1.9 5.92 4.82 7.98 7.66 4.98 6.87 9.79 13.86 14.41 20.98 9.14 14.1 16.27 29.07 24.68 43.52 1.37-6.98 6.99-46.16 20.88-38.79 6.19 3.29 6.41 17.8 6.86 23.74.6 8-.48 17.4 1.6 25.14 1.12-2.38 2.76-7.79 5.9-8.09 3.28-.31 6.96 5.32 8.18 7.7 4.35 8.49 2.37 20.31 2.09 29.5-.16 5.24-.25 10.54-.75 15.76-.51 5.35-2.42 10.29-3.34 15.54-.85 4.85 1.42 8.45 3.29 12.87 2.02 4.77 3.75 9.83 5.75 14.53 1.7 3.97 2.5 3.62 6.67 4.51 4.71 1 9.48 2.75 14.08 4.16 8.33 2.56 13.83 8.98 18.7 15.98 2.62 3.76 4.85 7.8 6.5 12.09 1.26 3.27 1.02 8.03 4.76 8.15 3.67.12 9.82-3.49 13.25-4.66 4.6-1.56 10.57-4.75 15.46-4.14-5.35 4.57-15.72 5.91-22.41 8.01-8.57 2.69-17.13 5.37-25.7 8.04-16.15 5.04-32.29 10.11-48.46 15.07-34.25 10.5-68.54 20.87-102.88 31.05-34.11 10.11-68.29 19.97-102.46 29.86-4.32 1.25-8.64 2.56-12.97 3.76-3.96 1.1-4.61 1.63-6.46-2.18-3.65-7.52-4.2-18.2-3.66-26.41.48-7.19 3.51-14.14 7.06-20.36 3.29-5.76 11.44-12.4 12.4-18.87 1.24-8.43-4.97-6.62-10.17-10.38-5.88-4.24-10.13-11.98-13.71-18.11-7.85-13.48-11.73-29.29-8.98-44.84.63-3.57 1.5-5.88 3.37-8.89 2-3.22 2.01-2.53.91-7.03-1.98-8.09-3.64-17.86-2.29-26.15 1.04-6.41 3.08-13.52 8.26-17.73 3.26-2.65 3.38-2.73 6.24-.15 2.73 2.47 5.07 5.69 7.31 8.6 2.29 2.96 4.44 6.06 6.19 9.38 1.44 2.74 2.27 7.23 4.61 9.25 2.83 2.44 2.62.72 3.19-2.39 1.01-5.42 1.4-11.06 2.1-16.52 2.15-16.87 4.54-33.7 7.23-50.5 1.22-7.61 2.54-15.19 5.34-22.41.62-1.6 2.49-8.62 4.08-9.2.41-.15 4.78 2.46 5.4 2.83 12.57 7.46 20.66 24.72 26.77 37.44 7.96 16.59 15.11 33.37 23.43 49.81 2.03 4.01 3.67 9.52 6.49 12.93 3.19 3.85 3.73.2 8.03-.79 4.28-.99 5.3.82 6.07-4.4.72-4.85.91-9.86 1.45-14.74 2.19-19.87 4.17-39.67 5.39-59.63 1.16-19.1 5.01-36.81 13.36-54h1ZM447 1103.5c1.12-10.32 2.08-20.64 2.94-30.99.25-2.96 3.19-23.58-.21-23.08 98.72-31.71 197.06-64.23 295.23-97.62l.21.54c-4.86 2.91-4.71 3.11-3.75 8.88 1.1 6.58 1.3 13.17 2.15 19.77 1.73 13.35 4.19 26.44 4.94 39.92.74 13.32-.8 26.67-.16 40 .68 14.22 1.26 28.36 1.65 42.59H447Z" class="cls-7"/></g><g id="_04_foxShadow"><path d="M447 1103.5c1.13-10.14 2.15-20.24 2.91-30.42.26-3.43 3.92-24.37-.8-23.97 99.79-29.18 197.5-64.28 296.07-96.83-3.82 2.24-4.65 2.2-4.15 6.57.64 5.65 1.56 11.17 1.99 16.86.41 5.45 1.43 10.81 2.41 16.18.52 2.84 3.54 13.4 1.81 15.94-1.65 2.42-9.96 3.37-12.84 4.3-6.26 2.02-12.52 4.03-18.78 6.05-11.87 3.83-23.75 7.66-35.62 11.49-49.25 15.89-98.51 31.78-147.76 47.66-13.62 4.39-27.25 8.8-40.88 13.18-13.08 4.2-27.98 7.04-40.35 12.98h-4ZM488.17 922.98c-10.32 3.04-20.65 6.01-30.98 9.01-3.18.92-11.88 5.32-14.89 3.72-3.1-1.64-4-11.58-4.48-14.63-1.7-10.76-1.19-19.95 3.8-29.75 2.19-4.3 4.75-8.34 7.56-12.26 2.8-3.93 6.88-7.64 7.21-12.57.28-4.12-1.61-6.08-2.23-9.61-.79-4.48.32-10.37.35-14.98.07-12.23.07-24.49.67-36.7 1.15-23.1 5.71-46.29 8.94-69.17 1.87-13.24 3.55-26.51 5.6-39.73.97-6.29 2.15-12.49 3.74-18.66 1.27-4.95 2.75-14.72 7.47-17.71.28 1.99 3.36 1.75 4.62 2.89 2.34 2.13 1.86 4.57 1.78 7.44-.18 6.34-.78 12.7-1.17 19.03-.85 13.65-1.63 27.29-2.23 40.95-1.23 28.35-1.15 56.69-.94 85.05.05 7 .11 13.99.18 20.99.04 4.49-.21 19.04-.21 19.04-2.08 3.31-8.98 4.08-12.46 6.01-2.83 1.57-11.09 6.21-11.69 9.73-.3 1.77-.19 8.34.59 10.87 8.61 28.06 18.81 34.57 28.78 41.05ZM684.64 864.23c-18.19 5.73-36.43 11.33-54.61 17.1-3.65 1.16-6.45 2.96-9.55.25-2.51-2.19-3.53-6.44-3.48-9.57.13-8.39-2.78-14.96.95-23.26 1.94-4.33 3.79-8.69 5.55-13.1 1.34-3.36 1.69-7.31 5.76-6.13 3.52 1.02 5.12 6.24 6.71 8.99 1.75 3.02 3.86 5.83 6.32 8.31 4.84 4.88 10.88 8.37 17.29 10.79 8 3.01 17.42 3.08 25.06 6.62ZM575.85 630.47c-.32 25.69-.55 51.37-.99 77.06-.22 12.73-.65 25.47-1.26 38.19-.36 7.6-1.59 15.28-13.55 17.06-8.04 1.22-3.49-6.61-3.02-11.26.63-6.28 1.3-12.56 1.95-18.85 1.26-12.1 2.43-24.19 3.28-36.32.85-12.13 1.28-24.21 3.74-36.16 1.99-9.64 4.19-21.46 9.85-29.71ZM537.15 874.64l.24-2.83c5.91 2.05 10.96 4.51 17.25 5.53a610.92 610.92 0 0 0 22.93 3.27c7.17.89 14.38 1.91 21.61 1.72 5.81-.15 14.51-1.78 19.18 2.31-9.16 4.43-20.4 6.33-30.16 9.21-10.35 3.05-20.7 6.12-31.06 9.15-4.71 1.38-9.41 2.89-14.15 4.13-6.29 1.64-3.99-.78-4.49-5.95-.36-3.82-1.82-7.53-2.12-11.45-.39-5.1.5-10.01 1-15.07-.07 0-.15-.01-.22-.02Z" class="cls-5"/></g><g id="_05_foxWhite"><path d="M491.5 1103.5c1.27-13.24 2.59-26.47 4.13-39.68.73-6.31 2.37-21.82 3.37-28.82 1.78-2.74 4.69-2.26 7.87-3.03 12.83-3.13 25.51-8.4 38.08-12.52 13.96-4.57 27.93-9.11 41.84-13.85 26.27-8.95 52.29-17.9 79.21-24.6 6.72-1.67 34.16-11.99 35.51-11.26 1.49 9.26 4.03 32.22 5.06 39.61 4.37 31.29 5.01 62.62 5.43 94.15H491.5ZM624.32 883.04c-9.75 2.95-19.51 5.86-29.27 8.76-5.32 1.58-10.66 3.14-15.97 4.76-2.26.69-4.63 1.7-6.96 2.11-1.87.33-7.88 1.79-8.88 2.39-1.9 1.15-5.14 1.58-7.28 2.22-4.05 1.21-8.11 2.39-12.17 3.55-4.94 1.41-2.67-16.38-4.79-21.83-1.86-4.79-6.95-13.09-10.19-16.3-5.25-5.2-4.51-12.5-1.08-18.42 8.46-14.63 22.82-26.64 40.04-27.65 9.38-.55 18.93 1.07 27.96 3.56 4.58 1.27 9.31 2.69 13.55 4.88 1.32.68 2.67 1.44 3.88 2.31 1.8 1.3 5.19 2.8 6.84 3.61 2.61 1.28 4.4-3.07 6.1-5.44 2.39-3.33 4.8-6.66 7.73-9.54 6.27-6.14 14.43-12.17 22.81-15.03 5.11-1.75 10.48-2.01 15.84-2.2 2.18-.08 4.41-.25 6.58-.17 5.67.21 1 .45 4.56 1.64 8.32 2.78 18.55 3.36 26.19 8.2 7.19 4.56 13.35 13.84 16.93 21.32 1.37 2.87 2.02 9.37 4.03 11.33 2.31 2.26-67.14 24.03-106.44 35.94ZM652.5 665.5c12.15 12.21 5.52 34.58 8.79 49.68 1.21-2.26 2.79-7.51 5.87-8 3.02-.48 6.64 4.75 7.89 6.92 4.56 7.94 3.01 18.76 2.83 27.51-.12 5.7-.22 11.44-.71 17.12-.29 3.37-.54 13.36-3.29 15.97-2.76 2.61-4.22-.95-5.93-4.05-2.66-4.82-4.15-10.42-6.1-15.54-3.5-9.18-10.07-16.26-13.98-25.13-1.73-3.91-2.44-8.65-5.27-11.96-3.23-3.77-5.99-5.88-8.34-10.66-1.76-3.57-2.14-8.07-.3-11.92.83-1.72 1.63-6.16 2.04-8.44.84-4.69 2.12-7.17 4.02-11.75 1.5-3.6 3.05-6.02 3.98-9.25 1.67 0 6.83-.5 8.5-.5Z" class="cls-8"/></g><g id="_06_foxWhiteShadow"><path d="M422.5 798.5c.48-2.07.68-4.27 1.52-6.19 1.22-2.81 2.96-5.39 4.35-8.14.37-.74.5-1.79.3-2.59-2.42-9.72-4.61-19.58-3.07-29.57 1.15-7.45 3.09-15.01 10.55-19.18.67-.38 2.24-.24 2.71.27 3.7 4.06 7.59 8.03 10.71 12.52 2.66 3.84 4.25 8.4 6.58 12.5 1.05 1.85 2.77 3.3 4.07 5.02.45.59.83 1.45.78 2.16-1.75 26.24-3.45 52.48-5.46 78.69-.34 4.4-1.81 8.75-3.11 13.01-.75 2.47-2.6 3.12-4.73 1.12-2.24-2.1-4.95-3.89-6.59-6.38-4.5-6.85-8.85-13.83-12.7-21.06-3.59-6.75-5.19-14.19-5.44-21.87-.01-.45-.3-.89-.46-1.33v-9ZM493.04 1087.53c1.5-13.83 2.88-27.57 4.53-41.28.47-3.91.43-7.25 1.43-11.25.24-.94 3.39-1.94 4.63-2.25 21.07-5.22 41.34-12.98 62.02-19.4 25.24-7.84 50.15-16.78 75.45-24.4 16.86-5.08 53.48-17.98 55.9-18.95 5-2 4.77-.77 5.16 2.84C705 989 706 1003 707.72 1018.16c.11.83.21 1.96.26 2.51.02.2-.09.38-.28.46-.5.21-1.53.64-2.34.9-50.62 16.29-101.21 32.66-151.81 49-19.25 6.21-38.51 12.37-57.75 18.61-1.58.51-3.79 2.36-2.75-2.11ZM684.88 864.69c-13.61 4.24-26.53 8.27-39.45 12.3-6.98 2.18-13.94 4.43-20.97 6.44-1.03.29-8.23-8.74-7.07-13.84.46-2.04-.52-4.56-1.29-6.7-1.22-3.4 6.55-23.96 9.7-31 1.37-3.06 3.2-7.79 5.21-5.89 1 5 2.23 7.3 2.77 8.55 6.05 14.01 17.42 21.43 31.49 25.4 6.21 1.75 12.55 3.04 19.62 4.73ZM537.78 904.8c.41-3.33.86-6.59 1.16-9.86.07-.76-.17-1.66-.57-2.32-2.44-4.01-2.87-8.18-1.61-12.71.52-1.88-3.11-9.59-1.77-8.92 13.74 6.88 32.92 9.03 47.68 10.84 9.02 1.11 18.25.39 27.38.71 2.42.09 6.56-.15 8.94.45.4.1-1.04 1.75-.7 2.09-.39.24-.75.59-1.18.72-15.77 4.7-31.53 9.38-47.32 14.02-.75.22-6.07 1.77-6.67 1.94-7.57 2.23-15.13 4.5-22.74 6.59-3.99 1.09-1.32-2.55-2.6-3.56Z" class="cls-6"/></g><g id="line02_fox"><path d="M597.65 645.26c6.61 8.66 13.09 17.43 19.34 26.35 4.84 6.91 9.23 14.14 13.99 21.47 1.07-4.18 1.99-8.17 3.13-12.09 1.9-6.52 4.17-12.81 9.7-17.4 3.17-2.63 7.21-2.74 10.16 1.61 5.19 7.66 7.22 16.4 8.63 25.32.68 4.31.92 8.68 1.46 13.01.04.31 1.13.87 1.45.72 4.55-2.16 5.73-1.25 9.05 2.43 5.87 6.5 5.82 14.36 6.06 22.09.28 9.12.18 18.3-.56 27.39-.48 5.97-2.46 11.81-3.59 17.75-.29 1.51-.32 3.34.27 4.7 3.54 8.15 7.26 16.23 11.06 24.26.42.88 1.7 1.69 2.7 1.89 8.92 1.77 17.76 3.9 24.57 10.38 3.79 3.6 7.33 7.64 10.19 12 3 4.56 5.21 9.67 7.43 14.69.9 2.03 1 4.45 1.27 6.71.04.34-.96 1.19-1.42 1.15-1.07-.1-2.67-.29-3.05-.98-1.39-2.6-2.34-5.42-3.5-8.14-3.6-8.45-8.61-15.98-15.64-21.9-2.66-2.24-6.14-3.6-9.37-5.07-8.47-3.84-17.68-4.04-26.67-4.37-16.07-.58-29.75 5.61-39.99 17.92-4.34 5.22-7.38 11.72-10.13 18.02-2.3 5.29-3.56 11.09-4.84 16.76-1.4 6.24.18 11.95 4.21 16.98.4.5.69 1.81.46 1.98-.71.53-1.83 1.14-2.56.93-3.46-1-9.09-8.47-8.79-12.13.4-4.84 1.06-9.72 2.2-14.43 1.15-4.73 2.98-9.3 4.62-13.9.43-1.21.49-1.54-.95-1.98-1.59-.48-3.19-1.48-4.39-2.65-5.88-5.74-13.2-8.4-21.02-9.62-7.82-1.22-15.73-2.29-23.62-2.46-7.4-.15-14.28 2.34-20.63 6.52-5.57 3.66-11.2 7.21-14.96 12.76-2.72 4.03-4.72 8.56-6.86 12.96-.3.61.17 1.98.73 2.57 8.95 9.35 13.29 20.65 14.01 33.4.32 5.7.23 11.43.16 17.14 0 .83-4.3 2.42-4.44.14-.35-5.83-.96-11.64-1.55-17.45-1.24-12.17-4.95-23.39-14.92-31.15-3.6-2.8-8.62-3.85-13.07-5.47-5.84-2.12-11.53-.61-17.29.88-7.64 1.97-14.98 4.59-21.73 8.69-8.47 5.15-16.2 11.21-20.86 20.19-3.52 6.78-5.54 14.04-6.24 21.78-.85 9.34 1 18.04 4.42 26.59.27.68.12 1.97-.36 2.41-.86.79-1.87 1.19-3.19.01-3.4-3.04-4.38-7.25-5.33-11.23-2.57-10.71-1.91-21.49 1.3-31.95 2.5-8.13 6.64-15.48 12.7-21.64.56-.57.75-1.59.91-2.45.17-.87.14-1.78.12-2.67-.08-2.71-.03-4.98-3.5-6.45-6.4-2.7-10.5-8.44-14.49-13.81-6.22-8.37-11.03-17.57-13.18-27.91-1.6-7.7-1.79-15.51-.46-23.27.72-4.25.94-9.23 3.34-12.39 3.4-4.49 1.18-8.28.65-12.3-1.01-7.68-1.49-15.28-.43-23.03.66-4.81 1.38-9.49 4.12-13.53 3.37-4.98 10.58-6.9 15.54-.66 5.84 7.35 10.45 15.34 14.32 24.37 1-8.58 1.78-16.76 2.96-24.89 1.53-10.49 3.17-20.99 5.19-31.39 2.43-12.51 5.29-24.93 8.02-37.38.35-1.59 1.03-3.64 1.62-4.45 1.86-2.57 4.45-3 7.82-2.06 4.58 1.29 6.61 4.8 8.75 8.14 8.49 13.28 17.05 26.54 24.91 40.19 5.61 9.75 10.1 20.15 15.18 30.22 3.97 7.87 8.03 15.69 12.16 23.47.31.59 1.56 1.13 2.24 1 1.93-.37 4.39-.56 5.52-1.83 1.26-1.41 1.67-3.91 1.78-5.97.36-6.49.19-13.01.64-19.49.67-9.68 1.61-19.34 2.59-28.99 1.34-13.11 2.53-26.24 4.33-39.29 1.39-10.02 3.47-19.96 5.6-29.87.51-2.37 2.22-4.6 3.78-6.57.62-.78 2.55-2.52 6.55-2.02s14.19 11.61 19.65 18.76Zm-53.76 182.46c.21-.13.53-.37.88-.54 4.79-2.29 9.38-5.32 14.43-6.64 5.27-1.37 10.97-1.08 16.48-1.51 1.4-.11 2.09-.47 1.63-2.18-.76-2.86-1.33-5.79-1.68-8.72-.13-1.06.31-2.46 1-3.28 2.51-3.04 7.09-2.23 8.76 1.41 1.81 3.97 2.78 8.05 2.55 12.34-.08 1.44.15 1.83 1.54 1.97 11.91 1.27 22.35 6.05 31.48 13.69 1.12.93 1.19.93 2.02-.29 3.47-5.09 6.71-10.47 10.88-14.94 5.74-6.14 13.3-9.81 21.21-12.57 7.97-2.79 16.24-3.3 24.58-2.75 2.13.14 2.03-.55 1.38-1.95-3.13-6.77-6.2-13.57-9.44-20.28-4.07-8.45-8.28-16.83-12.44-25.24-4.16-8.4-8.18-16.88-12.59-25.15-3.4-6.39-7.19-12.59-11.02-18.74-8.71-13.98-17.34-28.02-26.41-41.77-5.53-8.39-11.64-16.43-17.83-24.37-3.39-4.35-7.46-8.18-11.31-12.16-.71-.74-1.99-2.07-3.99-2.07s-2.2 2.85-2.81 4.48c-1.24 3.3-1.77 6.89-2.44 10.38-.57 2.98-.95 6-1.37 9.01-1.56 11.26-3.42 22.49-4.58 33.79-1.71 16.7-2.99 33.45-4.28 50.19-.54 7-.59 14.05-.95 21.06-.04.77-.72 2.19-.95 2.16-2.63.92-5.24 1.52-7.8 2.37-6.39 2.12-12.74 4.38-19.05 6.71-3.78.84-2.79-2.46-2.33-3.27 2.55-1.88 3.25-2.43 8.55-4.88 2-1 1.93-1.51 1.34-2.65-1.26-2.41-2.6-4.79-3.83-7.21-3-5.89-6-11.77-8.94-17.69-3.87-7.79-7.34-15.81-11.62-23.37-5.69-10.04-11.85-19.82-18.1-29.53-4.25-6.6-8.98-12.89-13.56-19.26-.44-.61-1.52-1.34-2.01-1.17-.63.22-1.22 1.23-1.39 2-1.52 6.89-3.05 13.78-4.39 20.7-2.22 11.48-4.51 22.95-6.39 34.48-1.63 10.05-2.76 20.18-4.05 30.28-1.15 9-2.59 17.98-3.26 27.01-1.07 14.49-1.72 29.02-2.35 43.53-.6 13.82-.97 27.64-1.41 41.47-.03.87.22 1.76.33 2.63.86-.38 1.82-.62 2.56-1.16 6.32-4.67 13.17-8.45 20.71-10.49 6.8-1.84 13.82-2.88 20.78-4.07 1.74-.3 3.73-.2 5.4.33 4.26 1.35 8.41 3.09 12.63 4.56.44.15 1.44-.28 1.66-.71 1.28-2.44 2.14-5.14 3.65-7.42 2.44-3.69 5.32-7.09 7.88-10.71.51-.72.8-2.03.51-2.81-1.73-4.66-2.5-9.37-.55-14.07.57-1.37 2.07-2.87 3.44-3.26 1.98-.57 3.5 1.4 4.13 2.91 1.23 2.96 1.83 6.18 2.73 9.4ZM426.22 813.2c.51 5.95 3.21 11.55 5.53 17.03 4.16 9.83 10.51 18.15 19.15 24.59 1.19.88 1.56.52 1.55-.81 0-2.15-.03-4.3.06-6.44.61-13.84 1.17-27.69 1.9-41.53.52-9.83 1.35-19.64 1.88-29.47.25-4.63 1.91-9.21-1.44-13.81-2.71-3.73-3.89-8.53-6.24-12.57-2.59-4.45-5.58-8.7-8.69-12.82-2.76-3.65-5.48-3.17-7.47 1.01-.35.74-.68 1.52-.89 2.31-3.82 13.9-2.37 27.69 1.75 41.15 2.69 8.78 6.65 17.17 9.96 25.76.2.52-.19 1.64-.66 1.96-1.86 1.27-4.91-.22-6.17-3.2-2.41-5.68-4.6-11.46-6.93-17.17-.25-.61-.84-2.14-1.18-1.67s-.64 1.13-.71 1.72c-.81 7.05-2.63 9.75-1.41 23.96Zm236.9-96.99c-.68 1.56-2.95 1.45-3.48-.16-.26-.77-.45-1.51-.54-2.27-.84-7.15-1.24-14.35-2.13-21.49-.87-7.05-2.35-14.01-5.69-20.38-.33-.63-.7-1.23-1.1-1.82-1.07-1.6-3.39-1.74-4.66-.3-.58.66-1.12 1.34-1.55 2.08-4.31 7.46-6.07 15.76-7.44 24.14-.5 3.05-.73 5.9 1.27 8.94 4.8 7.29 9.32 14.8 13.44 22.49 5.03 9.38 9.54 19.04 14.26 28.59 2.06 4.15 4.08 8.32 6.12 12.49 1.51-6.33 2.89-12.62 3.28-18.97.47-7.56.38-15.19-.03-22.76-.25-4.54.08-6.32-.89-10.8-.53-2.45-2.78-6.84-5-7-2.17-.16-4.18 2.26-4.71 4.12-.29 1.02-.69 2.02-1.16 3.09ZM747.5 1103.5l-.75-35.95c-.25-11.86-.21-23.73-.83-35.57-.61-11.63-1.56-23.27-2.97-34.83-1.62-13.32-3.91-26.57-5.92-39.84-.05-.32-.18-.63-.28-.94-.4-1.3-.52-2.68 1.2-2.84.87-.09 2.29.43 2.67 1.11 1.15 2.06 2.33 4.25 2.74 6.53 1.78 9.71 3.61 19.43 4.83 29.23 1.33 10.75 2.29 21.57 2.89 32.39.75 13.42 1.01 26.87 1.42 40.31.36 11.9.62 23.8.95 35.69.01.41.36.81.56 1.21.65 2.98-.51 4.1-3.51 3.53-.97-.18-1.99-.03-2.99-.03ZM443 1103.5c1.31-11.35 2.59-22.71 3.96-34.06.88-7.29 1.86-14.57 2.88-21.84.08-.59.84-1.56 1.23-1.54.86.04 1.96.39 2.48 1.02 2.1 2.52 1.02 5.47.72 8.25-1.11 10.43-2.31 20.85-3.46 31.28-.62 5.63-1.21 11.26-1.82 16.89h-6Z" class="cls-1"/><path d="M551.76 861.97c-2.76.03-9.43-.93-12.09-2.95s-2.48-2.93-3.38-4.57c-.23-.42.77-2.15 1.37-2.25 2.1-.35 2.67-.28 4.34 1.8 1.54 2.08 4 3 14 3 8.61-.86 17.15-6.22 24.5-10.47 4.53-2.61 7.02-3.82 11.5-6.53.29-.18 2-1 2.51-2.58.57-1.76.22-3.71.53-5.54.1-.58-.05-.88 1.38-1.44 1.52-.6 2.01.66 2.24 1.32 2.21 6.11 1.73 9.89-4.27 13.25-8.08 4.51-16.04 9.38-24.53 12.94-5.72 2.4-15.34 3.99-18.1 4.02ZM567 827c2.08-.25 5.38-1.15 6.66 1.56 1.75 3.69.47 4.59-2.09 7.51s-3.75 3.92-6.66 4.92-8.91 0-13.66-1.39c-1.01-.3-2.52-2.11-2.47-3.16.07-1.43 1.09-3.28 2.29-4.11 5.3-3.69 13.86-5.08 15.93-5.33ZM654.49 844.32c-.92 7.8-1.79 14.95-2.59 22.1-.3 2.7-.7 2.88-.91 5.58-.12 1.57-5.02 2.98-4.96 2.1.5-8.05 1.24-16.08 2.1-24.1.34-3.16 1.12-6.28 1.8-9.4.11-.52.82-1.22 1.09-1.31.96-.29 2.15.49 2.45 1.14.65 1.38.8 3 1 3.88ZM469.48 928.77c.02.43-1.01 1.16-1.65 1.31-.84.19-1.73 1.41-2.72-.27-2.72-4.62-2.26-9.76-2.48-14.71-.23-5.19.29-10.42.64-15.62.06-.83.76-2.08 1.44-2.32 1.41-.48 2.77.02 3.17 1.77.29 1.28-.14 7.86.12 11.07s1.05 10.13 1.48 18.77ZM507.19 894.45c-.86 3.31-1.63 5.84-2.16 8.41-1.31 6.28-2.48 12.59-3.81 18.87-.14.65-1.15 1.73-1.37 1.64-1.01-.4-2.33-.94-2.72-1.8-1.83-3.96-.19-7.93.58-11.8 1.03-5.22 2.58-10.33 3.85-15.5.46-1.9 1.16-3.88 3.44-3.02 1.13.43 1.68 2.38 2.21 3.2ZM686.54 860.36c0 .61-3.99 3.9-4.54 3.64-1.8-.86-1.59-4.24-1.64-6.54-.14-7.14-.24-14.28-.26-21.42 0-.66.62-1.89.95-1.89.95.01 2.28.22 2.77.87 2.32 3.07 2.36 6.76 2.36 10.42v3.22c-.08 0 .38 7.8.36 11.7Z" class="cls-1"/></g><g id="line01_clockBlue"><path d="M104.5 837.5c.29-2.77.72-5.53.84-8.3.32-7.21.36-14.44.78-21.64.52-8.72 1.17-17.45 2.02-26.15 1.7-17.5 3.05-35.05 5.54-52.44 1.62-11.31 5.11-22.35 7.59-33.55 1.5-6.77 2.56-13.65 4.03-20.43 1.92-8.86 3.91-17.71 6.14-26.49 2.02-7.95 4.21-15.87 6.68-23.69 4.11-13 8.39-25.95 12.83-38.84 3.69-10.72 7.56-21.39 11.65-31.97 5.06-13.1 10.13-26.22 15.76-39.08 5.39-12.33 11.43-24.38 17.33-36.48 5.22-10.71 10.5-21.39 16.03-31.94 3.22-6.14 6.88-12.06 10.55-17.94 6.52-10.46 12.96-20.99 19.89-31.18 6.35-9.35 12.88-18.63 20.07-27.34 13.12-15.89 26.6-31.49 40.28-46.9 7.16-8.06 15.09-15.43 22.64-23.14 5.48-5.6 10.7-11.47 16.38-16.85 9.35-8.85 18.8-17.62 28.57-26 11.61-9.95 23.49-19.59 35.47-29.11 7.03-5.59 14.29-10.93 21.76-15.91 13-8.66 26.07-17.25 39.45-25.32 10.52-6.35 21.53-11.91 32.36-17.74 6.22-3.35 12.43-6.74 18.81-9.76 10.76-5.08 21.62-9.97 32.51-14.76 11.54-5.08 23.08-10.16 34.78-14.85 8.88-3.56 17.95-6.71 27.06-9.66 11.55-3.74 23.15-7.4 34.88-10.51 16.4-4.35 32.89-8.41 49.45-12.1 8.3-1.85 16.84-2.69 25.3-3.8 10.08-1.32 20.17-2.57 30.28-3.6 8.21-.84 16.46-1.23 24.67-1.99 7.79-.71 15.55-1.8 23.34-2.41 8.69-.68 17.4-1 26.1-1.52 1.73-.1 3.45-.41 5.17-.62h32c.19.21.44.62.57.59.34-.1.63-.38.93-.59h2c1.41.27 2.82.71 4.24.77 13 .48 26.01.66 39 1.39 11 .63 21.96 1.85 32.94 2.87 7.52.7 15.05 1.37 22.55 2.27 7.55.91 15.08 2 22.59 3.16 10.42 1.61 20.9 3.01 31.22 5.13 15.13 3.12 30.17 6.71 45.19 10.36 2.07.5 3.82 2.41 5.59 3.84.14.11-.76 2.23-1.19 2.23-5.44.07-11.01.62-16.31-.32-12.28-2.18-24.38-5.35-36.63-7.67a997.47 997.47 0 0 0-40.63-6.8c-9.54-1.39-19.18-2.19-28.79-3.12-13.16-1.26-26.32-2.55-39.5-3.52-8.94-.66-17.91-.84-26.87-1.12-10.84-.33-21.7-.32-32.53-.83-14.46-.68-28.68 1.46-42.97 2.96-6.86.72-13.8.67-20.69 1.12-8.3.54-16.6 1.12-24.88 1.89-8.66.81-17.32 1.75-25.95 2.83-10.03 1.25-20.11 2.34-30.04 4.17-13.38 2.47-26.78 5.04-39.91 8.57-16.66 4.48-33.13 9.73-49.52 15.12-10.35 3.41-20.5 7.48-30.58 11.64-15.66 6.47-31.31 12.97-46.71 20.02-12.15 5.57-24.04 11.76-35.82 18.09-13.57 7.29-27.06 14.76-40.29 22.66-10.26 6.13-20.37 12.62-29.99 19.7-15.6 11.48-31.1 23.16-46 35.53-13.2 10.95-25.64 22.83-38.19 34.54-7.35 6.85-14.4 14.04-21.33 21.32-9.38 9.85-18.69 19.78-27.71 29.96-7.72 8.72-15.21 17.66-22.4 26.82-6.19 7.89-11.81 16.21-17.67 24.36-5.68 7.89-11.52 15.68-16.95 23.74-4.4 6.52-8.62 13.21-12.37 20.12-9 16.61-17.85 33.32-26.43 50.15-5.12 10.06-9.92 20.31-14.31 30.71-6.34 15.01-12.29 30.18-18.18 45.37-4.45 11.47-8.9 22.97-12.75 34.66-5.08 15.42-9.67 31.01-14.25 46.59-2.66 9.03-5.17 18.12-7.26 27.3-2.36 10.41-4.04 20.97-6.26 31.41-.96 4.51-2.74 8.84-3.77 13.33-1.41 6.1-2.77 12.25-3.58 18.45-1.32 10.05-2.32 20.15-3.21 30.25-.82 9.24-1.3 18.51-1.95 27.77-.52 7.36-1.22 14.72-1.55 22.09-.46 10.64-.79 21.29-.93 31.94-.15 12.08-.26 24.17.05 36.24.28 10.8.79 21.62 1.86 32.37 1.28 12.93 3.3 25.79 4.91 38.69.96 7.69 1.56 15.42 2.66 23.08 1.02 7.11 2.52 14.16 3.73 21.25 1.33 7.79 2.42 15.63 3.91 23.39 1.6 8.35 3.46 16.66 5.37 24.95 1.7 7.38 3.34 14.8 5.48 22.06 3.25 11.04 6.86 21.98 10.44 32.93.8 2.44.69 3.33-2.3 3.25-6.21-.17-6.18 0-7.97-5.91-3.01-9.95-6.38-19.8-9.01-29.85-3.17-12.11-5.84-24.35-8.52-36.58a651.23 651.23 0 0 1-5.4-27.29c-1.43-8.14-2.51-16.35-3.66-24.53-1.27-9.09-2.47-18.19-3.65-27.29-.99-7.62-2.03-15.24-2.85-22.88-1.22-11.4-2.39-22.82-3.33-34.25-.39-4.73-.12-9.51-.2-14.26 0-.58-.3-1.16-.46-1.73v-43.5ZM437.02 1052.25c-12.38-.03-21.85-1.74-30.7-5.96-6.16-2.93-11.53-6.98-15.43-12.76-2.25-3.33-5.21-6.28-6.91-9.85-2.02-4.24-3.97-14.68-4.75-17.58-3.63-8.62-1.62-17.16 1.16-25.29 6.06-17.7 19.1-28.96 36.17-35.26 17.47-6.45 35.28-12.01 53.01-17.75 18.03-5.83 36.14-11.46 54.24-17.08 12.3-3.82 24.72-7.29 36.98-11.24 17.54-5.64 34.95-11.68 52.48-17.35 15.99-5.17 32.05-10.09 48.11-15.05 15.99-4.94 32.01-9.77 48.01-14.69 14.23-4.38 28.43-8.82 42.65-13.22 10.97-3.39 21.95-6.76 32.94-10.09 4.8-1.45 9.62-2.81 14.45-4.17 1.78-.5 2.84-1.36 3.24-3.38 1.78-8.97 3.7-17.92 5.68-26.85 2.94-13.27 6.13-26.48 8.94-39.77 3.51-16.6 6.64-33.28 10.13-49.88 4.91-23.32 10.18-46.57 14.95-69.92 3.48-17.07 6.26-34.28 9.61-51.38 3.4-17.31 7.14-34.54 10.7-51.82 3.91-18.97 7.87-37.93 11.65-56.92 3.87-19.44 7.45-38.93 11.33-58.36 3.04-15.28 6.21-30.53 9.56-45.74 2.82-12.8 6.26-25.47 8.9-38.3 1.67-8.12 3.15-16.24 7.33-23.48 6.82-11.83 14.58-22.95 27.6-28.73 8.22-3.65 16.88-4.9 25.92-3.01 3.11.65 6.47.04 9.69.33 6.46.58 11.86 3.87 17.1 7.34 7.81 5.18 12.38 12.78 15.75 21.33 3.09 7.82 4.23 15.86 3.97 24.2-.45 14.79-3.02 29.29-5.94 43.74-2.77 13.7-5.51 27.4-8.35 41.08-3.04 14.67-6.21 29.32-9.28 43.99-3.09 14.76-6.1 29.53-9.17 44.29-3.63 17.47-7.37 34.92-10.9 52.42-3.54 17.51-6.85 35.06-10.33 52.58a4580.81 4580.81 0 0 1-8.46 41.64c-2.71 13-5.67 25.94-8.28 38.96-2.09 10.41-3.73 20.92-5.78 31.35-1.55 7.9-3.52 15.72-5.15 23.61-2.66 12.85-5.19 25.72-7.79 38.58-2.24 11.1-4.49 22.19-6.76 33.28-3.32 16.15-6.53 32.31-10.06 48.41-1.59 7.22-2.64 14.76-7.19 20.94-8.96 12.17-18.47 23.85-32.44 30.69-7.57 3.7-15.12 7.63-23.04 10.42-15.68 5.51-31.57 10.43-47.45 15.35-18.34 5.68-36.82 10.91-55.13 16.66-21.26 6.68-42.39 13.79-63.63 20.57-22.2 7.08-44.48 13.89-66.67 20.98-11.85 3.79-23.58 7.92-35.37 11.89-11.5 3.87-22.98 7.81-34.51 11.58-13.43 4.4-26.86 8.81-40.38 12.92-16.18 4.92-32.39 9.73-48.72 14.13-5.2 1.4-10.8 1.31-13.66 1.62Zm2.82-5.51c4.42-.74 11.03-1.37 17.37-3.03 10.4-2.73 20.65-6.03 30.91-9.26 15.37-4.84 30.71-9.75 46.02-14.77 16.53-5.43 32.99-11.07 49.51-16.53 14.05-4.64 28.12-9.19 42.22-13.69 16.42-5.24 32.88-10.32 49.29-15.59 12.7-4.08 25.29-8.51 38.02-12.51 20.44-6.42 40.95-12.62 61.43-18.91 12.43-3.82 24.9-7.53 37.28-11.51 16.41-5.28 33.6-8.58 48.4-18.04 7.55-4.82 15.56-9.43 21.8-15.68 9.12-9.13 14.33-20.98 17.37-33.56 2.29-9.45 4.22-18.99 6.2-28.52 2.82-13.55 5.54-27.13 8.3-40.69 2.91-14.29 5.75-28.6 8.75-42.88 4.36-20.75 8.97-41.46 13.23-62.23 3.58-17.45 6.73-35 10.23-52.47 4.16-20.76 8.56-41.48 12.72-62.25 2.86-14.27 5.4-28.6 8.26-42.87 3.35-16.74 6.87-33.44 10.35-50.15 3.06-14.68 6.04-29.37 9.28-44.01 1.78-8.05 4.38-15.92 6.03-23.99 3.39-16.58 6.62-33.21 9.46-49.89 2.09-12.28 5.54-24.4 3.94-37.17-.96-7.64-1.75-15.11-5.53-22.08-4.57-8.43-10.42-15.49-19.34-19.28-11.52-4.9-23.53-4.35-35.32-1.33-12.65 3.25-20.05 13.09-26.94 23.28-7.42 10.97-9.42 23.84-12.37 36.3-3.28 13.84-5.76 27.87-8.64 41.8-2.29 11.07-4.71 22.11-6.99 33.18-3 14.5-5.92 29.02-8.88 43.52-3.03 14.83-6.14 29.64-9.09 44.48-2.89 14.57-5.51 29.19-8.47 43.74-2.55 12.55-5.56 25.01-8.06 37.57-2.22 11.18-3.82 22.48-6.06 33.65-2.87 14.27-6.14 28.46-9.18 42.7-2.75 12.85-5.52 25.7-8.1 38.59-2.17 10.84-3.93 21.76-6.15 32.59-2.61 12.76-5.46 25.47-8.28 38.19-3.9 17.61-7.87 35.21-11.8 52.82-.43 1.91-1.04 2.91-3.45 3.54-11.93 3.13-23.76 6.68-35.57 10.26-16.3 4.94-32.55 10.06-48.83 15.07-14.56 4.48-29.15 8.87-43.71 13.36-19.19 5.93-38.4 11.8-57.52 17.92-22.19 7.1-44.28 14.54-66.46 21.67-14.2 4.56-28.5 8.83-42.75 13.23-17.96 5.55-35.94 11.03-53.87 16.66-9.62 3.02-19.38 5.77-28.68 9.59-10.13 4.16-20.16 8.26-28.46 16.37-14.72 14.4-17.4 31.53-11.9 49.34 1.65 5.34 4.86 10.28 7.92 15.06 2.01 3.15 4.69 6.07 7.63 8.39 10.64 8.42 23.24 10.13 38.48 10.01Z" class="cls-3"/><path d="M1066.47 198.87c-7.11-1.7-14.18-3.65-21.36-5.06-20.73-4.06-41.43-8.31-62.27-11.71-16.12-2.63-32.4-4.38-48.66-6.03-15.46-1.57-30.97-2.97-46.49-3.61-21.89-.89-43.8-1.28-65.71-1.32-8.93-.02-17.87 1.37-26.8 2.21-8.59.81-17.19 1.56-25.75 2.65-13.82 1.76-27.81 2.85-41.35 5.9-20.46 4.6-40.68 10.34-60.85 16.15-15.87 4.57-31.64 9.6-47.21 15.12-14.49 5.14-28.95 10.57-42.88 17.04-19.6 9.11-39.28 18.32-57.87 29.29-19.91 11.75-38.8 25.29-57.72 38.64a494.81 494.81 0 0 0-36.03 28.02c-16.07 13.73-32.02 27.67-47.07 42.49-9.48 9.33-17.44 20.24-25.67 30.76a619.84 619.84 0 0 0-22.23 30.25c-9.34 13.57-18.61 27.22-27.23 41.25-7.92 12.89-15.21 26.2-22.3 39.58-6.83 12.89-13.27 26.01-19.49 39.21-4.84 10.27-9.27 20.76-13.55 31.28-4.75 11.65-9.53 23.31-13.58 35.21-5.19 15.24-9.94 30.64-14.38 46.11-3.61 12.58-6.56 25.36-9.64 38.08-1.03 4.24-1.44 8.62-2.37 12.89-.83 3.83-2.38 7.55-2.92 11.41-1.4 10-2.64 20.04-3.54 30.09-1.38 15.56-2.8 31.13-3.51 46.73-.76 16.76-1.19 33.56-.89 50.33.3 16.53 1.73 33.04 2.61 49.57.47 8.8.56 17.62 1.28 26.4.84 10.14 2 20.27 3.36 30.36 1.87 13.78 3.57 27.61 6.23 41.25 3.68 18.91 7.67 37.8 12.47 56.45 4 15.54 9.37 30.73 14.05 46.1.11.37-.58 1.37-1.04 1.48-3.13.72-4.78-.43-5.76-3.73-3.56-12.02-8.06-23.78-11.1-35.92-5.23-20.93-10.18-41.96-14.21-63.15-3.36-17.64-5.81-35.51-7.61-53.39-2.04-20.29-3.07-40.68-4.24-61.04-.81-13.99-1.61-28.01-1.54-42.02.08-18.01.74-36.04 1.71-54.03.78-14.45 1.85-28.93 3.76-43.27 2.31-17.3 5.02-34.59 8.71-51.64 3.62-16.74 8.46-33.22 13.19-49.7 3.47-12.09 7.34-24.07 11.52-35.93 3.79-10.76 8.18-21.31 12.42-31.9 2.59-6.48 5.24-12.94 8.13-19.29 4.22-9.25 8.54-18.46 13.07-27.57 5.49-11.04 11.01-22.08 16.96-32.88 7.06-12.82 14.28-25.57 22.01-38 7.43-11.94 15.25-23.66 23.51-35.04 10.34-14.25 20.61-28.64 32.18-41.87 13.16-15.05 27-29.67 41.84-43.05 17.07-15.4 35.24-29.64 53.53-43.61 14.39-11 29.32-21.42 44.66-31.05 16.16-10.14 32.85-19.52 49.78-28.33 22.22-11.58 45.44-21.02 69.15-29.11 18.19-6.2 36.66-11.56 54.95-17.45 4.66-1.5 8.98-4.24 13.7-5.3 18.08-4.04 36.18-8.06 54.42-11.24 15.76-2.75 31.67-4.85 47.6-6.31 13.85-1.27 27.81-1.55 41.73-1.69 15.41-.16 30.84 0 46.23.61 17.52.7 35.07 1.58 52.52 3.27 19.43 1.88 38.81 4.47 58.13 7.28 14.13 2.05 28.18 4.69 42.17 7.57 11.38 2.34 22.61 5.41 33.89 8.21 1.35.34 2.77.8 3.89 1.57 1.15.8 1.98 2.06 2.95 3.11-1.09.4-2.18.81-3.52 1.3Z" class="cls-3"/></g></svg>