<!-- This Source Code Form is subject to the terms of the Mozilla Public
- License, v. 2.0. If a copy of the MPL was not distributed with this
- file, You can obtain one at http://mozilla.org/MPL/2.0/. -->
<svg xmlns="http://www.w3.org/2000/svg" id="tabsEmpty" viewBox="0 0 1579 891"><defs><style>.cls-1,.cls-10,.cls-11,.cls-13,.cls-15,.cls-18,.cls-19,.cls-21,.cls-22,.cls-23,.cls-25,.cls-28,.cls-29,.cls-32,.cls-4,.cls-5,.cls-6,.cls-7{stroke-width:0}.cls-4{fill:#5a93fd}.cls-5{fill:#3774fe}.cls-6{fill:#5993fd}.cls-7{fill:#1533fc}.cls-10{fill:#c68638}.cls-11{fill:#c0d3fd}.cls-13{fill:#d05a11}.cls-15{fill:#9dcffe}.cls-18{fill:#93aaf6}.cls-19{fill:#fed8d3}.cls-21{fill:#fecbc5}.cls-22{fill:#feb9af}.cls-23{fill:#fec5bd}.cls-25{fill:#fec7bf}.cls-28{fill:#f1ecf0}.cls-29{fill:#fff}.cls-32{fill:#fe9588}</style></defs><g id="_00_baseMatte"><path d="M187 467c-12.64-11.82-27.42-28.39-38.98-41.33-11.99-13.41-23.9-26.86-35.4-40.7-2.48-2.98-12.95-12.19-11-16.07.6-1.2 50.34-20.4 66.38-25.91 33.74-11.59 67.62-19.66 102-29 16-4.35 31.38-11.01 47.58-14.48 8.22-1.76 10.96.23 16.06 6.71 5.61 7.12 11.28 14.22 16.67 21.51 10.03 13.54 19.39 27.67 29.05 41.49 10.23 14.63 19.38 29.77 29.21 44.6 8.61 12.99 16.53 25.7 23.92 39.37 4.03 7.46 8.04 14.94 12.05 22.42 1.9 3.54 3.79 7.09 5.68 10.64 1.18 2.21 7.11 10.17 6.58 12.87-.54 2.75-1.76.56-3.62 1.24-2.85 1.04-5.16 2.62-8.45 3.45-8.51 2.14-17 4.72-25.44 7.13-17.5 5.01-34.85 11.05-51.93 17.31-2.39.88-19.4 5.64-19.5 8.21-.08 2.03 14.02 15.3 18.14 18.53 13.72 10.73 28.59 21.88 42 33 14.96 12.41 28.38 23.19 43 36 3.95 3.46 5.85 3.83 4.88 8.73-.65 3.28-.63 9.49-3.42 11.74-2.79 2.24-9.35 2.51-12.71 3.38-4.69 1.21-9.36 2.49-14.03 3.81-20.29 5.75-40.49 11.84-60.67 17.99-18.41 5.61-36.86 12.34-55.55 16.87H308c-2.76-4.02-8.76-6.7-12.81-9.85-4.77-3.7-9.41-7.57-14.14-11.31-10.26-8.11-21.66-14.77-32.47-22.13-21.37-14.56-43.81-27.4-65.43-41.57-21.24-13.91-43.81-26.67-66.25-38.57-11.26-5.97-22.5-11.76-33.48-18.25-3.14-1.86-11.2-4.63-12.96-7.74-1.07-1.88-.29-4.66-.64-6.76-.47-2.84 2.68-6.47 2.19-9.32 0-1 107.99-47.51 115-54ZM1087.54 516.89c1.92.22 8.57 2.12 10.49 1.01 1.86-1.08 43.97-61.9 38.94-69.13-1.21-1.73-6.96-3.18-8.95-3.97-4.03-1.6-8.05-3.2-12.08-4.8-8.21-3.25-16.47-6.34-24.7-9.54-15.29-5.95-30.93-10.82-46.27-16.6-7.08-2.67-14.05-5.61-20.89-8.85-3.92-1.85-14.04-4.7-15.32-9.24-.63-2.22 1.49-7.04 2.01-9.19 1.07-4.37 2.13-8.75 3.2-13.12 2.13-8.75 4.24-17.5 6.37-26.24 4.09-16.8 9.58-32.97 15.06-49.35 2.11-6.33 2.12-12.61 4.27-18.91 2.83-8.32 5.56-16.67 8.23-25.04 2.63-8.23 5.41-16.39 8.45-24.48 1.18-3.13 2.48-6.22 3.65-9.35.42-1.14 1.15-2.42 1.26-3.64.11-1.26-.89-2.6-.6-3.67 1.8-6.53 11.75-1.7 15.71-.64 8.35 2.23 16.8 4.11 25.17 6.31 16.09 4.23 32.07 9.08 47.97 13.96 33.26 10.21 66.32 21.93 98.7 34.65 15.54 6.1 30.98 12.45 46.55 18.47 14.91 5.77 29.27 13.03 44.31 18.31 15.7 5.51 30.8 12.43 46.06 19 2.57 1.1 9.14 2.48 11.07 4.67 2.13 2.43-.06 6.2-1.34 8.71-3.41 6.66-9.27 11.9-13.9 17.7-10.15 12.75-19.63 25.98-29.55 38.91-1.26 1.64-6.42 6.21-6.21 8.34.22 2.21 5.97 7.16 7.82 7.85 7.77 2.89 86.03 31.58 116.61 46.05 14.62 6.92 29 15.03 44 21.05 5.21 2.09 9.88 6.44 11.13 12.32 1.33 6.25-8.18 11.08-12.5 14.52-26.44 21.06-53.09 41.69-78.8 63.65-25 21.35-49.67 43.14-72.69 66.66-5.16 5.28-10.25 12.51-16.53 16.47-6.26 3.95-14.73 5.32-21.76 7.32-15.39 4.38-30.26 9.8-45.3 15.19-5.08 1.82-13.24 7.65-18.76 6.49-6.73-1.41-14.48-8.77-20.44-12.19-14.55-8.37-29.75-15.9-44.8-23.32-29.81-14.7-59.22-30.07-89.36-44.13-30.83-14.38-62.06-28.51-93.9-40.52-16.19-6.11-32.43-12.09-48.78-17.76-7.77-2.7-15.56-5.29-23.38-7.83-7.52-2.45-17.98-4.04-24.6-8.4-5.15-3.4-2.32-9.57-.12-14.28 3.01-6.44 157.9 4.73 174.52 6.61ZM349.79 218.81c13.57-6.39 29.15-8.27 43.9-11.17 17.77-3.49 35.65-6.13 53.51-9.06 34.85-5.71 70.02-9.01 105.27-11.14 17.17-1.03 106.75-3.98 107.6-3.03-.19-.21 1.17 6.44 1.3 6.86.39 1.22.73 2.21 1.02 3.49 1.96 8.63 3.36 17.48 4.9 26.2 2.97 16.73 4.95 33.6 7.88 50.33 6.01 34.29 12.6 69.16 15.05 103.91.6 8.51 1.13 17.02 1.69 25.53.13 2.06 1.89 8.56.16 10.29-1.99 1.99-12.5 1.4-15.09 1.69-18.24 2.02-36.22 5.57-54.31 8.6-36.18 6.06-72.36 12.08-107.96 21.09-17.06 4.32-33.62 9.19-50.15 15.18-2.17.79-7.12 3.37-9.15 2.57-2.49-.98-4.13-5.76-5.51-8.04-5.13-8.47-9.76-17.16-14.25-25.98-8.62-16.95-14.49-34.35-21.53-51.96-7.11-17.8-14.75-35.32-22.12-52.99-7.48-17.97-15.35-35.8-23.57-53.44-4.18-8.99-8.31-18-12.47-27.01-2.19-4.74-4.45-9.44-6.73-14.14-1.23-2.54-4.96-7.9.53-7.77Z" class="cls-5"/><path d="M1034.01 194.43c-6.9 33.25-12.6 66.74-20.11 99.87-4.08 17.99-11.53 34.25-18.64 51.24-2.94 7.04-5.4 13.99-7.15 21.42-.93 3.95-1.72 7.93-2.61 11.89-.65 2.91-1.45 12.39-3.42 14.32-2.57 2.52-16.09-3.32-20.23-4.31-8.75-2.08-17.57-3.86-26.29-6.08-8.79-2.24-17.51-4.79-26.31-7.01-3.62-.91-6.27-.58-9.81-.49-3.56.09-4.38-2.46-7.66-4.05-6.96-3.37-16.97-3.58-24.57-4.57-9.08-1.18-18.23-2.01-27.35-2.77-8.95-.74-18.03-.57-26.93-1.66-8.25-1.01-16.29-3.18-24.46-4.63-18.32-3.26-37.12-4.62-55.59-6.86-4.15-.5-8.3-1-12.46-1.48-2.15-.25-4.45-.79-6.61-.56-.86.09-1.53 1.08-2.41 1.11-7.61.24-4.85-15.17-5.64-20.21-2.7-17.26-2.53-34.68-2.74-52.15-.22-18.16-.34-36.31-.41-54.47-.06-17.31-.6-34.5-1.34-51.78-.19-4.41-.08-8.85-.03-13.26.04-3.26-1.38-10.81.16-13.48 2.71-4.68 14.39-.32 19.6-.49 34.19-1.13 68.87-.4 102.89 2.49 37.79 3.21 74.74 13.12 112.11 19.51 19.76 3.38 40.47 6.49 60 11 8.55 1.97 37.64 12.71 38.01 17.43Z" class="cls-5"/></g><path id="_01_deviceMatte" d="M185.72 467.95 72.33 520.32 73 536l83.71 45.92L249 641l62.35 45.04L342 674l49.87-12.47 47.82-15.51 12.84-4.66 1.94-14.85-112.69-89.2L331 540l-32.01 15.36-16.27 4.38L269 563l-4.93 2.25-19.84-24.55L209 496l-23.28-28.05z" class="cls-29"/><path id="_01_deviceMatte-2" d="M1140.84 445 1101 519l-93-6-43-3-44.06-2.37-8.04 9.08 3.52 7.78 105.94 38.88L1092 592l42 20 86 42 36.04 24.51 38.16-14.44L1321 656l24.28-6.97L1404 587l68-56 33.97-23.26 16.24-15.52-2.72-11.97-83.87-35.25-48.37-22.1L1340 404l-66 97-20-10-113.16-46z" class="cls-29"/><g id="_02_deviceScreens"><path d="M1465.5 484.5c-48.81 31.99-88.86 74.92-130.44 115.43-4.57 4.46-9.75 8.75-13.49 13.95-1.15 1.6-2.6 5.79-4.35 6.68-2.37 1.2-7.21-2.42-9.35-3.44-12.74-6.03-25.51-12.02-38.27-18.01-27.37-12.85-54.74-25.71-82.13-38.53-13.31-6.23-26.62-12.45-39.93-18.69-6.55-3.07-13.14-6.1-19.63-9.31-4.46-2.21-12.24-5.23-10.12-10.84 2.34-6.19 6.97-12.28 10.27-18.04 3.99-6.98 7.98-13.96 11.96-20.94 3.26-5.72 6.52-11.45 9.79-17.17 1.73-3.03 3.48-6.04 5.21-9.07 2.38-4.18 2.24-4.64 6.6-2.92 28.08 11.1 55.56 24.1 83.3 36.03 6.05 2.6 12.05 5.4 18.2 7.74 2.57.98 5.7 2.15 8.53 1.94 3.31-.25 3.48-1.25 5.3-4.13 8.04-12.72 16-25.48 24.32-38.03 4.6-6.93 9.24-13.83 13.87-20.74 3.42-5.09 6.63-14.49 13.42-13.81 15.57 1.57 31.36 9.35 45.85 14.82 31.11 11.75 60.96 26.5 90.61 41.56l.51 4.48v1Z" class="cls-15"/><path d="m1465.5 483.5-.51-4.48c.17 0 .34-.01.51-.02v4.5ZM415.61 619.62c-11.96 3.92-24.5 6.38-36.68 9.55-11.64 3.03-22.83 7.21-34.11 11.33-5.31 1.94-10.66 3.78-15.98 5.68-3.86 1.38-10.77 5.67-14.91 5.16-3.99-.49-10.03-7.03-13.29-9.47-5.28-3.96-10.57-7.92-15.87-11.86-38.81-28.8-80.81-53.33-121.73-79-10.85-6.81-21.7-13.61-32.55-20.42-2.32-1.46-4.65-2.92-6.97-4.38-1.93-1.21-7.29-3.16-8.18-5.04-1.98-4.17 5.96-5.65 9.34-7.05 22.71-9.41 45.39-18.91 68.15-28.18 4.14-1.68 5.17-2.28 8.38.94 4.29 4.29 8.11 9.2 12.09 13.78 8.13 9.34 15.85 19 23.47 28.76 7.34 9.4 14.6 18.87 21.73 28.43 2.6 3.48 4.72 9.07 9.42 8.42 5.58-.78 12.38-5.59 17.6-7.93 6.71-3.02 13.42-6.03 20.13-9.04 3.83-1.72 10.84-6.63 14.97-5.6 4.84 1.21 10.49 8.33 14.42 11.51 5.46 4.42 10.99 8.75 16.56 13.03 21.71 16.7 43.28 33.43 64.01 51.36Z" class="cls-15"/></g><g id="_03_windowTopBar"><path d="M725 141c5.17 2.36 12.9.86 18.55.94 7.12.1 14.21.7 21.3 1.32 13.65 1.2 27.33 2.19 41 3.18 26.69 1.92 53.21 5.33 79.68 9.15 26.91 3.88 53.56 8.64 80.31 13.47 13.07 2.36 26.23 5.16 38.97 8.88 6.35 1.85 12.81 2.61 19.3 3.81 5.62 1.04 9.22 5.01 10.59 10.81 1.28 5.43-7.77 41.69-14.46 39.64-7.32-2.24-14.67-4.4-22.02-6.53-6.29-1.82-11.13-1.16-11.22-8.3-.1-7.46 1.17-13.71-3.39-19.92-4.74-6.45-7.54-7.39-15.37-8.89-7.65-1.46-15.31-2.89-22.98-4.22-5.96-1.03-11.35-1.35-17.09 1.09-5.16 2.2-6.12 6.97-8.1 11.71-1.76 4.2-3.54 11.72-8.14 12.5-2.78.47-7.75-1.69-10.59-2.28-3.53-.74-7.07-1.45-10.62-2.12-27.1-5.13-55.43-7-82.88-9.75-14.8-1.48-29.66-2.46-44.52-3.08-15.17-.63-30.32-2.13-45.5-1.59-3.38.12-6.84.31-10.23.15-5.05-.24-4.09-1.92-4.25-6.69-.26-7.48-.45-14.97-.59-22.45-.1-5.17-2.63-15.32 2.63-17.85 2.58-1.24 18.53-1.2 18.63-2.99h1ZM1068.15 210.67c25.84 7.48 51.93 13.95 77.68 21.83 24.82 7.6 49.16 16.31 73.68 24.74 25.52 8.78 50.55 18.99 75.46 29.36 23.31 9.7 46.66 18.88 70.07 28.33 6.34 2.56 12.6 5.3 18.86 8.04 2.55 1.12 8.59 5.84 11.11 7.03.95.45-10.94 23.21-14.24 27.54-2.84 3.73-5.01 9.69-10.25 8.99-6.55-.88-13.59-4.39-19.89-6.42-3.07-.99-14.91-2.81-15.76-6.08-.37-1.44 2.61-5.62 3.15-6.73 1.46-3 3.75-6.32 4.62-9.53 3-11-15.6-15.83-22.62-19.17-11.18-5.31-24.15-10.75-36.67-11.83-5.51-.48-8.47 6.5-11.61 10.65-2.75 3.63-5.34 10.29-10.21 9.48-5.59-.93-11.94-5.01-17.19-7.21-6.25-2.62-12.53-5.13-18.94-7.33-29.1-10.02-58.69-18.71-88.03-28.01-15.39-4.88-30.77-9.77-46.15-14.67-7.46-2.38-14.92-4.76-22.37-7.15-3.5-1.12-6.99-2.35-10.52-3.38-4.57-1.33-5.6-.18-10.09.56 1.88-10.43 6.61-21.04 10.22-30.98 1.44-3.98 3.79-8.23 4.4-12.38.59-4.08-.27-5.33 5.21-5.33.03-.11.06-.22.1-.33ZM643.19 227.09c-11.03-.18-6.69-13.58-12.66-20.05-8.57-9.29-25.74-4.35-36.71-3.27-9.62.95-25.81-2.06-28.99 10.35-.77 3-.52 6.61-.61 9.69-.07 2.34.81 6.74-.2 8.72-1.95 3.82-11.21 2.89-15.4 3.3-26.9 2.66-54.04 6.14-80.69 10.68-26.87 4.58-53.67 8.5-79.95 15.82-3.27.91-6.55 1.77-9.82 2.65-1.89.51-6.27 2.53-8.01 2.07-4.06-1.08-6.34-10.92-8.04-14.68-2.65-5.86-5.3-11.73-8.08-17.53-1.6-3.33-7.58-11.2-4.71-14.26.38-.41 5.54-2.39 6.23-2.7 2.05-.92 4.35-1.16 6.51-1.69 5.81-1.42 11.45-3.24 17.34-4.4 13.6-2.68 27.3-4.96 40.97-7.26 51.16-8.61 102.39-14.38 154.21-17.17 14.39-.77 28.8-1.96 43.2-2.49 7.5-.27 15.01-.52 22.51-.79 3.5-.13 6.99-.28 10.49-.41.98-.04 2.4-.32 3.36-.11 1.3.28 1.91 1.34 3.01 1.61 1.34.34 11.76 41.27 8.06 41.3-7.35.05-14.64.18-21.98.61ZM102.48 372.51c.31-.84.62-1.67.93-2.51 15.34-11.28 33.18-17.52 50.93-24.14 18.95-7.07 38.35-12.89 57.71-18.7 19.95-5.99 40.12-10.99 60.35-15.95 9.28-2.27 18.62-4.24 27.94-6.33 7.88-1.77 22.1-8.16 29.39-3.23 7.7 5.2 12.8 15.53 18.34 22.78 2.32 3.04 5.18 5.9 6.95 9.31 2.6 5.01-2.19 4.17-6.73 5.36-3.2.84-10.52 4.17-13.53 2.78-2.64-1.22-4.78-6.75-6.48-9.05-2.4-3.24-4.91-5.85-8.23-8.14-5.33-3.68-6.66-3.3-12.83-1.76-9.22 2.31-18.93 4.08-27.91 7.22-3.14 1.1-8.74 3.14-10.95 5.73-2.66 3.1.12 6.37 1.67 9.95 1.02 2.36 5.37 9.01 4.8 11.23-.7 2.7-9.07 3.65-11.48 4.36-9.85 2.86-19.71 5.74-29.44 9-21.87 7.33-43.57 15.37-65.23 23.32-10.11 3.71-19.43 8.06-28.87 13.22-5.14 2.81-5.52 2.83-9.44-1.6-3.85-4.34-7.36-9.63-11.81-13.36-.33-.34-.66-.67-.99-1.01-1.16-1.35-2.32-2.71-3.48-4.06-.52-.64-1.04-1.28-1.55-1.93-2.51-3.25-5.01-6.52-7.55-9.74-.76-.97-1.65-1.83-2.48-2.74Z" class="cls-21"/></g><g id="_04_windowButton"><path d="M1093.55 242.47c.32 0 .63.02.95.03v4c-.27-.08-.55-.17-.82-.25-.04-1.26-.08-2.52-.13-3.77Z" class="cls-19"/><path d="M132.32 380.1c-.27-.03-.54-.07-.82-.1v-2.5c.29-.03.59-.06.88-.08-.02.9-.04 1.79-.07 2.69Z" class="cls-23"/><path fill="#feeae7" stroke-width="0" d="M733.5 159.5c-.01.2-.02.39-.04.59-1.33-.01-2.66-.03-3.98-.04 0-.18.01-.37.02-.55h4Z"/><path fill="#fee9e6" stroke-width="0" d="M143.5 388.5h-3v-.57c1.03 0 2.06 0 3.09-.01-.03.19-.05.39-.08.58Z"/><path d="M140.49 387.93v.57h-1c-.03-.3-.05-.59-.08-.89.36.11.72.21 1.07.32Z" class="cls-25"/><path d="M729.5 159.5c0 .18-.01.37-.02.55-.14.03-.27.04-.41.03-.02-.19-.04-.39-.07-.58h.5Z" class="cls-19"/><path d="M143.5 388.5c.03-.19.05-.39.08-.58.08-.02.17-.02.26-.02.05.2.11.4.16.6h-.5Z" class="cls-23"/><path fill="#fe9587" stroke-width="0" d="M1093.55 242.47c.04 1.26.08 2.52.13 3.77-1.18 3.24-3.2 5.69-6.54 6.89-.38.12-.76.24-1.14.35l-6.92.24c-.38-.23-.76-.45-1.14-.68-2.78-1.93-4.1-4.7-4.63-7.94 0-.57 0-1.14-.01-1.71.19-5.18 5.28-9.04 10.13-9.44 6.14-.5 8.26 3.45 10.12 8.52Z"/><path d="M729.07 160.08c.14.01.28 0 .41-.03 1.33.01 2.66.03 3.98.04 9.56 3.54 10.31 17.12-.69 19.25-4.83.93-9.73-1.51-11.04-6.42-1.71-6.41 2.8-9.56 7.34-12.84Z" class="cls-32"/><path fill="#fe9688" stroke-width="0" d="M388.17 245.61c-11.34 1.07-12.03-18.31.55-18.15 11.69.16 11.52 18.39-.55 18.15Z"/><path d="M143.84 387.9c-.09 0-.17 0-.26.02-1.03 0-2.06 0-3.09.01-.36-.11-.72-.21-1.07-.32-3.63-1.31-6.61-3.24-7.1-7.51.02-.9.04-1.79.07-2.69.64-3.46 3-5.85 6.44-6.52l3.15-.3c4.02.42 7.79 1.23 9.16 5.81.02.74.04 1.48.05 2.22-.8 4.4-2.68 7.95-7.35 9.28Z" class="cls-32"/><path fill="#fea89d" stroke-width="0" d="m141.97 370.59-3.15.3 3.15-.3Z"/><path d="M151.19 378.62c-.02-.74-.04-1.48-.05-2.22 1.19.71 1.13 1.45.05 2.22Z" class="cls-25"/><path fill="#feccc5" stroke-width="0" d="M1073.3 243.39c0 .57 0 1.14.01 1.71-.99-.56-.98-1.14-.01-1.71Z"/><path d="M1077.94 253.05c.38.23.76.45 1.14.68-.38-.23-.76-.45-1.14-.68ZM1086 253.49c.38-.12.76-.24 1.14-.35-.38.12-.76.24-1.14.35Z" class="cls-22"/></g><g id="_05_deviceShadow"><path d="M69.5 519.5c6.61 1.56 11.77 5.13 17.58 8.65 6.89 4.18 13.89 8.2 20.88 12.21 13.91 7.99 28 15.7 42.17 23.23 26.9 14.3 52.45 30.51 78.22 46.72 13.13 8.26 26.31 16.45 39.36 24.83 11.96 7.68 22.94 16.7 34.81 24.47 3.53 2.32 8.99 6.95 13.07 8.02 5.38 1.41 15.28-4.31 20.33-6.04 15.09-5.17 30.18-10.35 45.45-15 14.93-4.55 30.01-8.56 45.09-12.56 6.89-1.83 13.78-3.67 20.66-5.53 5.66-1.53 8.54 9.69 6.88 11.48-1.83 1.97-3.92 3.03-6.38 3.73-7.77 2.22-15.52 4.51-23.31 6.68-15.03 4.19-30.12 8.09-45.06 12.61-14.47 4.37-28.84 9.12-43.01 14.39-6.71 2.5-12.66 6.02-19.92 6.59-2.8.22-5.17.58-7.56-.74-2.67-1.49-5.03-4.44-7.69-6.13a1729.43 1729.43 0 0 1-39.22-25.75c-5.68-3.84-11.51-7.54-17.02-11.63-2.43-1.81-3.84-3.82-5.94-5.91-2.88-2.85-6.79-4.7-10.23-6.82-29.32-18.04-58.06-37.97-88.32-54.36-14.11-7.64-28.82-14.07-43.04-21.48-7.27-3.78-15.48-7.2-22.3-11.68-3.31-2.17-2.68-3.53-3-7.21-.27-3.23-1.67-6.19-2.5-9.3v-3.5ZM1325.63 657.49c.52-1.89.86-3.09 1.19-4.29-11.87 2.37-23.58 7.72-35 11.72-2.94 1.03-6.38 1.81-9.17 3.22-.26.13-2.12.56-2.41 1.01-.69 1.03.77 1.47.54 1.84-2.06 3.28-7.76 3.81-11.54 5.6-4.61 2.18-6.92 2.65-12.13.68-4.86-1.83-8.98-5.08-13.23-7.97-8.75-5.97-18.28-11.1-27.99-15.25-22.32-9.55-43.8-21.77-65.01-33.52-5.65-3.13-11.3-6.26-16.94-9.4-5.8-3.22-11.91-7.83-18.15-10.08-4.1-1.48-8.41-.85-12.63-2.54-5.99-2.4-11.84-5.19-17.72-7.83-45.86-20.56-92-39.15-139.68-55.06-9.93-3.31-18.66-7.64-28.57-10.88-4.12-1.34-5.86-2.22-4.67-6.78 1.09-4.16 4.35-10.59 9.23-10.37 4.63.21 9.92 4.29 14.19 6.12 5.88 2.52 11.8 4.91 17.79 7.17 11.74 4.44 23.45 8.99 35.32 13.07 48.53 16.69 94.54 37.96 140.86 59.94 22.98 10.9 45.89 21.93 69.02 32.51 11.82 5.41 23.28 11.5 34.71 17.67 5.24 2.83 10.47 5.67 15.7 8.51 5.07 2.75 10.76 7.54 16.63 6.38 12.36-2.45 24.83-7.89 36.83-11.78 11.87-3.85 24.23-7.16 35.85-11.72 4.64-1.82 6.92-5.3 10.26-8.89 4.03-4.32 8-8.7 12.01-13.05 8.34-9.03 16.96-17.79 25.79-26.35 35.34-34.27 73.27-66.39 113.4-94.91 4.94-3.51 9.92-6.97 14.91-10.41 4.75-3.27 8.01 8.14-2.31 20.83-19.84 14.64-38.62 31.08-57.25 47.23-18.88 16.37-38.19 32.21-56.57 49.15-8.79 8.11-17.42 16.47-26 24.81-4.11 3.99-8.15 8.05-12.21 12.1-3.62 3.62-7.84 9.56-12.24 12.17-1.01.6-1.97.15-3.14.88-1.43.89-2.17 2.49-3.81 3.35-4.68 2.47-10.81 3.51-15.83 5.11ZM181.69 459.98c9.26.59 16.14 15.01 21.13 21.59 7.2 9.49 14.4 18.99 21.78 28.33 6.69 8.46 16.57 17.67 20.37 27.87 1.74 4.67 3.34 6.72 6.94 10.44 3.44 3.55 6.01 7.87 9.8 10.95 3.74 3.05-34.02-6.55-43.74-13.74-19.89-14.72-39.65-29.6-59.45-44.44-5.01-3.75-10.09-7.39-15.12-11.11-1.48-1.1-4.52-2.6-3.55-4.31.92-1.62 7.28-3.16 9.17-3.93 6.14-2.51 12.27-5.04 18.41-7.54 5.51-2.24 12.08-3.77 16.49-7.81-1.95-1.82-3.38-3.06-4.72-5.33.97-.37 1.94-.75 2.48-.95Z" class="cls-18"/><path d="M1278.36 499c-.88-5.92 3.94-10.57 7.03-15.14 6.52-9.65 13.79-18.51 20.71-27.83 7.44-10.01 13.31-21.32 20.18-31.74 3.28-4.97 6.71-9.76 10.49-14.36 3.06-3.73 5.15-6.66 9.23-3.94.23.99 38.76 15.84 44 18-7.92 7.81-13.85 11.16-22.74 17.85-9.77 7.36-88.24 61.65-88.91 57.15ZM348.46 537.18l.18.08-.2.05.02-.13z" class="cls-18"/></g><g id="_06_screenShadow"><path fill="#608ffb" stroke-width="0" d="m244.04 538 .18 1.37c.24.89.47 1.78.71 2.68 3.17 3.3 6.57 6.42 9.44 9.97 2.61 3.22 4.94 6.6 8.55 8.84 1.4.87 1.67 2-.06 3.03-3.78 2.27-7.46 4.79-12.01 5.19-.87.08-1.97-.17-2.66-.67-16.69-12.26-33.38-24.52-49.98-36.9-12.87-9.6-25.6-19.38-38.44-29.03-1.44-1.08-1.04-1.42.3-1.97 12.99-5.35 25.98-10.72 38.95-16.14 1.36-.57 2.26-.48 3.24.71 12.66 15.45 25.38 30.85 38.01 46.31 1.35 1.66 2.26 3.67 3.37 5.52l.41 1.09Z"/><path fill="#5f8ffb" stroke-width="0" d="M1277.63 501.37c-.84-4.78 3.86-9.73 6.25-13.51 3.37-5.33 6.75-10.66 10.18-15.95 6.93-10.71 14.07-21.29 21.16-31.89 3.03-4.54 6.47-12.68 10.64-15.98 4.05-3.2 9.38-.6 14.2.67 10.72 2.82 23.72 5.99 33.3 11.67-6.78 7.37-16.76 12.91-24.76 18.94-8.32 6.26-16.5 12.69-24.48 19.38-7.87 6.6-15.65 13.29-23.54 19.87-3.53 2.94-7.02 6.62-10.88 9.11-4.49 2.88-7.1.8-11.77-1.13-.1-.39-.21-.78-.31-1.17Z"/><path fill="#6a97fb" stroke-width="0" d="M301.53 552.59c4.35-1.66 8.7-3.32 13.05-4.97 3.17-1.2 6.72-3.4 10.1-2.89-5.65 4.57-16.31 6.22-23.19 8.59l.04-.73Z"/><path fill="#8eb0fc" stroke-width="0" d="m301.53 552.59-.04.73-2.51.78-.08-.12c.87-.46 1.75-.93 2.62-1.39Z"/><path fill="#abc4fc" stroke-width="0" d="M244.93 542.04c-.24-.89-.47-1.78-.71-2.68.24.89.47 1.78.71 2.68Z"/><path fill="#b8cdfd" stroke-width="0" d="M1277.63 501.37c.1.39.21.78.31 1.17-.1-.39-.21-.78-.31-1.17Z"/><path fill="#b2c8fd" stroke-width="0" d="m244.04 538-.41-1.09.41 1.09Z"/><path d="M298.99 554.1c-.32.43-.55.45-.69.05.2-.06.41-.11.61-.17l.08.12ZM297.2 554.81c-.07.02-.13.05-.2.07l-.06-.28c.18-.03.26.04.25.21Z" class="cls-11"/></g><g id="_07_foxDisplay"><path d="M1042.66 374.22c24.41-.49 48.76-.65 73.05-3.38 24.05-2.7 47.79-7.44 71.29-13.17 23.87-5.81 47.47-12.65 71.12-19.31 11.28-3.18 23.29-8.02 34.99-9.02 5.59-.48 6.67 1.49 6.72 7.14.05 5.74-1.52 11.8-2.72 17.39-9.25 43.2-45.55 70.87-85.08 85.98-10.99 4.2-22.26 8.03-33.79 10.38-4.72.96-9.94 3.26-14.75 2.15-6.04-1.4-12.01-5.02-17.78-7.31-10.29-4.09-20.86-3.53-30.85-7.64-10.88-4.47-21.95-8.46-33.01-12.48-12.11-4.41-24.29-8.63-36.43-12.98-6.33-2.27-4.7-4.74-4.31-10.7.43-6.6-4.87-4.4-10.42-4.57-3.53-.11-7.05-.22-10.58-.34-2.01-.07-7.99.73-9.39-.47-2.37-2.03 1.69-11.14 2.38-13.85 1.84-7.17 1.73-8.13 9.36-8.09 6.73.03 13.46 0 20.2 0v.25ZM965.49 356.45c4.64 6.32 6.07 15.24-1.79 19.89-7.75 4.59-20.6-1.07-28.8-2.49-3.84-.66-11.56-3.12-15.2-1.83-3.73 1.32-2.97 3.63-7.4 2.82-2.57-.48-4.6-1.42-7.3-1.37-2.12.04-4.6 1.25-6.51.47-1.51-.62-2.71-2.67-4.19-3.58-1.93-1.19-4.06-1.71-6.25-2.18-22.96-4.93-47.35-6.27-70.74-7.13-11.31-.41-22.28-4.02-33.37-5.97-11.65-2.04-23.38-2.61-35.09-4.06-10.6-1.31-23.84-5.11-34.4-3.51-5.34.81-5.98-.75-6.33-6.43-.34-5.63-.56-11.07-1.61-16.61-1.02-5.37-1.19-10.78-1.37-16.23-.21-6.72-1.01-7.98 5.94-8.47 11.86-.84 23.82-.75 35.7-.29 24.06.92 47.85 3.86 71.64 7.39 23 3.42 45.56 6.48 68.17 12.21 26.02 6.58 51.87 13.89 77.78 20.89 5.66 1.53 11.32 3 17.03 4.3 3.95.89 8.75.39 8.47 5.18-.73 12.53-17.04 8.34-24.38 7.02ZM525.11 285.76c-4.61 21.19-9.08 42.41-13.2 63.7-1.99 10.28-2.45 21.05-4.8 31.21-.89 3.83-2.3 7.26-2.7 11.28-.41 4.09-.36 8.39-1.99 12.24-1.41 3.33 9.37 13.83 7.58 16.81-1.94 3.25-16.48-2.08-20.52-.79-4.03 1.29-35.46 17.07-39.48 17.79-10.86 1.95-14.36-21.06-15.86-18.8-2.2-4.2-4.5-8.56-6.07-13.04-1.99-5.7.76-11.64 2.45-17.19 3.48-11.41 7.79-22.52 12.58-33.44 9.83-22.41 19.8-44.78 30.08-66.99 4.74-10.26 9.8-20.35 15.45-30.14 2.81-4.88 5.76-9.68 8.84-14.39 2.62-4.01 3.01-5.8 7.47-5.68 4.29.12 8.17-1.32 12.57-1.9 3.85-.51 13-3.83 16.15-1.65 2.95 2.04 4.32 11.33 5.49 14.75 1.99 5.8 3.81 11.66 5.06 17.68 1.38 6.63 2.37 13.35 3.33 20.04.75 5.17 1.83 10.47-2.68 14.27-11.58 9.76-16.72-8.02-19.21-15.67l-.54-.09ZM428 452c4.02 1.07 6.17 2.97 7.97 7.29 2.08 5-1 9.33-5.19 11.92-5.15 3.18-11.75 4.93-17.37 7.18-6.77 2.71-13.55 5.42-20.33 8.11-12.41 4.94-24.77 10.07-37.29 14.72-10.7 3.98-23.28 8.79-34.89 7.64-9.37-.93-15.96-8.1-14.61-17.72 1.5-10.66 9.49-19.86 17.13-26.86 17.84-16.34 41.5-27.78 62.6-39.29 6.53-3.56 13.22-8.26 20.12-10.99 4.98 11.56 23.31 37.21 21.86 37.99Z" class="cls-6"/><path d="M676.55 302.8c2.71.1 16.54 63.84 12.39 64.07-2.69.15-4.8-1.36-8.02-.75-3.08.58-6.13 1.49-9.18 2.26-12.33 3.11-24.67 6.92-37.17 9.29-4.81.91-9.39 1.45-14.15.45-5.31-1.12-7.08 2.68-12.18 3.5-11.23 1.79-14.33-9.73-10.45-17.79 2.27-4.72-.93-3.83-3.17-8.29-1.76-3.5-1.47-7.79.6-11.1 5.19-8.29 19.86-9.8 28.47-11.99 5.75-1.46 9.98-1.28 11.4-7.74 1.09-4.96-.8-10.19 3.05-14.26 3.89-4.11 11.62-4.66 16.9-5.47 7.12-1.09 14.33-1.52 21.5-2.19ZM613.07 271.15c-.32 7.74 1.74 21.16-2.3 28.09-1.86 3.19-4.99 4.31-8.52 4.37-2.01.04-4.45-.33-6.39-.83-1.45-.38-4.95-2.71-6.09-2.36-2.24.69-5.27 11.8-6.12 13.8-2.13 5.05-3.93 11.95-7.62 16.09-3.29 3.69-6.15 2.39-10.45 2.94-4.01.51-7.22 2.67-11.07-.13-3.59-2.61-4.04-6.98-3.25-11.07.77-3.96 5.64-10.04 5.32-13.84-.28-3.21-4.7-4.9-5.37-8.56-.76-4.16 1.68-9.22 4.61-11.98 1.21-1.14 2.56-1.28 3.68-2.83 1.44-1.98 2.11-5.08 2.98-7.31 2.11-5.43 4.21-10.86 6.54-16.2 4.34-9.91 9.77-19.26 16.58-27.68 3.11-3.85 6.61-9.45 12.09-9.48 5.46-.03 7.06 5.19 8.73 9.54 4.53 11.83 5.09 25 6.65 37.45Z" class="cls-4"/></g><g id="_08_foxDisplayPink"><path fill="#fde8e6" stroke-width="0" d="M526 220c3.69 1.84 5.13 4.29 6 7 1.01 3.14 2.44 6.5 3 10-.36.17-1.14-1.06-1.51-1-2.49.36-4.99.68-7.49 1.01-.5.16-1 .32-1.5.49-.99.03-2-.02-2.98.11-5.79.78-11.58 1.61-17.37 2.42-.21-.41-4.93 2.39-5.14 1.98 4-7 12.67-16.96 19.5-21.49 2.5-1.51 5.5-1.51 7.5-.51Z"/><path fill="#eeeff9" stroke-width="0" d="M526 237.01c-.5.16-1 .32-1.5.49.5-.16 1-.32 1.5-.49Z"/></g><path id="_09_foxMatte" fill="#fe9f48" stroke-width="0" d="M634.99 326.98c3.15-2.91 7.43-8.44 10.03-2.4 2.8 6.49-2.79 15.32-5.36 20.95-2.58 5.68-5.42 8.39-6.66 14.47-.75 3.7-1.58 19.98 2.24 20.88 2.24.53 7.77-1.81 9.98-2.36 3.51-.87 7.02-1.73 10.53-2.59 7.4-1.79 14.83-3.78 22.34-5.08 14.12-2.44 28.61-3.7 42.82-5.67 13.98-1.94 28.02-3.31 42.05-4.79 13.41-1.41 27.55-.17 40.99.77 27.29 1.9 56.05 5.42 82.6 12.03 6.66 1.66 12.36 3.28 19.03.93 5.99-2.11 11.27-3.09 17.47-4.27 6.57-1.25 13.19-4.28 19.59-6.29 7.07-2.23 14.16-4.44 21.19-6.82 25.91-8.77 47.42-23.97 69.92-39.16 10.03-6.78 19.27-14.12 29.07-21.18 11.71-8.43 21.26-17.86 31.22-28.27 2.09-2.19 10.06-12.37 13.12-12.09 3.41.31 5.52 14.64 5.79 17.41 1.42 14.51-3.64 28.43-5.17 42.69-.73 6.78-.89 12.92-3.42 19.33-2.65 6.71-5.7 13.31-9.18 19.63-6.89 12.53-16.09 22.76-27.19 31.72-12.03 9.72-24.94 14.96-38.57 21.87-6.86 3.48-12.68 4.72-20.36 5.08-6.94.32-14.91-.01-21.59 1.9 23.52 9.25 46.72 20.04 71.06 27 9.82 2.81 19.58 5.39 25.06 14.86 2.26 3.9 5.62 9.99 2.37 14.07-3.5 4.38-12.25 5.92-17.47 6.51-26.46 2.97-54.14.83-80.52-1.82-12.87-1.29-25.67-1.35-38.5-3.02-11.53-1.5-24.35 2-36.03 2.45-26.66 1.03-52.73.14-79.26-2.73-12.69-1.37-19.91-7.02-31.21-12.99-3.92-2.07-9.97-3.3-13.85-4.94-5.45-2.3-14.41-.5-20.27-.5-52.24.03-104.72-3.4-155.44 11.22-28.67 8.27-57.05 16.13-85.02 26.62-6.42 2.41-12.34 5.5-18.54 8.34-4.97 2.28-12.8 6.18-17.56 1.38-4.06-4.09-1.58-13.27-.14-18.28.87-3.01 1.9-6.05 3.15-8.92 1.4-3.22 4.26-6.14 5.33-9.35-9.58.5-19.96 4.17-29.26 6.53-9.62 2.44-19.18 5.2-28.44 8.81-9.16 3.57-17.5 8.45-26.33 12.67-9.19 4.39-15.36 2.95-21.12-5.58v-7c2.57-5.66 4.83-11.67 7.81-17.12 2.74-5.01 6.83-8.28 11.02-11.99 4.71-4.17 8.74-9.03 13.85-12.76 5.21-3.8 11.02-5.82 17.05-7.93 6.31-2.2 12.68-4.42 19.17-6.06 6.78-1.71 13.77-2.14 20.56-3.75 3-.71 14.93-3.02 16.01-5.79 1.18-3.03-6.78-13.29-7.95-16.42-2.22-5.92.07-11.86 1.53-17.76 1.6-6.5 3.74-12.8 5.96-19.11 2.28-6.5 4.66-12.96 7.05-19.41 2.04-5.49 6.69-12.21 7.28-17.97.63-6.18-1.8-13.19-1.58-19.58.21-6.38.89-13.72 3.47-19.64 1.28-2.93 5.53-9.98 9.56-8.49 3.45 1.27 3.74 11.93 4.3 15.09 6.93-9.62 13.24-20.27 21.78-28.58 1.75-1.7 9.44-9.78 11.53-9.59 2.85.26 2.79 10.72 2.94 12.56 1.12 13.35 1.03 26.45.41 39.83-.27 5.75-1.35 11.93-.9 17.65.23 2.97.08 4.16 3.63 4.31 4.91.21 5.62-6.26 7.33-10.06 2.36-5.24 4.9-10.41 7.6-15.48 5.79-10.89 12.36-21.35 19.54-31.37 3.03-4.23 6.02-8.93 9.92-12.4 4.04-3.59 6.32-5.58 8.37-.03 4.35 11.79 4.4 23.3 6.55 35.46 7.63-4.04 16.41-12.04 15.73.37-.56 10.22-7.51 22.39-9.98 32.02-.09.06-.18.13-.27.19.16.02.24-.06.23-.23Z"/><g id="_10_foxShadow"><path d="M501.43 461.37c-2.17 1.62-4.22 3.54-6.6 4.86-3.32 1.84-4.6 1.05-8.01 1.05-5.26 0-10.72 2.66-15.75 4.24-11.85 3.72-23.74 7.33-35.5 11.33-5.88 2-11.73 4.1-17.53 6.34-4.45 1.72-12.25 6.75-17.1 4.88-5.28-2.04-3.61-6.23-3.74-10.24-.02-.62-1.22-1.45-1.26-2.41-.13-2.93 1.28-5.42 2.5-7.96 4.31-8.95 8.78-15.48 16.46-21.78 8.82-7.24 14.37-14.81 25.6-18.85 11.03-3.96 22.07-7.61 33.65-9.48 6.17-.99 12.07-2.51 18.03-4.35 1.54-.48 8.13-1.5 8.88-2.92.48-.91-1.31-3.05-1.73-3.87 1.93-.37 3.4-.41 5.34-.41-.69-1-1.36-2.61-2.5-3.04-.81-.31-2.14.67-2.76.36-2.24-1.13-2.55-1.69-3.83-4.23-3.4-6.74-3.87-12.93-2.04-20.27 3.88-15.5 9.14-30.99 15.4-45.69 3.09-7.27 6.12-11.84 5.02-19.86-1.12-8.18-1.05-16.54.56-24.65 1.06-5.36 2.75-13.64 8.28-16.47 7.2-3.68 5.91 9.74 7.96 13.64 11.19-11.58 17.75-30.8 33.76-37.2.92 4.75.12 4.49-2.89 8.41-2.29 2.99-4.43 6.1-6.47 9.27-4.74 7.39-8.95 15.15-13.04 22.92-7.35 13.98-13.53 28.59-17.85 43.79-4.42 15.55-6.45 31.6-8.21 47.63-.74 6.7 3.28 10.98 5.65 17.26 2.95 7.8 6.5 14.98 11.07 21.95 3.45 5.27 5.79 9.32 12.5 5.98.23-.11 2.27-1.8 2.88-1.81 2.17-.03 26.29-2.41 33.94-3.52 4.16-.6 8.85-1.87 13.09-1.73 3.69.12 5.86 2.04 1.76 4.15-6.62 3.4-16.6 3.78-23.87 5.48-8.21 1.92-16.57 3.78-24.33 7.14-13.88 6.01-23.93 15.57-31.74 28.37-3.84 6.29-8.44 13.48-8.61 21.06-.05 2.43 2.24 7.76 1.13 9.6-.93 1.54-6.99 3.52-8.6 3.8-17.58 3.12-1.91-35.43.78-42.48l-.32-.32Zm19.28-17.67c.21-.18.36-.32.52-.45-.26-.35-.58-.37-.94-.06.13.15.25.3.42.51Z" class="cls-13"/><path fill="#d15c14" stroke-width="0" d="M695.08 377.51c-13.89 1.98-27.46 5.25-41.24 7.76-5.93 1.08-14.1 3.66-19.98 1.51-2.15-.79-.83-6.29.38-5.72 1.43.67 5.33-1.16 6.69-1.5 6.09-1.52 12.21-2.94 18.31-4.42 10.77-2.6 21.68-7.36 32.75-8.14 5.51-.39 22.53-.84 26.24-1.26 12.01-1.35 23.97-3.12 36-4.29 23.79-2.32 47.54-.91 71.21 2.14 12.15 1.57 24.33 3.01 36.46 4.75 6.13.88 12.21 2.07 18.26 3.39 5.32 1.15 11.95 1.64 16.73 4.14-6.25 6.53-16.52 2.69-24.08 1.42a307.65 307.65 0 0 0-29.51-3.52c-19.65-1.38-44.8-3.21-59.06-2.49s-59.75 2.03-89.18 6.23Z"/><path d="M897.49 476.96c-19.8-.74-39.46-1.32-59.17-3.57-15.18-1.73-33.32-9.39-46.45-16.83 14.11-3.52 31.11-1.26 45.43-.03 15 1.29 29.85 3.88 44.67 6.44 7.18 1.24 14.35 2.47 21.55 3.58 5.91.91 15.2.53 20.43 3.52 7.81 4.48.26 5.25-4.38 5.42-7.36.28-14.71.54-22.07.81 0 .21-.01.43-.02.64Z" class="cls-13"/></g><g id="_11_foxWhite"><path d="M491.5 493c2.9-2.71 3.55-10.39 5.15-14.24 2.07-4.98 4.63-9.74 7.58-14.24 3.33-5.1 7.15-9.53 11.56-13.73 1.64-1.56 3.77-4.48 6-5.11 2.03-.57 5.07-4.86 7.22-5.68 8 1-3.05-16.29-7.17-22.63-3.29-5.05-6.31-10.23-9.17-15.53-3.02-5.6-5.18-8.7-9.96-12.64 3.81-3.08 11.76-2.12 14.64-5.83 1.04-1.34.94-4.86 1.54-6.56.77-2.2 1.86-4.22 3.2-6.12 6.17-8.76 17.03-12.27 27.36-9.78 4.94 1.19 9.47 3.73 12.64 7.75 2.59 3.29 3.2 8.39 7.21 10.3 4.39 2.08 11.28.89 15.98 1.42 6.39.72 12.78 1.64 19.15 2.56 6.04.88 12.11 1.71 18.08 2.94 4.38.9 12.5 2.11 13.5 4.11-1 5-6.14 10.14-9.4 13.2-4.21 3.97-8.45 7.92-12.52 12.03-3.37 3.4-6.43 7.99-10.51 10.6-4.42 2.83-9.77 1.51-14.73 1.46-6.23-.06-12.44.33-18.64.87-6.04.53-13.74.19-19.42 2.28-.78 4.55-6.95 15.02-8.83 19.9 12.05-1.35 17.05-2.35 25.77-2.02-1.68 4.8-8.72 12.67-14.86 18.7 15.14.97 19.65.75 25.75 1.29 5.01.45 11.6-.22 16.12 2.09-3.69 2.64-9.28 3.06-13.65 4.23-4.57 1.22-9.1 2.56-13.61 3.99-9.83 3.12-19.64 6.28-29.53 9.24-9.02 2.7-18.69 4.85-27.17 9.05-3.69 1.83-7.8 6.09-12.17 5.57-4.15-.49-4.98-4.15-7.11-6.99v-2.5ZM1048.5 327.5c-19.86 8.26-38.46 16.78-60 20v-1c11.88-7.25 24.25-13.96 35.69-21.89 5.68-3.94 10.98-8.42 16.8-12.17 4.8-3.1 9.43-5.33 13.39-9.45 7.99-8.3 18.97-12.95 26.96-21.51 4.45-4.77 8.97-9.48 13.44-14.24 3.77-4.01 8.36-7.43 11.72-11.74h1c2.91 4.53 4.44 9.52 5.1 14.82.03.26.59.45.9.68v15c-2.52 3.59-2.37 10.43-2.99 14.69-.73 5.02-1.68 10-2.39 15.02-.73 5.16-.58 10.38-2.03 15.43-1.4 4.88-3.82 9.39-5.86 14.02-4.3 9.77-8.49 15.91-18.07 21.13-7.13 3.89-19.57 9.99-27.92 8.8 3.76-3.08 5.83-6.7 8.02-9.61 3.02-4.02 5.67-8.31 8.32-12.57 5.52-8.86 9.87-17.52 11.82-27.88-9.76 6.92-19.3 14.08-29.66 20.11-5.1 2.96-10.23 5.87-15.37 8.77-3.86 2.18-8.37 4.11-13.63 6.29 3.27-4.18 9.34-10.57 13.13-15.68 3.45-4.66 10.24-11.39 11.63-17 .13-.01.2-.08.2-.2-.07.07-.14.14-.2.21ZM759.44 439.45c25.56.55 57.65 3.02 86.27 7.79 4.09.68 15.31 1.76 16.88 6.54 2.4 7.3-10.15 5.34-13.81 5.03-7.14-.61-14.11-2.57-21.27-2.96-7.05-.39-14.11.7-21.17.61-6.4-.08-12.2-.58-18.16-1.89-6.51-1.42-14.83-.06-21.52-.06-15.37.01-30.73-.15-46.09-.36-15.02-.2-30.04-.09-45.04.79-6.58.39-12.88 2.33-19.42 2.82-2.51.19-4.24.74-3.95-2.09.38-3.7 6.61-4.77 9.19-5.41 31.71-7.91 72.54-11.36 98.1-10.81ZM636.87 325.29c1.5-1.79 3.51-4.06 5.34-3.77 3.72.57 3.27 6.02 2.78 8.59-1.53 7.99-5.51 16.41-9.15 23.63-2.42 4.79-7.46 10.51-10.84 3.26-1.52-3.26-2.61-9.69-2.9-13.24-.4-4.9-.92-9.81-1.1-14.72-.24-6.75-1.85-15.58.52-22.06 1.12-3.07 4.13-5.45 6.24-8.03 2.38-2.89 4.76-6.64 8.35-8.14 9.44-3.96 7.84 6.06 6.26 11.77-2.07 7.44-4.33 14.7-6.75 22.02l1.25.7ZM869.12 460.25c-1.31.88-2.74-1.3-2.14-2.5.67.78 1.33 1.56 2.14 2.5ZM988.5 346.5v1l-1.65.24c.55-.41 1.1-.83 1.65-1.24Z" class="cls-28"/></g><g id="_12_foxWhiteShadow"><path d="M528 275.5c4.52 6.17 4.14 13.48.32 19.49-2.09 3.3-4.19 6.6-6.29 9.89-1.51 2.37-4.33 8.82-6.81 10.17 0-7.85-.57-15.81.93-23.55.58-2.99 1.3-6.03 2.76-8.72 1.59-2.95 4.42-4.57 6.08-7.27h3ZM871.5 460c-.45-.23-.91-.46-1.23-.62.31.03.77.08 1.23.12v.5ZM528.63 438.13c-4.27 2.32-7.05-3.14-9.04-5.93-2.99-4.19-6.59-8.03-9.59-12.21-1.68-2.33-8.14-12.31-9.05-13.09-1.65-1.43-4.83-6.03-6.26-8.73-1.53-2.9-1.21-5.1 1.2-6.94 1.94-1.48 19.77-9.27 21.3-7.78 1.32 1.28-.35 5.66.39 7.52.43 1.08 2.21 1.87 2.42 2.79.39 1.65-1.95.78-2.01 1.86-.06 1 4 4.63 4.67 5.76 1.3 2.19 2.09 4.63 3.07 6.97a83.562 83.562 0 0 0 8.24 15.12c2.31 3.37 4.38 8.62 9.41 8.09.78-.08 6.86-1.12 7.61-1.56 1.93-1.12-2.4 7.82-4.23 11.48-.46.93-1.24 1.66-2.21 2.05-2.88 1.16-6.46 3.05-7.9 4.03-8.61 5.85-15.65 13.45-20.66 22.44-2.67 4.79-5 10-8 31-4 2.89-11.94 1.16-14 0-3.54-1.99.15-9.27 1.49-15.33 9.51-33.67 36.88-49.57 33.14-47.54ZM795.26 454.2h28.56c-2.31 1.06-14.94 1.3-28.56 0ZM860.32 457.32c-10.42 1.46-20.16-2.26-30.24-3.1 10.08 1.03 20.16 2.07 30.24 3.1Z" class="cls-10"/></g><g id="line01_background"><path d="M1527 490c0 4-57.13 48.51-85.29 72.3-28.44 24.02-57.1 48.66-82.42 76.01-5.26 5.69-10.56 12.13-17.74 15.45-7.9 3.65-17.11 5.28-25.4 7.97-17.76 5.77-35.2 12.79-52.96 18.41-7.68 2.43-16.41-5.57-22.88-9.35-8.49-4.95-16.97-9.94-25.64-14.57-16.45-8.79-33.31-16.81-49.82-25.5-68.06-35.85-139.84-65.19-212.38-90.51-8.96-3.13-17.88-6.39-26.92-9.29-5.98-1.92-16.28-2.94-16.72-11.08-.25-4.66 3.63-10.13 7.13-12.95 5.89-4.74 16.55-2.2 23.69-2.1 38.92.56 77.18 5.17 115.87 8.97 10.95 1.08 21.92 2.04 32.88 2.96 2.33.2 6.21 1.57 8.39.74 3.18-1.21 4.22-6.06 5.57-8.72 9.48-18.65 23.64-35.21 32.22-54.31 2.53-5.63-1.52-5.56-6.65-7.63-4.91-1.99-9.83-3.98-14.76-5.92-10-3.95-20.08-7.64-30.19-11.29-19.84-7.17-40.33-13.24-59.88-21.11 7.87-8.8 17.15-4 26.61-.7 12.04 4.19 24.17 8.1 36.1 12.62 24.33 9.22 48.67 18.57 72.77 28.35 23.6 9.57 47.04 19.48 70.34 29.77 12.02 5.31 24.02 10.66 36.05 15.95 7.54 3.32 8.04 4.38 12.61-2.7 3.7-5.73 7.38-11.47 11.07-17.21 14.31-22.26 28.99-44.28 43.97-66.09 7.28-10.6 14.73-21.08 22.13-31.59 2.47-3.51 7.86-7.68 4.13-10.8-4.45-3.72-13.34-5.43-18.78-7.63-4.55-1.85-9.78-2.22-8.47-8.11 1.12-5.07 6.29-9.61 6.47-14.87.3-8.66-17.7-12.9-23.87-15.5-5.67-2.38-11.37-4.72-17.06-7.06-4.42-1.82-10.27-5.68-15.23-4.96-10.07 1.46-9.37 17-17.96 19.84-4.64 1.53-13.83-3.69-18.23-5.25-6.84-2.41-13.67-4.84-20.5-7.27-13.66-4.86-27.33-9.72-41.04-14.45-14.01-4.83-28.1-9.44-42.21-14.01-6.83-2.22-13.66-4.43-20.48-6.68-3.14-1.04-7.46-1.6-10.22-3.4-2.47-1.61-.45-1.85-1.32-4.74 5.34-.32 9.22 1.57 14.29 3.24 7 2.3 14.01 4.6 21.01 6.9 13.13 4.32 26.26 8.65 39.37 13.03 12.52 4.18 25.03 8.4 37.47 12.81 6.36 2.25 12.71 4.53 19.06 6.82 5.69 2.05 13.07 6.31 19.06 6.82 8.94.77 9.86-19.76 21.8-18.81 5.44.43 11.63 3.5 16.77 5.29 6.06 2.12 12.09 4.34 18.1 6.62 7.7 2.93 27.12 8.64 28.11 18.92.7 7.3-12.45 15.27-2.46 19.87 5.05 2.33 10.63 3.99 15.81 6.08 7.29 2.94 8.2.84 12.91-5 3.76-4.66 7.48-9.34 11.2-14.04.9-1.13 5.14-5.11 4.73-6.36-.64-1.96-6.13-3.25-7.88-3.98-24.32-10.01-48.57-20.22-72.93-30.15-49.07-20-98.4-39.47-149.04-55.18-14.35-4.45-28.73-8.82-43.11-13.17-7.41-2.24-14.81-4.5-22.22-6.73-3.53-1.06-7.07-2.1-10.63-3.08-2.55-.71-8.04-3.41-10.69-2.86-4.42.93-5.97 12.11-7.17 15.77-1.1 3.37-2.2 6.74-3.29 10.11-.6 1.87-3.97 9.01-3.32 10.97 1.18 3.52 12.58 4.41 15.68 5.18 7.15 1.78 15.19 2.81 21.71 6.25-4.48 4.23-4.19 3.95-10.68 2.29-5.54-1.42-11.05-2.94-16.57-4.42-3.47-.93-9.58-4.27-12.62-1.56-2.95 2.63-4.06 11.48-5.18 15.07-3.19 10.29-6.59 20.56-9.35 30.98-1.03 3.87-1.65 8.9-4.22 12.1-2.53 3.15-6.71 3.61-10.19 5.3-.8-4.7 3.02-12.11 4.39-16.69 1.91-6.41 3.82-12.81 5.77-19.21 3.83-12.61 7.8-25.18 11.96-37.68 1.92-5.78 3.81-11.57 5.86-17.3 2.08-5.83 4.29-12.11 5.51-18.17 1.16-5.73.57-8.59 8.12-8.6 5.68 0 11.05 2.72 16.45 4.11 50.95 13.08 101.37 29.24 150.5 48.04 50.03 19.15 99.63 39.44 149.06 60.08 3.61 1.51 13.4 3.73 15.18 7.32 1.96 3.93-2.24 9.9-4.44 12.87-7.6 10.27-15.81 20.18-23.63 30.3-3.93 5.09-7.85 10.19-11.8 15.27-2.11 2.71-10.99 10.93-10.62 14.13.36 3.02 11.52 5.72 14.24 6.75 6.24 2.37 12.48 4.73 18.69 7.18 26.87 10.59 53.19 22.73 79.41 34.81 12.51 5.77 24.81 12.02 37.36 17.7 6.27 2.84 13.28 4.72 19.04 8.56 4.9 3.27 10.43 9.47 10.43 13.47Zm-208 127c6.21-6.62 13.44-15.73 19.91-22.07 17.1-16.74 34.19-33.49 51.6-49.92 13.5-12.74 27.2-25.31 41.32-37.35 10.14-8.65 21.13-16.31 31.69-24.47.52-.4.92-1.95.88-1.96-10.54-5.21-20.89-10.94-31.77-15.35-32.49-13.17-65.16-25.9-97.86-38.54-2.32-.9-5.41-4.49-8.24-.06-4.49 7.04-9.13 13.98-13.7 20.96-6.55 10.02-13.15 20.01-19.62 30.08-4.54 7.07-9.85 13.87-13.03 21.54-2.33 5.61-5.01 5.42-9.05 3.66-13.83-6.05-27.52-12.42-41.4-18.36-22.48-9.64-45.06-19.04-67.61-28.51-.46-.19-1.4-.27-1.54-.04-1.6 2.54-3.11 5.14-4.61 7.74-11.67 20.2-23.34 40.41-34.97 60.64-.13.23.13 1.01.38 1.11 5.54 2.19 11.22 4.05 16.64 6.51 27.02 12.26 54.06 24.48 80.91 37.1 29.33 13.78 58.46 27.97 87.67 42.01 4.02 1.93 11.61 6.13 12.38 5.31Zm4.68 3.11a6.248 6.248 0 0 1-7.14 2.26c-10.5-3.67-20.41-9.68-30.31-14.62-12.08-6.02-24.17-12.03-36.31-17.92-24.95-12.11-50.28-23.45-75.6-34.75-12.56-5.6-25.16-11.15-37.73-16.73-3.35-1.49-6.71-2.98-10.06-4.47-2.65-1.18-7.24-2.26-9.26-4.41-4.23-4.5.68-9.95 3.17-14.09 7.05-11.73 13.84-23.63 20.74-35.45 3.71-6.36 7.41-12.71 11.11-19.07.86-1.49 3.9-4.84 3.03-6.82-.62-1.41-7.09-3.24-8.55-3.9-3.15 10.78-11.26 20.75-16.92 30.46-6.16 10.57-12.22 21.19-18.13 31.9-1.74 3.16-4.57 11.26-8.12 13.1-3.85 1.99-12.1.37-16.23.17-11.94-.57-23.84-1.92-35.72-3.12-24.26-2.47-48.47-5.28-72.81-6.76-12.39-.75-24.78-1.45-37.17-2.09-9.45-.49-19.26-2.82-24.92 6.49 10.58 2.85 21.18 5.36 31.73 8.65 11.01 3.44 21.96 7.05 32.81 10.98 23.11 8.38 45.89 17.68 68.52 27.25 44.11 18.65 87.37 38.93 130.02 60.71 18.83 9.61 37.49 19.53 56.05 29.66 5.61 3.06 11.22 6.13 16.84 9.18 4.23 2.29 7.29 4.91 12.08 3.36 8.84-2.87 17.44-6.86 26.31-9.82 10.39-3.47 20.79-6.93 31.18-10.39 9.48-3.16 16.9-5.38 24.39-12.31 14.41-13.32 27.65-27.91 42.08-41.25 31.8-29.4 65.52-57.1 99.85-83.49 4.27-3.28 8.56-6.53 12.85-9.78 3.72-2.81 10.16-6 12.86-9.76 5.46-7.59-7.62-10.68-12.88-13.18-19.57-9.28-39.16-18.51-58.84-27.56-19.89-9.15-39.97-17.86-60.1-26.46-9.72-4.16-19.48-8.19-29.28-12.14-2.84-1.15-10.42-5.88-13.38-5.11-2.2.57-5.4 6.23-6.29 8.52-1.34 3.43-2.01 2.47 1.83 4.11 2.43 1.03 5.05 1.76 7.55 2.62 5.04 1.73 10.09 3.42 15.1 5.22 9.31 3.34 18.36 7.24 27.43 11.17 20.08 8.7 40.06 17.6 60.04 26.51 5 2.23 9.99 4.45 14.99 6.68 2.28 1.01 10.89 3.21 11.31 6.04.44 2.92-4.81 7.73-6.72 9.3-3.4 2.78-7.12 5.19-10.69 7.75-16.54 11.86-31.29 26.59-46.32 40.29-15.78 14.37-31.39 28.92-46.49 44.02-7.5 7.5-14.92 15.07-22.38 22.61-5.33 5.39-11.12 10.34-15.51 16.44ZM262.81 311.64c9.89-2.35 19.76-4.71 29.67-6.96 5.22-1.19 10.43-2.42 15.67-3.5 4.76-.99 10.97-3.23 15.77-2.73 8.21.86 14.03 11.8 18.54 17.67 6.63 8.63 13.11 17.37 19.54 26.14 12.58 17.16 24.08 35.04 35.64 52.89 5.49 8.47 10.96 16.96 16.45 25.43 2.76 4.26 5.53 8.52 8.23 12.82 1.16 1.85 3.99 6.35 3.68 8.62-.22 1.6-2.19 3.98-4 4-4.99.05-12.69-15.39-14.79-18.67-6.34-9.89-12.71-19.78-19.12-29.63-11.11-17.08-22.34-34.04-34.43-50.45-2.94-3.99-3.63-5.22-8.58-4.82-3.51.28-8.34 3.07-11.73 2.35-2.88-.61-3.19-3.02-4.68-5.14-2.36-3.35-5.38-6.39-7.95-9.6-2.69-3.36-4.64-6.18-9.28-5.87-4.2.27-8.79 2.32-12.81 3.45-4.28 1.21-8.56 2.42-12.84 3.65-4.21 1.21-12.79 1.96-15.76 5.42-2.75 3.2 1.36 6.35 2.97 9.29 1.21 2.22 5.02 8.65 4 11-1.2 2.76-7.07 4.64-9.54 5.41-6.11 1.91-12.23 3.79-18.35 5.69-21.1 6.56-41.9 13.94-62.66 21.5-9.55 3.48-19.1 6.99-28.65 10.47-4.25 1.55-16.75 3.65-12.99 9.93 4.37 7.32 12.28 13.84 17.79 20.4 6.64 7.9 13.4 15.7 19.99 23.64 27.93 33.61 53.53 69.29 79.97 104.06 3.97 5.22 3.84 5.65 9.92 3.15 4.44-1.83 8.9-3.62 13.35-5.41 10.12-4.07 20.26-8.11 30.28-12.44 19.37-8.37 37.93-17.76 57.96-24.59 21.83-7.44 43.74-15.31 66.07-21.11 5.32-1.38 9.2-1.15 6.39-7.12-1.24-2.63-6.86-8.36-5.17-11.15.79-1.3 6.15-2.85 7.74-2.27 2.88 1.06 3.88 5.67 5.2 8.05 1.75 3.16 7.12 8.24 6.8 11.96-.36 4.1-4.06 4.35-6.86 5.09-12.28 3.24-24.41 7.56-36.46 11.56-11.04 3.67-22.06 7.43-33.08 11.19-11.66 3.98-23.98 7.29-35.1 12.61 26.82 23.86 57.09 43.69 83.7 67.87 6.21 5.65 12.39 11.27 18.94 16.53 2.57 2.06 5.55 3.59 6.08 7 .4 2.59-1.13 10.4-2.16 13.12-1.89 4.99-7.58 5.87-12.13 7.11-9.64 2.62-19.27 5.28-28.89 8.01-33.14 9.38-67 18.12-99.45 29.69-7.73 2.76-10.44-1.01-16.73-5.41-7.49-5.24-14.93-10.56-22.37-15.89-14.83-10.62-29.58-21.39-44.79-31.46-30.1-19.94-61.52-38.32-92.65-56.59-14.91-8.75-30.38-16.52-45.4-25.09-3.53-2.01-7.06-4.03-10.62-5.99-3.36-1.85-8.27-3.39-11.13-6.03-2.04-1.89-4.64-5.8-5.03-8.5-.52-3.53-1-5-.04-8.11 2.06-6.65 5.56-9.12 10.78-11.54 8.16-3.78 16.23-7.75 24.35-11.61 16.42-7.82 33.26-14.62 50.05-21.59 8.06-3.35 16.13-6.69 24.18-10.05 4.43-1.85 4.66-1.12 2.85-4.57-2.13-4.07-6.89-8.14-9.91-11.65-11.61-13.48-23.37-26.82-34.94-40.34-6.31-7.38-12.6-14.78-18.85-22.21-3.36-3.99-16.24-15.36-14.78-20.36.97-3.34 6.86-5.11 9.49-6.59 4.09-2.29 8.2-4.56 12.42-6.59 8.71-4.19 17.78-7.69 26.82-11.11 37.07-14.03 113.37-34.11 113.39-34.04Zm52.37 337.58c31.57-11.67 64.31-20.6 96.51-30.4-21.97-17.78-43.65-35.89-65.96-53.25-4.99-3.88-9.99-7.74-14.99-11.6-3.15-2.43-6.85-6.44-11.19-6.06-5.91.52-13.76 5.45-19.23 7.67-5.54 2.25-11.07 4.52-16.61 6.78-4.45 1.81-10.26 5.5-15.12 6.09-4.91.6-8.55-5.56-11.38-8.79-7.81-8.9-14.75-18.61-21.93-28.02-7.75-10.16-15.47-20.35-23.17-30.55-2.67-3.54-5.76-10.28-9.75-12.37-3.8-1.99-10.2 2.32-13.65 3.75-21.43 8.83-46.71 16.1-67.6 26.47-.98.49-1.07 1.85-.17 2.47 5.55 3.8 15.01 8.44 21.07 11.99 8.18 4.78 16.18 9.88 24.24 14.86 16.23 10.04 32.37 20.23 48.35 30.65 34.12 22.26 68.7 44.87 100.6 70.31ZM78.35 523.56a6.577 6.577 0 0 0 .31 9.47c.45.4.89.76 1.36 1.08 2.6 1.77 5.49 3.13 8.26 4.66 13.54 7.48 27.09 14.95 40.61 22.46 11.97 6.64 24.03 13.15 35.85 20.06 10.34 6.04 20.38 12.59 30.59 18.84 7.98 4.89 16.15 9.49 24.03 14.54 12.55 8.04 25.14 16.05 37.35 24.59 17.61 12.32 34.85 25.2 52.42 37.58 1.83 1.29 5.06 1.66 7.28 1.08 4.16-1.07 7.97-3.47 12.09-4.75 14.48-4.49 29.03-8.75 43.57-13.06 13.04-3.86 26.08-7.73 39.14-11.49 11.42-3.28 22.94-6.23 34.27-9.8 1.88-.59 3.05-3.57 4.39-5.54.16-.24-.48-1.26-.96-1.68-12.85-11.14-25.64-22.35-38.61-33.34-9.45-8-19.07-15.81-28.76-23.53-11.46-9.12-23.11-18.01-34.62-27.07-5.3-4.17-10.33-9.18-17.62-3.85-.38.28-.57 1.64-.33 1.82 12.74 9.8 25.77 19.26 38.29 29.34 17.43 14.05 34.5 28.54 51.64 42.95.56.47.67 2.59.18 3.03-1.49 1.32-3.26 2.64-5.14 3.16-8.64 2.43-17.48 4.23-26.03 6.92-21.97 6.91-43.82 14.2-65.74 21.28-4.24 1.37-8.09 2.64-12.39-1.24-5.5-4.97-11.93-8.92-18.09-13.13-22.81-15.57-45.64-31.13-68.55-46.56-9.71-6.54-19.64-12.77-29.5-19.09-12.71-8.15-25.36-16.41-38.22-24.31-14.3-8.78-28.83-17.18-43.15-25.93-.52-.32-.36-3.34.25-3.65 4.58-2.4 9.28-4.57 14.06-6.55 20.55-8.52 41.14-16.96 61.72-25.4 2.95-1.21 5.96-2.27 8.94-3.4-2.21-3.26-4.38-6.54-6.66-9.74-.26-.36-1.25-.56-1.69-.36-6.77 3.08-13.43 6.42-20.27 9.33-10.41 4.41-21.08 8.24-31.4 12.85-18.51 8.26-36.91 16.8-55.2 25.55-1.34.64-2.5 1.66-3.69 2.9Zm185.42-184.09c-1.03-2.98.13-6.25 2.76-7.98 1.4-.91 2.82-1.72 4.35-2.19 11.63-3.56 23.43-6.58 35.12-9.94 4.92-1.42 10.23-2.41 14.21.86 4.19 3.44 7.91 7.95 10.48 12.73 3.36 6.24 7.79 5.67 12.94 3.82.53-.19 1.11-2.05.78-2.54-4.5-6.6-8.98-13.23-13.85-19.56-2.11-2.73-5.45-7.07-7.65-6.74-12.17 1.8-24.23 4.56-36.21 7.47-19.16 4.65-38.33 9.33-57.3 14.65-21.08 5.91-42.16 11.94-62.84 19.08-18.12 6.26-35.68 14.14-53.47 21.35-.48.19-1.12 1.31-1.02 1.42 8.41 9.91 16.87 19.77 25.37 29.6.33.38 1.22.69 1.63.52 5.17-2.19 10.18-4.82 15.46-6.67 37.32-13.09 74.71-26 112.02-39.11 1.32-.46 4.84-1.91 4.44-3.26-1.29-4.34-5.54-8.64-7.23-13.53Z" class="cls-7"/><path d="M717.24 141.12c6.76-.12 32.53-.52 48.78.4 16.78.95 33.52 2.81 50.27 4.2 32.5 2.71 64.57 8.05 96.81 12.85 32.63 4.86 65.06 10.74 96.94 19.23 11.27 3 26.27 2.97 25.16 18.93-.51 7.32-2.92 14.92-4.36 22.12-1.72 8.56-3.43 17.12-5.17 25.67-3.68 18.11-7.49 36.2-11.3 54.28-1.89 8.96-3.57 17.99-5.67 26.91-.78 3.3-1.32 7.67-3.73 10.15-2.32 2.39-6.45 4.06-9.29 5.67 5.59-27.74 12.56-55.16 17.85-82.97 1.27-6.68 2.95-13.44 3.79-20.19.87-6.95-5.62-6.5-11.29-7.91-5.92-1.47-12.96-2.34-18.52-4.86-5.22-2.37-5.13-7.67-5.29-12.89-.15-4.69.66-10.72-2.08-14.86-2.75-4.17-7.99-5.04-12.49-6.07-6.59-1.49-13.17-3.03-19.81-4.28-5.35-1.01-12.01-2.9-17.43-1.19-3.29 1.03-5.55 3.3-7.35 6.16-1.44 2.28-2.41 4.89-3.42 7.37-1.03 2.54-2 8.13-4.04 10.04-3.08 2.9-13.2-.46-17.21-1.06-6.86-1.03-13.73-2.06-20.6-2.99-27.68-3.75-55.43-7.26-83.29-9.36-14.06-1.06-28.14-1.79-42.24-2.3-6.75-.25-13.49-.46-20.24-.72-3.6-.14-7.19-.29-10.79-.47-2.17-.11-6.48-1.29-8.46 0-3.27 2.14-1.87 7.82-1.82 11.17.1 7.25.15 14.5.19 21.75.09 13.98.24 27.96.47 41.94.23 13.94.47 27.87.86 41.81.19 6.91.44 13.83.7 20.74.08 2.03-.69 7.79.38 9.68 1.51 2.65 5.39 2.07 8.15 2.4 31.13 3.75 62.19 7.71 93.17 12.59 15.89 2.5 31.74 5.2 47.58 8.01 8.22 1.46 16.45 2.9 24.67 4.38 7.45 1.35 16.26 1.76 23.29 4.56-4.1 2.9-12.87 2.7-17.8 3.06-7.48.54-12.43-2.37-19.29-4.65-13.44-4.46-29.28-3.97-43.31-5.31-30.41-2.91-60.54-7.14-90.75-11.7-7.38-1.11-14.74-2.14-22.22-2.13-4.59 0-9.78.8-12.23-4-2.66-5.21-.94-14.93-1.1-20.65-.23-7.71-.46-15.42-.66-23.12-.83-31.06-.65-62.12-1.16-93.19-.28-17.2-.84-34.4-1.26-51.6-.09-3.66-1.82-11.95.91-15.19 2.91-3.45 8.91-2.29 15.67-2.42Zm270.98 68.31c0 2.33-.71 5.95.28 8.18 1.33 2.99 4.35 3 7.38 3.83 6.12 1.68 13.91 5.09 20.25 5.26 6.22.17 5.52-8.45 6.4-13.35 1.09-6.05 3.92-14.26 3.31-20.38-.57-5.6-10.97-5.3-15.52-6.18-7.12-1.38-14.21-2.97-21.29-4.52-14.24-3.11-28.49-6.07-42.83-8.63-50.47-9.03-101.09-15.89-152.17-20.37-25.54-2.24-50.72-3.45-76.37-3.07-8.22.12-8.22 1.41-8.01 9.37.16 6.27.4 12.54.67 18.81.12 2.68-.57 6.54 1.69 8.27 1.62 1.24 6.17.46 8.05.51 5.86.16 11.71.55 17.56.81 52.43 2.34 104.91 5.99 156.85 13.83 4.28.65 11.17 3.42 15.34 1.88 3.15-1.17 4.28-5.37 5.5-8.15 4.61-10.45 11.34-16.55 23.4-15.71 12.12.85 24.12 4.21 35.94 6.81 4.79 1.05 8.69 4.13 11.33 8.53 2.32 3.87 1.82 9.87 2.24 14.27ZM686.36 367.47c-7.71 2.91-7.26-17.91-7.9-22.33-1.76-12.22-3.53-24.44-5.38-36.65-3.66-24.15-7.48-48.27-11.36-72.38-.99-6.17-1.14-7.62-7.53-7.37-4.69.19-13.01 2.67-17.45 1.34-7.63-2.28-4.77-16.7-10.09-21.94-3.21-3.16-7.53-2.85-11.68-2.64-6.08.31-12.17.64-18.25.91-5.58.25-11.18.64-16.75.65-4.58.01-8.58-.23-11.94 3.46-2.61 2.87-3.09 6.44-2.89 10.18.18 3.58 2.54 13.33-.02 15.93-2.45 2.48-12.99 1.17-16.21 1.35-6.38.36-12.71 1.14-19.06 1.9-24.57 2.95-49.15 6.04-73.56 10.13-24.2 4.06-48.18 9.23-72.21 14.17-5.33 1.09-7.75.62-5.34 6.33 2.43 5.76 5.15 11.41 7.72 17.11 4.96 11 9.89 22.01 14.68 33.09 9.63 22.31 19.9 44.76 27.51 67.86 3.57 10.84 7.19 21.55 11.58 32.1 1.03 2.46 3.79 10.33 4.79 12.33-.72.56-5.04 1.04-6 1-3.3-.14-3.85-1.27-5.39-4.57-10.09-21.7-16.07-45.49-25.4-67.57-9.58-22.66-19.23-45.3-29.2-67.8-9.62-21.72-19.39-43.4-29.7-64.8-1.5-3.12-4.46-7.28-1.44-10.35 3.09-3.15 11.98-4.27 16.3-5.37 11.56-2.96 23.44-4.92 35.17-7.08 47.83-8.82 96.03-15.13 144.54-18.75 25.38-1.9 50.8-3.06 76.22-4.32 11.43-.57 24.21-2.54 35.56-.93 6.67.95 6.16 2.7 7.41 9 1.2 6.07 2.43 12.14 3.62 18.22 4.67 23.86 7.57 47.93 11.54 71.9 4.02 24.22 8.21 48.37 11.49 72.71.61 4.54 5.01 15.49-3.36 13.2ZM560 224c-1.02-6.15-.18-12.04 2.67-16.79 2.97-4.95 8.31-5.25 13.54-5.82 13.42-1.45 27.09-2.22 40.59-2.21 4.63 0 9.92.05 13.23 3.85 3.28 3.76 5.49 10.66 6.92 15.43 1.3 4.33.79 5.65 6.1 5.43 3.84-.17 14.6.71 16-3.13.81-2.24-1.4-8.03-1.82-10.33-.46-2.58-.94-5.16-1.42-7.74-1.04-5.57-.2-12.1-7.04-11.87-12.09.41-24.28 1.66-36.38 2.29-25.25 1.32-50.49 2.7-75.69 4.91-49.85 4.37-99.25 10.33-148.35 20.11-6.21 1.24-12.4 2.51-18.6 3.78-5.06 1.03-12.65.08-10.59 6.36 3.03 9.23 8.79 17.46 11.95 26.56 3.08 8.87 13.16 3.53 20.31 1.99 12.2-2.63 24.4-5.21 36.66-7.54 24.69-4.7 49.6-8.14 74.5-11.45 12.36-1.65 24.72-3.24 37.07-4.93 5.56-.76 11.92-.26 17.3-1.31 4.16-.81 4.04-1.58 3.04-7.58Z" class="cls-7"/></g><g id="line02_fox"><path d="M568.97 320.91c-.02.34.02.68.11 1.02.31 1.33 2.01 1.8 2.97.82.26-.27.49-.55.66-.87 5.21-9.75 10.07-19.71 15.49-29.34 7.31-12.98 15.25-25.6 25.04-36.91 1.19-1.38 2.95-2.5 4.66-3.15 2.12-.8 4.09-.39 5.56 1.92 3.64 5.74 3.88 12.32 4.81 18.7.77 5.26 1.07 10.59 1.64 15.89.06.59.37 1.51.76 1.62.48.14 1.19-.35 1.73-.67 2.07-1.24 4.03-2.67 6.17-3.75 4.95-2.49 8.81-.41 8.09 5.02-.99 7.52-2.72 15.02-4.99 22.26-1.05 3.36-2.67 6.53 2.41 5.56 4.42-.84 5.85 4.47 4.41 8.8-2.31 6.92-4.84 13.84-8.13 20.33-5.43 10.69-5.71 10.54-4.41 22.23.64 5.76.63 5.69 6.25 4.37 13.59-3.2 27.48-5.48 40.71-9.81 8.48-2.78 17.07-3.4 25.61-4.91 7.42-1.31 15.01-1.68 22.54-2.28 7.36-.58 18.57-1.51 25.95-1.76 1.81-.06 37.94 3.93 54.98 4.51 24.12.82 47.76 5.29 71.51 8.92 4.85.74 9.71 1.99 14.56 1.99 4.72 0 9.57-.84 14.15-2.1 16.02-4.41 31.96-9.12 47.9-13.81 15.18-4.47 29.24-11.49 42.94-19.28 1.11-.63 2.38-1.52 2.89-2.61 2.68-5.69 8.38-7.59 13.1-10.68 2.15-1.4 4.48-2.54 6.77-3.71.39-.2.99.02 1.5.04-.49 3.95 1.73 1.29 2.37.8 11.06-8.23 22.41-16.13 32.95-24.99 9.66-8.11 18.76-16.96 27.49-26.08 5.41-5.65 9.77-12.33 14.41-18.69 1.18-1.62 1.91-1.67 3.33-.57 3.96 3.05 4.29 7.75 4.81 11.96 2.07 16.57 2.27 33.22-.73 49.69-1.74 9.54-3.86 19.09-6.82 28.31-4.12 12.84-11.88 23.73-20.53 33.96-7.89 9.33-16.52 17.86-27.36 23.73-5.69 3.08-11.72 5.55-17.6 8.29-1.26.59-6.04 5.6-7.67 6.1-6.43 2.01-12.88 3.96-19.31 5.95-.76.23-1.48.55-2.23.82.67.35 1.3.81 2.01 1.03 5.84 1.79 11.78 3.31 17.53 5.34 9.51 3.37 19.04 6.74 28.3 10.71 8.92 3.83 17.46 8.56 26.28 12.64 5 2.31 7.02 6.39 7.76 11.39.37 2.52.67 5.11.52 7.64-.38 6.43-4.32 10.22-10.16 11.91-4.4 1.27-8.95 2.26-13.5 2.66-9.72.86-19.49 1.68-29.24 1.71-8.98.03-17.96-1.04-26.94-1.54-6.68-.38-13.38-.57-20.06-.96-8.14-.48-16.28-.91-24.4-1.68-7.95-.76-15.85-2.45-23.81-2.74-7.72-.28-15.49.64-23.23 1.11-10.08.61-20.16 1.46-30.25 1.9-8.89.39-17.86 1.13-26.68.33-11.58-1.04-23.15-2.9-34.5-5.43-8.21-1.83-15.99-5.47-24.05-8.06-8.08-2.6-16.13-5.8-24.45-7.06-8.84-1.33-17.94-1.03-26.95-1.09s-17.53.05-26.29.22c-12.21.23-24.44.08-36.64.65-10.85.51-21.67 1.72-32.51 2.51-18.03 1.32-35.89 3.97-53.19 9.17-23.95 7.2-47.74 14.95-71.49 22.77-9.69 3.19-19.1 7.25-28.67 10.81-5.37 2-11 1.48-16.55 1.12-.68-.04-1.55-1.29-1.86-2.14-2.89-8.17-.3-15.71 2.79-23.19 1.17-2.84 2.38-5.67 3.49-8.54.31-.81.32-1.74.47-2.62-.87.04-1.81-.11-2.61.15-12.27 3.89-24.34 8.63-36.84 11.46-7.46 1.69-14.59 4.02-21.71 6.54-7.6 2.69-15.05 5.81-22.61 8.62-7.5 2.78-14.72-.89-15.87-9.08-.87-6.2 1.38-11.72 4.25-16.88 2.53-4.55 5.39-9.08 8.9-12.89 4.47-4.86 9.69-9.05 14.68-13.41 1.73-1.51 3.18-2.88 2.61-5.67-.1-.5.96-1.19 1.48-1.57 3.16-2.32 6.1-4.42 10.73-3.57 2.57.47 5.73-1.67 8.5-2.92 12.65-5.73 25.9-9.53 39.47-12.27 4.48-.91 8.97-1.75 13.48-2.51 1.88-.31 1.66-1.05.91-2.35-2.5-4.32-4.54-8.95-7.44-12.97-4.02-5.58-2.83-11.14-1.46-17.07 4.53-19.65 12.24-38.13 20.44-56.43 1.55-3.46 1.91-6.71 1.29-10.5-1.69-10.28-1.64-20.65 1.96-30.53 1.26-3.47 3.89-6.76 6.67-9.28 3.43-3.1 6.8-1.98 8.81 2.28.88 1.86 1.28 3.95 1.92 5.92.14.44.37.84.56 1.26.36-.32.78-.6 1.07-.98 5.28-7.05 10.25-14.37 15.91-21.1 3.82-4.54 8.57-8.32 13-12.32 1.37-1.24 3.06-1.19 3.97.65 1.17 2.35 2.59 4.75 2.99 7.27.91 5.81.95 7.16 1.85 17.57s-1.28 29.57-2.13 44.32Zm540.47-41.52c-.41-4.36-1.1-11.97-1.87-19.56-.07-.72-.71-1.38-1.08-2.07-.54.46-1.15.85-1.61 1.38-4.94 5.73-9.5 11.82-14.85 17.14-7.51 7.47-15.52 14.44-23.42 21.5-18.32 16.37-38.5 30.59-60.27 41.99-9.53 4.99-18.91 10.55-28.95 14.24-18.33 6.73-36.92 12.89-55.73 18.09-9.4 2.6-19.54 3.53-29.32 3.43-8.97-.09-17.9-2.62-26.86-3.98-10.92-1.66-21.82-3.59-32.8-4.72-15.71-1.61-31.46-3.06-47.22-3.71-11.42-.47-22.92.24-34.35.89-8.41.48-16.77 1.72-25.15 2.6-7.46.78-32.92 2.07-37.98 3.05-14.66 2.87-29.26 6.12-43.79 9.6-6.98 1.67-6.82 2.04-6.92 9.13 0 .71-.25 1.41-.55 2.11-.37.88-1.54 1.08-2.19.36-.57-.63-1.13-1.27-1.66-1.94-.27-.34-.23-.96-.27-1.45-.62-7.62-1.24-15.25-1.82-22.87-.12-1.57.16-3.38-2.3-1.49-.5.38-2.15.2-2.44-.26-1.12-1.76-2.49-3.67-2.72-5.64-1.89-16.1-3.48-32.23-5.34-48.34-.39-3.36.02-4.87 2.84-8.22 3.58-4.27 5-7.44 4.29-12.43-1.13-7.9-1.88-15.85-2.95-23.76-.28-2.1-1.03-4.16-1.75-6.18-.58-1.63-1.59-1.79-2.71-.37-2.84 3.59-5.86 7.04-8.51 10.77-13.17 18.49-24.26 38.17-33.64 58.84-.41.91-1.67 2.13-2.43 2.06-6.35-.59-12.68-1.41-19.01-2.24-2.69-.35-2.03-2.31-.69-2.96 1.79-.87 4.06-1.12 6.1-1.03 4.23.18 4.41.12 4.7-4.16.52-7.63 1.25-15.26 1.67-22.89.67-12.07.54-24.13-1.72-36.07-.64-3.39-1.6-3.91-3.76-1.39-7.12 8.33-14.61 16.46-20.74 25.5-10.47 15.43-18.96 32.02-26.41 49.16-7.05 16.21-13.36 32.63-17.64 49.81-1.48 5.94-1.93 11.38 1.88 16.75 3.17 4.46 5.73 9.36 8.57 14.05 1 1.65 1.51 3.12-1.42 3.67s-6 1.33-8.95 2.18c-12.97 3.71-26.34 6.37-39.01 10.93-18 6.48-34.48 15.83-46.87 30.94-4.85 5.92-9.12 12.48-10.23 20.26-.38 2.69.44 6.04 1.89 8.36 1.46 2.33 4.69 1.92 7.13.84 19.37-8.54 40.23-13.11 59.16-23 7.59-3.96 16.66-5.16 25.1-7.43 4.54-1.22 9.49-1.3 13.11-4.86 3.32-3.26 6.36-6.81 9.78-9.95 7.2-6.58 15.6-11.31 24.54-15.1 9.44-4 25.62-7.32 35.87-7.47 8.35-.12 16.71.18 25.06.29.71 0 1.75.24 2.12 1.32-.37 1.93-.94 1.8-1.68 2.23-.79.47-1.91.48-2.88.5-8.37.19-16.76.05-25.12.54-17.13 1-33.02 6.07-47.19 15.88-9.08 6.29-17.21 13.58-22.09 23.82-1.24 2.6-2.68 5.13-3.64 7.83-2.1 5.88-4.3 11.77-5.78 17.82-1.08 4.4.88 5.6 5.26 4 13.58-4.96 27.03-10.31 40.77-14.73 22.84-7.35 45.81-14.32 68.85-20.99 8.91-2.58 18.12-4.34 27.31-5.68 11.4-1.66 22.91-2.67 34.39-3.66 11.41-.99 22.83-1.86 34.27-2.33 9.27-.38 18.57-.19 27.85-.05 19.87.29 39.75.35 59.59 1.17 19.68.82 39.36 2.14 58.98 3.85 14.07 1.23 28.07 3.3 42.07 5.27 23.12 3.26 46.16 7.19 69.33 9.99 15.07 1.82 30.3 2.3 45.48 3.08 14.17.73 28.37 1.64 42.54 1.4 10.11-.17 20.41-.59 30.03-4.91 2.71-1.22 3.75-3.18 3.28-5.38-.39-1.84-1-6.73-7.75-9.47-7.76-3.98-15.37-8.42-23.48-11.49-15.69-5.94-31.63-11.22-47.56-16.52-12.84-4.27-26.24-5.8-39.6-7.6-25.43-3.43-50.8-7.29-76.19-11.06h-.04c-1.79-.29-2.08-2.79-.49-3.66.3-.16.59-.32.89-.47.33-.17.82-.08 1.24-.04 8.43.83 16.89 1.47 25.29 2.55 18.6 2.39 37.02 6.48 55.99 5.2 7.09-.48 14.27.17 21.34-.5 7.48-.71 14.97-1.99 22.28-3.73 7.14-1.7 14.03-4.43 21.09-6.5 10.05-2.95 18.61-8.58 26.63-14.99 13.56-10.84 24.99-23.37 32.26-39.56 9.21-20.51 11.93-42.07 12.52-67.48ZM804.25 457l-.07.42c9.38 3.01 18.7 6.26 28.17 8.98 13.38 3.85 27.29 5.5 41.21 5.13 13.62-.36 27.23-1.17 40.84-1.78.68-.03 1.34-.21 2.02-.32-.71-.3-1.39-.75-2.12-.86-13.23-2-26.44-4.14-39.71-5.86-16.15-2.09-32.32-4.07-48.53-5.6-7.21-.68-14.53-.1-21.8-.11ZM642.24 292.15c-.05-1.11-1.18-1.87-2.2-1.44-4.96 2.05-9.77 5.97-12.04 8.29-5.12 5.23-6.01 7.84-5.37 12.8 1.88 14.75 3.49 29.54 5.25 44.31.09.74.59 1.43.9 2.15.57-.54 1.33-.97 1.68-1.63 2.89-5.34 5.95-10.61 8.47-16.12 2.03-4.43 3.5-9.14 5.01-13.8.77-2.36-.35-3.63-2.75-2.57-1.69.75-1.65.78-3.2 1.86-3.55 2.65-4.19-.92-4-2 .49-2.76 1.03-3.36 2-6 5-15 6.39-22.29 6.24-25.85ZM515 304c0 6.01 1.33 6.85 1.91 7.72.13.19.39.23.58.09.36-.25.74-.49.93-.84 1.1-1.95 2.21-3.91 3.15-5.95 2.77-6.04 7.44-11.03 6.44-19.03-.32-2.56-.71-7.37-3.35-7.19s-6.03 4.93-6.65 7.19c-1.87 6.9-3 12-3 18Z" class="cls-1"/><path d="M529 365c-2.54 2.59-4.22 4.29-5.95 7.34-6.87 12.15-4.07 25.95 6.28 35.85 11.78 11.26 24.88 7.74 35.22-2.38 1.36-1.33 2.42-2.97 3.72-4.36.43-.47 1.33-.99 1.78-.82.53.19 1.2 1.15 1.13 1.67-.24 1.6-.4 3.45-1.31 4.66-5.24 6.9-12.42 11.19-20.73 12.87-7.37 1.5-14.27-1.34-20-5.79-9.11-7.08-14.22-16.7-14.47-28.32-.26-12.03 5.13-21.57 15.64-27.2 4.3-2.3 7.1-1.39 6.65-7.74-.06-.79.39-1.85.99-2.36.39-.33.8-.64 1.22-.93 1.15-.81 2.76-.49 3.51.69.35.54.61 1.1.65 1.66C543.49 352 542 355 542 356c1 0 4.97 1.23 7.11 1.75 11.86 2.9 19.45 10.23 22.49 22.09.92 3.6 1.66 7.26 2.26 10.93.06.37-.1.79-.33 1.21-.39.72-1.34.91-1.99.42-.34-.26-.62-.53-.76-.87-1.58-4.02-3.1-8.07-4.41-12.19-2.06-6.45-5.64-11.26-11.87-14.59-7-3.75-13.12-4.65-20.51-2.75-1.01.26-5 3-5 3Z" class="cls-1"/><path d="M523.85 381.94c-.37-1.13.29-2.4 1.46-2.62.24-.05.44-.04.57.06 1.17.94 1.12 1.62 2.12 4.62s1 4 3 6c1.26 1.26 2.62 1.3 4.04.02 5.42-4.89 10.95-9.67 16.52-14.4.25-.21.58-.34.93-.44.95-.25 1.9.5 1.89 1.48 0 .37-.05.73-.18 1.05-.46 1.11-1.27 2.15-2.16 2.98-5.24 4.85-10.52 9.67-15.9 14.36-.71.62-2.28.92-3.13.58-6.02-2.41-7.26-7.92-9.15-13.69ZM532 364c4-3 11 0 12 1s1.06 2.71.67 3.34c-2.65 4.3-11.5 4.17-13.98-.22-.53-.94-.7-2.12 1.3-4.12ZM562.9 350.94c.52-.54 3.43.01 3.59.55.62 2.15.69 4.49.75 6.76.02.74-.48 1.67-1.03 2.21-.87.85-2.24 2.2-2.96 1.97-1.13-.36-1.55-.27-2.24-1.43-.42-.7-1-1-.85-4.16.14-2.84 1.29-4.38 2.75-5.9Z" class="cls-1"/></g></svg>