<!-- This Source Code Form is subject to the terms of the Mozilla Public
- License, v. 2.0. If a copy of the MPL was not distributed with this
- file, You can obtain one at http://mozilla.org/MPL/2.0/. -->
<svg xmlns="http://www.w3.org/2000/svg" id="tabsError" viewBox="0 0 1595 887"><defs><style>.cls-11,.cls-12,.cls-13,.cls-14,.cls-19,.cls-21,.cls-22,.cls-23,.cls-24,.cls-29,.cls-9{stroke-width:0}.cls-9{fill:#41230d}.cls-11{fill:#d0b27d}.cls-12{fill:#da7826}.cls-13{fill:#cfb27c}.cls-14{fill:#d05b57}.cls-19{fill:#feb92c}.cls-21{fill:#febcad}.cls-22{fill:#f1ecf0}.cls-23{fill:#fee6e3}.cls-24{fill:#fb9d8b}.cls-29{fill:#fbbfb8}</style></defs><path id="_00_errorMatte" fill="#fbd3cb" stroke-width="0" d="M78.5 534v-.5c.45-2.81.13-6.61 2.1-8.86 2.52-2.88 8.95-4.56 12.49-6.13 8.72-3.85 17.47-7.84 26.31-11.4 19.51-7.85 39.56-14.63 59.31-21.89 8.82-3.24 17.56-6.68 26.46-9.7 1.98-.67 13.8-3.93 13.83-6.51.02-2.52-62.66-72.86-69-80-2.11-2.37-7.47-3.2-9.92-5.19-2.89-2.34-4.71-1.75-3.27-5.79 2.26-6.32 11.85-11.19 17.09-14.89 6.45-4.55 12.45-9.71 19.05-14.05 29.82-19.65 60.95-36.92 91.76-54.91 15.42-9 31.43-17.07 47.12-25.61 2.51-1.37 10.52-4.15 12.01-6.78 1.46-2.58 2.55-5.55 1.17-7.79-4.11-6.64-8.05-14.26-12-21-1.66-2.83-9.49-6-7.6-9.48 1.25-2.3 7.11-3.97 9.3-5.05 7.83-3.87 15.43-8.05 23.46-11.51 17.46-7.53 34.93-15.04 52.37-22.62a3168.37 3168.37 0 0 1 102.78-42.51c16.95-6.66 34.33-12.38 51.51-18.42 9-3.16 18.05-6.11 27.17-8.9 2.71-.83 15.5 3.64 16.42 5.82 13.86 32.73 21.82 67.97 33.27 101.56 5.9 17.31 11.42 34.77 16.91 52.22 2.73 8.68 5.47 17.36 8.46 25.95.92 2.65 2.31 11.01 4.45 12.65 3 2.3 3.38-1.81 5.76-3.87 1.94 3.31 1.11 8.5 1.57 12.27.5 4.04 1.45 7.98 2.71 11.84 2.43 7.44 6.69 13.96 9.3 21.32 1.49 4.18 2.85 8.4 4.22 12.62.86 2.65 3.21 6.79 3.03 9.71-.29 4.8-7.98 4.43-11.78 5.22-8.49 1.76-17 3.46-25.3 5.98-4.17 1.27-8.29 2.7-12.38 4.24-3.08 1.16-8.21 4.43-11.54 4.59-2.6.12-4.3-.77-7.19-.34-3.76.55-7.66 1.73-11.37 2.63-8.3 2.03-16.47 4.64-24.66 7.08-14.82 4.42-29.5 9.23-44.23 13.94-4.23 1.35-6.05 1.61-3.57 5.52 2.02 3.18 5.19 6.01 7.64 8.91 4.59 5.43 8.93 11.05 13.35 16.62 4.22 5.33 11.45 10.99 14.38 17.09 2.4 4.99-3.56 6.5-7.44 8.61-13.59 7.39-27.75 13.87-41.62 20.72-28.11 13.88-56.11 27.64-83.72 42.52-6.93 3.73-13.73 7.69-20.51 11.68-3.38 1.99-6.74 3.99-10.11 5.99-2.5 1.48-7.63 3.3-9.35 5.84-3.42 5.04 5.28 10.41 8.59 13.52 5.2 4.9 9.97 10.27 14.89 15.45 20.28 21.3 39.09 44.18 58.85 65.98 9.96 10.98 20.79 21.61 29.76 33.43 2.28 3 1.77 4.75 2.94 8.05.8 2.25 3.75 4.41 3.81 6.83.06 2.57-6.28 9.89-8.62 10.99-2.81 1.33-7 1.6-10.09 2.7-3.65 1.31-7.31 2.6-10.99 3.83-7.29 2.43-14.54 4.93-21.75 7.6-14.64 5.41-29.37 10.55-43.99 16.02-27.74 10.37-54.81 22.85-83.1 31.66h-1.5c-1.73-1.54-248.32-240.86-249-245.5Z"/><g id="_01_errorScreen"><path d="M330.5 779h-2c-3.58-3.06-7.83-5.14-11.52-8.38-4.86-4.27-9.65-8.63-14.45-12.96-9.94-8.98-20.01-17.84-29.74-27.05-16.93-16.01-33.95-31.99-50.54-48.35-16.29-16.07-33.79-30.59-50.04-46.7-16.81-16.66-34.06-32.85-50.98-49.39-9.15-8.94-18.19-17.98-27.25-27.01-3.94-3.92-7.99-7.16-10.04-12.43-1.68-4.31-3.27-8.65-3.93-13.22v-.5c1.07-6.78 1.35-8.84 7.96-11.82 6.84-3.09 13.7-6.13 20.52-9.24 13.17-6 26.98-10.59 40.54-15.64 14.42-5.36 28.81-10.82 43.26-16.1 6.4-2.34 12.84-4.52 19.27-6.77 1.57-.55 5.15-1.08 5.29-3 .15-2.07-4.72-6.6-5.99-8.24.07-.1.15-.19.23-.29 17.78 12.32 32.7 29.22 46.6 45.71 14.01 16.62 27.95 33.23 41.91 49.85 7.19 8.57 23.99 37.03 28.41 36.53 3.85-.44 13.11-8.94 16.29-11.16 8.15-5.71 17.35-9.46 26.03-14.27 10.36-5.75 16.83-6.88 19.81-.93 2.67 5.33 10.04 9.83 14.07 14.18 10.86 11.74 21.27 23.87 31.91 35.81 17.87 20.04 36.33 39.54 54.15 59.63 4.39 4.95 9.84 10.03 13.21 15.78 1.55 2.64 1.63 5.68 2.88 8.41.84 1.84 2.91 3.36 2.69 5.56-.25 2.52-2.32 2.72-3.76 4.49-1.64 2-14.04 8.04-18.49 9.61-27.53 9.7-54.93 19.72-82.37 29.65-24.84 8.98-48.67 20.38-73.91 28.26Z" class="cls-21"/><path d="M210.84 462.2c-.38-.22-.76-.45-1.14-.67.31-.64.77-.51 1.37.38-.08.09-.16.19-.23.29Z" class="cls-21"/></g><g id="_02_errorScreenShadow"><path d="M328.5 779c-1.76-2.41-5.69-3.4-8.21-5.64-4.51-4-9.15-7.87-13.7-11.83-8.62-7.5-17.11-15.12-25.41-22.97-17.92-16.96-35.95-33.83-53.64-51.03-33.18-32.25-67.26-63.53-100.32-95.96-9.41-9.23-18.45-18.73-27.53-28.26-4.26-4.47-8.62-8.87-12.74-13.47-4.6-5.14-5.58-9.78-6.93-16.34v-.5c.36-2.69.22-10.48 4.75-10.07 3.3.3 10.16 8.97 12.56 11.16 9.1 8.28 17.65 17.02 26.33 25.73 18.38 18.45 36.81 36.83 55.49 54.99 36.86 35.84 73.55 71.69 111.36 106.56 9.56 8.82 18.95 17.82 28.28 26.89 3 2.91 7.84 10.09 12.2 10.54 1.92.2 4.82-1.63 6.57-2.29 3.85-1.46 7.7-2.92 11.55-4.37 24.4-9.22 48.86-18.27 73.33-27.31 24.87-9.19 49.69-18.1 75.05-25.86 6.85-2.1 5.98-2.63 9.09 2.89 3.1 5.52 2.19 4.95-1.25 9.64-2.7 3.69-2.68 5.14-7.46 6.38-5.78 1.49-11.41 3.3-17.1 5.2-25.98 8.67-51.65 18.49-77.37 27.94-14.27 5.24-28.48 10.63-42.7 16-11.35 4.28-18.82 8.63-30.19 11.98h-2ZM326.05 588.64c-.19 15.37-20.26-1.56-24.37-4.58-11.99-8.79-23.97-17.59-35.96-26.38-24.06-17.65-47.93-35.65-72.78-52.18-5.39-3.59-10.84-7.1-16.05-10.94-.77-.57-6.56-4.07-6.59-5.14-.05-1.88 6.02-3.17 7.39-3.68 12.3-4.58 24.66-9.07 36.87-13.86 5.83-2.28 9.05 1 13.63 4.93 4.68 4.01 9.25 9.09 12.08 14.56 6.04 11.69 16.06 21.33 24.65 31.32 10.29 11.95 20.61 23.9 31.16 35.62 4.99 5.55 9.79 10.82 15.82 15.26 6.03 4.44 11.19 8.08 14.72 14.75-.19.1-.39.21-.58.31Z" class="cls-24"/></g><g id="_03_errorDevice"><path fill="#fac2ac" stroke-width="0" d="M328 779c-1.49-1.71-2.67-1.45-4.67-2.57-2.14-1.21-4.15-3.55-5.99-5.14-5.58-4.8-11.16-9.6-16.68-14.46-10.23-9.01-20.09-18.41-29.95-27.82-19.58-18.69-38.82-37.75-58.44-56.37-19.58-18.58-37.16-39.13-55.59-58.87-13.66-14.64-49.64-41.89-66.67-63.77-7.09-9.11-9.18-24.77-7.73-26.26 3.11-3.21 9.92-4.75 13.91-6.65 4.72-2.24 9.94-3.13 14.42-5.5 24.34-12.87 52.28-20.65 78.14-30.3 9.42-3.51 22.63-11.18 32.94-9.54 7.06 1.12 20.29 15.71 8.65 19.53-2.66.87-4.43-.81-6.96-.56-2.42.23-5.53 2.48-7.94 3.26-7.02 2.28-71.38 26.77-77.1 29.24-3.14 1.36-13.81 3.87-13.56 6.79.12 1.37 5.6 5.81 6.57 6.81 2.05 2.13 4.1 4.26 6.15 6.38 5.3 5.49 10.63 10.94 15.89 16.47 19.22 20.19 106.15 100.75 108.92 102.13 3.15 1.57 5.74 4.16 8.33 6.49 20.32 18.26 40.67 36.39 57.33 58.16 4.48 5.85 7.5 4.81 14.03 2.56 7.17-2.47 13.56-6.1 20.71-8.64 13.47-4.79 26.8-9.94 40.34-14.54 12.98-4.41 26.11-8.19 39.27-12.01 2.76-.8 20.54-4.35 21.69-6.82 1.3-2.77-30.6-36.46-40.22-46.89-9.26-10.04-19.08-19.76-27.57-30.48-3.55-4.48-6.21-9.71-9.98-13.98-4.26-4.83-10.59-7.19-14.91-11.82-8.51-9.14.28-21.53 11.89-19.77 5.17.78 9.11 6.3 12.63 9.82 4.6 4.6 9.12 9.3 13.61 14.01 4.4 4.61 7.33 9.98 11.52 14.77 4.64 5.31 9.29 10.62 13.94 15.93 9.4 10.74 19.13 21.29 28.08 32.41 2.83 3.51 4.59 9.66 8.33 11.82 2.5 1.44 33.28 36.12 34.45 38.7 1.26 2.78 2.23 2.37-.22 4.74-1.96 1.89-3.31 5.26-5.56 6.76-5.22 3.46-10.19 4.43-16.32 6.82-26.76 10.44-53.78 20.23-80.66 30.37-6.87 2.59-13.73 5.18-20.6 7.78-5.47 2.07-12.96 3.52-17.3 7.5l-.06.55c-6.5 2.76-13.04 6.04-19.81 7.91-2.65.73-3.25.69-5.85 2.14-2.78 1.55-6.37 2.07-9.41 2.92h-2Z"/><path fill="#fde7de" stroke-width="0" d="m363.07 766.52.06-.55-.06.55Z"/></g><g id="_04_errorShadow"><path fill="#f7a28a" stroke-width="0" d="M330 778c-1.62-2.21-5.5-3.24-7.89-5.33-4.64-4.06-9.35-8.03-14-12.08-8.97-7.81-17.79-15.78-26.42-23.97-17.65-16.77-35.46-33.39-52.9-50.37-16.53-16.1-33.82-31.23-50.39-47.28-16.68-16.15-33.1-32.51-50.05-48.38-9.35-8.75-17.91-18.3-26.67-27.64-4.48-4.77-9.18-9.36-13.48-14.29-4.44-5.1-5.38-9.7-6.7-16.15v-.5c.37-2.76.2-10.39 4.75-10.07 3.68.26 11.06 9.81 13.67 12.36 9.35 9.11 18.67 18.23 27.95 27.41 17.68 17.48 35.26 35.04 53.14 52.32 36.64 35.41 72.58 71.44 110.2 105.82 9.46 8.65 18.79 17.43 27.98 26.35 2.95 2.87 8.34 10.51 12.48 11.39 4.47.95 12.87-4.23 17.18-5.86 23.9-9.03 47.86-17.9 71.82-26.76 24.63-9.1 49.2-18.22 74.35-25.81 7.98-3.17 14.88 7.22 12.94 9.92-1.76 2.46-16.71 10-21.7 11.66-26.89 8.94-53.44 19.03-80.05 28.79-13.81 5.06-27.58 10.22-41.35 15.39-12.04 4.52-20.88 9.53-32.87 13.07h-2Z"/><path fill="#f7a28b" stroke-width="0" d="M219.81 468.98c5.41 2.91 9.52 6.67 13.8 11.11 5.09 5.29 3.16 5.52-3.02 7.83-6.17 2.31-12.38 4.5-18.46 7.04-4.81 2.01-13.98 9.53-19.11 8.57-2.92-.55-6.25-4.15-8.62-5.85-2.94-2.11-5.92-4.16-8.85-6.29-1.46-1.06-4.22-2.16-3.36-3.94.69-1.44 7.07-2.8 8.59-3.37 6.76-2.56 13.52-5.11 20.32-7.56 6.24-2.24 13.29-3.7 18.72-7.54Z"/></g><path id="_05_errorWindowTop" fill="#f89b98" stroke-width="0" d="M136.5 380c4.72-7.82 12.11-12.76 19.47-18.11 8.86-6.44 17.85-12.86 27.13-18.69 18.46-11.6 36.95-23.09 55.9-33.9 19.43-11.09 39.19-21.58 58.78-32.39 4.51-2.49 9.01-4.97 13.52-7.46 3.08-1.7 11.89-4.65 13.54-7.74 1.76-3.3-2.8-7.97-4.48-10.85-2.58-4.39-5.33-8.68-7.78-13.14-1.66-3.04-5.59-7.51-6.52-10.73-1.51-5.26 6.26-7.3 9.86-9.08 10.16-5.01 20.44-9.75 30.82-14.29 21.2-9.28 42.35-18.68 63.59-27.87 39.53-17.1 79.64-32.84 120.24-47.22 9.88-3.5 19.82-6.86 29.81-10.03C588 112 590 118 597.36 142.63c1.75 5.13 3.47 10.27 5.1 15.44.96 3.07 5.69 12.44 4.61 15.37-1.03 2.81-10.61 3.96-13.59 4.79-3.68 1.02-11.92 5.11-15.57 4.21-3.32-.82-5.06-6.42-6.69-9.28-2.93-5.14-5.65-10.45-8.71-15.51-2.01-3.32-4.78-6.77-8.59-8.13-4.44-1.58-9.58.73-13.97 1.71-10.53 2.36-20.29 5.67-30.36 9.5-8.64 3.28-20.99 4.44-23.06 14.79-2.01 10.01 4.02 22.3 6.64 31.84 1.46 5.29 2.73 6.7-2.45 9.2-5.4 2.6-10.87 5.06-16.31 7.59-10.93 5.09-21.92 10.07-32.91 15.04-21.57 9.75-43.17 19.46-64.75 29.18-4.94 2.22-9.87 4.45-14.81 6.67-3.91 1.76-10.84 6.71-15.06 6.84-3.61.11-1.45-2.93-4.21-3.94-2.35-.87-10.44 5.27-12.57 6.43-10.62 5.75-21.23 11.5-31.85 17.24-4.61 2.49-6.42 2.86-7.23 8.01-.96 6.06-2.02 11.04.2 16.84 1.91 5 4 9.93 6.05 14.88 1.67 4.04 5.86 9.49 2.76 12.85-3.21 3.48-10.27 5.87-14.4 8.24-5.2 2.97-10.4 5.96-15.57 8.98-20.61 12.05-41.16 24.21-61.71 36.35-4.66 2.75-9.33 5.49-13.97 8.27-3.16 1.89-11.4 9.12-14.91 8.94-3.25-.17-6.91-6.29-9.12-8.78-3.48-3.93-7.05-7.77-10.56-11.67-7.51-8.33-14.37-16.64-23.26-23.5v-1Z"/><g id="_06_errorButton"><path d="M189.64 393.04c-16.5 1.68-17.07-25.92.47-25.62 16.8.28 15.42 26.61-.47 25.62ZM357.11 251.03c-6.73.78-12.94-5.68-12.02-12.32.95-6.87 8.65-12.46 15.36-12.61 16.53-.39 12.07 26.87-3.34 24.94Z" class="cls-29"/></g><path id="_07_blueWindows" fill="#3774fe" stroke-width="0" d="M951.01 379.01c-6.56-1.49-13.14-2.87-19.74-4.21-4.05-.82-17.17-1.43-17.91-5.36-.39-2.07 2.87-7.13 3.68-9.12 1.32-3.21 2.63-6.42 3.94-9.63 2.28-5.6 3.85-13.2 7.21-18.15.8 1.15 1.73 2.07 2.7 3.08 4.15-6.5 5.67-15.23 8.02-22.57 2.91-9.07 5.98-18.08 9.18-27.05 6-16.81 12.02-33.62 18.01-50.43 5.83-16.39 12.26-32.56 18.39-48.84 6.12-16.25 11.98-32.8 19.59-48.42 3.09-6.34 10.93-5.48 17.2-4.24 8.6 1.7 17.27 2.82 25.87 4.46 16.85 3.21 33.57 7.31 50.22 11.43 33.83 8.36 67.99 15.39 101.83 23.76 33.93 8.4 68.05 17.75 101.27 28.6 7.57 2.47 15.1 5.07 22.68 7.53 4.05 1.31 8.11 2.61 12.18 3.86 2.54.78 9.35.54 11.22 1.97 5.24 4.01 3.64 14.27 1.53 19.08-3.85 8.75-7.21 17.61-10.57 26.58-1.37 3.68-2.86 7.32-4.21 11-1.21 3.33-1.64 3.74 1.67 5.28 7.56 3.51 16.58 5.33 24.56 7.7 16.12 4.79 32.24 9.94 48.04 15.71 31.38 11.46 62.83 22.93 94.09 34.77 2.45.93 6.28 1.59 8.16 3.47-.02-.02.67 2.3.98 2.74.6.85 2.12 1.83 2.82 2.52 5.87 5.77-.92 10.78-5.02 15.89-10.5 13.08-20.47 27.1-29.43 41.28-18.33 29-35.37 58.9-51.07 89.4-7.62 14.81-14.68 29.89-22.59 44.54-3.58 6.63-7.17 13.21-10.47 19.98-3.61 7.39-6.25 15.49-10.13 22.68-3.83 7.1-12.13 8.9-19.01 12.14-8.04 3.79-16.03 7.66-24.07 11.45-16.48 7.75-33.27 14.84-49.7 22.71-6.78 3.24-13.03 8.72-20.7 8.22-7.84-.51-15.76-2.66-23.22-5.05-16.73-5.36-33.51-10.63-50.26-15.93-33.31-10.53-67.08-19.39-100.45-29.69-33.17-10.24-65.87-22.09-99.52-30.69-17.06-4.36-33.83-9.7-50.69-14.78-8.66-2.61-17.24-5.46-25.8-8.39-7.18-2.46-14.76-4.37-21.21-8.09-4.41-2.55-7.5-4.63-7.65-9.71-.18-6.48 5.22-13.56 11.79-15.26 8.35-2.16 17.83-2.51 26.41-3.46 8.41-.93 16.81-1.95 25.22-2.9 35.54-4.02 70.96-9.01 106.5-13.13 5.02-.58 15.43.08 19.71-2.82 2.66-1.8 3.09-4.85 3.84-7.73 1.32-5.09 2.53-10.21 4.05-15.24 2.25-7.5 4.48-14.99 6.58-22.54 1.15-4.16 5.91-13.31 2.54-16.65-1.78-1.77-7.92-1.99-10.18-2.53-4.13-.99-8.25-1.97-12.37-3-8.75-2.19-17.39-4.75-26.09-7.12-16.54-4.51-33.51-8.89-50.3-12.29-8.58-1.73-17.18-3.35-25.74-5.18-7.72-1.65-15.7-4.94-23.58-5.16v3.58Z"/><path id="_08_device" fill="#f6f8fb" stroke-width="0" d="m1106 410-17 60-6 5-157 20-25 4-6 9 9 12 371.53 112.52L1303 617l79-37 70-139 43-67 20.59-22.93L1502 338l-173-58-58 158-7 15-158-43z"/><g id="_09_deviceShadow"><path fill="#93aaf6" stroke-width="0" d="M1269 632.5c-4.49-1.29-9.62-2.11-13.75-4.23 1.08-1.08 2.13-2.17 3.15-3.3-5.58-2.81-12.16-4.16-18.11-6.02-5.41-1.69-11.75-4.82-17.39-5.39-6.06-.61-11.32-.17-17.39-1.97-6.11-1.81-12.18-3.79-18.28-5.63-26.19-7.9-52.42-15.65-78.59-23.59-12.94-3.93-25.88-7.82-38.84-11.69-6.36-1.9-12.72-3.79-19.09-5.69-5.03-1.5-9.45-1.53-14.55-3.13-24.37-7.61-49.11-13.78-73.46-21.41-12.87-4.03-25.71-8.19-38.53-12.39-8.13-2.66-27.91-5.9-30.73-15.68-.78-2.72-.19-8.32 2.19-10.19 3.4-2.68 9.4 1.02 12.84 2.27 12.67 4.6 25.3 9.32 38.08 13.59 52.2 17.43 105.64 31.3 158.4 46.9 26.35 7.79 52.49 16.23 78.84 24.02 26 7.69 52.29 14.67 78.05 23.15 4.14 1.37 9.6 3.2 14.04 2.84 5.82-.47 13.04-5.43 18.36-7.78 12.52-5.53 25.04-11.06 37.55-16.61 6.33-2.81 12.66-5.61 18.98-8.43 5.65-2.51 13.7-4.57 18.49-8.45 4.43-3.59 6.53-12.03 8.9-17.17 2.9-6.29 5.78-12.59 8.69-18.87 22.92-49.54 48.17-98.75 77.17-145.04 4.77-7.61 37.13-60.32 45.99-54.38.46.31 4.06 4.96 4.15 5.19.87 2.2-.24 2.84-1.78 4.8-4.15 5.27-8.48 10.38-12.5 15.76-7.51 10.06-14.48 20.52-20.93 31.29-27.67 46.24-52.46 94.98-75.38 143.73-5.47 11.64-10.86 23.27-15.9 35.1-4.34 10.2-13.59 13.27-23.61 16.79-12.47 4.38-24.48 9.7-36.57 15.05-5.81 2.57-11.63 5.12-17.38 7.81-3.22 1.5-6.41 3.06-9.61 4.61-2.18 1.06-6.46 2.19-8.06 3.84-.89.92.19 1.48-.72 2.49-1.4 1.55-4.54 2.65-6.43 3.66-4.97 2.68-8.94 1.4-13.79 4.17h-2.5Z"/><path fill="#94aaf6" stroke-width="0" d="M1321 295c.63-3.25 4.88-13.5 8-15 3.91-1.88 50.13 9.68 50.66 11.05.65 1.67-4.68 5.07-5.55 5.84C1370 300.49 1364 307 1360 310c-2.22 1.67-6.55-4.5-9.36-4.66-2.82-.16-4.26.08-6.92-.97-3.79-1.49-8.49-.88-11.53-3.97-2.72-2.77-11.07-1.01-11.19-5.4Z"/></g><path id="_10_deviceScreen" fill="#9dcffe" stroke-width="0" d="M1465 348c-14.71 23.95-29 48.16-43.5 72.24-13.92 23.11-25.75 46.95-37.65 71.14-6.26 12.72-12.53 25.44-18.78 38.17-1.3 2.64-2.6 5.29-3.88 7.94-.94 1.92-2.53 7.26-4.23 8.58-3.63 2.82-13.11-2.28-17.4-3.64-27.62-8.7-55.28-17.28-82.99-25.67-27.75-8.4-55.52-16.74-83.3-25.06l-40.69-12.18c-6.93-2.08-13.9-4.05-20.79-6.22-6.56-2.06-2.98-6.78-1.67-12.61 2.92-12.93 7.51-24.83 12.35-37.13 2.35-5.98 1.73-9.16 8.54-7.57 7.11 1.66 14.48 4.95 21.59 6.61 27.82 6.48 55.3 14.55 82.84 22.12 3.8 1.05 7.6 2.1 11.4 3.17 3.09.87 8.23 3.61 11.36 3.29 4.72-.48 6.49-11.53 8.08-15.74 5.71-15.19 11.43-30.37 17.15-45.56 5.88-15.62 11.77-31.23 17.67-46.84 5.7-15.08 10.42-31.23 17.49-45.72 4.04 4.26 11.92 4.85 17.42 6.32 6.42 1.72 12.85 3.43 19.26 5.18 12.18 3.32 23.99 7.12 35.82 11.5 24.62 9.11 49.28 18.15 73.93 27.18v.5Z"/><path id="_11_deviceScreenShadow" fill="#608ffb" stroke-width="0" d="M1287 393.75c-8 9.25-3.94-.46-2.76-4.09 1.52-4.68 3.45-9.27 5.2-13.87 1.82-4.77 4.29-9.48 5.67-14.39 1.37-4.87 1.61-9.15 3.79-13.8 4.73-10.1 8.96-20.44 13.38-30.69 2.6-6.02 6.15-22.08 14.72-21.97 4.36 2.01 9.03 2.91 13.7 4.99 3.13 1.39 6.27 2.77 9.46 4.04 1.58.63 11.8 3.77 10.84 5.04-3 4-7.43 8.97-9.81 11.4-4.49 4.58-8.85 9.28-13.13 14.06-8.85 9.86-17.34 20.04-25.84 30.19-8.13 9.71-15.65 20.85-25.21 29.1Z"/><g id="_12_blueWindowTop"><path fill="#fecbc5" stroke-width="0" d="M1351.5 229.5c-4.13 13.08-10.6 25.71-15.14 38.76-1.09 3.12-.73 4.11-3.81 4.19-2.78.07-7.41-2.78-10.02-3.75-7.51-2.81-15.03-5.61-22.55-8.41-2.7-1.01-5.66-1.22-6.19-4.07-.35-1.89 1.65-5.81 2.17-7.65 1.74-6.17 2.61-14.82.71-21.05-1.48-4.87-7.32-5.53-11.65-7.19-7.09-2.7-14.13-5.63-21.37-7.9-6.19-1.94-12.57-3.08-18.91-4.41-5.54-1.17-14.75-5.15-20.18-3.32-4.98 1.68-10.15 8.12-12.62 12.56-2.62 4.71-4.75 13.23-10.65 13.16-6.42-.07-14.64-4.32-20.87-6.08-7.83-2.21-15.68-4.37-23.59-6.28-14.56-3.52-29.14-6.92-43.73-10.3-30.15-6.99-60.31-13.95-90.49-20.81-6.76-1.54-13.53-3.06-20.27-4.65-3.17-.75-6.39-1.38-9.53-2.25-3.97-1.1-3.6-1.25-2.48-4.96 1.77-5.86 4.33-11.66 6.69-17.3 1.35-3.23 2.79-6.42 4.21-9.61 1.39-3.11 3.14-10.2 5.58-12.43 3.32-3.03 10.04-2.96 14.41-1.92 6.55 1.55 13.14 2.43 19.81 3.42 14.4 2.14 28.29 5.69 42.46 8.94 29.22 6.69 58.29 14.46 87.66 20.47 32.45 6.65 63.88 17 95.89 25.27 15.57 4.02 31.15 8.35 46.17 14.11 7.56 2.9 15.16 5.5 22.96 7.65 1.52.42 3.49 1.17 5.1 1.38 1.37.17 9.43 8.15 10.22 10.43l.49 2.01v1c-.17.33-.33.67-.5 1Z"/><path d="m1352 227.5-.49-2.01h.49v2ZM1351.5 229.5c.17-.33.33-.67.5-1v1h-.5Z" class="cls-23"/></g><g id="_13_blueWindowButton"><path fill="#feeeec" stroke-width="0" d="M1031.5 173.52v.48h-3v-.5c1 0 2 0 3 .01Z"/><path fill="#fedfdb" stroke-width="0" d="M1034 152.5c0 .15 0 .3.02.45-.68 0-1.35.02-2.03.03 0-.16.01-.32 0-.48h2Z"/><path fill="#fe9587" stroke-width="0" d="M1031.99 152.98c.68 0 1.35-.02 2.03-.03 4.15 2.65 9.22 5.58 7.9 11.42-.92 4.08-6.41 8.39-10.42 9.14-1 0-2 0-3-.01-4.64-1.54-10.72-6.16-9.05-11.98 1.66-5.75 7.69-7.4 12.54-8.55Z"/></g><path id="_14_foxMain" fill="#fe9f48" stroke-width="0" d="M1230.5 442.37c7.48 2.15 14.83 4.22 22.5 5.6 3.94.71 6.78 2.37 9.12-1.1 2.06-3.06 2.9-8.05 4.12-11.51 2.81-7.98 5.3-16.16 8.47-24 3-7.42 5.59-11.06 12.27-15.47 5.63-3.71 12.74-6.54 17.88-10.73 5.22-4.25 10.9-7.34 17.58-9.64 15.38-5.31 33.85-9.47 50.07-9.01v2c-6.3 12.43-14.62 23.86-20.15 36.68-5.19 12.02-7.77 24.44-9.31 37.36 5.92-5.15 14.45-14.43 22.35-15.94.2 5.35-2.37 11.45-3.63 16.64-1.35 5.57-2.52 11.16-3.2 16.86-1.3 10.93-2.82 21.67-6.11 32.22-1.55 4.95-4.4 8.62-5.44 13.67-1.05 5.06-5.33 9.62-8 14-5.34 8.74-6.45 15.82-17 16-15.72-1.33-29.91-10.55-44.87-14.37-15.93-4.07-31.26-10.19-47.06-14.71-8.38-2.4-16.69-5.68-24.74-9.03-8.56-3.55-16.94-5.69-25.87-8.05-8.14-2.15-16.02-3.94-23.94-6.86a69.81 69.81 0 0 0-13.24-3.49c-3.55-.58-8.86-.5-11.3-3.49 2.88-2.27 8.12-2.62 11.65-3.62 3.93-1.12 7.85-2.31 11.76-3.48 9.55-2.84 19.29-5.23 28.76-8.29 8.92-2.88 17.1-7.6 25.44-11.82 2.22-1.13 10.16-3.95 11.16-6.52.84-2.18 1.2.22-.12-1.88-.82-1.32-7.44-2.45-9.07-2.98-8.31-2.68-16.98-3.73-25.27-6.28-9.17-2.81-19-6.01-27.92-9.58-18.53-7.41-38.64-11.14-58.14-15.56-9.27-2.1-18.52-4.25-27.76-6.44-8.8-2.08-18.84-2.55-27.21-5.92-4.12-1.66-7.63-4.73-11.87-5.97-3.39-.99-6.74-1.57-10.16-2.78-9.82-3.48-19.81-4.33-30.04-5.91-9.63-1.48-19.17-3.36-28.56-5.96-6.23-1.72-18.25-2.19-20.32-9.71-1.16-4.23 1.54-8.7 2.94-12.54 1.45-3.98 2.72-7.99 3.95-12.04 2.82-9.27 5.32-18.81 9.85-27.44 7.84-14.93 28.04-28.76 43.56-14.72 6.56 5.93 8.07 18.77 8.37 27.04.41 11.13-1.72 21.88-3.09 32.87l-.99 3.41c.16.05.32.09.49.14.34-1.18.68-2.35 1.01-3.53 3.87-9.09 6.97-19.29 12.17-27.72 2.29-3.71 5.2-5.13 4.69-9.5-.56-4.75-2.56-9.64-3.4-14.39-1.59-9-3.06-19.55-1.22-28.57 2.3-11.3 9.65-3.52 14.23 1.79.15.08.29.16.44.24-.04-.18-.09-.36-.13-.54-1.19-6.42-3.64-13.67-2.42-20.24.71-3.82.32-10.47 5.21-9.56 9.31 1.74 14.22 19.02 17 26 5.76-9.44 13.16-19.51 20.16-28.12 2.97-3.65 15.92-22.02 19.96-21.03 4.11 1.01 4.94 10.63 5.29 13.77.71 6.41 1.44 12.82 1.89 19.25.82 11.79 3.83 23.42 4.49 35.15.11 1.91-2.4 9.42-1.38 10.85.99 1.39 9.88 1.28 11.91 1.88 2.9.85 7.68 4.4 10.11 2.86 1.29-.82 2.36-5.51 3.27-7.11 1.28-2.24 2.74-4.37 4.29-6.44 6.64-8.85 14.23-17.12 21.43-25.52 7.16-8.36 14.44-16.17 23.5-22.52 3.08-2.16 7.55-8.81 11.1-5.02 3.25 3.47 2.82 14.77 3 19 .58 13.41-.71 26.33-1.35 39.73 4.3-4.01 11-9.49 17.42-5.34 8.03 5.19-.48 18.79-3.43 24.2-4.35 7.97-8.53 16.27-13.91 23.6-2.36 3.22-5.58 6.33-7.26 9.98-1.83 3.96-2.18 8.96-3.05 13.19 9-6.39 19.21-10.79 30.51-7.45 9.54 2.82 15.52 14.72 18.05 23.45 3.59 12.43 3.98 24.77 5.61 37.5.77 5.98 1.92 11.97 2.5 17.97.69 7.13-4.04 5.02-9.61 4.26l-5.26-.63c-.01.12-.02.24-.04.36 1.77.18 3.54.36 5.31.55Zm-222.7-80.1c-.09-.45-.16-.37 0-.72v.72Z"/><g id="_15_foxShadow"><path d="M1034.77 278.76c-1.12-5.8-1.77-31.76 5.28-30.32 8.95 1.83 14.03 20.04 16.54 26.06 5.16-8.32 9.85-16.96 15.81-24.75 5.31-6.95 11.98-16.59 19.24-21.42.39 5.65-1.46 11.63-2.47 17.19-1.2 6.61-2.45 13.21-3.89 19.78-3 13.73-6.37 27.38-9.66 41.04-.89 3.69-4.24 10.15-.7 12.42 3.69 2.37 12.65.6 17.15 1.56 9.76 2.09 18.45 7.9 24.86 15.47 3.62 4.28 5.98 9.07 6.85 14.64.78 5.01-.88 9.76 2.53 13.85 3.35 4.01 8.27 6.27 11.46 10.52 3.17 4.22 5.01 9.4 5.38 14.66.33 4.73-.53 9.54-2.45 13.87-1.76 3.97-4.95 11.4-9.59 11.58-5.32.21-12.78-3.31-18.07-4.49-6.7-1.49-13.42-2.92-20.12-4.42-13.05-2.92-26.03-6.87-39.25-8.91-5.93-.92-10.67-2.68-16.04-5.38-5.05-2.53-10-3.35-15.28-5.24-11.82-4.23-24.05-5.45-36.4-7.26-5.63-.82-12.45-1.41-17.57-4.07-1.84-.96-2.94-3.4-4.64-4.16-2.96-1.31-6.05.56-8.93.71-4.44.23-9.63-1.83-11.68-5.93-2.64-5.27.37-10.31 2.19-15.32 4.22-11.63 6.75-23.82 11.78-35.17 2.32-5.24 5.27-10.46 9.56-14.35 2.07-1.88 4.46-3.24 6.86-4.65 2.83-1.67 3.09-2.4 5.06-.49 3.46 3.35 5.46 12.11 6.99 16.6 2.27 6.67 3.67 13.55 5.39 20.37 1.08 4.3 7.64 38.7 15.77 33.07 4.07-2.82 3.66-12.84 4.78-17 1.58-5.86 5.04-12.67 8.04-17.93 1.35-2.37 4.92-5.38 5.63-8.01.69-2.58-1.1-6.72-1.64-9.35-1.5-7.29-3.23-14.71-3.82-22.14-.36-4.58-1.64-15.31 2.07-19 4.75-4.74 10.15 3.79 12.65 6.72.16.09.31.18.47.27l-.09-.61ZM1223.7 442.31c6.5.75 12.26 3.36 18.49 5.06 3.06.84 5.48-.09 8.49.34 2.65.38 4.75 2.92 7.48 2.68 1.91-.16 3.42-1.43 4.41-3.04 1.62-2.64.4-3.12.61-5.84.48-6.43 4.66-13.94 6.8-20.04.88-2.51 1.72-7.31 3.38-9.41 1.51-1.92 3.31-2.01 5.5-3.18 5.71-3.06 9.88-6.04 16.79-5.42 15.18 1.36 16.02 14.57 16.11 27.05.1 13.69-2.5 27.29-8.49 39.69-5.77 11.94-15.28 21.53-24.4 30.95-4.38 4.52-8.23 9.02-13.76 11.95-1.62.86-2.94 2.48-4.43 3.26-3.18 1.67-5.99-.12-9.38-1.36-12.55-4.59-25.45-7.77-38.08-12.27-6.75-2.41-12.98-6.46-19.74-8.66-7-2.28-14.65-3.26-21.83-4.95-7.28-1.72-14.17-3.97-21.27-6.3-6.23-2.05-14.66-1.19-19.78-5.41 4.89-4.51 15.41-5.25 21.79-7.55 8.78-3.16 17.93-5.37 27.03-7.39 9.28-2.06 16.96-6.48 25.27-11.04 3.57-1.96 7.5-3.52 10.7-6.03 5.62-4.41 12.88-2.48 8.32-3.1Z" class="cls-12"/><path d="M1215.91 436.52c.23 4.44-1.46 3.15-5.03 2.05-4.47-1.38-9-2.49-13.56-3.47-9.43-2.03-17.93-4.33-26.93-7.81-5.08-1.97-3.63-2.93-2.19-8.31 1.28-4.79 2.55-9.59 3.82-14.38 1.27-4.76 2.9-9.54 3.87-14.36.9-4.44 7.31-26.07 14.1-26.66 8.53-.74 14.21 7.9 17.11 14.72 3.49 8.21 4.12 17.45 5.22 26.2 1.34 10.66 2.59 21.32 3.59 32.01ZM1010.83 326.51l-.99 15.99c-3.14-5.65-2.88-11.58.31-15.99h.69Z" class="cls-12"/></g><g id="_16_foxWhite"><path d="M1323 535c3.04-8.95 6.48-17.86 7.34-27.36.26-2.92-.34-6.64-.34-6.64s-8.14 5.95-11.68 7.27c1.68-7.27 5.65-19.48 4.49-29.82-7.81 7.54-10.81 13.54-25.44 18.83 3.62-7.28 3.73-7.72 5.23-11.17 1.78-4.11 4.5-8.72 5.23-13.15C1290 485 1282 490 1268 493c5.83-12.71 11.77-23.79 15.07-37.53.86-3.55 1.93-9.47 1.93-16.47-3 1-9.33 3.43-11.74 4.29-3.53 1.25-7.61 3.38-11.38 3.49.55-6.2 4.14-12.88 6.18-18.77 2.06-5.93 3.95-11.93 6.25-17.77 4.75-12.05 14.34-15.97 25.14-22.03 4.85-2.72 8.72-6.47 13.87-8.89 5.9-2.78 12.13-4.75 18.46-6.28 13-3.13 26.38-6.06 39.73-6.54v4c-4.79 4.32-7.76 12.46-10.96 18.06-3.3 5.76-6.72 11.42-9.32 17.54-5.04 11.85-7.73 24.03-9.08 36.77 2.48-2.13 19.01-17.82 22.02-15.57 2.15 1.61-4.65 21.64-5.2 24.65-1.87 10.24-2.28 20.85-4.84 30.93-2.28 8.97-10.11 35.11-26.61 52.11h-4.5ZM1208 294.5c.28 1.15 2.39 2.04 2.95 3.72.48 1.45-.58 4.22-.71 5.57-.59 5.94-.35 10.41-3.17 15.95-2.12 4.17-4.44 8.33-6.76 12.4-1.24 2.17-6.73 13.26-9.65 13.69-6.65.97 1.13-25.22 1.84-28.38.99-4.43.71-11.14 2.67-15.19 1.56-3.22 5.56-4.89 7.83-7.75h5ZM1238.06 443.58c-2.8-.4-5.66-.8-8.52-1.21-.03.18-.07.36-.1.54 7.92 2.05 15.83 4.15 23.78 6.11-10.69 4.09-23.76 4.37-35.11 5.81-2.55.32-20.83 3-24.83 2.25 4.77-4.18 12.51-6.09 17.98-9.53 2.53-1.59 5.17-4.05 7.95-5.15 2.55-1 4.39-.18 7.06.21-2.26-1.88-14.61-5.89-18.43-6.35-8.21-.97-17.37-2.3-25.25-4.75-3.73-1.16-7.06-3.42-10.85-4.62-4.08-1.28-8.2-2.39-12.24-3.82-3.8-1.35-7.36-3.51-11.16-4.75-4.2-1.37-8.86-1.6-13.15-2.82-16.73-4.75-33.56-8.61-50.61-12.04-8.23-1.66-16.27-4.32-24.5-5.83-6.28-1.15-16.69-.67-20.88-6.37-2.94-.39-5.38-2.25-8.17-3.07-2.99-.88-5.95-1.05-8.91-2.18-2.81-1.08-5.43-2.46-8.36-3.25-3.65-.98-7.5-.74-11.1-1.76 3.06-3.39 9.62-4.37 13.92-5.85 6.64-2.28 13.33-4.3 20.18-5.84 12.02-2.71 24.14-4.82 36.45-5.49 6.12-.33 12.43-.92 18.56-.74 2.41.07 4.11 1.1 6.32 1.39 2.66.36 5.13-1.22 7.55-2.07 10.13-3.58 21.61-3.56 30.82 2.48 3.61 2.37 6.68 5.59 8.69 9.42 1.63 3.11 2.11 11.91 5.15 13.67 2.74 1.59 4.33.15 14.52-1.41s15.19-4.56 15.19-4.56 1.59-8.03 3-12c1.81-5.1 6.66-10.6 12-12 10.94-2.86 20.59.37 27.83 9.04 8.68 10.39 11.17 24.78 12.11 37.98.48 6.69 1.35 13.27 2.33 19.9.49 3.3 1.32 6.87 1.28 10.21-.01 1.23-2.15 7.04-2.05 7.2.47.68 1.83-.26 1.55 1.25Z" class="cls-22"/></g><g id="_17_foxWhiteShadow"><path d="M1089 362c5.57 1.21 8.95 2.91 14.36 1.14 5.17-1.69 7.11-3.34 12.64-3.14 15 2 19 10 24 18s4.19 17.31 1 26c-1.28 3.49-2.93 6.48-5.93 8.97-3.52 2.92-8.23-.09-12.34-1.23-21.13-5.89-43.08-9.97-64.6-14.15-4.31-.84-8.86-1.35-13.06-2.65-4.01-1.24-6.74-3.89-10.75-5.27-5.51-1.89-11.08-3.56-16.61-5.4-5.21-1.74-10.06-2.24-15.41-3.35 10.58-8.02 29.97-11.33 42.69-13.93 15.37-3.14 43.95-4.58 44-5Z" class="cls-13"/><path d="M1283.13 455.28c.73-3.14 1.87-9.28 1.87-16.28-4 2-10.86 5.67-22 8 .4-2.66.65-5.6 1.19-8.23.95-4.6 3.27-9.27 4.83-13.7 1.35-3.84 6.23-14.53 8.98-16.07 7.22-4.05 15.77-7.31 23.92-4.78 7.15 2.22 9.28 8.19 9.95 15.17 1.61 16.83-.78 33.37-7.44 48.9-2.87 6.7-5.42 10.7-8.42 12.7-6.72 4.12-21 12-28.52 12.98 0 0 12.45-24.85 15.64-38.69Z" class="cls-11"/><path d="M1214.36 437.47c-9.75-1.86-46.52-10.93-47.2-12.67-1.05-2.67 2.38-9.8 3.12-12.54a4374.8 4374.8 0 0 1 4.17-15.36c.96-3.51 1.32-8.53 3.43-11.52.86-1.22 6.32-19.49 9.33-21.45 2.71-1.77 7.29-.66 9.92.66 7.16 3.6 10.8 12.78 12.75 20.06 2.53 9.42 4.04 19.68 5.12 29.35.47 4.19 3.97 22.56-.64 23.47Z" class="cls-13"/><path d="M1026.78 272.05c3.52 2.2 5.71 5.26 8.93 7.75 1.42-2.79.31-6.15.16-9.24-.24-4.86-.43-9.79-.35-14.65.11-6.64 4.12-10.45 8.6-4.37 4.18 5.66 6.55 11.37 9.13 18.21 1.85 4.92 6.67.64.74 11.26-2.46 4.41-6.51 10.6-9 15-4.74 8.37-8.6 14.83-13.71 22.99-6.29 8.01-4.19 6.68-7.29 4.01-2.41-2.07-.62-11.93-.83-14.21-.17-1.86-.88-3.66-1.1-5.53-.49-4.26-1.81-9.07-2.07-13.27-.34-5.48-2-16.98 6.78-17.95ZM1226.08 442.8c-1.29-1.4 6.59.54 6.56.7 2.35.76 22.36 3.51 20.36 5.51s-20.22 4.64-23 5c-6.59.86-33.18 3.85-36.81 3.09 4.45-4.06 11.71-5.55 16.92-8.57 5.63-3.27 9.19-7.84 15.97-5.71Zm3.77-.19v.29h1.83v-.29h-1.83ZM1267.48 493.98c-.05.08-.1.15-.16.23 0-.12.06-.19.19-.2l-.04-.03Z" class="cls-11"/></g><path id="_18_warning" fill="#fee0b9" stroke-width="0" d="M922.5 433.5h-1c-8.23-1.74-17.74-.55-26.15-.59-8.97-.05-17.94-.13-26.91-.36-16.76-.44-33.51-.16-50.26-.54-29.79-.68-59.66-2.04-89.48-2.98-29.25-.92-59.18.21-88.22-4.25-11.86-1.82-19.49-10.06-24.45-20.27-2.68-5.52 2.08-13.79 3.81-19.1 2.21-6.77 4.62-13.33 8.03-19.6 6.72-12.36 13.52-23.82 18.78-36.97 1.45-3.62 3.45-6.95 2.71-10.9-.53-2.85-2.11-5.78-2.99-8.55-2.06-6.5-3.42-13.12-2.71-19.97 2.13 1.11 3.36 8.79 4.15 11.2 1.39 4.24 2.36 9.07 4.85 12.79 4.27-2.91 6.64-9.15 9.28-13.53l10.77-17.82c6.5-10.77 13.3-21.36 19.74-32.16 6.25-10.49 12.62-20.88 19.03-31.27 6.33-10.25 11.27-21.32 17.77-31.54 11.51-18.08 22.3-37.81 35.64-54.59 5.86-7.36 15.81-12.5 25.32-12.36 9.31.14 19.91.43 26.02 8.37 6.63 8.6 11.33 18.92 16.97 28.18 5.9 9.68 11.65 19.32 16.71 29.47 9.44 18.92 19.95 37.27 29.41 56.18 9.62 19.23 20.96 37.74 31.28 56.62 5.09 9.32 9.62 18.87 14.51 28.28 2.43 4.69 3.92 8.11 4.55 13.37.59 4.88 1.9 8.05 4.62 12.12 2.94 4.38 4.1 9.45 7.31 13.75 2.51 3.37 4.78 6.45 6.52 10.32 3.94 8.78 10.27 15.47 10.86 25.64.41 7.17-2.63 19.02-8.47 23.78-7.2 5.86-15.6 6.86-24.49 7.28h-3.5Z"/><g id="_19_warningExclamation"><path d="M787.5 398c-5.36-1.3-13.09-1.78-17.4-5.48-4.93-4.23-6.13-12.32-5.71-18.4.93-13.57 10.7-23.99 24.98-21.61 10.68 1.78 22.11 5.04 23.9 17.58 2.07 14.5-8.68 26.28-22.77 27.91h-3ZM817.5 214c-.15.04-.3.09-.45.12-.03-1.01-.05-2.02-.08-3.03l.53-.09v3Z" class="cls-19"/><path d="M816.97 211.09c.03 1.01.05 2.02.08 3.03-1.91 23.6-3.37 47.18-4.6 70.83-.3 5.82-.29 11.77-.92 17.56-.54 4.95-2.33 9.63-2.83 14.62-.41 4.07 1.34 11.45-.47 15.14-2.11 4.31-8.39 2.3-12.33 2.06-5.75-.35-10.41.17-16.06.89-4.48.57-10.89 1.36-13.17-2.83-2.19-4.04-1.45-13.06-1.61-17.72-.22-6.22-.33-12.45-.46-18.68-.51-23.88-1.93-47.63-3.13-71.47-.16-3.1-.28-6.21-.42-9.32-.18-3.89-.98-5.02 2.94-5.63 5.84-.92 12.68.17 18.63.14 6.34-.03 12.69.78 19.03.19 2.7-.25 14.91-3.44 15.33 1.2Z" class="cls-19"/></g><g id="line01_fox"><path d="M1093 221c5 0 8.51 5.27 9.25 10.72 1.33 9.76 2.74 19.51 3.76 29.3 1.16 11.18 1.94 22.4 2.88 33.61.03.37.06.98.06 1.35 0 4.87.1 4.68 4.77 5.69 3.39.73 6.68 2.02 9.96 3.23 1.74.64 2.49.76 3.59-1.36 1.96-3.79 4.7-7.21 7.31-10.63 4.79-6.28 9.29-12.87 14.7-18.58 9.96-10.51 20.41-20.55 30.83-30.61 2.19-2.12 4.96-3.81 7.73-5.11 3.97-1.88 7.23-.16 7.66 4.24.92 9.61 1.66 19.25 1.95 28.9.2 6.77-.48 13.57-.69 20.36 0 .27.96.92 1.24.81 4.51-1.83 12.5-2.15 15.56 1.59 2.37 2.9 2.48 6.16 2.01 9.37-1.47 10.05-6.07 18.91-11.38 27.37-5.15 8.19-10.69 16.14-16 24.24-.46.7-.49 1.68-.72 2.52.77-.25 1.56-.48 2.32-.76 9.78-3.59 23.28-4.09 32.67 5.8 7.42 7.83 10.61 16.98 12.08 26.97 2.28 15.44 3.93 30.97 5.84 46.47.29 2.35.62 4.7.73 7.06.04.79-.69 2.32-.86 2.3-1.21-.2-5.25-.1-5.25-.83 0-4-.46-8.72-1.04-13-1.46-10.82-2.43-21.7-3.99-32.5-.96-6.65-2.35-13.28-4.09-19.77-2.2-8.23-7.76-14.2-15.09-18.02-7.2-3.75-18.98-.9-23.43 5.78-2.73 4.09-4.22 9.16-5.57 13.98-3.01 10.75-5.61 21.61-8.32 32.44-1.06 4.25-1.9 8.57-2.98 12.82-.16.63-1.24 1.6-1.6 1.49-.95-.3-5.17-1.64-4.88-2.22 1-2 1.93-6.25 2.69-9.41 3.88-16.07 8.44-31.98 12.07-48.1 3.2-14.2 5.58-28.59 8.16-42.93 1.05-5.82 2.03-11.71 2.39-17.6.98-16.21 1.74-32.43 2.3-48.65.15-4.41-.66-8.87-1.16-13.29-.18-1.52-3.53-.79-5.44.98a1144.74 1144.74 0 0 0-18.99 17.86c-11.96 11.47-22.03 24.56-31.62 38.03-.24.33-.38.73-.65 1.04-2.15 2.52-.74 4.06 1.26 5.06s2.13 1.66 2 2c-.39 1.04-1.19 1.41-2.07 1.73-4.74 1.73-8.89-1.07-13.27-2.1-3.76-.89-7.49-1.92-11.28-2.69-1.84-.37-5.38-.94-6.38-1.94s-.95-3.36-1-4c-1.19-15.32-1.69-26.95-3.08-42.25-.76-8.36-2.19-16.67-3.56-24.96-.28-1.7-.96-3.34-1.74-5.27-.49-1.22-2.12-1.44-2.93-.4-5.06 6.52-10.02 12.73-14.67 19.16-6.47 8.95-12.6 18.14-18.92 27.19-.56.8-1.87 2.06-2.16 1.9-1.12-.62-2.3-1.56-2.85-2.68-3.14-6.4-6.07-12.91-9.15-19.34-.41-.85-1.14-1.62-1.88-2.22-.67-.54-1.39-1.03-2.11-1.5-.81-.53-1.89-.17-2.22.74-.36 1.01-.7 2.01-.69 3.01.05 7.94.1 15.89.62 23.81.2 3.01-1.25 3.29-3 2.51-2.16-.97-4.03-2.64-5.9-4.16-1.13-.92-1.97-2.21-3.07-3.18-1.04-.92-1.77-1.23-2.11.82-1.47 8.73-.21 17.31 1.15 25.87.73 4.59 1.78 9.13 2.74 13.68.31 1.46.81 2.87 1.16 4.32 1.15 4.78-3.23 7.26-4.7 10.98-4.22 10.63-9.13 20.99-13.37 31.61-2.67 6.67-4.59 13.64-6.97 20.42-.26.74-1.46 1.7-2.1 1.61-.89-.12-2.29-1.07-2.36-1.77-.24-2.57-.35-5.24.1-7.77 2.42-13.65 5.37-27.21 7.44-40.91 1.59-10.51.57-20.97-3.75-30.91-1.96-4.51-9.99-8.64-14.95-8.12-8.71.92-16.01 4.7-20.85 11.72-4.19 6.07-7.6 12.84-10.33 19.71-3.67 9.25-6.43 18.87-9.43 28.38-1.08 3.43-1.66 7.02-2.59 10.51-.15.58-1.01 1.49-1.34 1.41-.85-.2-1.93-.69-2.31-1.39-1.96-3.6-.8-7.4.3-10.79 3.79-11.73 7.77-23.42 12.14-34.95 3.12-8.22 7.42-16 14.21-21.79 7.08-6.04 15.39-9.77 24.93-8.14 9.66 1.65 15.19 8.1 17.84 17.32 3.26 11.37 3.37 22.8 1.08 34.33-.12.62-.02 1.28-.02 2.85 2.04-4.21 3.69-7.66 5.37-11.09 1.09-2.23 1.96-4.61 3.36-6.62 2.11-3.01 2.07-5.85 1.43-9.45-1.93-10.74-3.39-21.59-4.54-32.45-.37-3.46.4-7.21 1.41-10.6 1.62-5.43 5.05-6.51 10.01-3.76.6.33 1.24.58 1.87.87.11-.79.26-1.57.33-2.36.51-5.55.81-11.13 1.58-16.65.37-2.67 1.44-5.37 4.78-5.9 3.38-.54 5.97.81 8.42 3.12 4.75 4.48 6.53 10.57 9.33 16.12.42.84 1 1.6 1.51 2.4.56-.66 1.17-1.29 1.67-1.99 7.94-11.02 15.78-22.11 23.86-33.03 3.15-4.26 5.99-10.98 10.99-10.98Zm97.68 119.31c.4.17.8.34 1.2.52 4.87-8.89 10.05-17.62 14.49-26.72 1.99-4.08 2.69-8.85 3.51-13.39.19-1.06-1.26-3.27-2.34-3.57-4.79-1.33-7.89 2.31-11.37 4.64-.35.23-.42.99-.49 1.53-1.06 8.49-2.07 16.99-3.18 25.47-.5 3.86-1.21 7.69-1.82 11.53ZM1337.17 447.29c.22-9.59 3.03-18.66 6.49-27.38 5.16-13.02 11.02-25.77 16.93-38.47 1.59-3.42 4.44-6.26 6.68-9.39.04-.06.08-.11.12-.17.58-.87-.14-2.08-1.17-1.93h-.02c-7.96 1.21-16.11 1.76-23.85 3.83-16.14 4.3-31.54 10.66-45.76 19.52-5.28 3.3-9.99 7.51-15.04 11.18-.86.63-2.17.65-3.27.95-.07-1.23-.63-2.71-.14-3.64 2.71-5.14 7.37-8.27 12.14-11.32 15.37-9.85 31.95-17.11 49.48-21.89 8.67-2.36 17.82-2.93 26.76-4.31 1.05-.16 2.08-.42 3.14-.58 1.12-.16 3.03-.14 3.36.32.85 1.16 1.34 2.2 1.31 3.63-.12 5.07-3.64 8.53-6.04 12.62-4.48 7.62-8.32 15.64-11.95 23.71-3.03 6.72-5.48 13.72-7.99 20.66-1.41 3.9-2.45 7.95-3.63 11.93-.08.26.04.58.07.87.46-.14 1.01-.15 1.36-.43 2.88-2.3 5.68-4.72 8.6-6.97 2.47-1.91 4.98-3.8 7.66-5.37.93-.55 2.64-.5 3.66-.03 2.87 1.32 2.01 4.03 1.56 6.22-2.6 12.39-5.37 24.74-8.05 37.11-3.69 17.04-6.96 34.24-15.68 49.66-5.09 8.99-11.21 17.21-20.52 22.38-.95.53-2.96.84-3.34.36-.88-1.12-1.18-2.76-1.42-4.25-.04-.25 1.48-.63 2.13-1.14 2.74-2.16 5.81-4.05 8.07-6.64 8.43-9.67 14.7-20.57 17.78-33.16 2.35-9.56 5-19.06 7.09-28.68 2.24-10.28 3.99-20.66 5.94-31 .07-.38 0-.79 0-1.19-.51.18-1.14.22-1.52.55-4.8 4.14-9.74 8.15-14.27 12.57-2.17 2.12-4.02 2.6-6.46 1.05-.23-.14-.14-.78-.2-1.19Zm22.76-13.57c-.06-.06-.1-.11-.15-.16-.05.1-.12.19-.15.29 0 .04.09.1.13.15.06-.09.11-.19.17-.28Z" class="cls-9"/><path d="M1133.69 352.8c.15.89.17 1.81-.08 2.68-.85 3.01 1.24 4.4 3.56 6.02 8.27 5.76 13.73 13.66 15.91 23.49 2.13 9.62-2.8 23.53-11 29.33-.89.63-2.28 1.07-3.27.84-.73-.17-4.73.73-4.81-.16 3-2 4.37-3.53 4.9-4.26 4.48-6.23 8.65-12.59 8.8-20.61.04-2.14-.26-4.28-.87-6.33-.6-2.01-1.2-1.43-4.41 0-3.48 1.54-7.49 1.84-11.23 2.84-6.6 1.75-13.15 3.66-19.76 5.38-.77.2-1.44-.01-2.44-1.01s-.13-2.3.46-2.62c3.04-1.66 6.15-3.41 9.45-4.34 7.27-2.03 14.68-3.58 22.03-5.34 2.18-.52 3.39-1.06 1.54-3.71-4-5.72-9.04-10.35-15.48-12.55-4.06-1.39-8.92-1.26-13.28-.71-5.44.68-10.77 2.39-16.07 3.93-.87.25-1.91 2-1.86 3 .41 7.84 1.17 15.67 1.59 23.51.16 2.91-.08 5.9-.67 8.75-.15.72-6.41 4.42-6.72 4.07-1.23-1.36.44-6.02.65-7.54 2.16-16.05.4-31.56-6.23-46.33-1.7-3.8-6.08-8.73-7.25-10.43s.92-3.02 1.6-2.95c3.73.42 8.6 6.97 10.92 10.6s3.08 8.44 3.32 8.64c.12-.26.27-1.96.37-2.23.83-2.31 1.26-4.89 2.6-6.84 1.01-1.46 3.23-2.93 4.84-2.85 1.17.05 2.66 2.48 3.2 4.12.56 1.69.39 3.75.09 5.57-.37 2.23.45 2.34 2.3 2.12 5.19-.61 10.4-1 15.6-1.58.5-.06 1.21-.8 1.32-1.32.35-1.68 0-3.67.79-5.05.88-1.54 1.9-2.93 4.11-3.53 2.72-.74 3.37 1.76 4.26 3.24.73 1.2.96 2.7 1.21 4.16ZM1227.03 441.92c-4.01 2.37-7.95 4.63-11.82 6.99-17.44 10.64-36.58 17.12-55.94 23.16-10.63 3.32-21.48 4.88-32.54 5.29-1.01.04-2.05-.74-3.08-1.14.68-1.1 1.17-2.91 2.08-3.16 3.28-.89 6.73-1.14 10.08-1.85 7.69-1.62 15.46-3 23-5.16 8.95-2.56 17.96-5.2 26.45-8.93 11.24-4.93 22.01-10.96 33.01-16.45.7-.35 1.72-.21 2.55-.07 1.98.34 3.93.81 6.2 1.3Z" class="cls-9"/><path d="M1111.78 363.38c1.58-.38 3.21-.49 4.83-.34 3.37.3 6.75.53 10.03 1.23 1.57.33 4.02 2.3 3.93 3.33-.15 1.69-1.84 3.46-3.26 4.78-3.91 3.62-9.31 1.62-12.31.62s-3.72-1.71-5.37-2.77c-1.01-.65-2.49-2.33-2.25-2.83.8-1.65 1.15-2.29 2.62-3.4.29-.22 1-.43 1.78-.62Z" class="cls-9"/></g><path id="line02_blue" fill="#1533fc" stroke-width="0" d="M1018 131.5c4.92 1.17 9.81 2.5 14.77 3.47 5.53 1.08 11.14 1.81 16.7 2.74 4.46.75 8.93 1.43 13.34 2.39 6.06 1.31 12.08 2.85 18.11 4.3 7.07 1.69 14.14 3.4 21.21 5.07 6.9 1.63 13.81 3.18 20.71 4.83 8.96 2.13 17.88 4.4 26.85 6.47 9.46 2.18 18.99 4.02 28.41 6.34 16.26 4.02 32.5 8.14 48.66 12.51 13.04 3.53 25.94 7.57 38.93 11.26 11.13 3.16 22.37 5.96 33.46 9.28 7.28 2.18 14.32 5.12 21.54 7.51 7.04 2.33 14.17 4.4 21.26 6.57.21.06 8.59 2.76 10.05 6.76 2.07 5.69.82 9.03-1.55 14.7-4.98 11.95-9.39 24.14-14.62 35.98-1.81 4.1-.68 4.52 2.89 5.6 16.2 4.87 32.35 9.91 48.38 15.29 14.45 4.85 28.72 10.23 43.06 15.38 6.58 2.36 13.18 4.65 19.72 7.1 10.02 3.74 19.98 7.65 30 11.38 10.13 3.77 20.32 7.41 30.47 11.14.59.22 5.71 3.54 7.64 6.44.01.02.85 2.57 1 2.5v2c-1.91 3.09-3.66 6.31-5.77 9.25-3.56 4.95-7.44 9.66-11.02 14.59-5.17 7.12-10.27 14.28-15.23 21.54-3.71 5.43-7.23 10.99-10.68 16.59-5.47 8.89-10.86 17.84-16.18 26.82-4.8 8.1-9.61 16.19-14.15 24.44-5.8 10.53-11.45 21.16-16.94 31.86-3.66 7.14-6.73 14.59-10.43 21.7-6.67 12.82-13.68 25.46-20.41 38.25-2.48 4.73-4.57 9.67-6.8 14.53-1.82 3.94-3.28 8.1-5.49 11.8-1.41 2.35-3.59 4.69-6 5.89-7.85 3.92-15.98 7.27-23.96 10.94-7.34 3.38-14.58 6.96-21.93 10.33-10.62 4.87-21.36 9.47-31.91 14.49-8.64 4.1-17.07 8.64-25.59 12.99h-1c-.31-.32-11.12-2.1-16.04-3.33-10.29-2.56-20.53-5.35-30.65-8.53-15.09-4.74-30.04-9.94-45.09-14.83-5.46-1.77-11.04-3.19-16.56-4.79-9.58-2.79-19.15-5.64-28.75-8.38-6.71-1.92-13.46-3.66-20.17-5.57-6.87-1.95-13.73-3.93-20.56-6.04-10.8-3.33-21.58-6.72-32.34-10.2-9.65-3.12-19.21-6.53-28.88-9.57-9.33-2.93-18.74-5.62-28.16-8.28-9-2.54-18.1-4.75-27.07-7.38-13.84-4.06-27.64-8.29-41.41-12.57-9.84-3.06-19.61-6.32-29.41-9.52-2.89-.94-14.48-7.62-14.62-7.78-1.16-1.36-3.22-2.57-3.4-4.02-.35-2.86-.53-6.35.8-8.67 2.15-3.75 2.43-4.3 5.8-7.03 1.77-1.44 7.78-4.05 10.35-4.43 6.66-.99 13.32-2.05 20.01-2.81 7.08-.8 14.21-1.2 21.29-1.94 4.78-.5 9.53-1.37 14.31-1.96 7.12-.88 14.26-1.54 21.36-2.49 11.12-1.48 22.2-3.21 33.33-4.66 8.06-1.05 16.16-1.8 24.24-2.74 7.09-.82 14.16-1.71 21.24-2.59 5.3-.66 10.61-1.21 15.86-2.17 1.3-.24 3.05-1.64 3.42-2.87 3.67-12.15 7.07-24.38 10.59-36.57 1.88-6.52 3.87-13.02 5.71-19.56.13-.45-.55-1.55-1.03-1.67-10.57-2.7-21.18-5.22-31.74-7.94-10.74-2.76-21.42-5.79-32.17-8.51-9.48-2.39-19-4.62-28.55-6.73-16.06-3.54-32.18-6.85-48.23-10.44-5.43-1.21-10.76-2.88-16.05-4.6-.88-.28-1.89-1.91-1.83-2.85.07-1.09-.05-4.14.9-4.48 6 0 12.9 1.19 18.76 2.46 9.49 2.06 19.03 3.91 28.5 6.05 12.24 2.76 24.43 5.73 36.64 8.59 7.85 1.84 15.76 3.47 23.56 5.5 10.23 2.66 20.34 5.82 30.6 8.4 8.48 2.14 17.13 3.62 25.63 5.68 2.18.53 3.98 2.55 6.15 3.24 6.92 2.18 13.99 3.91 20.92 6.09 12.43 3.91 24.78 8.1 37.22 12 7.43 2.33 14.95 4.35 22.45 6.44 14.59 4.07 29.18 8.19 43.82 12.08 5.09 1.35 10.35 2.05 15.53 3.06.16.03.33.07.49.12 7.54 2.11 7.35 2.04 9.9-5.4 3.13-9.12 6.56-18.13 9.97-27.15 3.73-9.88 7.56-19.72 11.39-29.56 5.19-13.35 10.48-26.66 15.63-40.02 3.75-9.71 7.27-19.51 11.02-29.21 3.68-9.51 7.7-18.9 11.25-28.46 1.78-4.78 3.19-9.98 4.58-14.9.09-.17-.53-.33-.75-.31-5.73-1.43-11.52-2.69-17.19-4.33-5.45-1.57-10.77-3.58-16.17-5.32-2.56-.83-2.31-3.38-2.07-4.77 1.06-5.99 2.92-11.84 4.03-17.82 1.29-6.93-3.9-13.72-10.57-15.6-6.07-1.72-11.79-4.69-17.86-6.43-11.78-3.38-23.66-6.41-35.57-9.32-5.69-1.39-9.96 1.25-12.96 6.41-3.38 5.82-6.95 11.58-10.98 16.96-2.17 2.9-6.08 1.55-8.86.81-15.2-4.02-30.29-8.51-45.44-12.72-9.91-2.76-19.82-5.57-29.84-7.9-13.56-3.16-27.22-5.84-40.82-8.81-23.09-5.04-46.16-10.18-69.26-15.19-4.91-1.06-9.9-1.8-14.87-2.54-.57-.08-1.63.65-1.87 1.25-2.25 5.65-4.36 11.36-6.52 17.05-1.97 5.2-4.02 10.37-5.92 15.6-4.1 11.3-8.11 22.63-12.21 33.94-2.53 6.99-5.21 13.93-7.73 20.92-2.2 6.11-4.24 12.27-6.41 18.39-3.35 9.44-6.92 18.82-10.06 28.33-2.3 6.96-4.07 14.1-6.08 21.16-.25.88-.48 1.76-.8 2.61-1.44 3.88-3.57 11.87-7.23 9.64-.21-.13.26-7.91.05-7.92-5.53-.48-2.13-4.45-2.07-6.47.07-2.44 2.02-4.77 2.83-7.25 2.81-8.65 5.33-17.4 8.26-26.01 3.66-10.74 7.63-21.37 11.43-32.06 3.52-9.88 6.96-19.79 10.52-29.66 2.98-8.26 6.06-16.49 9.12-24.72 3.06-8.22 6.14-16.43 9.26-24.63 5.09-13.38 10.11-26.79 15.38-40.1 2.62-6.63 6.13-15.98 8.68-19.58s11.55-3.1 12.05-3.1h.5Zm-81.8 367.92s-.02-.07-.02-.11c-.63.06-1.26.09-1.88.17-8.74 1.16-17.54 2.04-26.2 3.67-2.76.52-4.92 1.84-7.09 3.85-1.97 1.82-1.47 4.54.93 5.57.64.28 8.74 3.56 9.28 3.73 8.63 2.69 17.26 5.4 25.89 8.09 8.3 2.58 16.57 5.26 24.92 7.68 12.42 3.6 24.91 6.97 37.35 10.51 9.11 2.59 18.23 5.18 27.29 7.96 16.02 4.9 32 9.92 47.98 14.95 8.28 2.61 16.48 5.45 24.78 8.01 8.67 2.68 17.41 5.13 26.13 7.69 10.14 2.98 20.26 6.02 30.43 8.91 8.56 2.43 17.26 4.42 25.75 7.09 14.88 4.69 29.62 9.82 44.46 14.62 8.91 2.88 17.88 5.6 26.89 8.16 6.24 1.77 12.56 3.24 18.9 4.62 1.68.37 3.81.5 5.26-.22 5.41-2.69 10.5-6.04 15.94-8.66 10.73-5.17 21.62-10 32.44-14.99 10.34-4.77 20.65-9.59 30.99-14.34 6.5-2.99 13.07-5.83 19.55-8.87.99-.46 1.94-1.5 2.38-2.51.91-2.06 1.21-4.4 2.19-6.42 4.79-9.89 9.6-19.78 14.62-29.55 4.4-8.58 9.23-16.95 13.61-25.54 5.69-11.17 10.81-22.64 16.75-33.67 8.16-15.16 16.75-30.09 25.35-45.01 6.44-11.18 13.03-22.28 19.85-33.22 4.27-6.85 8.91-13.48 13.7-19.98 7.18-9.76 14.66-19.3 21.95-28.99.73-.98 1.36-2.34 1.32-3.51-.04-1.41-6.42-5.13-8.52-5.89-9.27-3.38-18.47-6.96-27.73-10.38-10.24-3.78-20.52-7.44-30.78-11.18-8.23-3-16.44-6.07-24.68-9.07-5.48-2-10.98-3.92-16.48-5.87-8.14-2.88-16.24-5.85-24.43-8.57-5.45-1.81-11.05-3.2-16.54-4.89-9.83-3.02-19.63-6.14-29.47-9.15-.3-.09-1.06.53-1.25.98-1.07 2.52-1.82 5.21-3.11 7.6-1.24 2.3-.12 2.7 1.71 3.24 9.81 2.85 19.64 5.63 29.37 8.73 12.49 3.98 24.94 8.09 37.31 12.44 14.59 5.14 29.12 10.46 43.58 15.97 9.63 3.67 19.08 7.81 28.62 11.73 1.96.8 4.36 1 2.05 4.26-1.35 1.9-1.09 4.89-2.32 6.93-5.68 9.47-11.62 18.78-17.49 28.13-9.14 14.57-18.7 28.9-27.32 43.77-10.32 17.8-20.03 35.96-29.67 54.14-6.38 12.02-12.27 24.31-18.22 36.55-4.69 9.64-9.11 19.41-13.72 29.09-.3.64-1.16 1.28-1.86 1.42-5.45 1.12-10.6-.51-15.66-2.13-11.92-3.81-23.76-7.87-35.65-11.78-8.99-2.95-17.98-5.87-27.01-8.7-13.66-4.28-27.41-8.31-41.02-12.74-10.78-3.51-21.33-7.71-32.13-11.16-14.44-4.62-28.98-8.94-43.54-13.15-14.47-4.18-29-8.13-43.55-12.03-3.02-.81-6.2-1.09-9.33-1.38-2.19-.2-4.61-2.39-4.12-4.16.78-2.8 1.61-5.59 2.46-8.37 1.51-4.97 3.02-9.95 4.56-14.91 3.25-10.45 6.45-20.91 9.83-31.32.66-2.04-.11-2.74-1.74-3.17-2.23-.58-4.53-.95-6.72-1.63-2.48-.76-3.27 1.54-3.42 2.57.11.31-.2.76-.31 1.14-1.2 4.27-2.38 8.55-3.6 12.82-2.62 9.2-5.52 18.34-7.79 27.63-1.47 5.99-4.15 22.37-15.7 25.27-4.01 1.11-8.41.73-12.61 1.22-13.51 1.56-27.02 3.2-40.53 4.83-10.08 1.22-20.16 2.41-30.23 3.71-9.57 1.24-19.13 2.63-28.7 3.88-5.57.73-11.17 1.33-16.75 1.96-5.81.66-11.62 1.28-17.43 1.92Zm192.13-82.79c-.35.55-.83 1.03-1.01 1.62-5.1 16.52-10.1 33.07-15.33 49.55-.75 2.37.09 2.51 1.87 2.96 13.84 3.51 27.71 6.9 41.46 10.75 15.65 4.39 31.24 8.99 46.73 13.92 14.39 4.58 28.56 9.84 42.91 14.57 12.59 4.14 25.3 7.91 37.93 11.93 22.45 7.14 44.88 14.3 67.29 21.56 2.34.76 3.28 1.18 4.67-1.81 6.98-15.1 14.37-30.01 21.8-44.89a1770.11 1770.11 0 0 1 18.64-36.26c5.12-9.69 10.24-19.39 15.88-28.78 8.26-13.75 16.96-27.22 25.5-40.8 6.24-9.92 12.57-19.79 18.8-29.72 2.05-3.26 4.02-6.58 5.78-10 .29-.56-.52-2.37-1.2-2.64-19.87-7.77-39.69-15.73-59.74-23-16.99-6.16-34.26-11.59-51.45-17.19-8.3-2.7-16.69-5.09-25.08-7.51-.71-.2-2.25.28-2.46.81-5.36 13.8-10.58 27.65-15.86 41.49-5.84 15.28-11.68 30.57-17.58 45.82-3.97 10.25-8.14 20.42-12.03 30.7-3.81 10.07-7.32 20.25-11.13 30.31-.4 1.06-2.01 2.46-2.95 2.38-4.39-.34-8.77-.99-13.1-1.81-7.6-1.44-15.23-2.84-22.74-4.7-10.31-2.55-20.56-5.37-30.75-8.33-11.02-3.2-21.96-6.65-32.92-10.07-8.95-2.79-17.86-5.7-26.79-8.57-2.25-.72-4.49-1.46-7.12-2.32ZM1328 266.01c1.27-.72 6.98-18.8 9.87-26.67 1.69-4.59 3.18-9.26 4.72-13.91.13-.4.06-1.25-.16-1.34-2.09-.92-4.18-1.85-6.36-2.54-7.66-2.41-15.38-4.62-23.01-7.12-7.08-2.32-13.98-5.23-21.13-7.31-12.83-3.74-25.81-6.95-38.67-10.58-8.21-2.32-16.27-5.15-24.49-7.44-7.9-2.2-15.91-3.97-23.87-5.96-8.76-2.19-17.49-4.54-26.27-6.62-12.31-2.9-24.67-5.54-36.98-8.43-12.56-2.95-25.07-6.12-37.64-9.07-11.67-2.74-23.37-5.31-35.05-8-5.59-1.29-11.11-2.86-16.73-3.97-12.16-2.39-24.35-4.61-36.54-6.79-2.68-.26-3.99 3.45-4.17 3.91-4.43 10.82-8.84 21.66-13.35 32.45-.74 1.78.08 2.12 1.48 2.39 7.11 1.36 14.24 2.67 21.33 4.14 11.89 2.48 23.75 5.05 35.62 7.62 9.87 2.13 19.73 4.33 29.61 6.46 12.89 2.79 25.84 5.31 38.66 8.39 12.26 2.95 24.39 6.42 36.56 9.75 12.03 3.29 24.07 6.52 35.99 10.17 3.06.94 4.2.61 6.06-2.08 4.54-6.54 7.26-12.49 12.52-18.46 1.75-1.99 7.41-4.6 9.55-4.18 12.15 2.36 24.34 4.88 36.14 8.56 10.79 3.37 21.13 8.2 31.59 12.58 1.64.69 3.01 3.48 3.71 5.04 1 2.21 1.63 3.47 1.88 5.94.29 2.78.68 5.67.26 8.39-.7 4.61-2.04 9.12-3 13.69-.11.53.39 1.62.83 1.77 5.96 1.99 11.96 3.89 17.96 5.76 3 .93 9.44 2.41 13.06 3.45Z"/><path id="line03_red" fill="#eb6b67" stroke-width="0" d="M78.5 532c.17-1.17.43-2.34.51-3.52.31-4.57 1.87-6.19 7-8.06 3.99-1.45 7.73-3.57 11.66-5.17 13.35-5.45 26.68-10.92 40.11-16.16 11.32-4.42 22.75-8.57 34.16-12.77 13.02-4.79 26.06-9.5 39.1-14.23.45-.16 1.05.05 1.47-.14 1.57-.73 3.25-1.21 1.25-3.54-9.94-11.56-19.6-23.37-29.61-34.86-9.92-11.39-20.17-22.48-30.22-33.76-4.43-4.97-8.64-10.13-13.11-15.07-1.19-1.31-3.08-1.96-4.4-3.19-.54-.5-.78-1.84-.53-2.6 1.32-4.06 4.13-6.84 7.6-9.33 7.71-5.54 15.01-11.64 22.75-17.13 7.1-5.03 14.52-9.61 21.87-14.28 9.28-5.91 18.53-11.87 27.97-17.52 8.26-4.95 16.79-9.46 25.16-14.23 6.61-3.77 13.09-7.77 19.74-11.46 9.27-5.14 18.66-10.05 27.97-15.12 9.66-5.27 19.27-10.61 28.9-15.93.29-.16.55-.37.85-.53 6.3-3.43 6.06-3.28 2.35-9.48-3.83-6.39-7.08-13.13-10.72-19.64-1.12-2-2.6-3.81-4.07-5.58-2.8-3.39-2-6.99 2.04-8.9 11.97-5.63 23.86-11.42 35.9-16.9 9.81-4.47 19.8-8.56 29.69-12.86 10.69-4.65 21.34-9.4 32.04-14.02 9.94-4.29 19.91-8.54 29.92-12.67 11.5-4.75 23.04-9.43 34.61-13.99 11.89-4.69 23.81-9.29 35.77-13.76 12.26-4.58 24.57-9.05 36.92-13.38 7.87-2.76 15.84-5.24 23.8-7.75 22.05-9.47 25.6 8.86 28 17.26 2.5 8.72 5.83 17.2 8.65 25.84 1.95 5.99 3.56 12.09 5.47 18.09 2.19 6.86 4.59 13.65 6.82 20.5 2.34 7.17 4.59 14.37 6.88 21.56 4.59 14.43 9.1 28.89 13.81 43.29 3.44 10.53 7.16 20.98 10.73 31.47 2.73 8.02 5.95 15.93 7.93 24.13 1.13 4.69-.96 9.45-4.08 12.93-.91-1.46-2.05-2.79-2.66-4.34-2.02-5.12-3.97-10.28-5.75-15.49-4.2-12.33-8.35-24.67-12.4-37.05-3.37-10.28-6.57-20.62-9.85-30.93-3.36-10.54-6.69-21.1-10.11-31.62-3.04-9.36-6.26-18.66-9.26-28.04-4.94-15.46-9.73-30.98-14.64-46.45-1.56-4.92-3.28-9.79-5.05-14.65-.16-.43-1.31-.9-1.81-.74-11.27 3.64-22.54 7.31-33.77 11.07-10.06 3.37-20.13 6.72-30.11 10.33-9.45 3.42-18.8 7.12-28.17 10.77-14.67 5.71-29.38 11.34-43.97 17.27-10.69 4.35-21.21 9.13-31.82 13.69-10.3 4.43-20.66 8.74-30.93 13.25-10.28 4.51-20.48 9.2-30.71 13.8-9.31 4.19-18.64 8.35-27.95 12.55-2.32 1.05-4.59 2.2-6.19 2.98 2.43 4.05 4.98 8.19 7.42 12.4 3.15 5.44 6.06 11.02 9.34 16.38 4.38 7.17 8.99 14.22 13.61 21.24.35.53 1.83.87 2.44.57 17.85-8.44 35.57-17.17 53.51-25.42 15.63-7.19 31.47-13.93 47.27-20.76 12.84-5.55 25.74-10.97 38.64-16.38 2.29-.96 3.44-1.7 2.49-4.82-3-9.81-5.43-19.79-8.08-29.7-1.04-3.87 2.19-11.58 5.76-13.49 17.41-9.31 35.86-15.76 55.15-19.89 4.35-.93 8.58-2.3 13.15-1.13 1.7.44 2.79 2.79 2.79 2.79s.16.91.4 1.27c2.91 4.35 6.02 8.58 8.74 13.05 2.31 3.79 4.19 7.85 6.28 11.79.27.51.64.96.94 1.46.87 1.43 1.47 3.73 2.65 4.07 1.34.39 3.18-.99 4.81-1.55 4.05-1.39 8.1-2.78 12.17-4.08.5-.16 1.46.06 1.7.44.45.69 1.01 2 .69 2.39-1.2 1.51-2.5 3.26-4.16 4.01-4.13 1.86-8.38 3.78-12.78 4.6-6.93 2.84-10.52-7.24-11.4-8.86-3.99-7.34-7.94-14.69-11.99-22-1.64-2.96-5.19-4.67-8.39-3.77-11.78 3.3-23.64 6.4-35.22 10.31-7.08 2.39-13.88 5.81-20.47 9.38-2.62 1.42-7.46 3.78-1.59 22.64 2.3 6.89 3.95 14 5.72 21.06.19.76-.46 2.34-1.11 2.61-10.87 4.56-21.91 8.75-32.71 13.48-22.93 10.03-46.45 18.74-68.32 31.15-6.94 3.94-14.64 6.51-21.94 9.82-7.52 3.41-15 6.92-22.44 10.49-.37.18-.58 1.59-.29 2.11 5.05 9.02 10.24 17.96 15.29 26.97 5.07 9.06 9.89 18.26 15.05 27.27 6 10.46 12.28 20.76 18.38 31.16 5.39 9.19 10.63 18.46 16.04 27.63 3.46 5.86 7.19 11.57 10.66 17.43 4.08 6.89 8.03 13.87 12.02 20.81.99 1.72 1.73 3.67 3.03 5.11.78.86 2.66 1.61 3.65 1.27 11.02-3.74 21.91-7.89 32.96-11.53 9.47-3.12 19.16-5.58 28.66-8.6 3.63-1.15 7.52-2.41 10.42-4.73 3.81-3.05 8.32-3.55 12.55-4.99 11.96-4.07 23.98-7.97 36.09-11.57 12.89-3.83 25.88-7.36 38.89-10.78 5.65-1.48 17.53-6.04 16.53 2.96-5.33 4.63-9.86 4.75-16.41 6.21-6.82 1.52-13.57 3.43-20.27 5.42-10.19 3.02-20.32 6.21-30.46 9.41-8.74 2.76-17.44 5.62-26.13 8.53-.32.11-.68 1.41-.45 1.69 6.94 8.43 14.02 16.75 20.92 25.2 3.62 4.43 6.9 9.14 10.46 13.62 1.35 1.7 3.27 2.96 4.54 4.71 2.35 3.26 1.74 5.49-1.83 7.28-9.92 4.98-19.88 9.88-29.82 14.83-10.22 5.09-20.45 10.15-30.62 15.32-21.94 11.14-44 22.06-65.73 33.61-13.71 7.29-26.91 15.54-40.34 23.35-.14.08-.29.17-.43.26-6.15 3.79-5.92 4.64-.55 9.56 6.46 5.93 12.44 12.38 18.49 18.75 4.61 4.85 9.04 9.88 13.47 14.89 7.37 8.33 14.6 16.79 22.04 25.07 7.69 8.56 15.58 16.93 23.33 25.44 5.17 5.68 10.23 11.45 15.35 17.17 4.72 5.28 9.61 10.41 14.09 15.88 2.31 2.83 6.46 9.56 8.34 14.81s.14 8.49-1 10c-1.72 2.27-8.5 5.81-11.42 6.16-3.86.46-7.6 2.07-11.33 3.41-13.48 4.84-27.01 9.54-40.49 14.4-12.83 4.63-25.67 9.21-38.41 14.09-13.9 5.32-27.72 10.85-41.55 16.37-6.74 2.69-13.35 5.68-20.12 8.29-3.6 1.38-11.67 4.29-15.17 4.79s-5.09-1.63-6.85-3.06c-5.29-4.33-10.37-8.93-15.44-13.51-10.72-9.68-21.45-19.36-32.06-29.17-4.89-4.52-9.42-9.42-14.26-14-5.51-5.21-11.29-10.12-16.75-15.38-10.7-10.3-21.11-20.91-31.92-31.09-9.84-9.25-20.13-18.02-30.08-27.16-7.3-6.71-14.42-13.62-21.54-20.54-10.34-10.04-20.58-20.18-30.89-30.25-7.96-7.79-15.97-15.53-23.94-23.31-4.7-4.59-9.58-9.02-14.02-13.85C77.02 543 78.52 532.67 78.52 532Zm473.3-63.25c-.59-.71-.86-1.01-1.17-1.43-3.35-4.48-6.87-8.84-10.4-13.19-7.73-9.5-15.49-18.97-23.33-28.39-.52-.62-1.87-1.12-2.61-.91-9.46 2.67-18.98 5.2-28.3 8.31-14.43 4.8-28.71 10.04-43.08 15-.89.31-2.46.14-3.06-.46-1.62-1.63-3.1-3.48-4.27-5.46-3.79-6.47-7.31-13.09-11.13-19.54-10.56-17.84-21.36-35.54-31.81-53.44-10.06-17.23-19.81-34.65-29.7-51.98-6.71-11.77-13.45-23.53-20.12-35.32-.79-1.4-1.44-1.87-3.05-.96-11.59 6.55-23.28 12.93-34.85 19.52-4.89 2.79-9.42 6.12-12.4 11.08-.62 1.04-1.57 2.36-1.36 3.35 1.07 5.16 2.01 10.43 3.87 15.33 2.54 6.71 5.92 13.11 8.77 19.71.35.82.03 2.67-.6 3.07-4.53 2.83-9.21 5.43-13.86 8.06-11.3 6.4-22.73 12.57-33.87 19.22-10.29 6.15-20.23 12.88-30.41 19.22-11.39 7.09-22.81 14.16-34.38 20.96-3.06 1.8-2.59 3.21-.72 5.3.59.66 1.56 1.74 2.14 2.41 10.76 12.65 21.57 25.25 32.25 37.97 4.31 5.13 8.22 10.6 12.53 15.73 5.5 6.54 11.31 12.81 16.82 19.34 12.12 14.4 24.12 28.9 36.2 43.33 6.82 8.15 13.76 16.2 20.5 24.42 5.79 7.07 11.35 14.32 17.07 21.44.24.3 1.21.25 1.7.03.64-.29 1.08-.99 1.69-1.35 14.95-8.8 29.93-17.54 44.85-26.39 4.45-2.64 8.69-5.64 13.05-8.43 1.43-.92 2.97-1.67 4.43-2.55 8.72-5.23 17.33-10.65 26.18-15.67 9.45-5.36 19.12-10.35 28.69-15.49 7.97-4.28 15.84-8.77 23.94-12.77 9.58-4.73 19.41-8.94 29.04-13.57 8.84-4.25 17.54-8.8 26.33-13.15 7.4-3.66 14.85-7.2 22.26-10.83.75-.37 1.4-.97 2.19-1.53Zm-91.65 215.99c-1.31-1.07-5.45-7-6.72-8.44-7.7-8.76-15.61-17.35-23.33-26.1-12.71-14.4-25.14-29.05-38.03-43.28-8.61-9.51-17.85-18.45-26.7-27.75-1.76-1.85-3.13-1.68-5.1-.52-10.27 6.03-20.6 11.97-30.93 17.9-.47.27-1.4.36-1.76.07-1.69-1.3-3.44-2.6-4.84-4.19a1022.31 1022.31 0 0 1-16.13-18.67c-6.89-8.16-13.65-16.43-20.52-24.61-10.77-12.81-21.61-25.56-32.37-38.38-5.42-6.46-10.7-13.03-16.11-19.5-.48-.57-1.6-1.2-2.15-1.01-3.48 1.22-6.85 2.76-10.32 4.02-15.62 5.64-31.33 11.06-46.88 16.87-15.88 5.94-31.61 12.29-47.44 18.36-1.88.72-1.56 1.17-.42 2.28 8.34 8.1 16.71 16.17 24.93 24.4 10.8 10.81 21.33 21.88 32.23 32.59 16.05 15.79 32.17 31.52 48.54 46.97 15.64 14.77 31.65 29.16 47.48 43.72 8.64 7.94 17.3 15.85 25.87 23.88 8.41 7.87 16.67 15.89 25.09 23.75.83.77 2.56 1.47 3.47 1.13 10.47-3.91 20.8-8.21 31.29-12.05 15.83-5.79 31.68-11.57 47.69-16.82 14.24-4.67 28.72-8.61 43.1-12.88.47-.14.45-1.44.09-1.74ZM88.63 531.43c-1.54 2.58-1.52 5.8-.07 8.43 1.22 2.21 2.62 4.73 4.41 6.93 3.11 3.81 6.91 7.05 10.4 10.55 7.6 7.59 15.07 15.32 22.82 22.76 8.34 8.01 17.07 15.63 25.38 23.66 8.21 7.94 16.02 16.3 24.19 24.27 8.43 8.22 17.05 16.24 25.66 24.27 7.76 7.24 15.7 14.29 23.4 21.59 8.11 7.69 15.98 15.64 24.07 23.36 6.97 6.66 14.12 13.12 21.14 19.72 6.61 6.22 13.07 12.59 19.73 18.74 5.75 5.31 11.71 10.4 17.57 15.6 7.46 6.63 14.9 13.28 22.37 19.9.31.28.9.58 1.22.47 1.91-.65 3.8-1.38 5.67-2.16 7.78-3.23 15.57-6.46 23.33-9.74 8.61-3.64 17.11-7.57 25.82-10.95 8.97-3.48 18.19-6.34 27.22-9.67 12.48-4.6 24.85-9.53 37.36-14.05 15.78-5.71 31.66-11.13 47.47-16.74 3.21-1.37 1.92-7.18-.69-9.88-7.54-7.81-14.26-16.41-21.51-24.5-9.86-10.99-20-21.73-29.88-32.71-11.48-12.75-22.71-25.72-34.21-38.44-10.13-11.21-20.5-22.2-30.72-33.33-1.32-1.43-2.33-1.87-4.12-.57-2.18 1.59-4.62 2.87-7.04 4.1-1.71.87-1.3 1.61-.25 2.64 6.89 6.79 14 13.37 20.58 20.43 11.2 12.02 22.11 24.3 33.04 36.56 5.83 6.54 11.39 13.31 17.15 19.9 6.25 7.15 12.63 14.18 18.84 21.36.84.98 9.68 11.69 6.5 15.28-1.31 1.48-3.31 2.59-5.21 3.22-3.91 1.29-8.02 1.97-11.94 3.22-20.1 6.42-40.29 12.57-60.19 19.53-17.07 5.97-33.79 12.97-50.72 19.36-2.26.85-3.42.44-6.11-2.16-.24-.23-.49-.64-.79-.93-3.32-3.24-6.59-6.54-9.98-9.69-12.89-11.96-25.8-23.89-38.73-35.8-12.69-11.68-25.43-23.3-38.12-34.98-8.32-7.66-16.76-15.21-24.84-23.12-15.01-14.7-29.81-29.6-44.67-44.46-10.19-10.19-20.28-20.47-30.47-30.65-6.56-6.56-13.24-13.01-19.83-19.54-1.16-1.15-3.28-3.13-3.02-3.59.94-1.6 2.53-3.13 4.23-3.91 3.83-1.74 7.89-2.97 11.82-4.48 17.98-6.86 35.93-13.81 53.94-20.61 13.29-5.02 26.66-9.86 39.96-14.85.29-.11.55-1.4.29-1.73a63.18 63.18 0 0 0-4.54-5.26c-1.23-1.28-.56-1.8-6.25.05-9.34 3.2-18.73 6.25-28.01 9.63-13.85 5.05-27.6 10.36-41.42 15.48-8.65 3.21-17.46 6-26 9.5-10.82 4.43-21.43 9.39-32.13 14.1-1.58.7-3.07 2.08-4.13 3.87Zm243.92-265.06c-.65.37-1.14.67-1.65.95-8.31 4.61-16.58 9.29-24.94 13.8-9.92 5.36-19.99 10.44-29.85 15.89-11.03 6.1-21.91 12.49-32.84 18.77-10.08 5.78-20.28 11.38-30.19 17.43a723.046 723.046 0 0 0-30.35 19.61c-11.41 7.79-22.51 16.03-33.85 23.92-1.91 1.33-1.52 2.25-.36 3.49 4.25 4.5 8.59 8.91 12.79 13.47 6.55 7.12 13.03 14.31 19.48 21.51 1.87 2.08 3.36 3.66 6.36 1.22 3.71-3.01 7.82-5.55 11.89-8.07 11.1-6.88 22.28-13.63 33.4-20.45 10.7-6.56 21.27-13.36 32.11-19.69 10.31-6.01 20.91-11.52 31.32-17.37.68-.38 1.32-2.01 1.05-2.68-1.22-3.06-2.75-6-4.21-8.97-4.88-9.87-9.47-19.77-4.32-31.05.48-1.05.26-2.75 1-3.29 6.2-4.54 12.31-9.27 18.9-13.17 9.39-5.56 19.18-10.46 28.77-15.71.52-.29 1.19-1.39 1.03-1.67-1.43-2.51-3.02-4.93-4.6-7.35-.19-.29-.63-.41-.92-.6Z"/><g id="line04_warning"><path d="M793 118.5c3.64.53 7.38.69 10.88 1.7 3.26.94 6.33 2.66 9.36 4.26 5.42 2.86 6.83 8.83 9.96 13.44 4.62 6.8 8.92 13.84 12.99 20.98 5.31 9.33 10.27 18.86 15.34 28.33 3.25 6.05 6.44 12.13 9.64 18.21 5.79 10.98 11.47 22.03 17.38 32.94 5.03 9.27 10.42 18.35 15.48 27.61 5.37 9.84 10.48 19.82 15.8 29.68 3.73 6.92 7.74 13.69 11.42 20.63 2.11 3.98 3.76 8.19 5.73 12.25 4.15 8.53 8.26 17.08 12.6 25.51 3.6 7 7.61 13.79 11.23 20.78 2.3 4.44 4.53 8.96 6.22 13.66 1.42 3.93 2 8.15 2.98 12.24.1.44.33.85.5 1.28v5.5c-1.38 3.94-2.67 7.91-4.15 11.81-3.41 8.98-11.13 12.4-19.58 14.5-3.05.76-6.37.51-9.57.5-5.83 0-11.66-.22-17.49-.26-12.5-.09-25-.04-37.5-.2-12.32-.16-24.64-.53-36.95-.78-11.23-.23-22.47-.37-33.7-.67-7.75-.2-15.5-.66-23.25-.87-5.9-.16-11.81 0-17.71-.23-7.02-.28-14.02-1.01-21.03-1.23-7.64-.24-15.3.04-22.94-.17-14.14-.39-28.29-.8-42.42-1.53-9.58-.5-19.12-1.74-28.7-2.32-7.4-.45-20.5-2.06-27.91-17.04-4.59-9.01-3.19-16.29-3.13-17.69.45-10.54 4.71-19.8 9.75-28.75 7.19-12.77 14.52-25.47 21.86-38.16 4.62-7.99 9.27-15.96 14.05-23.84 8.09-13.34 16.36-26.57 24.45-39.92 6.89-11.37 13.69-22.8 20.4-34.28 6.42-10.99 12.36-22.27 19.06-33.09 8.3-13.41 17.22-26.44 25.76-39.71 3.23-5.02 5.83-10.48 9.31-15.31 4.68-6.49 9.1-13.5 17.31-16.3 3.02-1.03 6.1-2.48 10.6-2.98s4.17-.5 6-.5Zm133.6 306.14c.07.42 9.33-1.58 13.99-2.42 7.04-1.25 8.04-7.18 9.8-12.25 2.35-6.76.27-13.27-2.76-19.4-6.49-13.11-13.37-26.04-19.56-39.29-2.89-6.19-7.37-11.38-9.51-18.13-2.23-7.04-6.25-13.55-9.79-20.13-5.59-10.4-11.47-20.64-17.17-30.98-5.4-9.8-10.76-19.63-16.06-29.49-4.08-7.59-8.05-15.24-12.06-22.86-4.05-7.69-8.07-15.39-12.15-23.06-2.43-4.56-5.03-9.02-7.43-13.59-3.15-6.01-5.99-12.2-9.32-18.11-4.07-7.23-8.35-14.36-12.84-21.34-4.11-6.38-6.96-13.51-12.51-19.05-7.34-7.32-15.93-8.39-25.3-6.05-8.8 2.2-14.35 8.49-18.86 15.99-6.93 11.5-14.07 22.88-21.09 34.33a9601.23 9601.23 0 0 0-22.88 37.44c-4.71 7.75-9.35 15.55-13.95 23.36-3.83 6.5-7.48 13.1-11.36 19.57-4.42 7.38-9.05 14.62-13.49 21.99-4.61 7.65-9.06 15.4-13.63 23.08-4.72 7.94-9.52 15.84-14.24 23.78-5.33 8.97-10.77 17.87-15.87 26.97-3.78 6.73-7.79 13.48-10.41 20.68-2.33 6.38-5.15 10.31-5.15 19.31s3.58 15.53 10.88 19.23c3.96 2.01 8.56 3.39 12.97 3.74 16.31 1.31 32.66 2.36 49.02 2.96 10.79.39 21.63-.37 32.43-.21 9.91.14 19.81.95 29.72 1.24 12.07.36 24.15.4 36.22.75 10.12.29 20.22 1 30.34 1.21 11.32.23 22.64.05 33.96.16 10.77.11 21.53.45 32.3.53 11.92.1 23.84.02 35.77.02Z" class="cls-14"/><path d="M763.9 334.25c-.4-8.6-.84-17.19-1.18-25.79-.44-11.19-.66-22.39-1.24-33.57-.83-15.89-1.86-31.77-2.89-47.66-.38-5.92-.88-11.83-1.54-17.72-.28-2.45 1.28-2.73 2.79-2.7 3.57.06 7.15.67 10.71.61 14.28-.25 28.55-.74 42.83-.99 5.4-.1 5.99.75 5.51 6.65-.51 6.43-1.28 12.83-1.66 19.27-.63 10.58-1.01 21.17-1.56 31.75-.69 13.14-1.36 26.29-2.22 39.43-.68 10.47-1.63 20.93-2.48 31.39-.18 2.17-.46 3.82-3.6 3.66-8.63-.45-17.29-.47-25.93-.61-4.58-.07-9.17-.11-13.75-.02-2.66.05-3.94-.93-3.8-3.67Zm23.34-2.36c5.07 0 10.14-.09 15.21.04 2.13.06 3-.68 3.12-2.78.2-3.53.63-7.04.85-10.57.63-9.99 1.25-19.98 1.78-29.97.77-14.47 1.3-28.96 2.24-43.42.67-10.31 1.76-20.61 2.86-30.89.22-2.05-.27-2.47-2.12-2.38-5.12.25-10.25.46-15.38.58-9.89.22-19.79.31-29.68.64-.79.03-2.18 1.45-2.19 2.25-.06 2.79.43 5.59.59 8.4.79 13.46 1.63 26.92 2.28 40.38.73 15.1 1.25 30.22 1.94 45.32.31 6.92.76 13.83 1.28 20.73.05.6 1.14 1.57 1.76 1.59 5.15.13 10.31.07 15.46.08ZM786.22 401.2c-2.94-.72-8.15-1.17-12.53-3.32-3.82-1.87-7.02-3.98-10.36-10.43-3.33-6.45-3.96-20.43 3.43-29.17 6.91-8.18 16.31-10.08 26.57-8.24 6.86 1.23 12.98 4.18 17.5 9.49 1.83 2.15 2.86 5.26 3.5 8.11 1.81 8.06.85 15.31-3.88 22.82-5.53 8.77-13.2 10.36-24.22 10.75Zm3.5-5.89c2.28-.31 6.45-1.61 9.37-3.05 7.28-3.59 10.43-9.77 10.33-17.64-.07-5.6-.8-11.13-6.36-14.33-2.22-1.28-4.69-2.14-6.9-3.44-6.91-4.1-22.39-.88-26.61 7.26-4.03 7.77-5.06 19.09 3.32 25.84 5.06 4.07 10.63 5.44 16.84 5.36Z" class="cls-14"/></g></svg>