<!-- This Source Code Form is subject to the terms of the Mozilla Public
   - License, v. 2.0. If a copy of the MPL was not distributed with this
   - file, You can obtain one at http://mozilla.org/MPL/2.0/. -->
<svg xmlns="http://www.w3.org/2000/svg" width="22" height="22">
<g class="light-mode"><path fill-rule="evenodd" d="M11.547 13.303a1.66 1.66 0 0 0
2.266-.606 1.656 1.656 0 0 0-.608-2.264l-2.994-1.727a1.656 1.656 0 1 0-1.659
2.87l2.995 1.727Z" clip-rule="evenodd"/><path fill-opacity=".2"
fill-rule="evenodd" d="M11.547 13.303a1.66 1.66 0 0 0 2.266-.606 1.656 1.656 0 0
0-.608-2.264l-2.994-1.727a1.656 1.656 0 1 0-1.659 2.87l2.995 1.727Z"
clip-rule="evenodd"/><path d="M11.425 13.515c.91.525 2.074.213 2.6-.696a1.9 1.9
0 0 0-.697-2.598l-2.995-1.727a1.904 1.904 0 0 0-2.6.696 1.9 1.9 0 0 0 .697
2.598l2.995 1.727Z"/><path fill="#fff" d="M8.658
4.792c-1.814-.534-5.204.84-3.926 3.9l-.423.168A3.578 3.578 0 0 1 2.602
5.81c0-1.978 2.262-3.318 4.242-3.318 1.54 0 1.306.94 1.814 2.301Z"/><path
fill="#7542E4" fill-rule="evenodd" d="M8.664 4.866a3.112 3.112 0 0 0-1.535-.402
3.1 3.1 0 0 0-3.11 3.09c0 .467.104.91.29 1.307a3.19 3.19 0 0 1 1.36-6.077c1.373
0 2.544.866 2.995 2.082Z" clip-rule="evenodd"/><path fill="#AB71FF"
d="M13.385.72a5.034 5.034 0 0 0-5.037.004l-4.33 2.505c.6-.305 1.218-.363
2.108.15l13.814 7.968V6.05A2.68 2.68 0 0 0 18.6 3.728L13.385.72Z"/><path
fill="#fff" d="M13.062 17.197c1.815.535 5.204-.84 3.926-3.9l.423-.168a3.578
3.578 0 0 1 1.708 3.051c0 1.978-2.263 3.318-4.242 3.318-1.54
0-1.307-.94-1.815-2.301Z"/><path fill="#E22850" fill-rule="evenodd" d="M13.097
17.15a3.092 3.092 0 0 0 4.31-4.02 3.19 3.19 0 0 1-1.318 6.096c-1.37
0-2.54-.864-2.992-2.076Z" clip-rule="evenodd"/><path fill="#FF4F5E" d="M8.373
21.29a5.034 5.034 0 0 0 5.036-.004l4.33-2.506c-.6.306-1.217.363-2.107-.15L1.818
10.662v5.299a2.68 2.68 0 0 0 1.341 2.32l5.214 3.008Z"/></g><g
class="dark-mode"><path fill="transparent" fill-rule="evenodd" d="M11.659
13.303a1.657 1.657 0 0 0 1.657-2.87l-2.992-1.727a1.657 1.657 0 1 0-1.657
2.87l2.992 1.727Z" clip-rule="evenodd"/><path fill="#7542E4" fill-rule="evenodd"
d="M8.778 4.866a3.107 3.107 0 0 0-1.533-.402 3.1 3.1 0 0 0-3.108 3.09c0
.467.105.91.29 1.307a3.19 3.19 0 1 1 4.351-3.995Z" clip-rule="evenodd"/><path
fill="#AB71FF" d="M13.494.72a5.025 5.025 0 0 0-5.031.004L4.137 3.229c.599-.305
1.217-.363 2.105.15l13.802 7.968V6.05a2.68 2.68 0 0
0-1.34-2.321L13.493.72Z"/><path fill="#E22850" fill-rule="evenodd" d="M13.097
17.15a3.092 3.092 0 0 0 4.31-4.02 3.19 3.19 0 0 1-1.318 6.096c-1.37
0-2.54-.864-2.992-2.076Z" clip-rule="evenodd"/><path fill="#FF4F5E" d="M8.488
21.29a5.025 5.025 0 0 0
5.032-.004l4.325-2.506c-.598.306-1.216.363-2.105-.15l-13.8-7.968v5.299c0 .957.51
1.842 1.34 2.32l5.208 3.008Z"/></g>
   <style>
      @media (prefers-color-scheme:dark){
         .light-mode{
            display:none
            }
            .dark-mode{
               display:block
            }
         }

      @media (prefers-color-scheme:light){
         .dark-mode{
            display:none
         }
         .light-mode{
            display:block
         }
      }
   </style>
</svg>
