<!-- This Source Code Form is subject to the terms of the Mozilla Public
   - License, v. 2.0. If a copy of the MPL was not distributed with this
   - file, You can obtain one at http://mozilla.org/MPL/2.0/. -->
<svg xmlns="http://www.w3.org/2000/svg" id="security_error_v5" viewBox="0 0 531.33 531.33"><defs><style>.cls-1,.cls-13,.cls-15{stroke-width:0}.cls-13{fill:#fe7d03}.cls-15{fill:#feedd4}</style></defs><path d="M422.97 216.4c-21.16 34.58-43.68 71.6-65.31 105.89-15.17 24.04-29.8 48.74-47.75 70.61-13.83 16.85-20.95 30.5-20.95 40.5 0 18.06 2.9 50.74 2.87 68.88-.02 10.47-.75 14.01-10.87 10.12-63.4-24.35-124.62-55.9-180.92-94.41-25.49-17.43-51.61-33.84-74.55-54.81-5.74-5.24-6.7-4.93-1.53-7.78 11.12-6.14 23.54-11.54 35-17 5.8-2.76 6.93-9.47 3.92-14.06-9.31-14.17-19.12-28.04-27.87-42.54-16.18-26.82-15.94-18.77 1.35-44.75 4.02-6.04 8.62-11.7 12.55-17.79 1.31-2.04 1.93-4.91 1.9-7.39-.55-46.02-1.54-92.04-1.76-138.06-.07-14.5 1.49-29.03 2.92-43.49.99-9.96 2.36-9.31 11-3.91 40.81 25.54 75.77 64.06 106 101 4.23 5.17 37.29 3.67 45-1 0 0 9.6-18.29 14.19-26.91 16.34-30.66 36.87-58.33 59.5-84.51 2.1-2.43 6.24-5.41 8.54-4.8 3 .8 6.53 4.57 7.35 7.71 5.13 19.55 9.47 39.31 14.33 58.94.91 3.66 1.6 12.97 4.09 15.57 13.88 14.46 20.49 26.92 23.23 46.28.6 4.26 1.63 11.96 4.77 14.72 21.86 19.13 72.96 60.55 73 63Z" style="fill:#fda519;stroke-width:0"/><path d="M47.37 162.15h-.82l-.82-.04V100.3c.52-.02 1.03-.03 1.55-.02.03 20.62.06 41.25.1 61.87Z" style="fill:#fee9d5;stroke-width:0"/><path d="M47.27 100.28c-.52 0-1.03 0-1.55.02V83.94c.55-.02 1.1-.02 1.65-.02-.03 5.45-.07 10.9-.1 16.36Z" style="fill:#fef2e7;stroke-width:0"/><path d="M311.19 387.47c3.62-20 17.36-95.18 19.79-110.81.5-43.88-.11-87.66-6.66-131.24-2.37-15.75-2.02-31.91-2.8-47.89-.08-1.69.59-3.41.91-5.12 1.55 1.15 3.4 2.05 4.61 3.49 10.55 12.51 14.56 27.62 16.73 43.37.83 6.05 2.33 10.81 7.76 15.17 20.96 16.84 41.22 34.56 61.76 51.94 9.24 7.81 9.95 9.67 3.81 19.74-20.15 33.01-40.36 65.98-61.02 98.67-13.39 21.18-27.62 41.83-41.47 62.72l-3.41-.03ZM140.77 334.29c22.76.21 43.39 17.46 45.7 39.79.69 6.64-.81 15.19-4.68 20.29-12.4 16.35-26.29 31.59-39.95 46.95-1.22 1.37-5.65 1.6-7.42.5-17.7-11.03-35.1-22.54-52.73-33.68-3.81-2.41-3.83-4.66-1.69-8.09 11.05-17.69 21.63-35.68 33.13-53.07 6.29-9.5 16.43-12.8 27.63-12.69Z" class="cls-13"/><path d="M47.27 100.28c.03-5.45.07-10.9.1-16.36.66-12.06.9-24.17 2.21-36.16.42-3.84 2.86-8.79 5.9-10.5 1.85-1.04 7.85 1.49 10.48 4.15 14.87 15 20.78 35.15 27.75 54.7 9.05 25.41-1.04 48.97-9.75 71.3-3.79 9.71-33 19-36.61-5.25-.03-20.62-.06-41.25-.1-61.87Z" style="fill:#fe7e05;stroke-width:0"/><path d="m311.19 387.47 3.41.03c-1.08 1.09-2.16 2.17-3.24 3.26-.06-1.1-.11-2.19-.17-3.29Z" style="fill:#fea14a;stroke-width:0"/><path d="m310.05 394.16-.13-.59.45.08-.32.51z" style="fill:#fed0a5;stroke-width:0"/><path d="M424.54 217.81c-4.99 8.21-9.94 16.44-14.97 24.62-15.79 25.68-31.26 51.55-47.51 76.94-15.58 24.34-31.91 48.2-48.06 72.18-3.35 4.98-6.86 10.03-11.14 14.16-7.02 6.77-10.07 14.29-9.41 24.21.8 12.07.2 24.23.2 36.36v46.74c-5.53-1.26-10.23-1.63-14.33-3.39-25.72-11.06-51.19-22.7-76.96-33.64-28.18-11.96-54.47-27.27-80.1-43.83-.73-.47-1.32-1.16-3.08-2.74 10.57-4.02 19.82-6.82 30.8-11-1.58-2.17-21.49-18.09-29-25-10.62-9.77-20-21.83-29.94-32.29-5.79-6.09-11.12-12.7-16.07-19.5-4.6-6.31-8.4-13.19-12.61-19.78-11.68-18.28-23.45-36.5-35.05-54.83-3.96-6.26-3.56-8.53 2.09-12.94 19.23-14.98 41.32-19.21 64.58-13.66 27.68 6.61 112.67 37.35 124 43 0 0 .4-17.62 9-27 22-24 54.53-24.69 59-25 29-2 44.62 14.93 46 16 16-28 41.29-29.95 55.84-31.39 7.17-.71 14.36-1.52 21.55-1.61 5.05-.06 10.12 1.02 15.17 1.59v1.82Z" style="fill:#feedd3;stroke-width:0"/><path d="M86.15 102.4c.82-5 2.72-9.67 5.82-14 1.88 3.42 20 41 25 57-11.02 8.81-26.51 19.33-37.88 28.72-8.18-8.01-11.52-18.8-14.15-29.28-2.67-10.66-.79-26.56 4.03-37.44 5.15-11.63 5.67-8.78 17.18-5ZM317.97 87.82c13.29 9.68 19.52 23.7 23.35 38.97 1.64 6.55 2.2 13.36 3.6 22.29-5.44-2.87-9.27-5.36-13.45-6.97-5.56-2.15-5.74-6.36-6.58-11.4-2.38-14.36-5.75-28.56-8.73-42.82.6-.02 1.21-.04 1.81-.07Z" class="cls-15"/><path d="M320.97 86.82c-.6.03-1.21.05-1.81.07-.7-4.28-1.39-8.56-2.09-12.84.66-.11 1.32-.21 1.98-.32l1.92 13.1Z" style="fill:#fef4e5;stroke-width:0"/><path d="M112.87 379.14c12.97 6.58 26.33 12.16 40.94 13.66 38.34 3.92 74.06-1.91 103.86-28.88 1.34-1.22 2.64-2.51 3.82-3.88 7.18-8.29 6.57-8.22-1.26-16.09-7.49-7.54-15.06-14.46-21.26-25.55 0 0 2.09.75 2.53 1.01 19.41 11.87 39.02 15.09 60.47 9.99s42-28.19 42-49-12-33-12-33c12-17 30.27-26.92 39-29 21-5 36.68-4.74 46-2 6.34 1.86 5.74 1.21 3 6-8.09 14.17-15.1 26.36-24 40-29.04 44.54-56.01 90.84-87 134-10.24 14.26-20.97 17.85-20 35 1.16 20.43 3.11 54.5 3 75-.04 8.2.73 9.32-6.99 6.31-18.55-7.22-37.13-14.44-55.28-22.6-36.65-16.47-111.33-59.63-112.74-60.72 1.65-1.03 20.99-7.25 28-9 4.02-1 4.54-1.39 1.56-4.25-3.91-3.76-8-7.34-11.77-11.25-8.13-8.44-22.76-18.97-30.79-27.5.75-.07-1-3 8.89 1.74Z" style="fill:#fea19a;stroke-width:0"/><path d="M321.31 84.93c6.56 9.98 14.39 19.37 19.29 30.11 4.27 9.36 5.37 20.21 7.62 30.45.93 4.2-1.05 4.27-4.56 3.02-10.06-3.58-16.78-8.68-17.5-20.99-.83-14.28-4.12-28.43-6.34-42.63l.75-.06.74.09Z" style="fill:#fea59d;stroke-width:0"/><path d="M97.43 97.36c6.15 14.09 13.77 33.8 19.54 48.05 0 0-15.43 12.59-15.47 11.75-.08-1.94-.48-7.26-.53-7.75-2-21-6.8-39.28-10-57-.27-1.51 5.93 3.74 6.46 4.95Z" style="fill:#fea7a0;stroke-width:0"/><path d="m321.31 84.93-.74-.09-.75.06c-.68-2.55-1.37-5.11-2.05-7.66.88-.15 1.75-.29 2.63-.44.3 2.71.61 5.42.91 8.14Z" style="fill:#feddda;stroke-width:0"/><path d="M506.96 71.23c.54-.27 1.01-.18 1.41.28v9.05c-.51.01-1.02.05-1.52.12l.12-9.44Z" style="fill:#efa0a3;stroke-width:0"/><path d="M506.85 80.67c.51-.06 1.01-.1 1.52-.12v5.43c-.51.03-1.01.06-1.51.1v-5.41Z" style="fill:#f5cacb;stroke-width:0"/><path d="M506.85 82.67v5.41c-1.73 28.51-3.38 57.02-5.25 85.52-.29 4.36-1.55 8.66-2.36 12.99-4.88-1.47-10.02-2.36-14.6-4.51-11.64-5.47-16.88-14.62-18.09-28.21-2.37-26.6-6.77-53-10.21-79.5-2.56-19.67-2.45-19.77 15.8-13.55 11.66 3.97 23.21 8.26 34.82 12.41l-.12 9.44Z" style="fill:#e24f53;stroke-width:0"/><path d="M495.24 227.66v.9c-.09 20.01-.18 20.19-17.16 10.75-2.57-1.43-5-5.14-5.47-8.14-1.3-8.27-1.58-16.71-2.17-25.09-.37-5.27 2.1-6.61 6.46-4.28 5.47 2.91 10.95 5.84 16.1 9.29 1.48.99 2.36 3.75 2.52 5.78.28 3.56-.22 7.19-.39 10.79h.12Z" style="fill:#e25256;stroke-width:0"/><path d="M287.76 518.76c-39.19-12.68-76.12-30.7-112.51-49.55-25.94-13.44-50.68-29.29-75.41-44.94-18.89-11.96-37.15-24.96-55.23-38.14-10.63-7.75-20.83-16.93-31.69-25.95-.49-.4-.49-1.16 0-1.56 14.69-11.8 31.97-17.09 47.44-26.96-14.45-23.34-28.84-46.59-43.2-69.78 5.82-17.1 18.54-28.83 27.45-41.39 0-16.83-.13-32.52.02-48.21.41-42.69.67-85.39 1.64-128.07.19-8.46.93-17.5 6.45-25.13 19.3 5.31 33.46 18.11 48.1 30.14 27.92 22.96 52.09 49.55 73.98 77.12 16.01-1.58 20.92-2.07 36.93-3.65 21.71-42.73 46.7-86.68 85.23-119.29 7 0 9.33 9.71 11.04 18.22 3.8 18.92 8.15 37.74 12.43 56.57.58 2.55 1.49 5.41 3.19 7.25 16.04 17.37 23.22 38.43 25.94 61.96 25.92 22.27 52.03 44.71 78.87 67.77-42.09 71.08-82.61 142.46-134.05 207.13.64 27.18 1.44 54.39 1.79 81.6.06 4.97.79 17.49-8.43 14.85Zm46.66-270.8c10.58 13.11 14.87 27.45 9.94 43.47-5.32 17.3-14.71 28.29-27.64 32.29-.79.24-1.34-.78-.7-1.3 4-3.2 7.56-5.86 10.62-9.02 9.74-10.07 16.69-21.68 15.74-36.3-1.87-28.66-31.11-46.83-52.91-43.58-9.57 1.43-19.28 2.4-28.64 4.72-19.11 4.72-34.38 14.4-39.8 34.94-.82 3.11-1.29 8.04-2.05 12.24-3.88-.44-7.4-2-10.65-3.05-5.13-1.66-10-4.13-14.99-6.23-28.9-12.18-58.01-23.81-88.55-31.31-15.31-3.76-30.76-6.96-46.6-2.75-12.16 3.24-23.37 8.01-31.11 18.74 1.13 2.43 1.92 4.74 3.18 6.74 21.38 34.03 43.09 67.85 68.49 99.1 4.33 5.32 8.08 11.27 13.08 15.86 13.28 12.2 27.1 23.83 41.67 36.52-9.35 3.27-27.51 9.36-29.51 10.36 0 0 101 65 161.71 79.53 1.34.32 1.21-2.29 1.19-3.08-.73-32.95-1.53-65.9-2.26-98.85-.1-4.33-1.72-9.04 2.37-12.82 6.21 1.83 5.7 7.61 7.49 14.67 43.35-62.96 83.76-125.07 121.51-189.37-26.41-7.78-67.47 2.05-81.57 28.48ZM257.98 126.4c-3 6-7.65 5.86-12 6-31 1-73 2-79 1-18-25-59.46-68.36-90.46-92.72-5.85-4.6-12.33-8.38-19.47-13.17-2.07 7.89-2.03 12.72-2.21 18.38-.79 24.5-1.78 49-1.79 73.51-.01 28.04.6 56.09 1.62 84.12.43 11.97-.61 22.76-10.22 31.28-2.48 2.2-4.03 5.44-6.13 8.37 1.22.5 1.53.76 1.75.7 1.17-.31 2.36-.59 3.46-1.08 20.11-9.08 40.63-7.27 61.18-2.07 29.35 7.42 57.62 17.96 85.42 29.86 8.13 3.48 16.38 6.68 25.52 10.39 2.03-18.85 11.53-31.36 26.81-39.81 14.67-8.12 30.79-10.12 47.09-11.51 10.23-.87 19.88 1.16 28.87 5.94 4.44 2.36 8.51 5.41 12.91 8.25 9.74-12.13 20.72-22.6 35.47-26.25 13.97-3.46 28.61-4.24 43.21-6.23-13.8-12.1-27.58-24.69-41.91-36.61-14.34-11.93-29.24-23.21-45.06-35.68-7.18-40.2-19.08-109.65-26.08-123.65-31 31-55.23 68.32-76.3 108.91 13.5 0 25.3.09 37.3 2.09ZM26.24 359.71c29.25 26.05 62.12 46.67 93.83 66.95 9.09-3.3 16.82-6.11 25.38-9.22-15.18-13.39-29.59-26.14-44.04-38.83-4-3.52-8.74-6.39-12.1-10.42-7.9-9.48-15.16-19.49-22.65-29.24-13.52 6.94-26.84 13.78-40.42 20.76ZM324.97 102.4c1.5 10.44 3.47 21.36 5 32 2.97 1.14 6.31 4.17 9.67 5.46-.7-13.58-6.4-27.34-14.67-37.46ZM509.67 69.67c1.5.47 2.48 1.88 2.43 3.44-.09 2.54-.62 5.41-.85 8.42-1.83 24.38-4.1 48.73-6.16 73.09-.86 10.12-2.02 20.91-3.89 35.96-.12.99-1.08 1.68-2.05 1.45-10.51-2.53-25.14-12.4-33.18-17.63 0 0-1.15-3.26-1.45-5.46-5.01-36.22-9.4-68.5-15.26-113.35-.25-1.89 1.47-3.46 3.34-3.04 17.65 3.97 29.41 8.46 38.83 11.55 4.86 1.6 11.62 3.49 18.25 5.58Zm-50.68-6.83c5.06 36.98 9.88 72.16 14.71 107.44 6.75 3.66 13.47 7.31 20.24 10.99 2.96-35.49 5.84-69.98 8.68-104.04-14.59-4.81-28.27-9.33-43.63-14.4ZM494.6 250.65c-8.01-3.96-15.81-7.81-24.2-11.96a3.008 3.008 0 0 1-1.66-2.4c-1.24-12.83-2.45-25.29-3.67-37.89-.12-1.28.66-2.47 1.88-2.88 3.89-1.29 7.16-.72 10.42 1.16 5.73 3.3 11.63 6.35 17.14 9.98 2.3 1.51 5.39 4.23 5.39 6.4-.02 11.11-.89 22.22-1.64 33.32-.06.93-.3 5.01-3.67 4.26Zm-2.49-34.96c-5.84-3.39-10.98-6.38-17.67-10.27.95 10.19 1.74 18.7 2.49 26.79 4.77 2.21 8.68 4.03 13.59 6.31.6-8.64 1.1-15.78 1.59-22.83Z" class="cls-1"/><path d="M293.47 260.96c-9.13-2.59-16.84-6.7-23.06-11.57-1.04-.81-.86-2.45.33-3.02 10.37-4.97 20.23-6.15 31.79-1.14.81.35 1.22 1.27.98 2.12-1.64 5.81-3.64 10.6-8.68 13.46-.41.23-.91.28-1.36.15ZM226.46 306.66c-.28-.47.3-.99.74-.67 8.89 6.48 16.94 13.83 26.39 17.96 9.21 4.02 19.84 4.79 29.5 6.57.79.15.94 1.22.23 1.59-13.57 6.95-45.95-6.85-56.86-25.45ZM266.34 291.74c14.97-7.01 29.94-14.03 44.69-20.93 1.95.59-.53 3.75-11.78 10.05-4.96 2.78-10.16 5.19-15.43 7.34-5.42 2.21-11.05 3.89-16.59 5.8-1.91-.33-3.03-.87-.89-2.25ZM71.37 48.09c3.6-5.69 51.6 99.31 45.6 98.31-9.68-14.65-15.93-37.48-25-53-1.96 3.08-3 7-5 12-6-3-11-5-11-5-2.5 1.67-6.58 8.6-8 15-4.6 20.79-1.53 37.64 10 55 .26.39 1.51 2.26 1.69 3.49a.72.72 0 0 1-.52.8c-1.6.41-3.54-.98-4.25-1.88-15.18-19.2-19.73-58.78.02-77.61l9.44 4.49c1.84-3.81 3.62-7.49 5.62-11.64-5.99-12.88-12.02-25.83-18.59-39.96ZM213.22 204.11c12.75 2.29 14.75 24.29 4.6 27.05-6.85.24-11.03-5.56-12.08-12.29-1.12-7.14.23-13.46 7.48-14.76ZM301.81 192.4c8.16 0 12.23 7.76 13.16 15 .62 4.85-1 11-8.37 11.15-8.63-.15-13.63-24.15-4.79-26.15Z" class="cls-1"/></svg>
