<svg width="56" height="24" viewBox="0 0 56 24" fill="none" xmlns="http://www.w3.org/2000/svg">
<rect width="56" height="24" rx="8" fill="#2D7EFF"/>
<path d="M12.8438 10H13.7813C13.7383 8.79297 12.625 7.89062 11.0781 7.89062C9.54688 7.89062 8.34375 8.78125 8.34375 10.125C8.34375 11.2031 9.125 11.8438 10.375 12.2031L11.3594 12.4844C12.2031 12.7187 12.9531 13.0156 12.9531 13.8125C12.9531 14.6875 12.1094 15.2656 11 15.2656C10.0469 15.2656 9.20313 14.8437 9.125 13.9375H8.125C8.21875 15.25 9.28125 16.1406 11 16.1406C12.8438 16.1406 13.8906 15.125 13.8906 13.8281C13.8906 12.3281 12.4688 11.8438 11.6406 11.625L10.8281 11.4062C10.2344 11.25 9.28125 10.9375 9.28125 10.0781C9.28125 9.3125 9.98438 8.75 11.0469 8.75C12.0156 8.75 12.75 9.21094 12.8438 10ZM16.4521 8H15.4834V16H16.4521V8ZM23.8633 10.5H24.8633C24.5664 8.95312 23.2695 7.89062 21.582 7.89062C19.5312 7.89062 18.082 9.46875 18.082 12C18.082 14.5312 19.5195 16.1094 21.6445 16.1094C23.5508 16.1094 24.9102 14.8398 24.9102 12.8594V12H21.8633V12.8594H23.9727C23.9453 14.2969 23 15.2031 21.6445 15.2031C20.1602 15.2031 19.0195 14.0781 19.0195 12C19.0195 9.92188 20.1602 8.79687 21.582 8.79687C22.7383 8.79687 23.5234 9.44922 23.8633 10.5ZM32.9131 8H31.96V14.2969H31.8818L27.5068 8H26.5693V16H27.5381V9.71875H27.6162L31.9756 16H32.9131V8ZM38.9141 8H37.9453V16H38.9141V8ZM47.2002 8H46.2471V14.2969H46.1689L41.7939 8H40.8564V16H41.8252V9.71875H41.9033L46.2627 16H47.2002V8Z" fill="white"/>
</svg>
