<svg width="56" height="24" viewBox="0 0 56 24" fill="none" xmlns="http://www.w3.org/2000/svg">
<rect width="56" height="24" rx="8" fill="#2D7EFF"/>
<path d="M15 16C17.2091 16 19 14.2091 19 12C19 9.79086 17.2091 8 15 8C12.7909 8 11 9.79086 11 12C11 14.2091 12.7909 16 15 16Z" fill="white"/>
<path d="M15 17.5C18.0376 17.5 20.5 15.0376 20.5 12C20.5 8.96243 18.0376 6.5 15 6.5C11.9624 6.5 9.5 8.96243 9.5 12C9.5 15.0376 11.9624 17.5 15 17.5Z" stroke="white"/>
<path d="M24.9688 16H25.9375V12.875H27.6875C27.7578 12.875 27.8242 12.875 27.8906 12.8711L29.5781 16H30.7031L28.8945 12.6953C29.9141 12.3477 30.3906 11.5156 30.3906 10.4531C30.3906 9.03906 29.5469 8 27.6719 8H24.9688V16ZM25.9375 12V8.85937H27.6406C28.9375 8.85937 29.4375 9.49219 29.4375 10.4531C29.4375 11.4141 28.9375 12 27.6563 12H25.9375ZM32.0049 16H36.8955V15.1406H32.9736V12.4219H36.583V11.5625H32.9736V8.85937H36.833V8H32.0049V16ZM45.0166 10.5C44.7197 8.85937 43.4072 7.89062 41.7979 7.89062C39.751 7.89062 38.2666 9.46875 38.2666 12C38.2666 14.5312 39.751 16.1094 41.7979 16.1094C43.4072 16.1094 44.7197 15.1406 45.0166 13.5H44.0479C43.8135 14.6094 42.8604 15.2031 41.7979 15.2031C40.3447 15.2031 39.2041 14.0781 39.2041 12C39.2041 9.92188 40.3447 8.79687 41.7979 8.79687C42.8604 8.79687 43.8135 9.39062 44.0479 10.5H45.0166Z" fill="white"/>
</svg>
