<svg width="56" height="24" viewBox="0 0 56 24" fill="none" xmlns="http://www.w3.org/2000/svg">
<rect width="56" height="24" rx="8" fill="#2D7EFF"/>
<path d="M10.4688 16H15.1563V15.1406H11.4375V8H10.4688V16ZM23.0947 12C23.0947 9.46875 21.6104 7.89062 19.5635 7.89062C17.5166 7.89062 16.0322 9.46875 16.0322 12C16.0322 14.5312 17.5166 16.1094 19.5635 16.1094C21.6104 16.1094 23.0947 14.5312 23.0947 12ZM22.1572 12C22.1572 14.0781 21.0166 15.2031 19.5635 15.2031C18.1104 15.2031 16.9697 14.0781 16.9697 12C16.9697 9.92188 18.1104 8.79687 19.5635 8.79687C21.0166 8.79687 22.1572 9.92188 22.1572 12ZM30.1924 10.5H31.1924C30.8955 8.95312 29.5986 7.89062 27.9111 7.89062C25.8604 7.89062 24.4111 9.46875 24.4111 12C24.4111 14.5312 25.8486 16.1094 27.9736 16.1094C29.8799 16.1094 31.2393 14.8398 31.2393 12.8594V12H28.1924V12.8594H30.3018C30.2744 14.2969 29.3291 15.2031 27.9736 15.2031C26.4893 15.2031 25.3486 14.0781 25.3486 12C25.3486 9.92188 26.4893 8.79687 27.9111 8.79687C29.0674 8.79687 29.8525 9.44922 30.1924 10.5ZM36.9609 8H35.9922V16H36.9609V8ZM45.2471 8H44.2939V14.2969H44.2158L39.8408 8H38.9033V16H39.8721V9.71875H39.9502L44.3096 16H45.2471V8Z" fill="white"/>
</svg>
