<svg width="56" height="24" viewBox="0 0 56 24" fill="none" xmlns="http://www.w3.org/2000/svg">
<rect x="0.5" y="0.5" width="55" height="23" rx="7.5" fill="#FF4500"/>
<rect x="7" y="8" width="8" height="8" fill="white"/>
<path d="M24.3438 10H25.2813C25.2383 8.79297 24.125 7.89062 22.5781 7.89062C21.0469 7.89062 19.8438 8.78125 19.8438 10.125C19.8438 11.2031 20.625 11.8438 21.875 12.2031L22.8594 12.4844C23.7031 12.7187 24.4531 13.0156 24.4531 13.8125C24.4531 14.6875 23.6094 15.2656 22.5 15.2656C21.5469 15.2656 20.7031 14.8437 20.625 13.9375H19.625C19.7188 15.25 20.7813 16.1406 22.5 16.1406C24.3438 16.1406 25.3906 15.125 25.3906 13.8281C25.3906 12.3281 23.9688 11.8438 23.1406 11.625L22.3281 11.4062C21.7344 11.25 20.7813 10.9375 20.7813 10.0781C20.7813 9.3125 21.4844 8.75 22.5469 8.75C23.5156 8.75 24.25 9.21094 24.3438 10ZM26.5459 8.85937H29.0615V16H30.0303V8.85937H32.5459V8H26.5459V8.85937ZM40.458 12C40.458 9.46875 38.9736 7.89062 36.9268 7.89062C34.8799 7.89062 33.3955 9.46875 33.3955 12C33.3955 14.5312 34.8799 16.1094 36.9268 16.1094C38.9736 16.1094 40.458 14.5312 40.458 12ZM39.5205 12C39.5205 14.0781 38.3799 15.2031 36.9268 15.2031C35.4736 15.2031 34.333 14.0781 34.333 12C34.333 9.92188 35.4736 8.79687 36.9268 8.79687C38.3799 8.79687 39.5205 9.92188 39.5205 12ZM42.0869 16H43.0557V13.0781H44.8057C46.6689 13.0781 47.5088 11.9453 47.5088 10.5312C47.5088 9.11719 46.6689 8 44.79 8H42.0869V16ZM43.0557 12.2188V8.85937H44.7588C46.0596 8.85937 46.5557 9.57031 46.5557 10.5312C46.5557 11.4922 46.0596 12.2188 44.7744 12.2188H43.0557Z" fill="white"/>
<rect x="0.5" y="0.5" width="55" height="23" rx="7.5" stroke="#FF4500"/>
</svg>
