<!-- This Source Code Form is subject to the terms of the Mozilla Public
   - License, v. 2.0. If a copy of the MPL was not distributed with this
   - file, You can obtain one at http://mozilla.org/MPL/2.0/. -->
<svg xmlns="http://www.w3.org/2000/svg" width="16" height="16" viewBox="0 0 16 16">
  <path d="M6.586 8l-2.293 2.293a1 1 0 0 0 1.414 1.414L8 9.414l2.293 2.293a1 1 0 0 0 1.414-1.414L9.414 8l2.293-2.293a1 1 0 1 0-1.414-1.414L8 6.586 5.707 4.293a1 1 0 0 0-1.414 1.414L6.586 8zM8 0a8 8 0 1 1 0 16A8 8 0 0 1 8 0z" fill="context-fill" fill-opacity="context-fill-opacity"/>
      <path d="M4.293 10.293L6.586 7.99999L4.293 5.70699C4.11084 5.51839 4.01004 5.26579 4.01232 5.00359C4.0146 4.74139 4.11977 4.49058 4.30518 4.30517C4.49058 4.11976 4.7414 4.01459 5.00359 4.01232C5.26579 4.01004 5.51839 4.11083 5.707 4.29299L8 6.58599L10.293 4.29299C10.3852 4.19748 10.4956 4.1213 10.6176 4.06889C10.7396 4.01648 10.8708 3.98889 11.0036 3.98774C11.1364 3.98659 11.2681 4.01189 11.3909 4.06217C11.5138 4.11245 11.6255 4.1867 11.7194 4.28059C11.8133 4.37449 11.8875 4.48614 11.9378 4.60904C11.9881 4.73193 12.0134 4.86361 12.0122 4.99639C12.0111 5.12917 11.9835 5.26039 11.9311 5.38239C11.8787 5.5044 11.8025 5.61474 11.707 5.70699L9.41399 7.99999L11.707 10.293C11.8892 10.4816 11.9899 10.7342 11.9877 10.9964C11.9854 11.2586 11.8802 11.5094 11.6948 11.6948C11.5094 11.8802 11.2586 11.9854 10.9964 11.9877C10.7342 11.9899 10.4816 11.8891 10.293 11.707L8 9.41399L5.707 11.707C5.51839 11.8891 5.26579 11.9899 5.00359 11.9877C4.7414 11.9854 4.49058 11.8802 4.30518 11.6948C4.11977 11.5094 4.0146 11.2586 4.01232 10.9964C4.01004 10.7342 4.11084 10.4816 4.293 10.293Z" fill="context-stroke"/>
</svg>
