<!-- This Source Code Form is subject to the terms of the Mozilla Public
   - License, v. 2.0. If a copy of the MPL was not distributed with this
   - file, You can obtain one at http://mozilla.org/MPL/2.0/. -->
<svg width="80" height="80" fill="context-fill" xmlns="http://www.w3.org/2000/svg"><path fill-rule="evenodd" clip-rule="evenodd" d="M76 2H4a2 2 0 0 0-2 2v72a2 2 0 0 0 2 2h72a2 2 0 0 0 2-2V4a2 2 0 0 0-2-2ZM4 0a4 4 0 0 0-4 4v72a4 4 0 0 0 4 4h72a4 4 0 0 0 4-4V4a4 4 0 0 0-4-4H4Zm3.08 7.08h15.892v15.892H7.08V7.08Zm4.54 2.27H9.35V20.701H20.701V9.35h-9.08Zm20.434-2.27h2.27v2.27h2.27V7.08h4.541v2.27h2.27v2.27H36.596v2.27h-4.541v2.271h-2.27v-2.27h-2.271v-2.27h2.27V9.35h2.27V7.08Zm-4.541 4.54h-2.27V9.35h2.27v2.27Zm2.27 11.352v-4.54h2.27v-2.27h4.541V13.89h4.541v2.27h4.54v2.27h-2.27v2.27h-2.27v-2.27h-2.27v2.27h-2.27v-2.27h-2.27v2.27h-2.271v2.271h-2.27Zm-4.54 2.27V18.433h2.27v4.54h2.27v2.27h-4.54Zm0 0v2.271h-9.081v-2.27h9.08Zm11.351-2.27h-2.27v-2.27h2.27v2.27Zm2.27 0h-2.27v4.541h-2.27v-2.27h-2.27v2.27h2.27v2.27h4.54V22.973Zm2.271 0v-2.27h-2.27v2.27h2.27Zm2.27 0h-2.27v6.811h4.54v-2.27h-2.27v-4.54Zm2.27 0h-2.27v-2.27h2.27v2.27Zm4.542-6.81h-2.27V22.971h-2.271v2.27h2.27v2.271h2.27v2.27h-2.27v2.27h2.27v-2.27h2.271v2.27h2.27v2.271h2.27v-4.54h2.271v2.27h2.27v2.27h-2.27v2.27h-2.27v2.27h-4.541v6.811h2.27v2.271h4.541v4.541h-6.811v-2.27h-2.27v2.27h-2.27v-2.27h-4.541v2.27h-4.541v-2.27h-4.54v2.27h2.27v2.27h2.27v2.27H45.675v4.541h2.271v2.27h-2.27v2.271h-2.27v-4.54h-4.541v-2.27h-2.27v-2.271h-2.27v2.27h2.27v2.27h-2.27v2.27h-2.271v-2.27h-2.27v-2.27h-2.271v-4.54h2.27v2.27h2.27v-2.27h-2.27v-2.271h2.27v-2.27h-4.54v-2.27h2.27v-2.271h-2.27v-4.54h2.27v-2.271h-2.27v-6.811h2.27v-2.27h-2.27v2.27h-4.54v-2.27h-2.271v2.27h2.27v2.27h-4.54v-4.54h-2.27V36.593H13.89v-4.54h-2.27v-2.27h2.27v-2.271H7.08v6.811h2.27v4.54h4.54v2.271h-2.27v2.27H9.35v-2.27H7.08v2.27h2.27v2.27H7.08v2.271h2.27v-2.27h2.27v2.27h2.27v-4.54h4.541v-2.27h-2.27v-4.541h2.27v2.27h2.27v2.27h2.271v2.27h-2.27v2.27h-2.27v2.271h-2.27v2.27H11.62v2.271H7.08v2.27h4.54v-2.27h4.541v2.27h9.081v9.081h4.541v4.541h-2.27v4.541h4.54v-2.27h2.271v2.27h2.27v-4.54h-4.54v-2.27h2.27v-2.271h2.27v-2.27h2.27v2.27h2.271v2.27h-2.27v6.811H45.675v-4.54h2.271v4.54h2.27v-4.54h2.271v4.54h6.811v-2.27h2.27v2.27h2.27v-2.27h-2.27v-2.27h-4.54v-2.27h-9.081v-2.271H59.297v2.27h2.27v-2.27h2.27v4.54h4.541v4.541h2.271v-2.27h2.27v-4.54h-2.27v-2.271h2.27v-2.27h-2.27v-2.27h2.27v-4.541h-2.27v-4.541h2.27V27.513h-2.27v-2.27h-2.27v2.27h-6.811v-2.27h-4.541v2.27h-2.27v-2.27h-2.271v-2.27h2.27v-4.541h-4.54v-2.27Zm2.27-6.812h2.27v4.54h-2.27v2.271h-2.27v-4.54h2.27V9.35Zm0 0h-6.811V7.08h6.811v2.27Zm0 13.622v-2.27h-2.27v2.27h2.27Zm9.081 6.811v2.27h2.27v2.271h-2.27v2.27h-2.27v4.541h-4.54v2.27h2.27v2.27h4.54v-2.27h2.27v4.541h-2.27v4.541h2.27v6.811h2.271v2.27h-2.27v2.27h4.54v-4.54h2.271v-4.54h-2.27v-4.541h2.27v-4.541h-2.27v-4.54h2.27v-6.811h-2.27v-2.271h2.27v-2.27h-4.54v2.27h-2.271v-2.27h-2.27Zm6.812 24.974h-2.27v2.27h2.27v-2.27Zm0-4.54h-4.541v-2.27h4.54v2.27Zm-4.541-9.082h2.27v2.27h-2.27v-2.27Zm-2.27 0v-4.54h2.27v4.54h-2.27Zm4.54-4.54v-2.27h-2.27v2.27h2.27Zm0 0h2.27v2.27h-2.27v-2.27Zm-4.54 4.54v2.27h-2.27v-2.27h2.27Zm0-11.352v-2.27h-2.27v2.27h2.27ZM57.028 68.38h-2.27v2.27h2.27v-2.27Zm-24.974 0h-2.27v2.27h2.27v-2.27ZM20.702 47.946v2.27h2.27v2.271h-4.54v-4.54h2.27Zm2.27-2.27v2.27h-2.27v-2.27h2.27Zm2.27 0v2.27h2.271v-2.27h-2.27Zm0 0h-2.27v-2.27h2.27v2.27Zm-2.27-9.082v2.27h-2.27v-2.27h2.27Zm0 0h2.27v-2.27h-2.27v2.27ZM9.35 34.324v-2.27h2.27v2.27H9.35Zm15.893 20.433h2.27v-2.27h-2.27v2.27ZM41.135 66.11v4.541h2.27v-4.54h-2.27Zm6.811-4.54v-2.27h2.27v2.27h-2.27Zm-2.27-6.812h-2.27v-2.27h2.27v2.27Zm0 0v2.27h2.27v-2.27h-2.27Zm4.54-20.433v2.27h2.271v-2.27h-2.27Zm2.271-9.081h-2.27v2.27h2.27v-2.27Zm4.54-18.163H72.92v15.892H57.028V7.08Zm4.541 2.27h-2.27V20.701H70.65V9.35h-9.081ZM11.62 11.62h6.811v6.811H11.621V11.621Zm34.056 0h2.27v2.27h-2.27v-2.27Zm15.892 0h6.811v6.811H61.57V11.621Zm-4.54 43.137h-2.27v6.811H61.567V54.758h-4.54ZM7.08 57.027h15.892V72.92H7.08V57.028Zm4.54 2.271H9.35V70.65H20.701V59.299h-9.08Zm45.408-2.27h2.27v2.27h-2.27v-2.27Zm-45.408 4.54h6.811v6.811H11.621V61.57Z"/></svg>
