<!-- This Source Code Form is subject to the terms of the Mozilla Public
   - License, v. 2.0. If a copy of the MPL was not distributed with this
   - file, You can obtain one at http://mozilla.org/MPL/2.0/. -->
<svg width="80" height="80" fill="context-fill" xmlns="http://www.w3.org/2000/svg"><path fill-rule="evenodd" clip-rule="evenodd" d="M4 2h72a2 2 0 0 1 2 2v72a2 2 0 0 1-2 2H4a2 2 0 0 1-2-2V4a2 2 0 0 1 2-2ZM0 4a4 4 0 0 1 4-4h72a4 4 0 0 1 4 4v72a4 4 0 0 1-4 4H4a4 4 0 0 1-4-4V4Zm7.08 3.08h15.892v15.892H7.08V7.08Zm4.54 2.27H9.35V20.701H20.701V9.35h-9.08Zm18.163-2.27h4.541v2.27h2.27v2.27h-2.27v2.27h-2.27v2.271h4.54v-4.54h2.27V9.35h2.271v6.811h-2.27v2.27h2.27v4.541h-2.27v-2.27h-2.27v-2.27h-2.27v2.27h-2.271v-2.27h-2.27V7.08Zm0 13.622v-2.27h-2.27V9.35h-2.27v13.622h2.27v2.27h-9.081v2.271h-2.27v2.27H13.89v-4.54h-2.27v2.27H7.08v2.27h2.27v2.27h2.27v2.271h9.081v2.27h2.271v2.27h-2.27v2.271h-2.27v-2.27h-2.27v-2.27H7.08v2.27h4.54v2.27H9.35v2.27h6.811v-2.27h2.27v4.54h6.811v-2.27h2.271v2.27h2.27v-4.54h-4.54v-2.27h2.27v-4.54h2.27v-2.271h-4.54v-2.27h2.27v-2.271h2.27v-4.54h2.27v2.27h4.541v2.27h-2.27v2.27h2.27v-2.27h2.27v-4.54h-2.27v-2.271h-2.27v2.27h-2.27v-2.27h-2.27Zm0 0h-2.27v2.27h2.27v-2.27Zm-9.081 11.352v2.27h2.27v2.27h2.27v-4.54h-4.54Zm4.54 9.081h-4.54v2.27h4.54v-2.27Zm-4.54-9.081v-2.27h2.27v-2.271h-4.54v4.54h2.27Zm-9.082 0v-2.27h2.27v2.27h-2.27ZM41.135 9.35V7.08h2.27v2.27h-2.27Zm2.27 20.433h-2.27v-4.54h2.27v2.27h2.27v-2.27h2.271v-4.541h2.27v2.27h2.271v-4.54h2.27V25.242h2.27v2.271h-4.54v-2.27h-2.27v4.54h-6.811Zm9.082 2.27v-2.27h-2.27v2.27h2.27Zm2.27 0h-2.27v4.541h-2.27v4.541h2.27v4.54h-2.27v4.541h-4.541v2.271h-2.27v-2.27h-2.27v2.27h2.27v2.27h-4.541v-4.54h-6.811v2.27h-2.27v-4.54h-4.541v2.27h-2.27v-2.27h-2.271v2.27h2.27v2.27h-4.54v-4.54H13.89v2.27h-2.27v-4.541H9.35v2.27H7.08v2.27h4.54v2.271H7.08v2.27h4.54v-2.27h2.27v2.27h2.271v-2.27h2.27v2.27h6.811v6.811h2.271v2.27h2.27v2.271h-4.54v2.27h2.27v2.271h2.27v-4.54h2.27v-2.271h-2.27v-4.54h4.541v2.27h2.27v2.27h-2.27v2.27h2.27v4.541h-2.27v2.27h2.27v-2.27h2.27v2.27h6.811v-2.27h4.541v-4.54h4.541v2.27h-2.27v4.54h2.27v-2.27h2.27v2.27h9.082V66.11h2.27v2.27h4.541v-2.27h-2.27v-6.811h2.27V45.675h-2.27v13.622h-2.27v-2.27h-2.27v-4.541h-6.811v-2.27h-4.541v-6.811h2.27v4.54h4.54v-4.54h-2.27v-2.27h-6.811v-2.271h2.27v-2.27h2.27v2.27h2.271v-4.54h4.54v9.08h2.271v-2.27h2.27v-2.27h-2.27v-6.811h2.27v-2.27h2.271v2.27h2.27v-4.541h-2.27v-2.27H59.299v2.27h-2.271v2.27h-2.27v2.27Zm2.27 0v2.271h-2.27v-2.27h2.27Zm2.271-2.27h2.27v2.27h2.27v-4.54h-4.54v2.27Zm0 0v2.27h-2.27v-2.27h2.27Zm9.082 29.515h-2.27v2.27h-2.271v2.27h4.54v-4.54ZM54.757 66.11h2.27v2.27h2.271v2.271h4.54v-2.27h-2.27v-2.27h-2.27v-2.271h-4.54v2.27Zm-6.81-2.27v2.27h2.27v-2.27h-2.27Zm-2.271 0v-2.27h-6.811v-2.27h2.27v-2.271h2.27v-2.27h9.082v4.54h-4.54v-2.27h-2.271v2.27h2.27v4.54h-2.27Zm0 0h-9.081v2.27h2.27v2.27h2.27v2.271h2.27v-2.27h2.27v-4.541Zm-9.082-6.811v2.27h-2.27v-2.27h2.27Zm0-2.27h2.27v2.27h-2.27v-2.27Zm0 0h-2.27v-2.271h2.27v2.27Zm-6.81 4.54v-6.811h-2.271v6.811h2.27ZM47.945 7.08h4.541v4.54h-2.27V9.35h-2.27V7.08Zm0 2.27v2.27h2.27v2.27h4.541v2.271h-4.54v2.27h-6.811v-2.27h2.27v-2.27h-2.27v-2.27h2.27V9.35h2.27Zm9.082-2.27H72.92v15.892H57.028V7.08Zm4.54 2.27h-2.27V20.701H70.65V9.35h-9.081ZM11.62 11.62h6.811v6.811H11.621V11.621Zm49.949 0H68.379v6.811H61.57V11.621Zm-18.163 9.082h2.27v2.27h-2.27v-2.27ZM68.38 34.324h2.27v2.27h-2.27v-2.27Zm2.27 2.27h2.27v4.541h-2.27v-4.54Zm-4.54 11.352h2.27v2.27h-2.27v-2.27Zm-9.082 6.811h-2.27v6.811H61.567V54.758h-4.54ZM7.08 57.027h15.892V72.92H7.08V57.028Zm4.54 2.271H9.35V70.65H20.701V59.299h-9.08Zm45.408-2.27h2.27v2.27h-2.27v-2.27Zm-45.408 4.54h6.811v6.811H11.621V61.57Zm59.03 9.082h2.27v2.27h-2.27v-2.27Z"/></svg>
